999
dxflib 3.3.4.0
  0
SECTION
  2
HEADER
  9
$ACADVER
  1
AC1015
  9
$HANDSEED
  5
FFFF
  9
$ANGBASE
 50
0.0
  9
$ATTMODE
 70
1
  9
$AUNITS
 70
0
  9
$AUPREC
 70
0
  9
$CELTSCALE
 40
1.0
  9
$CHAMFERA
 40
0.0
  9
$CHAMFERB
 40
0.0
  9
$CHAMFERC
 40
0.0
  9
$CHAMFERD
 40
0.0
  9
$CMLJUST
 70
0
  9
$CMLSCALE
 40
20.0
  9
$DIMADEC
 70
0
  9
$DIMALTD
 70
3
  9
$DIMALTF
 40
0.03937007874016
  9
$DIMALTRND
 40
0.0
  9
$DIMALTTD
 70
3
  9
$DIMALTTZ
 70
0
  9
$DIMALTU
 70
2
  9
$DIMALTZ
 70
0
  9
$DIMAPOST
  1

  9
$DIMASZ
 40
2.5
  9
$DIMATFIT
 70
3
  9
$DIMAUNIT
 70
0
  9
$DIMAZIN
 70
0
  9
$DIMCEN
 40
2.5
  9
$DIMDEC
 70
2
  9
$DIMDLE
 40
0.0
  9
$DIMDLI
 40
3.75
  9
$DIMDSEP
 70
44
  9
$DIMEXE
 40
1.25
  9
$DIMEXO
 40
0.625
  9
$DIMFRAC
 70
0
  9
$DIMGAP
 40
0.625
  9
$DIMJUST
 70
0
  9
$DIMLFAC
 40
1.0
  9
$DIMLUNIT
 70
2
  9
$DIMLWD
 70
-2
  9
$DIMLWE
 70
-2
  9
$DIMPOST
  1

  9
$DIMRND
 40
0.0
  9
$DIMSCALE
 40
1.0
  9
$DIMTAD
 70
1
  9
$DIMTDEC
 70
2
  9
$DIMTFAC
 40
1.0
  9
$DIMTM
 40
0.0
  9
$DIMTOLJ
 70
0
  9
$DIMTP
 40
0.0
  9
$DIMTSZ
 40
0.0
  9
$DIMTVP
 40
0.0
  9
$DIMTXT
 40
2.5
  9
$DIMTZIN
 70
8
  9
$DIMZIN
 70
8
  9
$DWGCODEPAGE
  3
ANSI_1252
  9
$ELEVATION
 40
0.0
  9
$EXTMAX
 10
26300.0
 20
20190.0
 30
0.0
  9
$EXTMIN
 10
-26750.0
 20
-23780.0
 30
0.0
  9
$FILLETRAD
 40
0.0
  9
$INSBASE
 10
0.0
 20
0.0
 30
0.0
  9
$INSUNITS
 70
4
  9
$LIMMAX
 10
420.0
 20
297.0
  9
$LIMMIN
 10
0.0
 20
0.0
  9
$LTSCALE
 40
1.0
  9
$LUNITS
 70
2
  9
$LUPREC
 70
4
  9
$MAXACTVP
 70
64
  9
$PDMODE
 70
0
  9
$PDSIZE
 40
0.0
  9
$PELEVATION
 40
0.0
  9
$PEXTMAX
 10
0.0
 20
0.0
 30
0.0
  9
$PEXTMIN
 10
0.0
 20
0.0
 30
0.0
  9
$PINSBASE
 10
0.0
 20
0.0
 30
0.0
  9
$PLIMMAX
 10
12.0
 20
9.0
  9
$PLIMMIN
 10
0.0
 20
0.0
  9
$PLINEWID
 40
0.0
  9
$PROXYGRAPHICS
 70
1
  9
$PUCSORG
 10
0.0
 20
0.0
 30
0.0
  9
$PUCSXDIR
 10
1.0
 20
0.0
 30
0.0
  9
$PUCSYDIR
 10
0.0
 20
1.0
 30
0.0
  9
$SHADEDGE
 70
3
  9
$SHADEDIF
 70
70
  9
$SKETCHINC
 40
1.0
  9
$SPLINESEGS
 70
8
  9
$SPLINETYPE
 70
6
  9
$SURFTAB1
 70
6
  9
$SURFTAB2
 70
6
  9
$SURFTYPE
 70
6
  9
$SURFU
 70
6
  9
$SURFV
 70
6
  9
$TEXTSIZE
 40
2.5
  9
$THICKNESS
 40
0.0
  9
$TRACEWID
 40
1.0
  9
$TREEDEPTH
 70
3020
  9
$UCSORG
 10
0.0
 20
0.0
 30
0.0
  9
$UCSXDIR
 10
1.0
 20
0.0
 30
0.0
  9
$UCSYDIR
 10
0.0
 20
1.0
 30
0.0
  9
$UNITMODE
 70
0
  9
$USERI1
 70
0
  9
$USERI2
 70
0
  9
$USERI3
 70
0
  9
$USERI4
 70
0
  9
$USERI5
 70
0
  9
$USERR1
 40
0.0
  9
$USERR2
 40
0.0
  9
$USERR3
 40
0.0
  9
$USERR4
 40
0.0
  9
$USERR5
 40
0.0
  0
ENDSEC
  0
SECTION
  2
TABLES
  0
TABLE
  2
VPORT
  5
8
100
AcDbSymbolTable
 70
1
  0
VPORT
  5
30
100
AcDbSymbolTableRecord
100
AcDbViewportTableRecord
  2
*Active
 70
0
 10
0.0
 20
0.0
 11
1.0
 21
1.0
 12
286.3055555555554861
 22
148.5
 13
0.0
 23
0.0
 14
10.0
 24
10.0
 15
10.0
 25
10.0
 16
0.0
 26
0.0
 36
1.0
 17
0.0
 27
0.0
 37
0.0
 40
297.0
 41
1.92798353909465
 42
50.0
 43
0.0
 44
0.0
 50
0.0
 51
0.0
 71
0
 72
100
 73
1
 74
3
 75
1
 76
1
 77
0
 78
0
281
0
 65
1
110
0.0
120
0.0
130
0.0
111
1.0
121
0.0
131
0.0
112
0.0
122
1.0
132
0.0
 79
0
146
0.0
  0
ENDTAB
  0
TABLE
  2
LTYPE
  5
5
100
AcDbSymbolTable
 70
21
  0
LTYPE
  5
16
100
AcDbSymbolTableRecord
100
AcDbLinetypeTableRecord
  2
CONTINUOUS
 70
0
  3
Solid line
 72
65
 73
0
 40
0.0
  0
LTYPE
  5
31
100
AcDbSymbolTableRecord
100
AcDbLinetypeTableRecord
  2
CENTER2
 70
0
  3
Center (.5x) ___ _ ___ _ ___ _ ___ _ ___ _ ___
 72
65
 73
4
 40
28.5749999999999993
 49
19.0500000000000007
 74
0
 49
-3.1749999999999998
 74
0
 49
3.1749999999999998
 74
0
 49
-3.1749999999999998
 74
0
  0
LTYPE
  5
32
100
AcDbSymbolTableRecord
100
AcDbLinetypeTableRecord
  2
DIVIDEX2
 70
0
  3
Divide (2x) ________  .  .  ________  .  .  _
 72
65
 73
6
 40
63.5
 49
25.3999999999999986
 74
0
 49
-12.6999999999999993
 74
0
 49
0.0
 74
0
 49
-12.6999999999999993
 74
0
 49
0.0
 74
0
 49
-12.6999999999999993
 74
0
  0
LTYPE
  5
33
100
AcDbSymbolTableRecord
100
AcDbLinetypeTableRecord
  2
DOT2
 70
0
  3
Dot (.5x) .....................................
 72
65
 73
2
 40
3.1749999999999998
 49
0.0
 74
0
 49
-3.1749999999999998
 74
0
  0
LTYPE
  5
34
100
AcDbSymbolTableRecord
100
AcDbLinetypeTableRecord
  2
DASHDOT2
 70
0
  3
Dash dot (.5x) _._._._._._._._._._._._._._._.
 72
65
 73
4
 40
12.6999999999999993
 49
6.3499999999999996
 74
0
 49
-3.1749999999999998
 74
0
 49
0.0
 74
0
 49
-3.1749999999999998
 74
0
  0
LTYPE
  5
35
100
AcDbSymbolTableRecord
100
AcDbLinetypeTableRecord
  2
DIVIDE
 70
0
  3
Divide ____ . . ____ . . ____ . . ____ . . ____
 72
65
 73
6
 40
31.75
 49
12.6999999999999993
 74
0
 49
-6.3499999999999996
 74
0
 49
0.0
 74
0
 49
-6.3499999999999996
 74
0
 49
0.0
 74
0
 49
-6.3499999999999996
 74
0
  0
LTYPE
  5
36
100
AcDbSymbolTableRecord
100
AcDbLinetypeTableRecord
  2
DASHDOT
 70
0
  3
Dash dot __ . __ . __ . __ . __ . __ . __ . __
 72
65
 73
4
 40
25.3999999999999986
 49
12.6999999999999993
 74
0
 49
-6.3499999999999996
 74
0
 49
0.0
 74
0
 49
-6.3499999999999996
 74
0
  0
LTYPE
  5
37
100
AcDbSymbolTableRecord
100
AcDbLinetypeTableRecord
  2
BORDER
 70
0
  3
Border __ __ . __ __ . __ __ . __ __ . __ __ .
 72
65
 73
6
 40
44.4500000000000028
 49
12.6999999999999993
 74
0
 49
-6.3499999999999996
 74
0
 49
12.6999999999999993
 74
0
 49
-6.3499999999999996
 74
0
 49
0.0
 74
0
 49
-6.3499999999999996
 74
0
  0
LTYPE
  5
38
100
AcDbSymbolTableRecord
100
AcDbLinetypeTableRecord
  2
DASHDOTX2
 70
0
  3
Dash dot (2x) ____  .  ____  .  ____  .  ___
 72
65
 73
4
 40
50.7999999999999972
 49
25.3999999999999986
 74
0
 49
-12.6999999999999993
 74
0
 49
0.0
 74
0
 49
-12.6999999999999993
 74
0
  0
LTYPE
  5
39
100
AcDbSymbolTableRecord
100
AcDbLinetypeTableRecord
  2
CENTERX2
 70
0
  3
Center (2x) ________  __  ________  __  _____
 72
65
 73
4
 40
101.5999999999999943
 49
63.5
 74
0
 49
-12.6999999999999993
 74
0
 49
12.6999999999999993
 74
0
 49
-12.6999999999999993
 74
0
  0
LTYPE
  5
3A
100
AcDbSymbolTableRecord
100
AcDbLinetypeTableRecord
  2
BORDER2
 70
0
  3
Border (.5x) __.__.__.__.__.__.__.__.__.__.__.
 72
65
 73
6
 40
22.2250000000000014
 49
6.3499999999999996
 74
0
 49
-3.1749999999999998
 74
0
 49
6.3499999999999996
 74
0
 49
-3.1749999999999998
 74
0
 49
0.0
 74
0
 49
-3.1749999999999998
 74
0
  0
LTYPE
  5
3B
100
AcDbSymbolTableRecord
100
AcDbLinetypeTableRecord
  2
BORDERX2
 70
0
  3
Border (2x) ____  ____  .  ____  ____  .  ___
 72
65
 73
6
 40
88.9000000000000057
 49
25.3999999999999986
 74
0
 49
-12.6999999999999993
 74
0
 49
25.3999999999999986
 74
0
 49
-12.6999999999999993
 74
0
 49
0.0
 74
0
 49
-12.6999999999999993
 74
0
  0
LTYPE
  5
14
100
AcDbSymbolTableRecord
100
AcDbLinetypeTableRecord
  2
BYBLOCK
 70
0
  3

 72
65
 73
0
 40
0.0
  0
LTYPE
  5
15
100
AcDbSymbolTableRecord
100
AcDbLinetypeTableRecord
  2
BYLAYER
 70
0
  3

 72
65
 73
0
 40
0.0
  0
LTYPE
  5
3C
100
AcDbSymbolTableRecord
100
AcDbLinetypeTableRecord
  2
DASHED2
 70
0
  3
Dashed (.5x) _ _ _ _ _ _ _ _ _ _ _ _ _ _ _ _ _
 72
65
 73
2
 40
9.5250000000000004
 49
6.3499999999999996
 74
0
 49
-3.1749999999999998
 74
0
  0
LTYPE
  5
3D
100
AcDbSymbolTableRecord
100
AcDbLinetypeTableRecord
  2
CENTER
 70
0
  3
Center ____ _ ____ _ ____ _ ____ _ ____ _ ____
 72
65
 73
4
 40
50.7999999999999972
 49
31.75
 74
0
 49
-6.3499999999999996
 74
0
 49
6.3499999999999996
 74
0
 49
-6.3499999999999996
 74
0
  0
LTYPE
  5
3E
100
AcDbSymbolTableRecord
100
AcDbLinetypeTableRecord
  2
DIVIDE2
 70
0
  3
Divide (.5x) __..__..__..__..__..__..__..__.._
 72
65
 73
6
 40
15.875
 49
6.3499999999999996
 74
0
 49
-3.1749999999999998
 74
0
 49
0.0
 74
0
 49
-3.1749999999999998
 74
0
 49
0.0
 74
0
 49
-3.1749999999999998
 74
0
  0
LTYPE
  5
3F
100
AcDbSymbolTableRecord
100
AcDbLinetypeTableRecord
  2
DASHED
 70
0
  3
Dashed __ __ __ __ __ __ __ __ __ __ __ __ __ _
 72
65
 73
2
 40
19.0500000000000007
 49
12.6999999999999993
 74
0
 49
-6.3499999999999996
 74
0
  0
LTYPE
  5
40
100
AcDbSymbolTableRecord
100
AcDbLinetypeTableRecord
  2
DOTX2
 70
0
  3
Dot (2x) .  .  .  .  .  .  .  .  .  .  .  .  .
 72
65
 73
2
 40
12.6999999999999993
 49
0.0
 74
0
 49
-12.6999999999999993
 74
0
  0
LTYPE
  5
41
100
AcDbSymbolTableRecord
100
AcDbLinetypeTableRecord
  2
DASHEDX2
 70
0
  3
Dashed (2x) ____  ____  ____  ____  ____  ___
 72
65
 73
2
 40
38.1000000000000014
 49
25.3999999999999986
 74
0
 49
-12.6999999999999993
 74
0
  0
LTYPE
  5
42
100
AcDbSymbolTableRecord
100
AcDbLinetypeTableRecord
  2
DOT
 70
0
  3
Dot . . . . . . . . . . . . . . . . . . . . . .
 72
65
 73
2
 40
6.3499999999999996
 49
0.0
 74
0
 49
-6.3499999999999996
 74
0
  0
ENDTAB
  0
TABLE
  2
LAYER
  5
2
100
AcDbSymbolTable
 70
23
  0
LAYER
  5
43
100
AcDbSymbolTableRecord
100
AcDbLayerTableRecord
  2
xian1
 70
0
 62
7
420
16777215
  6
CONTINUOUS
370
-3
390
F
  0
LAYER
  5
44
100
AcDbSymbolTableRecord
100
AcDbLayerTableRecord
  2
shukongjichuang
 70
0
 62
7
420
16777215
  6
CONTINUOUS
370
-3
390
F
  0
LAYER
  5
45
100
AcDbSymbolTableRecord
100
AcDbLayerTableRecord
  2
twaver.idc.wall
 70
0
 62
2
420
16776960
  6
CONTINUOUS
370
-3
390
F
  0
LAYER
  5
46
100
AcDbSymbolTableRecord
100
AcDbLayerTableRecord
  2
twaver.idc.door1
 70
0
 62
2
420
16776960
  6
CONTINUOUS
370
-3
390
F
  0
LAYER
  5
47
100
AcDbSymbolTableRecord
100
AcDbLayerTableRecord
  2
twaver.idc.innerWall
 70
0
 62
7
420
16777215
  6
CONTINUOUS
370
-3
390
F
  0
LAYER
  5
48
100
AcDbSymbolTableRecord
100
AcDbLayerTableRecord
  2
chuang
 70
0
 62
7
420
16777215
  6
CONTINUOUS
370
-3
390
F
  0
LAYER
  5
10
100
AcDbSymbolTableRecord
100
AcDbLayerTableRecord
  2
0
 70
0
 62
7
420
16777215
  6
CONTINUOUS
370
-3
390
F
  0
LAYER
  5
49
100
AcDbSymbolTableRecord
100
AcDbLayerTableRecord
  2
caodi
 70
0
 62
7
420
16777215
  6
CONTINUOUS
370
-3
390
F
  0
LAYER
  5
4A
100
AcDbSymbolTableRecord
100
AcDbLayerTableRecord
  2
twaver.idc.rack
 70
0
 62
7
420
16777215
  6
CONTINUOUS
370
-3
390
F
  0
LAYER
  5
4B
100
AcDbSymbolTableRecord
100
AcDbLayerTableRecord
  2
kaijuanji
 70
0
 62
7
420
16777215
  6
CONTINUOUS
370
-3
390
F
  0
LAYER
  5
4C
100
AcDbSymbolTableRecord
100
AcDbLayerTableRecord
  2
wall
 70
0
 62
7
420
16777215
  6
CONTINUOUS
370
-3
390
F
  0
LAYER
  5
4D
100
AcDbSymbolTableRecord
100
AcDbLayerTableRecord
  2
twaver.park.tree
 70
0
 62
7
420
16777215
  6
CONTINUOUS
370
-3
390
F
  0
LAYER
  5
4E
100
AcDbSymbolTableRecord
100
AcDbLayerTableRecord
  2
twaver.idc.aisle
 70
0
 62
7
420
16777215
  6
CONTINUOUS
370
-3
390
F
  0
LAYER
  5
4F
100
AcDbSymbolTableRecord
100
AcDbLayerTableRecord
  2
twaver.idc.window
 70
0
 62
7
420
16777215
  6
CONTINUOUS
370
-3
390
F
  0
LAYER
  5
50
100
AcDbSymbolTableRecord
100
AcDbLayerTableRecord
  2
twaver.idc.airCondition
 70
0
 62
7
420
16777215
  6
CONTINUOUS
370
-3
390
F
  0
LAYER
  5
51
100
AcDbSymbolTableRecord
100
AcDbLayerTableRecord
  2
xian
 70
0
 62
7
420
16777215
  6
CONTINUOUS
370
-3
390
F
  0
LAYER
  5
52
100
AcDbSymbolTableRecord
100
AcDbLayerTableRecord
  2
twaver.idc.column
 70
0
 62
112
420
52326
  6
CONTINUOUS
370
-3
390
F
  0
LAYER
  5
53
100
AcDbSymbolTableRecord
100
AcDbLayerTableRecord
  2
men
 70
0
 62
7
420
16777215
  6
CONTINUOUS
370
-3
390
F
  0
LAYER
  5
54
100
AcDbSymbolTableRecord
100
AcDbLayerTableRecord
  2
twaver.idc.door
 70
0
 62
2
420
16776960
  6
CONTINUOUS
370
-3
390
F
  0
LAYER
  5
55
100
AcDbSymbolTableRecord
100
AcDbLayerTableRecord
  2
\U+56fe\U+5c421
 70
0
 62
7
420
16777215
  6
CONTINUOUS
370
-3
390
F
  0
LAYER
  5
56
100
AcDbSymbolTableRecord
100
AcDbLayerTableRecord
  2
twaver.idc.aisle1
 70
0
 62
7
420
16777215
  6
CONTINUOUS
370
-3
390
F
  0
LAYER
  5
57
100
AcDbSymbolTableRecord
100
AcDbLayerTableRecord
  2
shukongjichuang2
 70
0
 62
7
420
16777215
  6
CONTINUOUS
370
-3
390
F
  0
LAYER
  5
58
100
AcDbSymbolTableRecord
100
AcDbLayerTableRecord
  2
chechuang
 70
0
 62
7
420
16777215
  6
CONTINUOUS
370
-3
390
F
  0
ENDTAB
  0
TABLE
  2
STYLE
  5
3
100
AcDbSymbolTable
 70
6
  0
STYLE
  5
59
100
AcDbSymbolTableRecord
100
AcDbTextStyleTableRecord
  2
Standard
 70
0
 40
0.0
 41
1.0
 50
0.0
 71
0
 42
2.5
  3

  4

1001
ACAD
1000
txt
1071
0
  0
STYLE
  5
5A
100
AcDbSymbolTableRecord
100
AcDbTextStyleTableRecord
  2
textstyle0
 70
0
 40
0.0
 41
1.0
 50
0.0
 71
0
 42
480.0
  3

  4

1001
ACAD
1000
\U+4eff\U+5b8b_GB2312
1071
0
  0
STYLE
  5
5B
100
AcDbSymbolTableRecord
100
AcDbTextStyleTableRecord
  2
textstyle1
 70
0
 40
0.0
 41
1.0
 50
0.0
 71
0
 42
480.0
  3

  4

1001
ACAD
1000
\U+4eff\U+5b8b_GB2312
1071
0
  0
STYLE
  5
5C
100
AcDbSymbolTableRecord
100
AcDbTextStyleTableRecord
  2
textstyle2
 70
0
 40
0.0
 41
1.0
 50
0.0
 71
0
 42
480.0
  3

  4

1001
ACAD
1000
\U+4eff\U+5b8b_GB2312
1071
0
  0
STYLE
  5
5D
100
AcDbSymbolTableRecord
100
AcDbTextStyleTableRecord
  2
textstyle3
 70
0
 40
0.0
 41
1.0
 50
0.0
 71
0
 42
480.0
  3

  4

1001
ACAD
1000
\U+4eff\U+5b8b_GB2312
1071
0
  0
STYLE
  5
5E
100
AcDbSymbolTableRecord
100
AcDbTextStyleTableRecord
  2
textstyle4
 70
0
 40
0.0
 41
1.0
 50
0.0
 71
0
 42
480.0
  3

  4

1001
ACAD
1000
\U+4eff\U+5b8b_GB2312
1071
0
  0
ENDTAB
  0
TABLE
  2
VIEW
  5
6
100
AcDbSymbolTable
 70
0
  0
ENDTAB
  0
TABLE
  2
UCS
  5
7
100
AcDbSymbolTable
 70
0
  0
ENDTAB
  0
TABLE
  2
APPID
  5
9
100
AcDbSymbolTable
 70
1
  0
APPID
  5
12
100
AcDbSymbolTableRecord
100
AcDbRegAppTableRecord
  2
ACAD
 70
0
  0
APPID
  5
5F
100
AcDbSymbolTableRecord
100
AcDbRegAppTableRecord
  2
QCAD
 70
0
  0
ENDTAB
  0
TABLE
  2
DIMSTYLE
  5
A
100
AcDbSymbolTable
 70
1
100
AcDbDimStyleTable
 71
0
  0
DIMSTYLE
105
27
100
AcDbSymbolTableRecord
100
AcDbDimStyleTableRecord
  2
Standard
 41
2.5
 42
0.625
 43
3.75
 44
1.25
 70
0
 73
0
 74
0
 77
1
 78
8
140
2.5
141
2.5
143
0.03937007874016
147
0.625
171
3
172
1
271
2
272
2
274
3
278
44
283
0
284
8
340
59
  0
ENDTAB
  0
TABLE
  2
BLOCK_RECORD
  5
1
100
AcDbSymbolTable
 70
1
  0
BLOCK_RECORD
  5
1F
100
AcDbSymbolTableRecord
100
AcDbBlockTableRecord
  2
*Model_Space
340
22
  0
BLOCK_RECORD
  5
1B
100
AcDbSymbolTableRecord
100
AcDbBlockTableRecord
  2
*Paper_Space
340
1E
  0
BLOCK_RECORD
  5
23
100
AcDbSymbolTableRecord
100
AcDbBlockTableRecord
  2
*Paper_Space0
340
26
  0
BLOCK_RECORD
  5
60
100
AcDbSymbolTableRecord
100
AcDbBlockTableRecord
  2
3
340
0
  0
BLOCK_RECORD
  5
61
100
AcDbSymbolTableRecord
100
AcDbBlockTableRecord
  2
4
340
0
  0
BLOCK_RECORD
  5
62
100
AcDbSymbolTableRecord
100
AcDbBlockTableRecord
  2
44444
340
0
  0
BLOCK_RECORD
  5
63
100
AcDbSymbolTableRecord
100
AcDbBlockTableRecord
  2
5
340
0
  0
BLOCK_RECORD
  5
64
100
AcDbSymbolTableRecord
100
AcDbBlockTableRecord
  2
6
340
0
  0
BLOCK_RECORD
  5
65
100
AcDbSymbolTableRecord
100
AcDbBlockTableRecord
  2
7
340
0
  0
BLOCK_RECORD
  5
66
100
AcDbSymbolTableRecord
100
AcDbBlockTableRecord
  2
1200\U+51b7\U+901a\U+9053
340
0
  0
BLOCK_RECORD
  5
67
100
AcDbSymbolTableRecord
100
AcDbBlockTableRecord
  2
_DIMX
340
0
  0
BLOCK_RECORD
  5
68
100
AcDbSymbolTableRecord
100
AcDbBlockTableRecord
  2
A$C71F21837
340
0
  0
BLOCK_RECORD
  5
69
100
AcDbSymbolTableRecord
100
AcDbBlockTableRecord
  2
1
340
0
  0
BLOCK_RECORD
  5
6A
100
AcDbSymbolTableRecord
100
AcDbBlockTableRecord
  2
2
340
0
  0
BLOCK_RECORD
  5
6B
100
AcDbSymbolTableRecord
100
AcDbBlockTableRecord
  2
123
340
0
  0
BLOCK_RECORD
  5
6C
100
AcDbSymbolTableRecord
100
AcDbBlockTableRecord
  2
_ArchTick
340
0
  0
ENDTAB
  0
ENDSEC
  0
SECTION
  2
BLOCKS
  0
BLOCK
  5
20
100
AcDbEntity
  8
0
100
AcDbBlockBegin
  2
*Model_Space
 70
0
 10
0.0
 20
0.0
 30
0.0
  3
*Model_Space
  1

  0
ENDBLK
  5
21
100
AcDbEntity
  8
0
100
AcDbBlockEnd
  0
BLOCK
  5
1C
100
AcDbEntity
 67
1
  8
0
100
AcDbBlockBegin
  2
*Paper_Space
 70
0
 10
0.0
 20
0.0
 30
0.0
  3
*Paper_Space
  1

  0
ENDBLK
  5
1D
100
AcDbEntity
 67
1
  8
0
100
AcDbBlockEnd
  0
BLOCK
  5
24
100
AcDbEntity
  8
0
100
AcDbBlockBegin
  2
*Paper_Space0
 70
0
 10
0.0
 20
0.0
 30
0.0
  3
*Paper_Space0
  1

  0
ENDBLK
  5
25
100
AcDbEntity
  8
0
100
AcDbBlockEnd
  0
BLOCK
  5
6D
100
AcDbEntity
  8
0
100
AcDbBlockBegin
  2
3
 70
0
 10
0.0
 20
0.0
 30
0.0
  3
3
  1

  0
LWPOLYLINE
  5
6E
  8
0
 62
256
370
-1
  6
BYLAYER
100
AcDbEntity
100
AcDbPolyline
 90
4
 70
1
 10
-500.0
 20
600.0
 30
0.0
 10
500.0
 20
600.0
 30
0.0
 10
500.0
 20
-600.0
 30
0.0
 10
-500.0
 20
-600.0
 30
0.0
  0
ENDBLK
  5
6F
100
AcDbEntity
  8
0
100
AcDbBlockEnd
  0
BLOCK
  5
70
100
AcDbEntity
  8
0
100
AcDbBlockBegin
  2
4
 70
0
 10
0.0
 20
0.0
 30
0.0
  3
4
  1

  0
LWPOLYLINE
  5
71
  8
twaver.idc.airCondition
 62
2
420
16776960
370
-1
  6
BYBLOCK
100
AcDbEntity
100
AcDbPolyline
 90
4
 70
1
 10
-1225.0005259469030534
 20
450.0
 30
0.0
 10
1225.0005259469030534
 20
450.0
 30
0.0
 10
1225.0005259469030534
 20
-450.0
 30
0.0
 10
-1225.0005259469030534
 20
-450.0
 30
0.0
  0
ENDBLK
  5
72
100
AcDbEntity
  8
0
100
AcDbBlockEnd
  0
BLOCK
  5
73
100
AcDbEntity
  8
0
100
AcDbBlockBegin
  2
44444
 70
0
 10
0.0
 20
0.0
 30
0.0
  3
44444
  1

  0
INSERT
  5
74
100
AcDbEntity
100
AcDbBlockReference
  8
shukongjichuang2
 62
256
370
-1
  6
BYLAYER
  2
123
 10
0.6051927054068074
 20
9.8100594865391049
 30
0.0
 50
180.0
  0
ENDBLK
  5
75
100
AcDbEntity
  8
0
100
AcDbBlockEnd
  0
BLOCK
  5
76
100
AcDbEntity
  8
0
100
AcDbBlockBegin
  2
5
 70
0
 10
0.0
 20
0.0
 30
0.0
  3
5
  1

  0
LWPOLYLINE
  5
77
  8
0
 62
256
370
-1
  6
BYLAYER
100
AcDbEntity
100
AcDbPolyline
 90
4
 70
1
 10
-5600.0022215176368263
 20
899.9933371336138634
 30
0.0
 10
5600.0022215176368263
 20
899.9933371336138634
 30
0.0
 10
5600.0022215176368263
 20
-899.993337133613295
 30
0.0
 10
-5600.0022215176368263
 20
-899.993337133613295
 30
0.0
  0
ENDBLK
  5
78
100
AcDbEntity
  8
0
100
AcDbBlockEnd
  0
BLOCK
  5
79
100
AcDbEntity
  8
0
100
AcDbBlockBegin
  2
6
 70
0
 10
0.0
 20
0.0
 30
0.0
  3
6
  1

  0
LWPOLYLINE
  5
7A
  8
0
 62
256
370
-1
  6
BYLAYER
100
AcDbEntity
100
AcDbPolyline
 90
4
 70
1
 10
-6600.0007362496226051
 20
599.9918362784795818
 30
0.0
 10
6600.0007362496189671
 20
599.9918362784795818
 30
0.0
 10
6600.0007362496189671
 20
-599.991836278478786
 30
0.0
 10
-6600.0007362496226051
 20
-599.991836278478786
 30
0.0
  0
ENDBLK
  5
7B
100
AcDbEntity
  8
0
100
AcDbBlockEnd
  0
BLOCK
  5
7C
100
AcDbEntity
  8
0
100
AcDbBlockBegin
  2
7
 70
0
 10
0.0
 20
0.0
 30
0.0
  3
7
  1

  0
LWPOLYLINE
  5
7D
  8
0
 62
256
370
-1
  6
BYLAYER
100
AcDbEntity
100
AcDbPolyline
 90
4
 70
1
 10
-6600.0022205631994439
 20
899.992100444657126
 30
0.0
 10
6600.0022205631994439
 20
899.992100444657126
 30
0.0
 10
6600.0022205631994439
 20
-899.9921004446565576
 30
0.0
 10
-6600.0022205631994439
 20
-899.9921004446565576
 30
0.0
  0
ENDBLK
  5
7E
100
AcDbEntity
  8
0
100
AcDbBlockEnd
  0
BLOCK
  5
7F
100
AcDbEntity
  8
0
100
AcDbBlockBegin
  2
1200\U+51b7\U+901a\U+9053
 70
0
 10
0.0
 20
0.0
 30
0.0
  3
1200\U+51b7\U+901a\U+9053
  1

  0
LWPOLYLINE
  5
80
  8
0
 62
256
370
-1
  6
BYLAYER
100
AcDbEntity
100
AcDbPolyline
 90
4
 70
1
 10
1323304.8705742969177663
 20
-1858944.4235952289309353
 30
0.0
 10
1322104.8705742969177663
 20
-1858944.4235952289309353
 30
0.0
 10
1322104.8705742969177663
 20
-1845744.4236070320475847
 30
0.0
 10
1323304.8705742969177663
 20
-1845744.4236070320475847
 30
0.0
  0
TEXT
  5
81
100
AcDbEntity
100
AcDbText
  8
0
 62
256
370
-1
  6
BYLAYER
 10
1322423.3628529359120876
 20
-1850180.5695475100073963
 30
0.0
 40
480.0
  1
\U+5c01
 50
0.0
 41
1.0
  7
textstyle0
 71
0
 72
0
 11
1322423.3628529359120876
 21
-1850180.5695475100073963
 31
0.0
100
AcDbText
 73
0
  0
TEXT
  5
82
100
AcDbEntity
100
AcDbText
  8
0
 62
256
370
-1
  6
BYLAYER
 10
1322423.3628529359120876
 20
-1851365.3377944969106466
 30
0.0
 40
480.0
  1
\U+95ed
 50
0.0
 41
1.0
  7
textstyle1
 71
0
 72
0
 11
1322423.3628529359120876
 21
-1851365.3377944969106466
 31
0.0
100
AcDbText
 73
0
  0
TEXT
  5
83
100
AcDbEntity
100
AcDbText
  8
0
 62
256
370
-1
  6
BYLAYER
 10
1322423.3628529359120876
 20
-1852550.10604148497805
 30
0.0
 40
480.0
  1
\U+51b7
 50
0.0
 41
1.0
  7
textstyle2
 71
0
 72
0
 11
1322423.3628529359120876
 21
-1852550.10604148497805
 31
0.0
100
AcDbText
 73
0
  0
TEXT
  5
84
100
AcDbEntity
100
AcDbText
  8
0
 62
256
370
-1
  6
BYLAYER
 10
1322423.3628529359120876
 20
-1853734.8742884721141309
 30
0.0
 40
480.0
  1
\U+901a
 50
0.0
 41
1.0
  7
textstyle3
 71
0
 72
0
 11
1322423.3628529359120876
 21
-1853734.8742884721141309
 31
0.0
100
AcDbText
 73
0
  0
TEXT
  5
85
100
AcDbEntity
100
AcDbText
  8
0
 62
256
370
-1
  6
BYLAYER
 10
1322423.3628529359120876
 20
-1854919.6425354599487036
 30
0.0
 40
480.0
  1
\U+9053
 50
0.0
 41
1.0
  7
textstyle4
 71
0
 72
0
 11
1322423.3628529359120876
 21
-1854919.6425354599487036
 31
0.0
100
AcDbText
 73
0
  0
HATCH
  5
86
  8
0
 62
256
370
-1
  6
BYLAYER
100
AcDbEntity
100
AcDbHatch
 10
0.0
 20
0.0
 30
0.0
210
0.0
220
0.0
230
1.0
  2
AR-SAND
 70
0
 71
0
 91
6
 92
1
 93
4
 72
1
 10
1323304.8705742969177663
 20
-1845744.4236070320475847
 11
1322104.8705742969177663
 21
-1845744.4236070329789072
 72
1
 10
1322104.8705742969177663
 20
-1845744.4236070329789072
 11
1322104.8705742969177663
 21
-1858944.4235952289309353
 72
1
 10
1322104.8705742969177663
 20
-1858944.4235952289309353
 11
1323304.8705742969177663
 21
-1858944.4235952289309353
 72
1
 10
1323304.8705742969177663
 20
-1858944.4235952289309353
 11
1323304.8705742969177663
 21
-1845744.4236070320475847
 97
0
 92
1
 93
4
 72
1
 10
1322265.74123131390661
 20
-1855149.9128057300113142
 11
1323112.3574475299101323
 21
-1855149.9128057300113142
 72
1
 10
1323112.3574475299101323
 20
-1855149.9128057300113142
 11
1323112.3574475299101323
 21
-1854204.1830760000739247
 72
1
 10
1323112.3574475299101323
 20
-1854204.1830760000739247
 11
1322265.74123131390661
 21
-1854204.1830760000739247
 72
1
 10
1322265.74123131390661
 20
-1854204.1830760000739247
 11
1322265.74123131390661
 21
-1855149.9128057300113142
 97
0
 92
1
 93
4
 72
1
 10
1322274.8223123950883746
 20
-1853958.6580722560174763
 11
1323103.2763664498925209
 21
-1853958.6580722560174763
 72
1
 10
1323103.2763664498925209
 20
-1853958.6580722560174763
 11
1323103.2763664498925209
 21
-1853067.4148290129378438
 72
1
 10
1323103.2763664498925209
 20
-1853067.4148290129378438
 11
1322274.8223123950883746
 21
-1853067.4148290129378438
 72
1
 10
1322274.8223123950883746
 20
-1853067.4148290129378438
 11
1322274.8223123950883746
 21
-1853958.6580722560174763
 97
0
 92
1
 93
4
 72
1
 10
1322268.9844745579175651
 20
-1852774.5384739169385284
 11
1323109.1142042870633304
 21
-1852774.5384739169385284
 72
1
 10
1323109.1142042870633304
 20
-1852774.5384739169385284
 11
1323109.1142042870633304
 21
-1851848.2682036471087486
 72
1
 10
1323109.1142042870633304
 20
-1851848.2682036471087486
 11
1322268.9844745579175651
 21
-1851848.2682036471087486
 72
1
 10
1322268.9844745579175651
 20
-1851848.2682036471087486
 11
1322268.9844745579175651
 21
-1852774.5384739169385284
 97
0
 92
1
 93
4
 72
1
 10
1322267.687177259940654
 20
-1851585.8783350379671901
 11
1323110.4115015850402415
 21
-1851585.8783350379671901
 72
1
 10
1323110.4115015850402415
 20
-1851585.8783350379671901
 11
1323110.4115015850402415
 21
-1850651.8242809840012342
 72
1
 10
1323110.4115015850402415
 20
-1850651.8242809840012342
 11
1322267.687177259940654
 21
-1850651.8242809840012342
 72
1
 10
1322267.687177259940654
 20
-1850651.8242809840012342
 11
1322267.687177259940654
 21
-1851585.8783350379671901
 97
0
 92
1
 93
4
 72
1
 10
1322265.74123131390661
 20
-1850410.8398177800700068
 11
1323112.3574475299101323
 21
-1850410.8398177800700068
 72
1
 10
1323112.3574475299101323
 20
-1850410.8398177800700068
 11
1323112.3574475299101323
 21
-1849465.1100880498997867
 72
1
 10
1323112.3574475299101323
 20
-1849465.1100880498997867
 11
1322265.74123131390661
 21
-1849465.1100880498997867
 72
1
 10
1322265.74123131390661
 20
-1849465.1100880498997867
 11
1322265.74123131390661
 21
-1850410.8398177800700068
 97
0
 75
0
 76
1
 52
45.0
 41
50.0
 77
0
 78
1
 53
45.0
 43
0.0
 44
0.0
 45
-0.0883883476483184
 46
0.0883883476483185
 79
0
 98
0
1001
ACAD
1010
0.0
1020
0.0
1030
0
  0
ENDBLK
  5
87
100
AcDbEntity
  8
0
100
AcDbBlockEnd
  0
BLOCK
  5
88
100
AcDbEntity
  8
0
100
AcDbBlockBegin
  2
_DIMX
 70
0
 10
0.0
 20
0.0
 30
0.0
  3
_DIMX
  1

  0
LINE
  5
89
100
AcDbEntity
100
AcDbLine
  8
0
 62
256
370
-1
  6
BYLAYER
 10
-150.0
 20
0.0
 30
0.0
 11
150.0
 21
0.0
 31
0.0
  0
LWPOLYLINE
  5
8A
  8
0
 62
256
370
-1
  6
BYLAYER
100
AcDbEntity
100
AcDbPolyline
 90
2
 70
0
 10
-70.0
 20
-70.0
 30
0.0
 10
70.0
 20
70.0
 30
0.0
  0
ENDBLK
  5
8B
100
AcDbEntity
  8
0
100
AcDbBlockEnd
  0
BLOCK
  5
8C
100
AcDbEntity
  8
0
100
AcDbBlockBegin
  2
A$C71F21837
 70
0
 10
0.0
 20
0.0
 30
0.0
  3
A$C71F21837
  1

  0
LWPOLYLINE
  5
8D
  8
twaver.park.tree
 62
3
420
65280
370
-1
  6
BYLAYER
100
AcDbEntity
100
AcDbPolyline
 90
4
 70
1
 10
-0.0000732739044906
 20
1700.0000737221268992
 30
0.0
 10
1729.9999267260950546
 20
1700.0000737221268992
 30
0.0
 10
1729.9999267260950546
 20
0.0000737221271265
 30
0.0
 10
-0.0000732739044906
 20
0.0000737221271265
 30
0.0
  0
ENDBLK
  5
8E
100
AcDbEntity
  8
0
100
AcDbBlockEnd
  0
BLOCK
  5
8F
100
AcDbEntity
  8
0
100
AcDbBlockBegin
  2
1
 70
0
 10
0.0
 20
0.0
 30
0.0
  3
1
  1

  0
LWPOLYLINE
  5
90
  8
0
 62
256
370
-1
  6
BYLAYER
100
AcDbEntity
100
AcDbPolyline
 90
4
 70
1
 10
-300.0
 20
600.0
 30
0.0
 10
300.0
 20
600.0
 30
0.0
 10
300.0
 20
-600.0
 30
0.0
 10
-300.0
 20
-600.0
 30
0.0
  0
ENDBLK
  5
91
100
AcDbEntity
  8
0
100
AcDbBlockEnd
  0
BLOCK
  5
92
100
AcDbEntity
  8
0
100
AcDbBlockBegin
  2
2
 70
0
 10
0.0
 20
0.0
 30
0.0
  3
2
  1

  0
LWPOLYLINE
  5
93
  8
0
 62
256
370
-1
  6
BYLAYER
100
AcDbEntity
100
AcDbPolyline
 90
4
 70
1
 10
-400.0
 20
600.0
 30
0.0
 10
400.0
 20
600.0
 30
0.0
 10
400.0
 20
-600.0
 30
0.0
 10
-400.0
 20
-600.0
 30
0.0
  0
ENDBLK
  5
94
100
AcDbEntity
  8
0
100
AcDbBlockEnd
  0
BLOCK
  5
95
100
AcDbEntity
  8
0
100
AcDbBlockBegin
  2
123
 70
0
 10
0.0
 20
0.0
 30
0.0
  3
123
  1

  0
LWPOLYLINE
  5
96
  8
shukongjichuang2
 62
256
370
-1
  6
BYLAYER
100
AcDbEntity
100
AcDbPolyline
 90
4
 70
1
 10
-749.3948072945967169
 20
609.8100594865391031
 30
0.0
 10
750.6051927054103317
 20
609.8100594865391031
 30
0.0
 10
750.6051927054103317
 20
-590.1899405134606695
 30
0.0
 10
-749.3948072945967169
 20
-590.1899405134606695
 30
0.0
  0
ENDBLK
  5
97
100
AcDbEntity
  8
0
100
AcDbBlockEnd
  0
BLOCK
  5
98
100
AcDbEntity
  8
0
100
AcDbBlockBegin
  2
_ArchTick
 70
0
 10
0.0
 20
0.0
 30
0.0
  3
_ArchTick
  1

  0
LWPOLYLINE
  5
99
  8
0
 62
0
370
-1
  6
BYBLOCK
100
AcDbEntity
100
AcDbPolyline
 90
2
 70
0
 10
-0.5
 20
-0.5
 30
0.0
 10
0.5
 20
0.5
 30
0.0
  0
ENDBLK
  5
9A
100
AcDbEntity
  8
0
100
AcDbBlockEnd
  0
ENDSEC
  0
SECTION
  2
ENTITIES
  0
LWPOLYLINE
  5
9B
  8
kaijuanji
 62
256
370
-1
  6
BYLAYER
100
AcDbEntity
100
AcDbPolyline
 90
4
 70
1
 10
-14072.845279511060653
 20
7968.663353987809387
 30
0.0
 10
-12572.845279511060653
 20
7968.663353987809387
 30
0.0
 10
-12572.845279511060653
 20
6768.6633539878102965
 30
0.0
 10
-14072.845279511060653
 20
6768.6633539878102965
 30
0.0
  0
LWPOLYLINE
  5
9C
  8
shukongjichuang
 62
256
370
-1
  6
BYLAYER
100
AcDbEntity
100
AcDbPolyline
 90
4
 70
1
 10
-11598.940577206440139
 20
537.3114949988082572
 30
0.0
 10
-10098.940577206429225
 20
537.3114949988082572
 30
0.0
 10
-10098.940577206429225
 20
-662.6885050011915155
 30
0.0
 10
-11598.940577206440139
 20
-662.6885050011915155
 30
0.0
  0
LWPOLYLINE
  5
9D
  8
shukongjichuang
 62
256
370
-1
  6
BYLAYER
100
AcDbEntity
100
AcDbPolyline
 90
4
 70
1
 10
-7840.8500786291579061
 20
537.3114949988082572
 30
0.0
 10
-6340.8500786291524491
 20
537.3114949988082572
 30
0.0
 10
-6340.8500786291524491
 20
-662.6885050011915155
 30
0.0
 10
-7840.8500786291579061
 20
-662.6885050011915155
 30
0.0
  0
LWPOLYLINE
  5
9E
  8
shukongjichuang
 62
256
370
-1
  6
BYLAYER
100
AcDbEntity
100
AcDbPolyline
 90
4
 70
1
 10
-3749.7639082866421631
 20
537.3114949988082572
 30
0.0
 10
-2249.7639082866371609
 20
537.3114949988082572
 30
0.0
 10
-2249.7639082866371609
 20
-662.6885050011915155
 30
0.0
 10
-3749.7639082866421631
 20
-662.6885050011915155
 30
0.0
  0
LWPOLYLINE
  5
9F
  8
shukongjichuang
 62
256
370
-1
  6
BYLAYER
100
AcDbEntity
100
AcDbPolyline
 90
4
 70
1
 10
789.895982958485547
 20
537.3114949988082572
 30
0.0
 10
2289.8959829584778163
 20
537.3114949988082572
 30
0.0
 10
2289.8959829584778163
 20
-662.6885050011915155
 30
0.0
 10
789.895982958485547
 20
-662.6885050011915155
 30
0.0
  0
LWPOLYLINE
  5
A0
  8
shukongjichuang
 62
256
370
-1
  6
BYLAYER
100
AcDbEntity
100
AcDbPolyline
 90
4
 70
1
 10
4427.5391403188123149
 20
537.3114949988082572
 30
0.0
 10
5927.5391403188123149
 20
537.3114949988082572
 30
0.0
 10
5927.5391403188123149
 20
-662.6885050011915155
 30
0.0
 10
4427.5391403188123149
 20
-662.6885050011915155
 30
0.0
  0
LWPOLYLINE
  5
A1
  8
shukongjichuang
 62
256
370
-1
  6
BYLAYER
100
AcDbEntity
100
AcDbPolyline
 90
4
 70
1
 10
8185.6296388960927288
 20
537.3114949988082572
 30
0.0
 10
9685.6296388960927288
 20
537.3114949988082572
 30
0.0
 10
9685.6296388960927288
 20
-662.6885050011915155
 30
0.0
 10
8185.6296388960927288
 20
-662.6885050011915155
 30
0.0
  0
LWPOLYLINE
  5
A2
  8
twaver.idc.column
 62
1
420
16711680
370
-1
  6
BYBLOCK
100
AcDbEntity
100
AcDbPolyline
 90
4
 70
1
 10
14800.3503525113792421
 20
11276.7857624281896278
 30
0.0
 10
15600.3503525113792421
 20
11276.7857624281896278
 30
0.0
 10
15600.3503525113792421
 20
10476.7857624282005418
 30
0.0
 10
14800.3503525113792421
 20
10476.7857624282005418
 30
0.0
  0
LWPOLYLINE
  5
A3
  8
twaver.idc.column
 62
1
420
16711680
370
-1
  6
BYBLOCK
100
AcDbEntity
100
AcDbPolyline
 90
4
 70
1
 10
14800.3224264769105503
 20
-630.0
 30
0.0
 10
15600.3224264769105503
 20
-630.0
 30
0.0
 10
15600.3224264769105503
 20
-1430.0
 30
0.0
 10
14800.3224264769105503
 20
-1430.0
 30
0.0
  0
LWPOLYLINE
  5
A4
  8
twaver.idc.column
 62
1
420
16711680
370
-1
  6
BYBLOCK
100
AcDbEntity
100
AcDbPolyline
 90
4
 70
1
 10
6507.3711164268897846
 20
11276.7857624281896278
 30
0.0
 10
7307.3711164268906941
 20
11276.7857624281896278
 30
0.0
 10
7307.3711164268906941
 20
10476.7857624282005418
 30
0.0
 10
6507.3711164268897846
 20
10476.7857624282005418
 30
0.0
  0
LWPOLYLINE
  5
A5
  8
twaver.idc.column
 62
1
420
16711680
370
-1
  6
BYBLOCK
100
AcDbEntity
100
AcDbPolyline
 90
4
 70
1
 10
-481.7326936653698795
 20
11276.7857624281896278
 30
0.0
 10
318.2673063346301205
 20
11276.7857624281896278
 30
0.0
 10
318.2673063346301205
 20
10476.7857624282005418
 30
0.0
 10
-481.7326936653698795
 20
10476.7857624282005418
 30
0.0
  0
LWPOLYLINE
  5
A6
  8
twaver.idc.column
 62
1
420
16711680
370
-1
  6
BYBLOCK
100
AcDbEntity
100
AcDbPolyline
 90
4
 70
1
 10
-9277.8246579160932015
 20
11276.7857624281896278
 30
0.0
 10
-8477.8246579160859255
 20
11276.7857624281896278
 30
0.0
 10
-8477.8246579160859255
 20
10476.7857624282005418
 30
0.0
 10
-9277.8246579160932015
 20
10476.7857624282005418
 30
0.0
  0
LWPOLYLINE
  5
A7
  8
twaver.idc.column
 62
1
420
16711680
370
-1
  6
BYBLOCK
100
AcDbEntity
100
AcDbPolyline
 90
4
 70
1
 10
-17281.7326934269513004
 20
11276.7857624281896278
 30
0.0
 10
-16481.7326934269513004
 20
11276.7857624281896278
 30
0.0
 10
-16481.7326934269513004
 20
10476.7857624282005418
 30
0.0
 10
-17281.7326934269513004
 20
10476.7857624282005418
 30
0.0
  0
LWPOLYLINE
  5
A8
  8
twaver.idc.column
 62
1
420
16711680
370
-1
  6
BYBLOCK
100
AcDbEntity
100
AcDbPolyline
 90
4
 70
1
 10
-17281.7606194614199921
 20
-630.0
 30
0.0
 10
-16481.760619461438182
 20
-630.0
 30
0.0
 10
-16481.760619461438182
 20
-1430.0
 30
0.0
 10
-17281.7606194614199921
 20
-1430.0
 30
0.0
  0
LINE
  5
A9
100
AcDbEntity
100
AcDbLine
  8
twaver.idc.door
 62
1
420
16711680
370
-1
  6
BYLAYER
 10
16318.2393800617301167
 20
5833.2166449391515926
 30
0.0
 11
16318.2393800617301167
 21
1566.7833550608479527
 31
0.0
  0
LINE
  5
AA
100
AcDbEntity
100
AcDbLine
  8
twaver.idc.window
 62
256
370
-1
  6
BYLAYER
 10
-15584.6429190622893657
 20
11396.0308716396302771
 30
0.0
 11
-10957.1302312821499072
 21
11396.0308716396302771
 31
0.0
  0
LINE
  5
AB
100
AcDbEntity
100
AcDbLine
  8
twaver.idc.window
 62
256
370
-1
  6
BYLAYER
 10
-6559.3521176165413635
 20
11396.0308716396302771
 30
0.0
 11
-1931.8394298364000861
 21
11396.0308716396302771
 31
0.0
  0
LINE
  5
AC
100
AcDbEntity
100
AcDbLine
  8
twaver.idc.window
 62
256
370
-1
  6
BYLAYER
 10
1776.7344750184859095
 20
11396.0308716396302771
 30
0.0
 11
6404.2471627986287785
 21
11396.0308716396302771
 31
0.0
  0
LINE
  5
AD
100
AcDbEntity
100
AcDbLine
  8
twaver.idc.window
 62
256
370
-1
  6
BYLAYER
 10
8996.9669702349347062
 20
11396.0308716396302771
 30
0.0
 11
13624.4796580150596128
 21
11396.0308716396302771
 31
0.0
  0
INSERT
  5
AE
100
AcDbEntity
100
AcDbBlockReference
  8
shukongjichuang2
 62
256
370
-1
  6
BYLAYER
  2
44444
 10
-11044.0389414675901207
 20
-7679.9999999999972715
 30
0.0
 50
90.0
  0
INSERT
  5
AF
100
AcDbEntity
100
AcDbBlockReference
  8
shukongjichuang2
 62
256
370
-1
  6
BYLAYER
  2
44444
 10
-7468.0778829351747845
 20
-7679.9999999999972715
 30
0.0
 50
90.0
  0
INSERT
  5
B0
100
AcDbEntity
100
AcDbBlockReference
  8
shukongjichuang2
 62
256
370
-1
  6
BYLAYER
  2
44444
 10
-3892.1168244027649052
 20
-7679.9999999999972715
 30
0.0
 50
90.0
  0
INSERT
  5
B1
100
AcDbEntity
100
AcDbBlockReference
  8
shukongjichuang2
 62
256
370
-1
  6
BYLAYER
  2
44444
 10
-316.155765870353207
 20
-7679.9999999999972715
 30
0.0
 50
90.0
  0
INSERT
  5
B2
100
AcDbEntity
100
AcDbBlockReference
  8
shukongjichuang2
 62
256
370
-1
  6
BYLAYER
  2
44444
 10
3259.8052926620580365
 20
-7679.9999999999972715
 30
0.0
 50
90.0
  0
INSERT
  5
B3
100
AcDbEntity
100
AcDbBlockReference
  8
shukongjichuang2
 62
256
370
-1
  6
BYLAYER
  2
44444
 10
6835.766351194471099
 20
-7679.9999999999972715
 30
0.0
 50
90.0
  0
INSERT
  5
B4
100
AcDbEntity
100
AcDbBlockReference
  8
shukongjichuang2
 62
256
370
-1
  6
BYLAYER
  2
44444
 10
10411.7274097268800688
 20
-7679.9999999999972715
 30
0.0
 50
90.0
  0
LWPOLYLINE
  5
B5
  8
kaijuanji
 62
256
370
-1
  6
BYLAYER
100
AcDbEntity
100
AcDbPolyline
 90
4
 70
1
 10
-9978.535838533192873
 20
7898.663353987807568
 30
0.0
 10
-8478.535838533192873
 20
7898.663353987807568
 30
0.0
 10
-8478.535838533192873
 20
6698.6633539878102965
 30
0.0
 10
-9978.535838533192873
 20
6698.6633539878102965
 30
0.0
  0
LWPOLYLINE
  5
B6
  8
kaijuanji
 62
256
370
-1
  6
BYLAYER
100
AcDbEntity
100
AcDbPolyline
 90
4
 70
1
 10
-5884.2263975553205455
 20
7898.663353987807568
 30
0.0
 10
-4384.2263975553205455
 20
7898.663353987807568
 30
0.0
 10
-4384.2263975553205455
 20
6698.6633539878102965
 30
0.0
 10
-5884.2263975553205455
 20
6698.6633539878102965
 30
0.0
  0
LWPOLYLINE
  5
B7
  8
kaijuanji
 62
256
370
-1
  6
BYLAYER
100
AcDbEntity
100
AcDbPolyline
 90
4
 70
1
 10
-1789.916956577450037
 20
7898.663353987807568
 30
0.0
 10
-289.9169565774499802
 20
7898.663353987807568
 30
0.0
 10
-289.9169565774499802
 20
6698.6633539878102965
 30
0.0
 10
-1789.916956577450037
 20
6698.6633539878102965
 30
0.0
  0
LWPOLYLINE
  5
B8
  8
kaijuanji
 62
256
370
-1
  6
BYLAYER
100
AcDbEntity
100
AcDbPolyline
 90
4
 70
1
 10
2304.3924844004209262
 20
7898.663353987807568
 30
0.0
 10
3804.3924844004218357
 20
7898.663353987807568
 30
0.0
 10
3804.3924844004218357
 20
6698.6633539878102965
 30
0.0
 10
2304.3924844004209262
 20
6698.6633539878102965
 30
0.0
  0
LWPOLYLINE
  5
B9
  8
kaijuanji
 62
256
370
-1
  6
BYLAYER
100
AcDbEntity
100
AcDbPolyline
 90
4
 70
1
 10
6398.701925378292799
 20
7898.663353987807568
 30
0.0
 10
7898.701925378292799
 20
7898.663353987807568
 30
0.0
 10
7898.701925378292799
 20
6698.6633539878102965
 30
0.0
 10
6398.701925378292799
 20
6698.6633539878102965
 30
0.0
  0
LWPOLYLINE
  5
BA
  8
kaijuanji
 62
256
370
-1
  6
BYLAYER
100
AcDbEntity
100
AcDbPolyline
 90
4
 70
1
 10
10493.011366356160579
 20
7898.663353987807568
 30
0.0
 10
11993.011366356160579
 20
7898.663353987807568
 30
0.0
 10
11993.011366356160579
 20
6698.6633539878102965
 30
0.0
 10
10493.011366356160579
 20
6698.6633539878102965
 30
0.0
  0
LWPOLYLINE
  5
BB
  8
xian1
 62
256
370
-1
  6
BYLAYER
100
AcDbEntity
100
AcDbPolyline
 90
4
 70
1
 10
-17281.7606194614199921
 20
9800.0
 30
0.0
 10
16318.2393800617301167
 20
9800.0
 30
0.0
 10
16318.2393800617301167
 20
4940.0
 30
0.0
 10
-17281.7606194614199921
 20
4940.0
 30
0.0
  0
LWPOLYLINE
  5
BC
  8
xian1
 62
256
370
-1
  6
BYLAYER
100
AcDbEntity
100
AcDbPolyline
 90
4
 70
1
 10
-17281.7606194614199921
 20
2530.0
 30
0.0
 10
16318.2393800617301167
 20
2530.0
 30
0.0
 10
16318.2393800617301167
 20
-2330.0
 30
0.0
 10
-17281.7606194614199921
 20
-2330.0
 30
0.0
  0
LWPOLYLINE
  5
BD
  8
xian1
 62
256
370
-1
  6
BYLAYER
100
AcDbEntity
100
AcDbPolyline
 90
4
 70
1
 10
-17281.7606194614199921
 20
-5100.0
 30
0.0
 10
16318.2393800617301167
 20
-5100.0
 30
0.0
 10
16318.2393800617301167
 20
-9960.0
 30
0.0
 10
-17281.7606194614199921
 20
-9960.0
 30
0.0
  0
LWPOLYLINE
  5
BE
  8
twaver.idc.wall
 62
256
370
-1
  6
BYLAYER
100
AcDbEntity
100
AcDbPolyline
 90
4
 70
0
 10
-17281.7606194614199921
 20
-10710.8847724570296123
 30
0.0
 10
-17281.7606194614199921
 20
11396.0308716396302771
 30
0.0
 10
16318.2393800617301167
 20
11396.0308716396302771
 30
0.0
 10
16318.2393800617301167
 20
-10710.8847724570296123
 30
0.0
  0
LWPOLYLINE
  5
BF
  8
xian
 62
256
370
-1
  6
BYLAYER
100
AcDbEntity
100
AcDbPolyline
 90
4
 70
1
 10
-15620.0
 20
9740.0
 30
0.0
 10
-15480.0
 20
9740.0
 30
0.0
 10
-15480.0
 20
5010.0
 30
0.0
 10
-15620.0
 20
5010.0
 30
0.0
  0
LWPOLYLINE
  5
C0
  8
xian
 62
256
370
-1
  6
BYLAYER
100
AcDbEntity
100
AcDbPolyline
 90
4
 70
1
 10
-11260.0
 20
9740.0
 30
0.0
 10
-11120.0
 20
9740.0
 30
0.0
 10
-11120.0
 20
5010.0
 30
0.0
 10
-11260.0
 20
5010.0
 30
0.0
  0
LWPOLYLINE
  5
C1
  8
xian
 62
256
370
-1
  6
BYLAYER
100
AcDbEntity
100
AcDbPolyline
 90
4
 70
1
 10
-7165.690559022134039
 20
9740.0
 30
0.0
 10
-7025.69055902213222
 20
9740.0
 30
0.0
 10
-7025.69055902213222
 20
5010.0
 30
0.0
 10
-7165.690559022134039
 20
5010.0
 30
0.0
  0
LWPOLYLINE
  5
C2
  8
xian
 62
256
370
-1
  6
BYLAYER
100
AcDbEntity
100
AcDbPolyline
 90
4
 70
1
 10
-3071.3811180442630757
 20
9740.0
 30
0.0
 10
-2931.381118044260802
 20
9740.0
 30
0.0
 10
-2931.381118044260802
 20
5010.0
 30
0.0
 10
-3071.3811180442630757
 20
5010.0
 30
0.0
  0
LWPOLYLINE
  5
C3
  8
xian
 62
256
370
-1
  6
BYLAYER
100
AcDbEntity
100
AcDbPolyline
 90
4
 70
1
 10
1022.9283229336090244
 20
9740.0
 30
0.0
 10
1162.9283229336099339
 20
9740.0
 30
0.0
 10
1162.9283229336099339
 20
5010.0
 30
0.0
 10
1022.9283229336090244
 20
5010.0
 30
0.0
  0
LWPOLYLINE
  5
C4
  8
xian
 62
256
370
-1
  6
BYLAYER
100
AcDbEntity
100
AcDbPolyline
 90
4
 70
1
 10
5117.237763911480215
 20
9740.0
 30
0.0
 10
5257.237763911482034
 20
9740.0
 30
0.0
 10
5257.237763911482034
 20
5010.0
 30
0.0
 10
5117.237763911480215
 20
5010.0
 30
0.0
  0
LWPOLYLINE
  5
C5
  8
xian
 62
256
370
-1
  6
BYLAYER
100
AcDbEntity
100
AcDbPolyline
 90
4
 70
1
 10
9211.547204889353452
 20
9740.0
 30
0.0
 10
9351.547204889355271
 20
9740.0
 30
0.0
 10
9351.547204889355271
 20
5010.0
 30
0.0
 10
9211.547204889353452
 20
5010.0
 30
0.0
  0
LWPOLYLINE
  5
C6
  8
xian
 62
256
370
-1
  6
BYLAYER
100
AcDbEntity
100
AcDbPolyline
 90
4
 70
1
 10
13305.856645867219413
 20
9740.0
 30
0.0
 10
13445.856645867219413
 20
9740.0
 30
0.0
 10
13445.856645867219413
 20
5010.0
 30
0.0
 10
13305.856645867219413
 20
5010.0
 30
0.0
  0
LWPOLYLINE
  5
C7
  8
xian
 62
256
370
-1
  6
BYLAYER
100
AcDbEntity
100
AcDbPolyline
 90
4
 70
1
 10
-13040.0
 20
2470.0
 30
0.0
 10
-12900.0
 20
2470.0
 30
0.0
 10
-12900.0
 20
-2260.0
 30
0.0
 10
-13040.0
 20
-2260.0
 30
0.0
  0
LINE
  5
C8
100
AcDbEntity
100
AcDbLine
  8
wall
 62
256
370
-1
  6
BYLAYER
 10
-17281.7606194614199921
 20
-10710.8847724570296123
 30
0.0
 11
16318.2393800617301167
 21
-10710.8847724570296123
 31
0.0
  0
LWPOLYLINE
  5
C9
  8
xian
 62
256
370
-1
  6
BYLAYER
100
AcDbEntity
100
AcDbPolyline
 90
4
 70
1
 10
-9040.0
 20
2470.0
 30
0.0
 10
-8899.999999999998181
 20
2470.0
 30
0.0
 10
-8899.999999999998181
 20
-2260.0
 30
0.0
 10
-9040.0
 20
-2260.0
 30
0.0
  0
LWPOLYLINE
  5
CA
  8
xian
 62
256
370
-1
  6
BYLAYER
100
AcDbEntity
100
AcDbPolyline
 90
4
 70
1
 10
-5281.9095014227223146
 20
2503.920896427182015
 30
0.0
 10
-5141.9095014227195861
 20
2503.920896427182015
 30
0.0
 10
-5141.9095014227195861
 20
-2226.079103572817985
 30
0.0
 10
-5281.9095014227223146
 20
-2226.079103572817985
 30
0.0
  0
LWPOLYLINE
  5
CB
  8
xian
 62
256
370
-1
  6
BYLAYER
100
AcDbEntity
100
AcDbPolyline
 90
4
 70
1
 10
-1190.8233310802079359
 20
2470.0
 30
0.0
 10
-1050.8233310802058895
 20
2470.0
 30
0.0
 10
-1050.8233310802058895
 20
-2260.0
 30
0.0
 10
-1190.8233310802079359
 20
-2260.0
 30
0.0
  0
LWPOLYLINE
  5
CC
  8
xian
 62
256
370
-1
  6
BYLAYER
100
AcDbEntity
100
AcDbPolyline
 90
4
 70
1
 10
3348.8365601649079508
 20
2470.0
 30
0.0
 10
3488.8365601649088603
 20
2470.0
 30
0.0
 10
3488.8365601649088603
 20
-2260.0
 30
0.0
 10
3348.8365601649079508
 20
-2260.0
 30
0.0
  0
LWPOLYLINE
  5
CD
  8
xian
 62
256
370
-1
  6
BYLAYER
100
AcDbEntity
100
AcDbPolyline
 90
4
 70
1
 10
6986.4797175252406305
 20
2503.920896427182015
 30
0.0
 10
7126.4797175252442685
 20
2503.920896427182015
 30
0.0
 10
7126.4797175252442685
 20
-2226.079103572817985
 30
0.0
 10
6986.4797175252406305
 20
-2226.079103572817985
 30
0.0
  0
LWPOLYLINE
  5
CE
  8
xian
 62
256
370
-1
  6
BYLAYER
100
AcDbEntity
100
AcDbPolyline
 90
4
 70
1
 10
10744.5702161025201349
 20
2470.0
 30
0.0
 10
10884.5702161025201349
 20
2470.0
 30
0.0
 10
10884.5702161025201349
 20
-2260.0
 30
0.0
 10
10744.5702161025201349
 20
-2260.0
 30
0.0
  0
LWPOLYLINE
  5
CF
  8
xian
 62
256
370
-1
  6
BYLAYER
100
AcDbEntity
100
AcDbPolyline
 90
4
 70
1
 10
-12979.9999572690503555
 20
-5160.0
 30
0.0
 10
-12839.9999572690503555
 20
-5160.0
 30
0.0
 10
-12839.9999572690503555
 20
-9890.0
 30
0.0
 10
-12979.9999572690503555
 20
-9890.0
 30
0.0
  0
LWPOLYLINE
  5
D0
  8
xian
 62
256
370
-1
  6
BYLAYER
100
AcDbEntity
100
AcDbPolyline
 90
4
 70
1
 10
-9350.0
 20
-5160.0
 30
0.0
 10
-9209.999999999998181
 20
-5160.0
 30
0.0
 10
-9209.999999999998181
 20
-9890.0
 30
0.0
 10
-9350.0
 20
-9890.0
 30
0.0
  0
LWPOLYLINE
  5
D1
  8
xian
 62
256
370
-1
  6
BYLAYER
100
AcDbEntity
100
AcDbPolyline
 90
4
 70
1
 10
-5774.0389414675855733
 20
-5160.0
 30
0.0
 10
-5634.0389414675837543
 20
-5160.0
 30
0.0
 10
-5634.0389414675837543
 20
-9890.0
 30
0.0
 10
-5774.0389414675855733
 20
-9890.0
 30
0.0
  0
LWPOLYLINE
  5
D2
  8
xian
 62
256
370
-1
  6
BYLAYER
100
AcDbEntity
100
AcDbPolyline
 90
4
 70
1
 10
-2198.0778829351747845
 20
-5160.0000000000009095
 30
0.0
 10
-2058.0778829351729655
 20
-5160.0000000000009095
 30
0.0
 10
-2058.0778829351729655
 20
-9890.0
 30
0.0
 10
-2198.0778829351747845
 20
-9890.0
 30
0.0
  0
LWPOLYLINE
  5
D3
  8
xian
 62
256
370
-1
  6
BYLAYER
100
AcDbEntity
100
AcDbPolyline
 90
4
 70
1
 10
1377.8831755972369137
 20
-5160.0
 30
0.0
 10
1517.8831755972389601
 20
-5160.0
 30
0.0
 10
1517.8831755972389601
 20
-9890.0
 30
0.0
 10
1377.8831755972369137
 20
-9890.0
 30
0.0
  0
LWPOLYLINE
  5
D4
  8
xian
 62
256
370
-1
  6
BYLAYER
100
AcDbEntity
100
AcDbPolyline
 90
4
 70
1
 10
4953.844234129648612
 20
-5160.0
 30
0.0
 10
5093.8442341296513405
 20
-5160.0
 30
0.0
 10
5093.8442341296513405
 20
-9890.0
 30
0.0
 10
4953.844234129648612
 20
-9890.0
 30
0.0
  0
LWPOLYLINE
  5
D5
  8
xian
 62
256
370
-1
  6
BYLAYER
100
AcDbEntity
100
AcDbPolyline
 90
4
 70
1
 10
8529.8052926620621292
 20
-5160.0000000000027285
 30
0.0
 10
8669.8052926620657672
 20
-5160.0000000000027285
 30
0.0
 10
8669.8052926620657672
 20
-9890.000000000003638
 30
0.0
 10
8529.8052926620621292
 20
-9890.000000000003638
 30
0.0
  0
LWPOLYLINE
  5
D6
  8
xian
 62
256
370
-1
  6
BYLAYER
100
AcDbEntity
100
AcDbPolyline
 90
4
 70
1
 10
12105.7663511944701895
 20
-5160.0
 30
0.0
 10
12245.7663511944701895
 20
-5160.0
 30
0.0
 10
12245.7663511944701895
 20
-9890.0
 30
0.0
 10
12105.7663511944701895
 20
-9890.0
 30
0.0
  0
LWPOLYLINE
  5
D7
  8
caodi
 62
256
370
-1
  6
BYLAYER
100
AcDbEntity
100
AcDbPolyline
 90
4
 70
1
 10
-26750.0
 20
20190.0
 30
0.0
 10
26300.0
 20
20190.0
 30
0.0
 10
26300.0
 20
-23780.0
 30
0.0
 10
-26750.0
 20
-23780.0
 30
0.0
  0
LINE
  5
D8
100
AcDbEntity
100
AcDbLine
  8
twaver.idc.door
 62
1
420
16711680
370
-1
  6
BYLAYER
 10
16318.2393800617301167
 20
-1946.7833550608479527
 30
0.0
 11
16318.2393800617301167
 21
-6213.2166449391506831
 31
0.0
  0
LINE
  5
D9
100
AcDbEntity
100
AcDbLine
  8
twaver.idc.door
 62
1
420
16711680
370
-1
  6
BYLAYER
 10
-17281.7606194614199921
 20
5833.2166449391515926
 30
0.0
 11
-17281.7606194614199921
 21
1566.7833550608490896
 31
0.0
  0
LINE
  5
DA
100
AcDbEntity
100
AcDbLine
  8
twaver.idc.door
 62
1
420
16711680
370
-1
  6
BYLAYER
 10
-17281.7606194614199921
 20
-1946.7833550608470432
 30
0.0
 11
-17281.7606194614199921
 21
-6213.2166449391506831
 31
0.0
  0
LWPOLYLINE
  5
DB
  8
twaver.park.tree
 62
256
370
-1
  6
BYLAYER
100
AcDbEntity
100
AcDbPolyline
 90
4
 70
1
 10
-15800.0
 20
13770.0
 30
0.0
 10
-15000.0
 20
13770.0
 30
0.0
 10
-15000.0
 20
13000.0
 30
0.0
 10
-15800.0
 20
13000.0
 30
0.0
  0
LWPOLYLINE
  5
DC
  8
twaver.park.tree
 62
256
370
-1
  6
BYLAYER
100
AcDbEntity
100
AcDbPolyline
 90
4
 70
1
 10
-14280.0
 20
13770.0
 30
0.0
 10
-13480.0
 20
13770.0
 30
0.0
 10
-13480.0
 20
13000.0
 30
0.0
 10
-14280.0
 20
13000.0
 30
0.0
  0
LWPOLYLINE
  5
DD
  8
twaver.park.tree
 62
256
370
-1
  6
BYLAYER
100
AcDbEntity
100
AcDbPolyline
 90
4
 70
1
 10
-12760.0
 20
13770.0
 30
0.0
 10
-11960.0
 20
13770.0
 30
0.0
 10
-11960.0
 20
13000.0
 30
0.0
 10
-12760.0
 20
13000.0
 30
0.0
  0
LWPOLYLINE
  5
DE
  8
twaver.park.tree
 62
256
370
-1
  6
BYLAYER
100
AcDbEntity
100
AcDbPolyline
 90
4
 70
1
 10
-6800.0
 20
13770.0
 30
0.0
 10
-6000.0
 20
13770.0
 30
0.0
 10
-6000.0
 20
13000.0
 30
0.0
 10
-6800.0
 20
13000.0
 30
0.0
  0
LWPOLYLINE
  5
DF
  8
twaver.park.tree
 62
256
370
-1
  6
BYLAYER
100
AcDbEntity
100
AcDbPolyline
 90
4
 70
1
 10
-5270.0
 20
13770.0
 30
0.0
 10
-4470.0
 20
13770.0
 30
0.0
 10
-4470.0
 20
13000.0
 30
0.0
 10
-5270.0
 20
13000.0
 30
0.0
  0
LWPOLYLINE
  5
E0
  8
twaver.park.tree
 62
256
370
-1
  6
BYLAYER
100
AcDbEntity
100
AcDbPolyline
 90
4
 70
1
 10
-3750.0
 20
13770.0
 30
0.0
 10
-2950.0
 20
13770.0
 30
0.0
 10
-2950.0
 20
13000.0
 30
0.0
 10
-3750.0
 20
13000.0
 30
0.0
  0
LWPOLYLINE
  5
E1
  8
twaver.park.tree
 62
256
370
-1
  6
BYLAYER
100
AcDbEntity
100
AcDbPolyline
 90
4
 70
1
 10
-2230.0
 20
13770.0
 30
0.0
 10
-1430.0
 20
13770.0
 30
0.0
 10
-1430.0
 20
13000.0
 30
0.0
 10
-2230.0
 20
13000.0
 30
0.0
  0
LWPOLYLINE
  5
E2
  8
twaver.park.tree
 62
256
370
-1
  6
BYLAYER
100
AcDbEntity
100
AcDbPolyline
 90
4
 70
1
 10
-650.0
 20
13770.0
 30
0.0
 10
150.0
 20
13770.0
 30
0.0
 10
150.0
 20
13000.0
 30
0.0
 10
-650.0
 20
13000.0
 30
0.0
  0
LWPOLYLINE
  5
E3
  8
twaver.park.tree
 62
256
370
-1
  6
BYLAYER
100
AcDbEntity
100
AcDbPolyline
 90
4
 70
1
 10
7380.0
 20
13740.0
 30
0.0
 10
8180.0
 20
13740.0
 30
0.0
 10
8180.0
 20
12970.0
 30
0.0
 10
7380.0
 20
12970.0
 30
0.0
  0
LWPOLYLINE
  5
E4
  8
twaver.park.tree
 62
256
370
-1
  6
BYLAYER
100
AcDbEntity
100
AcDbPolyline
 90
4
 70
1
 10
8900.0
 20
13740.0
 30
0.0
 10
9700.0
 20
13740.0
 30
0.0
 10
9700.0
 20
12970.0
 30
0.0
 10
8900.0
 20
12970.0
 30
0.0
  0
LWPOLYLINE
  5
E5
  8
twaver.park.tree
 62
256
370
-1
  6
BYLAYER
100
AcDbEntity
100
AcDbPolyline
 90
4
 70
1
 10
10420.0
 20
13740.0
 30
0.0
 10
11220.0
 20
13740.0
 30
0.0
 10
11220.0
 20
12970.0
 30
0.0
 10
10420.0
 20
12970.0
 30
0.0
  0
LWPOLYLINE
  5
E6
  8
twaver.park.tree
 62
256
370
-1
  6
BYLAYER
100
AcDbEntity
100
AcDbPolyline
 90
4
 70
1
 10
12000.0
 20
13740.0
 30
0.0
 10
12800.0
 20
13740.0
 30
0.0
 10
12800.0
 20
12970.0
 30
0.0
 10
12000.0
 20
12970.0
 30
0.0
  0
LWPOLYLINE
  5
E7
  8
twaver.park.tree
 62
256
370
-1
  6
BYLAYER
100
AcDbEntity
100
AcDbPolyline
 90
4
 70
1
 10
8870.0
 20
-11487.7345801309002127
 30
0.0
 10
9670.0
 20
-11487.7345801309002127
 30
0.0
 10
9670.0
 20
-12257.7345801309002127
 30
0.0
 10
8870.0
 20
-12257.7345801309002127
 30
0.0
  0
LWPOLYLINE
  5
E8
  8
twaver.park.tree
 62
256
370
-1
  6
BYLAYER
100
AcDbEntity
100
AcDbPolyline
 90
4
 70
1
 10
12030.0
 20
-11487.7345801309002127
 30
0.0
 10
12830.0
 20
-11487.7345801309002127
 30
0.0
 10
12830.0
 20
-12257.7345801309002127
 30
0.0
 10
12030.0
 20
-12257.7345801309002127
 30
0.0
  0
LWPOLYLINE
  5
E9
  8
twaver.park.tree
 62
256
370
-1
  6
BYLAYER
100
AcDbEntity
100
AcDbPolyline
 90
4
 70
1
 10
15130.0
 20
-11487.7345801309002127
 30
0.0
 10
15930.0
 20
-11487.7345801309002127
 30
0.0
 10
15930.0
 20
-12257.7345801309002127
 30
0.0
 10
15130.0
 20
-12257.7345801309002127
 30
0.0
  0
LWPOLYLINE
  5
EA
  8
twaver.park.tree
 62
256
370
-1
  6
BYLAYER
100
AcDbEntity
100
AcDbPolyline
 90
4
 70
1
 10
-16272.0372516142051609
 20
-13069.6390024895190436
 30
0.0
 10
-15472.0372516142051609
 20
-13069.6390024895190436
 30
0.0
 10
-15472.0372516142051609
 20
-13839.6390024895190436
 30
0.0
 10
-16272.0372516142051609
 20
-13839.6390024895190436
 30
0.0
  0
LWPOLYLINE
  5
EB
  8
twaver.park.tree
 62
256
370
-1
  6
BYLAYER
100
AcDbEntity
100
AcDbPolyline
 90
4
 70
1
 10
-13480.0
 20
-13077.7345801309002127
 30
0.0
 10
-12680.0
 20
-13077.7345801309002127
 30
0.0
 10
-12680.0
 20
-13847.7345801309002127
 30
0.0
 10
-13480.0
 20
-13847.7345801309002127
 30
0.0
  0
LWPOLYLINE
  5
EC
  8
twaver.park.tree
 62
256
370
-1
  6
BYLAYER
100
AcDbEntity
100
AcDbPolyline
 90
4
 70
1
 10
17378.8779930111741123
 20
1217.8198149870909219
 30
0.0
 10
18178.8779930111741123
 20
1217.8198149870909219
 30
0.0
 10
18178.8779930111741123
 20
447.8198149870909219
 30
0.0
 10
17378.8779930111741123
 20
447.8198149870909219
 30
0.0
  0
LWPOLYLINE
  5
ED
  8
twaver.park.tree
 62
256
370
-1
  6
BYLAYER
100
AcDbEntity
100
AcDbPolyline
 90
4
 70
1
 10
17329.9998710032086819
 20
10780.0
 30
0.0
 10
18129.9998710032086819
 20
10780.0
 30
0.0
 10
18129.9998710032086819
 20
10010.0
 30
0.0
 10
17329.9998710032086819
 20
10010.0
 30
0.0
  0
LWPOLYLINE
  5
EE
  8
twaver.park.tree
 62
256
370
-1
  6
BYLAYER
100
AcDbEntity
100
AcDbPolyline
 90
4
 70
1
 10
17329.9998710032086819
 20
8089.999923790513094
 30
0.0
 10
18129.9998710032086819
 20
8089.999923790513094
 30
0.0
 10
18129.9998710032086819
 20
7319.999923790514913
 30
0.0
 10
17329.9998710032086819
 20
7319.999923790514913
 30
0.0
  0
LWPOLYLINE
  5
EF
  8
twaver.park.tree
 62
256
370
-1
  6
BYLAYER
100
AcDbEntity
100
AcDbPolyline
 90
4
 70
1
 10
17329.9998710032086819
 20
-7340.0
 30
0.0
 10
18129.9998710032086819
 20
-7340.0
 30
0.0
 10
18129.9998710032086819
 20
-8110.0
 30
0.0
 10
17329.9998710032086819
 20
-8110.0
 30
0.0
  0
LWPOLYLINE
  5
F0
  8
twaver.park.tree
 62
256
370
-1
  6
BYLAYER
100
AcDbEntity
100
AcDbPolyline
 90
4
 70
1
 10
17329.9998710032086819
 20
-10030.0000762094805395
 30
0.0
 10
18129.9998710032086819
 20
-10030.0000762094805395
 30
0.0
 10
18129.9998710032086819
 20
-10800.0000762094805395
 30
0.0
 10
17329.9998710032086819
 20
-10800.0000762094805395
 30
0.0
  0
LWPOLYLINE
  5
F1
  8
twaver.park.tree
 62
256
370
-1
  6
BYLAYER
100
AcDbEntity
100
AcDbPolyline
 90
4
 70
1
 10
-18678.3834454199641186
 20
599.7916351776420925
 30
0.0
 10
-17878.3834454199641186
 20
599.7916351776420925
 30
0.0
 10
-17878.3834454199641186
 20
-170.2083648223590444
 30
0.0
 10
-18678.3834454199641186
 20
-170.2083648223590444
 30
0.0
  0
LWPOLYLINE
  5
F2
  8
twaver.park.tree
 62
256
370
-1
  6
BYLAYER
100
AcDbEntity
100
AcDbPolyline
 90
4
 70
1
 10
-18660.0
 20
10780.0
 30
0.0
 10
-17860.0
 20
10780.0
 30
0.0
 10
-17860.0
 20
10010.0
 30
0.0
 10
-18660.0
 20
10010.0
 30
0.0
  0
LWPOLYLINE
  5
F3
  8
twaver.park.tree
 62
256
370
-1
  6
BYLAYER
100
AcDbEntity
100
AcDbPolyline
 90
4
 70
1
 10
-18660.0
 20
8089.9999237905176415
 30
0.0
 10
-17860.0
 20
8089.9999237905176415
 30
0.0
 10
-17860.0
 20
7319.9999237905176415
 30
0.0
 10
-18660.0
 20
7319.9999237905176415
 30
0.0
  0
LWPOLYLINE
  5
F4
  8
twaver.park.tree
 62
256
370
-1
  6
BYLAYER
100
AcDbEntity
100
AcDbPolyline
 90
4
 70
1
 10
-18660.0
 20
-7339.999999999996362
 30
0.0
 10
-17860.0
 20
-7339.999999999996362
 30
0.0
 10
-17860.0
 20
-8109.9999999999972715
 30
0.0
 10
-18660.0
 20
-8109.9999999999972715
 30
0.0
  0
LWPOLYLINE
  5
F5
  8
twaver.park.tree
 62
256
370
-1
  6
BYLAYER
100
AcDbEntity
100
AcDbPolyline
 90
4
 70
1
 10
-18660.0
 20
-10030.0000762094805395
 30
0.0
 10
-17860.0
 20
-10030.0000762094805395
 30
0.0
 10
-17860.0
 20
-10800.0000762094805395
 30
0.0
 10
-18660.0
 20
-10800.0000762094805395
 30
0.0
  0
ENDSEC
  0
SECTION
  2
OBJECTS
  0
DICTIONARY
  5
C
100
AcDbDictionary
280
0
281
1
  3
ACAD_GROUP
350
D
  3
ACAD_LAYOUT
350
1A
  3
ACAD_MLINESTYLE
350
17
  3
ACAD_PLOTSETTINGS
350
19
  3
ACAD_PLOTSTYLENAME
350
E
  3
AcDbVariableDictionary
350
F6
  3
QCAD_OBJECTS
350
F7
  0
DICTIONARY
  5
D
100
AcDbDictionary
280
0
281
1
  0
ACDBDICTIONARYWDFLT
  5
E
100
AcDbDictionary
281
1
  3
Normal
350
F
100
AcDbDictionaryWithDefault
340
F
  0
ACDBPLACEHOLDER
  5
F
  0
DICTIONARY
  5
17
100
AcDbDictionary
280
0
281
1
  3
Standard
350
18
  0
MLINESTYLE
  5
18
100
AcDbMlineStyle
  2
STANDARD
 70
0
  3

 62
256
 51
90.0
 52
90.0
 71
2
 49
0.5
 62
256
  6
BYLAYER
 49
-0.5
 62
256
  6
BYLAYER
  0
DICTIONARY
  5
19
100
AcDbDictionary
280
0
281
1
  0
DICTIONARY
  5
1A
100
AcDbDictionary
281
1
  3
Layout1
350
1E
  3
Layout2
350
26
  3
Model
350
22
  0
LAYOUT
  5
1E
100
AcDbPlotSettings
  1

  2
none_device
  4

  6

 40
0.0
 41
0.0
 42
0.0
 43
0.0
 44
0.0
 45
0.0
 46
0.0
 47
0.0
 48
0.0
 49
0.0
140
0.0
141
0.0
142
1.0
143
1.0
 70
688
 72
0
 73
0
 74
5
  7

 75
16
147
1.0
148
0.0
149
0.0
100
AcDbLayout
  1
Layout1
 70
1
 71
1
 10
0.0
 20
0.0
 11
420.0
 21
297.0
 12
0.0
 22
0.0
 32
0.0
 14
100000000000000000000.0
 24
100000000000000000000.0
 34
100000000000000000000.0
 15
-100000000000000000000.0
 25
-100000000000000000000.0
 35
-100000000000000000000.0
146
0.0
 13
0.0
 23
0.0
 33
0.0
 16
1.0
 26
0.0
 36
0.0
 17
0.0
 27
1.0
 37
0.0
 76
0
330
1B
  0
LAYOUT
  5
22
100
AcDbPlotSettings
  1

  2
none_device
  4

  6

 40
0.0
 41
0.0
 42
0.0
 43
0.0
 44
0.0
 45
0.0
 46
0.0
 47
0.0
 48
0.0
 49
0.0
140
0.0
141
0.0
142
1.0
143
1.0
 70
1712
 72
0
 73
0
 74
0
  7

 75
0
147
1.0
148
0.0
149
0.0
100
AcDbLayout
  1
Model
 70
1
 71
0
 10
0.0
 20
0.0
 11
12.0
 21
9.0
 12
0.0
 22
0.0
 32
0.0
 14
0.0
 24
0.0
 34
0.0
 15
0.0
 25
0.0
 35
0.0
146
0.0
 13
0.0
 23
0.0
 33
0.0
 16
1.0
 26
0.0
 36
0.0
 17
0.0
 27
1.0
 37
0.0
 76
0
330
1F
  0
LAYOUT
  5
26
100
AcDbPlotSettings
  1

  2
none_device
  4

  6

 40
0.0
 41
0.0
 42
0.0
 43
0.0
 44
0.0
 45
0.0
 46
0.0
 47
0.0
 48
0.0
 49
0.0
140
0.0
141
0.0
142
1.0
143
1.0
 70
688
 72
0
 73
0
 74
5
  7

 75
16
147
1.0
148
0.0
149
0.0
100
AcDbLayout
  1
Layout2
 70
1
 71
2
 10
0.0
 20
0.0
 11
12.0
 21
9.0
 12
0.0
 22
0.0
 32
0.0
 14
0.0
 24
0.0
 34
0.0
 15
0.0
 25
0.0
 35
0.0
146
0.0
 13
0.0
 23
0.0
 33
0.0
 16
1.0
 26
0.0
 36
0.0
 17
0.0
 27
1.0
 37
0.0
 76
0
330
23
  0
DICTIONARY
  5
F6
100
AcDbDictionary
281
1
  3
DIMASSOC
350
F9
  3
HIDETEXT
350
F8
  0
DICTIONARYVAR
  5
F8
100
DictionaryVariables
280
0
  1
2
  0
DICTIONARYVAR
  5
F9
100
DictionaryVariables
280
0
  1
1
  0
DICTIONARY
  5
F7
100
AcDbDictionary
281
1
  3
ACAD_CIP_PREVIOUS_PRODUCT_INFO
350
FA
  3
Grid/DisplayGrid00
350
FB
  3
Grid/DisplayGrid01
350
FC
  3
Grid/DisplayGrid02
350
FD
  3
Grid/DisplayGrid03
350
FE
  3
Grid/GridSpacingX00
350
FF
  3
Grid/GridSpacingX01
350
100
  3
Grid/GridSpacingX02
350
101
  3
Grid/GridSpacingX03
350
102
  3
Grid/GridSpacingY00
350
103
  3
Grid/GridSpacingY01
350
104
  3
Grid/GridSpacingY02
350
105
  3
Grid/GridSpacingY03
350
106
  3
Grid/IsometricGrid00
350
107
  3
Grid/IsometricGrid01
350
108
  3
Grid/IsometricGrid02
350
109
  3
Grid/IsometricGrid03
350
10A
  3
Grid/IsometricProjection00
350
10B
  3
Grid/IsometricProjection01
350
10C
  3
Grid/IsometricProjection02
350
10D
  3
Grid/IsometricProjection03
350
10E
  3
Grid/MetaGridSpacingX00
350
10F
  3
Grid/MetaGridSpacingX01
350
110
  3
Grid/MetaGridSpacingX02
350
111
  3
Grid/MetaGridSpacingX03
350
112
  3
Grid/MetaGridSpacingY00
350
113
  3
Grid/MetaGridSpacingY01
350
114
  3
Grid/MetaGridSpacingY02
350
115
  3
Grid/MetaGridSpacingY03
350
116
  3
MultiPageSettings/Columns
350
117
  3
MultiPageSettings/GlueMarginsBottom
350
118
  3
MultiPageSettings/GlueMarginsLeft
350
119
  3
MultiPageSettings/GlueMarginsRight
350
11A
  3
MultiPageSettings/GlueMarginsTop
350
11B
  3
MultiPageSettings/PrintCropMarks
350
11C
  3
MultiPageSettings/Rows
350
11D
  3
PageSettings/OffsetX
350
11E
  3
PageSettings/OffsetY
350
11F
  3
PageSettings/PageOrientation
350
120
  3
PageSettings/PaperHeight
350
121
  3
PageSettings/PaperWidth
350
122
  3
PageSettings/Scale
350
123
  3
PageSettings/ShowPaperBorders
350
124
  3
UnitSettings/PaperUnit
350
125
  0
XRECORD
  5
FB
330
F7
100
AcDbXrecord
280
1
290
1
  0
XRECORD
  5
FC
330
F7
100
AcDbXrecord
280
1
290
1
  0
XRECORD
  5
FD
330
F7
100
AcDbXrecord
280
1
290
1
  0
XRECORD
  5
FE
330
F7
100
AcDbXrecord
280
1
290
1
  0
XRECORD
  5
FF
330
F7
100
AcDbXrecord
280
1
1000
auto
  0
XRECORD
  5
100
330
F7
100
AcDbXrecord
280
1
1000
auto
  0
XRECORD
  5
101
330
F7
100
AcDbXrecord
280
1
1000
auto
  0
XRECORD
  5
102
330
F7
100
AcDbXrecord
280
1
1000
auto
  0
XRECORD
  5
103
330
F7
100
AcDbXrecord
280
1
1000
auto
  0
XRECORD
  5
104
330
F7
100
AcDbXrecord
280
1
1000
auto
  0
XRECORD
  5
105
330
F7
100
AcDbXrecord
280
1
1000
auto
  0
XRECORD
  5
106
330
F7
100
AcDbXrecord
280
1
1000
auto
  0
XRECORD
  5
107
330
F7
100
AcDbXrecord
280
1
290
0
  0
XRECORD
  5
108
330
F7
100
AcDbXrecord
280
1
290
0
  0
XRECORD
  5
109
330
F7
100
AcDbXrecord
280
1
290
0
  0
XRECORD
  5
10A
330
F7
100
AcDbXrecord
280
1
290
0
  0
XRECORD
  5
10B
330
F7
100
AcDbXrecord
280
1
 90
0
  0
XRECORD
  5
10C
330
F7
100
AcDbXrecord
280
1
 90
0
  0
XRECORD
  5
10D
330
F7
100
AcDbXrecord
280
1
 90
0
  0
XRECORD
  5
10E
330
F7
100
AcDbXrecord
280
1
 90
0
  0
XRECORD
  5
10F
330
F7
100
AcDbXrecord
280
1
1000
auto
  0
XRECORD
  5
110
330
F7
100
AcDbXrecord
280
1
1000
auto
  0
XRECORD
  5
111
330
F7
100
AcDbXrecord
280
1
1000
auto
  0
XRECORD
  5
112
330
F7
100
AcDbXrecord
280
1
1000
auto
  0
XRECORD
  5
113
330
F7
100
AcDbXrecord
280
1
1000
auto
  0
XRECORD
  5
114
330
F7
100
AcDbXrecord
280
1
1000
auto
  0
XRECORD
  5
115
330
F7
100
AcDbXrecord
280
1
1000
auto
  0
XRECORD
  5
116
330
F7
100
AcDbXrecord
280
1
1000
auto
  0
XRECORD
  5
117
330
F7
100
AcDbXrecord
280
1
 90
1
  0
XRECORD
  5
118
330
F7
100
AcDbXrecord
280
1
 40
10.0
  0
XRECORD
  5
119
330
F7
100
AcDbXrecord
280
1
 40
10.0
  0
XRECORD
  5
11A
330
F7
100
AcDbXrecord
280
1
 40
10.0
  0
XRECORD
  5
11B
330
F7
100
AcDbXrecord
280
1
 40
10.0
  0
XRECORD
  5
11C
330
F7
100
AcDbXrecord
280
1
290
0
  0
XRECORD
  5
11D
330
F7
100
AcDbXrecord
280
1
 90
1
  0
XRECORD
  5
11E
330
F7
100
AcDbXrecord
280
1
 40
0.0
  0
XRECORD
  5
11F
330
F7
100
AcDbXrecord
280
1
 40
0.0
  0
XRECORD
  5
120
330
F7
100
AcDbXrecord
280
1
1000
Portrait
  0
XRECORD
  5
121
330
F7
100
AcDbXrecord
280
1
 40
297.0
  0
XRECORD
  5
122
330
F7
100
AcDbXrecord
280
1
 40
210.0
  0
XRECORD
  5
123
330
F7
100
AcDbXrecord
280
1
1000
1:1
  0
XRECORD
  5
124
330
F7
100
AcDbXrecord
280
1
290
1
  0
XRECORD
  5
125
330
F7
100
AcDbXrecord
280
1
 90
4
  0
ENDSEC
  0
EOF
