# Blender v2.79 (sub 0) OBJ File: 'untitled.blend'
# www.blender.org
mtllib geometries.mtl
o 贝塞尔曲
v -0.876663 0.578851 6.526967
v -0.751373 0.578851 6.421932
v -0.624348 0.578851 6.353356
v -0.493850 0.578851 6.316030
v -0.358144 0.578851 6.304745
v -0.215494 0.578851 6.314293
v -0.064163 0.578851 6.339467
v 0.097585 0.578851 6.375057
v 0.271485 0.578851 6.415856
v 0.459275 0.578851 6.456655
v 0.662689 0.578851 6.492245
v 0.883465 0.578851 6.517419
v 1.123337 0.578851 6.526967
l 1 2
l 2 3
l 3 4
l 4 5
l 5 6
l 6 7
l 7 8
l 8 9
l 9 10
l 10 11
l 11 12
l 12 13
o Plane.001
v -1.192422 0.781377 4.233198
v 0.807578 0.781377 4.233198
v -1.192422 0.781377 2.233198
v 0.807578 0.781377 2.233198
vn 0.0000 1.0000 0.0000
usemtl None
s off
f 14//1 15//1 17//1 16//1
o Circle.002
v 0.723625 -1.503233 2.975105
v 0.528535 -1.503233 2.994319
v 0.340941 -1.503233 3.051225
v 0.168055 -1.503233 3.143635
v 0.016518 -1.503233 3.267998
v -0.107845 -1.503233 3.419535
v -0.200255 -1.503233 3.592421
v -0.257160 -1.503233 3.780015
v -0.276375 -1.503233 3.975105
v -0.257160 -1.503233 4.170195
v -0.200255 -1.503233 4.357788
v -0.107845 -1.503233 4.530675
v 0.016518 -1.503233 4.682211
v 0.168055 -1.503233 4.806574
v 0.340942 -1.503233 4.898984
v 0.528535 -1.503233 4.955890
v 0.723625 -1.503233 4.975105
v 0.918716 -1.503233 4.955890
v 1.106309 -1.503233 4.898984
v 1.279196 -1.503233 4.806574
v 1.430732 -1.503233 4.682211
v 1.555095 -1.503233 4.530674
v 1.647505 -1.503233 4.357788
v 1.704410 -1.503233 4.170194
v 1.723625 -1.503233 3.975104
v 1.704410 -1.503233 3.780014
v 1.647504 -1.503233 3.592420
v 1.555094 -1.503233 3.419533
v 1.430731 -1.503233 3.267997
v 1.279194 -1.503233 3.143634
v 1.106307 -1.503233 3.051225
v 0.918714 -1.503233 2.994319
l 19 18
l 20 19
l 21 20
l 22 21
l 23 22
l 24 23
l 25 24
l 26 25
l 27 26
l 28 27
l 29 28
l 30 29
l 31 30
l 32 31
l 33 32
l 34 33
l 35 34
l 36 35
l 37 36
l 38 37
l 39 38
l 40 39
l 41 40
l 42 41
l 43 42
l 44 43
l 45 44
l 46 45
l 47 46
l 48 47
l 49 48
l 18 49
o Circle.001
v 3.331650 -0.950945 -3.610541
v 3.136560 -0.950945 -3.591327
v 2.948967 -0.950945 -3.534421
v 2.776080 -0.950945 -3.442011
v 2.624543 -0.950945 -3.317648
v 2.500180 -0.950945 -3.166111
v 2.407771 -0.950945 -2.993225
v 2.350865 -0.950945 -2.805632
v 2.331650 -0.950945 -2.610541
v 2.350865 -0.950945 -2.415451
v 2.407770 -0.950945 -2.227858
v 2.500180 -0.950945 -2.054971
v 2.624543 -0.950945 -1.903435
v 2.776080 -0.950945 -1.779072
v 2.948967 -0.950945 -1.686662
v 3.136560 -0.950945 -1.629756
v 3.331650 -0.950945 -1.610541
v 3.526741 -0.950945 -1.629756
v 3.714334 -0.950945 -1.686662
v 3.887221 -0.950945 -1.779072
v 4.038757 -0.950945 -1.903435
v 4.163120 -0.950945 -2.054972
v 4.255530 -0.950945 -2.227859
v 4.312436 -0.950945 -2.415452
v 4.331650 -0.950945 -2.610542
v 4.312435 -0.950945 -2.805633
v 4.255529 -0.950945 -2.993226
v 4.163119 -0.950945 -3.166113
v 4.038756 -0.950945 -3.317649
v 3.887219 -0.950945 -3.442012
v 3.714332 -0.950945 -3.534421
v 3.526739 -0.950945 -3.591327
l 51 50
l 52 51
l 53 52
l 54 53
l 55 54
l 56 55
l 57 56
l 58 57
l 59 58
l 60 59
l 61 60
l 62 61
l 63 62
l 64 63
l 65 64
l 66 65
l 67 66
l 68 67
l 69 68
l 70 69
l 71 70
l 72 71
l 73 72
l 74 73
l 75 74
l 76 75
l 77 76
l 78 77
l 79 78
l 80 79
l 81 80
l 50 81
o Circle
v 1.044384 -0.187166 0.626711
v 0.849294 -0.187166 0.645926
v 0.661701 -0.187166 0.702832
v 0.488814 -0.187166 0.795242
v 0.337277 -0.187166 0.919605
v 0.212914 -0.187166 1.071141
v 0.120504 -0.187166 1.244028
v 0.063599 -0.187166 1.431621
v 0.044384 -0.187166 1.626711
v 0.063599 -0.187166 1.821802
v 0.120504 -0.187166 2.009395
v 0.212914 -0.187166 2.182281
v 0.337277 -0.187166 2.333818
v 0.488814 -0.187166 2.458181
v 0.661701 -0.187166 2.550591
v 0.849294 -0.187166 2.607497
v 1.044384 -0.187166 2.626711
v 1.239475 -0.187166 2.607497
v 1.427068 -0.187166 2.550591
v 1.599955 -0.187166 2.458181
v 1.751491 -0.187166 2.333818
v 1.875854 -0.187166 2.182281
v 1.968264 -0.187166 2.009394
v 2.025169 -0.187166 1.821801
v 2.044384 -0.187166 1.626710
v 2.025169 -0.187166 1.431620
v 1.968263 -0.187166 1.244027
v 1.875853 -0.187166 1.071140
v 1.751490 -0.187166 0.919604
v 1.599953 -0.187166 0.795241
v 1.427066 -0.187166 0.702831
v 1.239473 -0.187166 0.645926
l 83 82
l 84 83
l 85 84
l 86 85
l 87 86
l 88 87
l 89 88
l 90 89
l 91 90
l 92 91
l 93 92
l 94 93
l 95 94
l 96 95
l 97 96
l 98 97
l 99 98
l 100 99
l 101 100
l 102 101
l 103 102
l 104 103
l 105 104
l 106 105
l 107 106
l 108 107
l 109 108
l 110 109
l 111 110
l 112 111
l 113 112
l 82 113
o Plane
v 3.492599 -0.802816 -4.421662
v 5.492599 -0.802816 -4.421662
v 3.492599 -0.802816 -6.421662
v 5.492599 -0.802816 -6.421662
vn 0.0000 1.0000 0.0000
usemtl None
s off
f 114//2 115//2 117//2 116//2
