<?xml version="1.0" encoding="utf-8"?>
<!-- Generator: Adobe Illustrator 19.0.0, SVG Export Plug-In . SVG Version: 6.00 Build 0)  -->
<svg version="1.1" id="图层_1" xmlns="http://www.w3.org/2000/svg" xmlns:xlink="http://www.w3.org/1999/xlink" x="0px" y="0px"
	 width="1417.32px" height="126px" viewBox="0 0 1417.32 126" enable-background="new 0 0 1417.32 126" xml:space="preserve">
<g>
	
		<linearGradient id="XMLID_13_" gradientUnits="userSpaceOnUse" x1="1.083" y1="63.44" x2="1416.24" y2="63.44" gradientTransform="matrix(1 0 0 1 0 -0.4399)">
		<stop  offset="0" style="stop-color:#343537"/>
		<stop  offset="1" style="stop-color:#000000"/>
	</linearGradient>
	<rect id="XMLID_11_" x="1.083" y="0" fill="url(#XMLID_13_)" width="1415.157" height="126"/>
	<rect id="XMLID_10_" x="69.859" y="0" fill="#343537" width="1276.598" height="126"/>
	
		<linearGradient id="XMLID_14_" gradientUnits="userSpaceOnUse" x1="0" y1="63.44" x2="70.866" y2="63.44" gradientTransform="matrix(1 0 0 1 0 -0.4399)">
		<stop  offset="0" style="stop-color:#343537"/>
		<stop  offset="1" style="stop-color:#191919"/>
	</linearGradient>
	<rect id="XMLID_9_" y="0" fill="url(#XMLID_14_)" width="70.866" height="126"/>
	
		<linearGradient id="XMLID_15_" gradientUnits="userSpaceOnUse" x1="1346.457" y1="1.1485" x2="1417.322" y2="1.1485" gradientTransform="matrix(1 0 0 1 0 -0.4399)">
		<stop  offset="0" style="stop-color:#343537"/>
		<stop  offset="0.0668" style="stop-color:#4C4D4E"/>
		<stop  offset="0.1768" style="stop-color:#6D6D6E"/>
		<stop  offset="0.2822" style="stop-color:#858585"/>
		<stop  offset="0.3798" style="stop-color:#939393"/>
		<stop  offset="0.4624" style="stop-color:#989898"/>
		<stop  offset="0.5492" style="stop-color:#939393"/>
		<stop  offset="0.6469" style="stop-color:#868686"/>
		<stop  offset="0.7498" style="stop-color:#6F6F6F"/>
		<stop  offset="0.8564" style="stop-color:#505050"/>
		<stop  offset="0.9649" style="stop-color:#282828"/>
		<stop  offset="1" style="stop-color:#191919"/>
	</linearGradient>
	<rect id="XMLID_8_" x="1346.457" y="0" fill="url(#XMLID_15_)" width="70.865" height="1.417"/>
	
		<linearGradient id="XMLID_16_" gradientUnits="userSpaceOnUse" x1="7606.3047" y1="63.44" x2="7677.1699" y2="63.44" gradientTransform="matrix(-1 0 0 1 9023.627 -0.4399)">
		<stop  offset="0" style="stop-color:#343537"/>
		<stop  offset="1" style="stop-color:#191919"/>
	</linearGradient>
	<rect id="XMLID_7_" x="1346.457" y="0" fill="url(#XMLID_16_)" width="70.865" height="126"/>
	<g>
		
			<linearGradient id="XMLID_17_" gradientUnits="userSpaceOnUse" x1="49.4622" y1="16.5924" x2="27.8603" y2="25.2331" gradientTransform="matrix(1 0 0 1 0 -0.4399)">
			<stop  offset="0" style="stop-color:#E1E0DF"/>
			<stop  offset="1" style="stop-color:#666666"/>
		</linearGradient>
		<path id="XMLID_6_" fill="url(#XMLID_17_)" d="M26.236,13.271l3.465-0.095c1.822-0.028,4.039,0.283,5.809,0.719l8.713,2.314
			c2.281,0.606,3.87,2.671,3.87,5.032v1.947c0,5.197-4.677,9.144-9.802,8.273l-12.834-2.186L26.236,13.271z"/>
		
			<linearGradient id="XMLID_18_" gradientUnits="userSpaceOnUse" x1="1480.3643" y1="1078.5948" x2="1495.3252" y2="1078.5948" gradientTransform="matrix(-1 0 0 -1 1530.8652 1182.0088)">
			<stop  offset="0" style="stop-color:#E1E0DF"/>
			<stop  offset="1" style="stop-color:#666666"/>
		</linearGradient>
		<path id="XMLID_5_" fill="url(#XMLID_18_)" d="M41.559,110.233l-5.184,1.382c-3.012,0.804-6.115,1.211-9.232,1.211l0,0
			l-1.686-15.895l14.654-2.807c4.143-0.793,7.981,2.381,7.981,6.598v1.004C48.093,105.716,45.412,109.205,41.559,110.233z"/>
		
			<linearGradient id="XMLID_19_" gradientUnits="userSpaceOnUse" x1="17.269" y1="63.4414" x2="37.0159" y2="63.4414" gradientTransform="matrix(1 0 0 1 0 -0.4399)">
			<stop  offset="0" style="stop-color:#CCCDCD"/>
			<stop  offset="0.4731" style="stop-color:#E1E0DF"/>
			<stop  offset="1" style="stop-color:#666666"/>
		</linearGradient>
		<path id="XMLID_4_" fill="url(#XMLID_19_)" d="M27.143,112.826L27.143,112.826c-5.453,0-9.874-4.421-9.874-9.875v-79.9
			c0-5.453,4.421-9.874,9.873-9.874h0.001c5.451,0,9.873,4.421,9.873,9.874v79.9C37.016,108.405,32.594,112.826,27.143,112.826z"/>
	</g>
	<g>
		
			<linearGradient id="XMLID_20_" gradientUnits="userSpaceOnUse" x1="6867.2266" y1="16.5926" x2="6845.625" y2="25.2333" gradientTransform="matrix(-1 0 0 1 8235.0879 -0.4399)">
			<stop  offset="0" style="stop-color:#E1E0DF"/>
			<stop  offset="1" style="stop-color:#666666"/>
		</linearGradient>
		<path id="XMLID_3_" fill="url(#XMLID_20_)" d="M1391.087,13.271l-3.465-0.095c-1.822-0.028-4.039,0.283-5.809,0.719l-8.713,2.314
			c-2.281,0.606-3.87,2.671-3.87,5.032v1.947c0,5.197,4.677,9.144,9.802,8.273l12.834-2.186L1391.087,13.271z"/>
		
			<linearGradient id="XMLID_21_" gradientUnits="userSpaceOnUse" x1="-5337.4004" y1="1078.5948" x2="-5322.4395" y2="1078.5948" gradientTransform="matrix(1 0 0 -1 6704.2227 1182.0088)">
			<stop  offset="0" style="stop-color:#E1E0DF"/>
			<stop  offset="1" style="stop-color:#666666"/>
		</linearGradient>
		<path id="XMLID_2_" fill="url(#XMLID_21_)" d="M1375.765,110.233l5.184,1.382c3.012,0.804,6.115,1.211,9.232,1.211l0,0
			l1.686-15.895l-14.654-2.807c-4.143-0.793-7.981,2.381-7.981,6.598v1.004C1369.23,105.716,1371.911,109.205,1375.765,110.233z"/>
		
			<linearGradient id="XMLID_22_" gradientUnits="userSpaceOnUse" x1="6835.0332" y1="63.4414" x2="6854.7803" y2="63.4414" gradientTransform="matrix(-1 0 0 1 8235.0879 -0.4399)">
			<stop  offset="0" style="stop-color:#CCCDCD"/>
			<stop  offset="0.4731" style="stop-color:#E1E0DF"/>
			<stop  offset="1" style="stop-color:#666666"/>
		</linearGradient>
		<path id="XMLID_1_" fill="url(#XMLID_22_)" d="M1390.181,112.826L1390.181,112.826c5.454,0,9.874-4.421,9.874-9.875v-79.9
			c0-5.453-4.42-9.874-9.873-9.874h-0.001c-5.451,0-9.873,4.421-9.873,9.874v79.9
			C1380.308,108.405,1384.729,112.826,1390.181,112.826z"/>
	</g>
</g>
</svg>
