<?xml version="1.0" encoding="utf-8"?>
<!-- Generator: Adobe Illustrator 19.0.0, SVG Export Plug-In . SVG Version: 6.00 Build 0)  -->
<svg version="1.1" id="图层_1" xmlns="http://www.w3.org/2000/svg" xmlns:xlink="http://www.w3.org/1999/xlink" x="0px" y="0px"
	 width="221.1px" height="46.2px" viewBox="0 0 221.1 46.2" style="enable-background:new 0 0 221.1 46.2;" xml:space="preserve">
<style type="text/css">
	.st0{fill:url(#XMLID_175_);}
	.st1{fill:url(#XMLID_178_);}
	.st2{fill:url(#XMLID_180_);}
	.st3{fill:#444142;}
	.st4{fill:#101112;}
</style>
<g id="XMLID_1_">
	
		<linearGradient id="XMLID_175_" gradientUnits="userSpaceOnUse" x1="3167.8584" y1="1100.3618" x2="3388.9482" y2="1100.3618" gradientTransform="matrix(-1 0 0 -1 3388.9482 1123.4858)">
		<stop  offset="0" style="stop-color:#5E605F"/>
		<stop  offset="1" style="stop-color:#474446"/>
	</linearGradient>
	<rect id="XMLID_9_" x="0" y="0" class="st0" width="221.1" height="46.2"/>
	
		<linearGradient id="XMLID_178_" gradientUnits="userSpaceOnUse" x1="3167.8584" y1="1078.0743" x2="3388.9482" y2="1078.0743" gradientTransform="matrix(-1 0 0 -1 3388.9482 1123.4858)">
		<stop  offset="0" style="stop-color:#858586"/>
		<stop  offset="0.4843" style="stop-color:#838384"/>
		<stop  offset="0.7355" style="stop-color:#7D7B7E"/>
		<stop  offset="0.9326" style="stop-color:#716E72"/>
		<stop  offset="1" style="stop-color:#6C676D"/>
	</linearGradient>
	<rect id="XMLID_166_" x="0" y="44.6" class="st1" width="221.1" height="1.7"/>
	
		<linearGradient id="XMLID_180_" gradientUnits="userSpaceOnUse" x1="3200.8979" y1="1081.4402" x2="3200.8979" y2="1126.1268" gradientTransform="matrix(-1 0 0 -1 3388.9482 1123.4858)">
		<stop  offset="0" style="stop-color:#106186"/>
		<stop  offset="0.4261" style="stop-color:#40B4D4"/>
		<stop  offset="0.4462" style="stop-color:#42B8D8"/>
		<stop  offset="0.5669" style="stop-color:#40B5D5"/>
		<stop  offset="0.6666" style="stop-color:#3AAACC"/>
		<stop  offset="0.7588" style="stop-color:#3199BC"/>
		<stop  offset="0.8464" style="stop-color:#2381A5"/>
		<stop  offset="0.9301" style="stop-color:#126289"/>
		<stop  offset="1" style="stop-color:#00426B"/>
	</linearGradient>
	<rect id="XMLID_165_" x="181.9" y="0" class="st2" width="12.4" height="44.6"/>
	<g id="XMLID_259_">
		<g id="XMLID_427_">
			<rect id="XMLID_164_" x="161.8" y="28.2" class="st3" width="8.8" height="8.8"/>
		</g>
		<g id="XMLID_425_">
			<rect id="XMLID_163_" x="161.8" y="16.8" class="st3" width="8.8" height="8.8"/>
		</g>
		<g id="XMLID_423_">
			<rect id="XMLID_162_" x="161.8" y="5.5" class="st3" width="8.8" height="8.8"/>
		</g>
		<g id="XMLID_421_">
			<rect id="XMLID_161_" x="150.5" y="28.2" class="st3" width="8.8" height="8.8"/>
		</g>
		<g id="XMLID_419_">
			<rect id="XMLID_160_" x="150.5" y="16.8" class="st3" width="8.8" height="8.8"/>
		</g>
		<g id="XMLID_417_">
			<rect id="XMLID_159_" x="150.5" y="5.5" class="st3" width="8.8" height="8.8"/>
		</g>
		<g id="XMLID_415_">
			<rect id="XMLID_158_" x="139.2" y="28.2" class="st3" width="8.8" height="8.8"/>
		</g>
		<g id="XMLID_413_">
			<rect id="XMLID_157_" x="139.2" y="16.8" class="st3" width="8.8" height="8.8"/>
		</g>
		<g id="XMLID_411_">
			<rect id="XMLID_156_" x="139.2" y="5.5" class="st3" width="8.8" height="8.8"/>
		</g>
		<g id="XMLID_409_">
			<rect id="XMLID_155_" x="127.8" y="28.2" class="st3" width="8.8" height="8.8"/>
		</g>
		<g id="XMLID_407_">
			<rect id="XMLID_154_" x="127.8" y="16.8" class="st3" width="8.8" height="8.8"/>
		</g>
		<g id="XMLID_405_">
			<rect id="XMLID_153_" x="127.8" y="5.5" class="st3" width="8.8" height="8.8"/>
		</g>
		<g id="XMLID_403_">
			<rect id="XMLID_152_" x="116.5" y="28.2" class="st3" width="8.8" height="8.8"/>
		</g>
		<g id="XMLID_401_">
			<rect id="XMLID_151_" x="116.5" y="16.8" class="st3" width="8.8" height="8.8"/>
		</g>
		<g id="XMLID_399_">
			<rect id="XMLID_150_" x="116.5" y="5.5" class="st3" width="8.8" height="8.8"/>
		</g>
		<g id="XMLID_397_">
			<rect id="XMLID_149_" x="105.1" y="28.2" class="st3" width="8.8" height="8.8"/>
		</g>
		<g id="XMLID_395_">
			<rect id="XMLID_148_" x="105.1" y="16.8" class="st3" width="8.8" height="8.8"/>
		</g>
		<g id="XMLID_393_">
			<rect id="XMLID_147_" x="105.1" y="5.5" class="st3" width="8.8" height="8.8"/>
		</g>
		<g id="XMLID_391_">
			<rect id="XMLID_146_" x="93.8" y="28.2" class="st3" width="8.8" height="8.8"/>
		</g>
		<g id="XMLID_389_">
			<rect id="XMLID_145_" x="93.8" y="16.8" class="st3" width="8.8" height="8.8"/>
		</g>
		<g id="XMLID_387_">
			<rect id="XMLID_144_" x="93.8" y="5.5" class="st3" width="8.8" height="8.8"/>
		</g>
		<g id="XMLID_385_">
			<rect id="XMLID_143_" x="82.5" y="28.2" class="st3" width="8.8" height="8.8"/>
		</g>
		<g id="XMLID_383_">
			<rect id="XMLID_142_" x="82.5" y="16.8" class="st3" width="8.8" height="8.8"/>
		</g>
		<g id="XMLID_381_">
			<rect id="XMLID_141_" x="82.5" y="5.5" class="st3" width="8.8" height="8.8"/>
		</g>
		<g id="XMLID_379_">
			<rect id="XMLID_140_" x="71.1" y="28.2" class="st3" width="8.8" height="8.8"/>
		</g>
		<g id="XMLID_377_">
			<rect id="XMLID_139_" x="71.1" y="16.8" class="st3" width="8.8" height="8.8"/>
		</g>
		<g id="XMLID_375_">
			<rect id="XMLID_138_" x="71.1" y="5.5" class="st3" width="8.8" height="8.8"/>
		</g>
		<g id="XMLID_373_">
			<rect id="XMLID_137_" x="59.8" y="28.2" class="st3" width="8.8" height="8.8"/>
		</g>
		<g id="XMLID_371_">
			<rect id="XMLID_136_" x="59.8" y="16.8" class="st3" width="8.8" height="8.8"/>
		</g>
		<g id="XMLID_369_">
			<rect id="XMLID_135_" x="59.8" y="5.5" class="st3" width="8.8" height="8.8"/>
		</g>
		<g id="XMLID_367_">
			<rect id="XMLID_134_" x="48.5" y="28.2" class="st3" width="8.8" height="8.8"/>
		</g>
		<g id="XMLID_365_">
			<rect id="XMLID_133_" x="48.5" y="16.8" class="st3" width="8.8" height="8.8"/>
		</g>
		<g id="XMLID_363_">
			<rect id="XMLID_132_" x="48.5" y="5.5" class="st3" width="8.8" height="8.8"/>
		</g>
		<g id="XMLID_361_">
			<rect id="XMLID_131_" x="37.1" y="28.2" class="st3" width="8.8" height="8.8"/>
		</g>
		<g id="XMLID_359_">
			<rect id="XMLID_130_" x="37.1" y="16.8" class="st3" width="8.8" height="8.8"/>
		</g>
		<g id="XMLID_357_">
			<rect id="XMLID_129_" x="37.1" y="5.5" class="st3" width="8.8" height="8.8"/>
		</g>
		<g id="XMLID_355_">
			<rect id="XMLID_128_" x="25.8" y="28.2" class="st3" width="8.8" height="8.8"/>
		</g>
		<g id="XMLID_353_">
			<rect id="XMLID_127_" x="25.8" y="16.8" class="st3" width="8.8" height="8.8"/>
		</g>
		<g id="XMLID_351_">
			<rect id="XMLID_126_" x="25.8" y="5.5" class="st3" width="8.8" height="8.8"/>
		</g>
		<g id="XMLID_349_">
			<rect id="XMLID_125_" x="14.4" y="28.2" class="st3" width="8.8" height="8.8"/>
		</g>
		<g id="XMLID_347_">
			<rect id="XMLID_124_" x="14.4" y="16.8" class="st3" width="8.8" height="8.8"/>
		</g>
		<g id="XMLID_345_">
			<rect id="XMLID_92_" x="14.4" y="5.5" class="st3" width="8.8" height="8.8"/>
		</g>
		<g id="XMLID_260_">
			<g id="XMLID_343_">
				<rect id="XMLID_91_" x="160.8" y="27.2" class="st4" width="8.8" height="8.8"/>
			</g>
			<g id="XMLID_341_">
				<rect id="XMLID_90_" x="160.8" y="15.8" class="st4" width="8.8" height="8.8"/>
			</g>
			<g id="XMLID_339_">
				<rect id="XMLID_89_" x="160.8" y="4.5" class="st4" width="8.8" height="8.8"/>
			</g>
			<g id="XMLID_337_">
				<rect id="XMLID_88_" x="149.5" y="27.2" class="st4" width="8.8" height="8.8"/>
			</g>
			<g id="XMLID_335_">
				<rect id="XMLID_87_" x="149.5" y="15.8" class="st4" width="8.8" height="8.8"/>
			</g>
			<g id="XMLID_333_">
				<rect id="XMLID_86_" x="149.5" y="4.5" class="st4" width="8.8" height="8.8"/>
			</g>
			<g id="XMLID_331_">
				<rect id="XMLID_85_" x="138.2" y="27.2" class="st4" width="8.8" height="8.8"/>
			</g>
			<g id="XMLID_329_">
				<rect id="XMLID_84_" x="138.2" y="15.8" class="st4" width="8.8" height="8.8"/>
			</g>
			<g id="XMLID_327_">
				<rect id="XMLID_83_" x="138.2" y="4.5" class="st4" width="8.8" height="8.8"/>
			</g>
			<g id="XMLID_325_">
				<rect id="XMLID_82_" x="126.8" y="27.2" class="st4" width="8.8" height="8.8"/>
			</g>
			<g id="XMLID_323_">
				<rect id="XMLID_81_" x="126.8" y="15.8" class="st4" width="8.8" height="8.8"/>
			</g>
			<g id="XMLID_321_">
				<rect id="XMLID_80_" x="126.8" y="4.5" class="st4" width="8.8" height="8.8"/>
			</g>
			<g id="XMLID_319_">
				<rect id="XMLID_79_" x="115.5" y="27.2" class="st4" width="8.8" height="8.8"/>
			</g>
			<g id="XMLID_317_">
				<rect id="XMLID_78_" x="115.5" y="15.8" class="st4" width="8.8" height="8.8"/>
			</g>
			<g id="XMLID_315_">
				<rect id="XMLID_77_" x="115.5" y="4.5" class="st4" width="8.8" height="8.8"/>
			</g>
			<g id="XMLID_313_">
				<rect id="XMLID_76_" x="104.1" y="27.2" class="st4" width="8.8" height="8.8"/>
			</g>
			<g id="XMLID_311_">
				<rect id="XMLID_75_" x="104.1" y="15.8" class="st4" width="8.8" height="8.8"/>
			</g>
			<g id="XMLID_309_">
				<rect id="XMLID_74_" x="104.1" y="4.5" class="st4" width="8.8" height="8.8"/>
			</g>
			<g id="XMLID_307_">
				<rect id="XMLID_73_" x="92.8" y="27.2" class="st4" width="8.8" height="8.8"/>
			</g>
			<g id="XMLID_305_">
				<rect id="XMLID_72_" x="92.8" y="15.8" class="st4" width="8.8" height="8.8"/>
			</g>
			<g id="XMLID_303_">
				<rect id="XMLID_71_" x="92.8" y="4.5" class="st4" width="8.8" height="8.8"/>
			</g>
			<g id="XMLID_301_">
				<rect id="XMLID_70_" x="81.5" y="27.2" class="st4" width="8.8" height="8.8"/>
			</g>
			<g id="XMLID_299_">
				<rect id="XMLID_69_" x="81.5" y="15.8" class="st4" width="8.8" height="8.8"/>
			</g>
			<g id="XMLID_297_">
				<rect id="XMLID_68_" x="81.5" y="4.5" class="st4" width="8.8" height="8.8"/>
			</g>
			<g id="XMLID_295_">
				<rect id="XMLID_67_" x="70.1" y="27.2" class="st4" width="8.8" height="8.8"/>
			</g>
			<g id="XMLID_293_">
				<rect id="XMLID_66_" x="70.1" y="15.8" class="st4" width="8.8" height="8.8"/>
			</g>
			<g id="XMLID_291_">
				<rect id="XMLID_65_" x="70.1" y="4.5" class="st4" width="8.8" height="8.8"/>
			</g>
			<g id="XMLID_289_">
				<rect id="XMLID_64_" x="58.8" y="27.2" class="st4" width="8.8" height="8.8"/>
			</g>
			<g id="XMLID_287_">
				<rect id="XMLID_63_" x="58.8" y="15.8" class="st4" width="8.8" height="8.8"/>
			</g>
			<g id="XMLID_285_">
				<rect id="XMLID_62_" x="58.8" y="4.5" class="st4" width="8.8" height="8.8"/>
			</g>
			<g id="XMLID_283_">
				<rect id="XMLID_61_" x="47.5" y="27.2" class="st4" width="8.8" height="8.8"/>
			</g>
			<g id="XMLID_281_">
				<rect id="XMLID_60_" x="47.5" y="15.8" class="st4" width="8.8" height="8.8"/>
			</g>
			<g id="XMLID_279_">
				<rect id="XMLID_59_" x="47.5" y="4.5" class="st4" width="8.8" height="8.8"/>
			</g>
			<g id="XMLID_277_">
				<rect id="XMLID_58_" x="36.1" y="27.2" class="st4" width="8.8" height="8.8"/>
			</g>
			<g id="XMLID_275_">
				<rect id="XMLID_57_" x="36.1" y="15.8" class="st4" width="8.8" height="8.8"/>
			</g>
			<g id="XMLID_273_">
				<rect id="XMLID_56_" x="36.1" y="4.5" class="st4" width="8.8" height="8.8"/>
			</g>
			<g id="XMLID_271_">
				<rect id="XMLID_55_" x="24.8" y="27.2" class="st4" width="8.8" height="8.8"/>
			</g>
			<g id="XMLID_269_">
				<rect id="XMLID_54_" x="24.8" y="15.8" class="st4" width="8.8" height="8.8"/>
			</g>
			<g id="XMLID_267_">
				<rect id="XMLID_53_" x="24.8" y="4.5" class="st4" width="8.8" height="8.8"/>
			</g>
			<g id="XMLID_265_">
				<rect id="XMLID_52_" x="13.4" y="27.2" class="st4" width="8.8" height="8.8"/>
			</g>
			<g id="XMLID_263_">
				<rect id="XMLID_51_" x="13.4" y="15.8" class="st4" width="8.8" height="8.8"/>
			</g>
			<g id="XMLID_261_">
				<rect id="XMLID_50_" x="13.4" y="4.5" class="st4" width="8.8" height="8.8"/>
			</g>
		</g>
	</g>
	<g id="XMLID_168_">
		<g id="XMLID_255_">
			<rect id="XMLID_47_" x="160.8" y="27.2" class="st4" width="8.8" height="8.8"/>
		</g>
		<g id="XMLID_253_">
			<rect id="XMLID_46_" x="160.8" y="15.8" class="st4" width="8.8" height="8.8"/>
		</g>
		<g id="XMLID_251_">
			<rect id="XMLID_45_" x="160.8" y="4.5" class="st4" width="8.8" height="8.8"/>
		</g>
		<g id="XMLID_249_">
			<rect id="XMLID_44_" x="149.5" y="27.2" class="st4" width="8.8" height="8.8"/>
		</g>
		<g id="XMLID_247_">
			<rect id="XMLID_43_" x="149.5" y="15.8" class="st4" width="8.8" height="8.8"/>
		</g>
		<g id="XMLID_245_">
			<rect id="XMLID_42_" x="149.5" y="4.5" class="st4" width="8.8" height="8.8"/>
		</g>
		<g id="XMLID_243_">
			<rect id="XMLID_41_" x="138.2" y="27.2" class="st4" width="8.8" height="8.8"/>
		</g>
		<g id="XMLID_241_">
			<rect id="XMLID_40_" x="138.2" y="15.8" class="st4" width="8.8" height="8.8"/>
		</g>
		<g id="XMLID_239_">
			<rect id="XMLID_39_" x="138.2" y="4.5" class="st4" width="8.8" height="8.8"/>
		</g>
		<g id="XMLID_237_">
			<rect id="XMLID_38_" x="126.8" y="27.2" class="st4" width="8.8" height="8.8"/>
		</g>
		<g id="XMLID_235_">
			<rect id="XMLID_37_" x="126.8" y="15.8" class="st4" width="8.8" height="8.8"/>
		</g>
		<g id="XMLID_233_">
			<rect id="XMLID_36_" x="126.8" y="4.5" class="st4" width="8.8" height="8.8"/>
		</g>
		<g id="XMLID_231_">
			<rect id="XMLID_35_" x="115.5" y="27.2" class="st4" width="8.8" height="8.8"/>
		</g>
		<g id="XMLID_229_">
			<rect id="XMLID_34_" x="115.5" y="15.8" class="st4" width="8.8" height="8.8"/>
		</g>
		<g id="XMLID_227_">
			<rect id="XMLID_33_" x="115.5" y="4.5" class="st4" width="8.8" height="8.8"/>
		</g>
		<g id="XMLID_225_">
			<rect id="XMLID_32_" x="104.1" y="27.2" class="st4" width="8.8" height="8.8"/>
		</g>
		<g id="XMLID_223_">
			<rect id="XMLID_31_" x="104.1" y="15.8" class="st4" width="8.8" height="8.8"/>
		</g>
		<g id="XMLID_221_">
			<rect id="XMLID_30_" x="104.1" y="4.5" class="st4" width="8.8" height="8.8"/>
		</g>
		<g id="XMLID_219_">
			<rect id="XMLID_29_" x="92.8" y="27.2" class="st4" width="8.8" height="8.8"/>
		</g>
		<g id="XMLID_217_">
			<rect id="XMLID_28_" x="92.8" y="15.8" class="st4" width="8.8" height="8.8"/>
		</g>
		<g id="XMLID_215_">
			<rect id="XMLID_27_" x="92.8" y="4.5" class="st4" width="8.8" height="8.8"/>
		</g>
		<g id="XMLID_213_">
			<rect id="XMLID_26_" x="81.5" y="27.2" class="st4" width="8.8" height="8.8"/>
		</g>
		<g id="XMLID_211_">
			<rect id="XMLID_25_" x="81.5" y="15.8" class="st4" width="8.8" height="8.8"/>
		</g>
		<g id="XMLID_209_">
			<rect id="XMLID_24_" x="81.5" y="4.5" class="st4" width="8.8" height="8.8"/>
		</g>
		<g id="XMLID_207_">
			<rect id="XMLID_23_" x="70.1" y="27.2" class="st4" width="8.8" height="8.8"/>
		</g>
		<g id="XMLID_205_">
			<rect id="XMLID_22_" x="70.1" y="15.8" class="st4" width="8.8" height="8.8"/>
		</g>
		<g id="XMLID_203_">
			<rect id="XMLID_21_" x="70.1" y="4.5" class="st4" width="8.8" height="8.8"/>
		</g>
		<g id="XMLID_201_">
			<rect id="XMLID_20_" x="58.8" y="27.2" class="st4" width="8.8" height="8.8"/>
		</g>
		<g id="XMLID_199_">
			<rect id="XMLID_19_" x="58.8" y="15.8" class="st4" width="8.8" height="8.8"/>
		</g>
		<g id="XMLID_197_">
			<rect id="XMLID_18_" x="58.8" y="4.5" class="st4" width="8.8" height="8.8"/>
		</g>
		<g id="XMLID_195_">
			<rect id="XMLID_17_" x="47.5" y="27.2" class="st4" width="8.8" height="8.8"/>
		</g>
		<g id="XMLID_193_">
			<rect id="XMLID_16_" x="47.5" y="15.8" class="st4" width="8.8" height="8.8"/>
		</g>
		<g id="XMLID_191_">
			<rect id="XMLID_15_" x="47.5" y="4.5" class="st4" width="8.8" height="8.8"/>
		</g>
		<g id="XMLID_189_">
			<rect id="XMLID_14_" x="36.1" y="27.2" class="st4" width="8.8" height="8.8"/>
		</g>
		<g id="XMLID_187_">
			<rect id="XMLID_12_" x="36.1" y="15.8" class="st4" width="8.8" height="8.8"/>
		</g>
		<g id="XMLID_185_">
			<rect id="XMLID_8_" x="36.1" y="4.5" class="st4" width="8.8" height="8.8"/>
		</g>
		<g id="XMLID_183_">
			<rect id="XMLID_7_" x="24.8" y="27.2" class="st4" width="8.8" height="8.8"/>
		</g>
		<g id="XMLID_181_">
			<rect id="XMLID_6_" x="24.8" y="15.8" class="st4" width="8.8" height="8.8"/>
		</g>
		<g id="XMLID_179_">
			<rect id="XMLID_5_" x="24.8" y="4.5" class="st4" width="8.8" height="8.8"/>
		</g>
		<g id="XMLID_176_">
			<rect id="XMLID_4_" x="13.4" y="27.2" class="st4" width="8.8" height="8.8"/>
		</g>
		<g id="XMLID_171_">
			<rect id="XMLID_3_" x="13.4" y="15.8" class="st4" width="8.8" height="8.8"/>
		</g>
		<g id="XMLID_169_">
			<rect id="XMLID_2_" x="13.4" y="4.5" class="st4" width="8.8" height="8.8"/>
		</g>
	</g>
</g>
</svg>
