<?xml version="1.0" encoding="utf-8"?>
<!-- Generator: Adobe Illustrator 19.0.0, SVG Export Plug-In . SVG Version: 6.00 Build 0)  -->
<svg version="1.1" id="图层_1" xmlns="http://www.w3.org/2000/svg" xmlns:xlink="http://www.w3.org/1999/xlink" x="0px" y="0px"
	 width="50.9px" height="50.9px" viewBox="0 0 50.9 50.9" style="enable-background:new 0 0 50.9 50.9;" xml:space="preserve">
<style type="text/css">
	.st0{fill:#424242;}
	.st1{fill:url(#XMLID_59_);}
	.st2{fill:#666666;}
	.st3{fill:url(#XMLID_60_);}
	.st4{fill:url(#XMLID_61_);}
	.st5{fill:url(#XMLID_62_);}
	.st6{fill:url(#XMLID_63_);}
</style>
<circle id="XMLID_1_" class="st0" cx="25.4" cy="25.4" r="25.4"/>
<linearGradient id="XMLID_59_" gradientUnits="userSpaceOnUse" x1="25.4419" y1="50.2071" x2="25.4419" y2="0.6767">
	<stop  offset="0" style="stop-color:#CCCCCC"/>
	<stop  offset="6.227870e-02" style="stop-color:#C6C6C6"/>
	<stop  offset="0.1438" style="stop-color:#B6B6B6"/>
	<stop  offset="0.236" style="stop-color:#9B9B9B"/>
	<stop  offset="0.336" style="stop-color:#757575"/>
	<stop  offset="0.4413" style="stop-color:#454545"/>
	<stop  offset="0.4771" style="stop-color:#333333"/>
	<stop  offset="0.5163" style="stop-color:#454545"/>
	<stop  offset="0.6317" style="stop-color:#757575"/>
	<stop  offset="0.7414" style="stop-color:#9B9B9B"/>
	<stop  offset="0.8424" style="stop-color:#B6B6B6"/>
	<stop  offset="0.9317" style="stop-color:#C6C6C6"/>
	<stop  offset="1" style="stop-color:#CCCCCC"/>
</linearGradient>
<circle id="XMLID_93_" class="st1" cx="25.4" cy="25.4" r="24.8"/>
<circle id="XMLID_94_" class="st2" cx="25.4" cy="25.4" r="22.3"/>
<linearGradient id="XMLID_60_" gradientUnits="userSpaceOnUse" x1="3.8434" y1="25.4419" x2="47.0404" y2="25.4419">
	<stop  offset="0" style="stop-color:#2F9ACE"/>
	<stop  offset="1" style="stop-color:#2064A7"/>
</linearGradient>
<circle id="XMLID_95_" class="st3" cx="25.4" cy="25.4" r="21.6"/>
<linearGradient id="XMLID_61_" gradientUnits="userSpaceOnUse" x1="25.4419" y1="7.3434" x2="25.4419" y2="43.5404">
	<stop  offset="0" style="stop-color:#D9D9D9"/>
	<stop  offset="0.394" style="stop-color:#D7D7D7"/>
	<stop  offset="0.6019" style="stop-color:#CFCFCF"/>
	<stop  offset="0.7662" style="stop-color:#C1C1C1"/>
	<stop  offset="0.907" style="stop-color:#AEAEAE"/>
	<stop  offset="1" style="stop-color:#9D9D9D"/>
</linearGradient>
<circle id="XMLID_96_" class="st4" cx="25.4" cy="25.4" r="18.1"/>
<g id="XMLID_48_">
	<linearGradient id="XMLID_62_" gradientUnits="userSpaceOnUse" x1="16.0906" y1="27.3442" x2="34.6768" y2="27.3442">
		<stop  offset="0" style="stop-color:#2F9ACE"/>
		<stop  offset="1" style="stop-color:#2064A7"/>
	</linearGradient>
	<path id="XMLID_102_" class="st5" d="M28.2,18v2.2c2.7,1.1,4.7,3.8,4.7,6.9c0,4.1-3.3,7.5-7.5,7.5S18,31.3,18,27.1
		c0-3.1,1.9-5.8,4.7-6.9V18c-3.9,1.2-6.8,4.8-6.8,9.1c0,5.3,4.3,9.6,9.6,9.6c5.3,0,9.6-4.3,9.6-9.6C35,22.8,32.1,19.2,28.2,18z"/>
	<linearGradient id="XMLID_63_" gradientUnits="userSpaceOnUse" x1="16.0906" y1="18.6001" x2="34.6768" y2="18.6001">
		<stop  offset="0" style="stop-color:#2F9ACE"/>
		<stop  offset="1" style="stop-color:#2064A7"/>
	</linearGradient>
	<rect id="XMLID_13_" x="23.9" y="14.2" class="st6" width="3.1" height="8.8"/>
</g>
</svg>
