<?xml version="1.0" encoding="utf-8"?>
<!-- Generator: Adobe Illustrator 19.0.0, SVG Export Plug-In . SVG Version: 6.00 Build 0)  -->
<svg version="1.1" id="图层_1" xmlns="http://www.w3.org/2000/svg" xmlns:xlink="http://www.w3.org/1999/xlink" x="0px" y="0px"
	 width="274.7px" height="108.4px" viewBox="0 0 274.7 108.4" style="enable-background:new 0 0 274.7 108.4;" xml:space="preserve"
	>
<style type="text/css">
	.st0{fill:url(#XMLID_41_);}
	.st1{fill:#4B4949;}
	.st2{fill:#101112;}
</style>
<linearGradient id="XMLID_41_" gradientUnits="userSpaceOnUse" x1="137.373" y1="111.872" x2="137.373" y2="-1.2619">
	<stop  offset="0" style="stop-color:#262324"/>
	<stop  offset="1.989231e-02" style="stop-color:#272425"/>
	<stop  offset="0.2623" style="stop-color:#2F2F30"/>
	<stop  offset="0.5269" style="stop-color:#323333"/>
	<stop  offset="0.7206" style="stop-color:#303131"/>
	<stop  offset="0.8241" style="stop-color:#282929"/>
	<stop  offset="0.9063" style="stop-color:#1B1B1B"/>
	<stop  offset="0.9769" style="stop-color:#080808"/>
	<stop  offset="1" style="stop-color:#000000"/>
</linearGradient>
<rect id="XMLID_97_" x="0" y="0" class="st0" width="274.7" height="108.4"/>
<g id="XMLID_527_">
	<g id="XMLID_49_">
		<path id="XMLID_834_" class="st1" d="M51.4,21.7c-0.1-0.3-0.2-0.5-0.2-0.8v-2.5c-0.3,0.3-0.7,0.5-1,0.8v0.7
			C50.2,20.7,50.7,21.4,51.4,21.7z"/>
		<path id="XMLID_835_" class="st1" d="M71.6,21.7c-0.1-0.3-0.2-0.5-0.2-0.8V10.2c0-0.1,0-0.3,0-0.4c-0.3,0.1-0.7,0.1-1,0.2v9.9
			C70.4,20.7,70.9,21.4,71.6,21.7z"/>
		<path id="XMLID_836_" class="st1" d="M91.8,21.7c-0.1-0.3-0.2-0.5-0.2-0.8v-9.5c-0.3-0.1-0.7-0.2-1-0.3v8.8
			C90.6,20.7,91.1,21.4,91.8,21.7z"/>
		<path id="XMLID_837_" class="st1" d="M43.7,27.9c0.3,0,0.6,0.1,0.8,0.2c-0.3-0.7-1-1.2-1.8-1.2h-0.1c-0.3,0.3-0.5,0.7-0.7,1H43.7z
			"/>
		<path id="XMLID_838_" class="st1" d="M51.2,29.9c0-1.1,0.9-2,2-2h10.7c0.3,0,0.6,0.1,0.8,0.2c-0.3-0.7-1-1.2-1.8-1.2H52.2
			c-1.1,0-2,0.9-2,2v10.7c0,0.8,0.5,1.5,1.2,1.8c-0.1-0.3-0.2-0.5-0.2-0.8V29.9z"/>
		<path id="XMLID_839_" class="st1" d="M71.4,29.9c0-1.1,0.9-2,2-2h10.7c0.3,0,0.6,0.1,0.8,0.2c-0.3-0.7-1-1.2-1.8-1.2H72.4
			c-1.1,0-2,0.9-2,2v10.7c0,0.8,0.5,1.5,1.2,1.8c-0.1-0.3-0.2-0.5-0.2-0.8V29.9z"/>
		<path id="XMLID_840_" class="st1" d="M91.6,29.9c0-1.1,0.9-2,2-2h10.7c0.3,0,0.6,0.1,0.8,0.2c-0.3-0.7-1-1.2-1.8-1.2H92.6
			c-1.1,0-2,0.9-2,2v10.7c0,0.8,0.5,1.5,1.2,1.8c-0.1-0.3-0.2-0.5-0.2-0.8V29.9z"/>
		<path id="XMLID_841_" class="st1" d="M110.8,28.9v10.7c0,0.8,0.5,1.5,1.2,1.8c-0.1-0.3-0.2-0.5-0.2-0.8V29.9c0-1.1,0.9-2,2-2h0.8
			c-0.2-0.3-0.5-0.7-0.7-1h-1.1C111.7,26.9,110.8,27.8,110.8,28.9z"/>
		<path id="XMLID_842_" class="st1" d="M43.7,47.4c0.3,0,0.6,0.1,0.8,0.2c-0.3-0.7-1-1.2-1.8-1.2H34c-0.1,0.3-0.1,0.7-0.2,1H43.7z"
			/>
		<path id="XMLID_843_" class="st1" d="M51.2,49.4c0-1.1,0.9-2,2-2h10.7c0.3,0,0.6,0.1,0.8,0.2c-0.3-0.7-1-1.2-1.8-1.2H52.2
			c-1.1,0-2,0.9-2,2v10.7c0,0.8,0.5,1.5,1.2,1.8c-0.1-0.3-0.2-0.5-0.2-0.8V49.4z"/>
		<path id="XMLID_844_" class="st1" d="M71.4,49.4c0-1.1,0.9-2,2-2h10.7c0.3,0,0.6,0.1,0.8,0.2c-0.3-0.7-1-1.2-1.8-1.2H72.4
			c-1.1,0-2,0.9-2,2v10.7c0,0.8,0.5,1.5,1.2,1.8c-0.1-0.3-0.2-0.5-0.2-0.8V49.4z"/>
		<path id="XMLID_845_" class="st1" d="M91.6,49.4c0-1.1,0.9-2,2-2h10.7c0.3,0,0.6,0.1,0.8,0.2c-0.3-0.7-1-1.2-1.8-1.2H92.6
			c-1.1,0-2,0.9-2,2v10.7c0,0.8,0.5,1.5,1.2,1.8c-0.1-0.3-0.2-0.5-0.2-0.8V49.4z"/>
		<path id="XMLID_846_" class="st1" d="M110.8,48.4v10.7c0,0.8,0.5,1.5,1.2,1.8c-0.1-0.3-0.2-0.5-0.2-0.8V49.4c0-1.1,0.9-2,2-2h8.8
			c-0.1-0.3-0.1-0.7-0.2-1h-9.6C111.7,46.4,110.8,47.3,110.8,48.4z"/>
		<path id="XMLID_847_" class="st1" d="M43.7,67c0.3,0,0.6,0.1,0.8,0.2c-0.3-0.7-1-1.2-1.8-1.2h-7.8c0.1,0.3,0.2,0.7,0.3,1H43.7z"/>
		<path id="XMLID_848_" class="st1" d="M51.2,69c0-1.1,0.9-2,2-2h10.7c0.3,0,0.6,0.1,0.8,0.2c-0.3-0.7-1-1.2-1.8-1.2H52.2
			c-1.1,0-2,0.9-2,2v10.7c0,0.8,0.5,1.5,1.2,1.8c-0.1-0.3-0.2-0.5-0.2-0.8V69z"/>
		<path id="XMLID_849_" class="st1" d="M71.4,69c0-1.1,0.9-2,2-2h10.7c0.3,0,0.6,0.1,0.8,0.2c-0.3-0.7-1-1.2-1.8-1.2H72.4
			c-1.1,0-2,0.9-2,2v10.7c0,0.8,0.5,1.5,1.2,1.8c-0.1-0.3-0.2-0.5-0.2-0.8V69z"/>
		<path id="XMLID_850_" class="st1" d="M91.6,69c0-1.1,0.9-2,2-2h10.7c0.3,0,0.6,0.1,0.8,0.2c-0.3-0.7-1-1.2-1.8-1.2H92.6
			c-1.1,0-2,0.9-2,2v10.7c0,0.8,0.5,1.5,1.2,1.8c-0.1-0.3-0.2-0.5-0.2-0.8V69z"/>
		<path id="XMLID_851_" class="st1" d="M110.8,68v10.7c0,0.8,0.5,1.5,1.2,1.8c-0.1-0.3-0.2-0.5-0.2-0.8V69c0-1.1,0.9-2,2-2h7.5
			c0.1-0.3,0.2-0.7,0.3-1h-8.8C111.7,66,110.8,66.9,110.8,68z"/>
		<path id="XMLID_852_" class="st1" d="M51.2,88.5c0-1.1,0.9-2,2-2h10.7c0.3,0,0.6,0.1,0.8,0.2c-0.3-0.7-1-1.2-1.8-1.2H52.2
			c-1.1,0-2,0.9-2,2v1.7c0.3,0.3,0.7,0.5,1,0.8V88.5z"/>
		<path id="XMLID_853_" class="st1" d="M71.4,88.5c0-1.1,0.9-2,2-2h10.7c0.3,0,0.6,0.1,0.8,0.2c-0.3-0.7-1-1.2-1.8-1.2H72.4
			c-1.1,0-2,0.9-2,2v10.7c0,0.1,0,0.1,0,0.2c0.3,0.1,0.7,0.1,1,0.2V88.5z"/>
		<path id="XMLID_854_" class="st1" d="M91.6,88.5c0-1.1,0.9-2,2-2h10.7c0.3,0,0.6,0.1,0.8,0.2c-0.3-0.7-1-1.2-1.8-1.2H92.6
			c-1.1,0-2,0.9-2,2v9.8c0.3-0.1,0.7-0.2,1-0.3V88.5z"/>
		<path id="XMLID_855_" class="st2" d="M64.9,19.9c0,1.1-0.9,2-2,2H52.2c-0.3,0-0.6-0.1-0.8-0.2c0.3,0.7,1,1.2,1.8,1.2h10.7
			c1.1,0,2-0.9,2-2V11c-0.3,0.1-0.7,0.2-1,0.3V19.9z"/>
		<path id="XMLID_856_" class="st2" d="M62.9,21.9c1.1,0,2-0.9,2-2v-8.5c-5,1.6-9.6,4-13.7,7v2.5c0,0.3,0.1,0.6,0.2,0.8
			c0.3,0.1,0.5,0.2,0.8,0.2H62.9z"/>
		<path id="XMLID_857_" class="st2" d="M85.1,19.9c0,1.1-0.9,2-2,2H72.4c-0.3,0-0.6-0.1-0.8-0.2c0.3,0.7,1,1.2,1.8,1.2h10.7
			c1.1,0,2-0.9,2-2V10.2c0-0.1,0-0.1,0-0.2c-0.3-0.1-0.7-0.1-1-0.2V19.9z"/>
		<path id="XMLID_858_" class="st2" d="M83.1,21.9c1.1,0,2-0.9,2-2V9.8c-2.2-0.3-4.5-0.5-6.8-0.5c-2.3,0-4.6,0.2-6.8,0.5
			c0,0.1,0,0.2,0,0.4v10.7c0,0.3,0.1,0.6,0.2,0.8c0.3,0.1,0.5,0.2,0.8,0.2H83.1z"/>
		<path id="XMLID_859_" class="st2" d="M105.3,19.9c0,1.1-0.9,2-2,2H92.6c-0.3,0-0.6-0.1-0.8-0.2c0.3,0.7,1,1.2,1.8,1.2h10.7
			c1.1,0,2-0.9,2-2v-1.7c-0.3-0.3-0.7-0.5-1-0.8V19.9z"/>
		<path id="XMLID_860_" class="st2" d="M103.3,21.9c1.1,0,2-0.9,2-2v-1.5c-4.1-3.1-8.7-5.5-13.7-7v9.5c0,0.3,0.1,0.6,0.2,0.8
			c0.3,0.1,0.5,0.2,0.8,0.2H103.3z"/>
		<path id="XMLID_861_" class="st2" d="M45.7,40.6V29.9c0-0.8-0.5-1.5-1.2-1.8c0.1,0.3,0.2,0.5,0.2,0.8v10.7c0,1.1-0.9,2-2,2h-7.5
			c-0.1,0.3-0.2,0.7-0.3,1h8.8C44.8,42.6,45.7,41.7,45.7,40.6z"/>
		<path id="XMLID_862_" class="st2" d="M41.9,27.9c-3,4.1-5.3,8.7-6.7,13.7h7.5c1.1,0,2-0.9,2-2V28.9c0-0.3-0.1-0.6-0.2-0.8
			c-0.3-0.1-0.5-0.2-0.8-0.2H41.9z"/>
		<path id="XMLID_863_" class="st2" d="M64.7,28.1c0.1,0.3,0.2,0.5,0.2,0.8v10.7c0,1.1-0.9,2-2,2H52.2c-0.3,0-0.6-0.1-0.8-0.2
			c0.3,0.7,1,1.2,1.8,1.2h10.7c1.1,0,2-0.9,2-2V29.9C65.9,29.1,65.4,28.4,64.7,28.1z"/>
		<path id="XMLID_864_" class="st2" d="M62.9,41.6c1.1,0,2-0.9,2-2V28.9c0-0.3-0.1-0.6-0.2-0.8c-0.3-0.1-0.5-0.2-0.8-0.2H53.2
			c-1.1,0-2,0.9-2,2v10.7c0,0.3,0.1,0.6,0.2,0.8c0.3,0.1,0.5,0.2,0.8,0.2H62.9z"/>
		<path id="XMLID_865_" class="st2" d="M84.9,28.1c0.1,0.3,0.2,0.5,0.2,0.8v10.7c0,1.1-0.9,2-2,2H72.4c-0.3,0-0.6-0.1-0.8-0.2
			c0.3,0.7,1,1.2,1.8,1.2h10.7c1.1,0,2-0.9,2-2V29.9C86.1,29.1,85.6,28.4,84.9,28.1z"/>
		<path id="XMLID_866_" class="st2" d="M83.1,41.6c1.1,0,2-0.9,2-2V28.9c0-0.3-0.1-0.6-0.2-0.8c-0.3-0.1-0.5-0.2-0.8-0.2H73.4
			c-1.1,0-2,0.9-2,2v10.7c0,0.3,0.1,0.6,0.2,0.8c0.3,0.1,0.5,0.2,0.8,0.2H83.1z"/>
		<path id="XMLID_867_" class="st2" d="M105.1,28.1c0.1,0.3,0.2,0.5,0.2,0.8v10.7c0,1.1-0.9,2-2,2H92.6c-0.3,0-0.6-0.1-0.8-0.2
			c0.3,0.7,1,1.2,1.8,1.2h10.7c1.1,0,2-0.9,2-2V29.9C106.3,29.1,105.8,28.4,105.1,28.1z"/>
		<path id="XMLID_868_" class="st2" d="M103.3,41.6c1.1,0,2-0.9,2-2V28.9c0-0.3-0.1-0.6-0.2-0.8c-0.3-0.1-0.5-0.2-0.8-0.2H93.6
			c-1.1,0-2,0.9-2,2v10.7c0,0.3,0.1,0.6,0.2,0.8c0.3,0.1,0.5,0.2,0.8,0.2H103.3z"/>
		<path id="XMLID_869_" class="st2" d="M112.8,41.6c-0.3,0-0.6-0.1-0.8-0.2c0.3,0.7,1,1.2,1.8,1.2h7.8c-0.1-0.3-0.2-0.7-0.3-1H112.8
			z"/>
		<path id="XMLID_870_" class="st2" d="M121.3,41.6c-1.5-5-3.7-9.6-6.7-13.7h-0.8c-1.1,0-2,0.9-2,2v10.7c0,0.3,0.1,0.6,0.2,0.8
			c0.3,0.1,0.5,0.2,0.8,0.2H121.3z"/>
		<path id="XMLID_871_" class="st2" d="M45.7,60.1V49.4c0-0.8-0.5-1.5-1.2-1.8c0.1,0.3,0.2,0.5,0.2,0.8v10.7c0,1.1-0.9,2-2,2h-8.8
			c0.1,0.3,0.1,0.7,0.2,1h9.6C44.8,62.1,45.7,61.2,45.7,60.1z"/>
		<path id="XMLID_872_" class="st2" d="M33.9,47.4c-0.3,2.2-0.5,4.5-0.5,6.8c0,2.4,0.2,4.7,0.5,6.9h8.8c1.1,0,2-0.9,2-2V48.4
			c0-0.3-0.1-0.6-0.2-0.8c-0.3-0.1-0.5-0.2-0.8-0.2H33.9z"/>
		<path id="XMLID_873_" class="st2" d="M64.7,47.6c0.1,0.3,0.2,0.5,0.2,0.8v10.7c0,1.1-0.9,2-2,2H52.2c-0.3,0-0.6-0.1-0.8-0.2
			c0.3,0.7,1,1.2,1.8,1.2h10.7c1.1,0,2-0.9,2-2V49.4C65.9,48.6,65.4,47.9,64.7,47.6z"/>
		<path id="XMLID_874_" class="st2" d="M62.9,61.1c1.1,0,2-0.9,2-2V48.4c0-0.3-0.1-0.6-0.2-0.8c-0.3-0.1-0.5-0.2-0.8-0.2H53.2
			c-1.1,0-2,0.9-2,2v10.7c0,0.3,0.1,0.6,0.2,0.8c0.3,0.1,0.5,0.2,0.8,0.2H62.9z"/>
		<path id="XMLID_875_" class="st2" d="M84.9,47.6c0.1,0.3,0.2,0.5,0.2,0.8v10.7c0,1.1-0.9,2-2,2H72.4c-0.3,0-0.6-0.1-0.8-0.2
			c0.3,0.7,1,1.2,1.8,1.2h10.7c1.1,0,2-0.9,2-2V49.4C86.1,48.6,85.6,47.9,84.9,47.6z"/>
		<path id="XMLID_876_" class="st2" d="M83.1,61.1c1.1,0,2-0.9,2-2V48.4c0-0.3-0.1-0.6-0.2-0.8c-0.3-0.1-0.5-0.2-0.8-0.2H73.4
			c-1.1,0-2,0.9-2,2v10.7c0,0.3,0.1,0.6,0.2,0.8c0.3,0.1,0.5,0.2,0.8,0.2H83.1z"/>
		<path id="XMLID_877_" class="st2" d="M105.1,47.6c0.1,0.3,0.2,0.5,0.2,0.8v10.7c0,1.1-0.9,2-2,2H92.6c-0.3,0-0.6-0.1-0.8-0.2
			c0.3,0.7,1,1.2,1.8,1.2h10.7c1.1,0,2-0.9,2-2V49.4C106.3,48.6,105.8,47.9,105.1,47.6z"/>
		<path id="XMLID_878_" class="st2" d="M103.3,61.1c1.1,0,2-0.9,2-2V48.4c0-0.3-0.1-0.6-0.2-0.8c-0.3-0.1-0.5-0.2-0.8-0.2H93.6
			c-1.1,0-2,0.9-2,2v10.7c0,0.3,0.1,0.6,0.2,0.8c0.3,0.1,0.5,0.2,0.8,0.2H103.3z"/>
		<path id="XMLID_879_" class="st2" d="M112.8,61.1c-0.3,0-0.6-0.1-0.8-0.2c0.3,0.7,1,1.2,1.8,1.2h8.6c0.1-0.3,0.1-0.7,0.2-1H112.8z
			"/>
		<path id="XMLID_880_" class="st2" d="M122.6,61.1c0.3-2.3,0.5-4.6,0.5-6.9c0-2.3-0.2-4.6-0.5-6.8h-8.8c-1.1,0-2,0.9-2,2v10.7
			c0,0.3,0.1,0.6,0.2,0.8c0.3,0.1,0.5,0.2,0.8,0.2H122.6z"/>
		<path id="XMLID_881_" class="st2" d="M45.7,79.7V69c0-0.8-0.5-1.5-1.2-1.8c0.1,0.3,0.2,0.5,0.2,0.8v10.7c0,1.1-0.9,2-2,2H42
			c0.2,0.3,0.5,0.7,0.8,1h0.9C44.8,81.7,45.7,80.8,45.7,79.7z"/>
		<path id="XMLID_882_" class="st2" d="M35.2,67c1.5,5,3.8,9.6,6.8,13.7h0.7c1.1,0,2-0.9,2-2V68c0-0.3-0.1-0.6-0.2-0.8
			C44.3,67,44,67,43.7,67H35.2z"/>
		<path id="XMLID_883_" class="st2" d="M64.7,67.2c0.1,0.3,0.2,0.5,0.2,0.8v10.7c0,1.1-0.9,2-2,2H52.2c-0.3,0-0.6-0.1-0.8-0.2
			c0.3,0.7,1,1.2,1.8,1.2h10.7c1.1,0,2-0.9,2-2V69C65.9,68.2,65.4,67.5,64.7,67.2z"/>
		<path id="XMLID_884_" class="st2" d="M62.9,80.7c1.1,0,2-0.9,2-2V68c0-0.3-0.1-0.6-0.2-0.8C64.5,67,64.2,67,63.9,67H53.2
			c-1.1,0-2,0.9-2,2v10.7c0,0.3,0.1,0.6,0.2,0.8c0.3,0.1,0.5,0.2,0.8,0.2H62.9z"/>
		<path id="XMLID_885_" class="st2" d="M84.9,67.2c0.1,0.3,0.2,0.5,0.2,0.8v10.7c0,1.1-0.9,2-2,2H72.4c-0.3,0-0.6-0.1-0.8-0.2
			c0.3,0.7,1,1.2,1.8,1.2h10.7c1.1,0,2-0.9,2-2V69C86.1,68.2,85.6,67.5,84.9,67.2z"/>
		<path id="XMLID_886_" class="st2" d="M83.1,80.7c1.1,0,2-0.9,2-2V68c0-0.3-0.1-0.6-0.2-0.8C84.7,67,84.4,67,84.1,67H73.4
			c-1.1,0-2,0.9-2,2v10.7c0,0.3,0.1,0.6,0.2,0.8c0.3,0.1,0.5,0.2,0.8,0.2H83.1z"/>
		<path id="XMLID_887_" class="st2" d="M105.1,67.2c0.1,0.3,0.2,0.5,0.2,0.8v10.7c0,1.1-0.9,2-2,2H92.6c-0.3,0-0.6-0.1-0.8-0.2
			c0.3,0.7,1,1.2,1.8,1.2h10.7c1.1,0,2-0.9,2-2V69C106.3,68.2,105.8,67.5,105.1,67.2z"/>
		<path id="XMLID_888_" class="st2" d="M103.3,80.7c1.1,0,2-0.9,2-2V68c0-0.3-0.1-0.6-0.2-0.8c-0.3-0.1-0.5-0.2-0.8-0.2H93.6
			c-1.1,0-2,0.9-2,2v10.7c0,0.3,0.1,0.6,0.2,0.8c0.3,0.1,0.5,0.2,0.8,0.2H103.3z"/>
		<path id="XMLID_889_" class="st2" d="M112.8,80.7c-0.3,0-0.6-0.1-0.8-0.2c0.3,0.7,1,1.2,1.8,1.2c0.3-0.3,0.5-0.7,0.8-1H112.8z"/>
		<path id="XMLID_890_" class="st2" d="M114.5,80.7c3-4.1,5.3-8.7,6.8-13.7h-7.5c-1.1,0-2,0.9-2,2v10.7c0,0.3,0.1,0.6,0.2,0.8
			c0.3,0.1,0.5,0.2,0.8,0.2H114.5z"/>
		<path id="XMLID_891_" class="st2" d="M64.7,86.7c0.1,0.3,0.2,0.5,0.2,0.8v9.5c0.3,0.1,0.7,0.2,1,0.3v-8.8
			C65.9,87.7,65.4,87,64.7,86.7z"/>
		<path id="XMLID_892_" class="st2" d="M53.2,86.5c-1.1,0-2,0.9-2,2V90c4.1,3.1,8.7,5.5,13.7,7v-9.5c0-0.3-0.1-0.6-0.2-0.8
			c-0.3-0.1-0.5-0.2-0.8-0.2H53.2z"/>
		<path id="XMLID_893_" class="st2" d="M84.9,86.7c0.1,0.3,0.2,0.5,0.2,0.8v10.7c0,0.1,0,0.3,0,0.4c0.3-0.1,0.7-0.1,1-0.2v-9.9
			C86.1,87.7,85.6,87,84.9,86.7z"/>
		<path id="XMLID_894_" class="st2" d="M73.4,86.5c-1.1,0-2,0.9-2,2v10.1c2.2,0.3,4.5,0.5,6.8,0.5c2.3,0,4.6-0.2,6.8-0.5
			c0-0.1,0-0.2,0-0.4V87.5c0-0.3-0.1-0.6-0.2-0.8c-0.3-0.1-0.5-0.2-0.8-0.2H73.4z"/>
		<path id="XMLID_895_" class="st2" d="M105.1,86.7c0.1,0.3,0.2,0.5,0.2,0.8V90c0.3-0.3,0.7-0.5,1-0.8v-0.7
			C106.3,87.7,105.8,87,105.1,86.7z"/>
		<path id="XMLID_896_" class="st2" d="M93.6,86.5c-1.1,0-2,0.9-2,2v8.5c5-1.6,9.6-4,13.7-7v-2.5c0-0.3-0.1-0.6-0.2-0.8
			c-0.3-0.1-0.5-0.2-0.8-0.2H93.6z"/>
	</g>
	<g id="XMLID_98_">
		<path id="XMLID_526_" class="st1" d="M169.6,21.7c-0.1-0.3-0.2-0.5-0.2-0.8v-2.5c-0.3,0.3-0.7,0.5-1,0.8v0.7
			C168.5,20.7,168.9,21.4,169.6,21.7z"/>
		<path id="XMLID_525_" class="st1" d="M189.8,21.7c-0.1-0.3-0.2-0.5-0.2-0.8V10.2c0-0.1,0-0.3,0-0.4c-0.3,0.1-0.7,0.1-1,0.2v9.9
			C188.7,20.7,189.1,21.4,189.8,21.7z"/>
		<path id="XMLID_524_" class="st1" d="M210,21.7c-0.1-0.3-0.2-0.5-0.2-0.8v-9.5c-0.3-0.1-0.7-0.2-1-0.3v8.8
			C208.9,20.7,209.3,21.4,210,21.7z"/>
		<path id="XMLID_523_" class="st1" d="M161.9,27.9c0.3,0,0.6,0.1,0.8,0.2c-0.3-0.7-1-1.2-1.8-1.2h-0.1c-0.3,0.3-0.5,0.7-0.7,1
			H161.9z"/>
		<path id="XMLID_522_" class="st1" d="M169.5,29.9c0-1.1,0.9-2,2-2h10.7c0.3,0,0.6,0.1,0.8,0.2c-0.3-0.7-1-1.2-1.8-1.2h-10.7
			c-1.1,0-2,0.9-2,2v10.7c0,0.8,0.5,1.5,1.2,1.8c-0.1-0.3-0.2-0.5-0.2-0.8V29.9z"/>
		<path id="XMLID_521_" class="st1" d="M189.7,29.9c0-1.1,0.9-2,2-2h10.7c0.3,0,0.6,0.1,0.8,0.2c-0.3-0.7-1-1.2-1.8-1.2h-10.7
			c-1.1,0-2,0.9-2,2v10.7c0,0.8,0.5,1.5,1.2,1.8c-0.1-0.3-0.2-0.5-0.2-0.8V29.9z"/>
		<path id="XMLID_520_" class="st1" d="M209.9,29.9c0-1.1,0.9-2,2-2h10.7c0.3,0,0.6,0.1,0.8,0.2c-0.3-0.7-1-1.2-1.8-1.2h-10.7
			c-1.1,0-2,0.9-2,2v10.7c0,0.8,0.5,1.5,1.2,1.8c-0.1-0.3-0.2-0.5-0.2-0.8V29.9z"/>
		<path id="XMLID_519_" class="st1" d="M229.1,28.9v10.7c0,0.8,0.5,1.5,1.2,1.8c-0.1-0.3-0.2-0.5-0.2-0.8V29.9c0-1.1,0.9-2,2-2h0.8
			c-0.2-0.3-0.5-0.7-0.7-1h-1.1C230,26.9,229.1,27.8,229.1,28.9z"/>
		<path id="XMLID_518_" class="st1" d="M161.9,47.4c0.3,0,0.6,0.1,0.8,0.2c-0.3-0.7-1-1.2-1.8-1.2h-8.6c-0.1,0.3-0.1,0.7-0.2,1
			H161.9z"/>
		<path id="XMLID_517_" class="st1" d="M169.5,49.4c0-1.1,0.9-2,2-2h10.7c0.3,0,0.6,0.1,0.8,0.2c-0.3-0.7-1-1.2-1.8-1.2h-10.7
			c-1.1,0-2,0.9-2,2v10.7c0,0.8,0.5,1.5,1.2,1.8c-0.1-0.3-0.2-0.5-0.2-0.8V49.4z"/>
		<path id="XMLID_516_" class="st1" d="M189.7,49.4c0-1.1,0.9-2,2-2h10.7c0.3,0,0.6,0.1,0.8,0.2c-0.3-0.7-1-1.2-1.8-1.2h-10.7
			c-1.1,0-2,0.9-2,2v10.7c0,0.8,0.5,1.5,1.2,1.8c-0.1-0.3-0.2-0.5-0.2-0.8V49.4z"/>
		<path id="XMLID_515_" class="st1" d="M209.9,49.4c0-1.1,0.9-2,2-2h10.7c0.3,0,0.6,0.1,0.8,0.2c-0.3-0.7-1-1.2-1.8-1.2h-10.7
			c-1.1,0-2,0.9-2,2v10.7c0,0.8,0.5,1.5,1.2,1.8c-0.1-0.3-0.2-0.5-0.2-0.8V49.4z"/>
		<path id="XMLID_514_" class="st1" d="M229.1,48.4v10.7c0,0.8,0.5,1.5,1.2,1.8c-0.1-0.3-0.2-0.5-0.2-0.8V49.4c0-1.1,0.9-2,2-2h8.8
			c-0.1-0.3-0.1-0.7-0.2-1h-9.6C230,46.4,229.1,47.3,229.1,48.4z"/>
		<path id="XMLID_513_" class="st1" d="M161.9,67c0.3,0,0.6,0.1,0.8,0.2c-0.3-0.7-1-1.2-1.8-1.2h-7.8c0.1,0.3,0.2,0.7,0.3,1H161.9z"
			/>
		<path id="XMLID_512_" class="st1" d="M169.5,69c0-1.1,0.9-2,2-2h10.7c0.3,0,0.6,0.1,0.8,0.2c-0.3-0.7-1-1.2-1.8-1.2h-10.7
			c-1.1,0-2,0.9-2,2v10.7c0,0.8,0.5,1.5,1.2,1.8c-0.1-0.3-0.2-0.5-0.2-0.8V69z"/>
		<path id="XMLID_511_" class="st1" d="M189.7,69c0-1.1,0.9-2,2-2h10.7c0.3,0,0.6,0.1,0.8,0.2c-0.3-0.7-1-1.2-1.8-1.2h-10.7
			c-1.1,0-2,0.9-2,2v10.7c0,0.8,0.5,1.5,1.2,1.8c-0.1-0.3-0.2-0.5-0.2-0.8V69z"/>
		<path id="XMLID_510_" class="st1" d="M209.9,69c0-1.1,0.9-2,2-2h10.7c0.3,0,0.6,0.1,0.8,0.2c-0.3-0.7-1-1.2-1.8-1.2h-10.7
			c-1.1,0-2,0.9-2,2v10.7c0,0.8,0.5,1.5,1.2,1.8c-0.1-0.3-0.2-0.5-0.2-0.8V69z"/>
		<path id="XMLID_509_" class="st1" d="M229.1,68v10.7c0,0.8,0.5,1.5,1.2,1.8c-0.1-0.3-0.2-0.5-0.2-0.8V69c0-1.1,0.9-2,2-2h7.5
			c0.1-0.3,0.2-0.7,0.3-1h-8.8C230,66,229.1,66.9,229.1,68z"/>
		<path id="XMLID_508_" class="st1" d="M169.5,88.5c0-1.1,0.9-2,2-2h10.7c0.3,0,0.6,0.1,0.8,0.2c-0.3-0.7-1-1.2-1.8-1.2h-10.7
			c-1.1,0-2,0.9-2,2v1.7c0.3,0.3,0.7,0.5,1,0.8V88.5z"/>
		<path id="XMLID_507_" class="st1" d="M189.7,88.5c0-1.1,0.9-2,2-2h10.7c0.3,0,0.6,0.1,0.8,0.2c-0.3-0.7-1-1.2-1.8-1.2h-10.7
			c-1.1,0-2,0.9-2,2v10.7c0,0.1,0,0.1,0,0.2c0.3,0.1,0.7,0.1,1,0.2V88.5z"/>
		<path id="XMLID_501_" class="st1" d="M209.9,88.5c0-1.1,0.9-2,2-2h10.7c0.3,0,0.6,0.1,0.8,0.2c-0.3-0.7-1-1.2-1.8-1.2h-10.7
			c-1.1,0-2,0.9-2,2v9.8c0.3-0.1,0.7-0.2,1-0.3V88.5z"/>
		<path id="XMLID_500_" class="st2" d="M183.1,19.9c0,1.1-0.9,2-2,2h-10.7c-0.3,0-0.6-0.1-0.8-0.2c0.3,0.7,1,1.2,1.8,1.2h10.7
			c1.1,0,2-0.9,2-2V11c-0.3,0.1-0.7,0.2-1,0.3V19.9z"/>
		<path id="XMLID_499_" class="st2" d="M181.1,21.9c1.1,0,2-0.9,2-2v-8.5c-5,1.6-9.6,4-13.7,7v2.5c0,0.3,0.1,0.6,0.2,0.8
			c0.3,0.1,0.5,0.2,0.8,0.2H181.1z"/>
		<path id="XMLID_498_" class="st2" d="M203.3,19.9c0,1.1-0.9,2-2,2h-10.7c-0.3,0-0.6-0.1-0.8-0.2c0.3,0.7,1,1.2,1.8,1.2h10.7
			c1.1,0,2-0.9,2-2V10.2c0-0.1,0-0.1,0-0.2c-0.3-0.1-0.7-0.1-1-0.2V19.9z"/>
		<path id="XMLID_497_" class="st2" d="M201.3,21.9c1.1,0,2-0.9,2-2V9.8c-2.2-0.3-4.5-0.5-6.8-0.5c-2.3,0-4.6,0.2-6.8,0.5
			c0,0.1,0,0.2,0,0.4v10.7c0,0.3,0.1,0.6,0.2,0.8c0.3,0.1,0.5,0.2,0.8,0.2H201.3z"/>
		<path id="XMLID_495_" class="st2" d="M223.5,19.9c0,1.1-0.9,2-2,2h-10.7c-0.3,0-0.6-0.1-0.8-0.2c0.3,0.7,1,1.2,1.8,1.2h10.7
			c1.1,0,2-0.9,2-2v-1.7c-0.3-0.3-0.7-0.5-1-0.8V19.9z"/>
		<path id="XMLID_494_" class="st2" d="M221.5,21.9c1.1,0,2-0.9,2-2v-1.5c-4.1-3.1-8.7-5.5-13.7-7v9.5c0,0.3,0.1,0.6,0.2,0.8
			c0.3,0.1,0.5,0.2,0.8,0.2H221.5z"/>
		<path id="XMLID_493_" class="st2" d="M163.9,40.6V29.9c0-0.8-0.5-1.5-1.2-1.8c0.1,0.3,0.2,0.5,0.2,0.8v10.7c0,1.1-0.9,2-2,2h-7.5
			c-0.1,0.3-0.2,0.7-0.3,1h8.8C163,42.6,163.9,41.7,163.9,40.6z"/>
		<path id="XMLID_492_" class="st2" d="M160.1,27.9c-3,4.1-5.3,8.7-6.7,13.7h7.5c1.1,0,2-0.9,2-2V28.9c0-0.3-0.1-0.6-0.2-0.8
			c-0.3-0.1-0.5-0.2-0.8-0.2H160.1z"/>
		<path id="XMLID_491_" class="st2" d="M183,28.1c0.1,0.3,0.2,0.5,0.2,0.8v10.7c0,1.1-0.9,2-2,2h-10.7c-0.3,0-0.6-0.1-0.8-0.2
			c0.3,0.7,1,1.2,1.8,1.2h10.7c1.1,0,2-0.9,2-2V29.9C184.1,29.1,183.7,28.4,183,28.1z"/>
		<path id="XMLID_490_" class="st2" d="M181.1,41.6c1.1,0,2-0.9,2-2V28.9c0-0.3-0.1-0.6-0.2-0.8c-0.3-0.1-0.5-0.2-0.8-0.2h-10.7
			c-1.1,0-2,0.9-2,2v10.7c0,0.3,0.1,0.6,0.2,0.8c0.3,0.1,0.5,0.2,0.8,0.2H181.1z"/>
		<path id="XMLID_489_" class="st2" d="M203.2,28.1c0.1,0.3,0.2,0.5,0.2,0.8v10.7c0,1.1-0.9,2-2,2h-10.7c-0.3,0-0.6-0.1-0.8-0.2
			c0.3,0.7,1,1.2,1.8,1.2h10.7c1.1,0,2-0.9,2-2V29.9C204.3,29.1,203.9,28.4,203.2,28.1z"/>
		<path id="XMLID_488_" class="st2" d="M201.3,41.6c1.1,0,2-0.9,2-2V28.9c0-0.3-0.1-0.6-0.2-0.8c-0.3-0.1-0.5-0.2-0.8-0.2h-10.7
			c-1.1,0-2,0.9-2,2v10.7c0,0.3,0.1,0.6,0.2,0.8c0.3,0.1,0.5,0.2,0.8,0.2H201.3z"/>
		<path id="XMLID_487_" class="st2" d="M223.4,28.1c0.1,0.3,0.2,0.5,0.2,0.8v10.7c0,1.1-0.9,2-2,2h-10.7c-0.3,0-0.6-0.1-0.8-0.2
			c0.3,0.7,1,1.2,1.8,1.2h10.7c1.1,0,2-0.9,2-2V29.9C224.5,29.1,224,28.4,223.4,28.1z"/>
		<path id="XMLID_486_" class="st2" d="M221.5,41.6c1.1,0,2-0.9,2-2V28.9c0-0.3-0.1-0.6-0.2-0.8c-0.3-0.1-0.5-0.2-0.8-0.2h-10.7
			c-1.1,0-2,0.9-2,2v10.7c0,0.3,0.1,0.6,0.2,0.8c0.3,0.1,0.5,0.2,0.8,0.2H221.5z"/>
		<path id="XMLID_485_" class="st2" d="M231.1,41.6c-0.3,0-0.6-0.1-0.8-0.2c0.3,0.7,1,1.2,1.8,1.2h7.8c-0.1-0.3-0.2-0.7-0.3-1H231.1
			z"/>
		<path id="XMLID_484_" class="st2" d="M239.6,41.6c-1.5-5-3.7-9.6-6.7-13.7h-0.8c-1.1,0-2,0.9-2,2v10.7c0,0.3,0.1,0.6,0.2,0.8
			c0.3,0.1,0.5,0.2,0.8,0.2H239.6z"/>
		<path id="XMLID_483_" class="st2" d="M163.9,60.1V49.4c0-0.8-0.5-1.5-1.2-1.8c0.1,0.3,0.2,0.5,0.2,0.8v10.7c0,1.1-0.9,2-2,2h-8.8
			c0.1,0.3,0.1,0.7,0.2,1h9.6C163,62.1,163.9,61.2,163.9,60.1z"/>
		<path id="XMLID_482_" class="st2" d="M152.1,47.4c-0.3,2.2-0.5,4.5-0.5,6.8c0,2.4,0.2,4.7,0.5,6.9h8.8c1.1,0,2-0.9,2-2V48.4
			c0-0.3-0.1-0.6-0.2-0.8c-0.3-0.1-0.5-0.2-0.8-0.2H152.1z"/>
		<path id="XMLID_481_" class="st2" d="M183,47.6c0.1,0.3,0.2,0.5,0.2,0.8v10.7c0,1.1-0.9,2-2,2h-10.7c-0.3,0-0.6-0.1-0.8-0.2
			c0.3,0.7,1,1.2,1.8,1.2h10.7c1.1,0,2-0.9,2-2V49.4C184.1,48.6,183.7,47.9,183,47.6z"/>
		<path id="XMLID_480_" class="st2" d="M181.1,61.1c1.1,0,2-0.9,2-2V48.4c0-0.3-0.1-0.6-0.2-0.8c-0.3-0.1-0.5-0.2-0.8-0.2h-10.7
			c-1.1,0-2,0.9-2,2v10.7c0,0.3,0.1,0.6,0.2,0.8c0.3,0.1,0.5,0.2,0.8,0.2H181.1z"/>
		<path id="XMLID_479_" class="st2" d="M203.2,47.6c0.1,0.3,0.2,0.5,0.2,0.8v10.7c0,1.1-0.9,2-2,2h-10.7c-0.3,0-0.6-0.1-0.8-0.2
			c0.3,0.7,1,1.2,1.8,1.2h10.7c1.1,0,2-0.9,2-2V49.4C204.3,48.6,203.9,47.9,203.2,47.6z"/>
		<path id="XMLID_478_" class="st2" d="M201.3,61.1c1.1,0,2-0.9,2-2V48.4c0-0.3-0.1-0.6-0.2-0.8c-0.3-0.1-0.5-0.2-0.8-0.2h-10.7
			c-1.1,0-2,0.9-2,2v10.7c0,0.3,0.1,0.6,0.2,0.8c0.3,0.1,0.5,0.2,0.8,0.2H201.3z"/>
		<path id="XMLID_477_" class="st2" d="M223.4,47.6c0.1,0.3,0.2,0.5,0.2,0.8v10.7c0,1.1-0.9,2-2,2h-10.7c-0.3,0-0.6-0.1-0.8-0.2
			c0.3,0.7,1,1.2,1.8,1.2h10.7c1.1,0,2-0.9,2-2V49.4C224.5,48.6,224,47.9,223.4,47.6z"/>
		<path id="XMLID_476_" class="st2" d="M221.5,61.1c1.1,0,2-0.9,2-2V48.4c0-0.3-0.1-0.6-0.2-0.8c-0.3-0.1-0.5-0.2-0.8-0.2h-10.7
			c-1.1,0-2,0.9-2,2v10.7c0,0.3,0.1,0.6,0.2,0.8c0.3,0.1,0.5,0.2,0.8,0.2H221.5z"/>
		<path id="XMLID_475_" class="st2" d="M231.1,61.1c-0.3,0-0.6-0.1-0.8-0.2c0.3,0.7,1,1.2,1.8,1.2h8.6c0.1-0.3,0.1-0.7,0.2-1H231.1z
			"/>
		<path id="XMLID_474_" class="st2" d="M240.8,61.1c0.3-2.3,0.5-4.6,0.5-6.9c0-2.3-0.2-4.6-0.5-6.8h-8.8c-1.1,0-2,0.9-2,2v10.7
			c0,0.3,0.1,0.6,0.2,0.8c0.3,0.1,0.5,0.2,0.8,0.2H240.8z"/>
		<path id="XMLID_473_" class="st2" d="M163.9,79.7V69c0-0.8-0.5-1.5-1.2-1.8c0.1,0.3,0.2,0.5,0.2,0.8v10.7c0,1.1-0.9,2-2,2h-0.7
			c0.2,0.3,0.5,0.7,0.8,1h0.9C163,81.7,163.9,80.8,163.9,79.7z"/>
		<path id="XMLID_472_" class="st2" d="M153.5,67c1.5,5,3.8,9.6,6.8,13.7h0.7c1.1,0,2-0.9,2-2V68c0-0.3-0.1-0.6-0.2-0.8
			c-0.3-0.1-0.5-0.2-0.8-0.2H153.5z"/>
		<path id="XMLID_471_" class="st2" d="M183,67.2c0.1,0.3,0.2,0.5,0.2,0.8v10.7c0,1.1-0.9,2-2,2h-10.7c-0.3,0-0.6-0.1-0.8-0.2
			c0.3,0.7,1,1.2,1.8,1.2h10.7c1.1,0,2-0.9,2-2V69C184.1,68.2,183.7,67.5,183,67.2z"/>
		<path id="XMLID_470_" class="st2" d="M181.1,80.7c1.1,0,2-0.9,2-2V68c0-0.3-0.1-0.6-0.2-0.8c-0.3-0.1-0.5-0.2-0.8-0.2h-10.7
			c-1.1,0-2,0.9-2,2v10.7c0,0.3,0.1,0.6,0.2,0.8c0.3,0.1,0.5,0.2,0.8,0.2H181.1z"/>
		<path id="XMLID_469_" class="st2" d="M203.2,67.2c0.1,0.3,0.2,0.5,0.2,0.8v10.7c0,1.1-0.9,2-2,2h-10.7c-0.3,0-0.6-0.1-0.8-0.2
			c0.3,0.7,1,1.2,1.8,1.2h10.7c1.1,0,2-0.9,2-2V69C204.3,68.2,203.9,67.5,203.2,67.2z"/>
		<path id="XMLID_468_" class="st2" d="M201.3,80.7c1.1,0,2-0.9,2-2V68c0-0.3-0.1-0.6-0.2-0.8c-0.3-0.1-0.5-0.2-0.8-0.2h-10.7
			c-1.1,0-2,0.9-2,2v10.7c0,0.3,0.1,0.6,0.2,0.8c0.3,0.1,0.5,0.2,0.8,0.2H201.3z"/>
		<path id="XMLID_467_" class="st2" d="M223.4,67.2c0.1,0.3,0.2,0.5,0.2,0.8v10.7c0,1.1-0.9,2-2,2h-10.7c-0.3,0-0.6-0.1-0.8-0.2
			c0.3,0.7,1,1.2,1.8,1.2h10.7c1.1,0,2-0.9,2-2V69C224.5,68.2,224,67.5,223.4,67.2z"/>
		<path id="XMLID_466_" class="st2" d="M221.5,80.7c1.1,0,2-0.9,2-2V68c0-0.3-0.1-0.6-0.2-0.8c-0.3-0.1-0.5-0.2-0.8-0.2h-10.7
			c-1.1,0-2,0.9-2,2v10.7c0,0.3,0.1,0.6,0.2,0.8c0.3,0.1,0.5,0.2,0.8,0.2H221.5z"/>
		<path id="XMLID_465_" class="st2" d="M231.1,80.7c-0.3,0-0.6-0.1-0.8-0.2c0.3,0.7,1,1.2,1.8,1.2c0.3-0.3,0.5-0.7,0.8-1H231.1z"/>
		<path id="XMLID_464_" class="st2" d="M232.7,80.7c3-4.1,5.3-8.7,6.8-13.7h-7.5c-1.1,0-2,0.9-2,2v10.7c0,0.3,0.1,0.6,0.2,0.8
			c0.3,0.1,0.5,0.2,0.8,0.2H232.7z"/>
		<path id="XMLID_462_" class="st2" d="M183,86.7c0.1,0.3,0.2,0.5,0.2,0.8v9.5c0.3,0.1,0.7,0.2,1,0.3v-8.8
			C184.1,87.7,183.7,87,183,86.7z"/>
		<path id="XMLID_104_" class="st2" d="M171.5,86.5c-1.1,0-2,0.9-2,2V90c4.1,3.1,8.7,5.5,13.7,7v-9.5c0-0.3-0.1-0.6-0.2-0.8
			c-0.3-0.1-0.5-0.2-0.8-0.2H171.5z"/>
		<path id="XMLID_103_" class="st2" d="M203.2,86.7c0.1,0.3,0.2,0.5,0.2,0.8v10.7c0,0.1,0,0.3,0,0.4c0.3-0.1,0.7-0.1,1-0.2v-9.9
			C204.3,87.7,203.9,87,203.2,86.7z"/>
		<path id="XMLID_101_" class="st2" d="M191.7,86.5c-1.1,0-2,0.9-2,2v10.1c2.2,0.3,4.5,0.5,6.8,0.5c2.3,0,4.6-0.2,6.8-0.5
			c0-0.1,0-0.2,0-0.4V87.5c0-0.3-0.1-0.6-0.2-0.8c-0.3-0.1-0.5-0.2-0.8-0.2H191.7z"/>
		<path id="XMLID_100_" class="st2" d="M223.4,86.7c0.1,0.3,0.2,0.5,0.2,0.8V90c0.3-0.3,0.7-0.5,1-0.8v-0.7
			C224.5,87.7,224,87,223.4,86.7z"/>
		<path id="XMLID_99_" class="st2" d="M211.9,86.5c-1.1,0-2,0.9-2,2v8.5c5-1.6,9.6-4,13.7-7v-2.5c0-0.3-0.1-0.6-0.2-0.8
			c-0.3-0.1-0.5-0.2-0.8-0.2H211.9z"/>
	</g>
</g>
</svg>
