<?xml version="1.0" encoding="utf-8"?>
<!-- Generator: Adobe Illustrator 19.0.0, SVG Export Plug-In . SVG Version: 6.00 Build 0)  -->
<svg version="1.1" id="图层_1" xmlns="http://www.w3.org/2000/svg" xmlns:xlink="http://www.w3.org/1999/xlink" x="0px" y="0px"
	 width="50.8px" height="50.8px" viewBox="0 0 50.8 50.8" enable-background="new 0 0 50.8 50.8" xml:space="preserve">
<g id="XMLID_92_">
	<circle id="XMLID_159_" fill="#424242" cx="25.4" cy="25.4" r="25.4"/>
	
		<linearGradient id="XMLID_161_" gradientUnits="userSpaceOnUse" x1="25.4" y1="546.52" x2="25.4" y2="596.0504" gradientTransform="matrix(1 0 0 -1 0 596.72)">
		<stop  offset="0" style="stop-color:#CCCCCC"/>
		<stop  offset="0.0623" style="stop-color:#C6C6C6"/>
		<stop  offset="0.1438" style="stop-color:#B6B6B6"/>
		<stop  offset="0.236" style="stop-color:#9B9B9B"/>
		<stop  offset="0.336" style="stop-color:#757575"/>
		<stop  offset="0.4413" style="stop-color:#454545"/>
		<stop  offset="0.4771" style="stop-color:#333333"/>
		<stop  offset="0.5163" style="stop-color:#454545"/>
		<stop  offset="0.6317" style="stop-color:#757575"/>
		<stop  offset="0.7414" style="stop-color:#9B9B9B"/>
		<stop  offset="0.8424" style="stop-color:#B6B6B6"/>
		<stop  offset="0.9317" style="stop-color:#C6C6C6"/>
		<stop  offset="1" style="stop-color:#CCCCCC"/>
	</linearGradient>
	<circle id="XMLID_158_" fill="url(#XMLID_161_)" cx="25.4" cy="25.4" r="24.8"/>
	<circle id="XMLID_220_" fill="#666666" cx="25.4" cy="25.4" r="22.3"/>
	
		<linearGradient id="XMLID_162_" gradientUnits="userSpaceOnUse" x1="3.8434" y1="571.3199" x2="47.0434" y2="571.3199" gradientTransform="matrix(1 0 0 -1 0 596.72)">
		<stop  offset="0" style="stop-color:#2F9ACE"/>
		<stop  offset="1" style="stop-color:#2064A7"/>
	</linearGradient>
	<circle id="XMLID_218_" fill="url(#XMLID_162_)" cx="25.4" cy="25.4" r="21.6"/>
	
		<linearGradient id="XMLID_163_" gradientUnits="userSpaceOnUse" x1="25.4" y1="589.3766" x2="25.4" y2="553.1766" gradientTransform="matrix(1 0 0 -1 0 596.72)">
		<stop  offset="0" style="stop-color:#D9D9D9"/>
		<stop  offset="0.394" style="stop-color:#D7D7D7"/>
		<stop  offset="0.6019" style="stop-color:#CFCFCF"/>
		<stop  offset="0.7662" style="stop-color:#C1C1C1"/>
		<stop  offset="0.907" style="stop-color:#AEAEAE"/>
		<stop  offset="1" style="stop-color:#9D9D9D"/>
	</linearGradient>
	<circle id="XMLID_212_" fill="url(#XMLID_163_)" cx="25.4" cy="25.4" r="18.1"/>
	<g id="XMLID_206_">
		
			<linearGradient id="XMLID_186_" gradientUnits="userSpaceOnUse" x1="16.0906" y1="569.37" x2="34.6768" y2="569.37" gradientTransform="matrix(1 0 0 -1 0 596.72)">
			<stop  offset="0" style="stop-color:#2F9ACE"/>
			<stop  offset="1" style="stop-color:#2064A7"/>
		</linearGradient>
		<path id="XMLID_210_" fill="url(#XMLID_186_)" d="M28.2,18v2.2c2.7,1.1,4.7,3.8,4.7,6.9c0,4.1-3.3,7.5-7.5,7.5S18,31.3,18,27.1
			c0-3.1,1.9-5.8,4.7-6.9V18c-3.9,1.2-6.8,4.8-6.8,9.1c0,5.3,4.3,9.6,9.6,9.6s9.6-4.3,9.6-9.6C35,22.8,32.1,19.2,28.2,18z"/>
		
			<linearGradient id="XMLID_188_" gradientUnits="userSpaceOnUse" x1="16.0906" y1="578.12" x2="34.6768" y2="578.12" gradientTransform="matrix(1 0 0 -1 0 596.72)">
			<stop  offset="0" style="stop-color:#2F9ACE"/>
			<stop  offset="1" style="stop-color:#2064A7"/>
		</linearGradient>
		<rect id="XMLID_208_" x="23.9" y="14.2" fill="url(#XMLID_188_)" width="3.1" height="8.8"/>
	</g>
</g>
</svg>
