<?xml version="1.0" encoding="utf-8"?>
<!-- Generator: Adobe Illustrator 19.0.0, SVG Export Plug-In . SVG Version: 6.00 Build 0)  -->
<svg version="1.1" id="图层_1" xmlns="http://www.w3.org/2000/svg" xmlns:xlink="http://www.w3.org/1999/xlink" x="0px" y="0px"
	 width="50.8px" height="50.8px" viewBox="0 0 50.8 50.8" enable-background="new 0 0 50.8 50.8" xml:space="preserve">
<g id="XMLID_92_">
	<circle id="XMLID_163_" fill="#424242" cx="25.4" cy="25.4" r="25.4"/>
	
		<linearGradient id="XMLID_196_" gradientUnits="userSpaceOnUse" x1="25.4" y1="546.52" x2="25.4" y2="596.0504" gradientTransform="matrix(1 0 0 -1 0 596.72)">
		<stop  offset="0" style="stop-color:#CCCCCC"/>
		<stop  offset="0.0623" style="stop-color:#C6C6C6"/>
		<stop  offset="0.1438" style="stop-color:#B6B6B6"/>
		<stop  offset="0.236" style="stop-color:#9B9B9B"/>
		<stop  offset="0.336" style="stop-color:#757575"/>
		<stop  offset="0.4413" style="stop-color:#454545"/>
		<stop  offset="0.4771" style="stop-color:#333333"/>
		<stop  offset="0.5163" style="stop-color:#454545"/>
		<stop  offset="0.6317" style="stop-color:#757575"/>
		<stop  offset="0.7414" style="stop-color:#9B9B9B"/>
		<stop  offset="0.8424" style="stop-color:#B6B6B6"/>
		<stop  offset="0.9317" style="stop-color:#C6C6C6"/>
		<stop  offset="1" style="stop-color:#CCCCCC"/>
	</linearGradient>
	<circle id="XMLID_162_" fill="url(#XMLID_196_)" cx="25.4" cy="25.4" r="24.8"/>
	<circle id="XMLID_161_" fill="#666666" cx="25.4" cy="25.4" r="22.3"/>
	
		<linearGradient id="XMLID_197_" gradientUnits="userSpaceOnUse" x1="3.8434" y1="571.3199" x2="47.0434" y2="571.3199" gradientTransform="matrix(1 0 0 -1 0 596.72)">
		<stop  offset="0" style="stop-color:#2F9ACE"/>
		<stop  offset="1" style="stop-color:#2064A7"/>
	</linearGradient>
	<circle id="XMLID_160_" fill="url(#XMLID_197_)" cx="25.4" cy="25.4" r="21.6"/>
	
		<linearGradient id="XMLID_198_" gradientUnits="userSpaceOnUse" x1="25.4" y1="589.3766" x2="25.4" y2="553.1766" gradientTransform="matrix(1 0 0 -1 0 596.72)">
		<stop  offset="0" style="stop-color:#D9D9D9"/>
		<stop  offset="0.394" style="stop-color:#D7D7D7"/>
		<stop  offset="0.6019" style="stop-color:#CFCFCF"/>
		<stop  offset="0.7662" style="stop-color:#C1C1C1"/>
		<stop  offset="0.907" style="stop-color:#AEAEAE"/>
		<stop  offset="1" style="stop-color:#9D9D9D"/>
	</linearGradient>
	<circle id="XMLID_194_" fill="url(#XMLID_198_)" cx="25.4" cy="25.4" r="18.1"/>
	<g id="XMLID_186_">
		<g id="XMLID_188_">
			
				<linearGradient id="XMLID_199_" gradientUnits="userSpaceOnUse" x1="9.6698" y1="571.22" x2="38.986" y2="571.22" gradientTransform="matrix(1 0 0 -1 0 596.72)">
				<stop  offset="0" style="stop-color:#2F9ACE"/>
				<stop  offset="1" style="stop-color:#2064A7"/>
			</linearGradient>
			<path id="XMLID_192_" fill="url(#XMLID_199_)" d="M31.2,27.4v-6.7h-3.3V24l-4.5,3.5l-0.8-0.7l4.4-3.5l-1.6-1.4l-4.6,3.6l-1-0.7
				l4.6-3.6l-1.8-1.4l-5,3.9c-1.2-2.7-3.9-2.9-3.9-2.9H9v9.5l4.7-0.1c2.7,0,3.9-3,3.9-3l5.1,4l5.5-4.4V30h6.3v-2.5h-3.3V27.4z
				 M12.1,27.5v-4.1c0,0,2.7-0.6,2.7,2.1S12.1,27.5,12.1,27.5z"/>
			
				<linearGradient id="XMLID_200_" gradientUnits="userSpaceOnUse" x1="9.6698" y1="571.37" x2="38.986" y2="571.37" gradientTransform="matrix(1 0 0 -1 0 596.72)">
				<stop  offset="0" style="stop-color:#2F9ACE"/>
				<stop  offset="1" style="stop-color:#2064A7"/>
			</linearGradient>
			<polygon id="XMLID_190_" fill="url(#XMLID_200_)" points="35.4,20.7 38.7,20.7 38.7,27.3 41.9,27.3 41.9,30 35.4,30 			"/>
		</g>
	</g>
</g>
</svg>
