<?xml version="1.0" encoding="utf-8"?>
<!-- Generator: Adobe Illustrator 19.0.0, SVG Export Plug-In . SVG Version: 6.00 Build 0)  -->
<svg version="1.1" id="图层_1" xmlns="http://www.w3.org/2000/svg" xmlns:xlink="http://www.w3.org/1999/xlink" x="0px" y="0px"
	 width="47.94px" height="17.87px" viewBox="0 0 47.94 17.87" enable-background="new 0 0 47.94 17.87" xml:space="preserve">
<g id="XMLID_1243_">
	<path id="XMLID_1023_" fill="#0E1012" stroke="#B9B9B9" stroke-width="0.75" stroke-miterlimit="10" d="M46.397,17.496H6.049
		c-0.309,0-0.606-0.121-0.825-0.337l-4.507-4.444c-0.219-0.216-0.342-0.508-0.342-0.813V1.525c0-0.635,0.522-1.15,1.167-1.15h44.856
		c0.644,0,1.167,0.515,1.167,1.15v14.82C47.564,16.981,47.042,17.496,46.397,17.496z"/>
	<g id="XMLID_1024_">
		<path id="XMLID_1245_" fill="#414244" d="M6.973,16.236c-0.561,0-1.088-0.216-1.486-0.608l-3.201-3.156
			c-0.395-0.389-0.622-0.929-0.622-1.481V3.725c0-1.152,0.946-2.09,2.108-2.09h40.394c1.163,0,2.108,0.938,2.108,2.09v10.421
			c0,1.152-0.946,2.091-2.108,2.091H6.973z"/>
		<path id="XMLID_1244_" fill="none" stroke="#B9B9B9" stroke-width="0.5" stroke-miterlimit="10" d="M6.973,16.236
			c-0.561,0-1.088-0.216-1.486-0.608l-3.201-3.156c-0.395-0.389-0.622-0.929-0.622-1.481V3.725c0-1.152,0.946-2.09,2.108-2.09
			h40.394c1.163,0,2.108,0.938,2.108,2.09v10.421c0,1.152-0.946,2.091-2.108,2.091H6.973z"/>
	</g>
	<polygon id="XMLID_1025_" points="42.562,12.285 40.296,12.285 40.296,10.052 12.551,10.052 12.551,12.285 10.285,12.285 
		10.285,8.005 42.562,8.005 	"/>
	<rect id="XMLID_1026_" x="11.04" y="6.935" width="0.897" height="1.07"/>
	<rect id="XMLID_1028_" x="13.116" y="6.935" width="0.897" height="1.07"/>
	<rect id="XMLID_1180_" x="15.192" y="6.935" width="0.897" height="1.07"/>
	<rect id="XMLID_1223_" x="18.165" y="6.935" width="0.897" height="1.07"/>
	<rect id="XMLID_1226_" x="20.879" y="6.935" width="0.897" height="1.07"/>
	<rect id="XMLID_1227_" x="23.592" y="6.935" width="0.897" height="1.07"/>
	<rect id="XMLID_1233_" x="26.305" y="6.935" width="0.897" height="1.07"/>
	<rect id="XMLID_1234_" x="29.019" y="6.935" width="0.897" height="1.07"/>
	<rect id="XMLID_1235_" x="31.732" y="6.935" width="0.897" height="1.07"/>
	<rect id="XMLID_1236_" x="34.445" y="6.935" width="0.897" height="1.07"/>
	<rect id="XMLID_1237_" x="37.159" y="6.935" width="0.897" height="1.07"/>
	<rect id="XMLID_1238_" x="39.872" y="6.935" width="0.897" height="1.07"/>
	<polygon id="XMLID_1027_" fill="#B9B9B9" points="40.723,11.863 40.723,9.63 12.123,9.63 12.123,11.863 10.713,11.863 
		10.713,8.427 42.134,8.427 42.134,11.863 	"/>
	<rect id="XMLID_1239_" x="7.685" y="0.375" fill="#B9B9B9" width="36.481" height="1.26"/>
	<rect id="XMLID_1240_" x="0.375" y="5.375" fill="#B9B9B9" width="1.29" height="3.052"/>
	<rect id="XMLID_1241_" x="6.973" y="16.236" fill="#B9B9B9" width="37.193" height="1.259"/>
	<rect id="XMLID_1242_" x="46.494" y="3.725" fill="#B9B9B9" width="1.07" height="10.65"/>
</g>
</svg>
