<?xml version="1.0" encoding="utf-8"?>
<!-- Generator: Adobe Illustrator 19.0.0, SVG Export Plug-In . SVG Version: 6.00 Build 0)  -->
<svg version="1.1" id="图层_1" xmlns="http://www.w3.org/2000/svg" xmlns:xlink="http://www.w3.org/1999/xlink" x="0px" y="0px"
	 width="99.403px" height="22.11px" viewBox="0 0 99.403 22.11" enable-background="new 0 0 99.403 22.11" xml:space="preserve">
<g id="XMLID_646_">
	<path id="XMLID_1246_" fill="#414244" stroke="#B9B9B9" stroke-miterlimit="10" d="M21.902,0.5h55.597
		c3.307,0,5.924,2.488,5.704,5.423l-0.821,10.942c-0.2,2.671-2.695,4.746-5.704,4.746H22.723c-3.01,0-5.504-2.075-5.704-4.746
		L16.198,5.923C15.978,2.988,18.595,0.5,21.902,0.5z"/>
	<g id="XMLID_1276_">
		<g id="XMLID_1249_">
			<rect id="XMLID_1248_" x="21.204" y="3.605" width="3.956" height="3.921"/>
			<rect id="XMLID_1250_" x="26.445" y="3.605" width="3.956" height="3.921"/>
			<rect id="XMLID_1251_" x="31.687" y="3.605" width="3.956" height="3.921"/>
			<rect id="XMLID_1252_" x="36.929" y="3.605" width="3.956" height="3.921"/>
			<rect id="XMLID_1253_" x="42.17" y="3.605" width="3.956" height="3.921"/>
			<rect id="XMLID_1254_" x="47.412" y="3.605" width="3.956" height="3.921"/>
			<rect id="XMLID_1255_" x="52.654" y="3.605" width="3.956" height="3.921"/>
			<rect id="XMLID_1256_" x="57.896" y="3.605" width="3.956" height="3.921"/>
		</g>
		<g id="XMLID_1258_">
			<rect id="XMLID_1266_" x="21.204" y="9.095" width="3.956" height="3.921"/>
			<rect id="XMLID_1265_" x="26.445" y="9.095" width="3.956" height="3.921"/>
			<rect id="XMLID_1264_" x="31.687" y="9.095" width="3.956" height="3.921"/>
			<rect id="XMLID_1263_" x="36.929" y="9.095" width="3.956" height="3.921"/>
			<rect id="XMLID_1262_" x="42.17" y="9.095" width="3.956" height="3.921"/>
			<rect id="XMLID_1261_" x="47.412" y="9.095" width="3.956" height="3.921"/>
			<rect id="XMLID_1260_" x="52.654" y="9.095" width="3.956" height="3.921"/>
			<rect id="XMLID_1259_" x="57.896" y="9.095" width="3.956" height="3.921"/>
		</g>
		<g id="XMLID_1267_">
			<rect id="XMLID_1275_" x="21.204" y="14.584" width="3.956" height="3.921"/>
			<rect id="XMLID_1274_" x="26.445" y="14.584" width="3.956" height="3.921"/>
			<rect id="XMLID_1273_" x="31.687" y="14.584" width="3.956" height="3.921"/>
			<rect id="XMLID_1272_" x="36.929" y="14.584" width="3.956" height="3.921"/>
			<rect id="XMLID_1271_" x="42.17" y="14.584" width="3.956" height="3.921"/>
			<rect id="XMLID_1270_" x="47.412" y="14.584" width="3.956" height="3.921"/>
			<rect id="XMLID_1269_" x="52.654" y="14.584" width="3.956" height="3.921"/>
			<rect id="XMLID_1268_" x="57.896" y="14.584" width="3.956" height="3.921"/>
		</g>
	</g>
	<rect id="XMLID_1257_" x="68.082" y="10.075" width="7.516" height="1.47"/>
</g>
<g id="XMLID_625_">
	<g id="XMLID_626_">
		<g id="XMLID_629_">
			<path id="XMLID_554_" fill="#BDBDBD" d="M92.309,15.675c-0.473,0-0.914-0.254-1.151-0.664l-1.796-3.112
				c-0.237-0.41-0.237-0.919,0-1.329l1.796-3.112c0.237-0.41,0.678-0.664,1.151-0.664h3.593c0.473,0,0.914,0.254,1.15,0.664
				l1.797,3.112c0.237,0.409,0.237,0.918,0,1.329l-1.797,3.112c-0.237,0.41-0.677,0.664-1.15,0.664H92.309z"/>
			<path id="XMLID_551_" fill="#8F8F8F" d="M95.902,7.169c0.341,0,0.656,0.182,0.826,0.477l1.797,3.112
				c0.17,0.295,0.17,0.659,0,0.954l-1.797,3.112c-0.17,0.295-0.485,0.477-0.826,0.477h-3.593c-0.341,0-0.656-0.182-0.826-0.477
				l-1.797-3.112c-0.17-0.295-0.17-0.659,0-0.954l1.797-3.112c0.17-0.295,0.485-0.477,0.826-0.477H95.902 M95.902,6.419h-3.593
				c-0.607,0-1.172,0.326-1.475,0.852l-1.797,3.112c-0.303,0.525-0.303,1.178,0,1.704l1.797,3.112
				c0.303,0.525,0.869,0.852,1.475,0.852h3.593c0.607,0,1.172-0.326,1.475-0.852l1.797-3.112c0.303-0.525,0.303-1.178,0-1.704
				l-1.797-3.112C97.074,6.746,96.508,6.419,95.902,6.419L95.902,6.419z"/>
		</g>
		
			<ellipse id="XMLID_628_" fill="#CECECE" stroke="#8F8F8F" stroke-width="0.25" stroke-miterlimit="10" cx="94.105" cy="11.263" rx="3.609" ry="3.62"/>
		
			<ellipse id="XMLID_627_" fill="#414244" stroke="#000000" stroke-width="0.25" stroke-miterlimit="10" cx="94.105" cy="11.263" rx="2.23" ry="2.236"/>
		<circle id="XMLID_630_" fill="#8F8F8F" cx="94.105" cy="11.263" r="0.693"/>
	</g>
	<g id="XMLID_631_">
		<g id="XMLID_635_">
			<path id="XMLID_550_" fill="#BDBDBD" d="M3.5,15.675c-0.473,0-0.914-0.254-1.15-0.664l-1.797-3.112
				c-0.237-0.41-0.237-0.919,0-1.329l1.797-3.112c0.237-0.41,0.677-0.664,1.15-0.664h3.593c0.473,0,0.914,0.254,1.151,0.664
				l1.796,3.112c0.237,0.409,0.237,0.918,0,1.329l-1.796,3.112c-0.237,0.41-0.678,0.664-1.151,0.664H3.5z"/>
			<path id="XMLID_547_" fill="#8F8F8F" d="M7.093,7.169c0.341,0,0.656,0.182,0.826,0.477l1.797,3.112
				c0.17,0.295,0.17,0.659,0,0.954l-1.797,3.112C7.748,15.119,7.434,15.3,7.093,15.3H3.5c-0.341,0-0.656-0.182-0.826-0.477
				l-1.797-3.112c-0.17-0.295-0.17-0.659,0-0.954l1.797-3.112C2.844,7.351,3.159,7.169,3.5,7.169H7.093 M7.093,6.419H3.5
				c-0.607,0-1.172,0.326-1.475,0.852l-1.797,3.112c-0.303,0.525-0.303,1.178,0,1.704l1.797,3.112
				C2.328,15.724,2.893,16.05,3.5,16.05h3.593c0.607,0,1.172-0.326,1.475-0.852l1.797-3.112c0.303-0.525,0.303-1.178,0-1.704
				L8.568,7.271C8.265,6.746,7.7,6.419,7.093,6.419L7.093,6.419z"/>
		</g>
		
			<ellipse id="XMLID_634_" fill="#CECECE" stroke="#8F8F8F" stroke-width="0.25" stroke-miterlimit="10" cx="5.296" cy="11.263" rx="3.609" ry="3.62"/>
		
			<ellipse id="XMLID_633_" fill="#414244" stroke="#000000" stroke-width="0.25" stroke-miterlimit="10" cx="5.296" cy="11.263" rx="2.23" ry="2.236"/>
		<circle id="XMLID_632_" fill="#8F8F8F" cx="5.296" cy="11.263" r="0.693"/>
	</g>
</g>
</svg>
