<?xml version="1.0" encoding="utf-8"?>
<!-- Generator: Adobe Illustrator 19.0.0, SVG Export Plug-In . SVG Version: 6.00 Build 0)  -->
<svg version="1.1" id="图层_1" xmlns="http://www.w3.org/2000/svg" xmlns:xlink="http://www.w3.org/1999/xlink" x="0px" y="0px"
	 width="99.403px" height="22.11px" viewBox="0 0 99.403 22.11" enable-background="new 0 0 99.403 22.11" xml:space="preserve">
<g id="XMLID_1279_">
	<path id="XMLID_1277_" fill="#CBCBCB" stroke="#B9B9B9" stroke-miterlimit="10" d="M78.573,21.61H20.828
		c-2.261,0-4.118-1.787-4.204-4.047L16.141,4.867C16.05,2.483,17.958,0.5,20.345,0.5h58.712c2.386,0,4.295,1.983,4.204,4.367
		l-0.483,12.696C82.692,19.823,80.835,21.61,78.573,21.61z"/>
	<g id="XMLID_1316_">
		<g id="XMLID_1344_">
			<rect id="XMLID_1352_" x="20.19" y="3.727" width="4.417" height="4.377"/>
			<rect id="XMLID_1351_" x="25.744" y="3.727" width="4.417" height="4.377"/>
			<rect id="XMLID_1350_" x="31.298" y="3.727" width="4.417" height="4.377"/>
			<rect id="XMLID_1349_" x="36.853" y="3.727" width="4.417" height="4.377"/>
			<rect id="XMLID_1348_" x="42.407" y="3.727" width="4.417" height="4.377"/>
			<rect id="XMLID_1347_" x="47.961" y="3.727" width="4.417" height="4.377"/>
			<rect id="XMLID_1346_" x="53.515" y="3.727" width="4.417" height="4.377"/>
			<rect id="XMLID_1345_" x="59.069" y="3.727" width="4.417" height="4.377"/>
		</g>
		<g id="XMLID_1335_">
			<rect id="XMLID_1343_" x="20.19" y="9.099" width="4.417" height="4.377"/>
			<rect id="XMLID_1342_" x="25.744" y="9.099" width="4.417" height="4.377"/>
			<rect id="XMLID_1341_" x="31.298" y="9.099" width="4.417" height="4.377"/>
			<rect id="XMLID_1340_" x="36.853" y="9.099" width="4.417" height="4.377"/>
			<rect id="XMLID_1339_" x="42.407" y="9.099" width="4.417" height="4.377"/>
			<rect id="XMLID_1338_" x="47.961" y="9.099" width="4.417" height="4.377"/>
			<rect id="XMLID_1337_" x="53.515" y="9.099" width="4.417" height="4.377"/>
			<rect id="XMLID_1336_" x="59.069" y="9.099" width="4.417" height="4.377"/>
		</g>
		<g id="XMLID_1326_">
			<rect id="XMLID_1334_" x="20.19" y="14.47" width="4.417" height="4.377"/>
			<rect id="XMLID_1333_" x="25.744" y="14.47" width="4.417" height="4.377"/>
			<rect id="XMLID_1332_" x="31.298" y="14.47" width="4.417" height="4.377"/>
			<rect id="XMLID_1331_" x="36.853" y="14.47" width="4.417" height="4.377"/>
			<rect id="XMLID_1330_" x="42.407" y="14.47" width="4.417" height="4.377"/>
			<rect id="XMLID_1329_" x="47.961" y="14.47" width="4.417" height="4.377"/>
			<rect id="XMLID_1328_" x="53.515" y="14.47" width="4.417" height="4.377"/>
			<rect id="XMLID_1327_" x="59.069" y="14.47" width="4.417" height="4.377"/>
		</g>
		<g id="XMLID_1323_">
			<rect id="XMLID_1325_" x="68.318" y="6.159" width="3.145" height="3.117"/>
			<rect id="XMLID_1324_" x="68.318" y="13.321" width="3.145" height="3.117"/>
		</g>
		<g id="XMLID_1320_">
			<rect id="XMLID_1322_" x="75.612" y="6.159" width="3.145" height="3.117"/>
			<rect id="XMLID_1321_" x="75.612" y="13.321" width="3.145" height="3.117"/>
		</g>
		<g id="XMLID_1317_">
			<rect id="XMLID_1319_" x="66.879" y="10.536" width="13.317" height="1.525"/>
			<rect id="XMLID_1318_" x="73.387" y="4.833" width="0.301" height="12.931"/>
		</g>
	</g>
</g>
<g id="XMLID_637_">
	<g id="XMLID_659_">
		<g id="XMLID_663_">
			<path id="XMLID_580_" fill="#BDBDBD" d="M92.309,15.739c-0.473,0-0.914-0.254-1.151-0.664l-1.796-3.112
				c-0.237-0.409-0.237-0.918,0-1.329l1.796-3.112c0.237-0.41,0.678-0.664,1.151-0.664h3.593c0.473,0,0.914,0.254,1.15,0.664
				l1.797,3.112c0.237,0.41,0.237,0.919,0,1.329l-1.797,3.112c-0.237,0.41-0.677,0.664-1.15,0.664H92.309z"/>
			<path id="XMLID_577_" fill="#8F8F8F" d="M95.902,7.233c0.341,0,0.656,0.182,0.826,0.477l1.797,3.112
				c0.17,0.295,0.17,0.659,0,0.954l-1.797,3.112c-0.17,0.295-0.485,0.477-0.826,0.477h-3.593c-0.341,0-0.656-0.182-0.826-0.477
				l-1.797-3.112c-0.17-0.295-0.17-0.659,0-0.954l1.797-3.112c0.17-0.295,0.485-0.477,0.826-0.477H95.902 M95.902,6.483h-3.593
				c-0.607,0-1.172,0.326-1.475,0.852l-1.797,3.112c-0.303,0.525-0.303,1.178,0,1.704l1.797,3.112
				c0.303,0.525,0.869,0.852,1.475,0.852h3.593c0.607,0,1.172-0.326,1.475-0.852l1.797-3.112c0.303-0.525,0.303-1.178,0-1.704
				l-1.797-3.112C97.074,6.809,96.508,6.483,95.902,6.483L95.902,6.483z"/>
		</g>
		
			<ellipse id="XMLID_662_" fill="#CECECE" stroke="#8F8F8F" stroke-width="0.25" stroke-miterlimit="10" cx="94.105" cy="11.327" rx="3.609" ry="3.62"/>
		
			<ellipse id="XMLID_661_" fill="#414244" stroke="#000000" stroke-width="0.25" stroke-miterlimit="10" cx="94.105" cy="11.327" rx="2.23" ry="2.236"/>
		<circle id="XMLID_660_" fill="#8F8F8F" cx="94.105" cy="11.327" r="0.693"/>
	</g>
	<g id="XMLID_638_">
		<g id="XMLID_642_">
			<path id="XMLID_576_" fill="#BDBDBD" d="M3.5,15.739c-0.473,0-0.914-0.254-1.15-0.664l-1.797-3.112
				c-0.237-0.409-0.237-0.918,0-1.329l1.797-3.112c0.237-0.41,0.677-0.664,1.15-0.664h3.593c0.473,0,0.914,0.254,1.151,0.664
				l1.796,3.112c0.237,0.41,0.237,0.919,0,1.329l-1.796,3.112c-0.237,0.41-0.678,0.664-1.151,0.664H3.5z"/>
			<path id="XMLID_573_" fill="#8F8F8F" d="M7.093,7.233c0.341,0,0.656,0.182,0.826,0.477l1.797,3.112
				c0.17,0.295,0.17,0.659,0,0.954l-1.797,3.112c-0.17,0.295-0.485,0.477-0.826,0.477H3.5c-0.341,0-0.656-0.182-0.826-0.477
				l-1.797-3.112c-0.17-0.295-0.17-0.659,0-0.954L2.674,7.71C2.844,7.414,3.159,7.233,3.5,7.233H7.093 M7.093,6.483H3.5
				c-0.607,0-1.172,0.326-1.475,0.852l-1.797,3.112c-0.303,0.525-0.303,1.178,0,1.704l1.797,3.112
				c0.303,0.525,0.869,0.852,1.475,0.852h3.593c0.607,0,1.172-0.326,1.475-0.852l1.797-3.112c0.303-0.525,0.303-1.178,0-1.704
				L8.568,7.335C8.265,6.809,7.7,6.483,7.093,6.483L7.093,6.483z"/>
		</g>
		
			<ellipse id="XMLID_641_" fill="#CECECE" stroke="#8F8F8F" stroke-width="0.25" stroke-miterlimit="10" cx="5.296" cy="11.327" rx="3.609" ry="3.62"/>
		
			<ellipse id="XMLID_640_" fill="#414244" stroke="#000000" stroke-width="0.25" stroke-miterlimit="10" cx="5.296" cy="11.327" rx="2.23" ry="2.236"/>
		<circle id="XMLID_639_" fill="#8F8F8F" cx="5.296" cy="11.327" r="0.693"/>
	</g>
</g>
</svg>
