<?xml version="1.0" encoding="utf-8"?>
<!-- Generator: Adobe Illustrator 16.0.0, SVG Export Plug-In . SVG Version: 6.00 Build 0)  -->
<!DOCTYPE svg PUBLIC "-//W3C//DTD SVG 1.1//EN" "http://www.w3.org/Graphics/SVG/1.1/DTD/svg11.dtd">
<svg version="1.1" id="图层_1" xmlns="http://www.w3.org/2000/svg" xmlns:xlink="http://www.w3.org/1999/xlink" x="0px" y="0px"
	 width="81.585px" height="57.121px" viewBox="0 0 81.585 57.121" enable-background="new 0 0 81.585 57.121" xml:space="preserve">
<g>
	<g>
		<rect x="0" fill="#151209" width="81.585" height="57.121"/>
	</g>
	<g>
		<rect x="4.905" y="3.436" fill="#34322C" width="71.776" height="50.252"/>
	</g>
	<rect x="27.641" y="47.568" fill="#898989" width="26.304" height="6.119"/>
	<path fill="#898989" d="M81.585,23.461V14.99h-3.121V1.652h-9.362V0h-9.139v1.652H45.362V0h-9.14v1.652H21.622V0h-9.139v1.652
		H3.121V14.99H0v8.471h3.121v11.213H0v8.471h3.121v12.326h75.343V43.145h3.121v-8.471h-3.121V23.461H81.585z M74.897,51.902H6.688
		V5.219h68.21V51.902z"/>
	<path fill="#151209" d="M55.835,55.578H25.75v-9.9h30.085V55.578z M29.532,51.795h22.521v-2.334H29.532V51.795z"/>
	<g>
		<g>
			<path fill="#231815" d="M68.778,29.781h0.507h0.507c0.395,0,0.717-0.316,0.717-0.713v-0.717c0-0.391-0.322-0.713-0.717-0.713
				h-0.507V19.4c0-0.393-0.319-0.717-0.716-0.717H58.093v-7.256c0-0.189-0.195-0.346-0.434-0.346h-5.623v-3.93
				c0-0.129-0.128-0.225-0.284-0.225H30.054c-0.155,0-0.276,0.096-0.276,0.225v3.93H24.15c-0.239,0-0.433,0.156-0.433,0.346v7.256
				H13.244c-0.396,0-0.719,0.324-0.719,0.717v8.238H12.02c-0.396,0-0.716,0.322-0.716,0.713v0.717c0,0.396,0.319,0.713,0.716,0.713
				h0.506h0.51h0.418v8.84h-0.418h-0.51H12.02c-0.396,0-0.716,0.316-0.716,0.713v0.717c0,0.398,0.319,0.717,0.716,0.717h0.506v8.713
				c0,0.396,0.322,0.713,0.719,0.713h55.325c0.396,0,0.716-0.316,0.716-0.713v-8.713h0.507c0.395,0,0.717-0.318,0.717-0.717v-0.717
				c0-0.396-0.322-0.713-0.717-0.713h-0.507h-0.507h-0.419v-8.84H68.778z"/>
			<g>
				<g>
					<rect x="22.859" y="31.039" fill="#9F9E9F" width="2.165" height="15.52"/>
					<rect x="22.859" y="39.59" fill="#7F8081" width="2.165" height="6.969"/>
					<rect x="22.859" y="42.023" fill="#5E5E60" width="2.165" height="4.535"/>
				</g>
				<g>
					<rect x="27.703" y="31.039" fill="#9F9E9F" width="2.168" height="15.52"/>
					<rect x="27.703" y="39.59" fill="#7F8081" width="2.168" height="6.969"/>
					<rect x="27.703" y="42.023" fill="#5E5E60" width="2.168" height="4.535"/>
				</g>
				<g>
					<rect x="32.554" y="31.039" fill="#9F9E9F" width="2.164" height="15.52"/>
					<rect x="32.554" y="39.59" fill="#7F8081" width="2.164" height="6.969"/>
					<rect x="32.554" y="42.023" fill="#5E5E60" width="2.164" height="4.535"/>
				</g>
				<g>
					<rect x="37.397" y="31.039" fill="#9F9E9F" width="2.164" height="15.52"/>
					<rect x="37.397" y="39.59" fill="#7F8081" width="2.164" height="6.969"/>
					<rect x="37.397" y="42.023" fill="#5E5E60" width="2.164" height="4.535"/>
				</g>
				<g>
					<rect x="42.248" y="31.039" fill="#9F9E9F" width="2.165" height="15.52"/>
					<rect x="42.248" y="39.59" fill="#7F8081" width="2.165" height="6.969"/>
					<rect x="42.248" y="42.023" fill="#5E5E60" width="2.165" height="4.535"/>
				</g>
				<g>
					<rect x="47.091" y="31.039" fill="#9F9E9F" width="2.168" height="15.52"/>
					<rect x="47.091" y="39.59" fill="#7F8081" width="2.168" height="6.969"/>
					<rect x="47.091" y="42.023" fill="#5E5E60" width="2.168" height="4.535"/>
				</g>
				<g>
					<rect x="51.943" y="31.039" fill="#9F9E9F" width="2.165" height="15.52"/>
					<rect x="51.943" y="39.59" fill="#7F8081" width="2.165" height="6.969"/>
					<rect x="51.943" y="42.023" fill="#5E5E60" width="2.165" height="4.535"/>
				</g>
				<g>
					<rect x="56.786" y="31.039" fill="#9F9E9F" width="2.168" height="15.52"/>
					<rect x="56.786" y="39.59" fill="#7F8081" width="2.168" height="6.969"/>
					<rect x="56.786" y="42.023" fill="#5E5E60" width="2.168" height="4.535"/>
				</g>
			</g>
		</g>
		<linearGradient id="SVGID_1_" gradientUnits="userSpaceOnUse" x1="26.6182" y1="15.3047" x2="9.6765" y2="15.3047">
			<stop  offset="0" style="stop-color:#F6EA5A"/>
			<stop  offset="1" style="stop-color:#9F8826"/>
		</linearGradient>
		
			<rect x="10.116" y="11.926" fill="url(#SVGID_1_)" stroke="#231815" stroke-width="0.4513" stroke-miterlimit="10" width="13.602" height="6.758"/>
		<linearGradient id="SVGID_2_" gradientUnits="userSpaceOnUse" x1="74.3691" y1="15.3047" x2="57.4299" y2="15.3047">
			<stop  offset="0" style="stop-color:#298540"/>
			<stop  offset="1" style="stop-color:#0B4626"/>
		</linearGradient>
		
			<rect x="57.87" y="11.926" fill="url(#SVGID_2_)" stroke="#231815" stroke-width="0.9025" stroke-miterlimit="10" width="13.6" height="6.758"/>
	</g>
</g>
</svg>
