<?xml version="1.0" encoding="utf-8"?>
<!-- Generator: Adobe Illustrator 16.0.0, SVG Export Plug-In . SVG Version: 6.00 Build 0)  -->
<!DOCTYPE svg PUBLIC "-//W3C//DTD SVG 1.1//EN" "http://www.w3.org/Graphics/SVG/1.1/DTD/svg11.dtd">
<svg version="1.1" id="图层_1" xmlns="http://www.w3.org/2000/svg" xmlns:xlink="http://www.w3.org/1999/xlink" x="0px" y="0px"
	 width="81.585px" height="57.121px" viewBox="0 0 81.585 57.121" enable-background="new 0 0 81.585 57.121" xml:space="preserve">
<g>
	<g>
		<rect x="0" fill="#151209" width="81.585" height="57.121"/>
	</g>
	<g>
		<g>
			<rect x="4.904" y="3.434" fill="#34322C" width="71.776" height="50.252"/>
		</g>
		<rect x="27.64" y="47.568" fill="#898989" width="26.304" height="6.117"/>
		<path fill="#898989" d="M81.585,23.461V14.99h-3.121V1.65h-9.362V0h-9.139v1.65H45.362V0h-9.14v1.65H21.622V0h-9.139v1.65H3.121
			v13.34H0v8.471h3.121v11.211H0v8.471h3.121v12.326h75.343V43.143h3.121v-8.471h-3.121V23.461H81.585z M74.897,51.902H6.688V5.217
			h68.21V51.902z"/>
		<path fill="#151209" d="M55.835,55.578H25.75v-9.9h30.085V55.578z M29.532,51.795h22.521v-2.336H29.532V51.795z"/>
	</g>
	<g>
		<g>
			<path fill="#231815" d="M12.806,27.338h-0.507H11.79c-0.394,0-0.716,0.318-0.716,0.715v0.715c0,0.395,0.322,0.715,0.716,0.715
				h0.509v8.236c0,0.395,0.319,0.719,0.716,0.719H23.49v7.256c0,0.191,0.194,0.348,0.435,0.348h5.623v3.932
				c0,0.125,0.127,0.221,0.283,0.221h21.698c0.156,0,0.279-0.096,0.279-0.221v-3.932h5.624c0.24,0,0.433-0.156,0.433-0.348v-7.256
				H68.34c0.396,0,0.719-0.324,0.719-0.719v-8.236h0.506c0.396,0,0.715-0.32,0.715-0.715v-0.715c0-0.396-0.319-0.715-0.715-0.715
				h-0.506h-0.511h-0.417v-8.836h0.417h0.511h0.506c0.396,0,0.715-0.318,0.715-0.715v-0.715c0-0.4-0.319-0.721-0.715-0.721h-0.506
				V7.641c0-0.395-0.322-0.713-0.719-0.713H13.015c-0.396,0-0.716,0.318-0.716,0.713v8.711H11.79c-0.394,0-0.716,0.32-0.716,0.721
				v0.715c0,0.396,0.322,0.715,0.716,0.715h0.509h0.507h0.418v8.836H12.806z"/>
			<g>
				<g>
					<rect x="56.562" y="10.561" fill="#9F9E9F" width="2.164" height="15.521"/>
					<rect x="56.562" y="10.561" fill="#7F8081" width="2.164" height="6.973"/>
					<rect x="56.562" y="10.561" fill="#5E5E60" width="2.164" height="4.537"/>
				</g>
				<g>
					<rect x="51.715" y="10.561" fill="#9F9E9F" width="2.168" height="15.521"/>
					<rect x="51.715" y="10.561" fill="#7F8081" width="2.168" height="6.973"/>
					<rect x="51.715" y="10.561" fill="#5E5E60" width="2.168" height="4.537"/>
				</g>
				<g>
					<rect x="46.866" y="10.561" fill="#9F9E9F" width="2.164" height="15.521"/>
					<rect x="46.866" y="10.561" fill="#7F8081" width="2.164" height="6.973"/>
					<rect x="46.866" y="10.561" fill="#5E5E60" width="2.164" height="4.537"/>
				</g>
				<g>
					<rect x="42.023" y="10.561" fill="#9F9E9F" width="2.163" height="15.521"/>
					<rect x="42.023" y="10.561" fill="#7F8081" width="2.163" height="6.973"/>
					<rect x="42.023" y="10.561" fill="#5E5E60" width="2.163" height="4.537"/>
				</g>
				<g>
					<rect x="37.171" y="10.561" fill="#9F9E9F" width="2.164" height="15.521"/>
					<rect x="37.171" y="10.561" fill="#7F8081" width="2.164" height="6.973"/>
					<rect x="37.171" y="10.561" fill="#5E5E60" width="2.164" height="4.537"/>
				</g>
				<g>
					<rect x="32.324" y="10.561" fill="#9F9E9F" width="2.168" height="15.521"/>
					<rect x="32.324" y="10.561" fill="#7F8081" width="2.168" height="6.973"/>
					<rect x="32.324" y="10.561" fill="#5E5E60" width="2.168" height="4.537"/>
				</g>
				<g>
					<rect x="27.476" y="10.561" fill="#9F9E9F" width="2.166" height="15.521"/>
					<rect x="27.476" y="10.561" fill="#7F8081" width="2.166" height="6.973"/>
					<rect x="27.476" y="10.561" fill="#5E5E60" width="2.166" height="4.537"/>
				</g>
				<g>
					<rect x="22.629" y="10.561" fill="#9F9E9F" width="2.168" height="15.521"/>
					<rect x="22.629" y="10.561" fill="#7F8081" width="2.168" height="6.973"/>
					<rect x="22.629" y="10.561" fill="#5E5E60" width="2.168" height="4.537"/>
				</g>
			</g>
		</g>
		
			<linearGradient id="SVGID_1_" gradientUnits="userSpaceOnUse" x1="27.3789" y1="15.5303" x2="10.4396" y2="15.5303" gradientTransform="matrix(1 0 0 1 -0.7637 26.2832)">
			<stop  offset="0" style="stop-color:#F6EA5A"/>
			<stop  offset="1" style="stop-color:#9F8826"/>
		</linearGradient>
		
			<rect x="10.116" y="38.434" fill="url(#SVGID_1_)" stroke="#231815" stroke-width="0.4513" stroke-miterlimit="10" width="13.6" height="6.76"/>
		
			<linearGradient id="SVGID_2_" gradientUnits="userSpaceOnUse" x1="75.1318" y1="15.5303" x2="58.1938" y2="15.5303" gradientTransform="matrix(1 0 0 1 -0.7637 26.2832)">
			<stop  offset="0" style="stop-color:#298540"/>
			<stop  offset="1" style="stop-color:#0B4626"/>
		</linearGradient>
		
			<rect x="57.87" y="38.434" fill="url(#SVGID_2_)" stroke="#231815" stroke-width="0.9025" stroke-miterlimit="10" width="13.599" height="6.76"/>
	</g>
</g>
</svg>
