<?xml version="1.0" encoding="utf-8"?>
<!-- Generator: Adobe Illustrator 19.0.0, SVG Export Plug-In . SVG Version: 6.00 Build 0)  -->
<svg version="1.1" id="图层_1" xmlns="http://www.w3.org/2000/svg" xmlns:xlink="http://www.w3.org/1999/xlink" x="0px" y="0px"
	 width="34.016px" height="34.016px" viewBox="0 0 34.016 34.016" enable-background="new 0 0 34.016 34.016" xml:space="preserve">
<g id="XMLID_484_">
	<path id="XMLID_488_" fill="#FFF57F" d="M17.008,0C7.629,0,0,7.629,0,17.008c0,9.378,7.629,17.008,17.008,17.008
		s17.008-7.629,17.008-17.008C34.016,7.629,26.386,0,17.008,0z M17.008,31.73c-8.117,0-14.721-6.605-14.721-14.722
		c0-8.117,6.604-14.722,14.721-14.722s14.721,6.605,14.721,14.722C31.729,25.125,25.125,31.73,17.008,31.73z"/>
	<polygon id="XMLID_487_" fill="#FFF57F" points="18.151,8.575 15.865,8.575 15.865,18.008 7.289,18.008 7.289,20.295 
		26.727,20.295 26.727,18.008 18.151,18.008 	"/>
	<rect id="XMLID_486_" x="10.433" y="22.583" fill="#FFF57F" width="13.15" height="2.286"/>
	<rect id="XMLID_485_" x="12.577" y="26.584" fill="#FFF57F" width="8.862" height="2.287"/>
</g>
</svg>
