<?xml version="1.0" encoding="utf-8"?>
<!-- Generator: Adobe Illustrator 19.0.0, SVG Export Plug-In . SVG Version: 6.00 Build 0)  -->
<svg version="1.1" id="图层_1" xmlns="http://www.w3.org/2000/svg" xmlns:xlink="http://www.w3.org/1999/xlink" x="0px" y="0px"
	 width="39.436px" height="14.652px" viewBox="0 0 39.436 14.652" enable-background="new 0 0 39.436 14.652" xml:space="preserve">
<g id="XMLID_1536_">
	<path id="XMLID_1540_" stroke="#B9B9B9" stroke-width="0.75" stroke-miterlimit="10" d="M36.795,0.375H2.64
		c-1.251,0-2.265,0.969-2.265,2.165v5.537c0,1.195,1.014,2.165,2.265,2.165h0.521c0.705,0,1.369,0.313,1.798,0.848l1.877,2.34
		c0.429,0.534,1.093,0.848,1.798,0.848H30.8c0.705,0,1.369-0.313,1.798-0.848l1.877-2.34c0.429-0.534,1.093-0.848,1.798-0.848h0.521
		c1.251,0,2.265-0.969,2.265-2.165V2.54C39.06,1.344,38.046,0.375,36.795,0.375z"/>
	<g id="XMLID_1558_">
		<path id="XMLID_1571_" fill="#7B7C7D" d="M8.635,12.861c-0.273,0-0.532-0.119-0.691-0.317l-1.879-2.341
			C5.362,9.327,4.304,8.825,3.161,8.825H2.641c-0.468,0-0.849-0.336-0.849-0.748V2.539c0-0.412,0.381-0.747,0.849-0.747h34.153
			c0.468,0,0.849,0.335,0.849,0.747v5.537c0,0.412-0.381,0.748-0.849,0.748h-0.521c-1.143,0-2.2,0.502-2.903,1.378l-1.878,2.34
			c-0.16,0.199-0.419,0.318-0.692,0.318H8.635z"/>
		<path id="XMLID_1570_" fill="none" d="M8.635,12.861c-0.273,0-0.532-0.119-0.691-0.317l-1.879-2.341
			C5.362,9.327,4.304,8.825,3.161,8.825H2.641c-0.468,0-0.849-0.336-0.849-0.748V2.539c0-0.412,0.381-0.747,0.849-0.747h34.153
			c0.468,0,0.849,0.335,0.849,0.747v5.537c0,0.412-0.381,0.748-0.849,0.748h-0.521c-1.143,0-2.2,0.502-2.903,1.378l-1.878,2.34
			c-0.16,0.199-0.419,0.318-0.692,0.318H8.635z"/>
	</g>
	<rect id="XMLID_1538_" x="6.33" y="6.569" fill="#B9B9B9" width="27.194" height="1.261"/>
	<g id="XMLID_1539_">
		<rect id="XMLID_1541_" x="7.672" y="5.392" fill="#373737" width="1.76" height="1.177"/>
		<rect id="XMLID_1542_" x="10.199" y="5.392" fill="#373737" width="1.76" height="1.177"/>
		<rect id="XMLID_1543_" x="12.727" y="5.392" fill="#373737" width="1.76" height="1.177"/>
		<rect id="XMLID_1544_" x="15.255" y="5.392" fill="#373737" width="1.76" height="1.177"/>
		<rect id="XMLID_1545_" x="17.783" y="5.392" fill="#373737" width="1.76" height="1.177"/>
		<rect id="XMLID_1546_" x="20.31" y="5.392" fill="#373737" width="1.76" height="1.177"/>
		<rect id="XMLID_1547_" x="22.838" y="5.392" fill="#373737" width="1.76" height="1.177"/>
		<rect id="XMLID_1549_" x="25.366" y="5.392" fill="#373737" width="1.76" height="1.177"/>
		<rect id="XMLID_1550_" x="27.894" y="5.392" fill="#373737" width="1.76" height="1.177"/>
		<rect id="XMLID_1559_" x="30.421" y="5.392" fill="#373737" width="1.76" height="1.177"/>
	</g>
	<g id="XMLID_1560_">
		<rect id="XMLID_1569_" x="8.936" y="7.831" fill="#373737" width="1.76" height="1.177"/>
		<rect id="XMLID_1568_" x="11.463" y="7.831" fill="#373737" width="1.76" height="1.177"/>
		<rect id="XMLID_1567_" x="13.991" y="7.831" fill="#373737" width="1.76" height="1.177"/>
		<rect id="XMLID_1566_" x="16.519" y="7.831" fill="#373737" width="1.76" height="1.177"/>
		<rect id="XMLID_1565_" x="19.046" y="7.831" fill="#373737" width="1.76" height="1.177"/>
		<rect id="XMLID_1564_" x="21.574" y="7.831" fill="#373737" width="1.76" height="1.177"/>
		<rect id="XMLID_1563_" x="24.102" y="7.831" fill="#373737" width="1.76" height="1.177"/>
		<rect id="XMLID_1562_" x="26.63" y="7.831" fill="#373737" width="1.76" height="1.177"/>
		<rect id="XMLID_1561_" x="29.157" y="7.831" fill="#373737" width="1.76" height="1.177"/>
	</g>
</g>
</svg>
