<?xml version="1.0" encoding="utf-8"?>
<!-- Generator: Adobe Illustrator 19.0.0, SVG Export Plug-In . SVG Version: 6.00 Build 0)  -->
<svg version="1.1" id="图层_1" xmlns="http://www.w3.org/2000/svg" xmlns:xlink="http://www.w3.org/1999/xlink" x="0px" y="0px"
	 width="110.835px" height="35.575px" viewBox="0 0 110.835 35.575" enable-background="new 0 0 110.835 35.575"
	 xml:space="preserve">
<g id="XMLID_43_">
	<path id="XMLID_1731_" fill="#AFAFAF" stroke="#939393" stroke-miterlimit="10" d="M102.377,35.075H8.458
		c-4.395,0-7.958-3.563-7.958-7.958V8.458C0.5,4.063,4.063,0.5,8.458,0.5h93.919c4.395,0,7.958,3.563,7.958,7.958v18.659
		C110.335,31.512,106.772,35.075,102.377,35.075z"/>
	<path id="XMLID_1654_" fill="#165D9C" stroke="#939393" stroke-miterlimit="10" d="M81.581,29.136H28.945
		c-2.401,0-4.487-1.481-5.042-3.58l-3.54-13.385c-0.774-2.926,1.695-5.733,5.042-5.733h59.717c3.347,0,5.816,2.808,5.042,5.733
		l-3.54,13.385C86.068,27.655,83.981,29.136,81.581,29.136z"/>
	<g id="XMLID_1704_">
		<circle id="XMLID_1729_" fill="#1F1F1F" cx="28.407" cy="13.562" r="2.042"/>
		<circle id="XMLID_1728_" fill="#1F1F1F" cx="36.124" cy="13.562" r="2.042"/>
		<circle id="XMLID_1727_" fill="#1F1F1F" cx="43.842" cy="13.562" r="2.042"/>
		<circle id="XMLID_1726_" fill="#1F1F1F" cx="51.559" cy="13.562" r="2.042"/>
		<circle id="XMLID_1725_" fill="#1F1F1F" cx="59.276" cy="13.562" r="2.042"/>
		<circle id="XMLID_1724_" fill="#1F1F1F" cx="66.993" cy="13.562" r="2.042"/>
		<circle id="XMLID_1723_" fill="#1F1F1F" cx="74.71" cy="13.562" r="2.042"/>
		<circle id="XMLID_1722_" fill="#1F1F1F" cx="82.428" cy="13.562" r="2.042"/>
		<circle id="XMLID_1717_" fill="#1F1F1F" cx="32.266" cy="22.012" r="2.042"/>
		<circle id="XMLID_1716_" fill="#1F1F1F" cx="39.983" cy="22.012" r="2.042"/>
		<circle id="XMLID_1715_" fill="#1F1F1F" cx="47.7" cy="22.012" r="2.042"/>
		<circle id="XMLID_1714_" fill="#1F1F1F" cx="55.417" cy="22.012" r="2.042"/>
		<circle id="XMLID_1713_" fill="#1F1F1F" cx="63.135" cy="22.012" r="2.042"/>
		<circle id="XMLID_1712_" fill="#1F1F1F" cx="70.852" cy="22.012" r="2.042"/>
		<circle id="XMLID_1711_" fill="#1F1F1F" cx="78.569" cy="22.012" r="2.042"/>
	</g>
	<g id="XMLID_1674_">
		<ellipse id="XMLID_1703_" fill="#AFAFAF" stroke="#939393" stroke-miterlimit="10" cx="9.765" cy="17.787" rx="4.262" ry="4.27"/>
		<g id="XMLID_1700_">
			<rect id="XMLID_1702_" x="7.098" y="17.169" fill="#939393" width="5.333" height="1.236"/>
			<rect id="XMLID_1701_" x="9.147" y="15.121" fill="#939393" width="1.236" height="5.333"/>
		</g>
	</g>
	<g id="XMLID_1675_">
		
			<ellipse id="XMLID_1699_" fill="#AFAFAF" stroke="#939393" stroke-miterlimit="10" cx="101.07" cy="17.787" rx="4.262" ry="4.27"/>
		<g id="XMLID_1676_">
			<rect id="XMLID_1698_" x="98.403" y="17.169" fill="#939393" width="5.333" height="1.236"/>
			<rect id="XMLID_1697_" x="100.452" y="15.121" fill="#939393" width="1.236" height="5.333"/>
		</g>
	</g>
</g>
</svg>
