<?xml version="1.0" encoding="utf-8"?>
<!-- Generator: Adobe Illustrator 19.0.0, SVG Export Plug-In . SVG Version: 6.00 Build 0)  -->
<svg version="1.1" id="图层_1" xmlns="http://www.w3.org/2000/svg" xmlns:xlink="http://www.w3.org/1999/xlink" x="0px" y="0px"
	 width="150.52px" height="35.575px" viewBox="0 0 150.52 35.575" enable-background="new 0 0 150.52 35.575" xml:space="preserve">
<g id="XMLID_755_">
	<path id="XMLID_1604_" fill="#AFAFAF" stroke="#939393" stroke-miterlimit="10" d="M142.062,35.075H8.458
		c-4.395,0-7.958-3.563-7.958-7.958V8.458C0.5,4.063,4.063,0.5,8.458,0.5h133.604c4.395,0,7.958,3.563,7.958,7.958v18.659
		C150.02,31.512,146.457,35.075,142.062,35.075z"/>
	<path id="XMLID_1601_" fill="#165D9C" stroke="#939393" stroke-miterlimit="10" d="M120.205,29.136H27.829
		c-2.449,0-4.54-1.591-4.949-3.764L20.313,11.71c-0.518-2.757,1.842-5.271,4.949-5.271h97.509c3.106,0,5.467,2.514,4.949,5.271
		l-2.567,13.662C124.745,27.545,122.654,29.136,120.205,29.136z"/>
	<g id="XMLID_1631_">
		<circle id="XMLID_1605_" fill="#1F1F1F" cx="28.824" cy="13.562" r="2.042"/>
		<circle id="XMLID_1606_" fill="#1F1F1F" cx="36.541" cy="13.562" r="2.042"/>
		<circle id="XMLID_1607_" fill="#1F1F1F" cx="44.258" cy="13.562" r="2.042"/>
		<circle id="XMLID_1608_" fill="#1F1F1F" cx="51.975" cy="13.562" r="2.042"/>
		<circle id="XMLID_1609_" fill="#1F1F1F" cx="59.692" cy="13.562" r="2.042"/>
		<circle id="XMLID_1610_" fill="#1F1F1F" cx="67.409" cy="13.562" r="2.042"/>
		<circle id="XMLID_1611_" fill="#1F1F1F" cx="75.127" cy="13.562" r="2.042"/>
		<circle id="XMLID_1612_" fill="#1F1F1F" cx="82.844" cy="13.562" r="2.042"/>
		<circle id="XMLID_1613_" fill="#1F1F1F" cx="90.561" cy="13.562" r="2.042"/>
		<circle id="XMLID_1614_" fill="#1F1F1F" cx="98.278" cy="13.562" r="2.042"/>
		<circle id="XMLID_1615_" fill="#1F1F1F" cx="105.995" cy="13.562" r="2.042"/>
		<circle id="XMLID_1616_" fill="#1F1F1F" cx="113.713" cy="13.562" r="2.042"/>
		<circle id="XMLID_1628_" fill="#1F1F1F" cx="32.682" cy="22.012" r="2.042"/>
		<circle id="XMLID_1627_" fill="#1F1F1F" cx="40.399" cy="22.012" r="2.042"/>
		<circle id="XMLID_1626_" fill="#1F1F1F" cx="48.116" cy="22.012" r="2.042"/>
		<circle id="XMLID_1625_" fill="#1F1F1F" cx="55.834" cy="22.012" r="2.042"/>
		<circle id="XMLID_1624_" fill="#1F1F1F" cx="63.551" cy="22.012" r="2.042"/>
		<circle id="XMLID_1623_" fill="#1F1F1F" cx="71.268" cy="22.012" r="2.042"/>
		<circle id="XMLID_1622_" fill="#1F1F1F" cx="78.985" cy="22.012" r="2.042"/>
		<circle id="XMLID_1621_" fill="#1F1F1F" cx="86.702" cy="22.012" r="2.042"/>
		<circle id="XMLID_1620_" fill="#1F1F1F" cx="94.42" cy="22.012" r="2.042"/>
		<circle id="XMLID_1619_" fill="#1F1F1F" cx="102.137" cy="22.012" r="2.042"/>
		<circle id="XMLID_1618_" fill="#1F1F1F" cx="109.854" cy="22.012" r="2.042"/>
		<circle id="XMLID_1617_" fill="#1F1F1F" cx="117.571" cy="22.012" r="2.042"/>
		<circle id="XMLID_1629_" fill="#1F1F1F" cx="121.43" cy="13.562" r="2.042"/>
	</g>
	<ellipse id="XMLID_1603_" fill="#AFAFAF" stroke="#939393" stroke-miterlimit="10" cx="9.507" cy="17.787" rx="4.262" ry="4.27"/>
	<g id="XMLID_1630_">
		<rect id="XMLID_1632_" x="6.84" y="17.169" fill="#939393" width="5.333" height="1.236"/>
		<rect id="XMLID_1633_" x="8.889" y="15.121" fill="#939393" width="1.236" height="5.333"/>
	</g>
	<g id="XMLID_1634_">
		
			<ellipse id="XMLID_1638_" fill="#AFAFAF" stroke="#939393" stroke-miterlimit="10" cx="142.029" cy="17.787" rx="4.262" ry="4.27"/>
		<g id="XMLID_1635_">
			<rect id="XMLID_1637_" x="139.362" y="17.169" fill="#939393" width="5.333" height="1.236"/>
			<rect id="XMLID_1636_" x="141.411" y="15.121" fill="#939393" width="1.236" height="5.333"/>
		</g>
	</g>
</g>
</svg>
