<?xml version="1.0" encoding="utf-8"?>
<!-- Generator: Adobe Illustrator 19.0.0, SVG Export Plug-In . SVG Version: 6.00 Build 0)  -->
<svg version="1.1" id="图层_1" xmlns="http://www.w3.org/2000/svg" xmlns:xlink="http://www.w3.org/1999/xlink" x="0px" y="0px"
	 width="197.008px" height="35.575px" viewBox="0 0 197.008 35.575" enable-background="new 0 0 197.008 35.575"
	 xml:space="preserve">
<g id="XMLID_43_">
	<path id="XMLID_1678_" fill="#AFAFAF" stroke="#939393" stroke-miterlimit="10" d="M188.55,35.075H8.458
		c-4.395,0-7.958-3.563-7.958-7.958V8.458C0.5,4.063,4.063,0.5,8.458,0.5H188.55c4.395,0,7.958,3.563,7.958,7.958v18.659
		C196.508,31.512,192.945,35.075,188.55,35.075z"/>
	<path id="XMLID_1734_" fill="#165D9C" stroke="#939393" stroke-miterlimit="10" d="M163.982,29.136H33.026
		c-2.593,0-4.941-1.531-5.987-3.903l-4.237-9.612c-1.906-4.325,1.261-9.182,5.987-9.182H168.22c4.726,0,7.893,4.857,5.987,9.182
		l-4.238,9.612C168.923,27.605,166.575,29.136,163.982,29.136z"/>
	<g id="XMLID_1640_">
		<g id="XMLID_1641_">
			
				<ellipse id="XMLID_1650_" fill="#AFAFAF" stroke="#939393" stroke-miterlimit="10" cx="9.765" cy="17.787" rx="4.262" ry="4.27"/>
			<rect id="XMLID_1649_" x="7.098" y="17.169" fill="#939393" width="5.333" height="1.236"/>
			<rect id="XMLID_1648_" x="9.147" y="15.121" fill="#939393" width="1.236" height="5.333"/>
		</g>
		<g id="XMLID_1642_">
			
				<ellipse id="XMLID_1646_" fill="#AFAFAF" stroke="#939393" stroke-miterlimit="10" cx="187.243" cy="17.787" rx="4.262" ry="4.27"/>
			<g id="XMLID_1643_">
				<rect id="XMLID_1645_" x="184.576" y="17.169" fill="#939393" width="5.333" height="1.236"/>
				<rect id="XMLID_1644_" x="186.625" y="15.121" fill="#939393" width="1.236" height="5.333"/>
			</g>
		</g>
	</g>
	<g id="XMLID_1735_">
		<g id="XMLID_1651_">
			<circle id="XMLID_1653_" fill="#1F1F1F" cx="31.467" cy="13.855" r="2.042"/>
			<circle id="XMLID_1677_" fill="#1F1F1F" cx="38.915" cy="13.855" r="2.042"/>
			<circle id="XMLID_1680_" fill="#1F1F1F" cx="46.364" cy="13.855" r="2.042"/>
			<circle id="XMLID_1681_" fill="#1F1F1F" cx="53.813" cy="13.855" r="2.042"/>
			<circle id="XMLID_1682_" fill="#1F1F1F" cx="61.261" cy="13.855" r="2.042"/>
			<circle id="XMLID_1683_" fill="#1F1F1F" cx="68.71" cy="13.855" r="2.042"/>
			<circle id="XMLID_1684_" fill="#1F1F1F" cx="76.158" cy="13.855" r="2.042"/>
			<circle id="XMLID_1685_" fill="#1F1F1F" cx="83.607" cy="13.855" r="2.042"/>
			<circle id="XMLID_1686_" fill="#1F1F1F" cx="91.055" cy="13.855" r="2.042"/>
			<circle id="XMLID_1687_" fill="#1F1F1F" cx="98.504" cy="13.855" r="2.042"/>
			<circle id="XMLID_1688_" fill="#1F1F1F" cx="105.952" cy="13.855" r="2.042"/>
			<circle id="XMLID_1689_" fill="#1F1F1F" cx="113.401" cy="13.855" r="2.042"/>
			<circle id="XMLID_1690_" fill="#1F1F1F" cx="120.85" cy="13.855" r="2.042"/>
			<circle id="XMLID_1691_" fill="#1F1F1F" cx="128.298" cy="13.855" r="2.042"/>
			<circle id="XMLID_1692_" fill="#1F1F1F" cx="135.747" cy="13.855" r="2.042"/>
			<circle id="XMLID_1693_" fill="#1F1F1F" cx="143.195" cy="13.855" r="2.042"/>
			<circle id="XMLID_1694_" fill="#1F1F1F" cx="150.644" cy="13.855" r="2.042"/>
			<circle id="XMLID_1695_" fill="#1F1F1F" cx="158.092" cy="13.855" r="2.042"/>
			<circle id="XMLID_1696_" fill="#1F1F1F" cx="165.541" cy="13.855" r="2.042"/>
		</g>
		<g id="XMLID_1655_">
			<circle id="XMLID_1672_" fill="#1F1F1F" cx="35.191" cy="21.72" r="2.042"/>
			<circle id="XMLID_1671_" fill="#1F1F1F" cx="42.64" cy="21.72" r="2.042"/>
			<circle id="XMLID_1670_" fill="#1F1F1F" cx="50.088" cy="21.72" r="2.042"/>
			<circle id="XMLID_1669_" fill="#1F1F1F" cx="57.537" cy="21.72" r="2.042"/>
			<circle id="XMLID_1668_" fill="#1F1F1F" cx="64.985" cy="21.72" r="2.042"/>
			<circle id="XMLID_1667_" fill="#1F1F1F" cx="72.434" cy="21.72" r="2.042"/>
			<circle id="XMLID_1666_" fill="#1F1F1F" cx="79.883" cy="21.72" r="2.042"/>
			<circle id="XMLID_1665_" fill="#1F1F1F" cx="87.331" cy="21.72" r="2.042"/>
			<circle id="XMLID_1664_" fill="#1F1F1F" cx="94.78" cy="21.72" r="2.042"/>
			<circle id="XMLID_1663_" fill="#1F1F1F" cx="102.228" cy="21.72" r="2.042"/>
			<circle id="XMLID_1662_" fill="#1F1F1F" cx="109.677" cy="21.72" r="2.042"/>
			<circle id="XMLID_1661_" fill="#1F1F1F" cx="117.125" cy="21.72" r="2.042"/>
			<circle id="XMLID_1660_" fill="#1F1F1F" cx="124.574" cy="21.72" r="2.042"/>
			<circle id="XMLID_1659_" fill="#1F1F1F" cx="132.022" cy="21.72" r="2.042"/>
			<circle id="XMLID_1658_" fill="#1F1F1F" cx="139.471" cy="21.72" r="2.042"/>
			<circle id="XMLID_1657_" fill="#1F1F1F" cx="146.92" cy="21.72" r="2.042"/>
			<circle id="XMLID_1656_" fill="#1F1F1F" cx="154.368" cy="21.72" r="2.042"/>
			<circle id="XMLID_1705_" fill="#1F1F1F" cx="161.817" cy="21.72" r="2.042"/>
		</g>
	</g>
</g>
</svg>
