<?xml version="1.0" encoding="utf-8"?>
<!-- Generator: Adobe Illustrator 19.0.0, SVG Export Plug-In . SVG Version: 6.00 Build 0)  -->
<svg version="1.1" id="图层_1" xmlns="http://www.w3.org/2000/svg" xmlns:xlink="http://www.w3.org/1999/xlink" x="0px" y="0px"
	 width="87.307px" height="35.575px" viewBox="0 0 87.307 35.575" enable-background="new 0 0 87.307 35.575" xml:space="preserve">
<path id="XMLID_1751_" fill="#AFAFAF" stroke="#939393" stroke-miterlimit="10" d="M78.849,35.075H8.458
	c-4.395,0-7.958-3.563-7.958-7.958V8.458C0.5,4.063,4.063,0.5,8.458,0.5h70.392c4.395,0,7.958,3.563,7.958,7.958v18.659
	C86.807,31.512,83.244,35.075,78.849,35.075z"/>
<path id="XMLID_1639_" fill="#165D9C" stroke="#939393" stroke-miterlimit="10" d="M58.777,29.136H28.53
	c-2.555,0-4.766-1.777-5.315-4.271l-2.604-11.812c-0.749-3.397,1.837-6.615,5.315-6.615H61.38c3.478,0,6.064,3.218,5.315,6.615
	l-2.604,11.812C63.542,27.36,61.331,29.136,58.777,29.136z"/>
<g id="XMLID_1733_">
	<circle id="XMLID_1748_" fill="#1F1F1F" cx="28.219" cy="13.562" r="2.042"/>
	<circle id="XMLID_1747_" fill="#1F1F1F" cx="35.936" cy="13.562" r="2.042"/>
	<circle id="XMLID_1746_" fill="#1F1F1F" cx="43.654" cy="13.562" r="2.042"/>
	<circle id="XMLID_1745_" fill="#1F1F1F" cx="51.371" cy="13.562" r="2.042"/>
	<circle id="XMLID_1744_" fill="#1F1F1F" cx="59.088" cy="13.562" r="2.042"/>
	<circle id="XMLID_1740_" fill="#1F1F1F" cx="32.078" cy="22.012" r="2.042"/>
	<circle id="XMLID_1739_" fill="#1F1F1F" cx="39.795" cy="22.012" r="2.042"/>
	<circle id="XMLID_1738_" fill="#1F1F1F" cx="47.512" cy="22.012" r="2.042"/>
	<circle id="XMLID_1737_" fill="#1F1F1F" cx="55.229" cy="22.012" r="2.042"/>
</g>
<g id="XMLID_1652_">
	<g id="XMLID_1719_">
		
			<ellipse id="XMLID_1732_" fill="#AFAFAF" stroke="#939393" stroke-miterlimit="10" cx="10.585" cy="17.787" rx="4.262" ry="4.27"/>
		<g id="XMLID_1720_">
			<rect id="XMLID_1730_" x="7.918" y="17.169" fill="#939393" width="5.333" height="1.236"/>
			<rect id="XMLID_1721_" x="9.967" y="15.121" fill="#939393" width="1.236" height="5.333"/>
		</g>
	</g>
	<g id="XMLID_1707_">
		
			<ellipse id="XMLID_1718_" fill="#AFAFAF" stroke="#939393" stroke-miterlimit="10" cx="76.361" cy="17.787" rx="4.262" ry="4.27"/>
		<g id="XMLID_1708_">
			<rect id="XMLID_1710_" x="73.694" y="17.169" fill="#939393" width="5.333" height="1.236"/>
			<rect id="XMLID_1709_" x="75.743" y="15.121" fill="#939393" width="1.236" height="5.333"/>
		</g>
	</g>
</g>
</svg>
