<?xml version="1.0" encoding="utf-8"?>
<!-- Generator: Adobe Illustrator 19.0.0, SVG Export Plug-In . SVG Version: 6.00 Build 0)  -->
<svg version="1.1" id="图层_1" xmlns="http://www.w3.org/2000/svg" xmlns:xlink="http://www.w3.org/1999/xlink" x="0px" y="0px"
	 width="73.701px" height="58.065px" viewBox="0 0 73.701 58.065" enable-background="new 0 0 73.701 58.065" xml:space="preserve">
<g id="XMLID_1282_">
	<path id="XMLID_1487_" fill="#3E3A39" stroke="#000000" stroke-width="2" stroke-miterlimit="10" d="M72.701,54.21
		c0,1.577-1.279,2.856-2.856,2.856H3.856C2.279,57.066,1,55.786,1,54.21V3.858C1,2.28,2.279,1,3.856,1h65.989
		c1.577,0,2.856,1.28,2.856,2.858V54.21z"/>
	<polygon id="XMLID_1486_" fill="#231815" points="12.097,47.532 12.097,19.783 21.485,10.534 52.5,10.534 61.604,20.208 
		61.604,47.532 	"/>
	<rect id="XMLID_1485_" x="48.233" y="26.828" fill="#343842" width="3.129" height="10.528"/>
	<rect id="XMLID_1484_" x="48.233" y="28.679" fill="#8D919A" width="1.565" height="8.678"/>
	<rect id="XMLID_1483_" x="34.574" y="20.281" fill="#343842" width="3.129" height="10.532"/>
	<rect id="XMLID_1482_" x="34.574" y="22.131" fill="#8D919A" width="1.565" height="8.681"/>
	<rect id="XMLID_1481_" x="20.918" y="26.828" fill="#343842" width="3.129" height="10.528"/>
	<rect id="XMLID_1480_" x="20.918" y="28.679" fill="#8D919A" width="1.565" height="8.678"/>
</g>
</svg>
