<?xml version="1.0" encoding="utf-8"?>
<!-- Generator: Adobe Illustrator 19.0.0, SVG Export Plug-In . SVG Version: 6.00 Build 0)  -->
<svg version="1.1" id="图层_1" xmlns="http://www.w3.org/2000/svg" xmlns:xlink="http://www.w3.org/1999/xlink" x="0px" y="0px"
	 width="70.866px" height="16.685px" viewBox="0 0 70.866 16.685" enable-background="new 0 0 70.866 16.685" xml:space="preserve">
<g id="XMLID_492_">
	<polygon id="XMLID_516_" fill="#B3B3B4" points="28.201,9.643 31.814,9.643 31.814,6.755 33.438,6.755 33.438,13.88 31.814,13.88 
		31.814,10.905 28.201,10.905 28.201,13.88 26.578,13.88 26.578,6.755 28.201,6.755 	"/>
	<path id="XMLID_515_" fill="#B3B3B4" d="M36.382,11.023c0,1.261,0.398,1.785,1.741,1.785c1.342,0,1.73-0.524,1.73-1.785V6.755
		h1.623v4.307c0,0.914-0.11,1.539-0.453,1.915c-0.635,0.697-1.559,0.983-2.901,0.983c-1.343,0-2.278-0.286-2.912-0.983
		c-0.355-0.385-0.443-1.012-0.443-1.915V6.755h1.613V11.023z"/>
	<path id="XMLID_512_" fill="#B3B3B4" d="M46.777,6.755l3.289,7.126h-1.804l-0.71-1.696h-3.353l-0.687,1.696h-1.72l3.265-7.126
		H46.777z M44.725,10.915h2.301l-1.171-2.74L44.725,10.915z"/>
	<polygon id="XMLID_511_" fill="#B3B3B4" points="50.802,6.755 52.588,12.234 54.091,6.755 56.005,6.755 57.734,12.234 
		59.398,6.755 61.065,6.755 58.679,13.88 56.691,13.88 55.047,8.563 53.608,13.88 51.63,13.88 49.06,6.755 	"/>
	<path id="XMLID_510_" fill="#B3B3B4" d="M63.249,9.653h4.49v1.24h-4.5c0.01,1.281,0.558,1.748,1.835,1.748h2.665v1.24h-2.738
		c-0.935,0-1.655-0.069-2.408-0.625c-0.794-0.585-1.18-1.518-1.18-2.809c0-2.52,1.149-3.692,3.63-3.692h2.696v1.242h-2.665
		C63.905,7.997,63.314,8.532,63.249,9.653"/>
	<rect id="XMLID_509_" x="69.17" y="6.755" fill="#B3B3B4" width="1.696" height="7.126"/>
	<g id="XMLID_494_">
		<path id="XMLID_508_" fill="#B3B3B4" d="M9.532,13.014c0,0,0.039-0.03,0.019-0.082h0.001C6.949,7.247,3.391,2.94,3.391,2.94
			S1.454,4.776,1.592,6.618C1.666,8.01,2.713,8.836,2.713,8.836c1.688,1.646,5.778,3.723,6.728,4.194
			C9.454,13.035,9.503,13.051,9.532,13.014"/>
		<path id="XMLID_507_" fill="#B3B3B4" d="M8.899,14.422c-0.017-0.06-0.087-0.06-0.087-0.06v-0.002l-6.806,0.237
			c0.739,1.315,1.981,2.338,3.276,2.024c0.895-0.224,2.92-1.636,3.586-2.114H8.867C8.918,14.46,8.899,14.422,8.899,14.422"/>
		<path id="XMLID_501_" fill="#B3B3B4" d="M9.002,13.81c0.033-0.054-0.025-0.101-0.025-0.101v-0.002
			c-2.989-2.015-8.782-5.111-8.782-5.111c-0.526,1.631,0.182,2.944,0.182,2.944c0.739,1.561,2.15,2.033,2.15,2.033
			c0.65,0.269,1.301,0.286,1.301,0.286c0.101,0.019,4.048,0.002,5.105-0.004C8.977,13.855,9.002,13.81,9.002,13.81"/>
		<path id="XMLID_500_" fill="#B3B3B4" d="M9.454,0C9.158,0.025,8.358,0.207,8.358,0.207C6.556,0.673,6.13,2.309,6.13,2.309
			C5.803,3.337,6.138,4.468,6.138,4.468c0.602,2.669,3.563,7.054,4.197,7.974c0.047,0.046,0.082,0.029,0.082,0.029
			c0.068-0.019,0.063-0.085,0.063-0.085l0.002,0.001C11.461,2.595,9.454,0,9.454,0"/>
		<path id="XMLID_499_" fill="#B3B3B4" d="M11.707,12.469c0.066,0.025,0.098-0.037,0.098-0.037h0.001
			c0.653-0.944,3.596-5.306,4.194-7.965c0,0,0.324-1.288,0.011-2.159c0,0-0.444-1.661-2.249-2.1c0,0-0.521-0.131-1.071-0.209
			c0,0-2.016,2.596-1.036,12.394l0,0C11.663,12.456,11.707,12.469,11.707,12.469"/>
		<path id="XMLID_498_" fill="#B3B3B4" d="M13.318,14.365c0,0-0.059,0.008-0.076,0.053c0,0-0.015,0.06,0.025,0.091l0,0
			c0.651,0.467,2.626,1.849,3.579,2.116c0,0,1.759,0.601,3.287-2.024l-6.815-0.237L13.318,14.365z"/>
		<path id="XMLID_497_" fill="#B3B3B4" d="M21.945,8.582c0,0-5.786,3.105-8.778,5.122l0.002,0.001c0,0-0.054,0.035-0.034,0.099
			c0,0,0.027,0.051,0.069,0.051l0,0c1.07,0.002,5.125,0.008,5.226-0.012c0,0,0.525-0.021,1.174-0.27c0,0,1.441-0.457,2.191-2.095
			C21.794,11.478,22.461,10.142,21.945,8.582"/>
		<path id="XMLID_495_" fill="#B3B3B4" d="M12.622,13.014c0,0,0.047,0.035,0.09,0.006v0.001c0.976-0.484,5.033-2.549,6.714-4.186
			c0,0,1.064-0.855,1.12-2.227C20.669,4.703,18.75,2.94,18.75,2.94s-3.549,4.295-6.15,9.965h0.003
			C12.604,12.905,12.572,12.972,12.622,13.014"/>
	</g>
</g>
</svg>
