<?xml version="1.0" encoding="utf-8"?>
<!-- Generator: Adobe Illustrator 19.0.0, SVG Export Plug-In . SVG Version: 6.00 Build 0)  -->
<svg version="1.1" id="图层_1" xmlns="http://www.w3.org/2000/svg" xmlns:xlink="http://www.w3.org/1999/xlink" x="0px" y="0px"
	 width="36.85px" height="19.42px" viewBox="0 0 36.85 19.42" enable-background="new 0 0 36.85 19.42" xml:space="preserve">
<g id="XMLID_1757_">
	<g id="XMLID_1805_">
		<g id="XMLID_1806_">
			<rect id="XMLID_1814_" x="10.422" y="12.905" fill="#B3B3B4" width="1.616" height="6.401"/>
			<path id="XMLID_1813_" fill="#B3B3B4" d="M25.067,14.74c-0.066-0.035-0.587-0.343-1.36-0.343c-1.044,0-1.77,0.728-1.77,1.708
				c0,0.952,0.694,1.709,1.77,1.709c0.759,0,1.288-0.302,1.36-0.339v1.718c-0.203,0.058-0.754,0.228-1.473,0.228
				c-1.817,0-3.413-1.253-3.413-3.316c0-1.911,1.444-3.315,3.413-3.315c0.758,0,1.319,0.185,1.473,0.231V14.74z"/>
			<path id="XMLID_1812_" fill="#B3B3B4" d="M8.201,14.74c-0.065-0.035-0.584-0.343-1.357-0.343c-1.047,0-1.771,0.728-1.771,1.708
				c0,0.952,0.694,1.709,1.771,1.709c0.759,0,1.288-0.302,1.357-0.339v1.718C8,19.251,7.45,19.421,6.727,19.421
				c-1.816,0-3.409-1.253-3.409-3.316c0-1.911,1.444-3.315,3.409-3.315c0.761,0,1.322,0.185,1.474,0.231V14.74z"/>
			<path id="XMLID_1809_" fill="#B3B3B4" d="M33.534,16.105c0,1.831-1.415,3.316-3.384,3.316c-1.969,0-3.381-1.485-3.381-3.316
				c0-1.829,1.412-3.315,3.381-3.315C32.119,12.79,33.534,14.276,33.534,16.105z M30.149,14.421c-0.958,0-1.67,0.755-1.67,1.684
				c0,0.932,0.712,1.686,1.67,1.686c0.958,0,1.672-0.754,1.672-1.686C31.821,15.175,31.107,14.421,30.149,14.421z"/>
			<path id="XMLID_1807_" fill="#B3B3B4" d="M18.166,14.36c-0.024-0.008-0.704-0.196-1.263-0.196c-0.648,0-0.999,0.217-0.999,0.525
				c0,0.391,0.475,0.527,0.74,0.611l0.446,0.142c1.049,0.333,1.526,1.051,1.526,1.832c0,1.607-1.414,2.148-2.651,2.148
				c-0.859,0-1.664-0.158-1.743-0.174v-1.474c0.142,0.036,0.82,0.238,1.526,0.238c0.804,0,1.174-0.235,1.174-0.598
				c0-0.325-0.32-0.511-0.721-0.638c-0.098-0.031-0.245-0.079-0.345-0.111c-0.901-0.285-1.651-0.814-1.651-1.874
				c0-1.198,0.896-2.002,2.386-2.002c0.787,0,1.527,0.191,1.575,0.205V14.36z"/>
		</g>
	</g>
	<path id="XMLID_1804_" fill="#B3B3B4" d="M1.604,6.023c0-0.442-0.36-0.8-0.802-0.8C0.36,5.223,0,5.581,0,6.023v1.68
		c0,0.445,0.36,0.802,0.802,0.802c0.442,0,0.802-0.357,0.802-0.802V6.023z"/>
	<path id="XMLID_1803_" fill="#B3B3B4" d="M6.011,3.817c0-0.441-0.36-0.801-0.802-0.801c-0.442,0-0.801,0.36-0.801,0.801v3.887
		c0,0.445,0.359,0.802,0.801,0.802c0.442,0,0.802-0.357,0.802-0.802V3.817z"/>
	<path id="XMLID_1802_" fill="#B3B3B4" d="M10.417,0.797C10.417,0.356,10.056,0,9.615,0C9.172,0,8.813,0.356,8.813,0.797v8.504
		c0,0.444,0.359,0.8,0.802,0.8c0.442,0,0.802-0.356,0.802-0.8V0.797z"/>
	<path id="XMLID_1798_" fill="#B3B3B4" d="M14.824,3.817c0-0.441-0.361-0.801-0.803-0.801c-0.441,0-0.801,0.36-0.801,0.801v3.887
		c0,0.445,0.36,0.802,0.801,0.802c0.442,0,0.803-0.357,0.803-0.802V3.817z"/>
	<path id="XMLID_1763_" fill="#B3B3B4" d="M19.224,6.023c0-0.442-0.358-0.8-0.797-0.8c-0.442,0-0.802,0.357-0.802,0.8v1.68
		c0,0.445,0.36,0.802,0.802,0.802c0.439,0,0.797-0.357,0.797-0.802V6.023z"/>
	<path id="XMLID_1762_" fill="#B3B3B4" d="M23.633,3.817c0-0.441-0.357-0.801-0.8-0.801c-0.441,0-0.8,0.36-0.8,0.801v3.887
		c0,0.445,0.359,0.802,0.8,0.802c0.442,0,0.8-0.357,0.8-0.802V3.817z"/>
	<path id="XMLID_1761_" fill="#B3B3B4" d="M28.043,0.797C28.043,0.356,27.685,0,27.242,0c-0.441,0-0.799,0.356-0.799,0.797v8.504
		c0,0.444,0.357,0.8,0.799,0.8c0.442,0,0.801-0.356,0.801-0.8V0.797z"/>
	<path id="XMLID_1759_" fill="#B3B3B4" d="M32.451,3.817c0-0.441-0.358-0.801-0.809-0.801c-0.442,0-0.8,0.36-0.8,0.801v3.887
		c0,0.445,0.358,0.802,0.8,0.802c0.452,0,0.809-0.357,0.809-0.802V3.817z"/>
	<path id="XMLID_1758_" fill="#B3B3B4" d="M36.85,6.023c0-0.442-0.359-0.8-0.8-0.8c-0.442,0-0.8,0.357-0.8,0.8v1.68
		c0,0.445,0.358,0.802,0.8,0.802c0.441,0,0.8-0.357,0.8-0.802V6.023z"/>
</g>
</svg>
