<?xml version="1.0" encoding="utf-8"?>
<!-- Generator: Adobe Illustrator 19.0.0, SVG Export Plug-In . SVG Version: 6.00 Build 0)  -->
<svg version="1.1" id="图层_1" xmlns="http://www.w3.org/2000/svg" xmlns:xlink="http://www.w3.org/1999/xlink" x="0px" y="0px"
	 width="59.528px" height="33.579px" viewBox="0 0 59.528 33.579" enable-background="new 0 0 59.528 33.579" xml:space="preserve">
<g id="XMLID_1756_">
	<rect id="XMLID_1834_" x="0.078" y="10.753" fill="#FFFFFF" width="59.45" height="22.827"/>
	<polygon id="XMLID_1831_" fill="#366B83" points="0.078,10.753 59.528,10.753 59.528,33.58 58.335,33.58 58.335,32.155 
		57.338,32.155 57.338,33.58 56.094,33.58 56.094,31.87 55.11,31.87 55.11,33.58 53.866,33.58 53.866,31.105 52.882,31.105 
		52.882,33.58 51.638,33.58 51.638,29.447 50.654,29.447 50.654,33.58 49.41,33.58 49.41,27.076 48.425,27.076 48.425,33.58 
		47.181,33.58 47.181,23.06 46.184,23.06 46.184,33.58 44.953,33.58 44.953,18.383 43.956,18.383 43.956,33.58 42.712,33.58 
		42.712,23.06 41.728,23.06 41.728,33.58 40.484,33.58 40.484,27.076 39.5,27.076 39.5,33.58 38.256,33.58 38.256,29.447 
		37.271,29.447 37.271,33.58 36.027,33.58 36.027,31.105 35.043,31.105 35.043,33.58 33.799,33.58 33.799,31.87 32.801,31.87 
		32.801,33.58 31.558,33.58 31.558,32.155 30.573,32.155 30.573,33.58 29.343,33.58 29.343,32.155 28.358,32.155 28.358,33.58 
		27.114,33.58 27.114,31.87 26.13,31.87 26.13,33.58 24.886,33.58 24.886,31.105 23.902,31.105 23.902,33.58 22.658,33.58 
		22.658,29.447 21.674,29.447 21.674,33.58 20.43,33.58 20.43,27.076 19.432,27.076 19.432,33.58 18.189,33.58 18.189,23.06 
		17.204,23.06 17.204,33.58 15.96,33.58 15.96,18.383 14.975,18.383 14.975,33.58 13.732,33.58 13.732,23.06 12.748,23.06 
		12.748,33.58 11.504,33.58 11.504,27.076 10.52,27.076 10.52,33.58 9.276,33.58 9.276,29.447 8.291,29.447 8.291,33.58 
		7.048,33.58 7.048,31.105 6.05,31.105 6.05,33.58 4.806,33.58 4.806,31.87 3.822,31.87 3.822,33.58 2.578,33.58 2.578,32.155 
		1.593,32.155 1.593,33.58 0.078,33.58 0.078,10.753 	"/>
	<path id="XMLID_1830_" fill="#B3B3B4" d="M3.549,4.095H2.034V2.54c0-0.453-0.013-0.738-0.039-0.854
		C1.956,1.568,1.891,1.516,1.788,1.516c-0.117,0-0.194,0.064-0.233,0.208c-0.026,0.129-0.039,0.427-0.039,0.88v4.172
		c0,0.44,0.013,0.725,0.039,0.855c0.038,0.129,0.103,0.194,0.22,0.194c0.116,0,0.181-0.065,0.207-0.194
		c0.039-0.13,0.052-0.454,0.052-0.946V5.558h1.515v0.35c0,0.932-0.052,1.593-0.129,1.982C3.33,8.278,3.148,8.616,2.863,8.913
		C2.565,9.199,2.215,9.354,1.788,9.354c-0.44,0-0.803-0.13-1.088-0.376C0.428,8.732,0.233,8.395,0.143,7.954
		C0.052,7.515,0,6.854,0,5.973V3.356c0-0.647,0.013-1.139,0.039-1.464c0.026-0.324,0.117-0.635,0.259-0.933
		c0.143-0.297,0.337-0.531,0.583-0.712C1.14,0.078,1.425,0,1.749,0c0.44,0,0.803,0.13,1.088,0.389
		c0.298,0.273,0.479,0.596,0.57,0.998c0.09,0.402,0.142,1.01,0.142,1.853V4.095L3.549,4.095z"/>
	<polygon id="XMLID_1829_" fill="#B3B3B4" points="6.879,2.656 6.879,9.354 5.493,9.354 5.493,2.656 6.879,2.656 	"/>
	<path id="XMLID_1828_" fill="#B3B3B4" d="M11.478,4.535h-1.282V4.042c0-0.232-0.026-0.376-0.052-0.44
		c-0.026-0.064-0.091-0.091-0.155-0.091c-0.078,0-0.143,0.039-0.182,0.13C9.768,3.718,9.742,3.849,9.742,4.017
		c0,0.232,0.026,0.401,0.078,0.505c0.038,0.117,0.181,0.26,0.388,0.415c0.609,0.467,0.985,0.842,1.14,1.14
		c0.155,0.284,0.246,0.763,0.246,1.424c0,0.479-0.052,0.829-0.143,1.05c-0.078,0.233-0.259,0.414-0.505,0.57
		c-0.259,0.155-0.544,0.233-0.881,0.233c-0.376,0-0.687-0.091-0.946-0.272C8.861,8.913,8.693,8.681,8.602,8.408
		C8.524,8.137,8.485,7.747,8.485,7.255v-0.44h1.283v0.816c0,0.246,0.025,0.401,0.052,0.479c0.038,0.064,0.103,0.103,0.194,0.103
		c0.09,0,0.155-0.039,0.194-0.129c0.052-0.092,0.065-0.234,0.065-0.415c0-0.39-0.039-0.648-0.117-0.764
		c-0.09-0.13-0.311-0.324-0.647-0.609c-0.35-0.284-0.57-0.506-0.674-0.635C8.719,5.533,8.628,5.364,8.55,5.131
		C8.485,4.897,8.447,4.612,8.447,4.249c0-0.505,0.052-0.88,0.155-1.127C8.706,2.89,8.874,2.708,9.107,2.566
		c0.22-0.13,0.505-0.194,0.829-0.194c0.363,0,0.66,0.077,0.92,0.22c0.246,0.143,0.414,0.324,0.492,0.558
		c0.091,0.221,0.129,0.596,0.129,1.127V4.535L11.478,4.535z"/>
	<path id="XMLID_1827_" fill="#B3B3B4" d="M16.414,5.428h-1.257V4.263c0-0.337-0.013-0.545-0.038-0.636
		C15.093,3.55,15.04,3.511,14.95,3.511c-0.103,0-0.155,0.052-0.194,0.142c-0.026,0.104-0.039,0.324-0.039,0.674v3.096
		c0,0.337,0.013,0.545,0.039,0.648c0.038,0.091,0.09,0.143,0.194,0.143c0.078,0,0.143-0.052,0.169-0.143
		c0.026-0.103,0.038-0.337,0.038-0.713V6.517h1.257v0.271c0,0.687-0.039,1.179-0.103,1.477c-0.078,0.285-0.233,0.544-0.466,0.765
		c-0.246,0.208-0.531,0.324-0.881,0.324c-0.375,0-0.674-0.091-0.907-0.285c-0.246-0.182-0.401-0.44-0.479-0.764
		c-0.065-0.324-0.104-0.816-0.104-1.477V4.872c0-0.479,0-0.843,0.026-1.089c0.026-0.233,0.091-0.466,0.22-0.687
		c0.117-0.232,0.272-0.401,0.479-0.53c0.207-0.13,0.453-0.194,0.725-0.194c0.363,0,0.661,0.103,0.907,0.298
		c0.233,0.194,0.389,0.44,0.466,0.738c0.078,0.298,0.117,0.764,0.117,1.386V5.428L16.414,5.428z"/>
	<path id="XMLID_1824_" fill="#B3B3B4" d="M19.95,7.307c0,0.402-0.013,0.647-0.039,0.752c-0.026,0.103-0.078,0.155-0.168,0.155
		c-0.091,0-0.142-0.039-0.168-0.129c-0.026-0.092-0.039-0.338-0.039-0.726V4.236c0-0.349,0.026-0.557,0.052-0.622
		c0.039-0.077,0.091-0.103,0.168-0.103c0.078,0,0.13,0.039,0.156,0.13c0.026,0.077,0.039,0.285,0.039,0.596V7.307L19.95,7.307z
		 M21.35,5.286c0-0.686-0.013-1.166-0.039-1.451c-0.026-0.272-0.116-0.531-0.246-0.765c-0.142-0.232-0.324-0.401-0.557-0.518
		c-0.22-0.129-0.479-0.181-0.764-0.181c-0.298,0-0.557,0.064-0.79,0.181c-0.221,0.13-0.402,0.311-0.531,0.544
		c-0.129,0.222-0.208,0.48-0.233,0.766c-0.026,0.271-0.039,0.751-0.039,1.424v1.153c0,0.687,0.013,1.167,0.039,1.438
		c0.026,0.285,0.104,0.531,0.246,0.778c0.142,0.232,0.324,0.4,0.544,0.517c0.233,0.116,0.48,0.182,0.765,0.182
		c0.298,0,0.57-0.065,0.79-0.194c0.22-0.117,0.402-0.298,0.531-0.531c0.143-0.234,0.22-0.479,0.246-0.765
		c0.026-0.284,0.039-0.751,0.039-1.424V5.286L21.35,5.286z"/>
	<path id="XMLID_1822_" fill="#B3B3B4" d="M30.314,2.903h-1.386V2.242c0-0.31-0.026-0.517-0.052-0.596
		c-0.039-0.091-0.091-0.13-0.169-0.13c-0.09,0-0.155,0.052-0.194,0.169c-0.052,0.116-0.078,0.284-0.078,0.517
		c0,0.31,0.026,0.531,0.078,0.687c0.065,0.142,0.194,0.323,0.428,0.544c0.661,0.622,1.062,1.127,1.231,1.516
		c0.181,0.4,0.259,1.036,0.259,1.917c0,0.635-0.039,1.114-0.143,1.412c-0.091,0.311-0.285,0.557-0.544,0.765
		c-0.272,0.208-0.596,0.311-0.958,0.311c-0.402,0-0.738-0.116-1.023-0.363c-0.285-0.232-0.467-0.531-0.557-0.893
		c-0.091-0.376-0.129-0.894-0.129-1.568V5.947h1.399v1.089c0,0.336,0.013,0.556,0.052,0.647c0.039,0.103,0.117,0.143,0.207,0.143
		c0.104,0,0.169-0.052,0.221-0.182c0.039-0.116,0.064-0.298,0.064-0.544c0-0.531-0.039-0.868-0.129-1.037
		c-0.103-0.155-0.337-0.428-0.713-0.816c-0.362-0.375-0.608-0.66-0.725-0.829c-0.129-0.182-0.22-0.414-0.298-0.725
		c-0.091-0.31-0.129-0.7-0.129-1.179c0-0.685,0.064-1.191,0.168-1.503c0.117-0.323,0.298-0.57,0.557-0.751
		C27.995,0.078,28.294,0,28.656,0c0.389,0,0.713,0.092,0.998,0.286c0.259,0.193,0.44,0.44,0.518,0.737
		c0.09,0.299,0.142,0.805,0.142,1.516V2.903L30.314,2.903z"/>
	<path id="XMLID_1820_" fill="#B3B3B4" d="M35.186,2.656l-1.05,4.275v2.423h-1.335V6.931l-1.01-4.275H33.1
		c0.22,1.309,0.337,2.19,0.363,2.643c0.091-0.712,0.22-1.593,0.401-2.643H35.186L35.186,2.656z"/>
	<path id="XMLID_1819_" fill="#B3B3B4" d="M39.292,4.535H38.1V4.042c0-0.232-0.013-0.376-0.039-0.44
		c-0.039-0.064-0.077-0.091-0.155-0.091c-0.065,0-0.13,0.039-0.156,0.13c-0.039,0.077-0.064,0.208-0.064,0.376
		c0,0.232,0.026,0.401,0.064,0.505c0.052,0.117,0.169,0.26,0.363,0.415c0.557,0.467,0.92,0.842,1.062,1.14
		c0.142,0.284,0.22,0.763,0.22,1.424c0,0.479-0.039,0.829-0.117,1.05c-0.09,0.233-0.246,0.414-0.479,0.57
		c-0.233,0.155-0.505,0.233-0.816,0.233c-0.35,0-0.635-0.091-0.881-0.272c-0.233-0.169-0.389-0.401-0.466-0.674
		c-0.078-0.271-0.117-0.661-0.117-1.153v-0.44h1.192v0.816c0,0.246,0.013,0.401,0.052,0.479c0.026,0.064,0.091,0.103,0.169,0.103
		c0.09,0,0.155-0.039,0.194-0.129c0.039-0.092,0.052-0.234,0.052-0.415c0-0.39-0.039-0.648-0.117-0.764
		c-0.077-0.13-0.272-0.324-0.596-0.609c-0.311-0.284-0.518-0.506-0.622-0.635c-0.103-0.129-0.194-0.298-0.259-0.531
		c-0.065-0.233-0.104-0.518-0.104-0.882c0-0.505,0.052-0.88,0.156-1.127c0.09-0.232,0.246-0.414,0.453-0.556
		c0.221-0.13,0.479-0.194,0.778-0.194c0.337,0,0.609,0.077,0.842,0.22c0.233,0.143,0.388,0.324,0.466,0.558
		c0.078,0.221,0.117,0.596,0.117,1.127V4.535L39.292,4.535z"/>
	<polygon id="XMLID_1818_" fill="#B3B3B4" points="43.93,2.656 43.93,4.004 43.178,4.004 43.178,9.354 41.896,9.354 41.896,4.004 
		41.145,4.004 41.145,2.656 43.93,2.656 	"/>
	<polygon id="XMLID_1817_" fill="#B3B3B4" points="46.067,2.656 48.387,2.656 48.387,4.004 47.466,4.004 47.466,5.26 48.334,5.26 
		48.334,6.543 47.466,6.543 47.466,8.007 48.477,8.007 48.477,9.354 46.067,9.354 46.067,2.656 	"/>
	<path id="XMLID_1816_" fill="#B3B3B4" d="M54.682,2.656v6.699h-1.114l-0.013-4.521l-0.44,4.521h-0.79l-0.467-4.418v4.418h-1.127
		V2.656h1.658c0.052,0.402,0.104,0.882,0.155,1.425l0.182,1.697l0.285-3.122H54.682L54.682,2.656z"/>
	<path id="XMLID_1815_" fill="#B3B3B4" d="M59.333,4.535h-1.192V4.042c0-0.232-0.013-0.376-0.039-0.44
		c-0.026-0.064-0.078-0.091-0.143-0.091c-0.077,0-0.129,0.039-0.168,0.13c-0.039,0.077-0.052,0.208-0.052,0.376
		c0,0.232,0.013,0.401,0.064,0.505c0.039,0.117,0.168,0.26,0.363,0.415c0.557,0.467,0.907,0.842,1.05,1.14
		c0.156,0.284,0.22,0.763,0.22,1.424c0,0.479-0.039,0.829-0.117,1.05c-0.078,0.233-0.246,0.414-0.479,0.57
		c-0.233,0.155-0.506,0.233-0.816,0.233c-0.337,0-0.635-0.091-0.868-0.272c-0.247-0.169-0.402-0.401-0.479-0.674
		c-0.078-0.271-0.104-0.661-0.104-1.153v-0.44h1.179v0.816c0,0.246,0.026,0.401,0.052,0.479c0.039,0.064,0.091,0.103,0.182,0.103
		c0.078,0,0.143-0.039,0.181-0.129c0.039-0.092,0.065-0.234,0.065-0.415c0-0.39-0.039-0.648-0.117-0.764
		c-0.09-0.13-0.285-0.324-0.596-0.609c-0.324-0.284-0.531-0.506-0.635-0.635c-0.103-0.129-0.182-0.298-0.246-0.531
		c-0.078-0.233-0.103-0.518-0.103-0.882c0-0.505,0.052-0.88,0.143-1.127c0.091-0.232,0.246-0.414,0.466-0.556
		c0.207-0.13,0.467-0.194,0.765-0.194c0.336,0,0.621,0.077,0.855,0.22c0.233,0.143,0.389,0.324,0.467,0.558
		c0.064,0.221,0.104,0.596,0.104,1.127V4.535L59.333,4.535z"/>
</g>
</svg>
