<?xml version="1.0" encoding="utf-8"?>
<!-- Generator: Adobe Illustrator 19.0.0, SVG Export Plug-In . SVG Version: 6.00 Build 0)  -->
<svg version="1.1" id="图层_1" xmlns="http://www.w3.org/2000/svg" xmlns:xlink="http://www.w3.org/1999/xlink" x="0px" y="0px"
	 width="51.024px" height="12.813px" viewBox="0 0 51.024 12.813" enable-background="new 0 0 51.024 12.813" xml:space="preserve">
<g id="XMLID_467_">
	<polygon id="XMLID_477_" fill="#B3B3B4" points="11.706,0.067 11.706,5.275 4.291,5.275 4.291,0.067 0,0.067 0,12.812 
		4.291,12.812 4.291,7.604 11.706,7.604 11.706,12.812 15.994,12.812 15.994,0.067 	"/>
	<path id="XMLID_470_" fill="#B3B3B4" d="M30.181,6.44c1.551-0.662,2.519-1.632,2.519-2.733c0-2.041-3.309-3.639-7.535-3.639h-6.805
		v1.877h6.805c1.345,0,2.479,0.823,2.479,1.794c0,0.966-1.12,1.782-2.451,1.795c-0.008,0-0.016,0-0.029,0H19.61v1.815h5.556l0,0
		c1.345,0,2.479,0.853,2.479,1.824c0,0.972-1.135,1.763-2.479,1.763l0,0h-6.805v1.877h6.805c4.226,0,7.535-1.598,7.535-3.638
		C32.701,8.071,31.732,7.103,30.181,6.44z"/>
	<path id="XMLID_468_" fill="#B3B3B4" d="M44.863,2.138h6.161V0h-8.992v0.002c-4.23,0.024-7.666,2.871-7.666,6.371
		c0,3.5,3.435,6.348,7.666,6.371v0.003h8.992v-2.138h-5.699v-0.001c-3.115,0-5.645-1.903-5.645-4.244
		C39.68,4.141,41.966,2.314,44.863,2.138z"/>
</g>
</svg>
