<?xml version="1.0" encoding="utf-8"?>
<!-- Generator: Adobe Illustrator 19.0.0, SVG Export Plug-In . SVG Version: 6.00 Build 0)  -->
<svg version="1.1" id="图层_1" xmlns="http://www.w3.org/2000/svg" xmlns:xlink="http://www.w3.org/1999/xlink" x="0px" y="0px"
	 width="29.514px" height="6.837px" viewBox="0 0 29.514 6.837" enable-background="new 0 0 29.514 6.837" xml:space="preserve">
<g id="XMLID_1572_">
	<path id="XMLID_1574_" fill="#464646" stroke="#B9B9B9" stroke-width="0.75" stroke-miterlimit="10" d="M24.908,6.462H4.605
		c-0.317,0-0.623-0.096-0.859-0.268L0.801,4.035C0.53,3.836,0.375,3.553,0.375,3.256V1.422c0-0.578,0.575-1.047,1.285-1.047h26.195
		c0.709,0,1.285,0.469,1.285,1.047v1.835c0,0.297-0.155,0.58-0.426,0.778l-2.946,2.159C25.531,6.366,25.225,6.462,24.908,6.462z"/>
	<rect id="XMLID_1595_" x="4.484" y="2.817" fill="#FFFFFF" width="19.962" height="1.023"/>
	<g id="XMLID_1575_">
		<rect id="XMLID_1576_" x="4.484" y="2.817" fill="#9C9C9C" width="0.526" height="1.023"/>
		<rect id="XMLID_1577_" x="5.507" y="2.817" fill="#9C9C9C" width="0.526" height="1.023"/>
		<rect id="XMLID_1578_" x="6.53" y="2.817" fill="#9C9C9C" width="0.526" height="1.023"/>
		<rect id="XMLID_1579_" x="7.553" y="2.817" fill="#9C9C9C" width="0.526" height="1.023"/>
		<rect id="XMLID_1580_" x="8.576" y="2.817" fill="#9C9C9C" width="0.526" height="1.023"/>
		<rect id="XMLID_1581_" x="9.599" y="2.817" fill="#9C9C9C" width="0.526" height="1.023"/>
		<rect id="XMLID_1582_" x="10.622" y="2.817" fill="#9C9C9C" width="0.526" height="1.023"/>
		<rect id="XMLID_1583_" x="11.645" y="2.817" fill="#9C9C9C" width="0.526" height="1.023"/>
		<rect id="XMLID_1584_" x="12.667" y="2.817" fill="#9C9C9C" width="0.526" height="1.023"/>
		<rect id="XMLID_1585_" x="13.69" y="2.817" fill="#9C9C9C" width="0.526" height="1.023"/>
		<rect id="XMLID_1586_" x="14.713" y="2.817" fill="#9C9C9C" width="0.526" height="1.023"/>
		<rect id="XMLID_1587_" x="15.736" y="2.817" fill="#9C9C9C" width="0.526" height="1.023"/>
		<rect id="XMLID_1588_" x="16.759" y="2.817" fill="#9C9C9C" width="0.526" height="1.023"/>
		<rect id="XMLID_1589_" x="17.782" y="2.817" fill="#9C9C9C" width="0.526" height="1.023"/>
		<rect id="XMLID_1590_" x="18.805" y="2.817" fill="#9C9C9C" width="0.526" height="1.023"/>
		<rect id="XMLID_1591_" x="19.828" y="2.817" fill="#9C9C9C" width="0.526" height="1.023"/>
		<rect id="XMLID_1592_" x="20.851" y="2.817" fill="#9C9C9C" width="0.526" height="1.023"/>
		<rect id="XMLID_1593_" x="21.874" y="2.817" fill="#9C9C9C" width="0.526" height="1.023"/>
		<rect id="XMLID_1594_" x="22.897" y="2.817" fill="#9C9C9C" width="0.526" height="1.023"/>
		<rect id="XMLID_1596_" x="23.92" y="2.817" fill="#9C9C9C" width="0.526" height="1.023"/>
	</g>
</g>
</svg>
