<?xml version="1.0" encoding="utf-8"?>
<!-- Generator: Adobe Illustrator 19.0.0, SVG Export Plug-In . SVG Version: 6.00 Build 0)  -->
<svg version="1.1" id="图层_1" xmlns="http://www.w3.org/2000/svg" xmlns:xlink="http://www.w3.org/1999/xlink" x="0px" y="0px"
	 width="19.344px" height="8.816px" viewBox="0 0 19.344 8.816" enable-background="new 0 0 19.344 8.816" xml:space="preserve">
<g id="XMLID_1184_">
	<path id="XMLID_1193_" fill="#000200" stroke="#B9B9B9" stroke-width="0.5" stroke-miterlimit="10" d="M18.533,0.25H0.809
		C0.5,0.25,0.25,0.476,0.25,0.756v3.118c0,0.279,0.25,0.506,0.559,0.506h0.056c0.309,0,0.559,0.226,0.559,0.506V8.06
		c0,0.279,0.25,0.506,0.559,0.506h15.432c0.309,0,0.559-0.226,0.559-0.506V4.886c0-0.279,0.25-0.506,0.559-0.506l0,0
		c0.309,0,0.559-0.226,0.559-0.506V0.756C19.093,0.476,18.842,0.25,18.533,0.25z"/>
	<path id="XMLID_1195_" fill="none" stroke="#B9B9B9" stroke-width="0.5" stroke-miterlimit="10" d="M18.533,0.25H0.809
		C0.5,0.25,0.25,0.476,0.25,0.756v3.118c0,0.279,0.25,0.506,0.559,0.506h0.056c0.309,0,0.559,0.226,0.559,0.506V8.06
		c0,0.279,0.25,0.506,0.559,0.506h15.432c0.309,0,0.559-0.226,0.559-0.506V4.886c0-0.279,0.25-0.506,0.559-0.506l0,0
		c0.309,0,0.559-0.226,0.559-0.506V0.756C19.093,0.476,18.842,0.25,18.533,0.25z"/>
	<path id="XMLID_1187_" fill="#686868" d="M16.744,7.941H2.599c-0.157,0-0.283-0.127-0.283-0.283V3.068
		c0-0.157,0.127-0.283,0.283-0.283h14.145c0.157,0,0.283,0.127,0.283,0.283v4.589C17.027,7.814,16.901,7.941,16.744,7.941z"/>
	<rect id="XMLID_1194_" x="3.603" y="4.207" fill="#000200" width="1.387" height="2.312"/>
	<rect id="XMLID_1197_" x="6.29" y="4.207" fill="#000200" width="1.387" height="2.312"/>
	<rect id="XMLID_1198_" x="8.978" y="4.207" fill="#000200" width="1.387" height="2.312"/>
	<rect id="XMLID_1199_" x="11.665" y="4.207" fill="#000200" width="1.387" height="2.312"/>
	<rect id="XMLID_1200_" x="14.353" y="4.207" fill="#000200" width="1.387" height="2.312"/>
	<rect id="XMLID_1207_" x="3.729" y="5.066" fill="#B9B9B9" width="1.134" height="0.594"/>
	<rect id="XMLID_1206_" x="6.417" y="5.066" fill="#B9B9B9" width="1.134" height="0.594"/>
	<rect id="XMLID_1205_" x="9.104" y="5.066" fill="#B9B9B9" width="1.134" height="0.594"/>
	<rect id="XMLID_1204_" x="11.792" y="5.066" fill="#B9B9B9" width="1.134" height="0.594"/>
	<rect id="XMLID_1202_" x="14.479" y="5.066" fill="#B9B9B9" width="1.134" height="0.594"/>
</g>
</svg>
