<?xml version="1.0" encoding="utf-8"?>
<!-- Generator: Adobe Illustrator 19.0.0, SVG Export Plug-In . SVG Version: 6.00 Build 0)  -->
<svg version="1.1" id="图层_1" xmlns="http://www.w3.org/2000/svg" xmlns:xlink="http://www.w3.org/1999/xlink" x="0px" y="0px"
	 width="20.341px" height="5.499px" viewBox="0 0 20.341 5.499" enable-background="new 0 0 20.341 5.499" xml:space="preserve">
<g id="XMLID_1213_">
	<g id="XMLID_1196_">
		<path id="XMLID_432_" fill="#353735" d="M3.218,5.252c-0.334,0-0.645-0.145-0.852-0.397L0.487,2.577
			C0.334,2.391,0.25,2.159,0.25,1.922v-0.62c0-0.58,0.489-1.052,1.089-1.052h17.664c0.601,0,1.089,0.472,1.089,1.052v0.62
			c0,0.237-0.084,0.47-0.237,0.655l-1.879,2.279c-0.208,0.252-0.518,0.396-0.852,0.396H3.218z"/>
		<path id="XMLID_429_" fill="#B9B9B9" d="M19.003,0.5c0.463,0,0.839,0.359,0.839,0.802v0.62c0,0.18-0.063,0.355-0.18,0.496
			l-1.879,2.279c-0.159,0.193-0.402,0.306-0.659,0.306H3.218c-0.257,0-0.5-0.113-0.659-0.306L0.68,2.418
			C0.563,2.276,0.5,2.102,0.5,1.922v-0.62C0.5,0.859,0.876,0.5,1.339,0.5H19.003 M19.003,0H1.339C0.601,0,0,0.584,0,1.302v0.62
			c0,0.295,0.104,0.584,0.294,0.814l1.879,2.279c0.255,0.31,0.636,0.488,1.045,0.488h13.906c0.409,0,0.79-0.178,1.045-0.488
			l1.879-2.279c0.19-0.23,0.294-0.519,0.294-0.814v-0.62C20.343,0.584,19.742,0,19.003,0L19.003,0z"/>
	</g>
	<rect id="XMLID_1201_" x="4.939" y="0.5" fill="#000200" width="10.465" height="2.251"/>
	<g id="XMLID_1221_">
		<rect id="XMLID_1216_" x="5.388" y="2.158" fill="#B9B9B9" width="0.913" height="0.594"/>
		<rect id="XMLID_1215_" x="7.551" y="2.158" fill="#B9B9B9" width="0.913" height="0.594"/>
		<rect id="XMLID_1214_" x="9.715" y="2.158" fill="#B9B9B9" width="0.913" height="0.594"/>
		<rect id="XMLID_1212_" x="11.878" y="2.158" fill="#B9B9B9" width="0.913" height="0.594"/>
		<rect id="XMLID_1211_" x="14.042" y="2.158" fill="#B9B9B9" width="0.913" height="0.594"/>
	</g>
</g>
</svg>
