<?xml version="1.0" encoding="utf-8"?>
<!-- Generator: Adobe Illustrator 16.0.0, SVG Export Plug-In . SVG Version: 6.00 Build 0)  -->
<!DOCTYPE svg PUBLIC "-//W3C//DTD SVG 1.1//EN" "http://www.w3.org/Graphics/SVG/1.1/DTD/svg11.dtd">
<svg version="1.1" id="图层_1" xmlns="http://www.w3.org/2000/svg" xmlns:xlink="http://www.w3.org/1999/xlink" x="0px" y="0px"
	 width="26.668px" height="22px" viewBox="0 0 26.668 22" enable-background="new 0 0 26.668 22" xml:space="preserve">
<g>
	<rect fill="#080304" width="26.668" height="22"/>
	<rect x="1" y="1" fill="#080304" width="25.668" height="21"/>
	<rect x="1" y="1" fill="#7D7D7E" width="24.5" height="20.045"/>
	<g>
		<polygon fill="#080304" points="13.006,7.627 13.006,5.484 11.11,5.484 10.039,5.484 10.039,2.684 5.26,2.684 5.26,5.484 
			4.188,5.484 2.294,5.484 2.294,7.627 4.188,7.627 4.188,9.439 2.294,9.439 2.294,20.316 4.188,20.316 11.11,20.316 13.006,20.316 
			13.006,9.439 11.11,9.439 11.11,7.627 		"/>
		<g>
			<circle fill="#949494" cx="7.649" cy="15.168" r="4.327"/>
			<circle fill="#0A0505" cx="7.649" cy="15.168" r="3.172"/>
			<circle fill="#686A69" cx="7.649" cy="15.168" r="2.15"/>
		</g>
	</g>
	<g>
		<polygon fill="#080304" points="24.377,7.627 24.377,5.484 22.481,5.484 21.412,5.484 21.412,2.684 16.632,2.684 16.632,5.484 
			15.56,5.484 13.664,5.484 13.664,7.627 15.56,7.627 15.56,9.439 13.664,9.439 13.664,20.316 15.56,20.316 22.481,20.316 
			24.377,20.316 24.377,9.439 22.481,9.439 22.481,7.627 		"/>
		<g>
			<circle fill="#949494" cx="19.021" cy="15.168" r="4.326"/>
			<circle fill="#0A0505" cx="19.021" cy="15.168" r="3.173"/>
			<circle fill="#686A69" cx="19.021" cy="15.168" r="2.15"/>
		</g>
	</g>
</g>
</svg>
