<?xml version="1.0" encoding="utf-8"?>
<!-- Generator: Adobe Illustrator 16.0.0, SVG Export Plug-In . SVG Version: 6.00 Build 0)  -->
<!DOCTYPE svg PUBLIC "-//W3C//DTD SVG 1.1//EN" "http://www.w3.org/Graphics/SVG/1.1/DTD/svg11.dtd">
<svg version="1.1" id="图层_1" xmlns="http://www.w3.org/2000/svg" xmlns:xlink="http://www.w3.org/1999/xlink" x="0px" y="0px"
	 width="95.251px" height="19.707px" viewBox="0 0 95.251 19.707" enable-background="new 0 0 95.251 19.707" xml:space="preserve">
<g>
	<rect width="95.251" height="19.707"/>
	<rect x="1" y="1.08" fill="#D1D1D1" width="93.251" height="17.547"/>
	<circle fill="#B2B2B2" cx="7.669" cy="10.582" r="4.813"/>
	<g>
		<rect x="5.168" y="9.707" width="5" height="1.75"/>
		<rect x="6.794" y="8.082" width="1.748" height="5"/>
	</g>
	<circle fill="#B2B2B2" cx="87.334" cy="10.582" r="4.813"/>
	<g>
		<rect x="84.835" y="9.707" width="5" height="1.75"/>
		<rect x="86.458" y="8.082" width="1.752" height="5"/>
	</g>
	<path fill="#080304" d="M21.015,17.207c-1.752,0-3.427-1.416-3.812-3.225l-1.7-7.995c-0.227-1.074-0.018-2.118,0.574-2.865
		c0.531-0.671,1.32-1.042,2.217-1.042h58.664c0.898,0,1.686,0.371,2.217,1.042c0.594,0.747,0.801,1.791,0.574,2.865l-1.701,7.995
		c-0.385,1.809-2.059,3.225-3.811,3.225H21.015z"/>
	<path fill="#B2B2B2" d="M77.56,13.867c-0.336,1.549-1.818,2.777-3.322,2.777H21.015c-1.504,0-2.986-1.229-3.322-2.777l-1.699-7.861
		c-0.385-1.77,0.643-3.236,2.301-3.236h58.664c1.658,0,2.682,1.467,2.301,3.236L77.56,13.867z"/>
	<path fill="#565958" d="M21.015,15.645c-1.039,0-2.112-0.91-2.344-1.988l-1.702-7.863c-0.13-0.609-0.032-1.178,0.276-1.557
		c0.244-0.305,0.607-0.467,1.049-0.467h58.664c0.44,0,0.804,0.162,1.049,0.467c0.309,0.379,0.409,0.947,0.275,1.559l-1.699,7.861
		c-0.234,1.078-1.307,1.988-2.346,1.988H21.015z"/>
	<g>
		<rect x="20.346" y="6.504" fill="#080304" width="2.188" height="2.188"/>
		<rect x="21.44" y="7.598" fill="#9E9E9E" width="1.094" height="1.094"/>
	</g>
	<g>
		<rect x="23.283" y="6.504" fill="#080304" width="2.188" height="2.188"/>
		<rect x="24.378" y="7.598" fill="#9E9E9E" width="1.094" height="1.094"/>
	</g>
	<g>
		<rect x="26.22" y="6.504" fill="#080304" width="2.189" height="2.188"/>
		<rect x="27.315" y="7.598" fill="#9E9E9E" width="1.094" height="1.094"/>
	</g>
	<g>
		<rect x="29.157" y="6.504" fill="#080304" width="2.188" height="2.188"/>
		<rect x="30.252" y="7.598" fill="#9E9E9E" width="1.094" height="1.094"/>
	</g>
	<g>
		<rect x="32.097" y="6.504" fill="#080304" width="2.187" height="2.188"/>
		<rect x="33.189" y="7.598" fill="#9E9E9E" width="1.094" height="1.094"/>
	</g>
	<g>
		<rect x="35.034" y="6.504" fill="#080304" width="2.186" height="2.188"/>
		<rect x="36.126" y="7.598" fill="#9E9E9E" width="1.094" height="1.094"/>
	</g>
	<g>
		<rect x="37.972" y="6.504" fill="#080304" width="2.186" height="2.188"/>
		<rect x="39.065" y="7.598" fill="#9E9E9E" width="1.092" height="1.094"/>
	</g>
	<g>
		<rect x="40.909" y="6.504" fill="#080304" width="2.188" height="2.188"/>
		<rect x="42.003" y="7.598" fill="#9E9E9E" width="1.094" height="1.094"/>
	</g>
	<g>
		<rect x="43.847" y="6.504" fill="#080304" width="2.188" height="2.188"/>
		<rect x="44.94" y="7.598" fill="#9E9E9E" width="1.094" height="1.094"/>
	</g>
	<g>
		<rect x="46.783" y="6.504" fill="#080304" width="2.188" height="2.188"/>
		<rect x="47.878" y="7.598" fill="#9E9E9E" width="1.094" height="1.094"/>
	</g>
	<g>
		<rect x="49.721" y="6.504" fill="#080304" width="2.188" height="2.188"/>
		<rect x="50.814" y="7.598" fill="#9E9E9E" width="1.095" height="1.094"/>
	</g>
	<g>
		<rect x="52.657" y="6.504" fill="#080304" width="2.189" height="2.188"/>
		<rect x="53.752" y="7.598" fill="#9E9E9E" width="1.095" height="1.094"/>
	</g>
	<g>
		<rect x="55.597" y="6.504" fill="#080304" width="2.187" height="2.188"/>
		<rect x="56.688" y="7.598" fill="#9E9E9E" width="1.095" height="1.094"/>
	</g>
	<g>
		<rect x="58.534" y="6.504" fill="#080304" width="2.187" height="2.188"/>
		<rect x="59.626" y="7.598" fill="#9E9E9E" width="1.095" height="1.094"/>
	</g>
	<g>
		<rect x="61.472" y="6.504" fill="#080304" width="2.186" height="2.188"/>
		<rect x="62.565" y="7.598" fill="#9E9E9E" width="1.092" height="1.094"/>
	</g>
	<g>
		<rect x="64.409" y="6.504" fill="#080304" width="2.188" height="2.188"/>
		<rect x="65.503" y="7.598" fill="#9E9E9E" width="1.094" height="1.094"/>
	</g>
	<g>
		<rect x="67.346" y="6.504" fill="#080304" width="2.188" height="2.188"/>
		<rect x="68.44" y="7.598" fill="#9E9E9E" width="1.094" height="1.094"/>
	</g>
	<g>
		<rect x="70.283" y="6.504" fill="#080304" width="2.188" height="2.188"/>
		<rect x="71.378" y="7.598" fill="#9E9E9E" width="1.094" height="1.094"/>
	</g>
	<g>
		<rect x="73.22" y="6.504" fill="#080304" width="2.189" height="2.188"/>
		<rect x="74.315" y="7.598" fill="#9E9E9E" width="1.094" height="1.094"/>
	</g>
	<g>
		<rect x="20.346" y="11.285" fill="#080304" width="2.188" height="2.188"/>
		<rect x="21.44" y="12.379" fill="#9E9E9E" width="1.094" height="1.094"/>
	</g>
	<g>
		<rect x="23.283" y="11.285" fill="#080304" width="2.188" height="2.188"/>
		<rect x="24.378" y="12.379" fill="#9E9E9E" width="1.094" height="1.094"/>
	</g>
	<g>
		<rect x="26.22" y="11.285" fill="#080304" width="2.189" height="2.188"/>
		<rect x="27.315" y="12.379" fill="#9E9E9E" width="1.094" height="1.094"/>
	</g>
	<g>
		<rect x="29.157" y="11.285" fill="#080304" width="2.188" height="2.188"/>
		<rect x="30.252" y="12.379" fill="#9E9E9E" width="1.094" height="1.094"/>
	</g>
	<g>
		<rect x="32.097" y="11.285" fill="#080304" width="2.187" height="2.188"/>
		<rect x="33.189" y="12.379" fill="#9E9E9E" width="1.094" height="1.094"/>
	</g>
	<g>
		<rect x="35.034" y="11.285" fill="#080304" width="2.186" height="2.188"/>
		<rect x="36.126" y="12.379" fill="#9E9E9E" width="1.094" height="1.094"/>
	</g>
	<g>
		<rect x="37.972" y="11.285" fill="#080304" width="2.186" height="2.188"/>
		<rect x="39.065" y="12.379" fill="#9E9E9E" width="1.092" height="1.094"/>
	</g>
	<g>
		<rect x="40.909" y="11.285" fill="#080304" width="2.188" height="2.188"/>
		<rect x="42.003" y="12.379" fill="#9E9E9E" width="1.094" height="1.094"/>
	</g>
	<g>
		<rect x="43.847" y="11.285" fill="#080304" width="2.188" height="2.188"/>
		<rect x="44.94" y="12.379" fill="#9E9E9E" width="1.094" height="1.094"/>
	</g>
	<g>
		<rect x="46.783" y="11.285" fill="#080304" width="2.188" height="2.188"/>
		<rect x="47.878" y="12.379" fill="#9E9E9E" width="1.094" height="1.094"/>
	</g>
	<g>
		<rect x="49.721" y="11.285" fill="#080304" width="2.188" height="2.188"/>
		<rect x="50.814" y="12.379" fill="#9E9E9E" width="1.095" height="1.094"/>
	</g>
	<g>
		<rect x="52.657" y="11.285" fill="#080304" width="2.189" height="2.188"/>
		<rect x="53.752" y="12.379" fill="#9E9E9E" width="1.095" height="1.094"/>
	</g>
	<g>
		<rect x="55.597" y="11.285" fill="#080304" width="2.187" height="2.188"/>
		<rect x="56.688" y="12.379" fill="#9E9E9E" width="1.095" height="1.094"/>
	</g>
	<g>
		<rect x="58.534" y="11.285" fill="#080304" width="2.187" height="2.188"/>
		<rect x="59.626" y="12.379" fill="#9E9E9E" width="1.095" height="1.094"/>
	</g>
	<g>
		<rect x="61.472" y="11.285" fill="#080304" width="2.186" height="2.188"/>
		<rect x="62.565" y="12.379" fill="#9E9E9E" width="1.092" height="1.094"/>
	</g>
	<g>
		<rect x="64.409" y="11.285" fill="#080304" width="2.188" height="2.188"/>
		<rect x="65.503" y="12.379" fill="#9E9E9E" width="1.094" height="1.094"/>
	</g>
	<g>
		<rect x="67.346" y="11.285" fill="#080304" width="2.188" height="2.188"/>
		<rect x="68.44" y="12.379" fill="#9E9E9E" width="1.094" height="1.094"/>
	</g>
	<g>
		<rect x="70.283" y="11.285" fill="#080304" width="2.188" height="2.188"/>
		<rect x="71.378" y="12.379" fill="#9E9E9E" width="1.094" height="1.094"/>
	</g>
	<g>
		<rect x="73.22" y="11.285" fill="#080304" width="2.189" height="2.188"/>
		<rect x="74.315" y="12.379" fill="#9E9E9E" width="1.094" height="1.094"/>
	</g>
</g>
</svg>
