<?xml version="1.0" encoding="utf-8"?>
<!-- Generator: Adobe Illustrator 19.0.0, SVG Export Plug-In . SVG Version: 6.00 Build 0)  -->
<svg version="1.1" id="图层_1" xmlns="http://www.w3.org/2000/svg" xmlns:xlink="http://www.w3.org/1999/xlink" x="0px" y="0px"
	 width="154.735px" height="43.937px" viewBox="0 0 154.735 43.937" enable-background="new 0 0 154.735 43.937"
	 xml:space="preserve">
<g id="XMLID_118_">
	<path id="XMLID_123_" fill="#B2B1B1" stroke="#000000" stroke-miterlimit="10" d="M145.731,43.437H9.004
		c-4.677,0-8.504-3.827-8.504-8.504V9.004C0.5,4.327,4.327,0.5,9.004,0.5h136.727c4.677,0,8.504,3.827,8.504,8.504v25.929
		C154.235,39.61,150.408,43.437,145.731,43.437z"/>
	<g id="XMLID_777_">
		
			<ellipse id="XMLID_122_" fill="#B1B0B0" stroke="#050001" stroke-miterlimit="10" cx="13.964" cy="22.302" rx="3.752" ry="3.783"/>
		<ellipse id="XMLID_121_" fill="#565958" cx="13.964" cy="22.302" rx="2.757" ry="2.779"/>
		<g id="XMLID_120_">
			<polygon id="XMLID_139_" fill="#808080" points="15.585,21.9 14.362,21.9 14.362,20.668 13.566,20.668 13.566,21.9 12.343,21.9 
				12.343,22.703 13.566,22.703 13.566,23.936 14.362,23.936 14.362,22.703 15.585,22.703 			"/>
			<polygon id="XMLID_138_" fill="#221714" points="14.362,20.668 13.566,20.668 13.566,21.9 12.343,21.9 12.343,22.703 
				13.566,22.703 13.566,23.936 14.362,23.936 14.362,22.703 15.585,22.703 15.585,21.9 14.362,21.9 14.362,20.668 			"/>
		</g>
	</g>
	<g id="XMLID_796_">
		
			<ellipse id="XMLID_816_" fill="#B1B0B0" stroke="#050001" stroke-miterlimit="10" cx="139.821" cy="22.302" rx="3.752" ry="3.783"/>
		<ellipse id="XMLID_815_" fill="#565958" cx="139.821" cy="22.302" rx="2.757" ry="2.779"/>
		<g id="XMLID_797_">
			<polygon id="XMLID_136_" fill="#808080" points="141.442,21.9 140.219,21.9 140.219,20.668 139.423,20.668 139.423,21.9 
				138.2,21.9 138.2,22.703 139.423,22.703 139.423,23.936 140.219,23.936 140.219,22.703 141.442,22.703 			"/>
			<polygon id="XMLID_135_" fill="#221714" points="140.219,20.668 139.423,20.668 139.423,21.9 138.2,21.9 138.2,22.703 
				139.423,22.703 139.423,23.936 140.219,23.936 140.219,22.703 141.442,22.703 141.442,21.9 140.219,21.9 140.219,20.668 			"/>
		</g>
	</g>
	<path id="XMLID_771_" fill="#565958" stroke="#000000" stroke-miterlimit="10" d="M120.334,34.651H34.139
		c-2.902,0-5.385-2.043-5.893-4.848l-2.35-12.98c-0.652-3.6,2.168-6.904,5.893-6.904h91.156c3.771,0,6.603,3.382,5.872,7.014
		l-2.611,12.98C125.652,32.666,123.193,34.651,120.334,34.651z"/>
	<path id="XMLID_926_" fill="#343537" d="M119.401,32.811H35.116c-2.42,0-4.492-1.736-4.915-4.12l-1.96-11.03
		c-0.544-3.059,1.809-5.867,4.915-5.867h88.422c3.145,0,5.507,2.874,4.898,5.961l-2.178,11.03
		C123.836,31.124,121.785,32.811,119.401,32.811z"/>
	<ellipse id="XMLID_927_" cx="38.425" cy="22.122" rx="5.514" ry="5.532"/>
	<ellipse id="XMLID_928_" fill="#B2B1B1" cx="38.425" cy="22.122" rx="4.271" ry="4.285"/>
	<ellipse id="XMLID_929_" cx="38.425" cy="22.122" rx="1.764" ry="1.77"/>
	<ellipse id="XMLID_933_" cx="56.304" cy="22.122" rx="5.514" ry="5.532"/>
	<ellipse id="XMLID_932_" fill="#B2B1B1" cx="56.304" cy="22.122" rx="4.271" ry="4.285"/>
	<ellipse id="XMLID_931_" cx="56.304" cy="22.122" rx="1.764" ry="1.77"/>
	<g id="XMLID_119_">
		<ellipse id="XMLID_937_" cx="69.977" cy="18.184" rx="1.764" ry="1.77"/>
		<ellipse id="XMLID_938_" cx="77.345" cy="18.184" rx="1.764" ry="1.77"/>
		<ellipse id="XMLID_939_" cx="84.713" cy="18.184" rx="1.764" ry="1.77"/>
		<ellipse id="XMLID_940_" cx="92.082" cy="18.184" rx="1.764" ry="1.77"/>
		<ellipse id="XMLID_941_" cx="99.45" cy="18.184" rx="1.764" ry="1.77"/>
		<ellipse id="XMLID_946_" cx="73.506" cy="25.932" rx="1.764" ry="1.77"/>
		<ellipse id="XMLID_945_" cx="80.874" cy="25.932" rx="1.764" ry="1.77"/>
		<ellipse id="XMLID_944_" cx="88.242" cy="25.932" rx="1.764" ry="1.77"/>
		<ellipse id="XMLID_943_" cx="95.611" cy="25.932" rx="1.764" ry="1.77"/>
		<ellipse id="XMLID_942_" cx="102.979" cy="25.932" rx="1.764" ry="1.77"/>
	</g>
	<g id="XMLID_798_">
		<ellipse id="XMLID_956_" fill="#B2B1B1" cx="70.977" cy="19.184" rx="1.764" ry="1.77"/>
		<ellipse id="XMLID_949_" fill="#B2B1B1" cx="78.346" cy="19.184" rx="1.764" ry="1.77"/>
		<ellipse id="XMLID_948_" fill="#B2B1B1" cx="85.714" cy="19.184" rx="1.764" ry="1.77"/>
		<ellipse id="XMLID_947_" fill="#B2B1B1" cx="93.082" cy="19.184" rx="1.764" ry="1.77"/>
		<ellipse id="XMLID_930_" fill="#B2B1B1" cx="100.451" cy="19.184" rx="1.764" ry="1.77"/>
		<ellipse id="XMLID_822_" fill="#B2B1B1" cx="74.506" cy="26.933" rx="1.764" ry="1.77"/>
		<ellipse id="XMLID_821_" fill="#B2B1B1" cx="81.875" cy="26.933" rx="1.764" ry="1.77"/>
		<ellipse id="XMLID_820_" fill="#B2B1B1" cx="89.243" cy="26.933" rx="1.764" ry="1.77"/>
		<ellipse id="XMLID_814_" fill="#B2B1B1" cx="96.611" cy="26.933" rx="1.764" ry="1.77"/>
		<ellipse id="XMLID_805_" fill="#B2B1B1" cx="103.98" cy="26.933" rx="1.764" ry="1.77"/>
	</g>
	<ellipse id="XMLID_936_" cx="116.427" cy="22.122" rx="5.514" ry="5.532"/>
	<ellipse id="XMLID_935_" fill="#B2B1B1" cx="116.427" cy="22.122" rx="4.271" ry="4.285"/>
	<ellipse id="XMLID_934_" cx="116.427" cy="22.122" rx="1.764" ry="1.77"/>
</g>
</svg>
