<?xml version="1.0" encoding="utf-8"?>
<!-- Generator: Adobe Illustrator 19.0.0, SVG Export Plug-In . SVG Version: 6.00 Build 0)  -->
<svg version="1.1" id="图层_1" xmlns="http://www.w3.org/2000/svg" xmlns:xlink="http://www.w3.org/1999/xlink" x="0px" y="0px"
	 width="141.732px" height="37.644px" viewBox="0 0 141.732 37.644" enable-background="new 0 0 141.732 37.644"
	 xml:space="preserve">
<g id="XMLID_1069_">
	<path id="XMLID_784_" fill="#161719" stroke="#B9B9B9" stroke-miterlimit="10" d="M126.427,37.143H15.305
		c-5.783,0-10.739-3.835-11.775-9.112L0.697,13.586C-0.64,6.772,5.004,0.5,12.471,0.5h116.79c7.467,0,13.111,6.272,11.775,13.086
		l-2.834,14.445C137.167,33.307,132.211,37.143,126.427,37.143z"/>
	<g id="XMLID_1049_">
		<path id="XMLID_1071_" fill="#1F3162" d="M15.305,34.705c-4.64,0-8.598-3.006-9.411-7.15L3.06,13.111
			c-0.462-2.354,0.145-4.709,1.708-6.636c1.825-2.247,4.633-3.536,7.703-3.536h116.789c3.071,0,5.879,1.289,7.703,3.536
			c1.563,1.926,2.169,4.282,1.709,6.636l-2.833,14.445c-0.814,4.144-4.77,7.15-9.411,7.15H15.305z"/>
		<path id="XMLID_1070_" fill="#1F3162" d="M15.305,34.705c-4.64,0-8.598-3.006-9.411-7.15L3.06,13.111
			c-0.462-2.354,0.145-4.709,1.708-6.636c1.825-2.247,4.633-3.536,7.703-3.536h116.789c3.071,0,5.879,1.289,7.703,3.536
			c1.563,1.926,2.169,4.282,1.709,6.636l-2.833,14.445c-0.814,4.144-4.77,7.15-9.411,7.15H15.305z"/>
	</g>
	<rect id="XMLID_785_" x="10.667" y="12.135" fill="#4776A3" width="118.769" height="12.658"/>
	<g id="XMLID_786_">
		<rect id="XMLID_787_" x="15.154" y="14.881" width="3.778" height="2.15"/>
		<rect id="XMLID_788_" x="21.352" y="14.881" width="3.778" height="2.15"/>
		<rect id="XMLID_789_" x="27.55" y="14.881" width="3.778" height="2.15"/>
		<rect id="XMLID_790_" x="33.748" y="14.881" width="3.778" height="2.15"/>
		<rect id="XMLID_1018_" x="39.946" y="14.881" width="3.778" height="2.15"/>
		<rect id="XMLID_1022_" x="46.144" y="14.881" width="3.778" height="2.15"/>
		<rect id="XMLID_1037_" x="52.343" y="14.881" width="3.778" height="2.15"/>
		<rect id="XMLID_1038_" x="58.541" y="14.881" width="3.778" height="2.15"/>
		<rect id="XMLID_1039_" x="64.739" y="14.881" width="3.778" height="2.15"/>
		<rect id="XMLID_1040_" x="70.937" y="14.881" width="3.778" height="2.15"/>
		<rect id="XMLID_1041_" x="77.135" y="14.881" width="3.778" height="2.15"/>
		<rect id="XMLID_1042_" x="83.334" y="14.881" width="3.778" height="2.15"/>
		<rect id="XMLID_1043_" x="89.532" y="14.881" width="3.778" height="2.15"/>
		<rect id="XMLID_1044_" x="95.73" y="14.881" width="3.778" height="2.15"/>
		<rect id="XMLID_1045_" x="101.928" y="14.881" width="3.778" height="2.15"/>
		<rect id="XMLID_1046_" x="108.126" y="14.881" width="3.778" height="2.15"/>
		<rect id="XMLID_1047_" x="114.324" y="14.881" width="3.778" height="2.15"/>
		<rect id="XMLID_1048_" x="120.523" y="14.881" width="3.778" height="2.15"/>
	</g>
	<g id="XMLID_1072_">
		<rect id="XMLID_1090_" x="15.154" y="11.463" fill="#787676" width="3.778" height="0.672"/>
		<rect id="XMLID_1089_" x="21.352" y="11.463" fill="#787676" width="3.778" height="0.672"/>
		<rect id="XMLID_1088_" x="27.55" y="11.463" fill="#787676" width="3.778" height="0.672"/>
		<rect id="XMLID_1087_" x="33.748" y="11.463" fill="#787676" width="3.778" height="0.672"/>
		<rect id="XMLID_1086_" x="39.946" y="11.463" fill="#787676" width="3.778" height="0.672"/>
		<rect id="XMLID_1085_" x="46.144" y="11.463" fill="#787676" width="3.778" height="0.672"/>
		<rect id="XMLID_1084_" x="52.343" y="11.463" fill="#787676" width="3.778" height="0.672"/>
		<rect id="XMLID_1083_" x="58.541" y="11.463" fill="#787676" width="3.778" height="0.672"/>
		<rect id="XMLID_1082_" x="64.739" y="11.463" fill="#787676" width="3.778" height="0.672"/>
		<rect id="XMLID_1081_" x="70.937" y="11.463" fill="#787676" width="3.778" height="0.672"/>
		<rect id="XMLID_1080_" x="77.135" y="11.463" fill="#787676" width="3.778" height="0.672"/>
		<rect id="XMLID_1079_" x="83.334" y="11.463" fill="#787676" width="3.778" height="0.672"/>
		<rect id="XMLID_1078_" x="89.532" y="11.463" fill="#787676" width="3.778" height="0.672"/>
		<rect id="XMLID_1077_" x="95.73" y="11.463" fill="#787676" width="3.778" height="0.672"/>
		<rect id="XMLID_1076_" x="101.928" y="11.463" fill="#787676" width="3.778" height="0.672"/>
		<rect id="XMLID_1075_" x="108.126" y="11.463" fill="#787676" width="3.778" height="0.672"/>
		<rect id="XMLID_1074_" x="114.324" y="11.463" fill="#787676" width="3.778" height="0.672"/>
		<rect id="XMLID_1073_" x="120.523" y="11.463" fill="#787676" width="3.778" height="0.672"/>
	</g>
	<g id="XMLID_1112_">
		<rect id="XMLID_1130_" x="15.154" y="10.798" width="3.778" height="0.672"/>
		<rect id="XMLID_1129_" x="21.352" y="10.798" width="3.778" height="0.672"/>
		<rect id="XMLID_1128_" x="27.55" y="10.798" width="3.778" height="0.672"/>
		<rect id="XMLID_1127_" x="33.748" y="10.798" width="3.778" height="0.672"/>
		<rect id="XMLID_1126_" x="39.946" y="10.798" width="3.778" height="0.672"/>
		<rect id="XMLID_1125_" x="46.144" y="10.798" width="3.778" height="0.672"/>
		<rect id="XMLID_1124_" x="52.343" y="10.798" width="3.778" height="0.672"/>
		<rect id="XMLID_1123_" x="58.541" y="10.798" width="3.778" height="0.672"/>
		<rect id="XMLID_1122_" x="64.739" y="10.798" width="3.778" height="0.672"/>
		<rect id="XMLID_1121_" x="70.937" y="10.798" width="3.778" height="0.672"/>
		<rect id="XMLID_1120_" x="77.135" y="10.798" width="3.778" height="0.672"/>
		<rect id="XMLID_1119_" x="83.334" y="10.798" width="3.778" height="0.672"/>
		<rect id="XMLID_1118_" x="89.532" y="10.798" width="3.778" height="0.672"/>
		<rect id="XMLID_1117_" x="95.73" y="10.798" width="3.778" height="0.672"/>
		<rect id="XMLID_1116_" x="101.928" y="10.798" width="3.778" height="0.672"/>
		<rect id="XMLID_1115_" x="108.126" y="10.798" width="3.778" height="0.672"/>
		<rect id="XMLID_1114_" x="114.324" y="10.798" width="3.778" height="0.672"/>
		<rect id="XMLID_1113_" x="120.523" y="10.798" width="3.778" height="0.672"/>
	</g>
	<g id="XMLID_1131_">
		<rect id="XMLID_1149_" x="15.154" y="25.465" width="3.778" height="0.672"/>
		<rect id="XMLID_1148_" x="21.352" y="25.465" width="3.778" height="0.672"/>
		<rect id="XMLID_1147_" x="27.55" y="25.465" width="3.778" height="0.672"/>
		<rect id="XMLID_1146_" x="33.748" y="25.465" width="3.778" height="0.672"/>
		<rect id="XMLID_1145_" x="39.946" y="25.465" width="3.778" height="0.672"/>
		<rect id="XMLID_1144_" x="46.144" y="25.465" width="3.778" height="0.672"/>
		<rect id="XMLID_1143_" x="52.343" y="25.465" width="3.778" height="0.672"/>
		<rect id="XMLID_1142_" x="58.541" y="25.465" width="3.778" height="0.672"/>
		<rect id="XMLID_1141_" x="64.739" y="25.465" width="3.778" height="0.672"/>
		<rect id="XMLID_1140_" x="70.937" y="25.465" width="3.778" height="0.672"/>
		<rect id="XMLID_1139_" x="77.135" y="25.465" width="3.778" height="0.672"/>
		<rect id="XMLID_1138_" x="83.334" y="25.465" width="3.778" height="0.672"/>
		<rect id="XMLID_1137_" x="89.532" y="25.465" width="3.778" height="0.672"/>
		<rect id="XMLID_1136_" x="95.73" y="25.465" width="3.778" height="0.672"/>
		<rect id="XMLID_1135_" x="101.928" y="25.465" width="3.778" height="0.672"/>
		<rect id="XMLID_1134_" x="108.126" y="25.465" width="3.778" height="0.672"/>
		<rect id="XMLID_1133_" x="114.324" y="25.465" width="3.778" height="0.672"/>
		<rect id="XMLID_1132_" x="120.523" y="25.465" width="3.778" height="0.672"/>
	</g>
	<g id="XMLID_1091_">
		<rect id="XMLID_1109_" x="15.154" y="24.793" fill="#787676" width="3.778" height="0.672"/>
		<rect id="XMLID_1108_" x="21.352" y="24.793" fill="#787676" width="3.778" height="0.672"/>
		<rect id="XMLID_1107_" x="27.55" y="24.793" fill="#787676" width="3.778" height="0.672"/>
		<rect id="XMLID_1106_" x="33.748" y="24.793" fill="#787676" width="3.778" height="0.672"/>
		<rect id="XMLID_1105_" x="39.946" y="24.793" fill="#787676" width="3.778" height="0.672"/>
		<rect id="XMLID_1104_" x="46.144" y="24.793" fill="#787676" width="3.778" height="0.672"/>
		<rect id="XMLID_1103_" x="52.343" y="24.793" fill="#787676" width="3.778" height="0.672"/>
		<rect id="XMLID_1102_" x="58.541" y="24.793" fill="#787676" width="3.778" height="0.672"/>
		<rect id="XMLID_1101_" x="64.739" y="24.793" fill="#787676" width="3.778" height="0.672"/>
		<rect id="XMLID_1100_" x="70.937" y="24.793" fill="#787676" width="3.778" height="0.672"/>
		<rect id="XMLID_1099_" x="77.135" y="24.793" fill="#787676" width="3.778" height="0.672"/>
		<rect id="XMLID_1098_" x="83.334" y="24.793" fill="#787676" width="3.778" height="0.672"/>
		<rect id="XMLID_1097_" x="89.532" y="24.793" fill="#787676" width="3.778" height="0.672"/>
		<rect id="XMLID_1096_" x="95.73" y="24.793" fill="#787676" width="3.778" height="0.672"/>
		<rect id="XMLID_1095_" x="101.928" y="24.793" fill="#787676" width="3.778" height="0.672"/>
		<rect id="XMLID_1094_" x="108.126" y="24.793" fill="#787676" width="3.778" height="0.672"/>
		<rect id="XMLID_1093_" x="114.324" y="24.793" fill="#787676" width="3.778" height="0.672"/>
		<rect id="XMLID_1092_" x="120.523" y="24.793" fill="#787676" width="3.778" height="0.672"/>
	</g>
	<g id="XMLID_1050_">
		<rect id="XMLID_1068_" x="15.154" y="20.255" width="3.778" height="2.15"/>
		<rect id="XMLID_1067_" x="21.352" y="20.255" width="3.778" height="2.15"/>
		<rect id="XMLID_1066_" x="27.55" y="20.255" width="3.778" height="2.15"/>
		<rect id="XMLID_1065_" x="33.748" y="20.255" width="3.778" height="2.15"/>
		<rect id="XMLID_1064_" x="39.946" y="20.255" width="3.778" height="2.15"/>
		<rect id="XMLID_1063_" x="46.144" y="20.255" width="3.778" height="2.15"/>
		<rect id="XMLID_1062_" x="52.343" y="20.255" width="3.778" height="2.15"/>
		<rect id="XMLID_1061_" x="58.541" y="20.255" width="3.778" height="2.15"/>
		<rect id="XMLID_1060_" x="64.739" y="20.255" width="3.778" height="2.15"/>
		<rect id="XMLID_1059_" x="70.937" y="20.255" width="3.778" height="2.15"/>
		<rect id="XMLID_1058_" x="77.135" y="20.255" width="3.778" height="2.15"/>
		<rect id="XMLID_1057_" x="83.334" y="20.255" width="3.778" height="2.15"/>
		<rect id="XMLID_1056_" x="89.532" y="20.255" width="3.778" height="2.15"/>
		<rect id="XMLID_1055_" x="95.73" y="20.255" width="3.778" height="2.15"/>
		<rect id="XMLID_1054_" x="101.928" y="20.255" width="3.778" height="2.15"/>
		<rect id="XMLID_1053_" x="108.126" y="20.255" width="3.778" height="2.15"/>
		<rect id="XMLID_1052_" x="114.324" y="20.255" width="3.778" height="2.15"/>
		<rect id="XMLID_1051_" x="120.523" y="20.255" width="3.778" height="2.15"/>
	</g>
</g>
</svg>
