<?xml version="1.0" encoding="utf-8"?>
<!-- Generator: Adobe Illustrator 19.0.0, SVG Export Plug-In . SVG Version: 6.00 Build 0)  -->
<svg version="1.1" id="图层_1" xmlns="http://www.w3.org/2000/svg" xmlns:xlink="http://www.w3.org/1999/xlink" x="0px" y="0px"
	 width="51.571px" height="42.517px" viewBox="0 0 51.571 42.517" enable-background="new 0 0 51.571 42.517" xml:space="preserve">
<g id="XMLID_901_">
	<polygon id="XMLID_923_" fill="#B2B1B1" stroke="#000000" stroke-miterlimit="10" points="51.068,23.594 0.5,23.584 0.502,18.171 
		51.071,18.175 	"/>
	<path id="XMLID_915_" fill="#080304" d="M4.525,21.259C4.525,9.521,14.044,0,25.784,0c11.739,0,21.261,9.521,21.261,21.259
		c0,11.741-9.522,21.259-21.261,21.259C14.044,42.518,4.525,33,4.525,21.259z"/>
	<path id="XMLID_914_" fill="#DEDEDD" d="M6.217,21.259c0-10.806,8.76-19.565,19.567-19.565s19.567,8.759,19.567,19.565
		c0,10.809-8.76,19.569-19.567,19.569S6.217,32.068,6.217,21.259z"/>
	<path id="XMLID_913_" fill="#9E9E9E" d="M7.883,21.259c0-9.888,8.01-17.901,17.901-17.901c9.894,0,17.905,8.013,17.905,17.901
		c0,9.895-8.011,17.908-17.905,17.908C15.893,39.167,7.883,31.154,7.883,21.259z"/>
	<path id="XMLID_911_" fill="#1E1F1F" d="M8.555,21.259c0-9.512,7.716-17.229,17.229-17.229c9.517,0,17.232,7.717,17.232,17.229
		c0,9.517-7.716,17.228-17.232,17.228C16.27,38.487,8.555,30.775,8.555,21.259z"/>
	<circle id="XMLID_910_" fill="#3F3F41" cx="25.784" cy="21.26" r="8.944"/>
	<path id="XMLID_909_" fill="#DEDEDD" d="M17.411,21.259c0-4.62,3.747-8.37,8.373-8.37c4.625,0,8.372,3.75,8.372,8.37
		c0,4.629-3.747,8.374-8.372,8.374C21.158,29.632,17.411,25.887,17.411,21.259z"/>
	<path id="XMLID_908_" d="M18.784,21.258c0-3.865,3.133-6.994,7-6.994s6.999,3.129,6.999,6.994c0,3.869-3.133,6.999-6.999,6.999
		S18.784,25.127,18.784,21.258z"/>
	<circle id="XMLID_900_" fill="#DEDEDD" cx="25.784" cy="21.26" r="2.186"/>
</g>
</svg>
