<?xml version="1.0" encoding="utf-8"?>
<!-- Generator: Adobe Illustrator 19.0.0, SVG Export Plug-In . SVG Version: 6.00 Build 0)  -->
<svg version="1.1" id="图层_1" xmlns="http://www.w3.org/2000/svg" xmlns:xlink="http://www.w3.org/1999/xlink" x="0px" y="0px"
	 width="153.071px" height="14.74px" viewBox="0 0 153.071 14.74" enable-background="new 0 0 153.071 14.74" xml:space="preserve">
<g id="XMLID_464_">
	<g id="XMLID_978_">
		<g id="XMLID_1011_">
			<rect id="XMLID_485_" x="0.5" y="0.5" fill="#343537" width="152.071" height="13.74"/>
			<path id="XMLID_482_" d="M152.071,1v12.74H1V1H152.071 M153.071,0h-1H1H0v1v12.74v1h1h151.071h1v-1V1V0L153.071,0z"/>
		</g>
		<rect id="XMLID_1010_" x="1" y="2.824" fill="#9E9E9E" width="2.642" height="9.452"/>
		<rect id="XMLID_1009_" x="1" y="3.328" fill="#343537" width="2.253" height="8.443"/>
		<rect id="XMLID_1008_" x="150.429" y="2.747" fill="#9E9E9E" width="2.642" height="9.452"/>
		<rect id="XMLID_984_" x="150.818" y="3.328" fill="#343537" width="2.253" height="8.443"/>
	</g>
	<g id="XMLID_986_">
		<polygon id="XMLID_1007_" fill="#B2B1B1" points="10.599,4.699 10.599,2.644 6.794,2.644 6.794,4.699 8.274,4.699 8.274,10.041 
			6.794,10.041 6.794,12.096 10.599,12.096 10.599,10.041 9.119,10.041 9.119,4.699 		"/>
		<polygon id="XMLID_1006_" fill="#B2B1B1" points="15.801,4.699 15.801,2.644 11.996,2.644 11.996,4.699 13.476,4.699 
			13.476,10.041 11.996,10.041 11.996,12.096 15.801,12.096 15.801,10.041 14.321,10.041 14.321,4.699 		"/>
		<polygon id="XMLID_1005_" fill="#B2B1B1" points="21.003,4.699 21.003,2.644 17.198,2.644 17.198,4.699 18.678,4.699 
			18.678,10.041 17.198,10.041 17.198,12.096 21.003,12.096 21.003,10.041 19.523,10.041 19.523,4.699 		"/>
		<polygon id="XMLID_1004_" fill="#B2B1B1" points="26.205,4.699 26.205,2.644 22.4,2.644 22.4,4.699 23.88,4.699 23.88,10.041 
			22.4,10.041 22.4,12.096 26.205,12.096 26.205,10.041 24.725,10.041 24.725,4.699 		"/>
		<polygon id="XMLID_1003_" fill="#B2B1B1" points="31.407,4.699 31.407,2.644 27.602,2.644 27.602,4.699 29.082,4.699 
			29.082,10.041 27.602,10.041 27.602,12.096 31.407,12.096 31.407,10.041 29.927,10.041 29.927,4.699 		"/>
		<polygon id="XMLID_1002_" fill="#B2B1B1" points="36.609,4.699 36.609,2.644 32.804,2.644 32.804,4.699 34.284,4.699 
			34.284,10.041 32.804,10.041 32.804,12.096 36.609,12.096 36.609,10.041 35.129,10.041 35.129,4.699 		"/>
		<polygon id="XMLID_1001_" fill="#B2B1B1" points="41.811,4.699 41.811,2.644 38.006,2.644 38.006,4.699 39.486,4.699 
			39.486,10.041 38.006,10.041 38.006,12.096 41.811,12.096 41.811,10.041 40.331,10.041 40.331,4.699 		"/>
		<polygon id="XMLID_1000_" fill="#B2B1B1" points="47.013,4.699 47.013,2.644 43.208,2.644 43.208,4.699 44.688,4.699 
			44.688,10.041 43.208,10.041 43.208,12.096 47.013,12.096 47.013,10.041 45.533,10.041 45.533,4.699 		"/>
		<polygon id="XMLID_999_" fill="#B2B1B1" points="52.215,4.699 52.215,2.644 48.41,2.644 48.41,4.699 49.89,4.699 49.89,10.041 
			48.41,10.041 48.41,12.096 52.215,12.096 52.215,10.041 50.735,10.041 50.735,4.699 		"/>
		<polygon id="XMLID_998_" fill="#B2B1B1" points="57.417,4.699 57.417,2.644 53.612,2.644 53.612,4.699 55.092,4.699 
			55.092,10.041 53.612,10.041 53.612,12.096 57.417,12.096 57.417,10.041 55.937,10.041 55.937,4.699 		"/>
		<polygon id="XMLID_997_" fill="#B2B1B1" points="62.619,4.699 62.619,2.644 58.814,2.644 58.814,4.699 60.294,4.699 
			60.294,10.041 58.814,10.041 58.814,12.096 62.619,12.096 62.619,10.041 61.139,10.041 61.139,4.699 		"/>
		<polygon id="XMLID_996_" fill="#B2B1B1" points="67.821,4.699 67.821,2.644 64.016,2.644 64.016,4.699 65.496,4.699 
			65.496,10.041 64.016,10.041 64.016,12.096 67.821,12.096 67.821,10.041 66.341,10.041 66.341,4.699 		"/>
		<polygon id="XMLID_995_" fill="#B2B1B1" points="73.023,4.699 73.023,2.644 69.218,2.644 69.218,4.699 70.698,4.699 
			70.698,10.041 69.218,10.041 69.218,12.096 73.023,12.096 73.023,10.041 71.543,10.041 71.543,4.699 		"/>
		<polygon id="XMLID_994_" fill="#B2B1B1" points="78.225,4.699 78.225,2.644 74.42,2.644 74.42,4.699 75.9,4.699 75.9,10.041 
			74.42,10.041 74.42,12.096 78.225,12.096 78.225,10.041 76.745,10.041 76.745,4.699 		"/>
		<polygon id="XMLID_993_" fill="#B2B1B1" points="83.427,4.699 83.427,2.644 79.622,2.644 79.622,4.699 81.102,4.699 
			81.102,10.041 79.622,10.041 79.622,12.096 83.427,12.096 83.427,10.041 81.947,10.041 81.947,4.699 		"/>
		<polygon id="XMLID_992_" fill="#B2B1B1" points="88.629,4.699 88.629,2.644 84.824,2.644 84.824,4.699 86.304,4.699 
			86.304,10.041 84.824,10.041 84.824,12.096 88.629,12.096 88.629,10.041 87.149,10.041 87.149,4.699 		"/>
		<polygon id="XMLID_991_" fill="#B2B1B1" points="93.831,4.699 93.831,2.644 90.026,2.644 90.026,4.699 91.506,4.699 
			91.506,10.041 90.026,10.041 90.026,12.096 93.831,12.096 93.831,10.041 92.351,10.041 92.351,4.699 		"/>
		<polygon id="XMLID_1021_" fill="#B2B1B1" points="99.459,4.699 99.459,2.644 95.654,2.644 95.654,4.699 97.134,4.699 
			97.134,10.041 95.654,10.041 95.654,12.096 99.459,12.096 99.459,10.041 97.979,10.041 97.979,4.699 		"/>
		<polygon id="XMLID_1020_" fill="#B2B1B1" points="104.661,4.699 104.661,2.644 100.856,2.644 100.856,4.699 102.336,4.699 
			102.336,10.041 100.856,10.041 100.856,12.096 104.661,12.096 104.661,10.041 103.181,10.041 103.181,4.699 		"/>
		<polygon id="XMLID_1019_" fill="#B2B1B1" points="109.863,4.699 109.863,2.644 106.058,2.644 106.058,4.699 107.538,4.699 
			107.538,10.041 106.058,10.041 106.058,12.096 109.863,12.096 109.863,10.041 108.383,10.041 108.383,4.699 		"/>
		<polygon id="XMLID_1017_" fill="#B2B1B1" points="115.065,4.699 115.065,2.644 111.26,2.644 111.26,4.699 112.74,4.699 
			112.74,10.041 111.26,10.041 111.26,12.096 115.065,12.096 115.065,10.041 113.585,10.041 113.585,4.699 		"/>
		<polygon id="XMLID_1016_" fill="#B2B1B1" points="120.267,4.699 120.267,2.644 116.462,2.644 116.462,4.699 117.942,4.699 
			117.942,10.041 116.462,10.041 116.462,12.096 120.267,12.096 120.267,10.041 118.787,10.041 118.787,4.699 		"/>
		<polygon id="XMLID_1015_" fill="#B2B1B1" points="125.469,4.699 125.469,2.644 121.664,2.644 121.664,4.699 123.144,4.699 
			123.144,10.041 121.664,10.041 121.664,12.096 125.469,12.096 125.469,10.041 123.989,10.041 123.989,4.699 		"/>
		<polygon id="XMLID_1014_" fill="#B2B1B1" points="130.671,4.699 130.671,2.644 126.866,2.644 126.866,4.699 128.346,4.699 
			128.346,10.041 126.866,10.041 126.866,12.096 130.671,12.096 130.671,10.041 129.191,10.041 129.191,4.699 		"/>
		<polygon id="XMLID_1013_" fill="#B2B1B1" points="135.873,4.699 135.873,2.644 132.068,2.644 132.068,4.699 133.548,4.699 
			133.548,10.041 132.068,10.041 132.068,12.096 135.873,12.096 135.873,10.041 134.393,10.041 134.393,4.699 		"/>
		<polygon id="XMLID_1012_" fill="#B2B1B1" points="141.075,4.699 141.075,2.644 137.27,2.644 137.27,4.699 138.75,4.699 
			138.75,10.041 137.27,10.041 137.27,12.096 141.075,12.096 141.075,10.041 139.595,10.041 139.595,4.699 		"/>
		<polygon id="XMLID_982_" fill="#B2B1B1" points="146.277,4.699 146.277,2.644 142.472,2.644 142.472,4.699 143.952,4.699 
			143.952,10.041 142.472,10.041 142.472,12.096 146.277,12.096 146.277,10.041 144.797,10.041 144.797,4.699 		"/>
	</g>
	<rect id="XMLID_985_" x="4.586" y="6.933" fill="#B2B1B1" width="143.898" height="0.873"/>
</g>
</svg>
