<?xml version="1.0" encoding="utf-8"?>
<!-- Generator: Adobe Illustrator 19.0.0, SVG Export Plug-In . SVG Version: 6.00 Build 0)  -->
<svg version="1.1" id="图层_1" xmlns="http://www.w3.org/2000/svg" xmlns:xlink="http://www.w3.org/1999/xlink" x="0px" y="0px"
	 width="42.52px" height="42.52px" viewBox="0 0 42.52 42.52" enable-background="new 0 0 42.52 42.52" xml:space="preserve">
<g id="XMLID_769_">
	<path id="XMLID_778_" fill="#231815" d="M42.52,21.26c0,11.741-9.517,21.259-21.256,21.259C9.523,42.519,0,33.002,0,21.26
		S9.523,0,21.264,0C33.003,0,42.52,9.519,42.52,21.26z"/>
	<path id="XMLID_228_" fill="#898989" d="M40.634,21.26c0,10.7-8.673,19.373-19.37,19.373c-10.7,0-19.378-8.673-19.378-19.373
		S10.564,1.886,21.264,1.886C31.961,1.886,40.634,10.56,40.634,21.26z"/>
	<path id="XMLID_768_" fill="#231815" d="M39.793,21.26c0,10.236-8.297,18.532-18.53,18.532c-10.236,0-18.537-8.297-18.537-18.532
		S11.028,2.727,21.263,2.727C31.497,2.727,39.793,11.025,39.793,21.26z"/>
	<path id="XMLID_791_" fill="#54504F" d="M33.497,27.255h3.813c0.699-1.869,1.099-3.883,1.099-5.995
		c0-8.121-5.651-14.907-13.229-16.682v4.364H18.28V4.388C10.234,5.802,4.112,12.809,4.112,21.26c0,2.112,0.4,4.127,1.099,5.995
		h3.812v5.991H9.01c3.114,3.181,7.451,5.161,12.253,5.161c4.802,0,9.137-1.98,12.249-5.161h-0.016V27.255z"/>
	<circle id="XMLID_770_" fill="#231815" cx="14.035" cy="12.817" r="2.847"/>
	<circle id="XMLID_772_" fill="#231815" cx="10.312" cy="21.591" r="2.847"/>
	<circle id="XMLID_774_" fill="#231815" cx="28.026" cy="12.817" r="2.847"/>
	<circle id="XMLID_773_" fill="#231815" cx="32.207" cy="21.591" r="2.847"/>
	<rect id="XMLID_775_" x="15.433" y="27.255" fill="#231815" width="12.593" height="5.991"/>
</g>
</svg>
