<?xml version="1.0" encoding="utf-8"?>
<!-- Generator: Adobe Illustrator 19.0.0, SVG Export Plug-In . SVG Version: 6.00 Build 0)  -->
<svg version="1.1" id="图层_1" xmlns="http://www.w3.org/2000/svg" xmlns:xlink="http://www.w3.org/1999/xlink" x="0px" y="0px"
	 width="51.024px" height="26.291px" viewBox="0 0 51.024 26.291" enable-background="new 0 0 51.024 26.291" xml:space="preserve">
<g id="XMLID_744_">
	<path id="XMLID_745_" fill="#161719" stroke="#B9B9B9" stroke-miterlimit="10" d="M42.593,25.791H8.431
		c-4.857,0-8.573-4.074-7.838-8.594L2.279,6.834C2.872,3.191,6.201,0.5,10.116,0.5h30.791c3.916,0,7.245,2.691,7.838,6.334
		l1.686,10.362C51.166,21.716,47.45,25.791,42.593,25.791z"/>
	<g id="XMLID_756_">
		<path id="XMLID_1110_" fill="#565958" d="M8.43,24.09c-1.921,0-3.705-0.803-4.895-2.202c-1.073-1.262-1.522-2.831-1.264-4.418
			L3.957,7.108C4.412,4.31,7.06,2.201,10.117,2.201h30.791c3.056,0,5.704,2.108,6.159,4.906l1.686,10.362
			c0.258,1.587-0.19,3.156-1.264,4.418c-1.19,1.399-2.974,2.202-4.895,2.202H8.43z"/>
		<path id="XMLID_781_" fill="none" stroke="#000000" stroke-miterlimit="10" d="M8.43,24.09c-1.921,0-3.705-0.803-4.895-2.202
			c-1.073-1.262-1.522-2.831-1.264-4.418L3.957,7.108C4.412,4.31,7.06,2.201,10.117,2.201h30.791c3.056,0,5.704,2.108,6.159,4.906
			l1.686,10.362c0.258,1.587-0.19,3.156-1.264,4.418c-1.19,1.399-2.974,2.202-4.895,2.202H8.43z"/>
	</g>
	<g id="XMLID_746_">
		<ellipse id="XMLID_747_" cx="12.867" cy="8.858" rx="2.33" ry="2.314"/>
		<ellipse id="XMLID_748_" cx="21.297" cy="8.858" rx="2.33" ry="2.314"/>
		<ellipse id="XMLID_749_" cx="29.727" cy="8.858" rx="2.33" ry="2.314"/>
		<ellipse id="XMLID_750_" cx="38.156" cy="8.858" rx="2.33" ry="2.314"/>
	</g>
	<g id="XMLID_751_">
		<ellipse id="XMLID_755_" cx="8.653" cy="16.174" rx="2.33" ry="2.314"/>
		<ellipse id="XMLID_754_" cx="17.082" cy="16.174" rx="2.33" ry="2.314"/>
		<ellipse id="XMLID_753_" cx="25.512" cy="16.174" rx="2.33" ry="2.314"/>
		<ellipse id="XMLID_752_" cx="33.941" cy="16.174" rx="2.33" ry="2.314"/>
		<ellipse id="XMLID_757_" cx="42.371" cy="16.174" rx="2.33" ry="2.314"/>
	</g>
	<g id="XMLID_764_">
		<ellipse id="XMLID_780_" fill="#B2B1B1" cx="13.522" cy="9.515" rx="1.984" ry="1.97"/>
		<ellipse id="XMLID_767_" fill="#B2B1B1" cx="21.952" cy="9.515" rx="1.984" ry="1.97"/>
		<ellipse id="XMLID_766_" fill="#B2B1B1" cx="30.381" cy="9.515" rx="1.984" ry="1.97"/>
		<ellipse id="XMLID_765_" fill="#B2B1B1" cx="38.811" cy="9.515" rx="1.984" ry="1.97"/>
	</g>
	<g id="XMLID_758_">
		<ellipse id="XMLID_763_" fill="#B2B1B1" cx="9.307" cy="16.831" rx="1.984" ry="1.97"/>
		<ellipse id="XMLID_762_" fill="#B2B1B1" cx="17.737" cy="16.831" rx="1.984" ry="1.97"/>
		<ellipse id="XMLID_761_" fill="#B2B1B1" cx="26.167" cy="16.831" rx="1.984" ry="1.97"/>
		<ellipse id="XMLID_760_" fill="#B2B1B1" cx="34.596" cy="16.831" rx="1.984" ry="1.97"/>
		<ellipse id="XMLID_759_" fill="#B2B1B1" cx="43.026" cy="16.831" rx="1.984" ry="1.97"/>
	</g>
</g>
</svg>
