<?xml version="1.0" encoding="utf-8"?>
<!-- Generator: Adobe Illustrator 19.0.0, SVG Export Plug-In . SVG Version: 6.00 Build 0)  -->
<svg version="1.1" id="图层_1" xmlns="http://www.w3.org/2000/svg" xmlns:xlink="http://www.w3.org/1999/xlink" x="0px" y="0px"
	 width="31.816px" height="14.584px" viewBox="0 0 31.816 14.584" enable-background="new 0 0 31.816 14.584" xml:space="preserve">
<g id="XMLID_823_">
	<path id="XMLID_817_" fill="#B2B1B1" stroke="#000000" stroke-width="0.5" stroke-miterlimit="10" d="M29.722,14.333H6.349
		c-0.948,0-1.856-0.363-2.517-1.007l-2.459-2.395C0.653,10.23,0.25,9.29,0.25,8.312V6.274c0-0.98,0.404-1.921,1.125-2.624
		l2.457-2.393C4.493,0.613,5.401,0.25,6.349,0.25h23.373c1.018,0,1.843,0.781,1.843,1.744v10.595
		C31.565,13.552,30.74,14.333,29.722,14.333z"/>
	<g id="XMLID_818_">
		<rect id="XMLID_185_" x="5.751" y="4.196" fill="#565958" width="20.416" height="6.117"/>
		<path id="XMLID_182_" d="M25.917,4.447v5.617H6.001V4.447H25.917 M26.417,3.947h-0.5H6.001h-0.5v0.5v5.617v0.5h0.5h19.915h0.5
			v-0.5V4.447V3.947L26.417,3.947z"/>
	</g>
	<rect id="XMLID_819_" x="8.787" y="4.447" fill="#B2B1B1" width="3.096" height="1.123"/>
	<rect id="XMLID_824_" x="14.411" y="4.447" fill="#B2B1B1" width="3.096" height="1.123"/>
	<rect id="XMLID_825_" x="20.035" y="4.447" fill="#B2B1B1" width="3.096" height="1.123"/>
	<rect id="XMLID_828_" x="8.787" y="8.94" fill="#B2B1B1" width="3.096" height="1.123"/>
	<rect id="XMLID_827_" x="14.411" y="8.94" fill="#B2B1B1" width="3.096" height="1.123"/>
	<rect id="XMLID_826_" x="20.035" y="8.94" fill="#B2B1B1" width="3.096" height="1.123"/>
</g>
</svg>
