<?xml version="1.0" encoding="utf-8"?>
<!-- Generator: Adobe Illustrator 19.0.0, SVG Export Plug-In . SVG Version: 6.00 Build 0)  -->
<svg version="1.1" id="图层_1" xmlns="http://www.w3.org/2000/svg" xmlns:xlink="http://www.w3.org/1999/xlink" x="0px" y="0px"
	 width="42.52px" height="42.52px" viewBox="0 0 42.52 42.52" enable-background="new 0 0 42.52 42.52" xml:space="preserve">
<g id="XMLID_97_">
	<path id="XMLID_800_" fill="#231815" d="M42.52,21.26c0,11.741-9.517,21.259-21.256,21.259C9.523,42.519,0,33.002,0,21.26
		S9.523,0,21.264,0C33.003,0,42.52,9.519,42.52,21.26z"/>
	<path id="XMLID_799_" fill="#898989" d="M40.634,21.26c0,10.7-8.673,19.373-19.37,19.373c-10.7,0-19.378-8.673-19.378-19.373
		S10.564,1.886,21.264,1.886C31.961,1.886,40.634,10.56,40.634,21.26z"/>
	<path id="XMLID_795_" fill="#231815" d="M39.793,21.26c0,10.236-8.297,18.532-18.53,18.532c-10.236,0-18.537-8.297-18.537-18.532
		S11.028,2.727,21.263,2.727C31.497,2.727,39.793,11.025,39.793,21.26z"/>
	<path id="XMLID_794_" fill="#54504F" d="M37.286,27.32c0.714-1.886,1.122-3.923,1.122-6.06c0-8.216-5.781-15.075-13.494-16.75
		v4.449h-7.309V4.512C9.893,6.189,4.112,13.046,4.112,21.26c0,2.137,0.409,4.173,1.123,6.06h3.771v5.922
		c3.114,3.184,7.453,5.166,12.258,5.166c4.803,0,9.139-1.981,12.251-5.163V27.32H37.286z"/>
	<g id="XMLID_92_">
		<circle id="XMLID_776_" fill="#231815" cx="13.117" cy="12.817" r="2.847"/>
		<circle id="XMLID_99_" fill="#231815" cx="10.313" cy="21.591" r="2.847"/>
		<circle id="XMLID_98_" fill="#231815" cx="18.415" cy="21.591" r="2.847"/>
		<circle id="XMLID_96_" fill="#231815" cx="21.262" cy="12.817" r="2.847"/>
		<circle id="XMLID_802_" fill="#231815" cx="29.36" cy="12.817" r="2.847"/>
		<circle id="XMLID_95_" fill="#231815" cx="16.161" cy="30.857" r="2.847"/>
		<circle id="XMLID_94_" fill="#231815" cx="26.358" cy="30.857" r="2.847"/>
		<circle id="XMLID_93_" fill="#231815" cx="32.207" cy="21.591" r="2.847"/>
	</g>
</g>
</svg>
