<?xml version="1.0" encoding="utf-8"?>
<!-- Generator: Adobe Illustrator 19.0.0, SVG Export Plug-In . SVG Version: 6.00 Build 0)  -->
<svg version="1.1" id="图层_1" xmlns="http://www.w3.org/2000/svg" xmlns:xlink="http://www.w3.org/1999/xlink" x="0px" y="0px"
	 width="17.008px" height="10.712px" viewBox="0 0 17.008 10.712" enable-background="new 0 0 17.008 10.712" xml:space="preserve">
<g id="XMLID_832_">
	<path id="XMLID_829_" fill="#B2B1B1" stroke="#000000" stroke-width="0.5" stroke-miterlimit="10" d="M15.542,10.463h-1.403
		c-0.672,0-1.216-0.525-1.216-1.172V9.019c0-0.647-0.544-1.172-1.216-1.172H5.301c-0.672,0-1.216,0.525-1.216,1.172V9.29
		c0,0.647-0.544,1.172-1.216,1.172H1.466c-0.672,0-1.216-0.525-1.216-1.172V1.422c0-0.647,0.544-1.172,1.216-1.172h14.076
		c0.672,0,1.216,0.525,1.216,1.172V9.29C16.758,9.938,16.213,10.463,15.542,10.463z"/>
	<g id="XMLID_830_">
		<rect id="XMLID_380_" x="1.994" y="1.945" fill="#565958" width="13.03" height="4.348"/>
		<path id="XMLID_377_" d="M14.774,2.195v3.848H2.244V2.195H14.774 M15.274,1.695h-0.5H2.244h-0.5v0.5v3.848v0.5h0.5h12.53h0.5v-0.5
			V2.195V1.695L15.274,1.695z"/>
	</g>
	<rect id="XMLID_831_" x="4.179" y="4.522" fill="#B2B1B1" width="0.863" height="1.521"/>
	<rect id="XMLID_833_" x="6.827" y="4.522" fill="#B2B1B1" width="0.863" height="1.521"/>
	<rect id="XMLID_897_" x="9.476" y="4.522" fill="#B2B1B1" width="0.863" height="1.521"/>
	<rect id="XMLID_898_" x="12.125" y="4.522" fill="#B2B1B1" width="0.863" height="1.521"/>
</g>
</svg>
