<?xml version="1.0" encoding="utf-8"?>
<!-- Generator: Adobe Illustrator 19.0.0, SVG Export Plug-In . SVG Version: 6.00 Build 0)  -->
<svg version="1.1" id="图层_1" xmlns="http://www.w3.org/2000/svg" xmlns:xlink="http://www.w3.org/1999/xlink" x="0px" y="0px"
	 width="100.213px" height="14.74px" viewBox="0 0 100.213 14.74" enable-background="new 0 0 100.213 14.74" xml:space="preserve">
<g id="XMLID_971_">
	<g id="XMLID_902_">
		<rect id="XMLID_484_" x="0.5" y="0.5" fill="#343537" width="99.212" height="13.74"/>
		<path id="XMLID_481_" d="M99.213,1v12.74H1V1H99.213 M100.213,0h-1H1H0v1v12.74v1h1h98.213h1v-1V1V0L100.213,0z"/>
	</g>
	<rect id="XMLID_907_" x="1" y="2.824" fill="#9E9E9E" width="2.642" height="9.452"/>
	<rect id="XMLID_920_" x="1" y="3.328" fill="#343537" width="2.253" height="8.443"/>
	<rect id="XMLID_972_" x="96.57" y="2.747" fill="#9E9E9E" width="2.642" height="9.452"/>
	<g id="XMLID_973_">
		<polygon id="XMLID_950_" fill="#B2B1B1" points="10.393,4.699 10.393,2.644 6.588,2.644 6.588,4.699 8.068,4.699 8.068,10.041 
			6.588,10.041 6.588,12.096 10.393,12.096 10.393,10.041 8.913,10.041 8.913,4.699 		"/>
		<polygon id="XMLID_922_" fill="#B2B1B1" points="15.595,4.699 15.595,2.644 11.79,2.644 11.79,4.699 13.27,4.699 13.27,10.041 
			11.79,10.041 11.79,12.096 15.595,12.096 15.595,10.041 14.115,10.041 14.115,4.699 		"/>
		<polygon id="XMLID_924_" fill="#B2B1B1" points="20.797,4.699 20.797,2.644 16.992,2.644 16.992,4.699 18.472,4.699 
			18.472,10.041 16.992,10.041 16.992,12.096 20.797,12.096 20.797,10.041 19.317,10.041 19.317,4.699 		"/>
		<polygon id="XMLID_925_" fill="#B2B1B1" points="25.999,4.699 25.999,2.644 22.194,2.644 22.194,4.699 23.674,4.699 
			23.674,10.041 22.194,10.041 22.194,12.096 25.999,12.096 25.999,10.041 24.519,10.041 24.519,4.699 		"/>
		<polygon id="XMLID_951_" fill="#B2B1B1" points="31.201,4.699 31.201,2.644 27.396,2.644 27.396,4.699 28.876,4.699 
			28.876,10.041 27.396,10.041 27.396,12.096 31.201,12.096 31.201,10.041 29.721,10.041 29.721,4.699 		"/>
		<polygon id="XMLID_952_" fill="#B2B1B1" points="36.403,4.699 36.403,2.644 32.598,2.644 32.598,4.699 34.078,4.699 
			34.078,10.041 32.598,10.041 32.598,12.096 36.403,12.096 36.403,10.041 34.923,10.041 34.923,4.699 		"/>
		<polygon id="XMLID_953_" fill="#B2B1B1" points="41.605,4.699 41.605,2.644 37.8,2.644 37.8,4.699 39.28,4.699 39.28,10.041 
			37.8,10.041 37.8,12.096 41.605,12.096 41.605,10.041 40.125,10.041 40.125,4.699 		"/>
		<polygon id="XMLID_954_" fill="#B2B1B1" points="46.807,4.699 46.807,2.644 43.002,2.644 43.002,4.699 44.482,4.699 
			44.482,10.041 43.002,10.041 43.002,12.096 46.807,12.096 46.807,10.041 45.327,10.041 45.327,4.699 		"/>
		<polygon id="XMLID_955_" fill="#B2B1B1" points="52.009,4.699 52.009,2.644 48.204,2.644 48.204,4.699 49.684,4.699 
			49.684,10.041 48.204,10.041 48.204,12.096 52.009,12.096 52.009,10.041 50.529,10.041 50.529,4.699 		"/>
		<polygon id="XMLID_957_" fill="#B2B1B1" points="57.211,4.699 57.211,2.644 53.406,2.644 53.406,4.699 54.886,4.699 
			54.886,10.041 53.406,10.041 53.406,12.096 57.211,12.096 57.211,10.041 55.731,10.041 55.731,4.699 		"/>
		<polygon id="XMLID_958_" fill="#B2B1B1" points="62.413,4.699 62.413,2.644 58.608,2.644 58.608,4.699 60.088,4.699 
			60.088,10.041 58.608,10.041 58.608,12.096 62.413,12.096 62.413,10.041 60.933,10.041 60.933,4.699 		"/>
		<polygon id="XMLID_959_" fill="#B2B1B1" points="67.615,4.699 67.615,2.644 63.81,2.644 63.81,4.699 65.29,4.699 65.29,10.041 
			63.81,10.041 63.81,12.096 67.615,12.096 67.615,10.041 66.135,10.041 66.135,4.699 		"/>
		<polygon id="XMLID_960_" fill="#B2B1B1" points="72.817,4.699 72.817,2.644 69.012,2.644 69.012,4.699 70.492,4.699 
			70.492,10.041 69.012,10.041 69.012,12.096 72.817,12.096 72.817,10.041 71.337,10.041 71.337,4.699 		"/>
		<polygon id="XMLID_967_" fill="#B2B1B1" points="78.019,4.699 78.019,2.644 74.214,2.644 74.214,4.699 75.694,4.699 
			75.694,10.041 74.214,10.041 74.214,12.096 78.019,12.096 78.019,10.041 76.539,10.041 76.539,4.699 		"/>
		<polygon id="XMLID_968_" fill="#B2B1B1" points="83.221,4.699 83.221,2.644 79.416,2.644 79.416,4.699 80.896,4.699 
			80.896,10.041 79.416,10.041 79.416,12.096 83.221,12.096 83.221,10.041 81.741,10.041 81.741,4.699 		"/>
		<polygon id="XMLID_969_" fill="#B2B1B1" points="88.423,4.699 88.423,2.644 84.618,2.644 84.618,4.699 86.098,4.699 
			86.098,10.041 84.618,10.041 84.618,12.096 88.423,12.096 88.423,10.041 86.943,10.041 86.943,4.699 		"/>
		<polygon id="XMLID_970_" fill="#B2B1B1" points="93.625,4.699 93.625,2.644 89.82,2.644 89.82,4.699 91.3,4.699 91.3,10.041 
			89.82,10.041 89.82,12.096 93.625,12.096 93.625,10.041 92.145,10.041 92.145,4.699 		"/>
	</g>
	<rect id="XMLID_921_" x="4.765" y="6.933" fill="#B2B1B1" width="90.683" height="0.873"/>
	<rect id="XMLID_975_" x="96.96" y="3.328" fill="#343537" width="2.253" height="8.443"/>
</g>
</svg>
