<?xml version="1.0" encoding="utf-8"?>
<!-- Generator: Adobe Illustrator 19.0.0, SVG Export Plug-In . SVG Version: 6.00 Build 0)  -->
<svg version="1.1" id="图层_1" xmlns="http://www.w3.org/2000/svg" xmlns:xlink="http://www.w3.org/1999/xlink" x="0px" y="0px"
	 width="95.251px" height="19.707px" viewBox="0 0 95.251 19.707" enable-background="new 0 0 95.251 19.707" xml:space="preserve">
<g id="XMLID_402_">
	<rect id="XMLID_601_" width="95.251" height="19.707"/>
	<rect id="XMLID_600_" x="1" y="1.08" fill="#D1D1D1" width="93.251" height="17.547"/>
	<circle id="XMLID_599_" fill="#B2B2B2" cx="7.669" cy="10.582" r="4.813"/>
	<g id="XMLID_596_">
		<rect id="XMLID_598_" x="5.168" y="9.707" width="5" height="1.75"/>
		<rect id="XMLID_597_" x="6.794" y="8.082" width="1.748" height="5"/>
	</g>
	<circle id="XMLID_595_" fill="#B2B2B2" cx="87.334" cy="10.582" r="4.813"/>
	<g id="XMLID_592_">
		<rect id="XMLID_594_" x="84.835" y="9.707" width="5" height="1.75"/>
		<rect id="XMLID_593_" x="86.458" y="8.082" width="1.752" height="5"/>
	</g>
	<path id="XMLID_591_" fill="#080304" d="M21.015,17.207c-1.752,0-3.427-1.416-3.812-3.225l-1.7-7.995
		c-0.227-1.074-0.018-2.118,0.574-2.865c0.531-0.671,1.32-1.042,2.217-1.042h58.664c0.898,0,1.686,0.371,2.217,1.042
		c0.594,0.747,0.801,1.791,0.574,2.865l-1.701,7.995c-0.385,1.809-2.059,3.225-3.811,3.225H21.015z"/>
	<path id="XMLID_590_" fill="#B2B2B2" d="M77.56,13.867c-0.336,1.549-1.818,2.777-3.322,2.777H21.015
		c-1.504,0-2.986-1.229-3.322-2.777l-1.699-7.861c-0.385-1.77,0.643-3.236,2.301-3.236h58.664c1.658,0,2.682,1.467,2.301,3.236
		L77.56,13.867z"/>
	<path id="XMLID_589_" fill="#565958" d="M21.015,15.645c-1.039,0-2.112-0.91-2.344-1.988l-1.702-7.863
		c-0.13-0.609-0.032-1.178,0.276-1.557c0.244-0.305,0.607-0.467,1.049-0.467h58.664c0.44,0,0.804,0.162,1.049,0.467
		c0.309,0.379,0.409,0.947,0.275,1.559l-1.699,7.861c-0.234,1.078-1.307,1.988-2.346,1.988H21.015z"/>
	<g id="XMLID_586_">
		<rect id="XMLID_588_" x="20.346" y="6.504" fill="#080304" width="2.188" height="2.188"/>
		<rect id="XMLID_587_" x="21.44" y="7.598" fill="#9E9E9E" width="1.094" height="1.094"/>
	</g>
	<g id="XMLID_583_">
		<rect id="XMLID_585_" x="23.283" y="6.504" fill="#080304" width="2.188" height="2.188"/>
		<rect id="XMLID_584_" x="24.378" y="7.598" fill="#9E9E9E" width="1.094" height="1.094"/>
	</g>
	<g id="XMLID_580_">
		<rect id="XMLID_582_" x="26.22" y="6.504" fill="#080304" width="2.189" height="2.188"/>
		<rect id="XMLID_581_" x="27.315" y="7.598" fill="#9E9E9E" width="1.094" height="1.094"/>
	</g>
	<g id="XMLID_577_">
		<rect id="XMLID_579_" x="29.157" y="6.504" fill="#080304" width="2.188" height="2.188"/>
		<rect id="XMLID_578_" x="30.252" y="7.598" fill="#9E9E9E" width="1.094" height="1.094"/>
	</g>
	<g id="XMLID_574_">
		<rect id="XMLID_576_" x="32.097" y="6.504" fill="#080304" width="2.187" height="2.188"/>
		<rect id="XMLID_575_" x="33.189" y="7.598" fill="#9E9E9E" width="1.094" height="1.094"/>
	</g>
	<g id="XMLID_571_">
		<rect id="XMLID_573_" x="35.034" y="6.504" fill="#080304" width="2.186" height="2.188"/>
		<rect id="XMLID_572_" x="36.126" y="7.598" fill="#9E9E9E" width="1.094" height="1.094"/>
	</g>
	<g id="XMLID_568_">
		<rect id="XMLID_570_" x="37.972" y="6.504" fill="#080304" width="2.186" height="2.188"/>
		<rect id="XMLID_569_" x="39.065" y="7.598" fill="#9E9E9E" width="1.092" height="1.094"/>
	</g>
	<g id="XMLID_565_">
		<rect id="XMLID_567_" x="40.909" y="6.504" fill="#080304" width="2.188" height="2.188"/>
		<rect id="XMLID_566_" x="42.003" y="7.598" fill="#9E9E9E" width="1.094" height="1.094"/>
	</g>
	<g id="XMLID_562_">
		<rect id="XMLID_564_" x="43.847" y="6.504" fill="#080304" width="2.188" height="2.188"/>
		<rect id="XMLID_563_" x="44.94" y="7.598" fill="#9E9E9E" width="1.094" height="1.094"/>
	</g>
	<g id="XMLID_559_">
		<rect id="XMLID_561_" x="46.783" y="6.504" fill="#080304" width="2.188" height="2.188"/>
		<rect id="XMLID_560_" x="47.878" y="7.598" fill="#9E9E9E" width="1.094" height="1.094"/>
	</g>
	<g id="XMLID_556_">
		<rect id="XMLID_558_" x="49.721" y="6.504" fill="#080304" width="2.188" height="2.188"/>
		<rect id="XMLID_557_" x="50.814" y="7.598" fill="#9E9E9E" width="1.095" height="1.094"/>
	</g>
	<g id="XMLID_553_">
		<rect id="XMLID_555_" x="52.657" y="6.504" fill="#080304" width="2.189" height="2.188"/>
		<rect id="XMLID_554_" x="53.752" y="7.598" fill="#9E9E9E" width="1.095" height="1.094"/>
	</g>
	<g id="XMLID_550_">
		<rect id="XMLID_552_" x="55.597" y="6.504" fill="#080304" width="2.187" height="2.188"/>
		<rect id="XMLID_551_" x="56.688" y="7.598" fill="#9E9E9E" width="1.095" height="1.094"/>
	</g>
	<g id="XMLID_547_">
		<rect id="XMLID_549_" x="58.534" y="6.504" fill="#080304" width="2.187" height="2.188"/>
		<rect id="XMLID_548_" x="59.626" y="7.598" fill="#9E9E9E" width="1.095" height="1.094"/>
	</g>
	<g id="XMLID_544_">
		<rect id="XMLID_546_" x="61.472" y="6.504" fill="#080304" width="2.186" height="2.188"/>
		<rect id="XMLID_545_" x="62.565" y="7.598" fill="#9E9E9E" width="1.092" height="1.094"/>
	</g>
	<g id="XMLID_541_">
		<rect id="XMLID_543_" x="64.409" y="6.504" fill="#080304" width="2.188" height="2.188"/>
		<rect id="XMLID_542_" x="65.503" y="7.598" fill="#9E9E9E" width="1.094" height="1.094"/>
	</g>
	<g id="XMLID_538_">
		<rect id="XMLID_540_" x="67.346" y="6.504" fill="#080304" width="2.188" height="2.188"/>
		<rect id="XMLID_539_" x="68.44" y="7.598" fill="#9E9E9E" width="1.094" height="1.094"/>
	</g>
	<g id="XMLID_535_">
		<rect id="XMLID_537_" x="70.283" y="6.504" fill="#080304" width="2.188" height="2.188"/>
		<rect id="XMLID_536_" x="71.378" y="7.598" fill="#9E9E9E" width="1.094" height="1.094"/>
	</g>
	<g id="XMLID_532_">
		<rect id="XMLID_534_" x="73.22" y="6.504" fill="#080304" width="2.189" height="2.188"/>
		<rect id="XMLID_533_" x="74.315" y="7.598" fill="#9E9E9E" width="1.094" height="1.094"/>
	</g>
	<g id="XMLID_529_">
		<rect id="XMLID_531_" x="20.346" y="11.285" fill="#080304" width="2.188" height="2.188"/>
		<rect id="XMLID_530_" x="21.44" y="12.379" fill="#9E9E9E" width="1.094" height="1.094"/>
	</g>
	<g id="XMLID_505_">
		<rect id="XMLID_528_" x="23.283" y="11.285" fill="#080304" width="2.188" height="2.188"/>
		<rect id="XMLID_506_" x="24.378" y="12.379" fill="#9E9E9E" width="1.094" height="1.094"/>
	</g>
	<g id="XMLID_502_">
		<rect id="XMLID_504_" x="26.22" y="11.285" fill="#080304" width="2.189" height="2.188"/>
		<rect id="XMLID_503_" x="27.315" y="12.379" fill="#9E9E9E" width="1.094" height="1.094"/>
	</g>
	<g id="XMLID_461_">
		<rect id="XMLID_496_" x="29.157" y="11.285" fill="#080304" width="2.188" height="2.188"/>
		<rect id="XMLID_463_" x="30.252" y="12.379" fill="#9E9E9E" width="1.094" height="1.094"/>
	</g>
	<g id="XMLID_458_">
		<rect id="XMLID_460_" x="32.097" y="11.285" fill="#080304" width="2.187" height="2.188"/>
		<rect id="XMLID_459_" x="33.189" y="12.379" fill="#9E9E9E" width="1.094" height="1.094"/>
	</g>
	<g id="XMLID_455_">
		<rect id="XMLID_457_" x="35.034" y="11.285" fill="#080304" width="2.186" height="2.188"/>
		<rect id="XMLID_456_" x="36.126" y="12.379" fill="#9E9E9E" width="1.094" height="1.094"/>
	</g>
	<g id="XMLID_452_">
		<rect id="XMLID_454_" x="37.972" y="11.285" fill="#080304" width="2.186" height="2.188"/>
		<rect id="XMLID_453_" x="39.065" y="12.379" fill="#9E9E9E" width="1.092" height="1.094"/>
	</g>
	<g id="XMLID_449_">
		<rect id="XMLID_451_" x="40.909" y="11.285" fill="#080304" width="2.188" height="2.188"/>
		<rect id="XMLID_450_" x="42.003" y="12.379" fill="#9E9E9E" width="1.094" height="1.094"/>
	</g>
	<g id="XMLID_446_">
		<rect id="XMLID_448_" x="43.847" y="11.285" fill="#080304" width="2.188" height="2.188"/>
		<rect id="XMLID_447_" x="44.94" y="12.379" fill="#9E9E9E" width="1.094" height="1.094"/>
	</g>
	<g id="XMLID_443_">
		<rect id="XMLID_445_" x="46.783" y="11.285" fill="#080304" width="2.188" height="2.188"/>
		<rect id="XMLID_444_" x="47.878" y="12.379" fill="#9E9E9E" width="1.094" height="1.094"/>
	</g>
	<g id="XMLID_440_">
		<rect id="XMLID_442_" x="49.721" y="11.285" fill="#080304" width="2.188" height="2.188"/>
		<rect id="XMLID_441_" x="50.814" y="12.379" fill="#9E9E9E" width="1.095" height="1.094"/>
	</g>
	<g id="XMLID_437_">
		<rect id="XMLID_439_" x="52.657" y="11.285" fill="#080304" width="2.189" height="2.188"/>
		<rect id="XMLID_438_" x="53.752" y="12.379" fill="#9E9E9E" width="1.095" height="1.094"/>
	</g>
	<g id="XMLID_434_">
		<rect id="XMLID_436_" x="55.597" y="11.285" fill="#080304" width="2.187" height="2.188"/>
		<rect id="XMLID_435_" x="56.688" y="12.379" fill="#9E9E9E" width="1.095" height="1.094"/>
	</g>
	<g id="XMLID_431_">
		<rect id="XMLID_433_" x="58.534" y="11.285" fill="#080304" width="2.187" height="2.188"/>
		<rect id="XMLID_432_" x="59.626" y="12.379" fill="#9E9E9E" width="1.095" height="1.094"/>
	</g>
	<g id="XMLID_428_">
		<rect id="XMLID_430_" x="61.472" y="11.285" fill="#080304" width="2.186" height="2.188"/>
		<rect id="XMLID_429_" x="62.565" y="12.379" fill="#9E9E9E" width="1.092" height="1.094"/>
	</g>
	<g id="XMLID_422_">
		<rect id="XMLID_426_" x="64.409" y="11.285" fill="#080304" width="2.188" height="2.188"/>
		<rect id="XMLID_424_" x="65.503" y="12.379" fill="#9E9E9E" width="1.094" height="1.094"/>
	</g>
	<g id="XMLID_416_">
		<rect id="XMLID_420_" x="67.346" y="11.285" fill="#080304" width="2.188" height="2.188"/>
		<rect id="XMLID_418_" x="68.44" y="12.379" fill="#9E9E9E" width="1.094" height="1.094"/>
	</g>
	<g id="XMLID_410_">
		<rect id="XMLID_414_" x="70.283" y="11.285" fill="#080304" width="2.188" height="2.188"/>
		<rect id="XMLID_412_" x="71.378" y="12.379" fill="#9E9E9E" width="1.094" height="1.094"/>
	</g>
	<g id="XMLID_404_">
		<rect id="XMLID_408_" x="73.22" y="11.285" fill="#080304" width="2.189" height="2.188"/>
		<rect id="XMLID_406_" x="74.315" y="12.379" fill="#9E9E9E" width="1.094" height="1.094"/>
	</g>
</g>
</svg>
