<?xml version="1.0" encoding="utf-8"?>
<!-- Generator: Adobe Illustrator 19.0.0, SVG Export Plug-In . SVG Version: 6.00 Build 0)  -->
<svg version="1.1" id="图层_1" xmlns="http://www.w3.org/2000/svg" xmlns:xlink="http://www.w3.org/1999/xlink" x="0px" y="0px"
	 width="107.717px" height="23.508px" viewBox="0 0 107.717 23.508" enable-background="new 0 0 107.717 23.508"
	 xml:space="preserve">
<g id="XMLID_1178_">
	<path id="XMLID_1150_" fill="#0E1012" stroke="#B9B9B9" stroke-miterlimit="10" d="M99.212,23.007H8.505
		c-2.469,0-4.602-1.727-5.116-4.143L0.616,6.817C-0.075,3.564,2.406,0.5,5.732,0.5h96.253c3.326,0,5.807,3.064,5.116,6.317
		l-2.773,12.048C103.814,21.28,101.681,23.007,99.212,23.007z"/>
	<g id="XMLID_1179_">
		<path id="XMLID_1182_" fill="#414244" d="M8.505,21.308c-1.657,0-3.11-1.176-3.455-2.796L2.277,6.464
			c-0.222-1.047,0.036-2.125,0.71-2.956s1.674-1.308,2.745-1.308h96.253c1.071,0,2.071,0.477,2.745,1.308s0.932,1.909,0.71,2.956
			l-2.773,12.048c-0.345,1.62-1.798,2.796-3.455,2.796H8.505z"/>
		<path id="XMLID_1181_" fill="none" d="M8.505,21.308c-1.657,0-3.11-1.176-3.455-2.796L2.277,6.464
			c-0.222-1.047,0.036-2.125,0.71-2.956s1.674-1.308,2.745-1.308h96.253c1.071,0,2.071,0.477,2.745,1.308s0.932,1.909,0.71,2.956
			l-2.773,12.048c-0.345,1.62-1.798,2.796-3.455,2.796H8.505z"/>
	</g>
	<g id="XMLID_1165_">
		<circle id="XMLID_1151_" cx="5.93" cy="7.917" r="2.247"/>
		<circle id="XMLID_1153_" cx="13.918" cy="7.917" r="2.247"/>
		<circle id="XMLID_1154_" cx="21.906" cy="7.917" r="2.247"/>
		<circle id="XMLID_1155_" cx="29.894" cy="7.917" r="2.247"/>
		<circle id="XMLID_1156_" cx="37.882" cy="7.917" r="2.247"/>
		<circle id="XMLID_1157_" cx="45.87" cy="7.917" r="2.247"/>
		<circle id="XMLID_1158_" cx="53.858" cy="7.917" r="2.247"/>
		<circle id="XMLID_1159_" cx="61.846" cy="7.917" r="2.247"/>
		<circle id="XMLID_1160_" cx="69.834" cy="7.917" r="2.247"/>
		<circle id="XMLID_1161_" cx="77.822" cy="7.917" r="2.247"/>
		<circle id="XMLID_1162_" cx="85.81" cy="7.917" r="2.247"/>
		<circle id="XMLID_1163_" cx="93.798" cy="7.917" r="2.247"/>
		<circle id="XMLID_1164_" cx="101.786" cy="7.917" r="2.247"/>
	</g>
	<g id="XMLID_1152_">
		<circle id="XMLID_1177_" cx="9.924" cy="15.664" r="2.247"/>
		<circle id="XMLID_1176_" cx="17.912" cy="15.664" r="2.247"/>
		<circle id="XMLID_1175_" cx="25.9" cy="15.664" r="2.247"/>
		<circle id="XMLID_1174_" cx="33.888" cy="15.664" r="2.247"/>
		<circle id="XMLID_1173_" cx="41.876" cy="15.664" r="2.247"/>
		<circle id="XMLID_1172_" cx="49.864" cy="15.664" r="2.247"/>
		<circle id="XMLID_1171_" cx="57.852" cy="15.664" r="2.247"/>
		<circle id="XMLID_1170_" cx="65.84" cy="15.664" r="2.247"/>
		<circle id="XMLID_1169_" cx="73.828" cy="15.664" r="2.247"/>
		<circle id="XMLID_1168_" cx="81.816" cy="15.664" r="2.247"/>
		<circle id="XMLID_1167_" cx="89.804" cy="15.664" r="2.247"/>
		<circle id="XMLID_1166_" cx="97.792" cy="15.664" r="2.247"/>
	</g>
</g>
</svg>
