<?xml version="1.0" encoding="utf-8"?>
<!-- Generator: Adobe Illustrator 16.0.0, SVG Export Plug-In . SVG Version: 6.00 Build 0)  -->
<!DOCTYPE svg PUBLIC "-//W3C//DTD SVG 1.1//EN" "http://www.w3.org/Graphics/SVG/1.1/DTD/svg11.dtd">
<svg version="1.1" id="图层_1" xmlns="http://www.w3.org/2000/svg" xmlns:xlink="http://www.w3.org/1999/xlink" x="0px" y="0px"
	 width="34.657px" height="34.656px" viewBox="0 0 34.657 34.656" enable-background="new 0 0 34.657 34.656" xml:space="preserve">
<g>
	<g>
		<linearGradient id="SVGID_1_" gradientUnits="userSpaceOnUse" x1="0" y1="17.3281" x2="34.6572" y2="17.3281">
			<stop  offset="0" style="stop-color:#D6D6D6"/>
			<stop  offset="0.2396" style="stop-color:#D2D3D3"/>
			<stop  offset="1" style="stop-color:#CBCCCC"/>
		</linearGradient>
		<circle fill="url(#SVGID_1_)" cx="17.329" cy="17.328" r="17.329"/>
		<circle cx="17.329" cy="17.328" r="12.997"/>
		<linearGradient id="SVGID_2_" gradientUnits="userSpaceOnUse" x1="6.0791" y1="17.4609" x2="28.5801" y2="17.4609">
			<stop  offset="0" style="stop-color:#F2F2F2"/>
			<stop  offset="0.5563" style="stop-color:#E1E2E2"/>
			<stop  offset="1" style="stop-color:#DADBDB"/>
		</linearGradient>
		<path fill="url(#SVGID_2_)" d="M19.751,6.344v4.105h-4.842V6.344c-5.049,1.107-8.83,5.602-8.83,10.984
			c0,6.213,5.039,11.25,11.252,11.25c6.211,0,11.249-5.037,11.249-11.25C28.58,11.945,24.8,7.451,19.751,6.344z M22.3,11.047
			c0.951,0,1.721,0.771,1.721,1.721c0,0.951-0.77,1.721-1.721,1.721c-0.95,0-1.721-0.77-1.721-1.721
			C20.579,11.818,21.35,11.047,22.3,11.047z M8.283,18.15c0-0.949,0.772-1.719,1.72-1.719c0.948,0,1.721,0.77,1.721,1.719
			c0,0.951-0.772,1.721-1.721,1.721C9.056,19.871,8.283,19.102,8.283,18.15z M12.36,25.254c-0.951,0-1.721-0.77-1.721-1.721
			c0-0.947,0.77-1.719,1.721-1.719s1.721,0.771,1.721,1.719C14.081,24.484,13.312,25.254,12.36,25.254z M12.36,14.488
			c-0.951,0-1.721-0.77-1.721-1.721c0-0.949,0.77-1.721,1.721-1.721s1.721,0.771,1.721,1.721
			C14.081,13.719,13.312,14.488,12.36,14.488z M20.276,21.814h-5.895v-6.613h5.895V21.814z M22.3,25.254
			c-0.95,0-1.721-0.77-1.721-1.721c0-0.947,0.771-1.719,1.721-1.719c0.951,0,1.721,0.771,1.721,1.719
			C24.021,24.484,23.251,25.254,22.3,25.254z M24.657,19.871c-0.951,0-1.721-0.77-1.721-1.721c0-0.949,0.77-1.719,1.721-1.719
			c0.95,0,1.717,0.77,1.717,1.719C26.374,19.102,25.607,19.871,24.657,19.871z"/>
	</g>
	<circle fill="#D1D1D1" cx="17.329" cy="17.328" r="17.329"/>
	<circle cx="17.329" cy="17.328" r="12.997"/>
	<path fill="#D1D1D1" d="M19.751,6.344v4.105h-4.842V6.344c-5.049,1.107-8.83,5.602-8.83,10.984c0,6.213,5.039,11.25,11.252,11.25
		c6.211,0,11.249-5.037,11.249-11.25C28.58,11.945,24.8,7.451,19.751,6.344z M22.3,11.047c0.951,0,1.721,0.771,1.721,1.721
		c0,0.951-0.77,1.721-1.721,1.721c-0.95,0-1.721-0.77-1.721-1.721C20.579,11.818,21.35,11.047,22.3,11.047z M8.283,18.15
		c0-0.949,0.772-1.719,1.72-1.719c0.948,0,1.721,0.77,1.721,1.719c0,0.951-0.772,1.721-1.721,1.721
		C9.056,19.871,8.283,19.102,8.283,18.15z M12.36,25.254c-0.951,0-1.721-0.77-1.721-1.721c0-0.947,0.77-1.719,1.721-1.719
		s1.721,0.771,1.721,1.719C14.081,24.484,13.312,25.254,12.36,25.254z M12.36,14.488c-0.951,0-1.721-0.77-1.721-1.721
		c0-0.949,0.77-1.721,1.721-1.721s1.721,0.771,1.721,1.721C14.081,13.719,13.312,14.488,12.36,14.488z M20.276,21.814h-5.895v-6.613
		h5.895V21.814z M22.3,25.254c-0.95,0-1.721-0.77-1.721-1.721c0-0.947,0.771-1.719,1.721-1.719c0.951,0,1.721,0.771,1.721,1.719
		C24.021,24.484,23.251,25.254,22.3,25.254z M24.657,19.871c-0.951,0-1.721-0.77-1.721-1.721c0-0.949,0.77-1.719,1.721-1.719
		c0.95,0,1.717,0.77,1.717,1.719C26.374,19.102,25.607,19.871,24.657,19.871z"/>
</g>
</svg>
