<?xml version="1.0" encoding="utf-8"?>
<!-- Generator: Adobe Illustrator 16.0.0, SVG Export Plug-In . SVG Version: 6.00 Build 0)  -->
<!DOCTYPE svg PUBLIC "-//W3C//DTD SVG 1.1//EN" "http://www.w3.org/Graphics/SVG/1.1/DTD/svg11.dtd">
<svg version="1.1" id="图层_1" xmlns="http://www.w3.org/2000/svg" xmlns:xlink="http://www.w3.org/1999/xlink" x="0px" y="0px"
	 width="15.751px" height="15.75px" viewBox="0 0 15.751 15.75" enable-background="new 0 0 15.751 15.75" xml:space="preserve">
<g>
	<circle fill="#040000" cx="7.875" cy="7.875" r="7.875"/>
	<path fill="#B199BD" d="M9.094,1.114v1.542H6.656V1.114C3.442,1.69,1,4.495,1,7.875c0,1.283,0.358,2.48,0.972,3.508h2.213v2.286
		c1.067,0.681,2.332,1.082,3.691,1.082c1.358,0,2.624-0.4,3.69-1.082v-2.286h2.213c0.614-1.028,0.972-2.225,0.972-3.508
		C14.751,4.495,12.31,1.69,9.094,1.114z M3.725,8.463c-0.432,0-0.781-0.35-0.781-0.781s0.35-0.781,0.781-0.781
		s0.781,0.35,0.781,0.781S4.156,8.463,3.725,8.463z M4.693,5.641c-0.432,0-0.781-0.35-0.781-0.781s0.35-0.781,0.781-0.781
		s0.781,0.35,0.781,0.781S5.125,5.641,4.693,5.641z M6.256,12.963c-0.432,0-0.781-0.35-0.781-0.781s0.35-0.781,0.781-0.781
		s0.781,0.35,0.781,0.781S6.688,12.963,6.256,12.963z M6.656,7.875V3.406h2.438v4.469H6.656z M9.496,12.963
		c-0.432,0-0.781-0.35-0.781-0.781s0.35-0.781,0.781-0.781s0.781,0.35,0.781,0.781S9.928,12.963,9.496,12.963z M10.277,4.859
		c0-0.431,0.35-0.781,0.781-0.781s0.781,0.35,0.781,0.781s-0.35,0.781-0.781,0.781S10.277,5.291,10.277,4.859z M12.027,8.463
		c-0.432,0-0.781-0.35-0.781-0.781s0.35-0.781,0.781-0.781s0.781,0.35,0.781,0.781S12.459,8.463,12.027,8.463z"/>
</g>
</svg>
