<?xml version="1.0" encoding="utf-8"?>
<!-- Generator: Adobe Illustrator 19.0.0, SVG Export Plug-In . SVG Version: 6.00 Build 0)  -->
<svg version="1.1" id="图层_1" xmlns="http://www.w3.org/2000/svg" xmlns:xlink="http://www.w3.org/1999/xlink" x="0px" y="0px"
	 width="28.346px" height="28.346px" viewBox="0 0 28.346 28.346" enable-background="new 0 0 28.346 28.346" xml:space="preserve">
<g id="XMLID_638_">
	<circle id="XMLID_676_" fill="#231815" cx="14.173" cy="14.174" r="14.173"/>
	<circle id="XMLID_675_" fill="#898989" cx="14.173" cy="14.173" r="12.916"/>
	<circle id="XMLID_674_" fill="#231815" cx="14.173" cy="14.173" r="12.356"/>
	<path id="XMLID_673_" fill="#00A178" d="M24.857,18.213c0.476-1.258,0.748-2.615,0.748-4.04c0-5.477-3.854-10.05-8.996-11.166
		v2.966h-4.873V3.008C6.595,4.126,2.741,8.697,2.741,14.173c0,1.424,0.272,2.782,0.749,4.04h2.514v3.948
		c2.076,2.123,4.969,3.444,8.172,3.444c3.202,0,6.092-1.32,8.168-3.442v-3.95H24.857z"/>
	<g id="XMLID_656_">
		<circle id="XMLID_672_" fill="#231815" cx="8.745" cy="8.545" r="1.898"/>
		<circle id="XMLID_671_" fill="#231815" cx="6.875" cy="14.394" r="1.898"/>
		<circle id="XMLID_660_" fill="#231815" cx="19.296" cy="8.545" r="1.898"/>
		<circle id="XMLID_659_" fill="#231815" cx="10.581" cy="20.572" r="1.898"/>
		<circle id="XMLID_658_" fill="#231815" cx="17.46" cy="20.572" r="1.898"/>
		<circle id="XMLID_657_" fill="#231815" cx="21.471" cy="14.394" r="1.898"/>
	</g>
	<rect id="XMLID_655_" x="12.176" y="7.763" fill="#231815" width="3.994" height="6.096"/>
</g>
</svg>
