<?xml version="1.0" encoding="utf-8"?>
<!-- Generator: Adobe Illustrator 16.0.0, SVG Export Plug-In . SVG Version: 6.00 Build 0)  -->
<!DOCTYPE svg PUBLIC "-//W3C//DTD SVG 1.1//EN" "http://www.w3.org/Graphics/SVG/1.1/DTD/svg11.dtd">
<svg version="1.1" id="图层_1" xmlns="http://www.w3.org/2000/svg" xmlns:xlink="http://www.w3.org/1999/xlink" x="0px" y="0px"
	 width="680.314px" height="2469.717px" viewBox="-3326.632 24.106 680.314 2469.717"
	 enable-background="new -3326.632 24.106 680.314 2469.717" xml:space="preserve">
<linearGradient id="SVGID_1_" gradientUnits="userSpaceOnUse" x1="-3449.9163" y1="1410.2888" x2="-2769.6018" y2="1410.2888" gradientTransform="matrix(1 0 0 -1 123.2847 2669.2534)">
	<stop  offset="0" style="stop-color:#808080"/>
	<stop  offset="0.0895" style="stop-color:#3E3A39"/>
	<stop  offset="0.9181" style="stop-color:#3E3A39"/>
	<stop  offset="1" style="stop-color:#808080"/>
</linearGradient>
<path fill="url(#SVGID_1_)" d="M-3326.632,24.106v2469.717h680.314V24.106H-3326.632z M-2731.357,2418.36h-510.235V99.563h510.235
	V2418.36z"/>
<rect x="-3264.373" y="303.036" fill="#221613" width="10.25" height="12.6"/>
<polygon fill="#221613" points="-3254.123,324.494 -3254.123,319.84 -3264.373,319.84 -3264.373,332.44 -3254.123,332.44 
	-3254.123,327.786 -3252.436,327.786 -3252.436,324.494 "/>
<rect x="-3264.373" y="336.644" fill="#221613" width="10.25" height="12.6"/>
<rect x="-3264.373" y="353.448" fill="#221613" width="10.25" height="12.6"/>
<polygon fill="#221613" points="-3254.123,374.906 -3254.123,370.252 -3264.373,370.252 -3264.373,382.851 -3254.123,382.851 
	-3254.123,378.198 -3252.436,378.198 -3252.436,374.906 "/>
<rect x="-3264.373" y="387.056" fill="#221613" width="10.25" height="12.6"/>
<rect x="-3264.373" y="403.86" fill="#221613" width="10.25" height="12.6"/>
<polygon fill="#221613" points="-3254.123,425.317 -3254.123,420.664 -3264.373,420.664 -3264.373,433.262 -3254.123,433.262 
	-3254.123,428.609 -3252.436,428.609 -3252.436,425.317 "/>
<rect x="-3264.373" y="437.467" fill="#221613" width="10.25" height="12.601"/>
<rect x="-3264.373" y="454.272" fill="#221613" width="10.25" height="12.6"/>
<polygon fill="#221613" points="-3254.123,475.729 -3254.123,471.075 -3264.373,471.075 -3264.373,483.675 -3254.123,483.675 
	-3254.123,479.021 -3252.436,479.021 -3252.436,475.729 "/>
<rect x="-3264.373" y="487.879" fill="#221613" width="10.25" height="12.601"/>
<rect x="-3264.373" y="504.683" fill="#221613" width="10.25" height="12.6"/>
<polygon fill="#221613" points="-3254.123,526.14 -3254.123,521.487 -3264.373,521.487 -3264.373,534.086 -3254.123,534.086 
	-3254.123,529.432 -3252.436,529.432 -3252.436,526.14 "/>
<rect x="-3264.373" y="538.291" fill="#221613" width="10.25" height="12.601"/>
<rect x="-3264.373" y="555.094" fill="#221613" width="10.25" height="12.601"/>
<polygon fill="#221613" points="-3254.123,576.552 -3254.123,571.899 -3264.373,571.899 -3264.373,584.499 -3254.123,584.499 
	-3254.123,579.844 -3252.436,579.844 -3252.436,576.552 "/>
<rect x="-3264.373" y="588.703" fill="#221613" width="10.25" height="12.6"/>
<rect x="-3264.373" y="605.506" fill="#221613" width="10.25" height="12.601"/>
<polygon fill="#221613" points="-3254.123,626.964 -3254.123,622.311 -3264.373,622.311 -3264.373,634.911 -3254.123,634.911 
	-3254.123,630.257 -3252.436,630.257 -3252.436,626.964 "/>
<rect x="-3264.373" y="639.115" fill="#221613" width="10.25" height="12.6"/>
<rect x="-3264.373" y="655.919" fill="#221613" width="10.25" height="12.6"/>
<polygon fill="#221613" points="-3254.123,677.376 -3254.123,672.721 -3264.373,672.721 -3264.373,685.322 -3254.123,685.322 
	-3254.123,680.668 -3252.436,680.668 -3252.436,677.376 "/>
<rect x="-3264.373" y="689.526" fill="#221613" width="10.25" height="12.6"/>
<rect x="-3264.373" y="706.331" fill="#221613" width="10.25" height="12.6"/>
<polygon fill="#221613" points="-3254.123,727.788 -3254.123,723.134 -3264.373,723.134 -3264.373,735.734 -3254.123,735.734 
	-3254.123,731.08 -3252.436,731.08 -3252.436,727.788 "/>
<rect x="-3264.373" y="739.937" fill="#221613" width="10.25" height="12.601"/>
<rect x="-3264.373" y="756.742" fill="#221613" width="10.25" height="12.6"/>
<polygon fill="#221613" points="-3254.123,778.2 -3254.123,773.546 -3264.373,773.546 -3264.373,786.145 -3254.123,786.145 
	-3254.123,781.493 -3252.436,781.493 -3252.436,778.2 "/>
<polygon fill="#221613" points="-3254.123,828.61 -3254.123,823.958 -3264.373,823.958 -3264.373,836.556 -3254.123,836.556 
	-3254.123,831.903 -3252.436,831.903 -3252.436,828.61 "/>
<polygon fill="#221613" points="-3254.123,879.022 -3254.123,874.37 -3264.373,874.37 -3264.373,886.969 -3254.123,886.969 
	-3254.123,882.315 -3252.436,882.315 -3252.436,879.022 "/>
<rect x="-3264.373" y="790.349" fill="#221613" width="10.25" height="12.601"/>
<rect x="-3264.373" y="807.154" fill="#221613" width="10.25" height="12.6"/>
<rect x="-3264.373" y="840.761" fill="#221613" width="10.25" height="12.601"/>
<rect x="-3264.373" y="857.566" fill="#221613" width="10.25" height="12.6"/>
<rect x="-3264.373" y="891.173" fill="#221613" width="10.25" height="12.6"/>
<rect x="-3264.373" y="907.976" fill="#221613" width="10.25" height="12.601"/>
<polygon fill="#221613" points="-3254.123,929.433 -3254.123,924.782 -3264.373,924.782 -3264.373,937.381 -3254.123,937.381 
	-3254.123,932.726 -3252.436,932.726 -3252.436,929.433 "/>
<rect x="-3264.373" y="941.585" fill="#221613" width="10.25" height="12.6"/>
<rect x="-3264.373" y="958.388" fill="#221613" width="10.25" height="12.601"/>
<polygon fill="#221613" points="-3254.123,979.845 -3254.123,975.193 -3264.373,975.193 -3264.373,987.793 -3254.123,987.793 
	-3254.123,983.137 -3252.436,983.137 -3252.436,979.845 "/>
<rect x="-3264.373" y="991.997" fill="#221613" width="10.25" height="12.6"/>
<rect x="-3264.373" y="1008.801" fill="#221613" width="10.25" height="12.601"/>
<polygon fill="#221613" points="-3254.123,1030.258 -3254.123,1025.604 -3264.373,1025.604 -3264.373,1038.205 -3254.123,1038.205 
	-3254.123,1033.551 -3252.436,1033.551 -3252.436,1030.258 "/>
<polygon fill="#221613" points="-3254.123,1080.67 -3254.123,1076.016 -3264.373,1076.016 -3264.373,1088.617 -3254.123,1088.617 
	-3254.123,1083.963 -3252.436,1083.963 -3252.436,1080.67 "/>
<rect x="-3264.373" y="1042.409" fill="#221613" width="10.25" height="12.6"/>
<rect x="-3264.373" y="1059.212" fill="#221613" width="10.25" height="12.6"/>
<rect x="-3264.373" y="1092.821" fill="#221613" width="10.25" height="12.6"/>
<rect x="-3264.373" y="1109.625" fill="#221613" width="10.25" height="12.6"/>
<rect x="-3264.373" y="1143.233" fill="#221613" width="10.25" height="12.6"/>
<rect x="-3264.373" y="1160.037" fill="#221613" width="10.25" height="12.599"/>
<polygon fill="#221613" points="-3254.123,1181.494 -3254.123,1176.84 -3264.373,1176.84 -3264.373,1189.44 -3254.123,1189.44 
	-3254.123,1184.787 -3252.436,1184.787 -3252.436,1181.494 "/>
<polygon fill="#221613" points="-3254.123,1131.082 -3254.123,1126.427 -3264.373,1126.427 -3264.373,1139.028 -3254.123,1139.028 
	-3254.123,1134.375 -3252.436,1134.375 -3252.436,1131.082 "/>
<rect x="-3264.373" y="1193.643" fill="#221613" width="10.25" height="12.601"/>
<rect x="-3264.373" y="1210.448" fill="#221613" width="10.25" height="12.6"/>
<polygon fill="#221613" points="-3254.123,1231.905 -3254.123,1227.252 -3264.373,1227.252 -3264.373,1239.851 -3254.123,1239.851 
	-3254.123,1235.198 -3252.436,1235.198 -3252.436,1231.905 "/>
<rect x="-3264.373" y="1244.055" fill="#221613" width="10.25" height="12.601"/>
<rect x="-3264.373" y="1260.86" fill="#221613" width="10.25" height="12.6"/>
<polygon fill="#221613" points="-3254.123,1282.315 -3254.123,1277.664 -3264.373,1277.664 -3264.373,1290.262 -3254.123,1290.262 
	-3254.123,1285.609 -3252.436,1285.609 -3252.436,1282.315 "/>
<polygon fill="#221613" points="-3254.123,1332.727 -3254.123,1328.076 -3264.373,1328.076 -3264.373,1340.675 -3254.123,1340.675 
	-3254.123,1336.02 -3252.436,1336.02 -3252.436,1332.727 "/>
<rect x="-3264.373" y="1294.467" fill="#221613" width="10.25" height="12.601"/>
<rect x="-3264.373" y="1311.272" fill="#221613" width="10.25" height="12.6"/>
<rect x="-3264.373" y="1344.879" fill="#221613" width="10.25" height="12.6"/>
<rect x="-3264.373" y="1361.682" fill="#221613" width="10.25" height="12.601"/>
<rect x="-3264.373" y="1395.292" fill="#221613" width="10.25" height="12.6"/>
<rect x="-3264.373" y="1412.094" fill="#221613" width="10.25" height="12.601"/>
<polygon fill="#221613" points="-3254.123,1433.551 -3254.123,1428.899 -3264.373,1428.899 -3264.373,1441.499 -3254.123,1441.499 
	-3254.123,1436.844 -3252.436,1436.844 -3252.436,1433.551 "/>
<polygon fill="#221613" points="-3254.123,1383.138 -3254.123,1378.487 -3264.373,1378.487 -3264.373,1391.086 -3254.123,1391.086 
	-3254.123,1386.431 -3252.436,1386.431 -3252.436,1383.138 "/>
<rect x="-3264.373" y="1445.704" fill="#221613" width="10.25" height="12.6"/>
<rect x="-3264.373" y="1462.507" fill="#221613" width="10.25" height="12.6"/>
<polygon fill="#221613" points="-3254.123,1483.964 -3254.123,1479.31 -3264.373,1479.31 -3264.373,1491.911 -3254.123,1491.911 
	-3254.123,1487.256 -3252.436,1487.256 -3252.436,1483.964 "/>
<rect x="-3264.373" y="1496.115" fill="#221613" width="10.25" height="12.6"/>
<rect x="-3264.373" y="1512.919" fill="#221613" width="10.25" height="12.6"/>
<polygon fill="#221613" points="-3254.123,1534.376 -3254.123,1529.722 -3264.373,1529.722 -3264.373,1542.323 -3254.123,1542.323 
	-3254.123,1537.669 -3252.436,1537.669 -3252.436,1534.376 "/>
<polygon fill="#221613" points="-3254.123,1584.788 -3254.123,1580.134 -3264.373,1580.134 -3264.373,1592.734 -3254.123,1592.734 
	-3254.123,1588.081 -3252.436,1588.081 -3252.436,1584.788 "/>
<rect x="-3264.373" y="1546.527" fill="#221613" width="10.25" height="12.6"/>
<rect x="-3264.373" y="1563.331" fill="#221613" width="10.25" height="12.6"/>
<rect x="-3264.373" y="1596.938" fill="#221613" width="10.25" height="12.6"/>
<rect x="-3264.373" y="1613.743" fill="#221613" width="10.25" height="12.6"/>
<rect x="-3264.373" y="1647.349" fill="#221613" width="10.25" height="12.601"/>
<rect x="-3264.373" y="1664.154" fill="#221613" width="10.25" height="12.6"/>
<polygon fill="#221613" points="-3254.123,1685.612 -3254.123,1680.958 -3264.373,1680.958 -3264.373,1693.556 -3254.123,1693.556 
	-3254.123,1688.905 -3252.436,1688.905 -3252.436,1685.612 "/>
<polygon fill="#221613" points="-3254.123,1635.2 -3254.123,1630.546 -3264.373,1630.546 -3264.373,1643.145 -3254.123,1643.145 
	-3254.123,1638.493 -3252.436,1638.493 -3252.436,1635.2 "/>
<rect x="-3264.373" y="1697.761" fill="#221613" width="10.25" height="12.601"/>
<rect x="-3264.373" y="1714.565" fill="#221613" width="10.25" height="12.601"/>
<polygon fill="#221613" points="-3254.123,1736.022 -3254.123,1731.37 -3264.373,1731.37 -3264.373,1743.969 -3254.123,1743.969 
	-3254.123,1739.315 -3252.436,1739.315 -3252.436,1736.022 "/>
<rect x="-3264.373" y="1748.173" fill="#221613" width="10.25" height="12.6"/>
<rect x="-3264.373" y="1764.977" fill="#221613" width="10.25" height="12.601"/>
<polygon fill="#221613" points="-3254.123,1786.434 -3254.123,1781.782 -3264.373,1781.782 -3264.373,1794.381 -3254.123,1794.381 
	-3254.123,1789.727 -3252.436,1789.727 -3252.436,1786.434 "/>
<polygon fill="#221613" points="-3254.123,1836.845 -3254.123,1832.194 -3264.373,1832.194 -3264.373,1844.794 -3254.123,1844.794 
	-3254.123,1840.138 -3252.436,1840.138 -3252.436,1836.845 "/>
<rect x="-3264.373" y="1798.585" fill="#221613" width="10.25" height="12.6"/>
<rect x="-3264.373" y="1815.388" fill="#221613" width="10.25" height="12.601"/>
<rect x="-3264.373" y="1848.998" fill="#221613" width="10.25" height="12.6"/>
<rect x="-3264.373" y="1865.801" fill="#221613" width="10.25" height="12.601"/>
<rect x="-3264.373" y="1899.409" fill="#221613" width="10.25" height="12.6"/>
<rect x="-3264.373" y="1916.213" fill="#221613" width="10.25" height="12.601"/>
<polygon fill="#221613" points="-3254.123,1937.67 -3254.123,1933.016 -3264.373,1933.016 -3264.373,1945.617 -3254.123,1945.617 
	-3254.123,1940.963 -3252.436,1940.963 -3252.436,1937.67 "/>
<polygon fill="#221613" points="-3254.123,1887.258 -3254.123,1882.604 -3264.373,1882.604 -3264.373,1895.205 -3254.123,1895.205 
	-3254.123,1890.551 -3252.436,1890.551 -3252.436,1887.258 "/>
<rect x="-3264.373" y="1949.821" fill="#221613" width="10.25" height="12.6"/>
<rect x="-3264.373" y="1966.625" fill="#221613" width="10.25" height="12.6"/>
<polygon fill="#221613" points="-3254.123,1988.083 -3254.123,1983.427 -3264.373,1983.427 -3264.373,1996.028 -3254.123,1996.028 
	-3254.123,1991.374 -3252.436,1991.374 -3252.436,1988.083 "/>
<rect x="-3264.373" y="2000.233" fill="#221613" width="10.25" height="12.6"/>
<rect x="-3264.373" y="2017.037" fill="#221613" width="10.25" height="12.6"/>
<polygon fill="#221613" points="-3254.123,2038.494 -3254.123,2033.84 -3264.373,2033.84 -3264.373,2046.44 -3254.123,2046.44 
	-3254.123,2041.787 -3252.436,2041.787 -3252.436,2038.494 "/>
<polygon fill="#221613" points="-3254.123,2088.906 -3254.123,2084.252 -3264.373,2084.252 -3264.373,2096.851 -3254.123,2096.851 
	-3254.123,2092.199 -3252.436,2092.199 -3252.436,2088.906 "/>
<rect x="-3264.373" y="2050.643" fill="#221613" width="10.25" height="12.601"/>
<rect x="-3264.373" y="2067.449" fill="#221613" width="10.25" height="12.6"/>
<rect x="-3264.373" y="2101.055" fill="#221613" width="10.25" height="12.601"/>
<rect x="-3264.373" y="2117.86" fill="#221613" width="10.25" height="12.6"/>
<rect x="-3264.373" y="2151.468" fill="#221613" width="10.25" height="12.601"/>
<rect x="-3264.373" y="2168.272" fill="#221613" width="10.25" height="12.6"/>
<polygon fill="#221613" points="-3254.123,2189.729 -3254.123,2185.076 -3264.373,2185.076 -3264.373,2197.675 -3254.123,2197.675 
	-3254.123,2193.022 -3252.436,2193.022 -3252.436,2189.729 "/>
<polygon fill="#221613" points="-3254.123,2139.317 -3254.123,2134.665 -3264.373,2134.665 -3264.373,2147.263 -3254.123,2147.263 
	-3254.123,2142.61 -3252.436,2142.61 -3252.436,2139.317 "/>
<rect x="-3264.373" y="2201.879" fill="#221613" width="10.25" height="12.6"/>
<rect x="-3264.373" y="2218.683" fill="#221613" width="10.25" height="12.601"/>
<polygon fill="#221613" points="-3254.123,2240.139 -3254.123,2235.488 -3264.373,2235.488 -3264.373,2248.087 -3254.123,2248.087 
	-3254.123,2243.432 -3252.436,2243.432 -3252.436,2240.139 "/>
<rect x="-3264.373" y="2252.292" fill="#221613" width="10.25" height="12.6"/>
<rect x="-3264.373" y="2269.094" fill="#221613" width="10.25" height="12.601"/>
<polygon fill="#221613" points="-3254.123,2290.552 -3254.123,2285.899 -3264.373,2285.899 -3264.373,2298.499 -3254.123,2298.499 
	-3254.123,2293.845 -3252.436,2293.845 -3252.436,2290.552 "/>
<polygon fill="#221613" points="-3254.123,2340.964 -3254.123,2336.311 -3264.373,2336.311 -3264.373,2348.911 -3254.123,2348.911 
	-3254.123,2344.257 -3252.436,2344.257 -3252.436,2340.964 "/>
<rect x="-3264.373" y="2302.704" fill="#221613" width="10.25" height="12.6"/>
<rect x="-3264.373" y="2319.507" fill="#221613" width="10.25" height="12.6"/>
<rect x="-3264.373" y="2353.115" fill="#221613" width="10.25" height="12.6"/>
<rect x="-3264.373" y="2369.919" fill="#221613" width="10.25" height="12.6"/>
<rect x="-3264.373" y="2403.526" fill="#221613" width="10.25" height="12.601"/>
<polygon fill="#221613" points="-3254.123,2391.377 -3254.123,2386.722 -3264.373,2386.722 -3264.373,2399.323 -3254.123,2399.323 
	-3254.123,2394.669 -3252.436,2394.669 -3252.436,2391.377 "/>
<text transform="matrix(0.9276 0 0 1 -3302.5862 334.8035)" fill="#FFFFFF" font-family="'MicrosoftYaHei'" font-size="21">42</text>
<text transform="matrix(0.9276 0 0 1 -3302.5862 334.8035)" fill="none" stroke="#3E3A39" stroke-width="0.7" stroke-miterlimit="10" font-family="'MicrosoftYaHei'" font-size="21">42</text>
<text transform="matrix(0.9276 0 0 1 -3302.5862 385.2019)" fill="#FFFFFF" font-family="'MicrosoftYaHei'" font-size="21">41</text>
<text transform="matrix(0.9276 0 0 1 -3302.5862 385.2019)" fill="none" stroke="#3E3A39" stroke-width="0.7" stroke-miterlimit="10" font-family="'MicrosoftYaHei'" font-size="21">41</text>
<text transform="matrix(0.9276 0 0 1 -3302.5862 435.5984)" fill="#FFFFFF" font-family="'MicrosoftYaHei'" font-size="21">40</text>
<text transform="matrix(0.9276 0 0 1 -3302.5862 435.5984)" fill="none" stroke="#3E3A39" stroke-width="0.7" stroke-miterlimit="10" font-family="'MicrosoftYaHei'" font-size="21">40</text>
<text transform="matrix(0.9276 0 0 1 -3302.5862 485.9968)" fill="#FFFFFF" font-family="'MicrosoftYaHei'" font-size="21">39</text>
<text transform="matrix(0.9276 0 0 1 -3302.5862 485.9968)" fill="none" stroke="#3E3A39" stroke-width="0.7" stroke-miterlimit="10" font-family="'MicrosoftYaHei'" font-size="21">39</text>
<text transform="matrix(0.9276 0 0 1 -3302.5862 536.3933)" fill="#FFFFFF" font-family="'MicrosoftYaHei'" font-size="21">38</text>
<text transform="matrix(0.9276 0 0 1 -3302.5862 536.3933)" fill="none" stroke="#3E3A39" stroke-width="0.7" stroke-miterlimit="10" font-family="'MicrosoftYaHei'" font-size="21">38</text>
<text transform="matrix(0.9276 0 0 1 -3302.5862 586.7908)" fill="#FFFFFF" font-family="'MicrosoftYaHei'" font-size="21">37</text>
<text transform="matrix(0.9276 0 0 1 -3302.5862 586.7908)" fill="none" stroke="#3E3A39" stroke-width="0.7" stroke-miterlimit="10" font-family="'MicrosoftYaHei'" font-size="21">37</text>
<text transform="matrix(0.9276 0 0 1 -3302.5862 637.1902)" fill="#FFFFFF" font-family="'MicrosoftYaHei'" font-size="21">36</text>
<text transform="matrix(0.9276 0 0 1 -3302.5862 637.1902)" fill="none" stroke="#3E3A39" stroke-width="0.7" stroke-miterlimit="10" font-family="'MicrosoftYaHei'" font-size="21">36</text>
<text transform="matrix(0.9276 0 0 1 -3302.5862 687.5867)" fill="#FFFFFF" font-family="'MicrosoftYaHei'" font-size="21">35</text>
<text transform="matrix(0.9276 0 0 1 -3302.5862 687.5867)" fill="none" stroke="#3E3A39" stroke-width="0.7" stroke-miterlimit="10" font-family="'MicrosoftYaHei'" font-size="21">35</text>
<text transform="matrix(0.9276 0 0 1 -3302.5862 737.9851)" fill="#FFFFFF" font-family="'MicrosoftYaHei'" font-size="21">34</text>
<text transform="matrix(0.9276 0 0 1 -3302.5862 737.9851)" fill="none" stroke="#3E3A39" stroke-width="0.7" stroke-miterlimit="10" font-family="'MicrosoftYaHei'" font-size="21">34</text>
<text transform="matrix(0.9276 0 0 1 -3302.5862 788.3816)" fill="#FFFFFF" font-family="'MicrosoftYaHei'" font-size="21">33</text>
<text transform="matrix(0.9276 0 0 1 -3302.5862 788.3816)" fill="none" stroke="#3E3A39" stroke-width="0.7" stroke-miterlimit="10" font-family="'MicrosoftYaHei'" font-size="21">33</text>
<text transform="matrix(0.9276 0 0 1 -3302.5862 838.78)" fill="#FFFFFF" font-family="'MicrosoftYaHei'" font-size="21">32</text>
<text transform="matrix(0.9276 0 0 1 -3302.5862 838.78)" fill="none" stroke="#3E3A39" stroke-width="0.7" stroke-miterlimit="10" font-family="'MicrosoftYaHei'" font-size="21">32</text>
<text transform="matrix(0.9276 0 0 1 -3302.5862 889.1765)" fill="#FFFFFF" font-family="'MicrosoftYaHei'" font-size="21">31</text>
<text transform="matrix(0.9276 0 0 1 -3302.5862 889.1765)" fill="none" stroke="#3E3A39" stroke-width="0.7" stroke-miterlimit="10" font-family="'MicrosoftYaHei'" font-size="21">31</text>
<text transform="matrix(0.9276 0 0 1 -3302.5862 939.575)" fill="#FFFFFF" font-family="'MicrosoftYaHei'" font-size="21">30</text>
<text transform="matrix(0.9276 0 0 1 -3302.5862 939.575)" fill="none" stroke="#3E3A39" stroke-width="0.7" stroke-miterlimit="10" font-family="'MicrosoftYaHei'" font-size="21">30</text>
<text transform="matrix(0.9276 0 0 1 -3302.5862 989.9705)" fill="#FFFFFF" font-family="'MicrosoftYaHei'" font-size="21">29</text>
<text transform="matrix(0.9276 0 0 1 -3302.5862 989.9705)" fill="none" stroke="#3E3A39" stroke-width="0.7" stroke-miterlimit="10" font-family="'MicrosoftYaHei'" font-size="21">29</text>
<text transform="matrix(0.9276 0 0 1 -3302.5862 1040.3699)" fill="#FFFFFF" font-family="'MicrosoftYaHei'" font-size="21">28</text>
<text transform="matrix(0.9276 0 0 1 -3302.5862 1040.3699)" fill="none" stroke="#3E3A39" stroke-width="0.7" stroke-miterlimit="10" font-family="'MicrosoftYaHei'" font-size="21">28</text>
<text transform="matrix(0.9276 0 0 1 -3302.5862 1090.7664)" fill="#FFFFFF" font-family="'MicrosoftYaHei'" font-size="21">27</text>
<text transform="matrix(0.9276 0 0 1 -3302.5862 1090.7664)" fill="none" stroke="#3E3A39" stroke-width="0.7" stroke-miterlimit="10" font-family="'MicrosoftYaHei'" font-size="21">27</text>
<text transform="matrix(0.9276 0 0 1 -3302.5862 1141.1648)" fill="#FFFFFF" font-family="'MicrosoftYaHei'" font-size="21">26</text>
<text transform="matrix(0.9276 0 0 1 -3302.5862 1141.1648)" fill="none" stroke="#3E3A39" stroke-width="0.7" stroke-miterlimit="10" font-family="'MicrosoftYaHei'" font-size="21">26</text>
<text transform="matrix(0.9276 0 0 1 -3302.5862 1191.5623)" fill="#FFFFFF" font-family="'MicrosoftYaHei'" font-size="21">25</text>
<text transform="matrix(0.9276 0 0 1 -3302.5862 1191.5623)" fill="none" stroke="#3E3A39" stroke-width="0.7" stroke-miterlimit="10" font-family="'MicrosoftYaHei'" font-size="21">25</text>
<text transform="matrix(0.9276 0 0 1 -3302.5862 1241.9597)" fill="#FFFFFF" font-family="'MicrosoftYaHei'" font-size="21">24</text>
<text transform="matrix(0.9276 0 0 1 -3302.5862 1241.9597)" fill="none" stroke="#3E3A39" stroke-width="0.7" stroke-miterlimit="10" font-family="'MicrosoftYaHei'" font-size="21">24</text>
<text transform="matrix(0.9276 0 0 1 -3302.5862 1292.3562)" fill="#FFFFFF" font-family="'MicrosoftYaHei'" font-size="21">23</text>
<text transform="matrix(0.9276 0 0 1 -3302.5862 1292.3562)" fill="none" stroke="#3E3A39" stroke-width="0.7" stroke-miterlimit="10" font-family="'MicrosoftYaHei'" font-size="21">23</text>
<text transform="matrix(0.9276 0 0 1 -3302.5862 1342.7546)" fill="#FFFFFF" font-family="'MicrosoftYaHei'" font-size="21">22</text>
<text transform="matrix(0.9276 0 0 1 -3302.5862 1342.7546)" fill="none" stroke="#3E3A39" stroke-width="0.7" stroke-miterlimit="10" font-family="'MicrosoftYaHei'" font-size="21">22</text>
<text transform="matrix(0.9276 0 0 1 -3302.5862 1393.1511)" fill="#FFFFFF" font-family="'MicrosoftYaHei'" font-size="21">21</text>
<text transform="matrix(0.9276 0 0 1 -3302.5862 1393.1511)" fill="none" stroke="#3E3A39" stroke-width="0.7" stroke-miterlimit="10" font-family="'MicrosoftYaHei'" font-size="21">21</text>
<text transform="matrix(0.9276 0 0 1 -3302.5862 1443.5496)" fill="#FFFFFF" font-family="'MicrosoftYaHei'" font-size="21">20</text>
<text transform="matrix(0.9276 0 0 1 -3302.5862 1443.5496)" fill="none" stroke="#3E3A39" stroke-width="0.7" stroke-miterlimit="10" font-family="'MicrosoftYaHei'" font-size="21">20</text>
<text transform="matrix(0.9276 0 0 1 -3302.5862 1493.946)" fill="#FFFFFF" font-family="'MicrosoftYaHei'" font-size="21">19</text>
<text transform="matrix(0.9276 0 0 1 -3302.5862 1493.946)" fill="none" stroke="#3E3A39" stroke-width="0.7" stroke-miterlimit="10" font-family="'MicrosoftYaHei'" font-size="21">19</text>
<text transform="matrix(0.9276 0 0 1 -3302.5862 1544.3445)" fill="#FFFFFF" font-family="'MicrosoftYaHei'" font-size="21">18</text>
<text transform="matrix(0.9276 0 0 1 -3302.5862 1544.3445)" fill="none" stroke="#3E3A39" stroke-width="0.7" stroke-miterlimit="10" font-family="'MicrosoftYaHei'" font-size="21">18</text>
<text transform="matrix(0.9276 0 0 1 -3302.5862 1594.741)" fill="#FFFFFF" font-family="'MicrosoftYaHei'" font-size="21">17</text>
<text transform="matrix(0.9276 0 0 1 -3302.5862 1594.741)" fill="none" stroke="#3E3A39" stroke-width="0.7" stroke-miterlimit="10" font-family="'MicrosoftYaHei'" font-size="21">17</text>
<text transform="matrix(0.9276 0 0 1 -3302.5862 1645.1394)" fill="#FFFFFF" font-family="'MicrosoftYaHei'" font-size="21">16</text>
<text transform="matrix(0.9276 0 0 1 -3302.5862 1645.1394)" fill="none" stroke="#3E3A39" stroke-width="0.7" stroke-miterlimit="10" font-family="'MicrosoftYaHei'" font-size="21">16</text>
<text transform="matrix(0.9276 0 0 1 -3302.5862 1695.5378)" fill="#FFFFFF" font-family="'MicrosoftYaHei'" font-size="21">15</text>
<text transform="matrix(0.9276 0 0 1 -3302.5862 1695.5378)" fill="none" stroke="#3E3A39" stroke-width="0.7" stroke-miterlimit="10" font-family="'MicrosoftYaHei'" font-size="21">15</text>
<text transform="matrix(0.9276 0 0 1 -3302.5862 1745.9343)" fill="#FFFFFF" font-family="'MicrosoftYaHei'" font-size="21">14</text>
<text transform="matrix(0.9276 0 0 1 -3302.5862 1745.9343)" fill="none" stroke="#3E3A39" stroke-width="0.7" stroke-miterlimit="10" font-family="'MicrosoftYaHei'" font-size="21">14</text>
<text transform="matrix(0.9276 0 0 1 -3302.5862 1796.3328)" fill="#FFFFFF" font-family="'MicrosoftYaHei'" font-size="21">13</text>
<text transform="matrix(0.9276 0 0 1 -3302.5862 1796.3328)" fill="none" stroke="#3E3A39" stroke-width="0.7" stroke-miterlimit="10" font-family="'MicrosoftYaHei'" font-size="21">13</text>
<text transform="matrix(0.9276 0 0 1 -3302.5862 1846.7292)" fill="#FFFFFF" font-family="'MicrosoftYaHei'" font-size="21">12</text>
<text transform="matrix(0.9276 0 0 1 -3302.5862 1846.7292)" fill="none" stroke="#3E3A39" stroke-width="0.7" stroke-miterlimit="10" font-family="'MicrosoftYaHei'" font-size="21">12</text>
<text transform="matrix(0.9276 0 0 1 -3302.5862 1897.1277)" fill="#FFFFFF" font-family="'MicrosoftYaHei'" font-size="21">11</text>
<text transform="matrix(0.9276 0 0 1 -3302.5862 1897.1277)" fill="none" stroke="#3E3A39" stroke-width="0.7" stroke-miterlimit="10" font-family="'MicrosoftYaHei'" font-size="21">11</text>
<text transform="matrix(0.9276 0 0 1 -3302.5862 1947.5242)" fill="#FFFFFF" font-family="'MicrosoftYaHei'" font-size="21">10</text>
<text transform="matrix(0.9276 0 0 1 -3302.5862 1947.5242)" fill="none" stroke="#3E3A39" stroke-width="0.7" stroke-miterlimit="10" font-family="'MicrosoftYaHei'" font-size="21">10</text>
<text transform="matrix(0.9276 0 0 1 -3290.5735 1997.9226)" fill="#FFFFFF" font-family="'MicrosoftYaHei'" font-size="21">9</text>
<text transform="matrix(0.9276 0 0 1 -3290.5735 1997.9226)" fill="none" stroke="#3E3A39" stroke-width="0.7" stroke-miterlimit="10" font-family="'MicrosoftYaHei'" font-size="21">9</text>
<text transform="matrix(0.9276 0 0 1 -3290.5735 2048.3191)" fill="#FFFFFF" font-family="'MicrosoftYaHei'" font-size="21">8</text>
<text transform="matrix(0.9276 0 0 1 -3290.5735 2048.3191)" fill="none" stroke="#3E3A39" stroke-width="0.7" stroke-miterlimit="10" font-family="'MicrosoftYaHei'" font-size="21">8</text>
<text transform="matrix(0.9276 0 0 1 -3290.5735 2098.7175)" fill="#FFFFFF" font-family="'MicrosoftYaHei'" font-size="21">7</text>
<text transform="matrix(0.9276 0 0 1 -3290.5735 2098.7175)" fill="none" stroke="#3E3A39" stroke-width="0.7" stroke-miterlimit="10" font-family="'MicrosoftYaHei'" font-size="21">7</text>
<text transform="matrix(0.9276 0 0 1 -3290.5735 2149.114)" fill="#FFFFFF" font-family="'MicrosoftYaHei'" font-size="21">6</text>
<text transform="matrix(0.9276 0 0 1 -3290.5735 2149.114)" fill="none" stroke="#3E3A39" stroke-width="0.7" stroke-miterlimit="10" font-family="'MicrosoftYaHei'" font-size="21">6</text>
<text transform="matrix(0.9276 0 0 1 -3290.5735 2199.5125)" fill="#FFFFFF" font-family="'MicrosoftYaHei'" font-size="21">5</text>
<text transform="matrix(0.9276 0 0 1 -3290.5735 2199.5125)" fill="none" stroke="#3E3A39" stroke-width="0.7" stroke-miterlimit="10" font-family="'MicrosoftYaHei'" font-size="21">5</text>
<text transform="matrix(0.9276 0 0 1 -3290.5735 2249.9089)" fill="#FFFFFF" font-family="'MicrosoftYaHei'" font-size="21">4</text>
<text transform="matrix(0.9276 0 0 1 -3290.5735 2249.9089)" fill="none" stroke="#3E3A39" stroke-width="0.7" stroke-miterlimit="10" font-family="'MicrosoftYaHei'" font-size="21">4</text>
<text transform="matrix(0.9276 0 0 1 -3290.5735 2300.3074)" fill="#FFFFFF" font-family="'MicrosoftYaHei'" font-size="21">3</text>
<text transform="matrix(0.9276 0 0 1 -3290.5735 2300.3074)" fill="none" stroke="#3E3A39" stroke-width="0.7" stroke-miterlimit="10" font-family="'MicrosoftYaHei'" font-size="21">3</text>
<text transform="matrix(0.9276 0 0 1 -3290.5735 2350.7039)" fill="#FFFFFF" font-family="'MicrosoftYaHei'" font-size="21">2</text>
<text transform="matrix(0.9276 0 0 1 -3290.5735 2350.7039)" fill="none" stroke="#3E3A39" stroke-width="0.7" stroke-miterlimit="10" font-family="'MicrosoftYaHei'" font-size="21">2</text>
<text transform="matrix(0.9276 0 0 1 -3290.5735 2401.1023)" fill="#FFFFFF" font-family="'MicrosoftYaHei'" font-size="21">1</text>
<text transform="matrix(0.9276 0 0 1 -3290.5735 2401.1023)" fill="none" stroke="#3E3A39" stroke-width="0.7" stroke-miterlimit="10" font-family="'MicrosoftYaHei'" font-size="21">1</text>
<polygon fill="#FFFFFF" stroke="#3E3A39" stroke-width="0.7" stroke-miterlimit="10" points="-3269.852,326.519 -3276.978,332.727 
	-3276.978,320.31 "/>
<polygon fill="#FFFFFF" stroke="#3E3A39" stroke-width="0.7" stroke-miterlimit="10" points="-3269.852,376.916 -3276.978,383.125 
	-3276.978,370.708 "/>
<polygon fill="#FFFFFF" stroke="#3E3A39" stroke-width="0.7" stroke-miterlimit="10" points="-3269.852,427.314 -3276.978,433.522 
	-3276.978,421.105 "/>
<polygon fill="#FFFFFF" stroke="#3E3A39" stroke-width="0.7" stroke-miterlimit="10" points="-3269.852,477.711 -3276.978,483.919 
	-3276.978,471.502 "/>
<polygon fill="#FFFFFF" stroke="#3E3A39" stroke-width="0.7" stroke-miterlimit="10" points="-3269.852,528.109 -3276.978,534.317 
	-3276.978,521.9 "/>
<polygon fill="#FFFFFF" stroke="#3E3A39" stroke-width="0.7" stroke-miterlimit="10" points="-3269.852,578.506 -3276.978,584.714 
	-3276.978,572.297 "/>
<polygon fill="#FFFFFF" stroke="#3E3A39" stroke-width="0.7" stroke-miterlimit="10" points="-3269.852,628.904 -3276.978,635.112 
	-3276.978,622.696 "/>
<polygon fill="#FFFFFF" stroke="#3E3A39" stroke-width="0.7" stroke-miterlimit="10" points="-3269.852,679.301 -3276.978,685.509 
	-3276.978,673.093 "/>
<polygon fill="#FFFFFF" stroke="#3E3A39" stroke-width="0.7" stroke-miterlimit="10" points="-3269.852,729.7 -3276.978,735.907 
	-3276.978,723.491 "/>
<polygon fill="#FFFFFF" stroke="#3E3A39" stroke-width="0.7" stroke-miterlimit="10" points="-3269.852,780.095 -3276.978,786.303 
	-3276.978,773.887 "/>
<polygon fill="#FFFFFF" stroke="#3E3A39" stroke-width="0.7" stroke-miterlimit="10" points="-3269.852,830.494 -3276.978,836.702 
	-3276.978,824.286 "/>
<polygon fill="#FFFFFF" stroke="#3E3A39" stroke-width="0.7" stroke-miterlimit="10" points="-3269.852,880.891 -3276.978,887.098 
	-3276.978,874.682 "/>
<polygon fill="#FFFFFF" stroke="#3E3A39" stroke-width="0.7" stroke-miterlimit="10" points="-3269.852,931.289 -3276.978,937.497 
	-3276.978,925.081 "/>
<polygon fill="#FFFFFF" stroke="#3E3A39" stroke-width="0.7" stroke-miterlimit="10" points="-3269.852,981.685 -3276.978,987.893 
	-3276.978,975.477 "/>
<polygon fill="#FFFFFF" stroke="#3E3A39" stroke-width="0.7" stroke-miterlimit="10" points="-3269.852,1032.085 
	-3276.978,1038.292 -3276.978,1025.876 "/>
<polygon fill="#FFFFFF" stroke="#3E3A39" stroke-width="0.7" stroke-miterlimit="10" points="-3269.852,1082.481 
	-3276.978,1088.688 -3276.978,1076.272 "/>
<polygon fill="#FFFFFF" stroke="#3E3A39" stroke-width="0.7" stroke-miterlimit="10" points="-3269.852,1132.879 
	-3276.978,1139.086 -3276.978,1126.67 "/>
<polygon fill="#FFFFFF" stroke="#3E3A39" stroke-width="0.7" stroke-miterlimit="10" points="-3269.852,1183.276 
	-3276.978,1189.485 -3276.978,1177.069 "/>
<polygon fill="#FFFFFF" stroke="#3E3A39" stroke-width="0.7" stroke-miterlimit="10" points="-3269.852,1233.674 
	-3276.978,1239.883 -3276.978,1227.465 "/>
<polygon fill="#FFFFFF" stroke="#3E3A39" stroke-width="0.7" stroke-miterlimit="10" points="-3269.852,1284.072 
	-3276.978,1290.281 -3276.978,1277.863 "/>
<polygon fill="#FFFFFF" stroke="#3E3A39" stroke-width="0.7" stroke-miterlimit="10" points="-3269.852,1334.469 
	-3276.978,1340.677 -3276.978,1328.26 "/>
<polygon fill="#FFFFFF" stroke="#3E3A39" stroke-width="0.7" stroke-miterlimit="10" points="-3269.852,1384.868 
	-3276.978,1391.075 -3276.978,1378.659 "/>
<polygon fill="#FFFFFF" stroke="#3E3A39" stroke-width="0.7" stroke-miterlimit="10" points="-3269.852,1435.264 
	-3276.978,1441.471 -3276.978,1429.055 "/>
<polygon fill="#FFFFFF" stroke="#3E3A39" stroke-width="0.7" stroke-miterlimit="10" points="-3269.852,1485.663 -3276.978,1491.87 
	-3276.978,1479.454 "/>
<polygon fill="#FFFFFF" stroke="#3E3A39" stroke-width="0.7" stroke-miterlimit="10" points="-3269.852,1536.057 
	-3276.978,1542.266 -3276.978,1529.85 "/>
<polygon fill="#FFFFFF" stroke="#3E3A39" stroke-width="0.7" stroke-miterlimit="10" points="-3269.852,1586.456 
	-3276.978,1592.665 -3276.978,1580.249 "/>
<polygon fill="#FFFFFF" stroke="#3E3A39" stroke-width="0.7" stroke-miterlimit="10" points="-3269.852,1636.854 
	-3276.978,1643.061 -3276.978,1630.645 "/>
<polygon fill="#FFFFFF" stroke="#3E3A39" stroke-width="0.7" stroke-miterlimit="10" points="-3269.852,1687.251 -3276.978,1693.46 
	-3276.978,1681.044 "/>
<polygon fill="#FFFFFF" stroke="#3E3A39" stroke-width="0.7" stroke-miterlimit="10" points="-3269.852,1737.647 
	-3276.978,1743.856 -3276.978,1731.44 "/>
<polygon fill="#FFFFFF" stroke="#3E3A39" stroke-width="0.7" stroke-miterlimit="10" points="-3269.852,1788.047 
	-3276.978,1794.254 -3276.978,1781.838 "/>
<polygon fill="#FFFFFF" stroke="#3E3A39" stroke-width="0.7" stroke-miterlimit="10" points="-3269.852,1838.444 
	-3276.978,1844.652 -3276.978,1832.236 "/>
<polygon fill="#FFFFFF" stroke="#3E3A39" stroke-width="0.7" stroke-miterlimit="10" points="-3269.852,1888.841 
	-3276.978,1895.049 -3276.978,1882.633 "/>
<polygon fill="#FFFFFF" stroke="#3E3A39" stroke-width="0.7" stroke-miterlimit="10" points="-3269.852,1939.239 
	-3276.978,1945.448 -3276.978,1933.032 "/>
<polygon fill="#FFFFFF" stroke="#3E3A39" stroke-width="0.7" stroke-miterlimit="10" points="-3269.852,1989.636 
	-3276.978,1995.845 -3276.978,1983.427 "/>
<polygon fill="#FFFFFF" stroke="#3E3A39" stroke-width="0.7" stroke-miterlimit="10" points="-3269.852,2040.034 
	-3276.978,2046.243 -3276.978,2033.825 "/>
<polygon fill="#FFFFFF" stroke="#3E3A39" stroke-width="0.7" stroke-miterlimit="10" points="-3269.852,2090.431 -3276.978,2096.64 
	-3276.978,2084.222 "/>
<polygon fill="#FFFFFF" stroke="#3E3A39" stroke-width="0.7" stroke-miterlimit="10" points="-3269.852,2140.831 
	-3276.978,2147.038 -3276.978,2134.622 "/>
<polygon fill="#FFFFFF" stroke="#3E3A39" stroke-width="0.7" stroke-miterlimit="10" points="-3269.852,2191.227 
	-3276.978,2197.434 -3276.978,2185.018 "/>
<polygon fill="#FFFFFF" stroke="#3E3A39" stroke-width="0.7" stroke-miterlimit="10" points="-3269.852,2241.626 
	-3276.978,2247.833 -3276.978,2235.417 "/>
<polygon fill="#FFFFFF" stroke="#3E3A39" stroke-width="0.7" stroke-miterlimit="10" points="-3269.852,2292.02 -3276.978,2298.229 
	-3276.978,2285.813 "/>
<polygon fill="#FFFFFF" stroke="#3E3A39" stroke-width="0.7" stroke-miterlimit="10" points="-3269.852,2342.419 
	-3276.978,2348.627 -3276.978,2336.211 "/>
<polygon fill="#FFFFFF" stroke="#3E3A39" stroke-width="0.7" stroke-miterlimit="10" points="-3269.852,2392.817 
	-3276.978,2399.024 -3276.978,2386.608 "/>
<rect x="-2719.343" y="303.036" fill="#221613" width="10.25" height="12.6"/>
<polygon fill="#221613" points="-2719.343,324.494 -2719.343,319.84 -2709.093,319.84 -2709.093,332.44 -2719.343,332.44 
	-2719.343,327.786 -2721.03,327.786 -2721.03,324.494 "/>
<rect x="-2719.343" y="336.644" fill="#221613" width="10.25" height="12.6"/>
<rect x="-2719.343" y="353.448" fill="#221613" width="10.25" height="12.6"/>
<polygon fill="#221613" points="-2719.343,374.906 -2719.343,370.252 -2709.093,370.252 -2709.093,382.851 -2719.343,382.851 
	-2719.343,378.198 -2721.03,378.198 -2721.03,374.906 "/>
<rect x="-2719.343" y="387.056" fill="#221613" width="10.25" height="12.6"/>
<rect x="-2719.343" y="403.86" fill="#221613" width="10.25" height="12.6"/>
<polygon fill="#221613" points="-2719.343,425.317 -2719.343,420.664 -2709.093,420.664 -2709.093,433.262 -2719.343,433.262 
	-2719.343,428.609 -2721.03,428.609 -2721.03,425.317 "/>
<rect x="-2719.343" y="437.467" fill="#221613" width="10.25" height="12.601"/>
<rect x="-2719.343" y="454.272" fill="#221613" width="10.25" height="12.6"/>
<polygon fill="#221613" points="-2719.343,475.729 -2719.343,471.075 -2709.093,471.075 -2709.093,483.675 -2719.343,483.675 
	-2719.343,479.021 -2721.03,479.021 -2721.03,475.729 "/>
<rect x="-2719.343" y="487.879" fill="#221613" width="10.25" height="12.601"/>
<rect x="-2719.343" y="504.683" fill="#221613" width="10.25" height="12.6"/>
<polygon fill="#221613" points="-2719.343,526.14 -2719.343,521.487 -2709.093,521.487 -2709.093,534.086 -2719.343,534.086 
	-2719.343,529.432 -2721.03,529.432 -2721.03,526.14 "/>
<rect x="-2719.343" y="538.291" fill="#221613" width="10.25" height="12.601"/>
<rect x="-2719.343" y="555.094" fill="#221613" width="10.25" height="12.601"/>
<polygon fill="#221613" points="-2719.343,576.552 -2719.343,571.899 -2709.093,571.899 -2709.093,584.499 -2719.343,584.499 
	-2719.343,579.844 -2721.03,579.844 -2721.03,576.552 "/>
<rect x="-2719.343" y="588.703" fill="#221613" width="10.25" height="12.6"/>
<rect x="-2719.343" y="605.506" fill="#221613" width="10.25" height="12.601"/>
<polygon fill="#221613" points="-2719.343,626.964 -2719.343,622.311 -2709.093,622.311 -2709.093,634.911 -2719.343,634.911 
	-2719.343,630.257 -2721.03,630.257 -2721.03,626.964 "/>
<rect x="-2719.343" y="639.115" fill="#221613" width="10.25" height="12.6"/>
<rect x="-2719.343" y="655.919" fill="#221613" width="10.25" height="12.6"/>
<polygon fill="#221613" points="-2719.343,677.376 -2719.343,672.721 -2709.093,672.721 -2709.093,685.322 -2719.343,685.322 
	-2719.343,680.668 -2721.03,680.668 -2721.03,677.376 "/>
<rect x="-2719.343" y="689.526" fill="#221613" width="10.25" height="12.6"/>
<rect x="-2719.343" y="706.331" fill="#221613" width="10.25" height="12.6"/>
<polygon fill="#221613" points="-2719.343,727.788 -2719.343,723.134 -2709.093,723.134 -2709.093,735.734 -2719.343,735.734 
	-2719.343,731.08 -2721.03,731.08 -2721.03,727.788 "/>
<rect x="-2719.343" y="739.937" fill="#221613" width="10.25" height="12.601"/>
<rect x="-2719.343" y="756.742" fill="#221613" width="10.25" height="12.6"/>
<polygon fill="#221613" points="-2719.343,778.2 -2719.343,773.546 -2709.093,773.546 -2709.093,786.145 -2719.343,786.145 
	-2719.343,781.493 -2721.03,781.493 -2721.03,778.2 "/>
<polygon fill="#221613" points="-2719.343,828.61 -2719.343,823.958 -2709.093,823.958 -2709.093,836.556 -2719.343,836.556 
	-2719.343,831.903 -2721.03,831.903 -2721.03,828.61 "/>
<polygon fill="#221613" points="-2719.343,879.022 -2719.343,874.37 -2709.093,874.37 -2709.093,886.969 -2719.343,886.969 
	-2719.343,882.315 -2721.03,882.315 -2721.03,879.022 "/>
<rect x="-2719.343" y="790.349" fill="#221613" width="10.25" height="12.601"/>
<rect x="-2719.343" y="807.154" fill="#221613" width="10.25" height="12.6"/>
<rect x="-2719.343" y="840.761" fill="#221613" width="10.25" height="12.601"/>
<rect x="-2719.343" y="857.566" fill="#221613" width="10.25" height="12.6"/>
<rect x="-2719.343" y="891.173" fill="#221613" width="10.25" height="12.6"/>
<rect x="-2719.343" y="907.976" fill="#221613" width="10.25" height="12.601"/>
<polygon fill="#221613" points="-2719.343,929.433 -2719.343,924.782 -2709.093,924.782 -2709.093,937.381 -2719.343,937.381 
	-2719.343,932.726 -2721.03,932.726 -2721.03,929.433 "/>
<rect x="-2719.343" y="941.585" fill="#221613" width="10.25" height="12.6"/>
<rect x="-2719.343" y="958.388" fill="#221613" width="10.25" height="12.601"/>
<polygon fill="#221613" points="-2719.343,979.845 -2719.343,975.193 -2709.093,975.193 -2709.093,987.793 -2719.343,987.793 
	-2719.343,983.137 -2721.03,983.137 -2721.03,979.845 "/>
<rect x="-2719.343" y="991.997" fill="#221613" width="10.25" height="12.6"/>
<rect x="-2719.343" y="1008.801" fill="#221613" width="10.25" height="12.601"/>
<polygon fill="#221613" points="-2719.343,1030.258 -2719.343,1025.604 -2709.093,1025.604 -2709.093,1038.205 -2719.343,1038.205 
	-2719.343,1033.551 -2721.03,1033.551 -2721.03,1030.258 "/>
<polygon fill="#221613" points="-2719.343,1080.67 -2719.343,1076.016 -2709.093,1076.016 -2709.093,1088.617 -2719.343,1088.617 
	-2719.343,1083.963 -2721.03,1083.963 -2721.03,1080.67 "/>
<rect x="-2719.343" y="1042.409" fill="#221613" width="10.25" height="12.6"/>
<rect x="-2719.343" y="1059.212" fill="#221613" width="10.25" height="12.6"/>
<rect x="-2719.343" y="1092.821" fill="#221613" width="10.25" height="12.6"/>
<rect x="-2719.343" y="1109.625" fill="#221613" width="10.25" height="12.6"/>
<rect x="-2719.343" y="1143.233" fill="#221613" width="10.25" height="12.6"/>
<rect x="-2719.343" y="1160.037" fill="#221613" width="10.25" height="12.599"/>
<polygon fill="#221613" points="-2719.343,1181.494 -2719.343,1176.84 -2709.093,1176.84 -2709.093,1189.44 -2719.343,1189.44 
	-2719.343,1184.787 -2721.03,1184.787 -2721.03,1181.494 "/>
<polygon fill="#221613" points="-2719.343,1131.082 -2719.343,1126.427 -2709.093,1126.427 -2709.093,1139.028 -2719.343,1139.028 
	-2719.343,1134.375 -2721.03,1134.375 -2721.03,1131.082 "/>
<rect x="-2719.343" y="1193.643" fill="#221613" width="10.25" height="12.601"/>
<rect x="-2719.343" y="1210.448" fill="#221613" width="10.25" height="12.6"/>
<polygon fill="#221613" points="-2719.343,1231.905 -2719.343,1227.252 -2709.093,1227.252 -2709.093,1239.851 -2719.343,1239.851 
	-2719.343,1235.198 -2721.03,1235.198 -2721.03,1231.905 "/>
<rect x="-2719.343" y="1244.055" fill="#221613" width="10.25" height="12.601"/>
<rect x="-2719.343" y="1260.86" fill="#221613" width="10.25" height="12.6"/>
<polygon fill="#221613" points="-2719.343,1282.315 -2719.343,1277.664 -2709.093,1277.664 -2709.093,1290.262 -2719.343,1290.262 
	-2719.343,1285.609 -2721.03,1285.609 -2721.03,1282.315 "/>
<polygon fill="#221613" points="-2719.343,1332.727 -2719.343,1328.076 -2709.093,1328.076 -2709.093,1340.675 -2719.343,1340.675 
	-2719.343,1336.02 -2721.03,1336.02 -2721.03,1332.727 "/>
<rect x="-2719.343" y="1294.467" fill="#221613" width="10.25" height="12.601"/>
<rect x="-2719.343" y="1311.272" fill="#221613" width="10.25" height="12.6"/>
<rect x="-2719.343" y="1344.879" fill="#221613" width="10.25" height="12.6"/>
<rect x="-2719.343" y="1361.682" fill="#221613" width="10.25" height="12.601"/>
<rect x="-2719.343" y="1395.292" fill="#221613" width="10.25" height="12.6"/>
<rect x="-2719.343" y="1412.094" fill="#221613" width="10.25" height="12.601"/>
<polygon fill="#221613" points="-2719.343,1433.551 -2719.343,1428.899 -2709.093,1428.899 -2709.093,1441.499 -2719.343,1441.499 
	-2719.343,1436.844 -2721.03,1436.844 -2721.03,1433.551 "/>
<polygon fill="#221613" points="-2719.343,1383.138 -2719.343,1378.487 -2709.093,1378.487 -2709.093,1391.086 -2719.343,1391.086 
	-2719.343,1386.431 -2721.03,1386.431 -2721.03,1383.138 "/>
<rect x="-2719.343" y="1445.704" fill="#221613" width="10.25" height="12.6"/>
<rect x="-2719.343" y="1462.507" fill="#221613" width="10.25" height="12.6"/>
<polygon fill="#221613" points="-2719.343,1483.964 -2719.343,1479.31 -2709.093,1479.31 -2709.093,1491.911 -2719.343,1491.911 
	-2719.343,1487.256 -2721.03,1487.256 -2721.03,1483.964 "/>
<rect x="-2719.343" y="1496.115" fill="#221613" width="10.25" height="12.6"/>
<rect x="-2719.343" y="1512.919" fill="#221613" width="10.25" height="12.6"/>
<polygon fill="#221613" points="-2719.343,1534.376 -2719.343,1529.722 -2709.093,1529.722 -2709.093,1542.323 -2719.343,1542.323 
	-2719.343,1537.669 -2721.03,1537.669 -2721.03,1534.376 "/>
<polygon fill="#221613" points="-2719.343,1584.788 -2719.343,1580.134 -2709.093,1580.134 -2709.093,1592.734 -2719.343,1592.734 
	-2719.343,1588.081 -2721.03,1588.081 -2721.03,1584.788 "/>
<rect x="-2719.343" y="1546.527" fill="#221613" width="10.25" height="12.6"/>
<rect x="-2719.343" y="1563.331" fill="#221613" width="10.25" height="12.6"/>
<rect x="-2719.343" y="1596.938" fill="#221613" width="10.25" height="12.6"/>
<rect x="-2719.343" y="1613.743" fill="#221613" width="10.25" height="12.6"/>
<rect x="-2719.343" y="1647.349" fill="#221613" width="10.25" height="12.601"/>
<rect x="-2719.343" y="1664.154" fill="#221613" width="10.25" height="12.6"/>
<polygon fill="#221613" points="-2719.343,1685.612 -2719.343,1680.958 -2709.093,1680.958 -2709.093,1693.556 -2719.343,1693.556 
	-2719.343,1688.905 -2721.03,1688.905 -2721.03,1685.612 "/>
<polygon fill="#221613" points="-2719.343,1635.2 -2719.343,1630.546 -2709.093,1630.546 -2709.093,1643.145 -2719.343,1643.145 
	-2719.343,1638.493 -2721.03,1638.493 -2721.03,1635.2 "/>
<rect x="-2719.343" y="1697.761" fill="#221613" width="10.25" height="12.601"/>
<rect x="-2719.343" y="1714.565" fill="#221613" width="10.25" height="12.601"/>
<polygon fill="#221613" points="-2719.343,1736.022 -2719.343,1731.37 -2709.093,1731.37 -2709.093,1743.969 -2719.343,1743.969 
	-2719.343,1739.315 -2721.03,1739.315 -2721.03,1736.022 "/>
<rect x="-2719.343" y="1748.173" fill="#221613" width="10.25" height="12.6"/>
<rect x="-2719.343" y="1764.977" fill="#221613" width="10.25" height="12.601"/>
<polygon fill="#221613" points="-2719.343,1786.434 -2719.343,1781.782 -2709.093,1781.782 -2709.093,1794.381 -2719.343,1794.381 
	-2719.343,1789.727 -2721.03,1789.727 -2721.03,1786.434 "/>
<polygon fill="#221613" points="-2719.343,1836.845 -2719.343,1832.194 -2709.093,1832.194 -2709.093,1844.794 -2719.343,1844.794 
	-2719.343,1840.138 -2721.03,1840.138 -2721.03,1836.845 "/>
<rect x="-2719.343" y="1798.585" fill="#221613" width="10.25" height="12.6"/>
<rect x="-2719.343" y="1815.388" fill="#221613" width="10.25" height="12.601"/>
<rect x="-2719.343" y="1848.998" fill="#221613" width="10.25" height="12.6"/>
<rect x="-2719.343" y="1865.801" fill="#221613" width="10.25" height="12.601"/>
<rect x="-2719.343" y="1899.409" fill="#221613" width="10.25" height="12.6"/>
<rect x="-2719.343" y="1916.213" fill="#221613" width="10.25" height="12.601"/>
<polygon fill="#221613" points="-2719.343,1937.67 -2719.343,1933.016 -2709.093,1933.016 -2709.093,1945.617 -2719.343,1945.617 
	-2719.343,1940.963 -2721.03,1940.963 -2721.03,1937.67 "/>
<polygon fill="#221613" points="-2719.343,1887.258 -2719.343,1882.604 -2709.093,1882.604 -2709.093,1895.205 -2719.343,1895.205 
	-2719.343,1890.551 -2721.03,1890.551 -2721.03,1887.258 "/>
<rect x="-2719.343" y="1949.821" fill="#221613" width="10.25" height="12.6"/>
<rect x="-2719.343" y="1966.625" fill="#221613" width="10.25" height="12.6"/>
<polygon fill="#221613" points="-2719.343,1988.083 -2719.343,1983.427 -2709.093,1983.427 -2709.093,1996.028 -2719.343,1996.028 
	-2719.343,1991.374 -2721.03,1991.374 -2721.03,1988.083 "/>
<rect x="-2719.343" y="2000.233" fill="#221613" width="10.25" height="12.6"/>
<rect x="-2719.343" y="2017.037" fill="#221613" width="10.25" height="12.6"/>
<polygon fill="#221613" points="-2719.343,2038.494 -2719.343,2033.84 -2709.093,2033.84 -2709.093,2046.44 -2719.343,2046.44 
	-2719.343,2041.787 -2721.03,2041.787 -2721.03,2038.494 "/>
<polygon fill="#221613" points="-2719.343,2088.906 -2719.343,2084.252 -2709.093,2084.252 -2709.093,2096.851 -2719.343,2096.851 
	-2719.343,2092.199 -2721.03,2092.199 -2721.03,2088.906 "/>
<rect x="-2719.343" y="2050.643" fill="#221613" width="10.25" height="12.601"/>
<rect x="-2719.343" y="2067.449" fill="#221613" width="10.25" height="12.6"/>
<rect x="-2719.343" y="2101.055" fill="#221613" width="10.25" height="12.601"/>
<rect x="-2719.343" y="2117.86" fill="#221613" width="10.25" height="12.6"/>
<rect x="-2719.343" y="2151.468" fill="#221613" width="10.25" height="12.601"/>
<rect x="-2719.343" y="2168.272" fill="#221613" width="10.25" height="12.6"/>
<polygon fill="#221613" points="-2719.343,2189.729 -2719.343,2185.076 -2709.093,2185.076 -2709.093,2197.675 -2719.343,2197.675 
	-2719.343,2193.022 -2721.03,2193.022 -2721.03,2189.729 "/>
<polygon fill="#221613" points="-2719.343,2139.317 -2719.343,2134.665 -2709.093,2134.665 -2709.093,2147.263 -2719.343,2147.263 
	-2719.343,2142.61 -2721.03,2142.61 -2721.03,2139.317 "/>
<rect x="-2719.343" y="2201.879" fill="#221613" width="10.25" height="12.6"/>
<rect x="-2719.343" y="2218.683" fill="#221613" width="10.25" height="12.601"/>
<polygon fill="#221613" points="-2719.343,2240.139 -2719.343,2235.488 -2709.093,2235.488 -2709.093,2248.087 -2719.343,2248.087 
	-2719.343,2243.432 -2721.03,2243.432 -2721.03,2240.139 "/>
<rect x="-2719.343" y="2252.292" fill="#221613" width="10.25" height="12.6"/>
<rect x="-2719.343" y="2269.094" fill="#221613" width="10.25" height="12.601"/>
<polygon fill="#221613" points="-2719.343,2290.552 -2719.343,2285.899 -2709.093,2285.899 -2709.093,2298.499 -2719.343,2298.499 
	-2719.343,2293.845 -2721.03,2293.845 -2721.03,2290.552 "/>
<polygon fill="#221613" points="-2719.343,2340.964 -2719.343,2336.311 -2709.093,2336.311 -2709.093,2348.911 -2719.343,2348.911 
	-2719.343,2344.257 -2721.03,2344.257 -2721.03,2340.964 "/>
<rect x="-2719.343" y="2302.704" fill="#221613" width="10.25" height="12.6"/>
<rect x="-2719.343" y="2319.507" fill="#221613" width="10.25" height="12.6"/>
<rect x="-2719.343" y="2353.115" fill="#221613" width="10.25" height="12.6"/>
<rect x="-2719.343" y="2369.919" fill="#221613" width="10.25" height="12.6"/>
<rect x="-2719.343" y="2403.526" fill="#221613" width="10.25" height="12.601"/>
<polygon fill="#221613" points="-2719.343,2391.377 -2719.343,2386.722 -2709.093,2386.722 -2709.093,2399.323 -2719.343,2399.323 
	-2719.343,2394.669 -2721.03,2394.669 -2721.03,2391.377 "/>
<text transform="matrix(0.9276 0 0 1 -2695.8669 334.6785)" fill="#FFFFFF" font-family="'MicrosoftYaHei'" font-size="21">42</text>
<text transform="matrix(0.9276 0 0 1 -2695.8669 334.6785)" fill="none" stroke="#3E3A39" stroke-width="0.7" stroke-miterlimit="10" font-family="'MicrosoftYaHei'" font-size="21">42</text>
<text transform="matrix(0.9276 0 0 1 -2695.8669 385.0769)" fill="#FFFFFF" font-family="'MicrosoftYaHei'" font-size="21">41</text>
<text transform="matrix(0.9276 0 0 1 -2695.8669 385.0769)" fill="none" stroke="#3E3A39" stroke-width="0.7" stroke-miterlimit="10" font-family="'MicrosoftYaHei'" font-size="21">41</text>
<text transform="matrix(0.9276 0 0 1 -2695.8669 435.4734)" fill="#FFFFFF" font-family="'MicrosoftYaHei'" font-size="21">40</text>
<text transform="matrix(0.9276 0 0 1 -2695.8669 435.4734)" fill="none" stroke="#3E3A39" stroke-width="0.7" stroke-miterlimit="10" font-family="'MicrosoftYaHei'" font-size="21">40</text>
<text transform="matrix(0.9276 0 0 1 -2695.8669 485.8718)" fill="#FFFFFF" font-family="'MicrosoftYaHei'" font-size="21">39</text>
<text transform="matrix(0.9276 0 0 1 -2695.8669 485.8718)" fill="none" stroke="#3E3A39" stroke-width="0.7" stroke-miterlimit="10" font-family="'MicrosoftYaHei'" font-size="21">39</text>
<text transform="matrix(0.9276 0 0 1 -2695.8669 536.2683)" fill="#FFFFFF" font-family="'MicrosoftYaHei'" font-size="21">38</text>
<text transform="matrix(0.9276 0 0 1 -2695.8669 536.2683)" fill="none" stroke="#3E3A39" stroke-width="0.7" stroke-miterlimit="10" font-family="'MicrosoftYaHei'" font-size="21">38</text>
<text transform="matrix(0.9276 0 0 1 -2695.8669 586.6658)" fill="#FFFFFF" font-family="'MicrosoftYaHei'" font-size="21">37</text>
<text transform="matrix(0.9276 0 0 1 -2695.8669 586.6658)" fill="none" stroke="#3E3A39" stroke-width="0.7" stroke-miterlimit="10" font-family="'MicrosoftYaHei'" font-size="21">37</text>
<text transform="matrix(0.9276 0 0 1 -2695.8669 637.0652)" fill="#FFFFFF" font-family="'MicrosoftYaHei'" font-size="21">36</text>
<text transform="matrix(0.9276 0 0 1 -2695.8669 637.0652)" fill="none" stroke="#3E3A39" stroke-width="0.7" stroke-miterlimit="10" font-family="'MicrosoftYaHei'" font-size="21">36</text>
<text transform="matrix(0.9276 0 0 1 -2695.8669 687.4617)" fill="#FFFFFF" font-family="'MicrosoftYaHei'" font-size="21">35</text>
<text transform="matrix(0.9276 0 0 1 -2695.8669 687.4617)" fill="none" stroke="#3E3A39" stroke-width="0.7" stroke-miterlimit="10" font-family="'MicrosoftYaHei'" font-size="21">35</text>
<text transform="matrix(0.9276 0 0 1 -2695.8669 737.8601)" fill="#FFFFFF" font-family="'MicrosoftYaHei'" font-size="21">34</text>
<text transform="matrix(0.9276 0 0 1 -2695.8669 737.8601)" fill="none" stroke="#3E3A39" stroke-width="0.7" stroke-miterlimit="10" font-family="'MicrosoftYaHei'" font-size="21">34</text>
<text transform="matrix(0.9276 0 0 1 -2695.8669 788.2566)" fill="#FFFFFF" font-family="'MicrosoftYaHei'" font-size="21">33</text>
<text transform="matrix(0.9276 0 0 1 -2695.8669 788.2566)" fill="none" stroke="#3E3A39" stroke-width="0.7" stroke-miterlimit="10" font-family="'MicrosoftYaHei'" font-size="21">33</text>
<text transform="matrix(0.9276 0 0 1 -2695.8669 838.655)" fill="#FFFFFF" font-family="'MicrosoftYaHei'" font-size="21">32</text>
<text transform="matrix(0.9276 0 0 1 -2695.8669 838.655)" fill="none" stroke="#3E3A39" stroke-width="0.7" stroke-miterlimit="10" font-family="'MicrosoftYaHei'" font-size="21">32</text>
<text transform="matrix(0.9276 0 0 1 -2695.8669 889.0515)" fill="#FFFFFF" font-family="'MicrosoftYaHei'" font-size="21">31</text>
<text transform="matrix(0.9276 0 0 1 -2695.8669 889.0515)" fill="none" stroke="#3E3A39" stroke-width="0.7" stroke-miterlimit="10" font-family="'MicrosoftYaHei'" font-size="21">31</text>
<text transform="matrix(0.9276 0 0 1 -2695.8669 939.45)" fill="#FFFFFF" font-family="'MicrosoftYaHei'" font-size="21">30</text>
<text transform="matrix(0.9276 0 0 1 -2695.8669 939.45)" fill="none" stroke="#3E3A39" stroke-width="0.7" stroke-miterlimit="10" font-family="'MicrosoftYaHei'" font-size="21">30</text>
<text transform="matrix(0.9276 0 0 1 -2695.8669 989.8455)" fill="#FFFFFF" font-family="'MicrosoftYaHei'" font-size="21">29</text>
<text transform="matrix(0.9276 0 0 1 -2695.8669 989.8455)" fill="none" stroke="#3E3A39" stroke-width="0.7" stroke-miterlimit="10" font-family="'MicrosoftYaHei'" font-size="21">29</text>
<text transform="matrix(0.9276 0 0 1 -2695.8669 1040.2449)" fill="#FFFFFF" font-family="'MicrosoftYaHei'" font-size="21">28</text>
<text transform="matrix(0.9276 0 0 1 -2695.8669 1040.2449)" fill="none" stroke="#3E3A39" stroke-width="0.7" stroke-miterlimit="10" font-family="'MicrosoftYaHei'" font-size="21">28</text>
<text transform="matrix(0.9276 0 0 1 -2695.8669 1090.6414)" fill="#FFFFFF" font-family="'MicrosoftYaHei'" font-size="21">27</text>
<text transform="matrix(0.9276 0 0 1 -2695.8669 1090.6414)" fill="none" stroke="#3E3A39" stroke-width="0.7" stroke-miterlimit="10" font-family="'MicrosoftYaHei'" font-size="21">27</text>
<text transform="matrix(0.9276 0 0 1 -2695.8669 1141.0398)" fill="#FFFFFF" font-family="'MicrosoftYaHei'" font-size="21">26</text>
<text transform="matrix(0.9276 0 0 1 -2695.8669 1141.0398)" fill="none" stroke="#3E3A39" stroke-width="0.7" stroke-miterlimit="10" font-family="'MicrosoftYaHei'" font-size="21">26</text>
<text transform="matrix(0.9276 0 0 1 -2695.8669 1191.4373)" fill="#FFFFFF" font-family="'MicrosoftYaHei'" font-size="21">25</text>
<text transform="matrix(0.9276 0 0 1 -2695.8669 1191.4373)" fill="none" stroke="#3E3A39" stroke-width="0.7" stroke-miterlimit="10" font-family="'MicrosoftYaHei'" font-size="21">25</text>
<text transform="matrix(0.9276 0 0 1 -2695.8669 1241.8347)" fill="#FFFFFF" font-family="'MicrosoftYaHei'" font-size="21">24</text>
<text transform="matrix(0.9276 0 0 1 -2695.8669 1241.8347)" fill="none" stroke="#3E3A39" stroke-width="0.7" stroke-miterlimit="10" font-family="'MicrosoftYaHei'" font-size="21">24</text>
<text transform="matrix(0.9276 0 0 1 -2695.8669 1292.2312)" fill="#FFFFFF" font-family="'MicrosoftYaHei'" font-size="21">23</text>
<text transform="matrix(0.9276 0 0 1 -2695.8669 1292.2312)" fill="none" stroke="#3E3A39" stroke-width="0.7" stroke-miterlimit="10" font-family="'MicrosoftYaHei'" font-size="21">23</text>
<text transform="matrix(0.9276 0 0 1 -2695.8669 1342.6296)" fill="#FFFFFF" font-family="'MicrosoftYaHei'" font-size="21">22</text>
<text transform="matrix(0.9276 0 0 1 -2695.8669 1342.6296)" fill="none" stroke="#3E3A39" stroke-width="0.7" stroke-miterlimit="10" font-family="'MicrosoftYaHei'" font-size="21">22</text>
<text transform="matrix(0.9276 0 0 1 -2695.8669 1393.0261)" fill="#FFFFFF" font-family="'MicrosoftYaHei'" font-size="21">21</text>
<text transform="matrix(0.9276 0 0 1 -2695.8669 1393.0261)" fill="none" stroke="#3E3A39" stroke-width="0.7" stroke-miterlimit="10" font-family="'MicrosoftYaHei'" font-size="21">21</text>
<text transform="matrix(0.9276 0 0 1 -2695.8669 1443.4246)" fill="#FFFFFF" font-family="'MicrosoftYaHei'" font-size="21">20</text>
<text transform="matrix(0.9276 0 0 1 -2695.8669 1443.4246)" fill="none" stroke="#3E3A39" stroke-width="0.7" stroke-miterlimit="10" font-family="'MicrosoftYaHei'" font-size="21">20</text>
<text transform="matrix(0.9276 0 0 1 -2695.8669 1493.821)" fill="#FFFFFF" font-family="'MicrosoftYaHei'" font-size="21">19</text>
<text transform="matrix(0.9276 0 0 1 -2695.8669 1493.821)" fill="none" stroke="#3E3A39" stroke-width="0.7" stroke-miterlimit="10" font-family="'MicrosoftYaHei'" font-size="21">19</text>
<text transform="matrix(0.9276 0 0 1 -2695.8669 1544.2195)" fill="#FFFFFF" font-family="'MicrosoftYaHei'" font-size="21">18</text>
<text transform="matrix(0.9276 0 0 1 -2695.8669 1544.2195)" fill="none" stroke="#3E3A39" stroke-width="0.7" stroke-miterlimit="10" font-family="'MicrosoftYaHei'" font-size="21">18</text>
<text transform="matrix(0.9276 0 0 1 -2695.8669 1594.616)" fill="#FFFFFF" font-family="'MicrosoftYaHei'" font-size="21">17</text>
<text transform="matrix(0.9276 0 0 1 -2695.8669 1594.616)" fill="none" stroke="#3E3A39" stroke-width="0.7" stroke-miterlimit="10" font-family="'MicrosoftYaHei'" font-size="21">17</text>
<text transform="matrix(0.9276 0 0 1 -2695.8669 1645.0144)" fill="#FFFFFF" font-family="'MicrosoftYaHei'" font-size="21">16</text>
<text transform="matrix(0.9276 0 0 1 -2695.8669 1645.0144)" fill="none" stroke="#3E3A39" stroke-width="0.7" stroke-miterlimit="10" font-family="'MicrosoftYaHei'" font-size="21">16</text>
<text transform="matrix(0.9276 0 0 1 -2695.8669 1695.4128)" fill="#FFFFFF" font-family="'MicrosoftYaHei'" font-size="21">15</text>
<text transform="matrix(0.9276 0 0 1 -2695.8669 1695.4128)" fill="none" stroke="#3E3A39" stroke-width="0.7" stroke-miterlimit="10" font-family="'MicrosoftYaHei'" font-size="21">15</text>
<text transform="matrix(0.9276 0 0 1 -2695.8669 1745.8093)" fill="#FFFFFF" font-family="'MicrosoftYaHei'" font-size="21">14</text>
<text transform="matrix(0.9276 0 0 1 -2695.8669 1745.8093)" fill="none" stroke="#3E3A39" stroke-width="0.7" stroke-miterlimit="10" font-family="'MicrosoftYaHei'" font-size="21">14</text>
<text transform="matrix(0.9276 0 0 1 -2695.8669 1796.2078)" fill="#FFFFFF" font-family="'MicrosoftYaHei'" font-size="21">13</text>
<text transform="matrix(0.9276 0 0 1 -2695.8669 1796.2078)" fill="none" stroke="#3E3A39" stroke-width="0.7" stroke-miterlimit="10" font-family="'MicrosoftYaHei'" font-size="21">13</text>
<text transform="matrix(0.9276 0 0 1 -2695.8669 1846.6042)" fill="#FFFFFF" font-family="'MicrosoftYaHei'" font-size="21">12</text>
<text transform="matrix(0.9276 0 0 1 -2695.8669 1846.6042)" fill="none" stroke="#3E3A39" stroke-width="0.7" stroke-miterlimit="10" font-family="'MicrosoftYaHei'" font-size="21">12</text>
<text transform="matrix(0.9276 0 0 1 -2695.8669 1897.0027)" fill="#FFFFFF" font-family="'MicrosoftYaHei'" font-size="21">11</text>
<text transform="matrix(0.9276 0 0 1 -2695.8669 1897.0027)" fill="none" stroke="#3E3A39" stroke-width="0.7" stroke-miterlimit="10" font-family="'MicrosoftYaHei'" font-size="21">11</text>
<text transform="matrix(0.9276 0 0 1 -2695.8669 1947.3992)" fill="#FFFFFF" font-family="'MicrosoftYaHei'" font-size="21">10</text>
<text transform="matrix(0.9276 0 0 1 -2695.8669 1947.3992)" fill="none" stroke="#3E3A39" stroke-width="0.7" stroke-miterlimit="10" font-family="'MicrosoftYaHei'" font-size="21">10</text>
<text transform="matrix(0.9276 0 0 1 -2695.8669 1997.7976)" fill="#FFFFFF" font-family="'MicrosoftYaHei'" font-size="21">9</text>
<text transform="matrix(0.9276 0 0 1 -2695.8669 1997.7976)" fill="none" stroke="#3E3A39" stroke-width="0.7" stroke-miterlimit="10" font-family="'MicrosoftYaHei'" font-size="21">9</text>
<text transform="matrix(0.9276 0 0 1 -2695.8669 2048.1941)" fill="#FFFFFF" font-family="'MicrosoftYaHei'" font-size="21">8</text>
<text transform="matrix(0.9276 0 0 1 -2695.8669 2048.1941)" fill="none" stroke="#3E3A39" stroke-width="0.7" stroke-miterlimit="10" font-family="'MicrosoftYaHei'" font-size="21">8</text>
<text transform="matrix(0.9276 0 0 1 -2695.8669 2098.5925)" fill="#FFFFFF" font-family="'MicrosoftYaHei'" font-size="21">7</text>
<text transform="matrix(0.9276 0 0 1 -2695.8669 2098.5925)" fill="none" stroke="#3E3A39" stroke-width="0.7" stroke-miterlimit="10" font-family="'MicrosoftYaHei'" font-size="21">7</text>
<text transform="matrix(0.9276 0 0 1 -2695.8669 2148.989)" fill="#FFFFFF" font-family="'MicrosoftYaHei'" font-size="21">6</text>
<text transform="matrix(0.9276 0 0 1 -2695.8669 2148.989)" fill="none" stroke="#3E3A39" stroke-width="0.7" stroke-miterlimit="10" font-family="'MicrosoftYaHei'" font-size="21">6</text>
<text transform="matrix(0.9276 0 0 1 -2695.8669 2199.3875)" fill="#FFFFFF" font-family="'MicrosoftYaHei'" font-size="21">5</text>
<text transform="matrix(0.9276 0 0 1 -2695.8669 2199.3875)" fill="none" stroke="#3E3A39" stroke-width="0.7" stroke-miterlimit="10" font-family="'MicrosoftYaHei'" font-size="21">5</text>
<text transform="matrix(0.9276 0 0 1 -2695.8669 2249.7839)" fill="#FFFFFF" font-family="'MicrosoftYaHei'" font-size="21">4</text>
<text transform="matrix(0.9276 0 0 1 -2695.8669 2249.7839)" fill="none" stroke="#3E3A39" stroke-width="0.7" stroke-miterlimit="10" font-family="'MicrosoftYaHei'" font-size="21">4</text>
<text transform="matrix(0.9276 0 0 1 -2695.8669 2300.1824)" fill="#FFFFFF" font-family="'MicrosoftYaHei'" font-size="21">3</text>
<text transform="matrix(0.9276 0 0 1 -2695.8669 2300.1824)" fill="none" stroke="#3E3A39" stroke-width="0.7" stroke-miterlimit="10" font-family="'MicrosoftYaHei'" font-size="21">3</text>
<text transform="matrix(0.9276 0 0 1 -2695.8669 2350.5789)" fill="#FFFFFF" font-family="'MicrosoftYaHei'" font-size="21">2</text>
<text transform="matrix(0.9276 0 0 1 -2695.8669 2350.5789)" fill="none" stroke="#3E3A39" stroke-width="0.7" stroke-miterlimit="10" font-family="'MicrosoftYaHei'" font-size="21">2</text>
<text transform="matrix(0.9276 0 0 1 -2695.8669 2400.9773)" fill="#FFFFFF" font-family="'MicrosoftYaHei'" font-size="21">1</text>
<text transform="matrix(0.9276 0 0 1 -2695.8669 2400.9773)" fill="none" stroke="#3E3A39" stroke-width="0.7" stroke-miterlimit="10" font-family="'MicrosoftYaHei'" font-size="21">1</text>
<polygon fill="#FFFFFF" stroke="#3E3A39" stroke-width="0.7" stroke-miterlimit="10" points="-2704.134,326.519 -2697.007,332.727 
	-2697.007,320.31 "/>
<polygon fill="#FFFFFF" stroke="#3E3A39" stroke-width="0.7" stroke-miterlimit="10" points="-2704.134,376.916 -2697.007,383.125 
	-2697.007,370.708 "/>
<polygon fill="#FFFFFF" stroke="#3E3A39" stroke-width="0.7" stroke-miterlimit="10" points="-2704.134,427.314 -2697.007,433.522 
	-2697.007,421.105 "/>
<polygon fill="#FFFFFF" stroke="#3E3A39" stroke-width="0.7" stroke-miterlimit="10" points="-2704.134,477.711 -2697.007,483.919 
	-2697.007,471.502 "/>
<polygon fill="#FFFFFF" stroke="#3E3A39" stroke-width="0.7" stroke-miterlimit="10" points="-2704.134,528.109 -2697.007,534.317 
	-2697.007,521.9 "/>
<polygon fill="#FFFFFF" stroke="#3E3A39" stroke-width="0.7" stroke-miterlimit="10" points="-2704.134,578.506 -2697.007,584.714 
	-2697.007,572.297 "/>
<polygon fill="#FFFFFF" stroke="#3E3A39" stroke-width="0.7" stroke-miterlimit="10" points="-2704.134,628.904 -2697.007,635.112 
	-2697.007,622.696 "/>
<polygon fill="#FFFFFF" stroke="#3E3A39" stroke-width="0.7" stroke-miterlimit="10" points="-2704.134,679.301 -2697.007,685.509 
	-2697.007,673.093 "/>
<polygon fill="#FFFFFF" stroke="#3E3A39" stroke-width="0.7" stroke-miterlimit="10" points="-2704.134,729.7 -2697.007,735.907 
	-2697.007,723.491 "/>
<polygon fill="#FFFFFF" stroke="#3E3A39" stroke-width="0.7" stroke-miterlimit="10" points="-2704.134,780.095 -2697.007,786.303 
	-2697.007,773.887 "/>
<polygon fill="#FFFFFF" stroke="#3E3A39" stroke-width="0.7" stroke-miterlimit="10" points="-2704.134,830.494 -2697.007,836.702 
	-2697.007,824.286 "/>
<polygon fill="#FFFFFF" stroke="#3E3A39" stroke-width="0.7" stroke-miterlimit="10" points="-2704.134,880.891 -2697.007,887.098 
	-2697.007,874.682 "/>
<polygon fill="#FFFFFF" stroke="#3E3A39" stroke-width="0.7" stroke-miterlimit="10" points="-2704.134,931.289 -2697.007,937.497 
	-2697.007,925.081 "/>
<polygon fill="#FFFFFF" stroke="#3E3A39" stroke-width="0.7" stroke-miterlimit="10" points="-2704.134,981.685 -2697.007,987.893 
	-2697.007,975.477 "/>
<polygon fill="#FFFFFF" stroke="#3E3A39" stroke-width="0.7" stroke-miterlimit="10" points="-2704.134,1032.085 
	-2697.007,1038.292 -2697.007,1025.876 "/>
<polygon fill="#FFFFFF" stroke="#3E3A39" stroke-width="0.7" stroke-miterlimit="10" points="-2704.134,1082.481 
	-2697.007,1088.688 -2697.007,1076.272 "/>
<polygon fill="#FFFFFF" stroke="#3E3A39" stroke-width="0.7" stroke-miterlimit="10" points="-2704.134,1132.879 
	-2697.007,1139.086 -2697.007,1126.67 "/>
<polygon fill="#FFFFFF" stroke="#3E3A39" stroke-width="0.7" stroke-miterlimit="10" points="-2704.134,1183.276 
	-2697.007,1189.485 -2697.007,1177.069 "/>
<polygon fill="#FFFFFF" stroke="#3E3A39" stroke-width="0.7" stroke-miterlimit="10" points="-2704.134,1233.674 
	-2697.007,1239.883 -2697.007,1227.465 "/>
<polygon fill="#FFFFFF" stroke="#3E3A39" stroke-width="0.7" stroke-miterlimit="10" points="-2704.134,1284.072 
	-2697.007,1290.281 -2697.007,1277.863 "/>
<polygon fill="#FFFFFF" stroke="#3E3A39" stroke-width="0.7" stroke-miterlimit="10" points="-2704.134,1334.469 
	-2697.007,1340.677 -2697.007,1328.26 "/>
<polygon fill="#FFFFFF" stroke="#3E3A39" stroke-width="0.7" stroke-miterlimit="10" points="-2704.134,1384.868 
	-2697.007,1391.075 -2697.007,1378.659 "/>
<polygon fill="#FFFFFF" stroke="#3E3A39" stroke-width="0.7" stroke-miterlimit="10" points="-2704.134,1435.264 
	-2697.007,1441.471 -2697.007,1429.055 "/>
<polygon fill="#FFFFFF" stroke="#3E3A39" stroke-width="0.7" stroke-miterlimit="10" points="-2704.134,1485.663 -2697.007,1491.87 
	-2697.007,1479.454 "/>
<polygon fill="#FFFFFF" stroke="#3E3A39" stroke-width="0.7" stroke-miterlimit="10" points="-2704.134,1536.057 
	-2697.007,1542.266 -2697.007,1529.85 "/>
<polygon fill="#FFFFFF" stroke="#3E3A39" stroke-width="0.7" stroke-miterlimit="10" points="-2704.134,1586.456 
	-2697.007,1592.665 -2697.007,1580.249 "/>
<polygon fill="#FFFFFF" stroke="#3E3A39" stroke-width="0.7" stroke-miterlimit="10" points="-2704.134,1636.854 
	-2697.007,1643.061 -2697.007,1630.645 "/>
<polygon fill="#FFFFFF" stroke="#3E3A39" stroke-width="0.7" stroke-miterlimit="10" points="-2704.134,1687.251 -2697.007,1693.46 
	-2697.007,1681.044 "/>
<polygon fill="#FFFFFF" stroke="#3E3A39" stroke-width="0.7" stroke-miterlimit="10" points="-2704.134,1737.647 
	-2697.007,1743.856 -2697.007,1731.44 "/>
<polygon fill="#FFFFFF" stroke="#3E3A39" stroke-width="0.7" stroke-miterlimit="10" points="-2704.134,1788.047 
	-2697.007,1794.254 -2697.007,1781.838 "/>
<polygon fill="#FFFFFF" stroke="#3E3A39" stroke-width="0.7" stroke-miterlimit="10" points="-2704.134,1838.444 
	-2697.007,1844.652 -2697.007,1832.236 "/>
<polygon fill="#FFFFFF" stroke="#3E3A39" stroke-width="0.7" stroke-miterlimit="10" points="-2704.134,1888.841 
	-2697.007,1895.049 -2697.007,1882.633 "/>
<polygon fill="#FFFFFF" stroke="#3E3A39" stroke-width="0.7" stroke-miterlimit="10" points="-2704.134,1939.239 
	-2697.007,1945.448 -2697.007,1933.032 "/>
<polygon fill="#FFFFFF" stroke="#3E3A39" stroke-width="0.7" stroke-miterlimit="10" points="-2704.134,1989.636 
	-2697.007,1995.845 -2697.007,1983.427 "/>
<polygon fill="#FFFFFF" stroke="#3E3A39" stroke-width="0.7" stroke-miterlimit="10" points="-2704.134,2040.034 
	-2697.007,2046.243 -2697.007,2033.825 "/>
<polygon fill="#FFFFFF" stroke="#3E3A39" stroke-width="0.7" stroke-miterlimit="10" points="-2704.134,2090.431 -2697.007,2096.64 
	-2697.007,2084.222 "/>
<polygon fill="#FFFFFF" stroke="#3E3A39" stroke-width="0.7" stroke-miterlimit="10" points="-2704.134,2140.831 
	-2697.007,2147.038 -2697.007,2134.622 "/>
<polygon fill="#FFFFFF" stroke="#3E3A39" stroke-width="0.7" stroke-miterlimit="10" points="-2704.134,2191.227 
	-2697.007,2197.434 -2697.007,2185.018 "/>
<polygon fill="#FFFFFF" stroke="#3E3A39" stroke-width="0.7" stroke-miterlimit="10" points="-2704.134,2241.626 
	-2697.007,2247.833 -2697.007,2235.417 "/>
<polygon fill="#FFFFFF" stroke="#3E3A39" stroke-width="0.7" stroke-miterlimit="10" points="-2704.134,2292.02 -2697.007,2298.229 
	-2697.007,2285.813 "/>
<polygon fill="#FFFFFF" stroke="#3E3A39" stroke-width="0.7" stroke-miterlimit="10" points="-2704.134,2342.419 
	-2697.007,2348.627 -2697.007,2336.211 "/>
<polygon fill="#FFFFFF" stroke="#3E3A39" stroke-width="0.7" stroke-miterlimit="10" points="-2704.134,2392.817 
	-2697.007,2399.024 -2697.007,2386.608 "/>
<rect x="-3264.373" y="235.82" fill="#221613" width="10.25" height="12.6"/>
<polygon fill="#221613" points="-3254.123,257.278 -3254.123,252.624 -3264.373,252.624 -3264.373,265.224 -3254.123,265.224 
	-3254.123,260.57 -3252.436,260.57 -3252.436,257.278 "/>
<rect x="-3264.373" y="269.428" fill="#221613" width="10.25" height="12.6"/>
<rect x="-3264.373" y="286.232" fill="#221613" width="10.25" height="12.6"/>
<text transform="matrix(0.9276 0 0 1 -3302.5862 267.5876)" fill="#FFFFFF" stroke="#3E3A39" stroke-width="0.7002" stroke-miterlimit="10" font-family="'MicrosoftYaHei'" font-size="21">43</text>
<polygon fill="#FFFFFF" stroke="#3E3A39" stroke-width="0.7" stroke-miterlimit="10" points="-3269.852,259.303 -3276.978,265.511 
	-3276.978,253.094 "/>
<rect x="-2719.343" y="235.82" fill="#221613" width="10.25" height="12.6"/>
<polygon fill="#221613" points="-2719.343,257.278 -2719.343,252.624 -2709.093,252.624 -2709.093,265.224 -2719.343,265.224 
	-2719.343,260.57 -2721.03,260.57 -2721.03,257.278 "/>
<rect x="-2719.343" y="269.428" fill="#221613" width="10.25" height="12.6"/>
<rect x="-2719.343" y="286.232" fill="#221613" width="10.25" height="12.6"/>
<text transform="matrix(0.9276 0 0 1 -2695.8669 267.4626)" fill="#FFFFFF" stroke="#3E3A39" stroke-width="0.7002" stroke-miterlimit="10" font-family="'MicrosoftYaHei'" font-size="21">43</text>
<polygon fill="#FFFFFF" stroke="#3E3A39" stroke-width="0.7" stroke-miterlimit="10" points="-2704.134,259.303 -2697.007,265.511 
	-2697.007,253.094 "/>
<rect x="-3264.373" y="168.604" fill="#221613" width="10.25" height="12.6"/>
<polygon fill="#221613" points="-3254.123,190.062 -3254.123,185.408 -3264.373,185.408 -3264.373,198.009 -3254.123,198.009 
	-3254.123,193.354 -3252.436,193.354 -3252.436,190.062 "/>
<rect x="-3264.373" y="202.213" fill="#221613" width="10.25" height="12.6"/>
<rect x="-3264.373" y="219.016" fill="#221613" width="10.25" height="12.6"/>
<text transform="matrix(0.9276 0 0 1 -3302.5862 200.3718)" fill="#FFFFFF" stroke="#3E3A39" stroke-width="0.7002" stroke-miterlimit="10" font-family="'MicrosoftYaHei'" font-size="21">44</text>
<polygon fill="#FFFFFF" stroke="#3E3A39" stroke-width="0.7" stroke-miterlimit="10" points="-3269.852,192.088 -3276.978,198.296 
	-3276.978,185.879 "/>
<rect x="-2719.343" y="168.604" fill="#221613" width="10.25" height="12.6"/>
<polygon fill="#221613" points="-2719.343,190.062 -2719.343,185.408 -2709.093,185.408 -2709.093,198.009 -2719.343,198.009 
	-2719.343,193.354 -2721.03,193.354 -2721.03,190.062 "/>
<rect x="-2719.343" y="202.213" fill="#221613" width="10.25" height="12.6"/>
<rect x="-2719.343" y="219.016" fill="#221613" width="10.25" height="12.6"/>
<text transform="matrix(0.9276 0 0 1 -2695.8669 200.2468)" fill="#FFFFFF" stroke="#3E3A39" stroke-width="0.7002" stroke-miterlimit="10" font-family="'MicrosoftYaHei'" font-size="21">44</text>
<polygon fill="#FFFFFF" stroke="#3E3A39" stroke-width="0.7" stroke-miterlimit="10" points="-2704.134,192.088 -2697.007,198.296 
	-2697.007,185.879 "/>
<rect x="-3264.373" y="101.388" fill="#221613" width="10.25" height="12.6"/>
<polygon fill="#221613" points="-3254.123,122.846 -3254.123,118.192 -3264.373,118.192 -3264.373,130.793 -3254.123,130.793 
	-3254.123,126.138 -3252.436,126.138 -3252.436,122.846 "/>
<rect x="-3264.373" y="134.997" fill="#221613" width="10.25" height="12.6"/>
<rect x="-3264.373" y="151.801" fill="#221613" width="10.25" height="12.6"/>
<text transform="matrix(0.9276 0 0 1 -3302.5862 133.156)" fill="#FFFFFF" stroke="#3E3A39" stroke-width="0.7002" stroke-miterlimit="10" font-family="'MicrosoftYaHei'" font-size="21">45</text>
<polygon fill="#FFFFFF" stroke="#3E3A39" stroke-width="0.7" stroke-miterlimit="10" points="-3269.852,124.872 -3276.978,131.08 
	-3276.978,118.663 "/>
<rect x="-2719.343" y="101.388" fill="#221613" width="10.25" height="12.6"/>
<polygon fill="#221613" points="-2719.343,122.846 -2719.343,118.192 -2709.093,118.192 -2709.093,130.793 -2719.343,130.793 
	-2719.343,126.138 -2721.03,126.138 -2721.03,122.846 "/>
<rect x="-2719.343" y="134.997" fill="#221613" width="10.25" height="12.6"/>
<rect x="-2719.343" y="151.801" fill="#221613" width="10.25" height="12.6"/>
<text transform="matrix(0.9276 0 0 1 -2695.8669 133.031)" fill="#FFFFFF" stroke="#3E3A39" stroke-width="0.7002" stroke-miterlimit="10" font-family="'MicrosoftYaHei'" font-size="21">45</text>
<polygon fill="#FFFFFF" stroke="#3E3A39" stroke-width="0.7" stroke-miterlimit="10" points="-2704.134,124.872 -2697.007,131.08 
	-2697.007,118.663 "/>
</svg>
