<?xml version="1.0" encoding="utf-8"?>
<!-- Generator: Adobe Illustrator 16.0.0, SVG Export Plug-In . SVG Version: 6.00 Build 0)  -->
<!DOCTYPE svg PUBLIC "-//W3C//DTD SVG 1.1//EN" "http://www.w3.org/Graphics/SVG/1.1/DTD/svg11.dtd">
<svg version="1.1" id="图层_1" xmlns="http://www.w3.org/2000/svg" xmlns:xlink="http://www.w3.org/1999/xlink" x="0px" y="0px"
	 width="680.314px" height="2521.536px" viewBox="-5198.729 -27.713 680.314 2521.536"
	 enable-background="new -5198.729 -27.713 680.314 2521.536" xml:space="preserve">
<g>
	
		<linearGradient id="SVGID_1_" gradientUnits="userSpaceOnUse" x1="-5322.0132" y1="1436.199" x2="-4641.6987" y2="1436.199" gradientTransform="matrix(1 0 0 -1 123.2847 2669.2534)">
		<stop  offset="0" style="stop-color:#808080"/>
		<stop  offset="0.0895" style="stop-color:#3E3A39"/>
		<stop  offset="0.9181" style="stop-color:#3E3A39"/>
		<stop  offset="1" style="stop-color:#808080"/>
	</linearGradient>
	<path fill="url(#SVGID_1_)" d="M-5198.729-27.713v2521.536h680.314V-27.713H-5198.729z M-4603.454,2418.36h-510.235V47.744h510.235
		V2418.36z"/>
	<rect x="-5136.47" y="303.036" fill="#221613" width="10.25" height="12.6"/>
	<polygon fill="#221613" points="-5126.22,324.494 -5126.22,319.84 -5136.47,319.84 -5136.47,332.44 -5126.22,332.44 
		-5126.22,327.786 -5124.533,327.786 -5124.533,324.494 	"/>
	<rect x="-5136.47" y="336.644" fill="#221613" width="10.25" height="12.6"/>
	<rect x="-5136.47" y="353.448" fill="#221613" width="10.25" height="12.6"/>
	<polygon fill="#221613" points="-5126.22,374.906 -5126.22,370.252 -5136.47,370.252 -5136.47,382.851 -5126.22,382.851 
		-5126.22,378.198 -5124.533,378.198 -5124.533,374.906 	"/>
	<rect x="-5136.47" y="387.056" fill="#221613" width="10.25" height="12.6"/>
	<rect x="-5136.47" y="403.86" fill="#221613" width="10.25" height="12.6"/>
	<polygon fill="#221613" points="-5126.22,425.317 -5126.22,420.664 -5136.47,420.664 -5136.47,433.262 -5126.22,433.262 
		-5126.22,428.609 -5124.533,428.609 -5124.533,425.317 	"/>
	<rect x="-5136.47" y="437.467" fill="#221613" width="10.25" height="12.601"/>
	<rect x="-5136.47" y="454.272" fill="#221613" width="10.25" height="12.6"/>
	<polygon fill="#221613" points="-5126.22,475.729 -5126.22,471.075 -5136.47,471.075 -5136.47,483.675 -5126.22,483.675 
		-5126.22,479.021 -5124.533,479.021 -5124.533,475.729 	"/>
	<rect x="-5136.47" y="487.879" fill="#221613" width="10.25" height="12.601"/>
	<rect x="-5136.47" y="504.683" fill="#221613" width="10.25" height="12.6"/>
	<polygon fill="#221613" points="-5126.22,526.14 -5126.22,521.487 -5136.47,521.487 -5136.47,534.086 -5126.22,534.086 
		-5126.22,529.432 -5124.533,529.432 -5124.533,526.14 	"/>
	<rect x="-5136.47" y="538.291" fill="#221613" width="10.25" height="12.601"/>
	<rect x="-5136.47" y="555.094" fill="#221613" width="10.25" height="12.601"/>
	<polygon fill="#221613" points="-5126.22,576.552 -5126.22,571.899 -5136.47,571.899 -5136.47,584.499 -5126.22,584.499 
		-5126.22,579.844 -5124.533,579.844 -5124.533,576.552 	"/>
	<rect x="-5136.47" y="588.703" fill="#221613" width="10.25" height="12.6"/>
	<rect x="-5136.47" y="605.506" fill="#221613" width="10.25" height="12.601"/>
	<polygon fill="#221613" points="-5126.22,626.964 -5126.22,622.311 -5136.47,622.311 -5136.47,634.911 -5126.22,634.911 
		-5126.22,630.257 -5124.533,630.257 -5124.533,626.964 	"/>
	<rect x="-5136.47" y="639.115" fill="#221613" width="10.25" height="12.6"/>
	<rect x="-5136.47" y="655.919" fill="#221613" width="10.25" height="12.6"/>
	<polygon fill="#221613" points="-5126.22,677.376 -5126.22,672.721 -5136.47,672.721 -5136.47,685.322 -5126.22,685.322 
		-5126.22,680.668 -5124.533,680.668 -5124.533,677.376 	"/>
	<rect x="-5136.47" y="689.526" fill="#221613" width="10.25" height="12.6"/>
	<rect x="-5136.47" y="706.331" fill="#221613" width="10.25" height="12.6"/>
	<polygon fill="#221613" points="-5126.22,727.788 -5126.22,723.134 -5136.47,723.134 -5136.47,735.734 -5126.22,735.734 
		-5126.22,731.08 -5124.533,731.08 -5124.533,727.788 	"/>
	<rect x="-5136.47" y="739.937" fill="#221613" width="10.25" height="12.601"/>
	<rect x="-5136.47" y="756.742" fill="#221613" width="10.25" height="12.6"/>
	<polygon fill="#221613" points="-5126.22,778.2 -5126.22,773.546 -5136.47,773.546 -5136.47,786.145 -5126.22,786.145 
		-5126.22,781.493 -5124.533,781.493 -5124.533,778.2 	"/>
	<polygon fill="#221613" points="-5126.22,828.61 -5126.22,823.958 -5136.47,823.958 -5136.47,836.556 -5126.22,836.556 
		-5126.22,831.903 -5124.533,831.903 -5124.533,828.61 	"/>
	<polygon fill="#221613" points="-5126.22,879.022 -5126.22,874.37 -5136.47,874.37 -5136.47,886.969 -5126.22,886.969 
		-5126.22,882.315 -5124.533,882.315 -5124.533,879.022 	"/>
	<rect x="-5136.47" y="790.349" fill="#221613" width="10.25" height="12.601"/>
	<rect x="-5136.47" y="807.154" fill="#221613" width="10.25" height="12.6"/>
	<rect x="-5136.47" y="840.761" fill="#221613" width="10.25" height="12.601"/>
	<rect x="-5136.47" y="857.566" fill="#221613" width="10.25" height="12.6"/>
	<rect x="-5136.47" y="891.173" fill="#221613" width="10.25" height="12.6"/>
	<rect x="-5136.47" y="907.976" fill="#221613" width="10.25" height="12.601"/>
	<polygon fill="#221613" points="-5126.22,929.433 -5126.22,924.782 -5136.47,924.782 -5136.47,937.381 -5126.22,937.381 
		-5126.22,932.726 -5124.533,932.726 -5124.533,929.433 	"/>
	<rect x="-5136.47" y="941.585" fill="#221613" width="10.25" height="12.6"/>
	<rect x="-5136.47" y="958.388" fill="#221613" width="10.25" height="12.601"/>
	<polygon fill="#221613" points="-5126.22,979.845 -5126.22,975.193 -5136.47,975.193 -5136.47,987.793 -5126.22,987.793 
		-5126.22,983.137 -5124.533,983.137 -5124.533,979.845 	"/>
	<rect x="-5136.47" y="991.997" fill="#221613" width="10.25" height="12.6"/>
	<rect x="-5136.47" y="1008.801" fill="#221613" width="10.25" height="12.601"/>
	<polygon fill="#221613" points="-5126.22,1030.258 -5126.22,1025.604 -5136.47,1025.604 -5136.47,1038.205 -5126.22,1038.205 
		-5126.22,1033.551 -5124.533,1033.551 -5124.533,1030.258 	"/>
	<polygon fill="#221613" points="-5126.22,1080.67 -5126.22,1076.016 -5136.47,1076.016 -5136.47,1088.617 -5126.22,1088.617 
		-5126.22,1083.963 -5124.533,1083.963 -5124.533,1080.67 	"/>
	<rect x="-5136.47" y="1042.409" fill="#221613" width="10.25" height="12.6"/>
	<rect x="-5136.47" y="1059.212" fill="#221613" width="10.25" height="12.6"/>
	<rect x="-5136.47" y="1092.821" fill="#221613" width="10.25" height="12.6"/>
	<rect x="-5136.47" y="1109.625" fill="#221613" width="10.25" height="12.6"/>
	<rect x="-5136.47" y="1143.233" fill="#221613" width="10.25" height="12.6"/>
	<rect x="-5136.47" y="1160.037" fill="#221613" width="10.25" height="12.599"/>
	<polygon fill="#221613" points="-5126.22,1181.494 -5126.22,1176.84 -5136.47,1176.84 -5136.47,1189.44 -5126.22,1189.44 
		-5126.22,1184.787 -5124.533,1184.787 -5124.533,1181.494 	"/>
	<polygon fill="#221613" points="-5126.22,1131.082 -5126.22,1126.427 -5136.47,1126.427 -5136.47,1139.028 -5126.22,1139.028 
		-5126.22,1134.375 -5124.533,1134.375 -5124.533,1131.082 	"/>
	<rect x="-5136.47" y="1193.643" fill="#221613" width="10.25" height="12.601"/>
	<rect x="-5136.47" y="1210.448" fill="#221613" width="10.25" height="12.6"/>
	<polygon fill="#221613" points="-5126.22,1231.905 -5126.22,1227.252 -5136.47,1227.252 -5136.47,1239.851 -5126.22,1239.851 
		-5126.22,1235.198 -5124.533,1235.198 -5124.533,1231.905 	"/>
	<rect x="-5136.47" y="1244.055" fill="#221613" width="10.25" height="12.601"/>
	<rect x="-5136.47" y="1260.86" fill="#221613" width="10.25" height="12.6"/>
	<polygon fill="#221613" points="-5126.22,1282.315 -5126.22,1277.664 -5136.47,1277.664 -5136.47,1290.262 -5126.22,1290.262 
		-5126.22,1285.609 -5124.533,1285.609 -5124.533,1282.315 	"/>
	<polygon fill="#221613" points="-5126.22,1332.727 -5126.22,1328.076 -5136.47,1328.076 -5136.47,1340.675 -5126.22,1340.675 
		-5126.22,1336.02 -5124.533,1336.02 -5124.533,1332.727 	"/>
	<rect x="-5136.47" y="1294.467" fill="#221613" width="10.25" height="12.601"/>
	<rect x="-5136.47" y="1311.272" fill="#221613" width="10.25" height="12.6"/>
	<rect x="-5136.47" y="1344.879" fill="#221613" width="10.25" height="12.6"/>
	<rect x="-5136.47" y="1361.682" fill="#221613" width="10.25" height="12.601"/>
	<rect x="-5136.47" y="1395.292" fill="#221613" width="10.25" height="12.6"/>
	<rect x="-5136.47" y="1412.094" fill="#221613" width="10.25" height="12.601"/>
	<polygon fill="#221613" points="-5126.22,1433.551 -5126.22,1428.899 -5136.47,1428.899 -5136.47,1441.499 -5126.22,1441.499 
		-5126.22,1436.844 -5124.533,1436.844 -5124.533,1433.551 	"/>
	<polygon fill="#221613" points="-5126.22,1383.138 -5126.22,1378.487 -5136.47,1378.487 -5136.47,1391.086 -5126.22,1391.086 
		-5126.22,1386.431 -5124.533,1386.431 -5124.533,1383.138 	"/>
	<rect x="-5136.47" y="1445.704" fill="#221613" width="10.25" height="12.6"/>
	<rect x="-5136.47" y="1462.507" fill="#221613" width="10.25" height="12.6"/>
	<polygon fill="#221613" points="-5126.22,1483.964 -5126.22,1479.31 -5136.47,1479.31 -5136.47,1491.911 -5126.22,1491.911 
		-5126.22,1487.256 -5124.533,1487.256 -5124.533,1483.964 	"/>
	<rect x="-5136.47" y="1496.115" fill="#221613" width="10.25" height="12.6"/>
	<rect x="-5136.47" y="1512.919" fill="#221613" width="10.25" height="12.6"/>
	<polygon fill="#221613" points="-5126.22,1534.376 -5126.22,1529.722 -5136.47,1529.722 -5136.47,1542.323 -5126.22,1542.323 
		-5126.22,1537.669 -5124.533,1537.669 -5124.533,1534.376 	"/>
	<polygon fill="#221613" points="-5126.22,1584.788 -5126.22,1580.134 -5136.47,1580.134 -5136.47,1592.734 -5126.22,1592.734 
		-5126.22,1588.081 -5124.533,1588.081 -5124.533,1584.788 	"/>
	<rect x="-5136.47" y="1546.527" fill="#221613" width="10.25" height="12.6"/>
	<rect x="-5136.47" y="1563.331" fill="#221613" width="10.25" height="12.6"/>
	<rect x="-5136.47" y="1596.938" fill="#221613" width="10.25" height="12.6"/>
	<rect x="-5136.47" y="1613.743" fill="#221613" width="10.25" height="12.6"/>
	<rect x="-5136.47" y="1647.349" fill="#221613" width="10.25" height="12.601"/>
	<rect x="-5136.47" y="1664.154" fill="#221613" width="10.25" height="12.6"/>
	<polygon fill="#221613" points="-5126.22,1685.612 -5126.22,1680.958 -5136.47,1680.958 -5136.47,1693.556 -5126.22,1693.556 
		-5126.22,1688.905 -5124.533,1688.905 -5124.533,1685.612 	"/>
	<polygon fill="#221613" points="-5126.22,1635.2 -5126.22,1630.546 -5136.47,1630.546 -5136.47,1643.145 -5126.22,1643.145 
		-5126.22,1638.493 -5124.533,1638.493 -5124.533,1635.2 	"/>
	<rect x="-5136.47" y="1697.761" fill="#221613" width="10.25" height="12.601"/>
	<rect x="-5136.47" y="1714.565" fill="#221613" width="10.25" height="12.601"/>
	<polygon fill="#221613" points="-5126.22,1736.022 -5126.22,1731.37 -5136.47,1731.37 -5136.47,1743.969 -5126.22,1743.969 
		-5126.22,1739.315 -5124.533,1739.315 -5124.533,1736.022 	"/>
	<rect x="-5136.47" y="1748.173" fill="#221613" width="10.25" height="12.6"/>
	<rect x="-5136.47" y="1764.977" fill="#221613" width="10.25" height="12.601"/>
	<polygon fill="#221613" points="-5126.22,1786.434 -5126.22,1781.782 -5136.47,1781.782 -5136.47,1794.381 -5126.22,1794.381 
		-5126.22,1789.727 -5124.533,1789.727 -5124.533,1786.434 	"/>
	<polygon fill="#221613" points="-5126.22,1836.845 -5126.22,1832.194 -5136.47,1832.194 -5136.47,1844.794 -5126.22,1844.794 
		-5126.22,1840.138 -5124.533,1840.138 -5124.533,1836.845 	"/>
	<rect x="-5136.47" y="1798.585" fill="#221613" width="10.25" height="12.6"/>
	<rect x="-5136.47" y="1815.388" fill="#221613" width="10.25" height="12.601"/>
	<rect x="-5136.47" y="1848.998" fill="#221613" width="10.25" height="12.6"/>
	<rect x="-5136.47" y="1865.801" fill="#221613" width="10.25" height="12.601"/>
	<rect x="-5136.47" y="1899.409" fill="#221613" width="10.25" height="12.6"/>
	<rect x="-5136.47" y="1916.213" fill="#221613" width="10.25" height="12.601"/>
	<polygon fill="#221613" points="-5126.22,1937.67 -5126.22,1933.016 -5136.47,1933.016 -5136.47,1945.617 -5126.22,1945.617 
		-5126.22,1940.963 -5124.533,1940.963 -5124.533,1937.67 	"/>
	<polygon fill="#221613" points="-5126.22,1887.258 -5126.22,1882.604 -5136.47,1882.604 -5136.47,1895.205 -5126.22,1895.205 
		-5126.22,1890.551 -5124.533,1890.551 -5124.533,1887.258 	"/>
	<rect x="-5136.47" y="1949.821" fill="#221613" width="10.25" height="12.6"/>
	<rect x="-5136.47" y="1966.625" fill="#221613" width="10.25" height="12.6"/>
	<polygon fill="#221613" points="-5126.22,1988.083 -5126.22,1983.427 -5136.47,1983.427 -5136.47,1996.028 -5126.22,1996.028 
		-5126.22,1991.374 -5124.533,1991.374 -5124.533,1988.083 	"/>
	<rect x="-5136.47" y="2000.233" fill="#221613" width="10.25" height="12.6"/>
	<rect x="-5136.47" y="2017.037" fill="#221613" width="10.25" height="12.6"/>
	<polygon fill="#221613" points="-5126.22,2038.494 -5126.22,2033.84 -5136.47,2033.84 -5136.47,2046.44 -5126.22,2046.44 
		-5126.22,2041.787 -5124.533,2041.787 -5124.533,2038.494 	"/>
	<polygon fill="#221613" points="-5126.22,2088.906 -5126.22,2084.252 -5136.47,2084.252 -5136.47,2096.851 -5126.22,2096.851 
		-5126.22,2092.199 -5124.533,2092.199 -5124.533,2088.906 	"/>
	<rect x="-5136.47" y="2050.643" fill="#221613" width="10.25" height="12.601"/>
	<rect x="-5136.47" y="2067.449" fill="#221613" width="10.25" height="12.6"/>
	<rect x="-5136.47" y="2101.055" fill="#221613" width="10.25" height="12.601"/>
	<rect x="-5136.47" y="2117.86" fill="#221613" width="10.25" height="12.6"/>
	<rect x="-5136.47" y="2151.468" fill="#221613" width="10.25" height="12.601"/>
	<rect x="-5136.47" y="2168.272" fill="#221613" width="10.25" height="12.6"/>
	<polygon fill="#221613" points="-5126.22,2189.729 -5126.22,2185.076 -5136.47,2185.076 -5136.47,2197.675 -5126.22,2197.675 
		-5126.22,2193.022 -5124.533,2193.022 -5124.533,2189.729 	"/>
	<polygon fill="#221613" points="-5126.22,2139.317 -5126.22,2134.665 -5136.47,2134.665 -5136.47,2147.263 -5126.22,2147.263 
		-5126.22,2142.61 -5124.533,2142.61 -5124.533,2139.317 	"/>
	<rect x="-5136.47" y="2201.879" fill="#221613" width="10.25" height="12.6"/>
	<rect x="-5136.47" y="2218.683" fill="#221613" width="10.25" height="12.601"/>
	<polygon fill="#221613" points="-5126.22,2240.139 -5126.22,2235.488 -5136.47,2235.488 -5136.47,2248.087 -5126.22,2248.087 
		-5126.22,2243.432 -5124.533,2243.432 -5124.533,2240.139 	"/>
	<rect x="-5136.47" y="2252.292" fill="#221613" width="10.25" height="12.6"/>
	<rect x="-5136.47" y="2269.094" fill="#221613" width="10.25" height="12.601"/>
	<polygon fill="#221613" points="-5126.22,2290.552 -5126.22,2285.899 -5136.47,2285.899 -5136.47,2298.499 -5126.22,2298.499 
		-5126.22,2293.845 -5124.533,2293.845 -5124.533,2290.552 	"/>
	<polygon fill="#221613" points="-5126.22,2340.964 -5126.22,2336.311 -5136.47,2336.311 -5136.47,2348.911 -5126.22,2348.911 
		-5126.22,2344.257 -5124.533,2344.257 -5124.533,2340.964 	"/>
	<rect x="-5136.47" y="2302.704" fill="#221613" width="10.25" height="12.6"/>
	<rect x="-5136.47" y="2319.507" fill="#221613" width="10.25" height="12.6"/>
	<rect x="-5136.47" y="2353.115" fill="#221613" width="10.25" height="12.6"/>
	<rect x="-5136.47" y="2369.919" fill="#221613" width="10.25" height="12.6"/>
	<rect x="-5136.47" y="2403.526" fill="#221613" width="10.25" height="12.601"/>
	<polygon fill="#221613" points="-5126.22,2391.377 -5126.22,2386.722 -5136.47,2386.722 -5136.47,2399.323 -5126.22,2399.323 
		-5126.22,2394.669 -5124.533,2394.669 -5124.533,2391.377 	"/>
	<text transform="matrix(0.9276 0 0 1 -5174.6831 334.8035)" fill="#FFFFFF" font-family="'MicrosoftYaHei'" font-size="21">42</text>
	
		<text transform="matrix(0.9276 0 0 1 -5174.6831 334.8035)" fill="none" stroke="#3E3A39" stroke-width="0.7" stroke-miterlimit="10" font-family="'MicrosoftYaHei'" font-size="21">42</text>
	<text transform="matrix(0.9276 0 0 1 -5174.6831 385.2019)" fill="#FFFFFF" font-family="'MicrosoftYaHei'" font-size="21">41</text>
	
		<text transform="matrix(0.9276 0 0 1 -5174.6831 385.2019)" fill="none" stroke="#3E3A39" stroke-width="0.7" stroke-miterlimit="10" font-family="'MicrosoftYaHei'" font-size="21">41</text>
	<text transform="matrix(0.9276 0 0 1 -5174.6831 435.5984)" fill="#FFFFFF" font-family="'MicrosoftYaHei'" font-size="21">40</text>
	
		<text transform="matrix(0.9276 0 0 1 -5174.6831 435.5984)" fill="none" stroke="#3E3A39" stroke-width="0.7" stroke-miterlimit="10" font-family="'MicrosoftYaHei'" font-size="21">40</text>
	<text transform="matrix(0.9276 0 0 1 -5174.6831 485.9968)" fill="#FFFFFF" font-family="'MicrosoftYaHei'" font-size="21">39</text>
	
		<text transform="matrix(0.9276 0 0 1 -5174.6831 485.9968)" fill="none" stroke="#3E3A39" stroke-width="0.7" stroke-miterlimit="10" font-family="'MicrosoftYaHei'" font-size="21">39</text>
	<text transform="matrix(0.9276 0 0 1 -5174.6831 536.3933)" fill="#FFFFFF" font-family="'MicrosoftYaHei'" font-size="21">38</text>
	
		<text transform="matrix(0.9276 0 0 1 -5174.6831 536.3933)" fill="none" stroke="#3E3A39" stroke-width="0.7" stroke-miterlimit="10" font-family="'MicrosoftYaHei'" font-size="21">38</text>
	<text transform="matrix(0.9276 0 0 1 -5174.6831 586.7908)" fill="#FFFFFF" font-family="'MicrosoftYaHei'" font-size="21">37</text>
	
		<text transform="matrix(0.9276 0 0 1 -5174.6831 586.7908)" fill="none" stroke="#3E3A39" stroke-width="0.7" stroke-miterlimit="10" font-family="'MicrosoftYaHei'" font-size="21">37</text>
	<text transform="matrix(0.9276 0 0 1 -5174.6831 637.1902)" fill="#FFFFFF" font-family="'MicrosoftYaHei'" font-size="21">36</text>
	
		<text transform="matrix(0.9276 0 0 1 -5174.6831 637.1902)" fill="none" stroke="#3E3A39" stroke-width="0.7" stroke-miterlimit="10" font-family="'MicrosoftYaHei'" font-size="21">36</text>
	<text transform="matrix(0.9276 0 0 1 -5174.6831 687.5867)" fill="#FFFFFF" font-family="'MicrosoftYaHei'" font-size="21">35</text>
	
		<text transform="matrix(0.9276 0 0 1 -5174.6831 687.5867)" fill="none" stroke="#3E3A39" stroke-width="0.7" stroke-miterlimit="10" font-family="'MicrosoftYaHei'" font-size="21">35</text>
	<text transform="matrix(0.9276 0 0 1 -5174.6831 737.9851)" fill="#FFFFFF" font-family="'MicrosoftYaHei'" font-size="21">34</text>
	
		<text transform="matrix(0.9276 0 0 1 -5174.6831 737.9851)" fill="none" stroke="#3E3A39" stroke-width="0.7" stroke-miterlimit="10" font-family="'MicrosoftYaHei'" font-size="21">34</text>
	<text transform="matrix(0.9276 0 0 1 -5174.6831 788.3816)" fill="#FFFFFF" font-family="'MicrosoftYaHei'" font-size="21">33</text>
	
		<text transform="matrix(0.9276 0 0 1 -5174.6831 788.3816)" fill="none" stroke="#3E3A39" stroke-width="0.7" stroke-miterlimit="10" font-family="'MicrosoftYaHei'" font-size="21">33</text>
	<text transform="matrix(0.9276 0 0 1 -5174.6831 838.78)" fill="#FFFFFF" font-family="'MicrosoftYaHei'" font-size="21">32</text>
	
		<text transform="matrix(0.9276 0 0 1 -5174.6831 838.78)" fill="none" stroke="#3E3A39" stroke-width="0.7" stroke-miterlimit="10" font-family="'MicrosoftYaHei'" font-size="21">32</text>
	<text transform="matrix(0.9276 0 0 1 -5174.6831 889.1765)" fill="#FFFFFF" font-family="'MicrosoftYaHei'" font-size="21">31</text>
	
		<text transform="matrix(0.9276 0 0 1 -5174.6831 889.1765)" fill="none" stroke="#3E3A39" stroke-width="0.7" stroke-miterlimit="10" font-family="'MicrosoftYaHei'" font-size="21">31</text>
	<text transform="matrix(0.9276 0 0 1 -5174.6831 939.575)" fill="#FFFFFF" font-family="'MicrosoftYaHei'" font-size="21">30</text>
	
		<text transform="matrix(0.9276 0 0 1 -5174.6831 939.575)" fill="none" stroke="#3E3A39" stroke-width="0.7" stroke-miterlimit="10" font-family="'MicrosoftYaHei'" font-size="21">30</text>
	<text transform="matrix(0.9276 0 0 1 -5174.6831 989.9705)" fill="#FFFFFF" font-family="'MicrosoftYaHei'" font-size="21">29</text>
	
		<text transform="matrix(0.9276 0 0 1 -5174.6831 989.9705)" fill="none" stroke="#3E3A39" stroke-width="0.7" stroke-miterlimit="10" font-family="'MicrosoftYaHei'" font-size="21">29</text>
	<text transform="matrix(0.9276 0 0 1 -5174.6831 1040.3699)" fill="#FFFFFF" font-family="'MicrosoftYaHei'" font-size="21">28</text>
	
		<text transform="matrix(0.9276 0 0 1 -5174.6831 1040.3699)" fill="none" stroke="#3E3A39" stroke-width="0.7" stroke-miterlimit="10" font-family="'MicrosoftYaHei'" font-size="21">28</text>
	<text transform="matrix(0.9276 0 0 1 -5174.6831 1090.7664)" fill="#FFFFFF" font-family="'MicrosoftYaHei'" font-size="21">27</text>
	
		<text transform="matrix(0.9276 0 0 1 -5174.6831 1090.7664)" fill="none" stroke="#3E3A39" stroke-width="0.7" stroke-miterlimit="10" font-family="'MicrosoftYaHei'" font-size="21">27</text>
	<text transform="matrix(0.9276 0 0 1 -5174.6831 1141.1648)" fill="#FFFFFF" font-family="'MicrosoftYaHei'" font-size="21">26</text>
	
		<text transform="matrix(0.9276 0 0 1 -5174.6831 1141.1648)" fill="none" stroke="#3E3A39" stroke-width="0.7" stroke-miterlimit="10" font-family="'MicrosoftYaHei'" font-size="21">26</text>
	<text transform="matrix(0.9276 0 0 1 -5174.6831 1191.5623)" fill="#FFFFFF" font-family="'MicrosoftYaHei'" font-size="21">25</text>
	
		<text transform="matrix(0.9276 0 0 1 -5174.6831 1191.5623)" fill="none" stroke="#3E3A39" stroke-width="0.7" stroke-miterlimit="10" font-family="'MicrosoftYaHei'" font-size="21">25</text>
	<text transform="matrix(0.9276 0 0 1 -5174.6831 1241.9597)" fill="#FFFFFF" font-family="'MicrosoftYaHei'" font-size="21">24</text>
	
		<text transform="matrix(0.9276 0 0 1 -5174.6831 1241.9597)" fill="none" stroke="#3E3A39" stroke-width="0.7" stroke-miterlimit="10" font-family="'MicrosoftYaHei'" font-size="21">24</text>
	<text transform="matrix(0.9276 0 0 1 -5174.6831 1292.3562)" fill="#FFFFFF" font-family="'MicrosoftYaHei'" font-size="21">23</text>
	
		<text transform="matrix(0.9276 0 0 1 -5174.6831 1292.3562)" fill="none" stroke="#3E3A39" stroke-width="0.7" stroke-miterlimit="10" font-family="'MicrosoftYaHei'" font-size="21">23</text>
	<text transform="matrix(0.9276 0 0 1 -5174.6831 1342.7546)" fill="#FFFFFF" font-family="'MicrosoftYaHei'" font-size="21">22</text>
	
		<text transform="matrix(0.9276 0 0 1 -5174.6831 1342.7546)" fill="none" stroke="#3E3A39" stroke-width="0.7" stroke-miterlimit="10" font-family="'MicrosoftYaHei'" font-size="21">22</text>
	<text transform="matrix(0.9276 0 0 1 -5174.6831 1393.1511)" fill="#FFFFFF" font-family="'MicrosoftYaHei'" font-size="21">21</text>
	
		<text transform="matrix(0.9276 0 0 1 -5174.6831 1393.1511)" fill="none" stroke="#3E3A39" stroke-width="0.7" stroke-miterlimit="10" font-family="'MicrosoftYaHei'" font-size="21">21</text>
	<text transform="matrix(0.9276 0 0 1 -5174.6831 1443.5496)" fill="#FFFFFF" font-family="'MicrosoftYaHei'" font-size="21">20</text>
	
		<text transform="matrix(0.9276 0 0 1 -5174.6831 1443.5496)" fill="none" stroke="#3E3A39" stroke-width="0.7" stroke-miterlimit="10" font-family="'MicrosoftYaHei'" font-size="21">20</text>
	<text transform="matrix(0.9276 0 0 1 -5174.6831 1493.946)" fill="#FFFFFF" font-family="'MicrosoftYaHei'" font-size="21">19</text>
	
		<text transform="matrix(0.9276 0 0 1 -5174.6831 1493.946)" fill="none" stroke="#3E3A39" stroke-width="0.7" stroke-miterlimit="10" font-family="'MicrosoftYaHei'" font-size="21">19</text>
	<text transform="matrix(0.9276 0 0 1 -5174.6831 1544.3445)" fill="#FFFFFF" font-family="'MicrosoftYaHei'" font-size="21">18</text>
	
		<text transform="matrix(0.9276 0 0 1 -5174.6831 1544.3445)" fill="none" stroke="#3E3A39" stroke-width="0.7" stroke-miterlimit="10" font-family="'MicrosoftYaHei'" font-size="21">18</text>
	<text transform="matrix(0.9276 0 0 1 -5174.6831 1594.741)" fill="#FFFFFF" font-family="'MicrosoftYaHei'" font-size="21">17</text>
	
		<text transform="matrix(0.9276 0 0 1 -5174.6831 1594.741)" fill="none" stroke="#3E3A39" stroke-width="0.7" stroke-miterlimit="10" font-family="'MicrosoftYaHei'" font-size="21">17</text>
	<text transform="matrix(0.9276 0 0 1 -5174.6831 1645.1394)" fill="#FFFFFF" font-family="'MicrosoftYaHei'" font-size="21">16</text>
	
		<text transform="matrix(0.9276 0 0 1 -5174.6831 1645.1394)" fill="none" stroke="#3E3A39" stroke-width="0.7" stroke-miterlimit="10" font-family="'MicrosoftYaHei'" font-size="21">16</text>
	<text transform="matrix(0.9276 0 0 1 -5174.6831 1695.5378)" fill="#FFFFFF" font-family="'MicrosoftYaHei'" font-size="21">15</text>
	
		<text transform="matrix(0.9276 0 0 1 -5174.6831 1695.5378)" fill="none" stroke="#3E3A39" stroke-width="0.7" stroke-miterlimit="10" font-family="'MicrosoftYaHei'" font-size="21">15</text>
	<text transform="matrix(0.9276 0 0 1 -5174.6831 1745.9343)" fill="#FFFFFF" font-family="'MicrosoftYaHei'" font-size="21">14</text>
	
		<text transform="matrix(0.9276 0 0 1 -5174.6831 1745.9343)" fill="none" stroke="#3E3A39" stroke-width="0.7" stroke-miterlimit="10" font-family="'MicrosoftYaHei'" font-size="21">14</text>
	<text transform="matrix(0.9276 0 0 1 -5174.6831 1796.3328)" fill="#FFFFFF" font-family="'MicrosoftYaHei'" font-size="21">13</text>
	
		<text transform="matrix(0.9276 0 0 1 -5174.6831 1796.3328)" fill="none" stroke="#3E3A39" stroke-width="0.7" stroke-miterlimit="10" font-family="'MicrosoftYaHei'" font-size="21">13</text>
	<text transform="matrix(0.9276 0 0 1 -5174.6831 1846.7292)" fill="#FFFFFF" font-family="'MicrosoftYaHei'" font-size="21">12</text>
	
		<text transform="matrix(0.9276 0 0 1 -5174.6831 1846.7292)" fill="none" stroke="#3E3A39" stroke-width="0.7" stroke-miterlimit="10" font-family="'MicrosoftYaHei'" font-size="21">12</text>
	<text transform="matrix(0.9276 0 0 1 -5174.6831 1897.1277)" fill="#FFFFFF" font-family="'MicrosoftYaHei'" font-size="21">11</text>
	
		<text transform="matrix(0.9276 0 0 1 -5174.6831 1897.1277)" fill="none" stroke="#3E3A39" stroke-width="0.7" stroke-miterlimit="10" font-family="'MicrosoftYaHei'" font-size="21">11</text>
	<text transform="matrix(0.9276 0 0 1 -5174.6831 1947.5242)" fill="#FFFFFF" font-family="'MicrosoftYaHei'" font-size="21">10</text>
	
		<text transform="matrix(0.9276 0 0 1 -5174.6831 1947.5242)" fill="none" stroke="#3E3A39" stroke-width="0.7" stroke-miterlimit="10" font-family="'MicrosoftYaHei'" font-size="21">10</text>
	<text transform="matrix(0.9276 0 0 1 -5162.6704 1997.9226)" fill="#FFFFFF" font-family="'MicrosoftYaHei'" font-size="21">9</text>
	
		<text transform="matrix(0.9276 0 0 1 -5162.6704 1997.9226)" fill="none" stroke="#3E3A39" stroke-width="0.7" stroke-miterlimit="10" font-family="'MicrosoftYaHei'" font-size="21">9</text>
	<text transform="matrix(0.9276 0 0 1 -5162.6704 2048.3191)" fill="#FFFFFF" font-family="'MicrosoftYaHei'" font-size="21">8</text>
	
		<text transform="matrix(0.9276 0 0 1 -5162.6704 2048.3191)" fill="none" stroke="#3E3A39" stroke-width="0.7" stroke-miterlimit="10" font-family="'MicrosoftYaHei'" font-size="21">8</text>
	<text transform="matrix(0.9276 0 0 1 -5162.6704 2098.7175)" fill="#FFFFFF" font-family="'MicrosoftYaHei'" font-size="21">7</text>
	
		<text transform="matrix(0.9276 0 0 1 -5162.6704 2098.7175)" fill="none" stroke="#3E3A39" stroke-width="0.7" stroke-miterlimit="10" font-family="'MicrosoftYaHei'" font-size="21">7</text>
	<text transform="matrix(0.9276 0 0 1 -5162.6704 2149.114)" fill="#FFFFFF" font-family="'MicrosoftYaHei'" font-size="21">6</text>
	
		<text transform="matrix(0.9276 0 0 1 -5162.6704 2149.114)" fill="none" stroke="#3E3A39" stroke-width="0.7" stroke-miterlimit="10" font-family="'MicrosoftYaHei'" font-size="21">6</text>
	<text transform="matrix(0.9276 0 0 1 -5162.6704 2199.5125)" fill="#FFFFFF" font-family="'MicrosoftYaHei'" font-size="21">5</text>
	
		<text transform="matrix(0.9276 0 0 1 -5162.6704 2199.5125)" fill="none" stroke="#3E3A39" stroke-width="0.7" stroke-miterlimit="10" font-family="'MicrosoftYaHei'" font-size="21">5</text>
	<text transform="matrix(0.9276 0 0 1 -5162.6704 2249.9089)" fill="#FFFFFF" font-family="'MicrosoftYaHei'" font-size="21">4</text>
	
		<text transform="matrix(0.9276 0 0 1 -5162.6704 2249.9089)" fill="none" stroke="#3E3A39" stroke-width="0.7" stroke-miterlimit="10" font-family="'MicrosoftYaHei'" font-size="21">4</text>
	<text transform="matrix(0.9276 0 0 1 -5162.6704 2300.3074)" fill="#FFFFFF" font-family="'MicrosoftYaHei'" font-size="21">3</text>
	
		<text transform="matrix(0.9276 0 0 1 -5162.6704 2300.3074)" fill="none" stroke="#3E3A39" stroke-width="0.7" stroke-miterlimit="10" font-family="'MicrosoftYaHei'" font-size="21">3</text>
	<text transform="matrix(0.9276 0 0 1 -5162.6704 2350.7039)" fill="#FFFFFF" font-family="'MicrosoftYaHei'" font-size="21">2</text>
	
		<text transform="matrix(0.9276 0 0 1 -5162.6704 2350.7039)" fill="none" stroke="#3E3A39" stroke-width="0.7" stroke-miterlimit="10" font-family="'MicrosoftYaHei'" font-size="21">2</text>
	<text transform="matrix(0.9276 0 0 1 -5162.6704 2401.1023)" fill="#FFFFFF" font-family="'MicrosoftYaHei'" font-size="21">1</text>
	
		<text transform="matrix(0.9276 0 0 1 -5162.6704 2401.1023)" fill="none" stroke="#3E3A39" stroke-width="0.7" stroke-miterlimit="10" font-family="'MicrosoftYaHei'" font-size="21">1</text>
	<polygon fill="#FFFFFF" stroke="#3E3A39" stroke-width="0.7" stroke-miterlimit="10" points="-5141.949,326.519 -5149.075,332.727 
		-5149.075,320.31 	"/>
	<polygon fill="#FFFFFF" stroke="#3E3A39" stroke-width="0.7" stroke-miterlimit="10" points="-5141.949,376.916 -5149.075,383.125 
		-5149.075,370.708 	"/>
	<polygon fill="#FFFFFF" stroke="#3E3A39" stroke-width="0.7" stroke-miterlimit="10" points="-5141.949,427.314 -5149.075,433.522 
		-5149.075,421.105 	"/>
	<polygon fill="#FFFFFF" stroke="#3E3A39" stroke-width="0.7" stroke-miterlimit="10" points="-5141.949,477.711 -5149.075,483.919 
		-5149.075,471.502 	"/>
	<polygon fill="#FFFFFF" stroke="#3E3A39" stroke-width="0.7" stroke-miterlimit="10" points="-5141.949,528.109 -5149.075,534.317 
		-5149.075,521.9 	"/>
	<polygon fill="#FFFFFF" stroke="#3E3A39" stroke-width="0.7" stroke-miterlimit="10" points="-5141.949,578.506 -5149.075,584.714 
		-5149.075,572.297 	"/>
	<polygon fill="#FFFFFF" stroke="#3E3A39" stroke-width="0.7" stroke-miterlimit="10" points="-5141.949,628.904 -5149.075,635.112 
		-5149.075,622.696 	"/>
	<polygon fill="#FFFFFF" stroke="#3E3A39" stroke-width="0.7" stroke-miterlimit="10" points="-5141.949,679.301 -5149.075,685.509 
		-5149.075,673.093 	"/>
	<polygon fill="#FFFFFF" stroke="#3E3A39" stroke-width="0.7" stroke-miterlimit="10" points="-5141.949,729.7 -5149.075,735.907 
		-5149.075,723.491 	"/>
	<polygon fill="#FFFFFF" stroke="#3E3A39" stroke-width="0.7" stroke-miterlimit="10" points="-5141.949,780.095 -5149.075,786.303 
		-5149.075,773.887 	"/>
	<polygon fill="#FFFFFF" stroke="#3E3A39" stroke-width="0.7" stroke-miterlimit="10" points="-5141.949,830.494 -5149.075,836.702 
		-5149.075,824.286 	"/>
	<polygon fill="#FFFFFF" stroke="#3E3A39" stroke-width="0.7" stroke-miterlimit="10" points="-5141.949,880.891 -5149.075,887.098 
		-5149.075,874.682 	"/>
	<polygon fill="#FFFFFF" stroke="#3E3A39" stroke-width="0.7" stroke-miterlimit="10" points="-5141.949,931.289 -5149.075,937.497 
		-5149.075,925.081 	"/>
	<polygon fill="#FFFFFF" stroke="#3E3A39" stroke-width="0.7" stroke-miterlimit="10" points="-5141.949,981.685 -5149.075,987.893 
		-5149.075,975.477 	"/>
	<polygon fill="#FFFFFF" stroke="#3E3A39" stroke-width="0.7" stroke-miterlimit="10" points="-5141.949,1032.085 
		-5149.075,1038.292 -5149.075,1025.876 	"/>
	<polygon fill="#FFFFFF" stroke="#3E3A39" stroke-width="0.7" stroke-miterlimit="10" points="-5141.949,1082.481 
		-5149.075,1088.688 -5149.075,1076.272 	"/>
	<polygon fill="#FFFFFF" stroke="#3E3A39" stroke-width="0.7" stroke-miterlimit="10" points="-5141.949,1132.879 
		-5149.075,1139.086 -5149.075,1126.67 	"/>
	<polygon fill="#FFFFFF" stroke="#3E3A39" stroke-width="0.7" stroke-miterlimit="10" points="-5141.949,1183.276 
		-5149.075,1189.485 -5149.075,1177.069 	"/>
	<polygon fill="#FFFFFF" stroke="#3E3A39" stroke-width="0.7" stroke-miterlimit="10" points="-5141.949,1233.674 
		-5149.075,1239.883 -5149.075,1227.465 	"/>
	<polygon fill="#FFFFFF" stroke="#3E3A39" stroke-width="0.7" stroke-miterlimit="10" points="-5141.949,1284.072 
		-5149.075,1290.281 -5149.075,1277.863 	"/>
	<polygon fill="#FFFFFF" stroke="#3E3A39" stroke-width="0.7" stroke-miterlimit="10" points="-5141.949,1334.469 
		-5149.075,1340.677 -5149.075,1328.26 	"/>
	<polygon fill="#FFFFFF" stroke="#3E3A39" stroke-width="0.7" stroke-miterlimit="10" points="-5141.949,1384.868 
		-5149.075,1391.075 -5149.075,1378.659 	"/>
	<polygon fill="#FFFFFF" stroke="#3E3A39" stroke-width="0.7" stroke-miterlimit="10" points="-5141.949,1435.264 
		-5149.075,1441.471 -5149.075,1429.055 	"/>
	<polygon fill="#FFFFFF" stroke="#3E3A39" stroke-width="0.7" stroke-miterlimit="10" points="-5141.949,1485.663 
		-5149.075,1491.87 -5149.075,1479.454 	"/>
	<polygon fill="#FFFFFF" stroke="#3E3A39" stroke-width="0.7" stroke-miterlimit="10" points="-5141.949,1536.057 
		-5149.075,1542.266 -5149.075,1529.85 	"/>
	<polygon fill="#FFFFFF" stroke="#3E3A39" stroke-width="0.7" stroke-miterlimit="10" points="-5141.949,1586.456 
		-5149.075,1592.665 -5149.075,1580.249 	"/>
	<polygon fill="#FFFFFF" stroke="#3E3A39" stroke-width="0.7" stroke-miterlimit="10" points="-5141.949,1636.854 
		-5149.075,1643.061 -5149.075,1630.645 	"/>
	<polygon fill="#FFFFFF" stroke="#3E3A39" stroke-width="0.7" stroke-miterlimit="10" points="-5141.949,1687.251 
		-5149.075,1693.46 -5149.075,1681.044 	"/>
	<polygon fill="#FFFFFF" stroke="#3E3A39" stroke-width="0.7" stroke-miterlimit="10" points="-5141.949,1737.647 
		-5149.075,1743.856 -5149.075,1731.44 	"/>
	<polygon fill="#FFFFFF" stroke="#3E3A39" stroke-width="0.7" stroke-miterlimit="10" points="-5141.949,1788.047 
		-5149.075,1794.254 -5149.075,1781.838 	"/>
	<polygon fill="#FFFFFF" stroke="#3E3A39" stroke-width="0.7" stroke-miterlimit="10" points="-5141.949,1838.444 
		-5149.075,1844.652 -5149.075,1832.236 	"/>
	<polygon fill="#FFFFFF" stroke="#3E3A39" stroke-width="0.7" stroke-miterlimit="10" points="-5141.949,1888.841 
		-5149.075,1895.049 -5149.075,1882.633 	"/>
	<polygon fill="#FFFFFF" stroke="#3E3A39" stroke-width="0.7" stroke-miterlimit="10" points="-5141.949,1939.239 
		-5149.075,1945.448 -5149.075,1933.032 	"/>
	<polygon fill="#FFFFFF" stroke="#3E3A39" stroke-width="0.7" stroke-miterlimit="10" points="-5141.949,1989.636 
		-5149.075,1995.845 -5149.075,1983.427 	"/>
	<polygon fill="#FFFFFF" stroke="#3E3A39" stroke-width="0.7" stroke-miterlimit="10" points="-5141.949,2040.034 
		-5149.075,2046.243 -5149.075,2033.825 	"/>
	<polygon fill="#FFFFFF" stroke="#3E3A39" stroke-width="0.7" stroke-miterlimit="10" points="-5141.949,2090.431 
		-5149.075,2096.64 -5149.075,2084.222 	"/>
	<polygon fill="#FFFFFF" stroke="#3E3A39" stroke-width="0.7" stroke-miterlimit="10" points="-5141.949,2140.831 
		-5149.075,2147.038 -5149.075,2134.622 	"/>
	<polygon fill="#FFFFFF" stroke="#3E3A39" stroke-width="0.7" stroke-miterlimit="10" points="-5141.949,2191.227 
		-5149.075,2197.434 -5149.075,2185.018 	"/>
	<polygon fill="#FFFFFF" stroke="#3E3A39" stroke-width="0.7" stroke-miterlimit="10" points="-5141.949,2241.626 
		-5149.075,2247.833 -5149.075,2235.417 	"/>
	<polygon fill="#FFFFFF" stroke="#3E3A39" stroke-width="0.7" stroke-miterlimit="10" points="-5141.949,2292.02 
		-5149.075,2298.229 -5149.075,2285.813 	"/>
	<polygon fill="#FFFFFF" stroke="#3E3A39" stroke-width="0.7" stroke-miterlimit="10" points="-5141.949,2342.419 
		-5149.075,2348.627 -5149.075,2336.211 	"/>
	<polygon fill="#FFFFFF" stroke="#3E3A39" stroke-width="0.7" stroke-miterlimit="10" points="-5141.949,2392.817 
		-5149.075,2399.024 -5149.075,2386.608 	"/>
	<rect x="-4591.439" y="303.036" fill="#221613" width="10.25" height="12.6"/>
	<polygon fill="#221613" points="-4591.439,324.494 -4591.439,319.84 -4581.189,319.84 -4581.189,332.44 -4591.439,332.44 
		-4591.439,327.786 -4593.127,327.786 -4593.127,324.494 	"/>
	<rect x="-4591.439" y="336.644" fill="#221613" width="10.25" height="12.6"/>
	<rect x="-4591.439" y="353.448" fill="#221613" width="10.25" height="12.6"/>
	<polygon fill="#221613" points="-4591.439,374.906 -4591.439,370.252 -4581.189,370.252 -4581.189,382.851 -4591.439,382.851 
		-4591.439,378.198 -4593.127,378.198 -4593.127,374.906 	"/>
	<rect x="-4591.439" y="387.056" fill="#221613" width="10.25" height="12.6"/>
	<rect x="-4591.439" y="403.86" fill="#221613" width="10.25" height="12.6"/>
	<polygon fill="#221613" points="-4591.439,425.317 -4591.439,420.664 -4581.189,420.664 -4581.189,433.262 -4591.439,433.262 
		-4591.439,428.609 -4593.127,428.609 -4593.127,425.317 	"/>
	<rect x="-4591.439" y="437.467" fill="#221613" width="10.25" height="12.601"/>
	<rect x="-4591.439" y="454.272" fill="#221613" width="10.25" height="12.6"/>
	<polygon fill="#221613" points="-4591.439,475.729 -4591.439,471.075 -4581.189,471.075 -4581.189,483.675 -4591.439,483.675 
		-4591.439,479.021 -4593.127,479.021 -4593.127,475.729 	"/>
	<rect x="-4591.439" y="487.879" fill="#221613" width="10.25" height="12.601"/>
	<rect x="-4591.439" y="504.683" fill="#221613" width="10.25" height="12.6"/>
	<polygon fill="#221613" points="-4591.439,526.14 -4591.439,521.487 -4581.189,521.487 -4581.189,534.086 -4591.439,534.086 
		-4591.439,529.432 -4593.127,529.432 -4593.127,526.14 	"/>
	<rect x="-4591.439" y="538.291" fill="#221613" width="10.25" height="12.601"/>
	<rect x="-4591.439" y="555.094" fill="#221613" width="10.25" height="12.601"/>
	<polygon fill="#221613" points="-4591.439,576.552 -4591.439,571.899 -4581.189,571.899 -4581.189,584.499 -4591.439,584.499 
		-4591.439,579.844 -4593.127,579.844 -4593.127,576.552 	"/>
	<rect x="-4591.439" y="588.703" fill="#221613" width="10.25" height="12.6"/>
	<rect x="-4591.439" y="605.506" fill="#221613" width="10.25" height="12.601"/>
	<polygon fill="#221613" points="-4591.439,626.964 -4591.439,622.311 -4581.189,622.311 -4581.189,634.911 -4591.439,634.911 
		-4591.439,630.257 -4593.127,630.257 -4593.127,626.964 	"/>
	<rect x="-4591.439" y="639.115" fill="#221613" width="10.25" height="12.6"/>
	<rect x="-4591.439" y="655.919" fill="#221613" width="10.25" height="12.6"/>
	<polygon fill="#221613" points="-4591.439,677.376 -4591.439,672.721 -4581.189,672.721 -4581.189,685.322 -4591.439,685.322 
		-4591.439,680.668 -4593.127,680.668 -4593.127,677.376 	"/>
	<rect x="-4591.439" y="689.526" fill="#221613" width="10.25" height="12.6"/>
	<rect x="-4591.439" y="706.331" fill="#221613" width="10.25" height="12.6"/>
	<polygon fill="#221613" points="-4591.439,727.788 -4591.439,723.134 -4581.189,723.134 -4581.189,735.734 -4591.439,735.734 
		-4591.439,731.08 -4593.127,731.08 -4593.127,727.788 	"/>
	<rect x="-4591.439" y="739.937" fill="#221613" width="10.25" height="12.601"/>
	<rect x="-4591.439" y="756.742" fill="#221613" width="10.25" height="12.6"/>
	<polygon fill="#221613" points="-4591.439,778.2 -4591.439,773.546 -4581.189,773.546 -4581.189,786.145 -4591.439,786.145 
		-4591.439,781.493 -4593.127,781.493 -4593.127,778.2 	"/>
	<polygon fill="#221613" points="-4591.439,828.61 -4591.439,823.958 -4581.189,823.958 -4581.189,836.556 -4591.439,836.556 
		-4591.439,831.903 -4593.127,831.903 -4593.127,828.61 	"/>
	<polygon fill="#221613" points="-4591.439,879.022 -4591.439,874.37 -4581.189,874.37 -4581.189,886.969 -4591.439,886.969 
		-4591.439,882.315 -4593.127,882.315 -4593.127,879.022 	"/>
	<rect x="-4591.439" y="790.349" fill="#221613" width="10.25" height="12.601"/>
	<rect x="-4591.439" y="807.154" fill="#221613" width="10.25" height="12.6"/>
	<rect x="-4591.439" y="840.761" fill="#221613" width="10.25" height="12.601"/>
	<rect x="-4591.439" y="857.566" fill="#221613" width="10.25" height="12.6"/>
	<rect x="-4591.439" y="891.173" fill="#221613" width="10.25" height="12.6"/>
	<rect x="-4591.439" y="907.976" fill="#221613" width="10.25" height="12.601"/>
	<polygon fill="#221613" points="-4591.439,929.433 -4591.439,924.782 -4581.189,924.782 -4581.189,937.381 -4591.439,937.381 
		-4591.439,932.726 -4593.127,932.726 -4593.127,929.433 	"/>
	<rect x="-4591.439" y="941.585" fill="#221613" width="10.25" height="12.6"/>
	<rect x="-4591.439" y="958.388" fill="#221613" width="10.25" height="12.601"/>
	<polygon fill="#221613" points="-4591.439,979.845 -4591.439,975.193 -4581.189,975.193 -4581.189,987.793 -4591.439,987.793 
		-4591.439,983.137 -4593.127,983.137 -4593.127,979.845 	"/>
	<rect x="-4591.439" y="991.997" fill="#221613" width="10.25" height="12.6"/>
	<rect x="-4591.439" y="1008.801" fill="#221613" width="10.25" height="12.601"/>
	<polygon fill="#221613" points="-4591.439,1030.258 -4591.439,1025.604 -4581.189,1025.604 -4581.189,1038.205 -4591.439,1038.205 
		-4591.439,1033.551 -4593.127,1033.551 -4593.127,1030.258 	"/>
	<polygon fill="#221613" points="-4591.439,1080.67 -4591.439,1076.016 -4581.189,1076.016 -4581.189,1088.617 -4591.439,1088.617 
		-4591.439,1083.963 -4593.127,1083.963 -4593.127,1080.67 	"/>
	<rect x="-4591.439" y="1042.409" fill="#221613" width="10.25" height="12.6"/>
	<rect x="-4591.439" y="1059.212" fill="#221613" width="10.25" height="12.6"/>
	<rect x="-4591.439" y="1092.821" fill="#221613" width="10.25" height="12.6"/>
	<rect x="-4591.439" y="1109.625" fill="#221613" width="10.25" height="12.6"/>
	<rect x="-4591.439" y="1143.233" fill="#221613" width="10.25" height="12.6"/>
	<rect x="-4591.439" y="1160.037" fill="#221613" width="10.25" height="12.599"/>
	<polygon fill="#221613" points="-4591.439,1181.494 -4591.439,1176.84 -4581.189,1176.84 -4581.189,1189.44 -4591.439,1189.44 
		-4591.439,1184.787 -4593.127,1184.787 -4593.127,1181.494 	"/>
	<polygon fill="#221613" points="-4591.439,1131.082 -4591.439,1126.427 -4581.189,1126.427 -4581.189,1139.028 -4591.439,1139.028 
		-4591.439,1134.375 -4593.127,1134.375 -4593.127,1131.082 	"/>
	<rect x="-4591.439" y="1193.643" fill="#221613" width="10.25" height="12.601"/>
	<rect x="-4591.439" y="1210.448" fill="#221613" width="10.25" height="12.6"/>
	<polygon fill="#221613" points="-4591.439,1231.905 -4591.439,1227.252 -4581.189,1227.252 -4581.189,1239.851 -4591.439,1239.851 
		-4591.439,1235.198 -4593.127,1235.198 -4593.127,1231.905 	"/>
	<rect x="-4591.439" y="1244.055" fill="#221613" width="10.25" height="12.601"/>
	<rect x="-4591.439" y="1260.86" fill="#221613" width="10.25" height="12.6"/>
	<polygon fill="#221613" points="-4591.439,1282.315 -4591.439,1277.664 -4581.189,1277.664 -4581.189,1290.262 -4591.439,1290.262 
		-4591.439,1285.609 -4593.127,1285.609 -4593.127,1282.315 	"/>
	<polygon fill="#221613" points="-4591.439,1332.727 -4591.439,1328.076 -4581.189,1328.076 -4581.189,1340.675 -4591.439,1340.675 
		-4591.439,1336.02 -4593.127,1336.02 -4593.127,1332.727 	"/>
	<rect x="-4591.439" y="1294.467" fill="#221613" width="10.25" height="12.601"/>
	<rect x="-4591.439" y="1311.272" fill="#221613" width="10.25" height="12.6"/>
	<rect x="-4591.439" y="1344.879" fill="#221613" width="10.25" height="12.6"/>
	<rect x="-4591.439" y="1361.682" fill="#221613" width="10.25" height="12.601"/>
	<rect x="-4591.439" y="1395.292" fill="#221613" width="10.25" height="12.6"/>
	<rect x="-4591.439" y="1412.094" fill="#221613" width="10.25" height="12.601"/>
	<polygon fill="#221613" points="-4591.439,1433.551 -4591.439,1428.899 -4581.189,1428.899 -4581.189,1441.499 -4591.439,1441.499 
		-4591.439,1436.844 -4593.127,1436.844 -4593.127,1433.551 	"/>
	<polygon fill="#221613" points="-4591.439,1383.138 -4591.439,1378.487 -4581.189,1378.487 -4581.189,1391.086 -4591.439,1391.086 
		-4591.439,1386.431 -4593.127,1386.431 -4593.127,1383.138 	"/>
	<rect x="-4591.439" y="1445.704" fill="#221613" width="10.25" height="12.6"/>
	<rect x="-4591.439" y="1462.507" fill="#221613" width="10.25" height="12.6"/>
	<polygon fill="#221613" points="-4591.439,1483.964 -4591.439,1479.31 -4581.189,1479.31 -4581.189,1491.911 -4591.439,1491.911 
		-4591.439,1487.256 -4593.127,1487.256 -4593.127,1483.964 	"/>
	<rect x="-4591.439" y="1496.115" fill="#221613" width="10.25" height="12.6"/>
	<rect x="-4591.439" y="1512.919" fill="#221613" width="10.25" height="12.6"/>
	<polygon fill="#221613" points="-4591.439,1534.376 -4591.439,1529.722 -4581.189,1529.722 -4581.189,1542.323 -4591.439,1542.323 
		-4591.439,1537.669 -4593.127,1537.669 -4593.127,1534.376 	"/>
	<polygon fill="#221613" points="-4591.439,1584.788 -4591.439,1580.134 -4581.189,1580.134 -4581.189,1592.734 -4591.439,1592.734 
		-4591.439,1588.081 -4593.127,1588.081 -4593.127,1584.788 	"/>
	<rect x="-4591.439" y="1546.527" fill="#221613" width="10.25" height="12.6"/>
	<rect x="-4591.439" y="1563.331" fill="#221613" width="10.25" height="12.6"/>
	<rect x="-4591.439" y="1596.938" fill="#221613" width="10.25" height="12.6"/>
	<rect x="-4591.439" y="1613.743" fill="#221613" width="10.25" height="12.6"/>
	<rect x="-4591.439" y="1647.349" fill="#221613" width="10.25" height="12.601"/>
	<rect x="-4591.439" y="1664.154" fill="#221613" width="10.25" height="12.6"/>
	<polygon fill="#221613" points="-4591.439,1685.612 -4591.439,1680.958 -4581.189,1680.958 -4581.189,1693.556 -4591.439,1693.556 
		-4591.439,1688.905 -4593.127,1688.905 -4593.127,1685.612 	"/>
	<polygon fill="#221613" points="-4591.439,1635.2 -4591.439,1630.546 -4581.189,1630.546 -4581.189,1643.145 -4591.439,1643.145 
		-4591.439,1638.493 -4593.127,1638.493 -4593.127,1635.2 	"/>
	<rect x="-4591.439" y="1697.761" fill="#221613" width="10.25" height="12.601"/>
	<rect x="-4591.439" y="1714.565" fill="#221613" width="10.25" height="12.601"/>
	<polygon fill="#221613" points="-4591.439,1736.022 -4591.439,1731.37 -4581.189,1731.37 -4581.189,1743.969 -4591.439,1743.969 
		-4591.439,1739.315 -4593.127,1739.315 -4593.127,1736.022 	"/>
	<rect x="-4591.439" y="1748.173" fill="#221613" width="10.25" height="12.6"/>
	<rect x="-4591.439" y="1764.977" fill="#221613" width="10.25" height="12.601"/>
	<polygon fill="#221613" points="-4591.439,1786.434 -4591.439,1781.782 -4581.189,1781.782 -4581.189,1794.381 -4591.439,1794.381 
		-4591.439,1789.727 -4593.127,1789.727 -4593.127,1786.434 	"/>
	<polygon fill="#221613" points="-4591.439,1836.845 -4591.439,1832.194 -4581.189,1832.194 -4581.189,1844.794 -4591.439,1844.794 
		-4591.439,1840.138 -4593.127,1840.138 -4593.127,1836.845 	"/>
	<rect x="-4591.439" y="1798.585" fill="#221613" width="10.25" height="12.6"/>
	<rect x="-4591.439" y="1815.388" fill="#221613" width="10.25" height="12.601"/>
	<rect x="-4591.439" y="1848.998" fill="#221613" width="10.25" height="12.6"/>
	<rect x="-4591.439" y="1865.801" fill="#221613" width="10.25" height="12.601"/>
	<rect x="-4591.439" y="1899.409" fill="#221613" width="10.25" height="12.6"/>
	<rect x="-4591.439" y="1916.213" fill="#221613" width="10.25" height="12.601"/>
	<polygon fill="#221613" points="-4591.439,1937.67 -4591.439,1933.016 -4581.189,1933.016 -4581.189,1945.617 -4591.439,1945.617 
		-4591.439,1940.963 -4593.127,1940.963 -4593.127,1937.67 	"/>
	<polygon fill="#221613" points="-4591.439,1887.258 -4591.439,1882.604 -4581.189,1882.604 -4581.189,1895.205 -4591.439,1895.205 
		-4591.439,1890.551 -4593.127,1890.551 -4593.127,1887.258 	"/>
	<rect x="-4591.439" y="1949.821" fill="#221613" width="10.25" height="12.6"/>
	<rect x="-4591.439" y="1966.625" fill="#221613" width="10.25" height="12.6"/>
	<polygon fill="#221613" points="-4591.439,1988.083 -4591.439,1983.427 -4581.189,1983.427 -4581.189,1996.028 -4591.439,1996.028 
		-4591.439,1991.374 -4593.127,1991.374 -4593.127,1988.083 	"/>
	<rect x="-4591.439" y="2000.233" fill="#221613" width="10.25" height="12.6"/>
	<rect x="-4591.439" y="2017.037" fill="#221613" width="10.25" height="12.6"/>
	<polygon fill="#221613" points="-4591.439,2038.494 -4591.439,2033.84 -4581.189,2033.84 -4581.189,2046.44 -4591.439,2046.44 
		-4591.439,2041.787 -4593.127,2041.787 -4593.127,2038.494 	"/>
	<polygon fill="#221613" points="-4591.439,2088.906 -4591.439,2084.252 -4581.189,2084.252 -4581.189,2096.851 -4591.439,2096.851 
		-4591.439,2092.199 -4593.127,2092.199 -4593.127,2088.906 	"/>
	<rect x="-4591.439" y="2050.643" fill="#221613" width="10.25" height="12.601"/>
	<rect x="-4591.439" y="2067.449" fill="#221613" width="10.25" height="12.6"/>
	<rect x="-4591.439" y="2101.055" fill="#221613" width="10.25" height="12.601"/>
	<rect x="-4591.439" y="2117.86" fill="#221613" width="10.25" height="12.6"/>
	<rect x="-4591.439" y="2151.468" fill="#221613" width="10.25" height="12.601"/>
	<rect x="-4591.439" y="2168.272" fill="#221613" width="10.25" height="12.6"/>
	<polygon fill="#221613" points="-4591.439,2189.729 -4591.439,2185.076 -4581.189,2185.076 -4581.189,2197.675 -4591.439,2197.675 
		-4591.439,2193.022 -4593.127,2193.022 -4593.127,2189.729 	"/>
	<polygon fill="#221613" points="-4591.439,2139.317 -4591.439,2134.665 -4581.189,2134.665 -4581.189,2147.263 -4591.439,2147.263 
		-4591.439,2142.61 -4593.127,2142.61 -4593.127,2139.317 	"/>
	<rect x="-4591.439" y="2201.879" fill="#221613" width="10.25" height="12.6"/>
	<rect x="-4591.439" y="2218.683" fill="#221613" width="10.25" height="12.601"/>
	<polygon fill="#221613" points="-4591.439,2240.139 -4591.439,2235.488 -4581.189,2235.488 -4581.189,2248.087 -4591.439,2248.087 
		-4591.439,2243.432 -4593.127,2243.432 -4593.127,2240.139 	"/>
	<rect x="-4591.439" y="2252.292" fill="#221613" width="10.25" height="12.6"/>
	<rect x="-4591.439" y="2269.094" fill="#221613" width="10.25" height="12.601"/>
	<polygon fill="#221613" points="-4591.439,2290.552 -4591.439,2285.899 -4581.189,2285.899 -4581.189,2298.499 -4591.439,2298.499 
		-4591.439,2293.845 -4593.127,2293.845 -4593.127,2290.552 	"/>
	<polygon fill="#221613" points="-4591.439,2340.964 -4591.439,2336.311 -4581.189,2336.311 -4581.189,2348.911 -4591.439,2348.911 
		-4591.439,2344.257 -4593.127,2344.257 -4593.127,2340.964 	"/>
	<rect x="-4591.439" y="2302.704" fill="#221613" width="10.25" height="12.6"/>
	<rect x="-4591.439" y="2319.507" fill="#221613" width="10.25" height="12.6"/>
	<rect x="-4591.439" y="2353.115" fill="#221613" width="10.25" height="12.6"/>
	<rect x="-4591.439" y="2369.919" fill="#221613" width="10.25" height="12.6"/>
	<rect x="-4591.439" y="2403.526" fill="#221613" width="10.25" height="12.601"/>
	<polygon fill="#221613" points="-4591.439,2391.377 -4591.439,2386.722 -4581.189,2386.722 -4581.189,2399.323 -4591.439,2399.323 
		-4591.439,2394.669 -4593.127,2394.669 -4593.127,2391.377 	"/>
	<text transform="matrix(0.9276 0 0 1 -4567.9639 334.6785)" fill="#FFFFFF" font-family="'MicrosoftYaHei'" font-size="21">42</text>
	
		<text transform="matrix(0.9276 0 0 1 -4567.9639 334.6785)" fill="none" stroke="#3E3A39" stroke-width="0.7" stroke-miterlimit="10" font-family="'MicrosoftYaHei'" font-size="21">42</text>
	<text transform="matrix(0.9276 0 0 1 -4567.9639 385.0769)" fill="#FFFFFF" font-family="'MicrosoftYaHei'" font-size="21">41</text>
	
		<text transform="matrix(0.9276 0 0 1 -4567.9639 385.0769)" fill="none" stroke="#3E3A39" stroke-width="0.7" stroke-miterlimit="10" font-family="'MicrosoftYaHei'" font-size="21">41</text>
	<text transform="matrix(0.9276 0 0 1 -4567.9639 435.4734)" fill="#FFFFFF" font-family="'MicrosoftYaHei'" font-size="21">40</text>
	
		<text transform="matrix(0.9276 0 0 1 -4567.9639 435.4734)" fill="none" stroke="#3E3A39" stroke-width="0.7" stroke-miterlimit="10" font-family="'MicrosoftYaHei'" font-size="21">40</text>
	<text transform="matrix(0.9276 0 0 1 -4567.9639 485.8718)" fill="#FFFFFF" font-family="'MicrosoftYaHei'" font-size="21">39</text>
	
		<text transform="matrix(0.9276 0 0 1 -4567.9639 485.8718)" fill="none" stroke="#3E3A39" stroke-width="0.7" stroke-miterlimit="10" font-family="'MicrosoftYaHei'" font-size="21">39</text>
	<text transform="matrix(0.9276 0 0 1 -4567.9639 536.2683)" fill="#FFFFFF" font-family="'MicrosoftYaHei'" font-size="21">38</text>
	
		<text transform="matrix(0.9276 0 0 1 -4567.9639 536.2683)" fill="none" stroke="#3E3A39" stroke-width="0.7" stroke-miterlimit="10" font-family="'MicrosoftYaHei'" font-size="21">38</text>
	<text transform="matrix(0.9276 0 0 1 -4567.9639 586.6658)" fill="#FFFFFF" font-family="'MicrosoftYaHei'" font-size="21">37</text>
	
		<text transform="matrix(0.9276 0 0 1 -4567.9639 586.6658)" fill="none" stroke="#3E3A39" stroke-width="0.7" stroke-miterlimit="10" font-family="'MicrosoftYaHei'" font-size="21">37</text>
	<text transform="matrix(0.9276 0 0 1 -4567.9639 637.0652)" fill="#FFFFFF" font-family="'MicrosoftYaHei'" font-size="21">36</text>
	
		<text transform="matrix(0.9276 0 0 1 -4567.9639 637.0652)" fill="none" stroke="#3E3A39" stroke-width="0.7" stroke-miterlimit="10" font-family="'MicrosoftYaHei'" font-size="21">36</text>
	<text transform="matrix(0.9276 0 0 1 -4567.9639 687.4617)" fill="#FFFFFF" font-family="'MicrosoftYaHei'" font-size="21">35</text>
	
		<text transform="matrix(0.9276 0 0 1 -4567.9639 687.4617)" fill="none" stroke="#3E3A39" stroke-width="0.7" stroke-miterlimit="10" font-family="'MicrosoftYaHei'" font-size="21">35</text>
	<text transform="matrix(0.9276 0 0 1 -4567.9639 737.8601)" fill="#FFFFFF" font-family="'MicrosoftYaHei'" font-size="21">34</text>
	
		<text transform="matrix(0.9276 0 0 1 -4567.9639 737.8601)" fill="none" stroke="#3E3A39" stroke-width="0.7" stroke-miterlimit="10" font-family="'MicrosoftYaHei'" font-size="21">34</text>
	<text transform="matrix(0.9276 0 0 1 -4567.9639 788.2566)" fill="#FFFFFF" font-family="'MicrosoftYaHei'" font-size="21">33</text>
	
		<text transform="matrix(0.9276 0 0 1 -4567.9639 788.2566)" fill="none" stroke="#3E3A39" stroke-width="0.7" stroke-miterlimit="10" font-family="'MicrosoftYaHei'" font-size="21">33</text>
	<text transform="matrix(0.9276 0 0 1 -4567.9639 838.655)" fill="#FFFFFF" font-family="'MicrosoftYaHei'" font-size="21">32</text>
	
		<text transform="matrix(0.9276 0 0 1 -4567.9639 838.655)" fill="none" stroke="#3E3A39" stroke-width="0.7" stroke-miterlimit="10" font-family="'MicrosoftYaHei'" font-size="21">32</text>
	<text transform="matrix(0.9276 0 0 1 -4567.9639 889.0515)" fill="#FFFFFF" font-family="'MicrosoftYaHei'" font-size="21">31</text>
	
		<text transform="matrix(0.9276 0 0 1 -4567.9639 889.0515)" fill="none" stroke="#3E3A39" stroke-width="0.7" stroke-miterlimit="10" font-family="'MicrosoftYaHei'" font-size="21">31</text>
	<text transform="matrix(0.9276 0 0 1 -4567.9639 939.45)" fill="#FFFFFF" font-family="'MicrosoftYaHei'" font-size="21">30</text>
	
		<text transform="matrix(0.9276 0 0 1 -4567.9639 939.45)" fill="none" stroke="#3E3A39" stroke-width="0.7" stroke-miterlimit="10" font-family="'MicrosoftYaHei'" font-size="21">30</text>
	<text transform="matrix(0.9276 0 0 1 -4567.9639 989.8455)" fill="#FFFFFF" font-family="'MicrosoftYaHei'" font-size="21">29</text>
	
		<text transform="matrix(0.9276 0 0 1 -4567.9639 989.8455)" fill="none" stroke="#3E3A39" stroke-width="0.7" stroke-miterlimit="10" font-family="'MicrosoftYaHei'" font-size="21">29</text>
	<text transform="matrix(0.9276 0 0 1 -4567.9639 1040.2449)" fill="#FFFFFF" font-family="'MicrosoftYaHei'" font-size="21">28</text>
	
		<text transform="matrix(0.9276 0 0 1 -4567.9639 1040.2449)" fill="none" stroke="#3E3A39" stroke-width="0.7" stroke-miterlimit="10" font-family="'MicrosoftYaHei'" font-size="21">28</text>
	<text transform="matrix(0.9276 0 0 1 -4567.9639 1090.6414)" fill="#FFFFFF" font-family="'MicrosoftYaHei'" font-size="21">27</text>
	
		<text transform="matrix(0.9276 0 0 1 -4567.9639 1090.6414)" fill="none" stroke="#3E3A39" stroke-width="0.7" stroke-miterlimit="10" font-family="'MicrosoftYaHei'" font-size="21">27</text>
	<text transform="matrix(0.9276 0 0 1 -4567.9639 1141.0398)" fill="#FFFFFF" font-family="'MicrosoftYaHei'" font-size="21">26</text>
	
		<text transform="matrix(0.9276 0 0 1 -4567.9639 1141.0398)" fill="none" stroke="#3E3A39" stroke-width="0.7" stroke-miterlimit="10" font-family="'MicrosoftYaHei'" font-size="21">26</text>
	<text transform="matrix(0.9276 0 0 1 -4567.9639 1191.4373)" fill="#FFFFFF" font-family="'MicrosoftYaHei'" font-size="21">25</text>
	
		<text transform="matrix(0.9276 0 0 1 -4567.9639 1191.4373)" fill="none" stroke="#3E3A39" stroke-width="0.7" stroke-miterlimit="10" font-family="'MicrosoftYaHei'" font-size="21">25</text>
	<text transform="matrix(0.9276 0 0 1 -4567.9639 1241.8347)" fill="#FFFFFF" font-family="'MicrosoftYaHei'" font-size="21">24</text>
	
		<text transform="matrix(0.9276 0 0 1 -4567.9639 1241.8347)" fill="none" stroke="#3E3A39" stroke-width="0.7" stroke-miterlimit="10" font-family="'MicrosoftYaHei'" font-size="21">24</text>
	<text transform="matrix(0.9276 0 0 1 -4567.9639 1292.2312)" fill="#FFFFFF" font-family="'MicrosoftYaHei'" font-size="21">23</text>
	
		<text transform="matrix(0.9276 0 0 1 -4567.9639 1292.2312)" fill="none" stroke="#3E3A39" stroke-width="0.7" stroke-miterlimit="10" font-family="'MicrosoftYaHei'" font-size="21">23</text>
	<text transform="matrix(0.9276 0 0 1 -4567.9639 1342.6296)" fill="#FFFFFF" font-family="'MicrosoftYaHei'" font-size="21">22</text>
	
		<text transform="matrix(0.9276 0 0 1 -4567.9639 1342.6296)" fill="none" stroke="#3E3A39" stroke-width="0.7" stroke-miterlimit="10" font-family="'MicrosoftYaHei'" font-size="21">22</text>
	<text transform="matrix(0.9276 0 0 1 -4567.9639 1393.0261)" fill="#FFFFFF" font-family="'MicrosoftYaHei'" font-size="21">21</text>
	
		<text transform="matrix(0.9276 0 0 1 -4567.9639 1393.0261)" fill="none" stroke="#3E3A39" stroke-width="0.7" stroke-miterlimit="10" font-family="'MicrosoftYaHei'" font-size="21">21</text>
	<text transform="matrix(0.9276 0 0 1 -4567.9639 1443.4246)" fill="#FFFFFF" font-family="'MicrosoftYaHei'" font-size="21">20</text>
	
		<text transform="matrix(0.9276 0 0 1 -4567.9639 1443.4246)" fill="none" stroke="#3E3A39" stroke-width="0.7" stroke-miterlimit="10" font-family="'MicrosoftYaHei'" font-size="21">20</text>
	<text transform="matrix(0.9276 0 0 1 -4567.9639 1493.821)" fill="#FFFFFF" font-family="'MicrosoftYaHei'" font-size="21">19</text>
	
		<text transform="matrix(0.9276 0 0 1 -4567.9639 1493.821)" fill="none" stroke="#3E3A39" stroke-width="0.7" stroke-miterlimit="10" font-family="'MicrosoftYaHei'" font-size="21">19</text>
	<text transform="matrix(0.9276 0 0 1 -4567.9639 1544.2195)" fill="#FFFFFF" font-family="'MicrosoftYaHei'" font-size="21">18</text>
	
		<text transform="matrix(0.9276 0 0 1 -4567.9639 1544.2195)" fill="none" stroke="#3E3A39" stroke-width="0.7" stroke-miterlimit="10" font-family="'MicrosoftYaHei'" font-size="21">18</text>
	<text transform="matrix(0.9276 0 0 1 -4567.9639 1594.616)" fill="#FFFFFF" font-family="'MicrosoftYaHei'" font-size="21">17</text>
	
		<text transform="matrix(0.9276 0 0 1 -4567.9639 1594.616)" fill="none" stroke="#3E3A39" stroke-width="0.7" stroke-miterlimit="10" font-family="'MicrosoftYaHei'" font-size="21">17</text>
	<text transform="matrix(0.9276 0 0 1 -4567.9639 1645.0144)" fill="#FFFFFF" font-family="'MicrosoftYaHei'" font-size="21">16</text>
	
		<text transform="matrix(0.9276 0 0 1 -4567.9639 1645.0144)" fill="none" stroke="#3E3A39" stroke-width="0.7" stroke-miterlimit="10" font-family="'MicrosoftYaHei'" font-size="21">16</text>
	<text transform="matrix(0.9276 0 0 1 -4567.9639 1695.4128)" fill="#FFFFFF" font-family="'MicrosoftYaHei'" font-size="21">15</text>
	
		<text transform="matrix(0.9276 0 0 1 -4567.9639 1695.4128)" fill="none" stroke="#3E3A39" stroke-width="0.7" stroke-miterlimit="10" font-family="'MicrosoftYaHei'" font-size="21">15</text>
	<text transform="matrix(0.9276 0 0 1 -4567.9639 1745.8093)" fill="#FFFFFF" font-family="'MicrosoftYaHei'" font-size="21">14</text>
	
		<text transform="matrix(0.9276 0 0 1 -4567.9639 1745.8093)" fill="none" stroke="#3E3A39" stroke-width="0.7" stroke-miterlimit="10" font-family="'MicrosoftYaHei'" font-size="21">14</text>
	<text transform="matrix(0.9276 0 0 1 -4567.9639 1796.2078)" fill="#FFFFFF" font-family="'MicrosoftYaHei'" font-size="21">13</text>
	
		<text transform="matrix(0.9276 0 0 1 -4567.9639 1796.2078)" fill="none" stroke="#3E3A39" stroke-width="0.7" stroke-miterlimit="10" font-family="'MicrosoftYaHei'" font-size="21">13</text>
	<text transform="matrix(0.9276 0 0 1 -4567.9639 1846.6042)" fill="#FFFFFF" font-family="'MicrosoftYaHei'" font-size="21">12</text>
	
		<text transform="matrix(0.9276 0 0 1 -4567.9639 1846.6042)" fill="none" stroke="#3E3A39" stroke-width="0.7" stroke-miterlimit="10" font-family="'MicrosoftYaHei'" font-size="21">12</text>
	<text transform="matrix(0.9276 0 0 1 -4567.9639 1897.0027)" fill="#FFFFFF" font-family="'MicrosoftYaHei'" font-size="21">11</text>
	
		<text transform="matrix(0.9276 0 0 1 -4567.9639 1897.0027)" fill="none" stroke="#3E3A39" stroke-width="0.7" stroke-miterlimit="10" font-family="'MicrosoftYaHei'" font-size="21">11</text>
	<text transform="matrix(0.9276 0 0 1 -4567.9639 1947.3992)" fill="#FFFFFF" font-family="'MicrosoftYaHei'" font-size="21">10</text>
	
		<text transform="matrix(0.9276 0 0 1 -4567.9639 1947.3992)" fill="none" stroke="#3E3A39" stroke-width="0.7" stroke-miterlimit="10" font-family="'MicrosoftYaHei'" font-size="21">10</text>
	<text transform="matrix(0.9276 0 0 1 -4567.9639 1997.7976)" fill="#FFFFFF" font-family="'MicrosoftYaHei'" font-size="21">9</text>
	
		<text transform="matrix(0.9276 0 0 1 -4567.9639 1997.7976)" fill="none" stroke="#3E3A39" stroke-width="0.7" stroke-miterlimit="10" font-family="'MicrosoftYaHei'" font-size="21">9</text>
	<text transform="matrix(0.9276 0 0 1 -4567.9639 2048.1941)" fill="#FFFFFF" font-family="'MicrosoftYaHei'" font-size="21">8</text>
	
		<text transform="matrix(0.9276 0 0 1 -4567.9639 2048.1941)" fill="none" stroke="#3E3A39" stroke-width="0.7" stroke-miterlimit="10" font-family="'MicrosoftYaHei'" font-size="21">8</text>
	<text transform="matrix(0.9276 0 0 1 -4567.9639 2098.5925)" fill="#FFFFFF" font-family="'MicrosoftYaHei'" font-size="21">7</text>
	
		<text transform="matrix(0.9276 0 0 1 -4567.9639 2098.5925)" fill="none" stroke="#3E3A39" stroke-width="0.7" stroke-miterlimit="10" font-family="'MicrosoftYaHei'" font-size="21">7</text>
	<text transform="matrix(0.9276 0 0 1 -4567.9639 2148.989)" fill="#FFFFFF" font-family="'MicrosoftYaHei'" font-size="21">6</text>
	
		<text transform="matrix(0.9276 0 0 1 -4567.9639 2148.989)" fill="none" stroke="#3E3A39" stroke-width="0.7" stroke-miterlimit="10" font-family="'MicrosoftYaHei'" font-size="21">6</text>
	<text transform="matrix(0.9276 0 0 1 -4567.9639 2199.3875)" fill="#FFFFFF" font-family="'MicrosoftYaHei'" font-size="21">5</text>
	
		<text transform="matrix(0.9276 0 0 1 -4567.9639 2199.3875)" fill="none" stroke="#3E3A39" stroke-width="0.7" stroke-miterlimit="10" font-family="'MicrosoftYaHei'" font-size="21">5</text>
	<text transform="matrix(0.9276 0 0 1 -4567.9639 2249.7839)" fill="#FFFFFF" font-family="'MicrosoftYaHei'" font-size="21">4</text>
	
		<text transform="matrix(0.9276 0 0 1 -4567.9639 2249.7839)" fill="none" stroke="#3E3A39" stroke-width="0.7" stroke-miterlimit="10" font-family="'MicrosoftYaHei'" font-size="21">4</text>
	<text transform="matrix(0.9276 0 0 1 -4567.9639 2300.1824)" fill="#FFFFFF" font-family="'MicrosoftYaHei'" font-size="21">3</text>
	
		<text transform="matrix(0.9276 0 0 1 -4567.9639 2300.1824)" fill="none" stroke="#3E3A39" stroke-width="0.7" stroke-miterlimit="10" font-family="'MicrosoftYaHei'" font-size="21">3</text>
	<text transform="matrix(0.9276 0 0 1 -4567.9639 2350.5789)" fill="#FFFFFF" font-family="'MicrosoftYaHei'" font-size="21">2</text>
	
		<text transform="matrix(0.9276 0 0 1 -4567.9639 2350.5789)" fill="none" stroke="#3E3A39" stroke-width="0.7" stroke-miterlimit="10" font-family="'MicrosoftYaHei'" font-size="21">2</text>
	<text transform="matrix(0.9276 0 0 1 -4567.9639 2400.9773)" fill="#FFFFFF" font-family="'MicrosoftYaHei'" font-size="21">1</text>
	
		<text transform="matrix(0.9276 0 0 1 -4567.9639 2400.9773)" fill="none" stroke="#3E3A39" stroke-width="0.7" stroke-miterlimit="10" font-family="'MicrosoftYaHei'" font-size="21">1</text>
	<polygon fill="#FFFFFF" stroke="#3E3A39" stroke-width="0.7" stroke-miterlimit="10" points="-4576.23,326.519 -4569.104,332.727 
		-4569.104,320.31 	"/>
	<polygon fill="#FFFFFF" stroke="#3E3A39" stroke-width="0.7" stroke-miterlimit="10" points="-4576.23,376.916 -4569.104,383.125 
		-4569.104,370.708 	"/>
	<polygon fill="#FFFFFF" stroke="#3E3A39" stroke-width="0.7" stroke-miterlimit="10" points="-4576.23,427.314 -4569.104,433.522 
		-4569.104,421.105 	"/>
	<polygon fill="#FFFFFF" stroke="#3E3A39" stroke-width="0.7" stroke-miterlimit="10" points="-4576.23,477.711 -4569.104,483.919 
		-4569.104,471.502 	"/>
	<polygon fill="#FFFFFF" stroke="#3E3A39" stroke-width="0.7" stroke-miterlimit="10" points="-4576.23,528.109 -4569.104,534.317 
		-4569.104,521.9 	"/>
	<polygon fill="#FFFFFF" stroke="#3E3A39" stroke-width="0.7" stroke-miterlimit="10" points="-4576.23,578.506 -4569.104,584.714 
		-4569.104,572.297 	"/>
	<polygon fill="#FFFFFF" stroke="#3E3A39" stroke-width="0.7" stroke-miterlimit="10" points="-4576.23,628.904 -4569.104,635.112 
		-4569.104,622.696 	"/>
	<polygon fill="#FFFFFF" stroke="#3E3A39" stroke-width="0.7" stroke-miterlimit="10" points="-4576.23,679.301 -4569.104,685.509 
		-4569.104,673.093 	"/>
	<polygon fill="#FFFFFF" stroke="#3E3A39" stroke-width="0.7" stroke-miterlimit="10" points="-4576.23,729.7 -4569.104,735.907 
		-4569.104,723.491 	"/>
	<polygon fill="#FFFFFF" stroke="#3E3A39" stroke-width="0.7" stroke-miterlimit="10" points="-4576.23,780.095 -4569.104,786.303 
		-4569.104,773.887 	"/>
	<polygon fill="#FFFFFF" stroke="#3E3A39" stroke-width="0.7" stroke-miterlimit="10" points="-4576.23,830.494 -4569.104,836.702 
		-4569.104,824.286 	"/>
	<polygon fill="#FFFFFF" stroke="#3E3A39" stroke-width="0.7" stroke-miterlimit="10" points="-4576.23,880.891 -4569.104,887.098 
		-4569.104,874.682 	"/>
	<polygon fill="#FFFFFF" stroke="#3E3A39" stroke-width="0.7" stroke-miterlimit="10" points="-4576.23,931.289 -4569.104,937.497 
		-4569.104,925.081 	"/>
	<polygon fill="#FFFFFF" stroke="#3E3A39" stroke-width="0.7" stroke-miterlimit="10" points="-4576.23,981.685 -4569.104,987.893 
		-4569.104,975.477 	"/>
	<polygon fill="#FFFFFF" stroke="#3E3A39" stroke-width="0.7" stroke-miterlimit="10" points="-4576.23,1032.085 
		-4569.104,1038.292 -4569.104,1025.876 	"/>
	<polygon fill="#FFFFFF" stroke="#3E3A39" stroke-width="0.7" stroke-miterlimit="10" points="-4576.23,1082.481 
		-4569.104,1088.688 -4569.104,1076.272 	"/>
	<polygon fill="#FFFFFF" stroke="#3E3A39" stroke-width="0.7" stroke-miterlimit="10" points="-4576.23,1132.879 
		-4569.104,1139.086 -4569.104,1126.67 	"/>
	<polygon fill="#FFFFFF" stroke="#3E3A39" stroke-width="0.7" stroke-miterlimit="10" points="-4576.23,1183.276 
		-4569.104,1189.485 -4569.104,1177.069 	"/>
	<polygon fill="#FFFFFF" stroke="#3E3A39" stroke-width="0.7" stroke-miterlimit="10" points="-4576.23,1233.674 
		-4569.104,1239.883 -4569.104,1227.465 	"/>
	<polygon fill="#FFFFFF" stroke="#3E3A39" stroke-width="0.7" stroke-miterlimit="10" points="-4576.23,1284.072 
		-4569.104,1290.281 -4569.104,1277.863 	"/>
	<polygon fill="#FFFFFF" stroke="#3E3A39" stroke-width="0.7" stroke-miterlimit="10" points="-4576.23,1334.469 
		-4569.104,1340.677 -4569.104,1328.26 	"/>
	<polygon fill="#FFFFFF" stroke="#3E3A39" stroke-width="0.7" stroke-miterlimit="10" points="-4576.23,1384.868 
		-4569.104,1391.075 -4569.104,1378.659 	"/>
	<polygon fill="#FFFFFF" stroke="#3E3A39" stroke-width="0.7" stroke-miterlimit="10" points="-4576.23,1435.264 
		-4569.104,1441.471 -4569.104,1429.055 	"/>
	<polygon fill="#FFFFFF" stroke="#3E3A39" stroke-width="0.7" stroke-miterlimit="10" points="-4576.23,1485.663 -4569.104,1491.87 
		-4569.104,1479.454 	"/>
	<polygon fill="#FFFFFF" stroke="#3E3A39" stroke-width="0.7" stroke-miterlimit="10" points="-4576.23,1536.057 
		-4569.104,1542.266 -4569.104,1529.85 	"/>
	<polygon fill="#FFFFFF" stroke="#3E3A39" stroke-width="0.7" stroke-miterlimit="10" points="-4576.23,1586.456 
		-4569.104,1592.665 -4569.104,1580.249 	"/>
	<polygon fill="#FFFFFF" stroke="#3E3A39" stroke-width="0.7" stroke-miterlimit="10" points="-4576.23,1636.854 
		-4569.104,1643.061 -4569.104,1630.645 	"/>
	<polygon fill="#FFFFFF" stroke="#3E3A39" stroke-width="0.7" stroke-miterlimit="10" points="-4576.23,1687.251 -4569.104,1693.46 
		-4569.104,1681.044 	"/>
	<polygon fill="#FFFFFF" stroke="#3E3A39" stroke-width="0.7" stroke-miterlimit="10" points="-4576.23,1737.647 
		-4569.104,1743.856 -4569.104,1731.44 	"/>
	<polygon fill="#FFFFFF" stroke="#3E3A39" stroke-width="0.7" stroke-miterlimit="10" points="-4576.23,1788.047 
		-4569.104,1794.254 -4569.104,1781.838 	"/>
	<polygon fill="#FFFFFF" stroke="#3E3A39" stroke-width="0.7" stroke-miterlimit="10" points="-4576.23,1838.444 
		-4569.104,1844.652 -4569.104,1832.236 	"/>
	<polygon fill="#FFFFFF" stroke="#3E3A39" stroke-width="0.7" stroke-miterlimit="10" points="-4576.23,1888.841 
		-4569.104,1895.049 -4569.104,1882.633 	"/>
	<polygon fill="#FFFFFF" stroke="#3E3A39" stroke-width="0.7" stroke-miterlimit="10" points="-4576.23,1939.239 
		-4569.104,1945.448 -4569.104,1933.032 	"/>
	<polygon fill="#FFFFFF" stroke="#3E3A39" stroke-width="0.7" stroke-miterlimit="10" points="-4576.23,1989.636 
		-4569.104,1995.845 -4569.104,1983.427 	"/>
	<polygon fill="#FFFFFF" stroke="#3E3A39" stroke-width="0.7" stroke-miterlimit="10" points="-4576.23,2040.034 
		-4569.104,2046.243 -4569.104,2033.825 	"/>
	<polygon fill="#FFFFFF" stroke="#3E3A39" stroke-width="0.7" stroke-miterlimit="10" points="-4576.23,2090.431 -4569.104,2096.64 
		-4569.104,2084.222 	"/>
	<polygon fill="#FFFFFF" stroke="#3E3A39" stroke-width="0.7" stroke-miterlimit="10" points="-4576.23,2140.831 
		-4569.104,2147.038 -4569.104,2134.622 	"/>
	<polygon fill="#FFFFFF" stroke="#3E3A39" stroke-width="0.7" stroke-miterlimit="10" points="-4576.23,2191.227 
		-4569.104,2197.434 -4569.104,2185.018 	"/>
	<polygon fill="#FFFFFF" stroke="#3E3A39" stroke-width="0.7" stroke-miterlimit="10" points="-4576.23,2241.626 
		-4569.104,2247.833 -4569.104,2235.417 	"/>
	<polygon fill="#FFFFFF" stroke="#3E3A39" stroke-width="0.7" stroke-miterlimit="10" points="-4576.23,2292.02 -4569.104,2298.229 
		-4569.104,2285.813 	"/>
	<polygon fill="#FFFFFF" stroke="#3E3A39" stroke-width="0.7" stroke-miterlimit="10" points="-4576.23,2342.419 
		-4569.104,2348.627 -4569.104,2336.211 	"/>
	<polygon fill="#FFFFFF" stroke="#3E3A39" stroke-width="0.7" stroke-miterlimit="10" points="-4576.23,2392.817 
		-4569.104,2399.024 -4569.104,2386.608 	"/>
	<rect x="-5136.47" y="252.499" fill="#221613" width="10.25" height="12.6"/>
	<polygon fill="#221613" points="-5126.22,273.957 -5126.22,269.302 -5136.47,269.302 -5136.47,281.903 -5126.22,281.903 
		-5126.22,277.249 -5124.533,277.249 -5124.533,273.957 	"/>
	<rect x="-5136.47" y="269.428" fill="#221613" width="10.25" height="12.6"/>
	<rect x="-5136.47" y="286.232" fill="#221613" width="10.25" height="12.6"/>
	
		<text transform="matrix(0.9276 0 0 1 -5174.6831 284.2664)" fill="#FFFFFF" stroke="#3E3A39" stroke-width="0.7002" stroke-miterlimit="10" font-family="'MicrosoftYaHei'" font-size="21">43</text>
	<polygon fill="#FFFFFF" stroke="#3E3A39" stroke-width="0.7" stroke-miterlimit="10" points="-5141.949,275.982 -5149.075,282.19 
		-5149.075,269.773 	"/>
	<rect x="-4591.439" y="252.499" fill="#221613" width="10.25" height="12.6"/>
	<polygon fill="#221613" points="-4591.439,273.957 -4591.439,269.302 -4581.189,269.302 -4581.189,281.903 -4591.439,281.903 
		-4591.439,277.249 -4593.127,277.249 -4593.127,273.957 	"/>
	<rect x="-4591.439" y="269.428" fill="#221613" width="10.25" height="12.6"/>
	<rect x="-4591.439" y="286.232" fill="#221613" width="10.25" height="12.6"/>
	
		<text transform="matrix(0.9276 0 0 1 -4567.9639 284.1414)" fill="#FFFFFF" stroke="#3E3A39" stroke-width="0.7002" stroke-miterlimit="10" font-family="'MicrosoftYaHei'" font-size="21">43</text>
	<polygon fill="#FFFFFF" stroke="#3E3A39" stroke-width="0.7" stroke-miterlimit="10" points="-4576.23,275.982 -4569.104,282.19 
		-4569.104,269.773 	"/>
	<rect x="-5136.47" y="202.087" fill="#221613" width="10.25" height="12.6"/>
	<polygon fill="#221613" points="-5126.22,223.545 -5126.22,218.89 -5136.47,218.89 -5136.47,231.491 -5126.22,231.491 
		-5126.22,226.837 -5124.533,226.837 -5124.533,223.545 	"/>
	<rect x="-5136.47" y="218.891" fill="#221613" width="10.25" height="12.6"/>
	<rect x="-5136.47" y="235.695" fill="#221613" width="10.25" height="12.6"/>
	
		<text transform="matrix(0.9276 0 0 1 -5174.6831 233.8542)" fill="#FFFFFF" stroke="#3E3A39" stroke-width="0.7002" stroke-miterlimit="10" font-family="'MicrosoftYaHei'" font-size="21">44</text>
	<polygon fill="#FFFFFF" stroke="#3E3A39" stroke-width="0.7" stroke-miterlimit="10" points="-5141.949,225.57 -5149.075,231.778 
		-5149.075,219.361 	"/>
	<rect x="-4591.439" y="202.087" fill="#221613" width="10.25" height="12.6"/>
	<polygon fill="#221613" points="-4591.439,223.545 -4591.439,218.89 -4581.189,218.89 -4581.189,231.491 -4591.439,231.491 
		-4591.439,226.837 -4593.127,226.837 -4593.127,223.545 	"/>
	<rect x="-4591.439" y="218.891" fill="#221613" width="10.25" height="12.6"/>
	<rect x="-4591.439" y="235.695" fill="#221613" width="10.25" height="12.6"/>
	
		<text transform="matrix(0.9276 0 0 1 -4567.9639 233.7292)" fill="#FFFFFF" stroke="#3E3A39" stroke-width="0.7002" stroke-miterlimit="10" font-family="'MicrosoftYaHei'" font-size="21">44</text>
	<polygon fill="#FFFFFF" stroke="#3E3A39" stroke-width="0.7" stroke-miterlimit="10" points="-4576.23,225.57 -4569.104,231.778 
		-4569.104,219.361 	"/>
	<rect x="-5136.47" y="151.683" fill="#221613" width="10.25" height="12.6"/>
	<polygon fill="#221613" points="-5126.22,173.141 -5126.22,168.487 -5136.47,168.487 -5136.47,181.088 -5126.22,181.088 
		-5126.22,176.433 -5124.533,176.433 -5124.533,173.141 	"/>
	<rect x="-5136.47" y="168.479" fill="#221613" width="10.25" height="12.6"/>
	<rect x="-5136.47" y="185.283" fill="#221613" width="10.25" height="12.6"/>
	
		<text transform="matrix(0.9276 0 0 1 -5174.6831 183.4509)" fill="#FFFFFF" stroke="#3E3A39" stroke-width="0.7002" stroke-miterlimit="10" font-family="'MicrosoftYaHei'" font-size="21">45</text>
	<polygon fill="#FFFFFF" stroke="#3E3A39" stroke-width="0.7" stroke-miterlimit="10" points="-5141.949,175.167 -5149.075,181.375 
		-5149.075,168.958 	"/>
	<rect x="-4591.439" y="151.683" fill="#221613" width="10.25" height="12.6"/>
	<polygon fill="#221613" points="-4591.439,173.141 -4591.439,168.487 -4581.189,168.487 -4581.189,181.088 -4591.439,181.088 
		-4591.439,176.433 -4593.127,176.433 -4593.127,173.141 	"/>
	<rect x="-4591.439" y="168.479" fill="#221613" width="10.25" height="12.6"/>
	<rect x="-4591.439" y="185.283" fill="#221613" width="10.25" height="12.6"/>
	
		<text transform="matrix(0.9276 0 0 1 -4567.9639 183.3259)" fill="#FFFFFF" stroke="#3E3A39" stroke-width="0.7002" stroke-miterlimit="10" font-family="'MicrosoftYaHei'" font-size="21">45</text>
	<polygon fill="#FFFFFF" stroke="#3E3A39" stroke-width="0.7" stroke-miterlimit="10" points="-4576.23,175.167 -4569.104,181.375 
		-4569.104,168.958 	"/>
	<rect x="-5136.47" y="101.271" fill="#221613" width="10.25" height="12.6"/>
	<polygon fill="#221613" points="-5126.22,122.729 -5126.22,118.075 -5136.47,118.075 -5136.47,130.676 -5126.22,130.676 
		-5126.22,126.021 -5124.533,126.021 -5124.533,122.729 	"/>
	<rect x="-5136.47" y="118.076" fill="#221613" width="10.25" height="12.6"/>
	<rect x="-5136.47" y="134.88" fill="#221613" width="10.25" height="12.6"/>
	
		<text transform="matrix(0.9276 0 0 1 -5174.6831 133.0388)" fill="#FFFFFF" stroke="#3E3A39" stroke-width="0.7002" stroke-miterlimit="10" font-family="'MicrosoftYaHei'" font-size="21">46</text>
	<polygon fill="#FFFFFF" stroke="#3E3A39" stroke-width="0.7" stroke-miterlimit="10" points="-5141.949,124.755 -5149.075,130.963 
		-5149.075,118.546 	"/>
	<rect x="-4591.439" y="101.271" fill="#221613" width="10.25" height="12.6"/>
	<polygon fill="#221613" points="-4591.439,122.729 -4591.439,118.075 -4581.189,118.075 -4581.189,130.676 -4591.439,130.676 
		-4591.439,126.021 -4593.127,126.021 -4593.127,122.729 	"/>
	<rect x="-4591.439" y="118.076" fill="#221613" width="10.25" height="12.6"/>
	<rect x="-4591.439" y="134.88" fill="#221613" width="10.25" height="12.6"/>
	
		<text transform="matrix(0.9276 0 0 1 -4567.9639 132.9138)" fill="#FFFFFF" stroke="#3E3A39" stroke-width="0.7002" stroke-miterlimit="10" font-family="'MicrosoftYaHei'" font-size="21">46</text>
	<polygon fill="#FFFFFF" stroke="#3E3A39" stroke-width="0.7" stroke-miterlimit="10" points="-4576.23,124.755 -4569.104,130.963 
		-4569.104,118.546 	"/>
	<rect x="-5136.47" y="101.271" fill="#221613" width="10.25" height="12.6"/>
	<rect x="-4591.439" y="101.271" fill="#221613" width="10.25" height="12.6"/>
	<rect x="-5136.47" y="50.859" fill="#221613" width="10.25" height="12.6"/>
	<polygon fill="#221613" points="-5126.22,72.317 -5126.22,67.663 -5136.47,67.663 -5136.47,80.263 -5126.22,80.263 
		-5126.22,75.609 -5124.533,75.609 -5124.533,72.317 	"/>
	<rect x="-5136.47" y="67.664" fill="#221613" width="10.25" height="12.6"/>
	<rect x="-5136.47" y="84.468" fill="#221613" width="10.25" height="12.6"/>
	
		<text transform="matrix(0.9276 0 0 1 -5174.6831 82.6267)" fill="#FFFFFF" stroke="#3E3A39" stroke-width="0.7002" stroke-miterlimit="10" font-family="'MicrosoftYaHei'" font-size="21">47</text>
	<polygon fill="#FFFFFF" stroke="#3E3A39" stroke-width="0.7" stroke-miterlimit="10" points="-5141.949,74.343 -5149.075,80.551 
		-5149.075,68.134 	"/>
	<rect x="-4591.439" y="50.859" fill="#221613" width="10.25" height="12.6"/>
	<polygon fill="#221613" points="-4591.439,72.317 -4591.439,67.663 -4581.189,67.663 -4581.189,80.263 -4591.439,80.263 
		-4591.439,75.609 -4593.127,75.609 -4593.127,72.317 	"/>
	<rect x="-4591.439" y="67.664" fill="#221613" width="10.25" height="12.6"/>
	<rect x="-4591.439" y="84.468" fill="#221613" width="10.25" height="12.6"/>
	
		<text transform="matrix(0.9276 0 0 1 -4567.9639 82.5017)" fill="#FFFFFF" stroke="#3E3A39" stroke-width="0.7002" stroke-miterlimit="10" font-family="'MicrosoftYaHei'" font-size="21">47</text>
	<polygon fill="#FFFFFF" stroke="#3E3A39" stroke-width="0.7" stroke-miterlimit="10" points="-4576.23,74.343 -4569.104,80.551 
		-4569.104,68.134 	"/>
</g>
</svg>
