<?xml version="1.0" encoding="utf-8"?>
<!-- Generator: Adobe Illustrator 16.0.0, SVG Export Plug-In . SVG Version: 6.00 Build 0)  -->
<!DOCTYPE svg PUBLIC "-//W3C//DTD SVG 1.1//EN" "http://www.w3.org/Graphics/SVG/1.1/DTD/svg11.dtd">
<svg version="1.1" id="图层_1" xmlns="http://www.w3.org/2000/svg" xmlns:xlink="http://www.w3.org/1999/xlink" x="0px" y="0px"
	 width="680.314px" height="2536.717px" viewBox="-4226.632 -42.894 680.314 2536.717"
	 enable-background="new -4226.632 -42.894 680.314 2536.717" xml:space="preserve">
<linearGradient id="SVGID_1_" gradientUnits="userSpaceOnUse" x1="-4349.9165" y1="1443.7888" x2="-3669.6021" y2="1443.7888" gradientTransform="matrix(1 0 0 -1 123.2847 2669.2534)">
	<stop  offset="0" style="stop-color:#808080"/>
	<stop  offset="0.0895" style="stop-color:#3E3A39"/>
	<stop  offset="0.9181" style="stop-color:#3E3A39"/>
	<stop  offset="1" style="stop-color:#808080"/>
</linearGradient>
<path fill="url(#SVGID_1_)" d="M-4226.632-42.894v2536.717h680.314V-42.894H-4226.632z M-3631.357,2418.36h-510.235V32.563h510.235
	V2418.36z"/>
<rect x="-4164.373" y="303.036" fill="#221613" width="10.25" height="12.6"/>
<polygon fill="#221613" points="-4154.123,324.494 -4154.123,319.84 -4164.373,319.84 -4164.373,332.44 -4154.123,332.44 
	-4154.123,327.786 -4152.437,327.786 -4152.437,324.494 "/>
<rect x="-4164.373" y="336.644" fill="#221613" width="10.25" height="12.6"/>
<rect x="-4164.373" y="353.448" fill="#221613" width="10.25" height="12.6"/>
<polygon fill="#221613" points="-4154.123,374.906 -4154.123,370.252 -4164.373,370.252 -4164.373,382.851 -4154.123,382.851 
	-4154.123,378.198 -4152.437,378.198 -4152.437,374.906 "/>
<rect x="-4164.373" y="387.056" fill="#221613" width="10.25" height="12.6"/>
<rect x="-4164.373" y="403.86" fill="#221613" width="10.25" height="12.6"/>
<polygon fill="#221613" points="-4154.123,425.317 -4154.123,420.664 -4164.373,420.664 -4164.373,433.262 -4154.123,433.262 
	-4154.123,428.609 -4152.437,428.609 -4152.437,425.317 "/>
<rect x="-4164.373" y="437.467" fill="#221613" width="10.25" height="12.601"/>
<rect x="-4164.373" y="454.272" fill="#221613" width="10.25" height="12.6"/>
<polygon fill="#221613" points="-4154.123,475.729 -4154.123,471.075 -4164.373,471.075 -4164.373,483.675 -4154.123,483.675 
	-4154.123,479.021 -4152.437,479.021 -4152.437,475.729 "/>
<rect x="-4164.373" y="487.879" fill="#221613" width="10.25" height="12.601"/>
<rect x="-4164.373" y="504.683" fill="#221613" width="10.25" height="12.6"/>
<polygon fill="#221613" points="-4154.123,526.14 -4154.123,521.487 -4164.373,521.487 -4164.373,534.086 -4154.123,534.086 
	-4154.123,529.432 -4152.437,529.432 -4152.437,526.14 "/>
<rect x="-4164.373" y="538.291" fill="#221613" width="10.25" height="12.601"/>
<rect x="-4164.373" y="555.094" fill="#221613" width="10.25" height="12.601"/>
<polygon fill="#221613" points="-4154.123,576.552 -4154.123,571.899 -4164.373,571.899 -4164.373,584.499 -4154.123,584.499 
	-4154.123,579.844 -4152.437,579.844 -4152.437,576.552 "/>
<rect x="-4164.373" y="588.703" fill="#221613" width="10.25" height="12.6"/>
<rect x="-4164.373" y="605.506" fill="#221613" width="10.25" height="12.601"/>
<polygon fill="#221613" points="-4154.123,626.964 -4154.123,622.311 -4164.373,622.311 -4164.373,634.911 -4154.123,634.911 
	-4154.123,630.257 -4152.437,630.257 -4152.437,626.964 "/>
<rect x="-4164.373" y="639.115" fill="#221613" width="10.25" height="12.6"/>
<rect x="-4164.373" y="655.919" fill="#221613" width="10.25" height="12.6"/>
<polygon fill="#221613" points="-4154.123,677.376 -4154.123,672.721 -4164.373,672.721 -4164.373,685.322 -4154.123,685.322 
	-4154.123,680.668 -4152.437,680.668 -4152.437,677.376 "/>
<rect x="-4164.373" y="689.526" fill="#221613" width="10.25" height="12.6"/>
<rect x="-4164.373" y="706.331" fill="#221613" width="10.25" height="12.6"/>
<polygon fill="#221613" points="-4154.123,727.788 -4154.123,723.134 -4164.373,723.134 -4164.373,735.734 -4154.123,735.734 
	-4154.123,731.08 -4152.437,731.08 -4152.437,727.788 "/>
<rect x="-4164.373" y="739.937" fill="#221613" width="10.25" height="12.601"/>
<rect x="-4164.373" y="756.742" fill="#221613" width="10.25" height="12.6"/>
<polygon fill="#221613" points="-4154.123,778.2 -4154.123,773.546 -4164.373,773.546 -4164.373,786.145 -4154.123,786.145 
	-4154.123,781.493 -4152.437,781.493 -4152.437,778.2 "/>
<polygon fill="#221613" points="-4154.123,828.61 -4154.123,823.958 -4164.373,823.958 -4164.373,836.556 -4154.123,836.556 
	-4154.123,831.903 -4152.437,831.903 -4152.437,828.61 "/>
<polygon fill="#221613" points="-4154.123,879.022 -4154.123,874.37 -4164.373,874.37 -4164.373,886.969 -4154.123,886.969 
	-4154.123,882.315 -4152.437,882.315 -4152.437,879.022 "/>
<rect x="-4164.373" y="790.349" fill="#221613" width="10.25" height="12.601"/>
<rect x="-4164.373" y="807.154" fill="#221613" width="10.25" height="12.6"/>
<rect x="-4164.373" y="840.761" fill="#221613" width="10.25" height="12.601"/>
<rect x="-4164.373" y="857.566" fill="#221613" width="10.25" height="12.6"/>
<rect x="-4164.373" y="891.173" fill="#221613" width="10.25" height="12.6"/>
<rect x="-4164.373" y="907.976" fill="#221613" width="10.25" height="12.601"/>
<polygon fill="#221613" points="-4154.123,929.433 -4154.123,924.782 -4164.373,924.782 -4164.373,937.381 -4154.123,937.381 
	-4154.123,932.726 -4152.437,932.726 -4152.437,929.433 "/>
<rect x="-4164.373" y="941.585" fill="#221613" width="10.25" height="12.6"/>
<rect x="-4164.373" y="958.388" fill="#221613" width="10.25" height="12.601"/>
<polygon fill="#221613" points="-4154.123,979.845 -4154.123,975.193 -4164.373,975.193 -4164.373,987.793 -4154.123,987.793 
	-4154.123,983.137 -4152.437,983.137 -4152.437,979.845 "/>
<rect x="-4164.373" y="991.997" fill="#221613" width="10.25" height="12.6"/>
<rect x="-4164.373" y="1008.801" fill="#221613" width="10.25" height="12.601"/>
<polygon fill="#221613" points="-4154.123,1030.258 -4154.123,1025.604 -4164.373,1025.604 -4164.373,1038.205 -4154.123,1038.205 
	-4154.123,1033.551 -4152.437,1033.551 -4152.437,1030.258 "/>
<polygon fill="#221613" points="-4154.123,1080.67 -4154.123,1076.016 -4164.373,1076.016 -4164.373,1088.617 -4154.123,1088.617 
	-4154.123,1083.963 -4152.437,1083.963 -4152.437,1080.67 "/>
<rect x="-4164.373" y="1042.409" fill="#221613" width="10.25" height="12.6"/>
<rect x="-4164.373" y="1059.212" fill="#221613" width="10.25" height="12.6"/>
<rect x="-4164.373" y="1092.821" fill="#221613" width="10.25" height="12.6"/>
<rect x="-4164.373" y="1109.625" fill="#221613" width="10.25" height="12.6"/>
<rect x="-4164.373" y="1143.233" fill="#221613" width="10.25" height="12.6"/>
<rect x="-4164.373" y="1160.037" fill="#221613" width="10.25" height="12.599"/>
<polygon fill="#221613" points="-4154.123,1181.494 -4154.123,1176.84 -4164.373,1176.84 -4164.373,1189.44 -4154.123,1189.44 
	-4154.123,1184.787 -4152.437,1184.787 -4152.437,1181.494 "/>
<polygon fill="#221613" points="-4154.123,1131.082 -4154.123,1126.427 -4164.373,1126.427 -4164.373,1139.028 -4154.123,1139.028 
	-4154.123,1134.375 -4152.437,1134.375 -4152.437,1131.082 "/>
<rect x="-4164.373" y="1193.643" fill="#221613" width="10.25" height="12.601"/>
<rect x="-4164.373" y="1210.448" fill="#221613" width="10.25" height="12.6"/>
<polygon fill="#221613" points="-4154.123,1231.905 -4154.123,1227.252 -4164.373,1227.252 -4164.373,1239.851 -4154.123,1239.851 
	-4154.123,1235.198 -4152.437,1235.198 -4152.437,1231.905 "/>
<rect x="-4164.373" y="1244.055" fill="#221613" width="10.25" height="12.601"/>
<rect x="-4164.373" y="1260.86" fill="#221613" width="10.25" height="12.6"/>
<polygon fill="#221613" points="-4154.123,1282.315 -4154.123,1277.664 -4164.373,1277.664 -4164.373,1290.262 -4154.123,1290.262 
	-4154.123,1285.609 -4152.437,1285.609 -4152.437,1282.315 "/>
<polygon fill="#221613" points="-4154.123,1332.727 -4154.123,1328.076 -4164.373,1328.076 -4164.373,1340.675 -4154.123,1340.675 
	-4154.123,1336.02 -4152.437,1336.02 -4152.437,1332.727 "/>
<rect x="-4164.373" y="1294.467" fill="#221613" width="10.25" height="12.601"/>
<rect x="-4164.373" y="1311.272" fill="#221613" width="10.25" height="12.6"/>
<rect x="-4164.373" y="1344.879" fill="#221613" width="10.25" height="12.6"/>
<rect x="-4164.373" y="1361.682" fill="#221613" width="10.25" height="12.601"/>
<rect x="-4164.373" y="1395.292" fill="#221613" width="10.25" height="12.6"/>
<rect x="-4164.373" y="1412.094" fill="#221613" width="10.25" height="12.601"/>
<polygon fill="#221613" points="-4154.123,1433.551 -4154.123,1428.899 -4164.373,1428.899 -4164.373,1441.499 -4154.123,1441.499 
	-4154.123,1436.844 -4152.437,1436.844 -4152.437,1433.551 "/>
<polygon fill="#221613" points="-4154.123,1383.138 -4154.123,1378.487 -4164.373,1378.487 -4164.373,1391.086 -4154.123,1391.086 
	-4154.123,1386.431 -4152.437,1386.431 -4152.437,1383.138 "/>
<rect x="-4164.373" y="1445.704" fill="#221613" width="10.25" height="12.6"/>
<rect x="-4164.373" y="1462.507" fill="#221613" width="10.25" height="12.6"/>
<polygon fill="#221613" points="-4154.123,1483.964 -4154.123,1479.31 -4164.373,1479.31 -4164.373,1491.911 -4154.123,1491.911 
	-4154.123,1487.256 -4152.437,1487.256 -4152.437,1483.964 "/>
<rect x="-4164.373" y="1496.115" fill="#221613" width="10.25" height="12.6"/>
<rect x="-4164.373" y="1512.919" fill="#221613" width="10.25" height="12.6"/>
<polygon fill="#221613" points="-4154.123,1534.376 -4154.123,1529.722 -4164.373,1529.722 -4164.373,1542.323 -4154.123,1542.323 
	-4154.123,1537.669 -4152.437,1537.669 -4152.437,1534.376 "/>
<polygon fill="#221613" points="-4154.123,1584.788 -4154.123,1580.134 -4164.373,1580.134 -4164.373,1592.734 -4154.123,1592.734 
	-4154.123,1588.081 -4152.437,1588.081 -4152.437,1584.788 "/>
<rect x="-4164.373" y="1546.527" fill="#221613" width="10.25" height="12.6"/>
<rect x="-4164.373" y="1563.331" fill="#221613" width="10.25" height="12.6"/>
<rect x="-4164.373" y="1596.938" fill="#221613" width="10.25" height="12.6"/>
<rect x="-4164.373" y="1613.743" fill="#221613" width="10.25" height="12.6"/>
<rect x="-4164.373" y="1647.349" fill="#221613" width="10.25" height="12.601"/>
<rect x="-4164.373" y="1664.154" fill="#221613" width="10.25" height="12.6"/>
<polygon fill="#221613" points="-4154.123,1685.612 -4154.123,1680.958 -4164.373,1680.958 -4164.373,1693.556 -4154.123,1693.556 
	-4154.123,1688.905 -4152.437,1688.905 -4152.437,1685.612 "/>
<polygon fill="#221613" points="-4154.123,1635.2 -4154.123,1630.546 -4164.373,1630.546 -4164.373,1643.145 -4154.123,1643.145 
	-4154.123,1638.493 -4152.437,1638.493 -4152.437,1635.2 "/>
<rect x="-4164.373" y="1697.761" fill="#221613" width="10.25" height="12.601"/>
<rect x="-4164.373" y="1714.565" fill="#221613" width="10.25" height="12.601"/>
<polygon fill="#221613" points="-4154.123,1736.022 -4154.123,1731.37 -4164.373,1731.37 -4164.373,1743.969 -4154.123,1743.969 
	-4154.123,1739.315 -4152.437,1739.315 -4152.437,1736.022 "/>
<rect x="-4164.373" y="1748.173" fill="#221613" width="10.25" height="12.6"/>
<rect x="-4164.373" y="1764.977" fill="#221613" width="10.25" height="12.601"/>
<polygon fill="#221613" points="-4154.123,1786.434 -4154.123,1781.782 -4164.373,1781.782 -4164.373,1794.381 -4154.123,1794.381 
	-4154.123,1789.727 -4152.437,1789.727 -4152.437,1786.434 "/>
<polygon fill="#221613" points="-4154.123,1836.845 -4154.123,1832.194 -4164.373,1832.194 -4164.373,1844.794 -4154.123,1844.794 
	-4154.123,1840.138 -4152.437,1840.138 -4152.437,1836.845 "/>
<rect x="-4164.373" y="1798.585" fill="#221613" width="10.25" height="12.6"/>
<rect x="-4164.373" y="1815.388" fill="#221613" width="10.25" height="12.601"/>
<rect x="-4164.373" y="1848.998" fill="#221613" width="10.25" height="12.6"/>
<rect x="-4164.373" y="1865.801" fill="#221613" width="10.25" height="12.601"/>
<rect x="-4164.373" y="1899.409" fill="#221613" width="10.25" height="12.6"/>
<rect x="-4164.373" y="1916.213" fill="#221613" width="10.25" height="12.601"/>
<polygon fill="#221613" points="-4154.123,1937.67 -4154.123,1933.016 -4164.373,1933.016 -4164.373,1945.617 -4154.123,1945.617 
	-4154.123,1940.963 -4152.437,1940.963 -4152.437,1937.67 "/>
<polygon fill="#221613" points="-4154.123,1887.258 -4154.123,1882.604 -4164.373,1882.604 -4164.373,1895.205 -4154.123,1895.205 
	-4154.123,1890.551 -4152.437,1890.551 -4152.437,1887.258 "/>
<rect x="-4164.373" y="1949.821" fill="#221613" width="10.25" height="12.6"/>
<rect x="-4164.373" y="1966.625" fill="#221613" width="10.25" height="12.6"/>
<polygon fill="#221613" points="-4154.123,1988.083 -4154.123,1983.427 -4164.373,1983.427 -4164.373,1996.028 -4154.123,1996.028 
	-4154.123,1991.374 -4152.437,1991.374 -4152.437,1988.083 "/>
<rect x="-4164.373" y="2000.233" fill="#221613" width="10.25" height="12.6"/>
<rect x="-4164.373" y="2017.037" fill="#221613" width="10.25" height="12.6"/>
<polygon fill="#221613" points="-4154.123,2038.494 -4154.123,2033.84 -4164.373,2033.84 -4164.373,2046.44 -4154.123,2046.44 
	-4154.123,2041.787 -4152.437,2041.787 -4152.437,2038.494 "/>
<polygon fill="#221613" points="-4154.123,2088.906 -4154.123,2084.252 -4164.373,2084.252 -4164.373,2096.851 -4154.123,2096.851 
	-4154.123,2092.199 -4152.437,2092.199 -4152.437,2088.906 "/>
<rect x="-4164.373" y="2050.643" fill="#221613" width="10.25" height="12.601"/>
<rect x="-4164.373" y="2067.449" fill="#221613" width="10.25" height="12.6"/>
<rect x="-4164.373" y="2101.055" fill="#221613" width="10.25" height="12.601"/>
<rect x="-4164.373" y="2117.86" fill="#221613" width="10.25" height="12.6"/>
<rect x="-4164.373" y="2151.468" fill="#221613" width="10.25" height="12.601"/>
<rect x="-4164.373" y="2168.272" fill="#221613" width="10.25" height="12.6"/>
<polygon fill="#221613" points="-4154.123,2189.729 -4154.123,2185.076 -4164.373,2185.076 -4164.373,2197.675 -4154.123,2197.675 
	-4154.123,2193.022 -4152.437,2193.022 -4152.437,2189.729 "/>
<polygon fill="#221613" points="-4154.123,2139.317 -4154.123,2134.665 -4164.373,2134.665 -4164.373,2147.263 -4154.123,2147.263 
	-4154.123,2142.61 -4152.437,2142.61 -4152.437,2139.317 "/>
<rect x="-4164.373" y="2201.879" fill="#221613" width="10.25" height="12.6"/>
<rect x="-4164.373" y="2218.683" fill="#221613" width="10.25" height="12.601"/>
<polygon fill="#221613" points="-4154.123,2240.139 -4154.123,2235.488 -4164.373,2235.488 -4164.373,2248.087 -4154.123,2248.087 
	-4154.123,2243.432 -4152.437,2243.432 -4152.437,2240.139 "/>
<rect x="-4164.373" y="2252.292" fill="#221613" width="10.25" height="12.6"/>
<rect x="-4164.373" y="2269.094" fill="#221613" width="10.25" height="12.601"/>
<polygon fill="#221613" points="-4154.123,2290.552 -4154.123,2285.899 -4164.373,2285.899 -4164.373,2298.499 -4154.123,2298.499 
	-4154.123,2293.845 -4152.437,2293.845 -4152.437,2290.552 "/>
<polygon fill="#221613" points="-4154.123,2340.964 -4154.123,2336.311 -4164.373,2336.311 -4164.373,2348.911 -4154.123,2348.911 
	-4154.123,2344.257 -4152.437,2344.257 -4152.437,2340.964 "/>
<rect x="-4164.373" y="2302.704" fill="#221613" width="10.25" height="12.6"/>
<rect x="-4164.373" y="2319.507" fill="#221613" width="10.25" height="12.6"/>
<rect x="-4164.373" y="2353.115" fill="#221613" width="10.25" height="12.6"/>
<rect x="-4164.373" y="2369.919" fill="#221613" width="10.25" height="12.6"/>
<rect x="-4164.373" y="2403.526" fill="#221613" width="10.25" height="12.601"/>
<polygon fill="#221613" points="-4154.123,2391.377 -4154.123,2386.722 -4164.373,2386.722 -4164.373,2399.323 -4154.123,2399.323 
	-4154.123,2394.669 -4152.437,2394.669 -4152.437,2391.377 "/>
<text transform="matrix(0.9276 0 0 1 -4202.5864 334.8035)" fill="#FFFFFF" font-family="'MicrosoftYaHei'" font-size="21">42</text>
<text transform="matrix(0.9276 0 0 1 -4202.5864 334.8035)" fill="none" stroke="#3E3A39" stroke-width="0.7" stroke-miterlimit="10" font-family="'MicrosoftYaHei'" font-size="21">42</text>
<text transform="matrix(0.9276 0 0 1 -4202.5864 385.2019)" fill="#FFFFFF" font-family="'MicrosoftYaHei'" font-size="21">41</text>
<text transform="matrix(0.9276 0 0 1 -4202.5864 385.2019)" fill="none" stroke="#3E3A39" stroke-width="0.7" stroke-miterlimit="10" font-family="'MicrosoftYaHei'" font-size="21">41</text>
<text transform="matrix(0.9276 0 0 1 -4202.5864 435.5984)" fill="#FFFFFF" font-family="'MicrosoftYaHei'" font-size="21">40</text>
<text transform="matrix(0.9276 0 0 1 -4202.5864 435.5984)" fill="none" stroke="#3E3A39" stroke-width="0.7" stroke-miterlimit="10" font-family="'MicrosoftYaHei'" font-size="21">40</text>
<text transform="matrix(0.9276 0 0 1 -4202.5864 485.9968)" fill="#FFFFFF" font-family="'MicrosoftYaHei'" font-size="21">39</text>
<text transform="matrix(0.9276 0 0 1 -4202.5864 485.9968)" fill="none" stroke="#3E3A39" stroke-width="0.7" stroke-miterlimit="10" font-family="'MicrosoftYaHei'" font-size="21">39</text>
<text transform="matrix(0.9276 0 0 1 -4202.5864 536.3933)" fill="#FFFFFF" font-family="'MicrosoftYaHei'" font-size="21">38</text>
<text transform="matrix(0.9276 0 0 1 -4202.5864 536.3933)" fill="none" stroke="#3E3A39" stroke-width="0.7" stroke-miterlimit="10" font-family="'MicrosoftYaHei'" font-size="21">38</text>
<text transform="matrix(0.9276 0 0 1 -4202.5864 586.7908)" fill="#FFFFFF" font-family="'MicrosoftYaHei'" font-size="21">37</text>
<text transform="matrix(0.9276 0 0 1 -4202.5864 586.7908)" fill="none" stroke="#3E3A39" stroke-width="0.7" stroke-miterlimit="10" font-family="'MicrosoftYaHei'" font-size="21">37</text>
<text transform="matrix(0.9276 0 0 1 -4202.5864 637.1902)" fill="#FFFFFF" font-family="'MicrosoftYaHei'" font-size="21">36</text>
<text transform="matrix(0.9276 0 0 1 -4202.5864 637.1902)" fill="none" stroke="#3E3A39" stroke-width="0.7" stroke-miterlimit="10" font-family="'MicrosoftYaHei'" font-size="21">36</text>
<text transform="matrix(0.9276 0 0 1 -4202.5864 687.5867)" fill="#FFFFFF" font-family="'MicrosoftYaHei'" font-size="21">35</text>
<text transform="matrix(0.9276 0 0 1 -4202.5864 687.5867)" fill="none" stroke="#3E3A39" stroke-width="0.7" stroke-miterlimit="10" font-family="'MicrosoftYaHei'" font-size="21">35</text>
<text transform="matrix(0.9276 0 0 1 -4202.5864 737.9851)" fill="#FFFFFF" font-family="'MicrosoftYaHei'" font-size="21">34</text>
<text transform="matrix(0.9276 0 0 1 -4202.5864 737.9851)" fill="none" stroke="#3E3A39" stroke-width="0.7" stroke-miterlimit="10" font-family="'MicrosoftYaHei'" font-size="21">34</text>
<text transform="matrix(0.9276 0 0 1 -4202.5864 788.3816)" fill="#FFFFFF" font-family="'MicrosoftYaHei'" font-size="21">33</text>
<text transform="matrix(0.9276 0 0 1 -4202.5864 788.3816)" fill="none" stroke="#3E3A39" stroke-width="0.7" stroke-miterlimit="10" font-family="'MicrosoftYaHei'" font-size="21">33</text>
<text transform="matrix(0.9276 0 0 1 -4202.5864 838.78)" fill="#FFFFFF" font-family="'MicrosoftYaHei'" font-size="21">32</text>
<text transform="matrix(0.9276 0 0 1 -4202.5864 838.78)" fill="none" stroke="#3E3A39" stroke-width="0.7" stroke-miterlimit="10" font-family="'MicrosoftYaHei'" font-size="21">32</text>
<text transform="matrix(0.9276 0 0 1 -4202.5864 889.1765)" fill="#FFFFFF" font-family="'MicrosoftYaHei'" font-size="21">31</text>
<text transform="matrix(0.9276 0 0 1 -4202.5864 889.1765)" fill="none" stroke="#3E3A39" stroke-width="0.7" stroke-miterlimit="10" font-family="'MicrosoftYaHei'" font-size="21">31</text>
<text transform="matrix(0.9276 0 0 1 -4202.5864 939.575)" fill="#FFFFFF" font-family="'MicrosoftYaHei'" font-size="21">30</text>
<text transform="matrix(0.9276 0 0 1 -4202.5864 939.575)" fill="none" stroke="#3E3A39" stroke-width="0.7" stroke-miterlimit="10" font-family="'MicrosoftYaHei'" font-size="21">30</text>
<text transform="matrix(0.9276 0 0 1 -4202.5864 989.9705)" fill="#FFFFFF" font-family="'MicrosoftYaHei'" font-size="21">29</text>
<text transform="matrix(0.9276 0 0 1 -4202.5864 989.9705)" fill="none" stroke="#3E3A39" stroke-width="0.7" stroke-miterlimit="10" font-family="'MicrosoftYaHei'" font-size="21">29</text>
<text transform="matrix(0.9276 0 0 1 -4202.5864 1040.3699)" fill="#FFFFFF" font-family="'MicrosoftYaHei'" font-size="21">28</text>
<text transform="matrix(0.9276 0 0 1 -4202.5864 1040.3699)" fill="none" stroke="#3E3A39" stroke-width="0.7" stroke-miterlimit="10" font-family="'MicrosoftYaHei'" font-size="21">28</text>
<text transform="matrix(0.9276 0 0 1 -4202.5864 1090.7664)" fill="#FFFFFF" font-family="'MicrosoftYaHei'" font-size="21">27</text>
<text transform="matrix(0.9276 0 0 1 -4202.5864 1090.7664)" fill="none" stroke="#3E3A39" stroke-width="0.7" stroke-miterlimit="10" font-family="'MicrosoftYaHei'" font-size="21">27</text>
<text transform="matrix(0.9276 0 0 1 -4202.5864 1141.1648)" fill="#FFFFFF" font-family="'MicrosoftYaHei'" font-size="21">26</text>
<text transform="matrix(0.9276 0 0 1 -4202.5864 1141.1648)" fill="none" stroke="#3E3A39" stroke-width="0.7" stroke-miterlimit="10" font-family="'MicrosoftYaHei'" font-size="21">26</text>
<text transform="matrix(0.9276 0 0 1 -4202.5864 1191.5623)" fill="#FFFFFF" font-family="'MicrosoftYaHei'" font-size="21">25</text>
<text transform="matrix(0.9276 0 0 1 -4202.5864 1191.5623)" fill="none" stroke="#3E3A39" stroke-width="0.7" stroke-miterlimit="10" font-family="'MicrosoftYaHei'" font-size="21">25</text>
<text transform="matrix(0.9276 0 0 1 -4202.5864 1241.9597)" fill="#FFFFFF" font-family="'MicrosoftYaHei'" font-size="21">24</text>
<text transform="matrix(0.9276 0 0 1 -4202.5864 1241.9597)" fill="none" stroke="#3E3A39" stroke-width="0.7" stroke-miterlimit="10" font-family="'MicrosoftYaHei'" font-size="21">24</text>
<text transform="matrix(0.9276 0 0 1 -4202.5864 1292.3562)" fill="#FFFFFF" font-family="'MicrosoftYaHei'" font-size="21">23</text>
<text transform="matrix(0.9276 0 0 1 -4202.5864 1292.3562)" fill="none" stroke="#3E3A39" stroke-width="0.7" stroke-miterlimit="10" font-family="'MicrosoftYaHei'" font-size="21">23</text>
<text transform="matrix(0.9276 0 0 1 -4202.5864 1342.7546)" fill="#FFFFFF" font-family="'MicrosoftYaHei'" font-size="21">22</text>
<text transform="matrix(0.9276 0 0 1 -4202.5864 1342.7546)" fill="none" stroke="#3E3A39" stroke-width="0.7" stroke-miterlimit="10" font-family="'MicrosoftYaHei'" font-size="21">22</text>
<text transform="matrix(0.9276 0 0 1 -4202.5864 1393.1511)" fill="#FFFFFF" font-family="'MicrosoftYaHei'" font-size="21">21</text>
<text transform="matrix(0.9276 0 0 1 -4202.5864 1393.1511)" fill="none" stroke="#3E3A39" stroke-width="0.7" stroke-miterlimit="10" font-family="'MicrosoftYaHei'" font-size="21">21</text>
<text transform="matrix(0.9276 0 0 1 -4202.5864 1443.5496)" fill="#FFFFFF" font-family="'MicrosoftYaHei'" font-size="21">20</text>
<text transform="matrix(0.9276 0 0 1 -4202.5864 1443.5496)" fill="none" stroke="#3E3A39" stroke-width="0.7" stroke-miterlimit="10" font-family="'MicrosoftYaHei'" font-size="21">20</text>
<text transform="matrix(0.9276 0 0 1 -4202.5864 1493.946)" fill="#FFFFFF" font-family="'MicrosoftYaHei'" font-size="21">19</text>
<text transform="matrix(0.9276 0 0 1 -4202.5864 1493.946)" fill="none" stroke="#3E3A39" stroke-width="0.7" stroke-miterlimit="10" font-family="'MicrosoftYaHei'" font-size="21">19</text>
<text transform="matrix(0.9276 0 0 1 -4202.5864 1544.3445)" fill="#FFFFFF" font-family="'MicrosoftYaHei'" font-size="21">18</text>
<text transform="matrix(0.9276 0 0 1 -4202.5864 1544.3445)" fill="none" stroke="#3E3A39" stroke-width="0.7" stroke-miterlimit="10" font-family="'MicrosoftYaHei'" font-size="21">18</text>
<text transform="matrix(0.9276 0 0 1 -4202.5864 1594.741)" fill="#FFFFFF" font-family="'MicrosoftYaHei'" font-size="21">17</text>
<text transform="matrix(0.9276 0 0 1 -4202.5864 1594.741)" fill="none" stroke="#3E3A39" stroke-width="0.7" stroke-miterlimit="10" font-family="'MicrosoftYaHei'" font-size="21">17</text>
<text transform="matrix(0.9276 0 0 1 -4202.5864 1645.1394)" fill="#FFFFFF" font-family="'MicrosoftYaHei'" font-size="21">16</text>
<text transform="matrix(0.9276 0 0 1 -4202.5864 1645.1394)" fill="none" stroke="#3E3A39" stroke-width="0.7" stroke-miterlimit="10" font-family="'MicrosoftYaHei'" font-size="21">16</text>
<text transform="matrix(0.9276 0 0 1 -4202.5864 1695.5378)" fill="#FFFFFF" font-family="'MicrosoftYaHei'" font-size="21">15</text>
<text transform="matrix(0.9276 0 0 1 -4202.5864 1695.5378)" fill="none" stroke="#3E3A39" stroke-width="0.7" stroke-miterlimit="10" font-family="'MicrosoftYaHei'" font-size="21">15</text>
<text transform="matrix(0.9276 0 0 1 -4202.5864 1745.9343)" fill="#FFFFFF" font-family="'MicrosoftYaHei'" font-size="21">14</text>
<text transform="matrix(0.9276 0 0 1 -4202.5864 1745.9343)" fill="none" stroke="#3E3A39" stroke-width="0.7" stroke-miterlimit="10" font-family="'MicrosoftYaHei'" font-size="21">14</text>
<text transform="matrix(0.9276 0 0 1 -4202.5864 1796.3328)" fill="#FFFFFF" font-family="'MicrosoftYaHei'" font-size="21">13</text>
<text transform="matrix(0.9276 0 0 1 -4202.5864 1796.3328)" fill="none" stroke="#3E3A39" stroke-width="0.7" stroke-miterlimit="10" font-family="'MicrosoftYaHei'" font-size="21">13</text>
<text transform="matrix(0.9276 0 0 1 -4202.5864 1846.7292)" fill="#FFFFFF" font-family="'MicrosoftYaHei'" font-size="21">12</text>
<text transform="matrix(0.9276 0 0 1 -4202.5864 1846.7292)" fill="none" stroke="#3E3A39" stroke-width="0.7" stroke-miterlimit="10" font-family="'MicrosoftYaHei'" font-size="21">12</text>
<text transform="matrix(0.9276 0 0 1 -4202.5864 1897.1277)" fill="#FFFFFF" font-family="'MicrosoftYaHei'" font-size="21">11</text>
<text transform="matrix(0.9276 0 0 1 -4202.5864 1897.1277)" fill="none" stroke="#3E3A39" stroke-width="0.7" stroke-miterlimit="10" font-family="'MicrosoftYaHei'" font-size="21">11</text>
<text transform="matrix(0.9276 0 0 1 -4202.5864 1947.5242)" fill="#FFFFFF" font-family="'MicrosoftYaHei'" font-size="21">10</text>
<text transform="matrix(0.9276 0 0 1 -4202.5864 1947.5242)" fill="none" stroke="#3E3A39" stroke-width="0.7" stroke-miterlimit="10" font-family="'MicrosoftYaHei'" font-size="21">10</text>
<text transform="matrix(0.9276 0 0 1 -4190.5737 1997.9226)" fill="#FFFFFF" font-family="'MicrosoftYaHei'" font-size="21">9</text>
<text transform="matrix(0.9276 0 0 1 -4190.5737 1997.9226)" fill="none" stroke="#3E3A39" stroke-width="0.7" stroke-miterlimit="10" font-family="'MicrosoftYaHei'" font-size="21">9</text>
<text transform="matrix(0.9276 0 0 1 -4190.5737 2048.3191)" fill="#FFFFFF" font-family="'MicrosoftYaHei'" font-size="21">8</text>
<text transform="matrix(0.9276 0 0 1 -4190.5737 2048.3191)" fill="none" stroke="#3E3A39" stroke-width="0.7" stroke-miterlimit="10" font-family="'MicrosoftYaHei'" font-size="21">8</text>
<text transform="matrix(0.9276 0 0 1 -4190.5737 2098.7175)" fill="#FFFFFF" font-family="'MicrosoftYaHei'" font-size="21">7</text>
<text transform="matrix(0.9276 0 0 1 -4190.5737 2098.7175)" fill="none" stroke="#3E3A39" stroke-width="0.7" stroke-miterlimit="10" font-family="'MicrosoftYaHei'" font-size="21">7</text>
<text transform="matrix(0.9276 0 0 1 -4190.5737 2149.114)" fill="#FFFFFF" font-family="'MicrosoftYaHei'" font-size="21">6</text>
<text transform="matrix(0.9276 0 0 1 -4190.5737 2149.114)" fill="none" stroke="#3E3A39" stroke-width="0.7" stroke-miterlimit="10" font-family="'MicrosoftYaHei'" font-size="21">6</text>
<text transform="matrix(0.9276 0 0 1 -4190.5737 2199.5125)" fill="#FFFFFF" font-family="'MicrosoftYaHei'" font-size="21">5</text>
<text transform="matrix(0.9276 0 0 1 -4190.5737 2199.5125)" fill="none" stroke="#3E3A39" stroke-width="0.7" stroke-miterlimit="10" font-family="'MicrosoftYaHei'" font-size="21">5</text>
<text transform="matrix(0.9276 0 0 1 -4190.5737 2249.9089)" fill="#FFFFFF" font-family="'MicrosoftYaHei'" font-size="21">4</text>
<text transform="matrix(0.9276 0 0 1 -4190.5737 2249.9089)" fill="none" stroke="#3E3A39" stroke-width="0.7" stroke-miterlimit="10" font-family="'MicrosoftYaHei'" font-size="21">4</text>
<text transform="matrix(0.9276 0 0 1 -4190.5737 2300.3074)" fill="#FFFFFF" font-family="'MicrosoftYaHei'" font-size="21">3</text>
<text transform="matrix(0.9276 0 0 1 -4190.5737 2300.3074)" fill="none" stroke="#3E3A39" stroke-width="0.7" stroke-miterlimit="10" font-family="'MicrosoftYaHei'" font-size="21">3</text>
<text transform="matrix(0.9276 0 0 1 -4190.5737 2350.7039)" fill="#FFFFFF" font-family="'MicrosoftYaHei'" font-size="21">2</text>
<text transform="matrix(0.9276 0 0 1 -4190.5737 2350.7039)" fill="none" stroke="#3E3A39" stroke-width="0.7" stroke-miterlimit="10" font-family="'MicrosoftYaHei'" font-size="21">2</text>
<text transform="matrix(0.9276 0 0 1 -4190.5737 2401.1023)" fill="#FFFFFF" font-family="'MicrosoftYaHei'" font-size="21">1</text>
<text transform="matrix(0.9276 0 0 1 -4190.5737 2401.1023)" fill="none" stroke="#3E3A39" stroke-width="0.7" stroke-miterlimit="10" font-family="'MicrosoftYaHei'" font-size="21">1</text>
<polygon fill="#FFFFFF" stroke="#3E3A39" stroke-width="0.7" stroke-miterlimit="10" points="-4169.853,326.519 -4176.979,332.727 
	-4176.979,320.31 "/>
<polygon fill="#FFFFFF" stroke="#3E3A39" stroke-width="0.7" stroke-miterlimit="10" points="-4169.853,376.916 -4176.979,383.125 
	-4176.979,370.708 "/>
<polygon fill="#FFFFFF" stroke="#3E3A39" stroke-width="0.7" stroke-miterlimit="10" points="-4169.853,427.314 -4176.979,433.522 
	-4176.979,421.105 "/>
<polygon fill="#FFFFFF" stroke="#3E3A39" stroke-width="0.7" stroke-miterlimit="10" points="-4169.853,477.711 -4176.979,483.919 
	-4176.979,471.502 "/>
<polygon fill="#FFFFFF" stroke="#3E3A39" stroke-width="0.7" stroke-miterlimit="10" points="-4169.853,528.109 -4176.979,534.317 
	-4176.979,521.9 "/>
<polygon fill="#FFFFFF" stroke="#3E3A39" stroke-width="0.7" stroke-miterlimit="10" points="-4169.853,578.506 -4176.979,584.714 
	-4176.979,572.297 "/>
<polygon fill="#FFFFFF" stroke="#3E3A39" stroke-width="0.7" stroke-miterlimit="10" points="-4169.853,628.904 -4176.979,635.112 
	-4176.979,622.696 "/>
<polygon fill="#FFFFFF" stroke="#3E3A39" stroke-width="0.7" stroke-miterlimit="10" points="-4169.853,679.301 -4176.979,685.509 
	-4176.979,673.093 "/>
<polygon fill="#FFFFFF" stroke="#3E3A39" stroke-width="0.7" stroke-miterlimit="10" points="-4169.853,729.7 -4176.979,735.907 
	-4176.979,723.491 "/>
<polygon fill="#FFFFFF" stroke="#3E3A39" stroke-width="0.7" stroke-miterlimit="10" points="-4169.853,780.095 -4176.979,786.303 
	-4176.979,773.887 "/>
<polygon fill="#FFFFFF" stroke="#3E3A39" stroke-width="0.7" stroke-miterlimit="10" points="-4169.853,830.494 -4176.979,836.702 
	-4176.979,824.286 "/>
<polygon fill="#FFFFFF" stroke="#3E3A39" stroke-width="0.7" stroke-miterlimit="10" points="-4169.853,880.891 -4176.979,887.098 
	-4176.979,874.682 "/>
<polygon fill="#FFFFFF" stroke="#3E3A39" stroke-width="0.7" stroke-miterlimit="10" points="-4169.853,931.289 -4176.979,937.497 
	-4176.979,925.081 "/>
<polygon fill="#FFFFFF" stroke="#3E3A39" stroke-width="0.7" stroke-miterlimit="10" points="-4169.853,981.685 -4176.979,987.893 
	-4176.979,975.477 "/>
<polygon fill="#FFFFFF" stroke="#3E3A39" stroke-width="0.7" stroke-miterlimit="10" points="-4169.853,1032.085 
	-4176.979,1038.292 -4176.979,1025.876 "/>
<polygon fill="#FFFFFF" stroke="#3E3A39" stroke-width="0.7" stroke-miterlimit="10" points="-4169.853,1082.481 
	-4176.979,1088.688 -4176.979,1076.272 "/>
<polygon fill="#FFFFFF" stroke="#3E3A39" stroke-width="0.7" stroke-miterlimit="10" points="-4169.853,1132.879 
	-4176.979,1139.086 -4176.979,1126.67 "/>
<polygon fill="#FFFFFF" stroke="#3E3A39" stroke-width="0.7" stroke-miterlimit="10" points="-4169.853,1183.276 
	-4176.979,1189.485 -4176.979,1177.069 "/>
<polygon fill="#FFFFFF" stroke="#3E3A39" stroke-width="0.7" stroke-miterlimit="10" points="-4169.853,1233.674 
	-4176.979,1239.883 -4176.979,1227.465 "/>
<polygon fill="#FFFFFF" stroke="#3E3A39" stroke-width="0.7" stroke-miterlimit="10" points="-4169.853,1284.072 
	-4176.979,1290.281 -4176.979,1277.863 "/>
<polygon fill="#FFFFFF" stroke="#3E3A39" stroke-width="0.7" stroke-miterlimit="10" points="-4169.853,1334.469 
	-4176.979,1340.677 -4176.979,1328.26 "/>
<polygon fill="#FFFFFF" stroke="#3E3A39" stroke-width="0.7" stroke-miterlimit="10" points="-4169.853,1384.868 
	-4176.979,1391.075 -4176.979,1378.659 "/>
<polygon fill="#FFFFFF" stroke="#3E3A39" stroke-width="0.7" stroke-miterlimit="10" points="-4169.853,1435.264 
	-4176.979,1441.471 -4176.979,1429.055 "/>
<polygon fill="#FFFFFF" stroke="#3E3A39" stroke-width="0.7" stroke-miterlimit="10" points="-4169.853,1485.663 -4176.979,1491.87 
	-4176.979,1479.454 "/>
<polygon fill="#FFFFFF" stroke="#3E3A39" stroke-width="0.7" stroke-miterlimit="10" points="-4169.853,1536.057 
	-4176.979,1542.266 -4176.979,1529.85 "/>
<polygon fill="#FFFFFF" stroke="#3E3A39" stroke-width="0.7" stroke-miterlimit="10" points="-4169.853,1586.456 
	-4176.979,1592.665 -4176.979,1580.249 "/>
<polygon fill="#FFFFFF" stroke="#3E3A39" stroke-width="0.7" stroke-miterlimit="10" points="-4169.853,1636.854 
	-4176.979,1643.061 -4176.979,1630.645 "/>
<polygon fill="#FFFFFF" stroke="#3E3A39" stroke-width="0.7" stroke-miterlimit="10" points="-4169.853,1687.251 -4176.979,1693.46 
	-4176.979,1681.044 "/>
<polygon fill="#FFFFFF" stroke="#3E3A39" stroke-width="0.7" stroke-miterlimit="10" points="-4169.853,1737.647 
	-4176.979,1743.856 -4176.979,1731.44 "/>
<polygon fill="#FFFFFF" stroke="#3E3A39" stroke-width="0.7" stroke-miterlimit="10" points="-4169.853,1788.047 
	-4176.979,1794.254 -4176.979,1781.838 "/>
<polygon fill="#FFFFFF" stroke="#3E3A39" stroke-width="0.7" stroke-miterlimit="10" points="-4169.853,1838.444 
	-4176.979,1844.652 -4176.979,1832.236 "/>
<polygon fill="#FFFFFF" stroke="#3E3A39" stroke-width="0.7" stroke-miterlimit="10" points="-4169.853,1888.841 
	-4176.979,1895.049 -4176.979,1882.633 "/>
<polygon fill="#FFFFFF" stroke="#3E3A39" stroke-width="0.7" stroke-miterlimit="10" points="-4169.853,1939.239 
	-4176.979,1945.448 -4176.979,1933.032 "/>
<polygon fill="#FFFFFF" stroke="#3E3A39" stroke-width="0.7" stroke-miterlimit="10" points="-4169.853,1989.636 
	-4176.979,1995.845 -4176.979,1983.427 "/>
<polygon fill="#FFFFFF" stroke="#3E3A39" stroke-width="0.7" stroke-miterlimit="10" points="-4169.853,2040.034 
	-4176.979,2046.243 -4176.979,2033.825 "/>
<polygon fill="#FFFFFF" stroke="#3E3A39" stroke-width="0.7" stroke-miterlimit="10" points="-4169.853,2090.431 -4176.979,2096.64 
	-4176.979,2084.222 "/>
<polygon fill="#FFFFFF" stroke="#3E3A39" stroke-width="0.7" stroke-miterlimit="10" points="-4169.853,2140.831 
	-4176.979,2147.038 -4176.979,2134.622 "/>
<polygon fill="#FFFFFF" stroke="#3E3A39" stroke-width="0.7" stroke-miterlimit="10" points="-4169.853,2191.227 
	-4176.979,2197.434 -4176.979,2185.018 "/>
<polygon fill="#FFFFFF" stroke="#3E3A39" stroke-width="0.7" stroke-miterlimit="10" points="-4169.853,2241.626 
	-4176.979,2247.833 -4176.979,2235.417 "/>
<polygon fill="#FFFFFF" stroke="#3E3A39" stroke-width="0.7" stroke-miterlimit="10" points="-4169.853,2292.02 -4176.979,2298.229 
	-4176.979,2285.813 "/>
<polygon fill="#FFFFFF" stroke="#3E3A39" stroke-width="0.7" stroke-miterlimit="10" points="-4169.853,2342.419 
	-4176.979,2348.627 -4176.979,2336.211 "/>
<polygon fill="#FFFFFF" stroke="#3E3A39" stroke-width="0.7" stroke-miterlimit="10" points="-4169.853,2392.817 
	-4176.979,2399.024 -4176.979,2386.608 "/>
<rect x="-3619.343" y="303.036" fill="#221613" width="10.25" height="12.6"/>
<polygon fill="#221613" points="-3619.343,324.494 -3619.343,319.84 -3609.093,319.84 -3609.093,332.44 -3619.343,332.44 
	-3619.343,327.786 -3621.03,327.786 -3621.03,324.494 "/>
<rect x="-3619.343" y="336.644" fill="#221613" width="10.25" height="12.6"/>
<rect x="-3619.343" y="353.448" fill="#221613" width="10.25" height="12.6"/>
<polygon fill="#221613" points="-3619.343,374.906 -3619.343,370.252 -3609.093,370.252 -3609.093,382.851 -3619.343,382.851 
	-3619.343,378.198 -3621.03,378.198 -3621.03,374.906 "/>
<rect x="-3619.343" y="387.056" fill="#221613" width="10.25" height="12.6"/>
<rect x="-3619.343" y="403.86" fill="#221613" width="10.25" height="12.6"/>
<polygon fill="#221613" points="-3619.343,425.317 -3619.343,420.664 -3609.093,420.664 -3609.093,433.262 -3619.343,433.262 
	-3619.343,428.609 -3621.03,428.609 -3621.03,425.317 "/>
<rect x="-3619.343" y="437.467" fill="#221613" width="10.25" height="12.601"/>
<rect x="-3619.343" y="454.272" fill="#221613" width="10.25" height="12.6"/>
<polygon fill="#221613" points="-3619.343,475.729 -3619.343,471.075 -3609.093,471.075 -3609.093,483.675 -3619.343,483.675 
	-3619.343,479.021 -3621.03,479.021 -3621.03,475.729 "/>
<rect x="-3619.343" y="487.879" fill="#221613" width="10.25" height="12.601"/>
<rect x="-3619.343" y="504.683" fill="#221613" width="10.25" height="12.6"/>
<polygon fill="#221613" points="-3619.343,526.14 -3619.343,521.487 -3609.093,521.487 -3609.093,534.086 -3619.343,534.086 
	-3619.343,529.432 -3621.03,529.432 -3621.03,526.14 "/>
<rect x="-3619.343" y="538.291" fill="#221613" width="10.25" height="12.601"/>
<rect x="-3619.343" y="555.094" fill="#221613" width="10.25" height="12.601"/>
<polygon fill="#221613" points="-3619.343,576.552 -3619.343,571.899 -3609.093,571.899 -3609.093,584.499 -3619.343,584.499 
	-3619.343,579.844 -3621.03,579.844 -3621.03,576.552 "/>
<rect x="-3619.343" y="588.703" fill="#221613" width="10.25" height="12.6"/>
<rect x="-3619.343" y="605.506" fill="#221613" width="10.25" height="12.601"/>
<polygon fill="#221613" points="-3619.343,626.964 -3619.343,622.311 -3609.093,622.311 -3609.093,634.911 -3619.343,634.911 
	-3619.343,630.257 -3621.03,630.257 -3621.03,626.964 "/>
<rect x="-3619.343" y="639.115" fill="#221613" width="10.25" height="12.6"/>
<rect x="-3619.343" y="655.919" fill="#221613" width="10.25" height="12.6"/>
<polygon fill="#221613" points="-3619.343,677.376 -3619.343,672.721 -3609.093,672.721 -3609.093,685.322 -3619.343,685.322 
	-3619.343,680.668 -3621.03,680.668 -3621.03,677.376 "/>
<rect x="-3619.343" y="689.526" fill="#221613" width="10.25" height="12.6"/>
<rect x="-3619.343" y="706.331" fill="#221613" width="10.25" height="12.6"/>
<polygon fill="#221613" points="-3619.343,727.788 -3619.343,723.134 -3609.093,723.134 -3609.093,735.734 -3619.343,735.734 
	-3619.343,731.08 -3621.03,731.08 -3621.03,727.788 "/>
<rect x="-3619.343" y="739.937" fill="#221613" width="10.25" height="12.601"/>
<rect x="-3619.343" y="756.742" fill="#221613" width="10.25" height="12.6"/>
<polygon fill="#221613" points="-3619.343,778.2 -3619.343,773.546 -3609.093,773.546 -3609.093,786.145 -3619.343,786.145 
	-3619.343,781.493 -3621.03,781.493 -3621.03,778.2 "/>
<polygon fill="#221613" points="-3619.343,828.61 -3619.343,823.958 -3609.093,823.958 -3609.093,836.556 -3619.343,836.556 
	-3619.343,831.903 -3621.03,831.903 -3621.03,828.61 "/>
<polygon fill="#221613" points="-3619.343,879.022 -3619.343,874.37 -3609.093,874.37 -3609.093,886.969 -3619.343,886.969 
	-3619.343,882.315 -3621.03,882.315 -3621.03,879.022 "/>
<rect x="-3619.343" y="790.349" fill="#221613" width="10.25" height="12.601"/>
<rect x="-3619.343" y="807.154" fill="#221613" width="10.25" height="12.6"/>
<rect x="-3619.343" y="840.761" fill="#221613" width="10.25" height="12.601"/>
<rect x="-3619.343" y="857.566" fill="#221613" width="10.25" height="12.6"/>
<rect x="-3619.343" y="891.173" fill="#221613" width="10.25" height="12.6"/>
<rect x="-3619.343" y="907.976" fill="#221613" width="10.25" height="12.601"/>
<polygon fill="#221613" points="-3619.343,929.433 -3619.343,924.782 -3609.093,924.782 -3609.093,937.381 -3619.343,937.381 
	-3619.343,932.726 -3621.03,932.726 -3621.03,929.433 "/>
<rect x="-3619.343" y="941.585" fill="#221613" width="10.25" height="12.6"/>
<rect x="-3619.343" y="958.388" fill="#221613" width="10.25" height="12.601"/>
<polygon fill="#221613" points="-3619.343,979.845 -3619.343,975.193 -3609.093,975.193 -3609.093,987.793 -3619.343,987.793 
	-3619.343,983.137 -3621.03,983.137 -3621.03,979.845 "/>
<rect x="-3619.343" y="991.997" fill="#221613" width="10.25" height="12.6"/>
<rect x="-3619.343" y="1008.801" fill="#221613" width="10.25" height="12.601"/>
<polygon fill="#221613" points="-3619.343,1030.258 -3619.343,1025.604 -3609.093,1025.604 -3609.093,1038.205 -3619.343,1038.205 
	-3619.343,1033.551 -3621.03,1033.551 -3621.03,1030.258 "/>
<polygon fill="#221613" points="-3619.343,1080.67 -3619.343,1076.016 -3609.093,1076.016 -3609.093,1088.617 -3619.343,1088.617 
	-3619.343,1083.963 -3621.03,1083.963 -3621.03,1080.67 "/>
<rect x="-3619.343" y="1042.409" fill="#221613" width="10.25" height="12.6"/>
<rect x="-3619.343" y="1059.212" fill="#221613" width="10.25" height="12.6"/>
<rect x="-3619.343" y="1092.821" fill="#221613" width="10.25" height="12.6"/>
<rect x="-3619.343" y="1109.625" fill="#221613" width="10.25" height="12.6"/>
<rect x="-3619.343" y="1143.233" fill="#221613" width="10.25" height="12.6"/>
<rect x="-3619.343" y="1160.037" fill="#221613" width="10.25" height="12.599"/>
<polygon fill="#221613" points="-3619.343,1181.494 -3619.343,1176.84 -3609.093,1176.84 -3609.093,1189.44 -3619.343,1189.44 
	-3619.343,1184.787 -3621.03,1184.787 -3621.03,1181.494 "/>
<polygon fill="#221613" points="-3619.343,1131.082 -3619.343,1126.427 -3609.093,1126.427 -3609.093,1139.028 -3619.343,1139.028 
	-3619.343,1134.375 -3621.03,1134.375 -3621.03,1131.082 "/>
<rect x="-3619.343" y="1193.643" fill="#221613" width="10.25" height="12.601"/>
<rect x="-3619.343" y="1210.448" fill="#221613" width="10.25" height="12.6"/>
<polygon fill="#221613" points="-3619.343,1231.905 -3619.343,1227.252 -3609.093,1227.252 -3609.093,1239.851 -3619.343,1239.851 
	-3619.343,1235.198 -3621.03,1235.198 -3621.03,1231.905 "/>
<rect x="-3619.343" y="1244.055" fill="#221613" width="10.25" height="12.601"/>
<rect x="-3619.343" y="1260.86" fill="#221613" width="10.25" height="12.6"/>
<polygon fill="#221613" points="-3619.343,1282.315 -3619.343,1277.664 -3609.093,1277.664 -3609.093,1290.262 -3619.343,1290.262 
	-3619.343,1285.609 -3621.03,1285.609 -3621.03,1282.315 "/>
<polygon fill="#221613" points="-3619.343,1332.727 -3619.343,1328.076 -3609.093,1328.076 -3609.093,1340.675 -3619.343,1340.675 
	-3619.343,1336.02 -3621.03,1336.02 -3621.03,1332.727 "/>
<rect x="-3619.343" y="1294.467" fill="#221613" width="10.25" height="12.601"/>
<rect x="-3619.343" y="1311.272" fill="#221613" width="10.25" height="12.6"/>
<rect x="-3619.343" y="1344.879" fill="#221613" width="10.25" height="12.6"/>
<rect x="-3619.343" y="1361.682" fill="#221613" width="10.25" height="12.601"/>
<rect x="-3619.343" y="1395.292" fill="#221613" width="10.25" height="12.6"/>
<rect x="-3619.343" y="1412.094" fill="#221613" width="10.25" height="12.601"/>
<polygon fill="#221613" points="-3619.343,1433.551 -3619.343,1428.899 -3609.093,1428.899 -3609.093,1441.499 -3619.343,1441.499 
	-3619.343,1436.844 -3621.03,1436.844 -3621.03,1433.551 "/>
<polygon fill="#221613" points="-3619.343,1383.138 -3619.343,1378.487 -3609.093,1378.487 -3609.093,1391.086 -3619.343,1391.086 
	-3619.343,1386.431 -3621.03,1386.431 -3621.03,1383.138 "/>
<rect x="-3619.343" y="1445.704" fill="#221613" width="10.25" height="12.6"/>
<rect x="-3619.343" y="1462.507" fill="#221613" width="10.25" height="12.6"/>
<polygon fill="#221613" points="-3619.343,1483.964 -3619.343,1479.31 -3609.093,1479.31 -3609.093,1491.911 -3619.343,1491.911 
	-3619.343,1487.256 -3621.03,1487.256 -3621.03,1483.964 "/>
<rect x="-3619.343" y="1496.115" fill="#221613" width="10.25" height="12.6"/>
<rect x="-3619.343" y="1512.919" fill="#221613" width="10.25" height="12.6"/>
<polygon fill="#221613" points="-3619.343,1534.376 -3619.343,1529.722 -3609.093,1529.722 -3609.093,1542.323 -3619.343,1542.323 
	-3619.343,1537.669 -3621.03,1537.669 -3621.03,1534.376 "/>
<polygon fill="#221613" points="-3619.343,1584.788 -3619.343,1580.134 -3609.093,1580.134 -3609.093,1592.734 -3619.343,1592.734 
	-3619.343,1588.081 -3621.03,1588.081 -3621.03,1584.788 "/>
<rect x="-3619.343" y="1546.527" fill="#221613" width="10.25" height="12.6"/>
<rect x="-3619.343" y="1563.331" fill="#221613" width="10.25" height="12.6"/>
<rect x="-3619.343" y="1596.938" fill="#221613" width="10.25" height="12.6"/>
<rect x="-3619.343" y="1613.743" fill="#221613" width="10.25" height="12.6"/>
<rect x="-3619.343" y="1647.349" fill="#221613" width="10.25" height="12.601"/>
<rect x="-3619.343" y="1664.154" fill="#221613" width="10.25" height="12.6"/>
<polygon fill="#221613" points="-3619.343,1685.612 -3619.343,1680.958 -3609.093,1680.958 -3609.093,1693.556 -3619.343,1693.556 
	-3619.343,1688.905 -3621.03,1688.905 -3621.03,1685.612 "/>
<polygon fill="#221613" points="-3619.343,1635.2 -3619.343,1630.546 -3609.093,1630.546 -3609.093,1643.145 -3619.343,1643.145 
	-3619.343,1638.493 -3621.03,1638.493 -3621.03,1635.2 "/>
<rect x="-3619.343" y="1697.761" fill="#221613" width="10.25" height="12.601"/>
<rect x="-3619.343" y="1714.565" fill="#221613" width="10.25" height="12.601"/>
<polygon fill="#221613" points="-3619.343,1736.022 -3619.343,1731.37 -3609.093,1731.37 -3609.093,1743.969 -3619.343,1743.969 
	-3619.343,1739.315 -3621.03,1739.315 -3621.03,1736.022 "/>
<rect x="-3619.343" y="1748.173" fill="#221613" width="10.25" height="12.6"/>
<rect x="-3619.343" y="1764.977" fill="#221613" width="10.25" height="12.601"/>
<polygon fill="#221613" points="-3619.343,1786.434 -3619.343,1781.782 -3609.093,1781.782 -3609.093,1794.381 -3619.343,1794.381 
	-3619.343,1789.727 -3621.03,1789.727 -3621.03,1786.434 "/>
<polygon fill="#221613" points="-3619.343,1836.845 -3619.343,1832.194 -3609.093,1832.194 -3609.093,1844.794 -3619.343,1844.794 
	-3619.343,1840.138 -3621.03,1840.138 -3621.03,1836.845 "/>
<rect x="-3619.343" y="1798.585" fill="#221613" width="10.25" height="12.6"/>
<rect x="-3619.343" y="1815.388" fill="#221613" width="10.25" height="12.601"/>
<rect x="-3619.343" y="1848.998" fill="#221613" width="10.25" height="12.6"/>
<rect x="-3619.343" y="1865.801" fill="#221613" width="10.25" height="12.601"/>
<rect x="-3619.343" y="1899.409" fill="#221613" width="10.25" height="12.6"/>
<rect x="-3619.343" y="1916.213" fill="#221613" width="10.25" height="12.601"/>
<polygon fill="#221613" points="-3619.343,1937.67 -3619.343,1933.016 -3609.093,1933.016 -3609.093,1945.617 -3619.343,1945.617 
	-3619.343,1940.963 -3621.03,1940.963 -3621.03,1937.67 "/>
<polygon fill="#221613" points="-3619.343,1887.258 -3619.343,1882.604 -3609.093,1882.604 -3609.093,1895.205 -3619.343,1895.205 
	-3619.343,1890.551 -3621.03,1890.551 -3621.03,1887.258 "/>
<rect x="-3619.343" y="1949.821" fill="#221613" width="10.25" height="12.6"/>
<rect x="-3619.343" y="1966.625" fill="#221613" width="10.25" height="12.6"/>
<polygon fill="#221613" points="-3619.343,1988.083 -3619.343,1983.427 -3609.093,1983.427 -3609.093,1996.028 -3619.343,1996.028 
	-3619.343,1991.374 -3621.03,1991.374 -3621.03,1988.083 "/>
<rect x="-3619.343" y="2000.233" fill="#221613" width="10.25" height="12.6"/>
<rect x="-3619.343" y="2017.037" fill="#221613" width="10.25" height="12.6"/>
<polygon fill="#221613" points="-3619.343,2038.494 -3619.343,2033.84 -3609.093,2033.84 -3609.093,2046.44 -3619.343,2046.44 
	-3619.343,2041.787 -3621.03,2041.787 -3621.03,2038.494 "/>
<polygon fill="#221613" points="-3619.343,2088.906 -3619.343,2084.252 -3609.093,2084.252 -3609.093,2096.851 -3619.343,2096.851 
	-3619.343,2092.199 -3621.03,2092.199 -3621.03,2088.906 "/>
<rect x="-3619.343" y="2050.643" fill="#221613" width="10.25" height="12.601"/>
<rect x="-3619.343" y="2067.449" fill="#221613" width="10.25" height="12.6"/>
<rect x="-3619.343" y="2101.055" fill="#221613" width="10.25" height="12.601"/>
<rect x="-3619.343" y="2117.86" fill="#221613" width="10.25" height="12.6"/>
<rect x="-3619.343" y="2151.468" fill="#221613" width="10.25" height="12.601"/>
<rect x="-3619.343" y="2168.272" fill="#221613" width="10.25" height="12.6"/>
<polygon fill="#221613" points="-3619.343,2189.729 -3619.343,2185.076 -3609.093,2185.076 -3609.093,2197.675 -3619.343,2197.675 
	-3619.343,2193.022 -3621.03,2193.022 -3621.03,2189.729 "/>
<polygon fill="#221613" points="-3619.343,2139.317 -3619.343,2134.665 -3609.093,2134.665 -3609.093,2147.263 -3619.343,2147.263 
	-3619.343,2142.61 -3621.03,2142.61 -3621.03,2139.317 "/>
<rect x="-3619.343" y="2201.879" fill="#221613" width="10.25" height="12.6"/>
<rect x="-3619.343" y="2218.683" fill="#221613" width="10.25" height="12.601"/>
<polygon fill="#221613" points="-3619.343,2240.139 -3619.343,2235.488 -3609.093,2235.488 -3609.093,2248.087 -3619.343,2248.087 
	-3619.343,2243.432 -3621.03,2243.432 -3621.03,2240.139 "/>
<rect x="-3619.343" y="2252.292" fill="#221613" width="10.25" height="12.6"/>
<rect x="-3619.343" y="2269.094" fill="#221613" width="10.25" height="12.601"/>
<polygon fill="#221613" points="-3619.343,2290.552 -3619.343,2285.899 -3609.093,2285.899 -3609.093,2298.499 -3619.343,2298.499 
	-3619.343,2293.845 -3621.03,2293.845 -3621.03,2290.552 "/>
<polygon fill="#221613" points="-3619.343,2340.964 -3619.343,2336.311 -3609.093,2336.311 -3609.093,2348.911 -3619.343,2348.911 
	-3619.343,2344.257 -3621.03,2344.257 -3621.03,2340.964 "/>
<rect x="-3619.343" y="2302.704" fill="#221613" width="10.25" height="12.6"/>
<rect x="-3619.343" y="2319.507" fill="#221613" width="10.25" height="12.6"/>
<rect x="-3619.343" y="2353.115" fill="#221613" width="10.25" height="12.6"/>
<rect x="-3619.343" y="2369.919" fill="#221613" width="10.25" height="12.6"/>
<rect x="-3619.343" y="2403.526" fill="#221613" width="10.25" height="12.601"/>
<polygon fill="#221613" points="-3619.343,2391.377 -3619.343,2386.722 -3609.093,2386.722 -3609.093,2399.323 -3619.343,2399.323 
	-3619.343,2394.669 -3621.03,2394.669 -3621.03,2391.377 "/>
<text transform="matrix(0.9276 0 0 1 -3595.8672 334.6785)" fill="#FFFFFF" font-family="'MicrosoftYaHei'" font-size="21">42</text>
<text transform="matrix(0.9276 0 0 1 -3595.8672 334.6785)" fill="none" stroke="#3E3A39" stroke-width="0.7" stroke-miterlimit="10" font-family="'MicrosoftYaHei'" font-size="21">42</text>
<text transform="matrix(0.9276 0 0 1 -3595.8672 385.0769)" fill="#FFFFFF" font-family="'MicrosoftYaHei'" font-size="21">41</text>
<text transform="matrix(0.9276 0 0 1 -3595.8672 385.0769)" fill="none" stroke="#3E3A39" stroke-width="0.7" stroke-miterlimit="10" font-family="'MicrosoftYaHei'" font-size="21">41</text>
<text transform="matrix(0.9276 0 0 1 -3595.8672 435.4734)" fill="#FFFFFF" font-family="'MicrosoftYaHei'" font-size="21">40</text>
<text transform="matrix(0.9276 0 0 1 -3595.8672 435.4734)" fill="none" stroke="#3E3A39" stroke-width="0.7" stroke-miterlimit="10" font-family="'MicrosoftYaHei'" font-size="21">40</text>
<text transform="matrix(0.9276 0 0 1 -3595.8672 485.8718)" fill="#FFFFFF" font-family="'MicrosoftYaHei'" font-size="21">39</text>
<text transform="matrix(0.9276 0 0 1 -3595.8672 485.8718)" fill="none" stroke="#3E3A39" stroke-width="0.7" stroke-miterlimit="10" font-family="'MicrosoftYaHei'" font-size="21">39</text>
<text transform="matrix(0.9276 0 0 1 -3595.8672 536.2683)" fill="#FFFFFF" font-family="'MicrosoftYaHei'" font-size="21">38</text>
<text transform="matrix(0.9276 0 0 1 -3595.8672 536.2683)" fill="none" stroke="#3E3A39" stroke-width="0.7" stroke-miterlimit="10" font-family="'MicrosoftYaHei'" font-size="21">38</text>
<text transform="matrix(0.9276 0 0 1 -3595.8672 586.6658)" fill="#FFFFFF" font-family="'MicrosoftYaHei'" font-size="21">37</text>
<text transform="matrix(0.9276 0 0 1 -3595.8672 586.6658)" fill="none" stroke="#3E3A39" stroke-width="0.7" stroke-miterlimit="10" font-family="'MicrosoftYaHei'" font-size="21">37</text>
<text transform="matrix(0.9276 0 0 1 -3595.8672 637.0652)" fill="#FFFFFF" font-family="'MicrosoftYaHei'" font-size="21">36</text>
<text transform="matrix(0.9276 0 0 1 -3595.8672 637.0652)" fill="none" stroke="#3E3A39" stroke-width="0.7" stroke-miterlimit="10" font-family="'MicrosoftYaHei'" font-size="21">36</text>
<text transform="matrix(0.9276 0 0 1 -3595.8672 687.4617)" fill="#FFFFFF" font-family="'MicrosoftYaHei'" font-size="21">35</text>
<text transform="matrix(0.9276 0 0 1 -3595.8672 687.4617)" fill="none" stroke="#3E3A39" stroke-width="0.7" stroke-miterlimit="10" font-family="'MicrosoftYaHei'" font-size="21">35</text>
<text transform="matrix(0.9276 0 0 1 -3595.8672 737.8601)" fill="#FFFFFF" font-family="'MicrosoftYaHei'" font-size="21">34</text>
<text transform="matrix(0.9276 0 0 1 -3595.8672 737.8601)" fill="none" stroke="#3E3A39" stroke-width="0.7" stroke-miterlimit="10" font-family="'MicrosoftYaHei'" font-size="21">34</text>
<text transform="matrix(0.9276 0 0 1 -3595.8672 788.2566)" fill="#FFFFFF" font-family="'MicrosoftYaHei'" font-size="21">33</text>
<text transform="matrix(0.9276 0 0 1 -3595.8672 788.2566)" fill="none" stroke="#3E3A39" stroke-width="0.7" stroke-miterlimit="10" font-family="'MicrosoftYaHei'" font-size="21">33</text>
<text transform="matrix(0.9276 0 0 1 -3595.8672 838.655)" fill="#FFFFFF" font-family="'MicrosoftYaHei'" font-size="21">32</text>
<text transform="matrix(0.9276 0 0 1 -3595.8672 838.655)" fill="none" stroke="#3E3A39" stroke-width="0.7" stroke-miterlimit="10" font-family="'MicrosoftYaHei'" font-size="21">32</text>
<text transform="matrix(0.9276 0 0 1 -3595.8672 889.0515)" fill="#FFFFFF" font-family="'MicrosoftYaHei'" font-size="21">31</text>
<text transform="matrix(0.9276 0 0 1 -3595.8672 889.0515)" fill="none" stroke="#3E3A39" stroke-width="0.7" stroke-miterlimit="10" font-family="'MicrosoftYaHei'" font-size="21">31</text>
<text transform="matrix(0.9276 0 0 1 -3595.8672 939.45)" fill="#FFFFFF" font-family="'MicrosoftYaHei'" font-size="21">30</text>
<text transform="matrix(0.9276 0 0 1 -3595.8672 939.45)" fill="none" stroke="#3E3A39" stroke-width="0.7" stroke-miterlimit="10" font-family="'MicrosoftYaHei'" font-size="21">30</text>
<text transform="matrix(0.9276 0 0 1 -3595.8672 989.8455)" fill="#FFFFFF" font-family="'MicrosoftYaHei'" font-size="21">29</text>
<text transform="matrix(0.9276 0 0 1 -3595.8672 989.8455)" fill="none" stroke="#3E3A39" stroke-width="0.7" stroke-miterlimit="10" font-family="'MicrosoftYaHei'" font-size="21">29</text>
<text transform="matrix(0.9276 0 0 1 -3595.8672 1040.2449)" fill="#FFFFFF" font-family="'MicrosoftYaHei'" font-size="21">28</text>
<text transform="matrix(0.9276 0 0 1 -3595.8672 1040.2449)" fill="none" stroke="#3E3A39" stroke-width="0.7" stroke-miterlimit="10" font-family="'MicrosoftYaHei'" font-size="21">28</text>
<text transform="matrix(0.9276 0 0 1 -3595.8672 1090.6414)" fill="#FFFFFF" font-family="'MicrosoftYaHei'" font-size="21">27</text>
<text transform="matrix(0.9276 0 0 1 -3595.8672 1090.6414)" fill="none" stroke="#3E3A39" stroke-width="0.7" stroke-miterlimit="10" font-family="'MicrosoftYaHei'" font-size="21">27</text>
<text transform="matrix(0.9276 0 0 1 -3595.8672 1141.0398)" fill="#FFFFFF" font-family="'MicrosoftYaHei'" font-size="21">26</text>
<text transform="matrix(0.9276 0 0 1 -3595.8672 1141.0398)" fill="none" stroke="#3E3A39" stroke-width="0.7" stroke-miterlimit="10" font-family="'MicrosoftYaHei'" font-size="21">26</text>
<text transform="matrix(0.9276 0 0 1 -3595.8672 1191.4373)" fill="#FFFFFF" font-family="'MicrosoftYaHei'" font-size="21">25</text>
<text transform="matrix(0.9276 0 0 1 -3595.8672 1191.4373)" fill="none" stroke="#3E3A39" stroke-width="0.7" stroke-miterlimit="10" font-family="'MicrosoftYaHei'" font-size="21">25</text>
<text transform="matrix(0.9276 0 0 1 -3595.8672 1241.8347)" fill="#FFFFFF" font-family="'MicrosoftYaHei'" font-size="21">24</text>
<text transform="matrix(0.9276 0 0 1 -3595.8672 1241.8347)" fill="none" stroke="#3E3A39" stroke-width="0.7" stroke-miterlimit="10" font-family="'MicrosoftYaHei'" font-size="21">24</text>
<text transform="matrix(0.9276 0 0 1 -3595.8672 1292.2312)" fill="#FFFFFF" font-family="'MicrosoftYaHei'" font-size="21">23</text>
<text transform="matrix(0.9276 0 0 1 -3595.8672 1292.2312)" fill="none" stroke="#3E3A39" stroke-width="0.7" stroke-miterlimit="10" font-family="'MicrosoftYaHei'" font-size="21">23</text>
<text transform="matrix(0.9276 0 0 1 -3595.8672 1342.6296)" fill="#FFFFFF" font-family="'MicrosoftYaHei'" font-size="21">22</text>
<text transform="matrix(0.9276 0 0 1 -3595.8672 1342.6296)" fill="none" stroke="#3E3A39" stroke-width="0.7" stroke-miterlimit="10" font-family="'MicrosoftYaHei'" font-size="21">22</text>
<text transform="matrix(0.9276 0 0 1 -3595.8672 1393.0261)" fill="#FFFFFF" font-family="'MicrosoftYaHei'" font-size="21">21</text>
<text transform="matrix(0.9276 0 0 1 -3595.8672 1393.0261)" fill="none" stroke="#3E3A39" stroke-width="0.7" stroke-miterlimit="10" font-family="'MicrosoftYaHei'" font-size="21">21</text>
<text transform="matrix(0.9276 0 0 1 -3595.8672 1443.4246)" fill="#FFFFFF" font-family="'MicrosoftYaHei'" font-size="21">20</text>
<text transform="matrix(0.9276 0 0 1 -3595.8672 1443.4246)" fill="none" stroke="#3E3A39" stroke-width="0.7" stroke-miterlimit="10" font-family="'MicrosoftYaHei'" font-size="21">20</text>
<text transform="matrix(0.9276 0 0 1 -3595.8672 1493.821)" fill="#FFFFFF" font-family="'MicrosoftYaHei'" font-size="21">19</text>
<text transform="matrix(0.9276 0 0 1 -3595.8672 1493.821)" fill="none" stroke="#3E3A39" stroke-width="0.7" stroke-miterlimit="10" font-family="'MicrosoftYaHei'" font-size="21">19</text>
<text transform="matrix(0.9276 0 0 1 -3595.8672 1544.2195)" fill="#FFFFFF" font-family="'MicrosoftYaHei'" font-size="21">18</text>
<text transform="matrix(0.9276 0 0 1 -3595.8672 1544.2195)" fill="none" stroke="#3E3A39" stroke-width="0.7" stroke-miterlimit="10" font-family="'MicrosoftYaHei'" font-size="21">18</text>
<text transform="matrix(0.9276 0 0 1 -3595.8672 1594.616)" fill="#FFFFFF" font-family="'MicrosoftYaHei'" font-size="21">17</text>
<text transform="matrix(0.9276 0 0 1 -3595.8672 1594.616)" fill="none" stroke="#3E3A39" stroke-width="0.7" stroke-miterlimit="10" font-family="'MicrosoftYaHei'" font-size="21">17</text>
<text transform="matrix(0.9276 0 0 1 -3595.8672 1645.0144)" fill="#FFFFFF" font-family="'MicrosoftYaHei'" font-size="21">16</text>
<text transform="matrix(0.9276 0 0 1 -3595.8672 1645.0144)" fill="none" stroke="#3E3A39" stroke-width="0.7" stroke-miterlimit="10" font-family="'MicrosoftYaHei'" font-size="21">16</text>
<text transform="matrix(0.9276 0 0 1 -3595.8672 1695.4128)" fill="#FFFFFF" font-family="'MicrosoftYaHei'" font-size="21">15</text>
<text transform="matrix(0.9276 0 0 1 -3595.8672 1695.4128)" fill="none" stroke="#3E3A39" stroke-width="0.7" stroke-miterlimit="10" font-family="'MicrosoftYaHei'" font-size="21">15</text>
<text transform="matrix(0.9276 0 0 1 -3595.8672 1745.8093)" fill="#FFFFFF" font-family="'MicrosoftYaHei'" font-size="21">14</text>
<text transform="matrix(0.9276 0 0 1 -3595.8672 1745.8093)" fill="none" stroke="#3E3A39" stroke-width="0.7" stroke-miterlimit="10" font-family="'MicrosoftYaHei'" font-size="21">14</text>
<text transform="matrix(0.9276 0 0 1 -3595.8672 1796.2078)" fill="#FFFFFF" font-family="'MicrosoftYaHei'" font-size="21">13</text>
<text transform="matrix(0.9276 0 0 1 -3595.8672 1796.2078)" fill="none" stroke="#3E3A39" stroke-width="0.7" stroke-miterlimit="10" font-family="'MicrosoftYaHei'" font-size="21">13</text>
<text transform="matrix(0.9276 0 0 1 -3595.8672 1846.6042)" fill="#FFFFFF" font-family="'MicrosoftYaHei'" font-size="21">12</text>
<text transform="matrix(0.9276 0 0 1 -3595.8672 1846.6042)" fill="none" stroke="#3E3A39" stroke-width="0.7" stroke-miterlimit="10" font-family="'MicrosoftYaHei'" font-size="21">12</text>
<text transform="matrix(0.9276 0 0 1 -3595.8672 1897.0027)" fill="#FFFFFF" font-family="'MicrosoftYaHei'" font-size="21">11</text>
<text transform="matrix(0.9276 0 0 1 -3595.8672 1897.0027)" fill="none" stroke="#3E3A39" stroke-width="0.7" stroke-miterlimit="10" font-family="'MicrosoftYaHei'" font-size="21">11</text>
<text transform="matrix(0.9276 0 0 1 -3595.8672 1947.3992)" fill="#FFFFFF" font-family="'MicrosoftYaHei'" font-size="21">10</text>
<text transform="matrix(0.9276 0 0 1 -3595.8672 1947.3992)" fill="none" stroke="#3E3A39" stroke-width="0.7" stroke-miterlimit="10" font-family="'MicrosoftYaHei'" font-size="21">10</text>
<text transform="matrix(0.9276 0 0 1 -3595.8672 1997.7976)" fill="#FFFFFF" font-family="'MicrosoftYaHei'" font-size="21">9</text>
<text transform="matrix(0.9276 0 0 1 -3595.8672 1997.7976)" fill="none" stroke="#3E3A39" stroke-width="0.7" stroke-miterlimit="10" font-family="'MicrosoftYaHei'" font-size="21">9</text>
<text transform="matrix(0.9276 0 0 1 -3595.8672 2048.1941)" fill="#FFFFFF" font-family="'MicrosoftYaHei'" font-size="21">8</text>
<text transform="matrix(0.9276 0 0 1 -3595.8672 2048.1941)" fill="none" stroke="#3E3A39" stroke-width="0.7" stroke-miterlimit="10" font-family="'MicrosoftYaHei'" font-size="21">8</text>
<text transform="matrix(0.9276 0 0 1 -3595.8672 2098.5925)" fill="#FFFFFF" font-family="'MicrosoftYaHei'" font-size="21">7</text>
<text transform="matrix(0.9276 0 0 1 -3595.8672 2098.5925)" fill="none" stroke="#3E3A39" stroke-width="0.7" stroke-miterlimit="10" font-family="'MicrosoftYaHei'" font-size="21">7</text>
<text transform="matrix(0.9276 0 0 1 -3595.8672 2148.989)" fill="#FFFFFF" font-family="'MicrosoftYaHei'" font-size="21">6</text>
<text transform="matrix(0.9276 0 0 1 -3595.8672 2148.989)" fill="none" stroke="#3E3A39" stroke-width="0.7" stroke-miterlimit="10" font-family="'MicrosoftYaHei'" font-size="21">6</text>
<text transform="matrix(0.9276 0 0 1 -3595.8672 2199.3875)" fill="#FFFFFF" font-family="'MicrosoftYaHei'" font-size="21">5</text>
<text transform="matrix(0.9276 0 0 1 -3595.8672 2199.3875)" fill="none" stroke="#3E3A39" stroke-width="0.7" stroke-miterlimit="10" font-family="'MicrosoftYaHei'" font-size="21">5</text>
<text transform="matrix(0.9276 0 0 1 -3595.8672 2249.7839)" fill="#FFFFFF" font-family="'MicrosoftYaHei'" font-size="21">4</text>
<text transform="matrix(0.9276 0 0 1 -3595.8672 2249.7839)" fill="none" stroke="#3E3A39" stroke-width="0.7" stroke-miterlimit="10" font-family="'MicrosoftYaHei'" font-size="21">4</text>
<text transform="matrix(0.9276 0 0 1 -3595.8672 2300.1824)" fill="#FFFFFF" font-family="'MicrosoftYaHei'" font-size="21">3</text>
<text transform="matrix(0.9276 0 0 1 -3595.8672 2300.1824)" fill="none" stroke="#3E3A39" stroke-width="0.7" stroke-miterlimit="10" font-family="'MicrosoftYaHei'" font-size="21">3</text>
<text transform="matrix(0.9276 0 0 1 -3595.8672 2350.5789)" fill="#FFFFFF" font-family="'MicrosoftYaHei'" font-size="21">2</text>
<text transform="matrix(0.9276 0 0 1 -3595.8672 2350.5789)" fill="none" stroke="#3E3A39" stroke-width="0.7" stroke-miterlimit="10" font-family="'MicrosoftYaHei'" font-size="21">2</text>
<text transform="matrix(0.9276 0 0 1 -3595.8672 2400.9773)" fill="#FFFFFF" font-family="'MicrosoftYaHei'" font-size="21">1</text>
<text transform="matrix(0.9276 0 0 1 -3595.8672 2400.9773)" fill="none" stroke="#3E3A39" stroke-width="0.7" stroke-miterlimit="10" font-family="'MicrosoftYaHei'" font-size="21">1</text>
<polygon fill="#FFFFFF" stroke="#3E3A39" stroke-width="0.7" stroke-miterlimit="10" points="-3604.134,326.519 -3597.007,332.727 
	-3597.007,320.31 "/>
<polygon fill="#FFFFFF" stroke="#3E3A39" stroke-width="0.7" stroke-miterlimit="10" points="-3604.134,376.916 -3597.007,383.125 
	-3597.007,370.708 "/>
<polygon fill="#FFFFFF" stroke="#3E3A39" stroke-width="0.7" stroke-miterlimit="10" points="-3604.134,427.314 -3597.007,433.522 
	-3597.007,421.105 "/>
<polygon fill="#FFFFFF" stroke="#3E3A39" stroke-width="0.7" stroke-miterlimit="10" points="-3604.134,477.711 -3597.007,483.919 
	-3597.007,471.502 "/>
<polygon fill="#FFFFFF" stroke="#3E3A39" stroke-width="0.7" stroke-miterlimit="10" points="-3604.134,528.109 -3597.007,534.317 
	-3597.007,521.9 "/>
<polygon fill="#FFFFFF" stroke="#3E3A39" stroke-width="0.7" stroke-miterlimit="10" points="-3604.134,578.506 -3597.007,584.714 
	-3597.007,572.297 "/>
<polygon fill="#FFFFFF" stroke="#3E3A39" stroke-width="0.7" stroke-miterlimit="10" points="-3604.134,628.904 -3597.007,635.112 
	-3597.007,622.696 "/>
<polygon fill="#FFFFFF" stroke="#3E3A39" stroke-width="0.7" stroke-miterlimit="10" points="-3604.134,679.301 -3597.007,685.509 
	-3597.007,673.093 "/>
<polygon fill="#FFFFFF" stroke="#3E3A39" stroke-width="0.7" stroke-miterlimit="10" points="-3604.134,729.7 -3597.007,735.907 
	-3597.007,723.491 "/>
<polygon fill="#FFFFFF" stroke="#3E3A39" stroke-width="0.7" stroke-miterlimit="10" points="-3604.134,780.095 -3597.007,786.303 
	-3597.007,773.887 "/>
<polygon fill="#FFFFFF" stroke="#3E3A39" stroke-width="0.7" stroke-miterlimit="10" points="-3604.134,830.494 -3597.007,836.702 
	-3597.007,824.286 "/>
<polygon fill="#FFFFFF" stroke="#3E3A39" stroke-width="0.7" stroke-miterlimit="10" points="-3604.134,880.891 -3597.007,887.098 
	-3597.007,874.682 "/>
<polygon fill="#FFFFFF" stroke="#3E3A39" stroke-width="0.7" stroke-miterlimit="10" points="-3604.134,931.289 -3597.007,937.497 
	-3597.007,925.081 "/>
<polygon fill="#FFFFFF" stroke="#3E3A39" stroke-width="0.7" stroke-miterlimit="10" points="-3604.134,981.685 -3597.007,987.893 
	-3597.007,975.477 "/>
<polygon fill="#FFFFFF" stroke="#3E3A39" stroke-width="0.7" stroke-miterlimit="10" points="-3604.134,1032.085 
	-3597.007,1038.292 -3597.007,1025.876 "/>
<polygon fill="#FFFFFF" stroke="#3E3A39" stroke-width="0.7" stroke-miterlimit="10" points="-3604.134,1082.481 
	-3597.007,1088.688 -3597.007,1076.272 "/>
<polygon fill="#FFFFFF" stroke="#3E3A39" stroke-width="0.7" stroke-miterlimit="10" points="-3604.134,1132.879 
	-3597.007,1139.086 -3597.007,1126.67 "/>
<polygon fill="#FFFFFF" stroke="#3E3A39" stroke-width="0.7" stroke-miterlimit="10" points="-3604.134,1183.276 
	-3597.007,1189.485 -3597.007,1177.069 "/>
<polygon fill="#FFFFFF" stroke="#3E3A39" stroke-width="0.7" stroke-miterlimit="10" points="-3604.134,1233.674 
	-3597.007,1239.883 -3597.007,1227.465 "/>
<polygon fill="#FFFFFF" stroke="#3E3A39" stroke-width="0.7" stroke-miterlimit="10" points="-3604.134,1284.072 
	-3597.007,1290.281 -3597.007,1277.863 "/>
<polygon fill="#FFFFFF" stroke="#3E3A39" stroke-width="0.7" stroke-miterlimit="10" points="-3604.134,1334.469 
	-3597.007,1340.677 -3597.007,1328.26 "/>
<polygon fill="#FFFFFF" stroke="#3E3A39" stroke-width="0.7" stroke-miterlimit="10" points="-3604.134,1384.868 
	-3597.007,1391.075 -3597.007,1378.659 "/>
<polygon fill="#FFFFFF" stroke="#3E3A39" stroke-width="0.7" stroke-miterlimit="10" points="-3604.134,1435.264 
	-3597.007,1441.471 -3597.007,1429.055 "/>
<polygon fill="#FFFFFF" stroke="#3E3A39" stroke-width="0.7" stroke-miterlimit="10" points="-3604.134,1485.663 -3597.007,1491.87 
	-3597.007,1479.454 "/>
<polygon fill="#FFFFFF" stroke="#3E3A39" stroke-width="0.7" stroke-miterlimit="10" points="-3604.134,1536.057 
	-3597.007,1542.266 -3597.007,1529.85 "/>
<polygon fill="#FFFFFF" stroke="#3E3A39" stroke-width="0.7" stroke-miterlimit="10" points="-3604.134,1586.456 
	-3597.007,1592.665 -3597.007,1580.249 "/>
<polygon fill="#FFFFFF" stroke="#3E3A39" stroke-width="0.7" stroke-miterlimit="10" points="-3604.134,1636.854 
	-3597.007,1643.061 -3597.007,1630.645 "/>
<polygon fill="#FFFFFF" stroke="#3E3A39" stroke-width="0.7" stroke-miterlimit="10" points="-3604.134,1687.251 -3597.007,1693.46 
	-3597.007,1681.044 "/>
<polygon fill="#FFFFFF" stroke="#3E3A39" stroke-width="0.7" stroke-miterlimit="10" points="-3604.134,1737.647 
	-3597.007,1743.856 -3597.007,1731.44 "/>
<polygon fill="#FFFFFF" stroke="#3E3A39" stroke-width="0.7" stroke-miterlimit="10" points="-3604.134,1788.047 
	-3597.007,1794.254 -3597.007,1781.838 "/>
<polygon fill="#FFFFFF" stroke="#3E3A39" stroke-width="0.7" stroke-miterlimit="10" points="-3604.134,1838.444 
	-3597.007,1844.652 -3597.007,1832.236 "/>
<polygon fill="#FFFFFF" stroke="#3E3A39" stroke-width="0.7" stroke-miterlimit="10" points="-3604.134,1888.841 
	-3597.007,1895.049 -3597.007,1882.633 "/>
<polygon fill="#FFFFFF" stroke="#3E3A39" stroke-width="0.7" stroke-miterlimit="10" points="-3604.134,1939.239 
	-3597.007,1945.448 -3597.007,1933.032 "/>
<polygon fill="#FFFFFF" stroke="#3E3A39" stroke-width="0.7" stroke-miterlimit="10" points="-3604.134,1989.636 
	-3597.007,1995.845 -3597.007,1983.427 "/>
<polygon fill="#FFFFFF" stroke="#3E3A39" stroke-width="0.7" stroke-miterlimit="10" points="-3604.134,2040.034 
	-3597.007,2046.243 -3597.007,2033.825 "/>
<polygon fill="#FFFFFF" stroke="#3E3A39" stroke-width="0.7" stroke-miterlimit="10" points="-3604.134,2090.431 -3597.007,2096.64 
	-3597.007,2084.222 "/>
<polygon fill="#FFFFFF" stroke="#3E3A39" stroke-width="0.7" stroke-miterlimit="10" points="-3604.134,2140.831 
	-3597.007,2147.038 -3597.007,2134.622 "/>
<polygon fill="#FFFFFF" stroke="#3E3A39" stroke-width="0.7" stroke-miterlimit="10" points="-3604.134,2191.227 
	-3597.007,2197.434 -3597.007,2185.018 "/>
<polygon fill="#FFFFFF" stroke="#3E3A39" stroke-width="0.7" stroke-miterlimit="10" points="-3604.134,2241.626 
	-3597.007,2247.833 -3597.007,2235.417 "/>
<polygon fill="#FFFFFF" stroke="#3E3A39" stroke-width="0.7" stroke-miterlimit="10" points="-3604.134,2292.02 -3597.007,2298.229 
	-3597.007,2285.813 "/>
<polygon fill="#FFFFFF" stroke="#3E3A39" stroke-width="0.7" stroke-miterlimit="10" points="-3604.134,2342.419 
	-3597.007,2348.627 -3597.007,2336.211 "/>
<polygon fill="#FFFFFF" stroke="#3E3A39" stroke-width="0.7" stroke-miterlimit="10" points="-3604.134,2392.817 
	-3597.007,2399.024 -3597.007,2386.608 "/>
<rect x="-4164.373" y="235.82" fill="#221613" width="10.25" height="12.6"/>
<polygon fill="#221613" points="-4154.123,257.278 -4154.123,252.624 -4164.373,252.624 -4164.373,265.224 -4154.123,265.224 
	-4154.123,260.57 -4152.437,260.57 -4152.437,257.278 "/>
<rect x="-4164.373" y="269.428" fill="#221613" width="10.25" height="12.6"/>
<rect x="-4164.373" y="286.232" fill="#221613" width="10.25" height="12.6"/>
<text transform="matrix(0.9276 0 0 1 -4202.5864 267.5876)" fill="#FFFFFF" stroke="#3E3A39" stroke-width="0.7002" stroke-miterlimit="10" font-family="'MicrosoftYaHei'" font-size="21">43</text>
<polygon fill="#FFFFFF" stroke="#3E3A39" stroke-width="0.7" stroke-miterlimit="10" points="-4169.853,259.303 -4176.979,265.511 
	-4176.979,253.094 "/>
<rect x="-3619.343" y="235.82" fill="#221613" width="10.25" height="12.6"/>
<polygon fill="#221613" points="-3619.343,257.278 -3619.343,252.624 -3609.093,252.624 -3609.093,265.224 -3619.343,265.224 
	-3619.343,260.57 -3621.03,260.57 -3621.03,257.278 "/>
<rect x="-3619.343" y="269.428" fill="#221613" width="10.25" height="12.6"/>
<rect x="-3619.343" y="286.232" fill="#221613" width="10.25" height="12.6"/>
<text transform="matrix(0.9276 0 0 1 -3595.8672 267.4626)" fill="#FFFFFF" stroke="#3E3A39" stroke-width="0.7002" stroke-miterlimit="10" font-family="'MicrosoftYaHei'" font-size="21">43</text>
<polygon fill="#FFFFFF" stroke="#3E3A39" stroke-width="0.7" stroke-miterlimit="10" points="-3604.134,259.303 -3597.007,265.511 
	-3597.007,253.094 "/>
<rect x="-4164.373" y="168.604" fill="#221613" width="10.25" height="12.6"/>
<polygon fill="#221613" points="-4154.123,190.062 -4154.123,185.408 -4164.373,185.408 -4164.373,198.009 -4154.123,198.009 
	-4154.123,193.354 -4152.437,193.354 -4152.437,190.062 "/>
<rect x="-4164.373" y="202.213" fill="#221613" width="10.25" height="12.6"/>
<rect x="-4164.373" y="219.016" fill="#221613" width="10.25" height="12.6"/>
<text transform="matrix(0.9276 0 0 1 -4202.5864 200.3718)" fill="#FFFFFF" stroke="#3E3A39" stroke-width="0.7002" stroke-miterlimit="10" font-family="'MicrosoftYaHei'" font-size="21">44</text>
<polygon fill="#FFFFFF" stroke="#3E3A39" stroke-width="0.7" stroke-miterlimit="10" points="-4169.853,192.088 -4176.979,198.296 
	-4176.979,185.879 "/>
<rect x="-3619.343" y="168.604" fill="#221613" width="10.25" height="12.6"/>
<polygon fill="#221613" points="-3619.343,190.062 -3619.343,185.408 -3609.093,185.408 -3609.093,198.009 -3619.343,198.009 
	-3619.343,193.354 -3621.03,193.354 -3621.03,190.062 "/>
<rect x="-3619.343" y="202.213" fill="#221613" width="10.25" height="12.6"/>
<rect x="-3619.343" y="219.016" fill="#221613" width="10.25" height="12.6"/>
<text transform="matrix(0.9276 0 0 1 -3595.8672 200.2468)" fill="#FFFFFF" stroke="#3E3A39" stroke-width="0.7002" stroke-miterlimit="10" font-family="'MicrosoftYaHei'" font-size="21">44</text>
<polygon fill="#FFFFFF" stroke="#3E3A39" stroke-width="0.7" stroke-miterlimit="10" points="-3604.134,192.088 -3597.007,198.296 
	-3597.007,185.879 "/>
<rect x="-4164.373" y="101.388" fill="#221613" width="10.25" height="12.6"/>
<polygon fill="#221613" points="-4154.123,122.846 -4154.123,118.192 -4164.373,118.192 -4164.373,130.793 -4154.123,130.793 
	-4154.123,126.138 -4152.437,126.138 -4152.437,122.846 "/>
<rect x="-4164.373" y="134.997" fill="#221613" width="10.25" height="12.6"/>
<rect x="-4164.373" y="151.801" fill="#221613" width="10.25" height="12.6"/>
<text transform="matrix(0.9276 0 0 1 -4202.5864 133.156)" fill="#FFFFFF" stroke="#3E3A39" stroke-width="0.7002" stroke-miterlimit="10" font-family="'MicrosoftYaHei'" font-size="21">45</text>
<polygon fill="#FFFFFF" stroke="#3E3A39" stroke-width="0.7" stroke-miterlimit="10" points="-4169.853,124.872 -4176.979,131.08 
	-4176.979,118.663 "/>
<rect x="-3619.343" y="101.388" fill="#221613" width="10.25" height="12.6"/>
<polygon fill="#221613" points="-3619.343,122.846 -3619.343,118.192 -3609.093,118.192 -3609.093,130.793 -3619.343,130.793 
	-3619.343,126.138 -3621.03,126.138 -3621.03,122.846 "/>
<rect x="-3619.343" y="134.997" fill="#221613" width="10.25" height="12.6"/>
<rect x="-3619.343" y="151.801" fill="#221613" width="10.25" height="12.6"/>
<text transform="matrix(0.9276 0 0 1 -3595.8672 133.031)" fill="#FFFFFF" stroke="#3E3A39" stroke-width="0.7002" stroke-miterlimit="10" font-family="'MicrosoftYaHei'" font-size="21">45</text>
<polygon fill="#FFFFFF" stroke="#3E3A39" stroke-width="0.7" stroke-miterlimit="10" points="-3604.134,124.872 -3597.007,131.08 
	-3597.007,118.663 "/>
<rect x="-4164.373" y="34.173" fill="#221613" width="10.25" height="12.6"/>
<polygon fill="#221613" points="-4154.123,55.631 -4154.123,50.976 -4164.373,50.976 -4164.373,63.577 -4154.123,63.577 
	-4154.123,58.923 -4152.437,58.923 -4152.437,55.631 "/>
<rect x="-4164.373" y="67.781" fill="#221613" width="10.25" height="12.6"/>
<rect x="-4164.373" y="84.585" fill="#221613" width="10.25" height="12.6"/>
<text transform="matrix(0.9276 0 0 1 -4202.5864 65.9402)" fill="#FFFFFF" stroke="#3E3A39" stroke-width="0.7002" stroke-miterlimit="10" font-family="'MicrosoftYaHei'" font-size="21">46</text>
<polygon fill="#FFFFFF" stroke="#3E3A39" stroke-width="0.7" stroke-miterlimit="10" points="-4169.853,57.656 -4176.979,63.864 
	-4176.979,51.447 "/>
<rect x="-3619.343" y="34.173" fill="#221613" width="10.25" height="12.6"/>
<polygon fill="#221613" points="-3619.343,55.631 -3619.343,50.976 -3609.093,50.976 -3609.093,63.577 -3619.343,63.577 
	-3619.343,58.923 -3621.03,58.923 -3621.03,55.631 "/>
<rect x="-3619.343" y="67.781" fill="#221613" width="10.25" height="12.6"/>
<rect x="-3619.343" y="84.585" fill="#221613" width="10.25" height="12.6"/>
<text transform="matrix(0.9276 0 0 1 -3595.8672 65.8152)" fill="#FFFFFF" stroke="#3E3A39" stroke-width="0.7002" stroke-miterlimit="10" font-family="'MicrosoftYaHei'" font-size="21">46</text>
<polygon fill="#FFFFFF" stroke="#3E3A39" stroke-width="0.7" stroke-miterlimit="10" points="-3604.134,57.656 -3597.007,63.864 
	-3597.007,51.447 "/>
</svg>
