<?xml version="1.0" encoding="utf-8"?>
<!-- Generator: Adobe Illustrator 16.0.0, SVG Export Plug-In . SVG Version: 6.00 Build 0)  -->
<!DOCTYPE svg PUBLIC "-//W3C//DTD SVG 1.1//EN" "http://www.w3.org/Graphics/SVG/1.1/DTD/svg11.dtd">
<svg version="1.1" id="图层_1" xmlns="http://www.w3.org/2000/svg" xmlns:xlink="http://www.w3.org/1999/xlink" x="0px" y="0px"
	 width="680.314px" height="2267.717px" viewBox="-706.632 226.106 680.314 2267.717"
	 enable-background="new -706.632 226.106 680.314 2267.717" xml:space="preserve">
<linearGradient id="SVGID_1_" gradientUnits="userSpaceOnUse" x1="-829.9163" y1="1309.2888" x2="-149.6018" y2="1309.2888" gradientTransform="matrix(1 0 0 -1 123.2847 2669.2534)">
	<stop  offset="0" style="stop-color:#808080"/>
	<stop  offset="0.0895" style="stop-color:#3E3A39"/>
	<stop  offset="0.9181" style="stop-color:#3E3A39"/>
	<stop  offset="1" style="stop-color:#808080"/>
</linearGradient>
<path fill="url(#SVGID_1_)" d="M-706.632,226.106v2267.717h680.314V226.106H-706.632z M-111.357,2418.36h-510.235V301.563h510.235
	V2418.36z"/>
<g>
	<rect x="-644.373" y="303.036" fill="#221613" width="10.25" height="12.6"/>
	<polygon fill="#221613" points="-634.123,324.494 -634.123,319.84 -644.373,319.84 -644.373,332.44 -634.123,332.44 
		-634.123,327.786 -632.436,327.786 -632.436,324.494 	"/>
	<rect x="-644.373" y="336.644" fill="#221613" width="10.25" height="12.6"/>
	<rect x="-644.373" y="353.448" fill="#221613" width="10.25" height="12.6"/>
	<polygon fill="#221613" points="-634.123,374.906 -634.123,370.252 -644.373,370.252 -644.373,382.851 -634.123,382.851 
		-634.123,378.198 -632.436,378.198 -632.436,374.906 	"/>
	<rect x="-644.373" y="387.056" fill="#221613" width="10.25" height="12.6"/>
	<rect x="-644.373" y="403.86" fill="#221613" width="10.25" height="12.6"/>
	<polygon fill="#221613" points="-634.123,425.317 -634.123,420.664 -644.373,420.664 -644.373,433.262 -634.123,433.262 
		-634.123,428.609 -632.436,428.609 -632.436,425.317 	"/>
	<rect x="-644.373" y="437.467" fill="#221613" width="10.25" height="12.601"/>
	<rect x="-644.373" y="454.272" fill="#221613" width="10.25" height="12.6"/>
	<polygon fill="#221613" points="-634.123,475.729 -634.123,471.075 -644.373,471.075 -644.373,483.675 -634.123,483.675 
		-634.123,479.021 -632.436,479.021 -632.436,475.729 	"/>
	<rect x="-644.373" y="487.879" fill="#221613" width="10.25" height="12.601"/>
	<rect x="-644.373" y="504.683" fill="#221613" width="10.25" height="12.6"/>
	<polygon fill="#221613" points="-634.123,526.14 -634.123,521.487 -644.373,521.487 -644.373,534.086 -634.123,534.086 
		-634.123,529.432 -632.436,529.432 -632.436,526.14 	"/>
	<rect x="-644.373" y="538.291" fill="#221613" width="10.25" height="12.601"/>
	<rect x="-644.373" y="555.094" fill="#221613" width="10.25" height="12.601"/>
	<polygon fill="#221613" points="-634.123,576.552 -634.123,571.899 -644.373,571.899 -644.373,584.499 -634.123,584.499 
		-634.123,579.844 -632.436,579.844 -632.436,576.552 	"/>
	<rect x="-644.373" y="588.703" fill="#221613" width="10.25" height="12.6"/>
	<rect x="-644.373" y="605.506" fill="#221613" width="10.25" height="12.601"/>
	<polygon fill="#221613" points="-634.123,626.964 -634.123,622.311 -644.373,622.311 -644.373,634.911 -634.123,634.911 
		-634.123,630.257 -632.436,630.257 -632.436,626.964 	"/>
	<rect x="-644.373" y="639.115" fill="#221613" width="10.25" height="12.6"/>
	<rect x="-644.373" y="655.919" fill="#221613" width="10.25" height="12.6"/>
	<polygon fill="#221613" points="-634.123,677.376 -634.123,672.721 -644.373,672.721 -644.373,685.322 -634.123,685.322 
		-634.123,680.668 -632.436,680.668 -632.436,677.376 	"/>
	<rect x="-644.373" y="689.526" fill="#221613" width="10.25" height="12.6"/>
	<rect x="-644.373" y="706.331" fill="#221613" width="10.25" height="12.6"/>
	<polygon fill="#221613" points="-634.123,727.788 -634.123,723.134 -644.373,723.134 -644.373,735.734 -634.123,735.734 
		-634.123,731.08 -632.436,731.08 -632.436,727.788 	"/>
	<rect x="-644.373" y="739.937" fill="#221613" width="10.25" height="12.601"/>
	<rect x="-644.373" y="756.742" fill="#221613" width="10.25" height="12.6"/>
	<polygon fill="#221613" points="-634.123,778.2 -634.123,773.546 -644.373,773.546 -644.373,786.145 -634.123,786.145 
		-634.123,781.493 -632.436,781.493 -632.436,778.2 	"/>
	<polygon fill="#221613" points="-634.123,828.61 -634.123,823.958 -644.373,823.958 -644.373,836.556 -634.123,836.556 
		-634.123,831.903 -632.436,831.903 -632.436,828.61 	"/>
	<polygon fill="#221613" points="-634.123,879.022 -634.123,874.37 -644.373,874.37 -644.373,886.969 -634.123,886.969 
		-634.123,882.315 -632.436,882.315 -632.436,879.022 	"/>
	<rect x="-644.373" y="790.349" fill="#221613" width="10.25" height="12.601"/>
	<rect x="-644.373" y="807.154" fill="#221613" width="10.25" height="12.6"/>
	<rect x="-644.373" y="840.761" fill="#221613" width="10.25" height="12.601"/>
	<rect x="-644.373" y="857.566" fill="#221613" width="10.25" height="12.6"/>
	<rect x="-644.373" y="891.173" fill="#221613" width="10.25" height="12.6"/>
	<rect x="-644.373" y="907.976" fill="#221613" width="10.25" height="12.601"/>
	<polygon fill="#221613" points="-634.123,929.433 -634.123,924.782 -644.373,924.782 -644.373,937.381 -634.123,937.381 
		-634.123,932.726 -632.436,932.726 -632.436,929.433 	"/>
	<rect x="-644.373" y="941.585" fill="#221613" width="10.25" height="12.6"/>
	<rect x="-644.373" y="958.388" fill="#221613" width="10.25" height="12.601"/>
	<polygon fill="#221613" points="-634.123,979.845 -634.123,975.193 -644.373,975.193 -644.373,987.793 -634.123,987.793 
		-634.123,983.137 -632.436,983.137 -632.436,979.845 	"/>
	<rect x="-644.373" y="991.997" fill="#221613" width="10.25" height="12.6"/>
	<rect x="-644.373" y="1008.801" fill="#221613" width="10.25" height="12.601"/>
	<polygon fill="#221613" points="-634.123,1030.258 -634.123,1025.604 -644.373,1025.604 -644.373,1038.205 -634.123,1038.205 
		-634.123,1033.551 -632.436,1033.551 -632.436,1030.258 	"/>
	<polygon fill="#221613" points="-634.123,1080.67 -634.123,1076.016 -644.373,1076.016 -644.373,1088.617 -634.123,1088.617 
		-634.123,1083.963 -632.436,1083.963 -632.436,1080.67 	"/>
	<rect x="-644.373" y="1042.409" fill="#221613" width="10.25" height="12.6"/>
	<rect x="-644.373" y="1059.212" fill="#221613" width="10.25" height="12.6"/>
	<rect x="-644.373" y="1092.821" fill="#221613" width="10.25" height="12.6"/>
	<rect x="-644.373" y="1109.625" fill="#221613" width="10.25" height="12.6"/>
	<rect x="-644.373" y="1143.233" fill="#221613" width="10.25" height="12.6"/>
	<rect x="-644.373" y="1160.037" fill="#221613" width="10.25" height="12.599"/>
	<polygon fill="#221613" points="-634.123,1181.494 -634.123,1176.84 -644.373,1176.84 -644.373,1189.44 -634.123,1189.44 
		-634.123,1184.787 -632.436,1184.787 -632.436,1181.494 	"/>
	<polygon fill="#221613" points="-634.123,1131.082 -634.123,1126.427 -644.373,1126.427 -644.373,1139.028 -634.123,1139.028 
		-634.123,1134.375 -632.436,1134.375 -632.436,1131.082 	"/>
	<rect x="-644.373" y="1193.643" fill="#221613" width="10.25" height="12.601"/>
	<rect x="-644.373" y="1210.448" fill="#221613" width="10.25" height="12.6"/>
	<polygon fill="#221613" points="-634.123,1231.905 -634.123,1227.252 -644.373,1227.252 -644.373,1239.851 -634.123,1239.851 
		-634.123,1235.198 -632.436,1235.198 -632.436,1231.905 	"/>
	<rect x="-644.373" y="1244.055" fill="#221613" width="10.25" height="12.601"/>
	<rect x="-644.373" y="1260.86" fill="#221613" width="10.25" height="12.6"/>
	<polygon fill="#221613" points="-634.123,1282.315 -634.123,1277.664 -644.373,1277.664 -644.373,1290.262 -634.123,1290.262 
		-634.123,1285.609 -632.436,1285.609 -632.436,1282.315 	"/>
	<polygon fill="#221613" points="-634.123,1332.727 -634.123,1328.076 -644.373,1328.076 -644.373,1340.675 -634.123,1340.675 
		-634.123,1336.02 -632.436,1336.02 -632.436,1332.727 	"/>
	<rect x="-644.373" y="1294.467" fill="#221613" width="10.25" height="12.601"/>
	<rect x="-644.373" y="1311.272" fill="#221613" width="10.25" height="12.6"/>
	<rect x="-644.373" y="1344.879" fill="#221613" width="10.25" height="12.6"/>
	<rect x="-644.373" y="1361.682" fill="#221613" width="10.25" height="12.601"/>
	<rect x="-644.373" y="1395.292" fill="#221613" width="10.25" height="12.6"/>
	<rect x="-644.373" y="1412.094" fill="#221613" width="10.25" height="12.601"/>
	<polygon fill="#221613" points="-634.123,1433.551 -634.123,1428.899 -644.373,1428.899 -644.373,1441.499 -634.123,1441.499 
		-634.123,1436.844 -632.436,1436.844 -632.436,1433.551 	"/>
	<polygon fill="#221613" points="-634.123,1383.138 -634.123,1378.487 -644.373,1378.487 -644.373,1391.086 -634.123,1391.086 
		-634.123,1386.431 -632.436,1386.431 -632.436,1383.138 	"/>
	<rect x="-644.373" y="1445.704" fill="#221613" width="10.25" height="12.6"/>
	<rect x="-644.373" y="1462.507" fill="#221613" width="10.25" height="12.6"/>
	<polygon fill="#221613" points="-634.123,1483.964 -634.123,1479.31 -644.373,1479.31 -644.373,1491.911 -634.123,1491.911 
		-634.123,1487.256 -632.436,1487.256 -632.436,1483.964 	"/>
	<rect x="-644.373" y="1496.115" fill="#221613" width="10.25" height="12.6"/>
	<rect x="-644.373" y="1512.919" fill="#221613" width="10.25" height="12.6"/>
	<polygon fill="#221613" points="-634.123,1534.376 -634.123,1529.722 -644.373,1529.722 -644.373,1542.323 -634.123,1542.323 
		-634.123,1537.669 -632.436,1537.669 -632.436,1534.376 	"/>
	<polygon fill="#221613" points="-634.123,1584.788 -634.123,1580.134 -644.373,1580.134 -644.373,1592.734 -634.123,1592.734 
		-634.123,1588.081 -632.436,1588.081 -632.436,1584.788 	"/>
	<rect x="-644.373" y="1546.527" fill="#221613" width="10.25" height="12.6"/>
	<rect x="-644.373" y="1563.331" fill="#221613" width="10.25" height="12.6"/>
	<rect x="-644.373" y="1596.938" fill="#221613" width="10.25" height="12.6"/>
	<rect x="-644.373" y="1613.743" fill="#221613" width="10.25" height="12.6"/>
	<rect x="-644.373" y="1647.349" fill="#221613" width="10.25" height="12.601"/>
	<rect x="-644.373" y="1664.154" fill="#221613" width="10.25" height="12.6"/>
	<polygon fill="#221613" points="-634.123,1685.612 -634.123,1680.958 -644.373,1680.958 -644.373,1693.556 -634.123,1693.556 
		-634.123,1688.905 -632.436,1688.905 -632.436,1685.612 	"/>
	<polygon fill="#221613" points="-634.123,1635.2 -634.123,1630.546 -644.373,1630.546 -644.373,1643.145 -634.123,1643.145 
		-634.123,1638.493 -632.436,1638.493 -632.436,1635.2 	"/>
	<rect x="-644.373" y="1697.761" fill="#221613" width="10.25" height="12.601"/>
	<rect x="-644.373" y="1714.565" fill="#221613" width="10.25" height="12.601"/>
	<polygon fill="#221613" points="-634.123,1736.022 -634.123,1731.37 -644.373,1731.37 -644.373,1743.969 -634.123,1743.969 
		-634.123,1739.315 -632.436,1739.315 -632.436,1736.022 	"/>
	<rect x="-644.373" y="1748.173" fill="#221613" width="10.25" height="12.6"/>
	<rect x="-644.373" y="1764.977" fill="#221613" width="10.25" height="12.601"/>
	<polygon fill="#221613" points="-634.123,1786.434 -634.123,1781.782 -644.373,1781.782 -644.373,1794.381 -634.123,1794.381 
		-634.123,1789.727 -632.436,1789.727 -632.436,1786.434 	"/>
	<polygon fill="#221613" points="-634.123,1836.845 -634.123,1832.194 -644.373,1832.194 -644.373,1844.794 -634.123,1844.794 
		-634.123,1840.138 -632.436,1840.138 -632.436,1836.845 	"/>
	<rect x="-644.373" y="1798.585" fill="#221613" width="10.25" height="12.6"/>
	<rect x="-644.373" y="1815.388" fill="#221613" width="10.25" height="12.601"/>
	<rect x="-644.373" y="1848.998" fill="#221613" width="10.25" height="12.6"/>
	<rect x="-644.373" y="1865.801" fill="#221613" width="10.25" height="12.601"/>
	<rect x="-644.373" y="1899.409" fill="#221613" width="10.25" height="12.6"/>
	<rect x="-644.373" y="1916.213" fill="#221613" width="10.25" height="12.601"/>
	<polygon fill="#221613" points="-634.123,1937.67 -634.123,1933.016 -644.373,1933.016 -644.373,1945.617 -634.123,1945.617 
		-634.123,1940.963 -632.436,1940.963 -632.436,1937.67 	"/>
	<polygon fill="#221613" points="-634.123,1887.258 -634.123,1882.604 -644.373,1882.604 -644.373,1895.205 -634.123,1895.205 
		-634.123,1890.551 -632.436,1890.551 -632.436,1887.258 	"/>
	<rect x="-644.373" y="1949.821" fill="#221613" width="10.25" height="12.6"/>
	<rect x="-644.373" y="1966.625" fill="#221613" width="10.25" height="12.6"/>
	<polygon fill="#221613" points="-634.123,1988.083 -634.123,1983.427 -644.373,1983.427 -644.373,1996.028 -634.123,1996.028 
		-634.123,1991.374 -632.436,1991.374 -632.436,1988.083 	"/>
	<rect x="-644.373" y="2000.233" fill="#221613" width="10.25" height="12.6"/>
	<rect x="-644.373" y="2017.037" fill="#221613" width="10.25" height="12.6"/>
	<polygon fill="#221613" points="-634.123,2038.494 -634.123,2033.84 -644.373,2033.84 -644.373,2046.44 -634.123,2046.44 
		-634.123,2041.787 -632.436,2041.787 -632.436,2038.494 	"/>
	<polygon fill="#221613" points="-634.123,2088.906 -634.123,2084.252 -644.373,2084.252 -644.373,2096.851 -634.123,2096.851 
		-634.123,2092.199 -632.436,2092.199 -632.436,2088.906 	"/>
	<rect x="-644.373" y="2050.643" fill="#221613" width="10.25" height="12.601"/>
	<rect x="-644.373" y="2067.449" fill="#221613" width="10.25" height="12.6"/>
	<rect x="-644.373" y="2101.055" fill="#221613" width="10.25" height="12.601"/>
	<rect x="-644.373" y="2117.86" fill="#221613" width="10.25" height="12.6"/>
	<rect x="-644.373" y="2151.468" fill="#221613" width="10.25" height="12.601"/>
	<rect x="-644.373" y="2168.272" fill="#221613" width="10.25" height="12.6"/>
	<polygon fill="#221613" points="-634.123,2189.729 -634.123,2185.076 -644.373,2185.076 -644.373,2197.675 -634.123,2197.675 
		-634.123,2193.022 -632.436,2193.022 -632.436,2189.729 	"/>
	<polygon fill="#221613" points="-634.123,2139.317 -634.123,2134.665 -644.373,2134.665 -644.373,2147.263 -634.123,2147.263 
		-634.123,2142.61 -632.436,2142.61 -632.436,2139.317 	"/>
	<rect x="-644.373" y="2201.879" fill="#221613" width="10.25" height="12.6"/>
	<rect x="-644.373" y="2218.683" fill="#221613" width="10.25" height="12.601"/>
	<polygon fill="#221613" points="-634.123,2240.139 -634.123,2235.488 -644.373,2235.488 -644.373,2248.087 -634.123,2248.087 
		-634.123,2243.432 -632.436,2243.432 -632.436,2240.139 	"/>
	<rect x="-644.373" y="2252.292" fill="#221613" width="10.25" height="12.6"/>
	<rect x="-644.373" y="2269.094" fill="#221613" width="10.25" height="12.601"/>
	<polygon fill="#221613" points="-634.123,2290.552 -634.123,2285.899 -644.373,2285.899 -644.373,2298.499 -634.123,2298.499 
		-634.123,2293.845 -632.436,2293.845 -632.436,2290.552 	"/>
	<polygon fill="#221613" points="-634.123,2340.964 -634.123,2336.311 -644.373,2336.311 -644.373,2348.911 -634.123,2348.911 
		-634.123,2344.257 -632.436,2344.257 -632.436,2340.964 	"/>
	<rect x="-644.373" y="2302.704" fill="#221613" width="10.25" height="12.6"/>
	<rect x="-644.373" y="2319.507" fill="#221613" width="10.25" height="12.6"/>
	<rect x="-644.373" y="2353.115" fill="#221613" width="10.25" height="12.6"/>
	<rect x="-644.373" y="2369.919" fill="#221613" width="10.25" height="12.6"/>
	<rect x="-644.373" y="2403.526" fill="#221613" width="10.25" height="12.601"/>
	<polygon fill="#221613" points="-634.123,2391.377 -634.123,2386.722 -644.373,2386.722 -644.373,2399.323 -634.123,2399.323 
		-634.123,2394.669 -632.436,2394.669 -632.436,2391.377 	"/>
</g>
<g>
	<text transform="matrix(0.9276 0 0 1 -682.5862 334.8035)" fill="#FFFFFF" font-family="'MicrosoftYaHei'" font-size="21">42</text>
	
		<text transform="matrix(0.9276 0 0 1 -682.5862 334.8035)" fill="none" stroke="#3E3A39" stroke-width="0.7" stroke-miterlimit="10" font-family="'MicrosoftYaHei'" font-size="21">42</text>
	<text transform="matrix(0.9276 0 0 1 -682.5862 385.2019)" fill="#FFFFFF" font-family="'MicrosoftYaHei'" font-size="21">41</text>
	
		<text transform="matrix(0.9276 0 0 1 -682.5862 385.2019)" fill="none" stroke="#3E3A39" stroke-width="0.7" stroke-miterlimit="10" font-family="'MicrosoftYaHei'" font-size="21">41</text>
	<text transform="matrix(0.9276 0 0 1 -682.5862 435.5984)" fill="#FFFFFF" font-family="'MicrosoftYaHei'" font-size="21">40</text>
	
		<text transform="matrix(0.9276 0 0 1 -682.5862 435.5984)" fill="none" stroke="#3E3A39" stroke-width="0.7" stroke-miterlimit="10" font-family="'MicrosoftYaHei'" font-size="21">40</text>
	<text transform="matrix(0.9276 0 0 1 -682.5862 485.9968)" fill="#FFFFFF" font-family="'MicrosoftYaHei'" font-size="21">39</text>
	
		<text transform="matrix(0.9276 0 0 1 -682.5862 485.9968)" fill="none" stroke="#3E3A39" stroke-width="0.7" stroke-miterlimit="10" font-family="'MicrosoftYaHei'" font-size="21">39</text>
	<text transform="matrix(0.9276 0 0 1 -682.5862 536.3933)" fill="#FFFFFF" font-family="'MicrosoftYaHei'" font-size="21">38</text>
	
		<text transform="matrix(0.9276 0 0 1 -682.5862 536.3933)" fill="none" stroke="#3E3A39" stroke-width="0.7" stroke-miterlimit="10" font-family="'MicrosoftYaHei'" font-size="21">38</text>
	<text transform="matrix(0.9276 0 0 1 -682.5862 586.7908)" fill="#FFFFFF" font-family="'MicrosoftYaHei'" font-size="21">37</text>
	
		<text transform="matrix(0.9276 0 0 1 -682.5862 586.7908)" fill="none" stroke="#3E3A39" stroke-width="0.7" stroke-miterlimit="10" font-family="'MicrosoftYaHei'" font-size="21">37</text>
	<text transform="matrix(0.9276 0 0 1 -682.5862 637.1902)" fill="#FFFFFF" font-family="'MicrosoftYaHei'" font-size="21">36</text>
	
		<text transform="matrix(0.9276 0 0 1 -682.5862 637.1902)" fill="none" stroke="#3E3A39" stroke-width="0.7" stroke-miterlimit="10" font-family="'MicrosoftYaHei'" font-size="21">36</text>
	<text transform="matrix(0.9276 0 0 1 -682.5862 687.5867)" fill="#FFFFFF" font-family="'MicrosoftYaHei'" font-size="21">35</text>
	
		<text transform="matrix(0.9276 0 0 1 -682.5862 687.5867)" fill="none" stroke="#3E3A39" stroke-width="0.7" stroke-miterlimit="10" font-family="'MicrosoftYaHei'" font-size="21">35</text>
	<text transform="matrix(0.9276 0 0 1 -682.5862 737.9851)" fill="#FFFFFF" font-family="'MicrosoftYaHei'" font-size="21">34</text>
	
		<text transform="matrix(0.9276 0 0 1 -682.5862 737.9851)" fill="none" stroke="#3E3A39" stroke-width="0.7" stroke-miterlimit="10" font-family="'MicrosoftYaHei'" font-size="21">34</text>
	<text transform="matrix(0.9276 0 0 1 -682.5862 788.3816)" fill="#FFFFFF" font-family="'MicrosoftYaHei'" font-size="21">33</text>
	
		<text transform="matrix(0.9276 0 0 1 -682.5862 788.3816)" fill="none" stroke="#3E3A39" stroke-width="0.7" stroke-miterlimit="10" font-family="'MicrosoftYaHei'" font-size="21">33</text>
	<text transform="matrix(0.9276 0 0 1 -682.5862 838.78)" fill="#FFFFFF" font-family="'MicrosoftYaHei'" font-size="21">32</text>
	
		<text transform="matrix(0.9276 0 0 1 -682.5862 838.78)" fill="none" stroke="#3E3A39" stroke-width="0.7" stroke-miterlimit="10" font-family="'MicrosoftYaHei'" font-size="21">32</text>
	<text transform="matrix(0.9276 0 0 1 -682.5862 889.1765)" fill="#FFFFFF" font-family="'MicrosoftYaHei'" font-size="21">31</text>
	
		<text transform="matrix(0.9276 0 0 1 -682.5862 889.1765)" fill="none" stroke="#3E3A39" stroke-width="0.7" stroke-miterlimit="10" font-family="'MicrosoftYaHei'" font-size="21">31</text>
	<text transform="matrix(0.9276 0 0 1 -682.5862 939.575)" fill="#FFFFFF" font-family="'MicrosoftYaHei'" font-size="21">30</text>
	
		<text transform="matrix(0.9276 0 0 1 -682.5862 939.575)" fill="none" stroke="#3E3A39" stroke-width="0.7" stroke-miterlimit="10" font-family="'MicrosoftYaHei'" font-size="21">30</text>
	<text transform="matrix(0.9276 0 0 1 -682.5862 989.9705)" fill="#FFFFFF" font-family="'MicrosoftYaHei'" font-size="21">29</text>
	
		<text transform="matrix(0.9276 0 0 1 -682.5862 989.9705)" fill="none" stroke="#3E3A39" stroke-width="0.7" stroke-miterlimit="10" font-family="'MicrosoftYaHei'" font-size="21">29</text>
	<text transform="matrix(0.9276 0 0 1 -682.5862 1040.3699)" fill="#FFFFFF" font-family="'MicrosoftYaHei'" font-size="21">28</text>
	
		<text transform="matrix(0.9276 0 0 1 -682.5862 1040.3699)" fill="none" stroke="#3E3A39" stroke-width="0.7" stroke-miterlimit="10" font-family="'MicrosoftYaHei'" font-size="21">28</text>
	<text transform="matrix(0.9276 0 0 1 -682.5862 1090.7664)" fill="#FFFFFF" font-family="'MicrosoftYaHei'" font-size="21">27</text>
	
		<text transform="matrix(0.9276 0 0 1 -682.5862 1090.7664)" fill="none" stroke="#3E3A39" stroke-width="0.7" stroke-miterlimit="10" font-family="'MicrosoftYaHei'" font-size="21">27</text>
	<text transform="matrix(0.9276 0 0 1 -682.5862 1141.1648)" fill="#FFFFFF" font-family="'MicrosoftYaHei'" font-size="21">26</text>
	
		<text transform="matrix(0.9276 0 0 1 -682.5862 1141.1648)" fill="none" stroke="#3E3A39" stroke-width="0.7" stroke-miterlimit="10" font-family="'MicrosoftYaHei'" font-size="21">26</text>
	<text transform="matrix(0.9276 0 0 1 -682.5862 1191.5623)" fill="#FFFFFF" font-family="'MicrosoftYaHei'" font-size="21">25</text>
	
		<text transform="matrix(0.9276 0 0 1 -682.5862 1191.5623)" fill="none" stroke="#3E3A39" stroke-width="0.7" stroke-miterlimit="10" font-family="'MicrosoftYaHei'" font-size="21">25</text>
	<text transform="matrix(0.9276 0 0 1 -682.5862 1241.9597)" fill="#FFFFFF" font-family="'MicrosoftYaHei'" font-size="21">24</text>
	
		<text transform="matrix(0.9276 0 0 1 -682.5862 1241.9597)" fill="none" stroke="#3E3A39" stroke-width="0.7" stroke-miterlimit="10" font-family="'MicrosoftYaHei'" font-size="21">24</text>
	<text transform="matrix(0.9276 0 0 1 -682.5862 1292.3562)" fill="#FFFFFF" font-family="'MicrosoftYaHei'" font-size="21">23</text>
	
		<text transform="matrix(0.9276 0 0 1 -682.5862 1292.3562)" fill="none" stroke="#3E3A39" stroke-width="0.7" stroke-miterlimit="10" font-family="'MicrosoftYaHei'" font-size="21">23</text>
	<text transform="matrix(0.9276 0 0 1 -682.5862 1342.7546)" fill="#FFFFFF" font-family="'MicrosoftYaHei'" font-size="21">22</text>
	
		<text transform="matrix(0.9276 0 0 1 -682.5862 1342.7546)" fill="none" stroke="#3E3A39" stroke-width="0.7" stroke-miterlimit="10" font-family="'MicrosoftYaHei'" font-size="21">22</text>
	<text transform="matrix(0.9276 0 0 1 -682.5862 1393.1511)" fill="#FFFFFF" font-family="'MicrosoftYaHei'" font-size="21">21</text>
	
		<text transform="matrix(0.9276 0 0 1 -682.5862 1393.1511)" fill="none" stroke="#3E3A39" stroke-width="0.7" stroke-miterlimit="10" font-family="'MicrosoftYaHei'" font-size="21">21</text>
	<text transform="matrix(0.9276 0 0 1 -682.5862 1443.5496)" fill="#FFFFFF" font-family="'MicrosoftYaHei'" font-size="21">20</text>
	
		<text transform="matrix(0.9276 0 0 1 -682.5862 1443.5496)" fill="none" stroke="#3E3A39" stroke-width="0.7" stroke-miterlimit="10" font-family="'MicrosoftYaHei'" font-size="21">20</text>
	<text transform="matrix(0.9276 0 0 1 -682.5862 1493.946)" fill="#FFFFFF" font-family="'MicrosoftYaHei'" font-size="21">19</text>
	
		<text transform="matrix(0.9276 0 0 1 -682.5862 1493.946)" fill="none" stroke="#3E3A39" stroke-width="0.7" stroke-miterlimit="10" font-family="'MicrosoftYaHei'" font-size="21">19</text>
	<text transform="matrix(0.9276 0 0 1 -682.5862 1544.3445)" fill="#FFFFFF" font-family="'MicrosoftYaHei'" font-size="21">18</text>
	
		<text transform="matrix(0.9276 0 0 1 -682.5862 1544.3445)" fill="none" stroke="#3E3A39" stroke-width="0.7" stroke-miterlimit="10" font-family="'MicrosoftYaHei'" font-size="21">18</text>
	<text transform="matrix(0.9276 0 0 1 -682.5862 1594.741)" fill="#FFFFFF" font-family="'MicrosoftYaHei'" font-size="21">17</text>
	
		<text transform="matrix(0.9276 0 0 1 -682.5862 1594.741)" fill="none" stroke="#3E3A39" stroke-width="0.7" stroke-miterlimit="10" font-family="'MicrosoftYaHei'" font-size="21">17</text>
	<text transform="matrix(0.9276 0 0 1 -682.5862 1645.1394)" fill="#FFFFFF" font-family="'MicrosoftYaHei'" font-size="21">16</text>
	
		<text transform="matrix(0.9276 0 0 1 -682.5862 1645.1394)" fill="none" stroke="#3E3A39" stroke-width="0.7" stroke-miterlimit="10" font-family="'MicrosoftYaHei'" font-size="21">16</text>
	<text transform="matrix(0.9276 0 0 1 -682.5862 1695.5378)" fill="#FFFFFF" font-family="'MicrosoftYaHei'" font-size="21">15</text>
	
		<text transform="matrix(0.9276 0 0 1 -682.5862 1695.5378)" fill="none" stroke="#3E3A39" stroke-width="0.7" stroke-miterlimit="10" font-family="'MicrosoftYaHei'" font-size="21">15</text>
	<text transform="matrix(0.9276 0 0 1 -682.5862 1745.9343)" fill="#FFFFFF" font-family="'MicrosoftYaHei'" font-size="21">14</text>
	
		<text transform="matrix(0.9276 0 0 1 -682.5862 1745.9343)" fill="none" stroke="#3E3A39" stroke-width="0.7" stroke-miterlimit="10" font-family="'MicrosoftYaHei'" font-size="21">14</text>
	<text transform="matrix(0.9276 0 0 1 -682.5862 1796.3328)" fill="#FFFFFF" font-family="'MicrosoftYaHei'" font-size="21">13</text>
	
		<text transform="matrix(0.9276 0 0 1 -682.5862 1796.3328)" fill="none" stroke="#3E3A39" stroke-width="0.7" stroke-miterlimit="10" font-family="'MicrosoftYaHei'" font-size="21">13</text>
	<text transform="matrix(0.9276 0 0 1 -682.5862 1846.7292)" fill="#FFFFFF" font-family="'MicrosoftYaHei'" font-size="21">12</text>
	
		<text transform="matrix(0.9276 0 0 1 -682.5862 1846.7292)" fill="none" stroke="#3E3A39" stroke-width="0.7" stroke-miterlimit="10" font-family="'MicrosoftYaHei'" font-size="21">12</text>
	<text transform="matrix(0.9276 0 0 1 -682.5862 1897.1277)" fill="#FFFFFF" font-family="'MicrosoftYaHei'" font-size="21">11</text>
	
		<text transform="matrix(0.9276 0 0 1 -682.5862 1897.1277)" fill="none" stroke="#3E3A39" stroke-width="0.7" stroke-miterlimit="10" font-family="'MicrosoftYaHei'" font-size="21">11</text>
	<text transform="matrix(0.9276 0 0 1 -682.5862 1947.5242)" fill="#FFFFFF" font-family="'MicrosoftYaHei'" font-size="21">10</text>
	
		<text transform="matrix(0.9276 0 0 1 -682.5862 1947.5242)" fill="none" stroke="#3E3A39" stroke-width="0.7" stroke-miterlimit="10" font-family="'MicrosoftYaHei'" font-size="21">10</text>
	<text transform="matrix(0.9276 0 0 1 -670.5735 1997.9226)" fill="#FFFFFF" font-family="'MicrosoftYaHei'" font-size="21">9</text>
	
		<text transform="matrix(0.9276 0 0 1 -670.5735 1997.9226)" fill="none" stroke="#3E3A39" stroke-width="0.7" stroke-miterlimit="10" font-family="'MicrosoftYaHei'" font-size="21">9</text>
	<text transform="matrix(0.9276 0 0 1 -670.5735 2048.3191)" fill="#FFFFFF" font-family="'MicrosoftYaHei'" font-size="21">8</text>
	
		<text transform="matrix(0.9276 0 0 1 -670.5735 2048.3191)" fill="none" stroke="#3E3A39" stroke-width="0.7" stroke-miterlimit="10" font-family="'MicrosoftYaHei'" font-size="21">8</text>
	<text transform="matrix(0.9276 0 0 1 -670.5735 2098.7175)" fill="#FFFFFF" font-family="'MicrosoftYaHei'" font-size="21">7</text>
	
		<text transform="matrix(0.9276 0 0 1 -670.5735 2098.7175)" fill="none" stroke="#3E3A39" stroke-width="0.7" stroke-miterlimit="10" font-family="'MicrosoftYaHei'" font-size="21">7</text>
	<text transform="matrix(0.9276 0 0 1 -670.5735 2149.114)" fill="#FFFFFF" font-family="'MicrosoftYaHei'" font-size="21">6</text>
	
		<text transform="matrix(0.9276 0 0 1 -670.5735 2149.114)" fill="none" stroke="#3E3A39" stroke-width="0.7" stroke-miterlimit="10" font-family="'MicrosoftYaHei'" font-size="21">6</text>
	<text transform="matrix(0.9276 0 0 1 -670.5735 2199.5125)" fill="#FFFFFF" font-family="'MicrosoftYaHei'" font-size="21">5</text>
	
		<text transform="matrix(0.9276 0 0 1 -670.5735 2199.5125)" fill="none" stroke="#3E3A39" stroke-width="0.7" stroke-miterlimit="10" font-family="'MicrosoftYaHei'" font-size="21">5</text>
	<text transform="matrix(0.9276 0 0 1 -670.5735 2249.9089)" fill="#FFFFFF" font-family="'MicrosoftYaHei'" font-size="21">4</text>
	
		<text transform="matrix(0.9276 0 0 1 -670.5735 2249.9089)" fill="none" stroke="#3E3A39" stroke-width="0.7" stroke-miterlimit="10" font-family="'MicrosoftYaHei'" font-size="21">4</text>
	<text transform="matrix(0.9276 0 0 1 -670.5735 2300.3074)" fill="#FFFFFF" font-family="'MicrosoftYaHei'" font-size="21">3</text>
	
		<text transform="matrix(0.9276 0 0 1 -670.5735 2300.3074)" fill="none" stroke="#3E3A39" stroke-width="0.7" stroke-miterlimit="10" font-family="'MicrosoftYaHei'" font-size="21">3</text>
	<text transform="matrix(0.9276 0 0 1 -670.5735 2350.7039)" fill="#FFFFFF" font-family="'MicrosoftYaHei'" font-size="21">2</text>
	
		<text transform="matrix(0.9276 0 0 1 -670.5735 2350.7039)" fill="none" stroke="#3E3A39" stroke-width="0.7" stroke-miterlimit="10" font-family="'MicrosoftYaHei'" font-size="21">2</text>
	<text transform="matrix(0.9276 0 0 1 -670.5735 2401.1023)" fill="#FFFFFF" font-family="'MicrosoftYaHei'" font-size="21">1</text>
	
		<text transform="matrix(0.9276 0 0 1 -670.5735 2401.1023)" fill="none" stroke="#3E3A39" stroke-width="0.7" stroke-miterlimit="10" font-family="'MicrosoftYaHei'" font-size="21">1</text>
</g>
<g>
	<polygon fill="#FFFFFF" stroke="#3E3A39" stroke-width="0.7" stroke-miterlimit="10" points="-649.852,326.519 -656.978,332.727 
		-656.978,320.31 	"/>
	<polygon fill="#FFFFFF" stroke="#3E3A39" stroke-width="0.7" stroke-miterlimit="10" points="-649.852,376.916 -656.978,383.125 
		-656.978,370.708 	"/>
	<polygon fill="#FFFFFF" stroke="#3E3A39" stroke-width="0.7" stroke-miterlimit="10" points="-649.852,427.314 -656.978,433.522 
		-656.978,421.105 	"/>
	<polygon fill="#FFFFFF" stroke="#3E3A39" stroke-width="0.7" stroke-miterlimit="10" points="-649.852,477.711 -656.978,483.919 
		-656.978,471.502 	"/>
	<polygon fill="#FFFFFF" stroke="#3E3A39" stroke-width="0.7" stroke-miterlimit="10" points="-649.852,528.109 -656.978,534.317 
		-656.978,521.9 	"/>
	<polygon fill="#FFFFFF" stroke="#3E3A39" stroke-width="0.7" stroke-miterlimit="10" points="-649.852,578.506 -656.978,584.714 
		-656.978,572.297 	"/>
	<polygon fill="#FFFFFF" stroke="#3E3A39" stroke-width="0.7" stroke-miterlimit="10" points="-649.852,628.904 -656.978,635.112 
		-656.978,622.696 	"/>
	<polygon fill="#FFFFFF" stroke="#3E3A39" stroke-width="0.7" stroke-miterlimit="10" points="-649.852,679.301 -656.978,685.509 
		-656.978,673.093 	"/>
	<polygon fill="#FFFFFF" stroke="#3E3A39" stroke-width="0.7" stroke-miterlimit="10" points="-649.852,729.7 -656.978,735.907 
		-656.978,723.491 	"/>
	<polygon fill="#FFFFFF" stroke="#3E3A39" stroke-width="0.7" stroke-miterlimit="10" points="-649.852,780.095 -656.978,786.303 
		-656.978,773.887 	"/>
	<polygon fill="#FFFFFF" stroke="#3E3A39" stroke-width="0.7" stroke-miterlimit="10" points="-649.852,830.494 -656.978,836.702 
		-656.978,824.286 	"/>
	<polygon fill="#FFFFFF" stroke="#3E3A39" stroke-width="0.7" stroke-miterlimit="10" points="-649.852,880.891 -656.978,887.098 
		-656.978,874.682 	"/>
	<polygon fill="#FFFFFF" stroke="#3E3A39" stroke-width="0.7" stroke-miterlimit="10" points="-649.852,931.289 -656.978,937.497 
		-656.978,925.081 	"/>
	<polygon fill="#FFFFFF" stroke="#3E3A39" stroke-width="0.7" stroke-miterlimit="10" points="-649.852,981.685 -656.978,987.893 
		-656.978,975.477 	"/>
	<polygon fill="#FFFFFF" stroke="#3E3A39" stroke-width="0.7" stroke-miterlimit="10" points="-649.852,1032.085 -656.978,1038.292 
		-656.978,1025.876 	"/>
	<polygon fill="#FFFFFF" stroke="#3E3A39" stroke-width="0.7" stroke-miterlimit="10" points="-649.852,1082.481 -656.978,1088.688 
		-656.978,1076.272 	"/>
	<polygon fill="#FFFFFF" stroke="#3E3A39" stroke-width="0.7" stroke-miterlimit="10" points="-649.852,1132.879 -656.978,1139.086 
		-656.978,1126.67 	"/>
	<polygon fill="#FFFFFF" stroke="#3E3A39" stroke-width="0.7" stroke-miterlimit="10" points="-649.852,1183.276 -656.978,1189.485 
		-656.978,1177.069 	"/>
	<polygon fill="#FFFFFF" stroke="#3E3A39" stroke-width="0.7" stroke-miterlimit="10" points="-649.852,1233.674 -656.978,1239.883 
		-656.978,1227.465 	"/>
	<polygon fill="#FFFFFF" stroke="#3E3A39" stroke-width="0.7" stroke-miterlimit="10" points="-649.852,1284.072 -656.978,1290.281 
		-656.978,1277.863 	"/>
	<polygon fill="#FFFFFF" stroke="#3E3A39" stroke-width="0.7" stroke-miterlimit="10" points="-649.852,1334.469 -656.978,1340.677 
		-656.978,1328.26 	"/>
	<polygon fill="#FFFFFF" stroke="#3E3A39" stroke-width="0.7" stroke-miterlimit="10" points="-649.852,1384.868 -656.978,1391.075 
		-656.978,1378.659 	"/>
	<polygon fill="#FFFFFF" stroke="#3E3A39" stroke-width="0.7" stroke-miterlimit="10" points="-649.852,1435.264 -656.978,1441.471 
		-656.978,1429.055 	"/>
	<polygon fill="#FFFFFF" stroke="#3E3A39" stroke-width="0.7" stroke-miterlimit="10" points="-649.852,1485.663 -656.978,1491.87 
		-656.978,1479.454 	"/>
	<polygon fill="#FFFFFF" stroke="#3E3A39" stroke-width="0.7" stroke-miterlimit="10" points="-649.852,1536.057 -656.978,1542.266 
		-656.978,1529.85 	"/>
	<polygon fill="#FFFFFF" stroke="#3E3A39" stroke-width="0.7" stroke-miterlimit="10" points="-649.852,1586.456 -656.978,1592.665 
		-656.978,1580.249 	"/>
	<polygon fill="#FFFFFF" stroke="#3E3A39" stroke-width="0.7" stroke-miterlimit="10" points="-649.852,1636.854 -656.978,1643.061 
		-656.978,1630.645 	"/>
	<polygon fill="#FFFFFF" stroke="#3E3A39" stroke-width="0.7" stroke-miterlimit="10" points="-649.852,1687.251 -656.978,1693.46 
		-656.978,1681.044 	"/>
	<polygon fill="#FFFFFF" stroke="#3E3A39" stroke-width="0.7" stroke-miterlimit="10" points="-649.852,1737.647 -656.978,1743.856 
		-656.978,1731.44 	"/>
	<polygon fill="#FFFFFF" stroke="#3E3A39" stroke-width="0.7" stroke-miterlimit="10" points="-649.852,1788.047 -656.978,1794.254 
		-656.978,1781.838 	"/>
	<polygon fill="#FFFFFF" stroke="#3E3A39" stroke-width="0.7" stroke-miterlimit="10" points="-649.852,1838.444 -656.978,1844.652 
		-656.978,1832.236 	"/>
	<polygon fill="#FFFFFF" stroke="#3E3A39" stroke-width="0.7" stroke-miterlimit="10" points="-649.852,1888.841 -656.978,1895.049 
		-656.978,1882.633 	"/>
	<polygon fill="#FFFFFF" stroke="#3E3A39" stroke-width="0.7" stroke-miterlimit="10" points="-649.852,1939.239 -656.978,1945.448 
		-656.978,1933.032 	"/>
	<polygon fill="#FFFFFF" stroke="#3E3A39" stroke-width="0.7" stroke-miterlimit="10" points="-649.852,1989.636 -656.978,1995.845 
		-656.978,1983.427 	"/>
	<polygon fill="#FFFFFF" stroke="#3E3A39" stroke-width="0.7" stroke-miterlimit="10" points="-649.852,2040.034 -656.978,2046.243 
		-656.978,2033.825 	"/>
	<polygon fill="#FFFFFF" stroke="#3E3A39" stroke-width="0.7" stroke-miterlimit="10" points="-649.852,2090.431 -656.978,2096.64 
		-656.978,2084.222 	"/>
	<polygon fill="#FFFFFF" stroke="#3E3A39" stroke-width="0.7" stroke-miterlimit="10" points="-649.852,2140.831 -656.978,2147.038 
		-656.978,2134.622 	"/>
	<polygon fill="#FFFFFF" stroke="#3E3A39" stroke-width="0.7" stroke-miterlimit="10" points="-649.852,2191.227 -656.978,2197.434 
		-656.978,2185.018 	"/>
	<polygon fill="#FFFFFF" stroke="#3E3A39" stroke-width="0.7" stroke-miterlimit="10" points="-649.852,2241.626 -656.978,2247.833 
		-656.978,2235.417 	"/>
	<polygon fill="#FFFFFF" stroke="#3E3A39" stroke-width="0.7" stroke-miterlimit="10" points="-649.852,2292.02 -656.978,2298.229 
		-656.978,2285.813 	"/>
	<polygon fill="#FFFFFF" stroke="#3E3A39" stroke-width="0.7" stroke-miterlimit="10" points="-649.852,2342.419 -656.978,2348.627 
		-656.978,2336.211 	"/>
	<polygon fill="#FFFFFF" stroke="#3E3A39" stroke-width="0.7" stroke-miterlimit="10" points="-649.852,2392.817 -656.978,2399.024 
		-656.978,2386.608 	"/>
</g>
<g>
	<rect x="-99.343" y="303.036" fill="#221613" width="10.25" height="12.6"/>
	<polygon fill="#221613" points="-99.343,324.494 -99.343,319.84 -89.093,319.84 -89.093,332.44 -99.343,332.44 -99.343,327.786 
		-101.03,327.786 -101.03,324.494 	"/>
	<rect x="-99.343" y="336.644" fill="#221613" width="10.25" height="12.6"/>
	<rect x="-99.343" y="353.448" fill="#221613" width="10.25" height="12.6"/>
	<polygon fill="#221613" points="-99.343,374.906 -99.343,370.252 -89.093,370.252 -89.093,382.851 -99.343,382.851 
		-99.343,378.198 -101.03,378.198 -101.03,374.906 	"/>
	<rect x="-99.343" y="387.056" fill="#221613" width="10.25" height="12.6"/>
	<rect x="-99.343" y="403.86" fill="#221613" width="10.25" height="12.6"/>
	<polygon fill="#221613" points="-99.343,425.317 -99.343,420.664 -89.093,420.664 -89.093,433.262 -99.343,433.262 
		-99.343,428.609 -101.03,428.609 -101.03,425.317 	"/>
	<rect x="-99.343" y="437.467" fill="#221613" width="10.25" height="12.601"/>
	<rect x="-99.343" y="454.272" fill="#221613" width="10.25" height="12.6"/>
	<polygon fill="#221613" points="-99.343,475.729 -99.343,471.075 -89.093,471.075 -89.093,483.675 -99.343,483.675 
		-99.343,479.021 -101.03,479.021 -101.03,475.729 	"/>
	<rect x="-99.343" y="487.879" fill="#221613" width="10.25" height="12.601"/>
	<rect x="-99.343" y="504.683" fill="#221613" width="10.25" height="12.6"/>
	<polygon fill="#221613" points="-99.343,526.14 -99.343,521.487 -89.093,521.487 -89.093,534.086 -99.343,534.086 -99.343,529.432 
		-101.03,529.432 -101.03,526.14 	"/>
	<rect x="-99.343" y="538.291" fill="#221613" width="10.25" height="12.601"/>
	<rect x="-99.343" y="555.094" fill="#221613" width="10.25" height="12.601"/>
	<polygon fill="#221613" points="-99.343,576.552 -99.343,571.899 -89.093,571.899 -89.093,584.499 -99.343,584.499 
		-99.343,579.844 -101.03,579.844 -101.03,576.552 	"/>
	<rect x="-99.343" y="588.703" fill="#221613" width="10.25" height="12.6"/>
	<rect x="-99.343" y="605.506" fill="#221613" width="10.25" height="12.601"/>
	<polygon fill="#221613" points="-99.343,626.964 -99.343,622.311 -89.093,622.311 -89.093,634.911 -99.343,634.911 
		-99.343,630.257 -101.03,630.257 -101.03,626.964 	"/>
	<rect x="-99.343" y="639.115" fill="#221613" width="10.25" height="12.6"/>
	<rect x="-99.343" y="655.919" fill="#221613" width="10.25" height="12.6"/>
	<polygon fill="#221613" points="-99.343,677.376 -99.343,672.721 -89.093,672.721 -89.093,685.322 -99.343,685.322 
		-99.343,680.668 -101.03,680.668 -101.03,677.376 	"/>
	<rect x="-99.343" y="689.526" fill="#221613" width="10.25" height="12.6"/>
	<rect x="-99.343" y="706.331" fill="#221613" width="10.25" height="12.6"/>
	<polygon fill="#221613" points="-99.343,727.788 -99.343,723.134 -89.093,723.134 -89.093,735.734 -99.343,735.734 -99.343,731.08 
		-101.03,731.08 -101.03,727.788 	"/>
	<rect x="-99.343" y="739.937" fill="#221613" width="10.25" height="12.601"/>
	<rect x="-99.343" y="756.742" fill="#221613" width="10.25" height="12.6"/>
	<polygon fill="#221613" points="-99.343,778.2 -99.343,773.546 -89.093,773.546 -89.093,786.145 -99.343,786.145 -99.343,781.493 
		-101.03,781.493 -101.03,778.2 	"/>
	<polygon fill="#221613" points="-99.343,828.61 -99.343,823.958 -89.093,823.958 -89.093,836.556 -99.343,836.556 -99.343,831.903 
		-101.03,831.903 -101.03,828.61 	"/>
	<polygon fill="#221613" points="-99.343,879.022 -99.343,874.37 -89.093,874.37 -89.093,886.969 -99.343,886.969 -99.343,882.315 
		-101.03,882.315 -101.03,879.022 	"/>
	<rect x="-99.343" y="790.349" fill="#221613" width="10.25" height="12.601"/>
	<rect x="-99.343" y="807.154" fill="#221613" width="10.25" height="12.6"/>
	<rect x="-99.343" y="840.761" fill="#221613" width="10.25" height="12.601"/>
	<rect x="-99.343" y="857.566" fill="#221613" width="10.25" height="12.6"/>
	<rect x="-99.343" y="891.173" fill="#221613" width="10.25" height="12.6"/>
	<rect x="-99.343" y="907.976" fill="#221613" width="10.25" height="12.601"/>
	<polygon fill="#221613" points="-99.343,929.433 -99.343,924.782 -89.093,924.782 -89.093,937.381 -99.343,937.381 
		-99.343,932.726 -101.03,932.726 -101.03,929.433 	"/>
	<rect x="-99.343" y="941.585" fill="#221613" width="10.25" height="12.6"/>
	<rect x="-99.343" y="958.388" fill="#221613" width="10.25" height="12.601"/>
	<polygon fill="#221613" points="-99.343,979.845 -99.343,975.193 -89.093,975.193 -89.093,987.793 -99.343,987.793 
		-99.343,983.137 -101.03,983.137 -101.03,979.845 	"/>
	<rect x="-99.343" y="991.997" fill="#221613" width="10.25" height="12.6"/>
	<rect x="-99.343" y="1008.801" fill="#221613" width="10.25" height="12.601"/>
	<polygon fill="#221613" points="-99.343,1030.258 -99.343,1025.604 -89.093,1025.604 -89.093,1038.205 -99.343,1038.205 
		-99.343,1033.551 -101.03,1033.551 -101.03,1030.258 	"/>
	<polygon fill="#221613" points="-99.343,1080.67 -99.343,1076.016 -89.093,1076.016 -89.093,1088.617 -99.343,1088.617 
		-99.343,1083.963 -101.03,1083.963 -101.03,1080.67 	"/>
	<rect x="-99.343" y="1042.409" fill="#221613" width="10.25" height="12.6"/>
	<rect x="-99.343" y="1059.212" fill="#221613" width="10.25" height="12.6"/>
	<rect x="-99.343" y="1092.821" fill="#221613" width="10.25" height="12.6"/>
	<rect x="-99.343" y="1109.625" fill="#221613" width="10.25" height="12.6"/>
	<rect x="-99.343" y="1143.233" fill="#221613" width="10.25" height="12.6"/>
	<rect x="-99.343" y="1160.037" fill="#221613" width="10.25" height="12.599"/>
	<polygon fill="#221613" points="-99.343,1181.494 -99.343,1176.84 -89.093,1176.84 -89.093,1189.44 -99.343,1189.44 
		-99.343,1184.787 -101.03,1184.787 -101.03,1181.494 	"/>
	<polygon fill="#221613" points="-99.343,1131.082 -99.343,1126.427 -89.093,1126.427 -89.093,1139.028 -99.343,1139.028 
		-99.343,1134.375 -101.03,1134.375 -101.03,1131.082 	"/>
	<rect x="-99.343" y="1193.643" fill="#221613" width="10.25" height="12.601"/>
	<rect x="-99.343" y="1210.448" fill="#221613" width="10.25" height="12.6"/>
	<polygon fill="#221613" points="-99.343,1231.905 -99.343,1227.252 -89.093,1227.252 -89.093,1239.851 -99.343,1239.851 
		-99.343,1235.198 -101.03,1235.198 -101.03,1231.905 	"/>
	<rect x="-99.343" y="1244.055" fill="#221613" width="10.25" height="12.601"/>
	<rect x="-99.343" y="1260.86" fill="#221613" width="10.25" height="12.6"/>
	<polygon fill="#221613" points="-99.343,1282.315 -99.343,1277.664 -89.093,1277.664 -89.093,1290.262 -99.343,1290.262 
		-99.343,1285.609 -101.03,1285.609 -101.03,1282.315 	"/>
	<polygon fill="#221613" points="-99.343,1332.727 -99.343,1328.076 -89.093,1328.076 -89.093,1340.675 -99.343,1340.675 
		-99.343,1336.02 -101.03,1336.02 -101.03,1332.727 	"/>
	<rect x="-99.343" y="1294.467" fill="#221613" width="10.25" height="12.601"/>
	<rect x="-99.343" y="1311.272" fill="#221613" width="10.25" height="12.6"/>
	<rect x="-99.343" y="1344.879" fill="#221613" width="10.25" height="12.6"/>
	<rect x="-99.343" y="1361.682" fill="#221613" width="10.25" height="12.601"/>
	<rect x="-99.343" y="1395.292" fill="#221613" width="10.25" height="12.6"/>
	<rect x="-99.343" y="1412.094" fill="#221613" width="10.25" height="12.601"/>
	<polygon fill="#221613" points="-99.343,1433.551 -99.343,1428.899 -89.093,1428.899 -89.093,1441.499 -99.343,1441.499 
		-99.343,1436.844 -101.03,1436.844 -101.03,1433.551 	"/>
	<polygon fill="#221613" points="-99.343,1383.138 -99.343,1378.487 -89.093,1378.487 -89.093,1391.086 -99.343,1391.086 
		-99.343,1386.431 -101.03,1386.431 -101.03,1383.138 	"/>
	<rect x="-99.343" y="1445.704" fill="#221613" width="10.25" height="12.6"/>
	<rect x="-99.343" y="1462.507" fill="#221613" width="10.25" height="12.6"/>
	<polygon fill="#221613" points="-99.343,1483.964 -99.343,1479.31 -89.093,1479.31 -89.093,1491.911 -99.343,1491.911 
		-99.343,1487.256 -101.03,1487.256 -101.03,1483.964 	"/>
	<rect x="-99.343" y="1496.115" fill="#221613" width="10.25" height="12.6"/>
	<rect x="-99.343" y="1512.919" fill="#221613" width="10.25" height="12.6"/>
	<polygon fill="#221613" points="-99.343,1534.376 -99.343,1529.722 -89.093,1529.722 -89.093,1542.323 -99.343,1542.323 
		-99.343,1537.669 -101.03,1537.669 -101.03,1534.376 	"/>
	<polygon fill="#221613" points="-99.343,1584.788 -99.343,1580.134 -89.093,1580.134 -89.093,1592.734 -99.343,1592.734 
		-99.343,1588.081 -101.03,1588.081 -101.03,1584.788 	"/>
	<rect x="-99.343" y="1546.527" fill="#221613" width="10.25" height="12.6"/>
	<rect x="-99.343" y="1563.331" fill="#221613" width="10.25" height="12.6"/>
	<rect x="-99.343" y="1596.938" fill="#221613" width="10.25" height="12.6"/>
	<rect x="-99.343" y="1613.743" fill="#221613" width="10.25" height="12.6"/>
	<rect x="-99.343" y="1647.349" fill="#221613" width="10.25" height="12.601"/>
	<rect x="-99.343" y="1664.154" fill="#221613" width="10.25" height="12.6"/>
	<polygon fill="#221613" points="-99.343,1685.612 -99.343,1680.958 -89.093,1680.958 -89.093,1693.556 -99.343,1693.556 
		-99.343,1688.905 -101.03,1688.905 -101.03,1685.612 	"/>
	<polygon fill="#221613" points="-99.343,1635.2 -99.343,1630.546 -89.093,1630.546 -89.093,1643.145 -99.343,1643.145 
		-99.343,1638.493 -101.03,1638.493 -101.03,1635.2 	"/>
	<rect x="-99.343" y="1697.761" fill="#221613" width="10.25" height="12.601"/>
	<rect x="-99.343" y="1714.565" fill="#221613" width="10.25" height="12.601"/>
	<polygon fill="#221613" points="-99.343,1736.022 -99.343,1731.37 -89.093,1731.37 -89.093,1743.969 -99.343,1743.969 
		-99.343,1739.315 -101.03,1739.315 -101.03,1736.022 	"/>
	<rect x="-99.343" y="1748.173" fill="#221613" width="10.25" height="12.6"/>
	<rect x="-99.343" y="1764.977" fill="#221613" width="10.25" height="12.601"/>
	<polygon fill="#221613" points="-99.343,1786.434 -99.343,1781.782 -89.093,1781.782 -89.093,1794.381 -99.343,1794.381 
		-99.343,1789.727 -101.03,1789.727 -101.03,1786.434 	"/>
	<polygon fill="#221613" points="-99.343,1836.845 -99.343,1832.194 -89.093,1832.194 -89.093,1844.794 -99.343,1844.794 
		-99.343,1840.138 -101.03,1840.138 -101.03,1836.845 	"/>
	<rect x="-99.343" y="1798.585" fill="#221613" width="10.25" height="12.6"/>
	<rect x="-99.343" y="1815.388" fill="#221613" width="10.25" height="12.601"/>
	<rect x="-99.343" y="1848.998" fill="#221613" width="10.25" height="12.6"/>
	<rect x="-99.343" y="1865.801" fill="#221613" width="10.25" height="12.601"/>
	<rect x="-99.343" y="1899.409" fill="#221613" width="10.25" height="12.6"/>
	<rect x="-99.343" y="1916.213" fill="#221613" width="10.25" height="12.601"/>
	<polygon fill="#221613" points="-99.343,1937.67 -99.343,1933.016 -89.093,1933.016 -89.093,1945.617 -99.343,1945.617 
		-99.343,1940.963 -101.03,1940.963 -101.03,1937.67 	"/>
	<polygon fill="#221613" points="-99.343,1887.258 -99.343,1882.604 -89.093,1882.604 -89.093,1895.205 -99.343,1895.205 
		-99.343,1890.551 -101.03,1890.551 -101.03,1887.258 	"/>
	<rect x="-99.343" y="1949.821" fill="#221613" width="10.25" height="12.6"/>
	<rect x="-99.343" y="1966.625" fill="#221613" width="10.25" height="12.6"/>
	<polygon fill="#221613" points="-99.343,1988.083 -99.343,1983.427 -89.093,1983.427 -89.093,1996.028 -99.343,1996.028 
		-99.343,1991.374 -101.03,1991.374 -101.03,1988.083 	"/>
	<rect x="-99.343" y="2000.233" fill="#221613" width="10.25" height="12.6"/>
	<rect x="-99.343" y="2017.037" fill="#221613" width="10.25" height="12.6"/>
	<polygon fill="#221613" points="-99.343,2038.494 -99.343,2033.84 -89.093,2033.84 -89.093,2046.44 -99.343,2046.44 
		-99.343,2041.787 -101.03,2041.787 -101.03,2038.494 	"/>
	<polygon fill="#221613" points="-99.343,2088.906 -99.343,2084.252 -89.093,2084.252 -89.093,2096.851 -99.343,2096.851 
		-99.343,2092.199 -101.03,2092.199 -101.03,2088.906 	"/>
	<rect x="-99.343" y="2050.643" fill="#221613" width="10.25" height="12.601"/>
	<rect x="-99.343" y="2067.449" fill="#221613" width="10.25" height="12.6"/>
	<rect x="-99.343" y="2101.055" fill="#221613" width="10.25" height="12.601"/>
	<rect x="-99.343" y="2117.86" fill="#221613" width="10.25" height="12.6"/>
	<rect x="-99.343" y="2151.468" fill="#221613" width="10.25" height="12.601"/>
	<rect x="-99.343" y="2168.272" fill="#221613" width="10.25" height="12.6"/>
	<polygon fill="#221613" points="-99.343,2189.729 -99.343,2185.076 -89.093,2185.076 -89.093,2197.675 -99.343,2197.675 
		-99.343,2193.022 -101.03,2193.022 -101.03,2189.729 	"/>
	<polygon fill="#221613" points="-99.343,2139.317 -99.343,2134.665 -89.093,2134.665 -89.093,2147.263 -99.343,2147.263 
		-99.343,2142.61 -101.03,2142.61 -101.03,2139.317 	"/>
	<rect x="-99.343" y="2201.879" fill="#221613" width="10.25" height="12.6"/>
	<rect x="-99.343" y="2218.683" fill="#221613" width="10.25" height="12.601"/>
	<polygon fill="#221613" points="-99.343,2240.139 -99.343,2235.488 -89.093,2235.488 -89.093,2248.087 -99.343,2248.087 
		-99.343,2243.432 -101.03,2243.432 -101.03,2240.139 	"/>
	<rect x="-99.343" y="2252.292" fill="#221613" width="10.25" height="12.6"/>
	<rect x="-99.343" y="2269.094" fill="#221613" width="10.25" height="12.601"/>
	<polygon fill="#221613" points="-99.343,2290.552 -99.343,2285.899 -89.093,2285.899 -89.093,2298.499 -99.343,2298.499 
		-99.343,2293.845 -101.03,2293.845 -101.03,2290.552 	"/>
	<polygon fill="#221613" points="-99.343,2340.964 -99.343,2336.311 -89.093,2336.311 -89.093,2348.911 -99.343,2348.911 
		-99.343,2344.257 -101.03,2344.257 -101.03,2340.964 	"/>
	<rect x="-99.343" y="2302.704" fill="#221613" width="10.25" height="12.6"/>
	<rect x="-99.343" y="2319.507" fill="#221613" width="10.25" height="12.6"/>
	<rect x="-99.343" y="2353.115" fill="#221613" width="10.25" height="12.6"/>
	<rect x="-99.343" y="2369.919" fill="#221613" width="10.25" height="12.6"/>
	<rect x="-99.343" y="2403.526" fill="#221613" width="10.25" height="12.601"/>
	<polygon fill="#221613" points="-99.343,2391.377 -99.343,2386.722 -89.093,2386.722 -89.093,2399.323 -99.343,2399.323 
		-99.343,2394.669 -101.03,2394.669 -101.03,2391.377 	"/>
</g>
<g>
	<text transform="matrix(0.9276 0 0 1 -75.8669 334.6785)" fill="#FFFFFF" font-family="'MicrosoftYaHei'" font-size="21">42</text>
	
		<text transform="matrix(0.9276 0 0 1 -75.8669 334.6785)" fill="none" stroke="#3E3A39" stroke-width="0.7" stroke-miterlimit="10" font-family="'MicrosoftYaHei'" font-size="21">42</text>
	<text transform="matrix(0.9276 0 0 1 -75.8669 385.0769)" fill="#FFFFFF" font-family="'MicrosoftYaHei'" font-size="21">41</text>
	
		<text transform="matrix(0.9276 0 0 1 -75.8669 385.0769)" fill="none" stroke="#3E3A39" stroke-width="0.7" stroke-miterlimit="10" font-family="'MicrosoftYaHei'" font-size="21">41</text>
	<text transform="matrix(0.9276 0 0 1 -75.8669 435.4734)" fill="#FFFFFF" font-family="'MicrosoftYaHei'" font-size="21">40</text>
	
		<text transform="matrix(0.9276 0 0 1 -75.8669 435.4734)" fill="none" stroke="#3E3A39" stroke-width="0.7" stroke-miterlimit="10" font-family="'MicrosoftYaHei'" font-size="21">40</text>
	<text transform="matrix(0.9276 0 0 1 -75.8669 485.8718)" fill="#FFFFFF" font-family="'MicrosoftYaHei'" font-size="21">39</text>
	
		<text transform="matrix(0.9276 0 0 1 -75.8669 485.8718)" fill="none" stroke="#3E3A39" stroke-width="0.7" stroke-miterlimit="10" font-family="'MicrosoftYaHei'" font-size="21">39</text>
	<text transform="matrix(0.9276 0 0 1 -75.8669 536.2683)" fill="#FFFFFF" font-family="'MicrosoftYaHei'" font-size="21">38</text>
	
		<text transform="matrix(0.9276 0 0 1 -75.8669 536.2683)" fill="none" stroke="#3E3A39" stroke-width="0.7" stroke-miterlimit="10" font-family="'MicrosoftYaHei'" font-size="21">38</text>
	<text transform="matrix(0.9276 0 0 1 -75.8669 586.6658)" fill="#FFFFFF" font-family="'MicrosoftYaHei'" font-size="21">37</text>
	
		<text transform="matrix(0.9276 0 0 1 -75.8669 586.6658)" fill="none" stroke="#3E3A39" stroke-width="0.7" stroke-miterlimit="10" font-family="'MicrosoftYaHei'" font-size="21">37</text>
	<text transform="matrix(0.9276 0 0 1 -75.8669 637.0652)" fill="#FFFFFF" font-family="'MicrosoftYaHei'" font-size="21">36</text>
	
		<text transform="matrix(0.9276 0 0 1 -75.8669 637.0652)" fill="none" stroke="#3E3A39" stroke-width="0.7" stroke-miterlimit="10" font-family="'MicrosoftYaHei'" font-size="21">36</text>
	<text transform="matrix(0.9276 0 0 1 -75.8669 687.4617)" fill="#FFFFFF" font-family="'MicrosoftYaHei'" font-size="21">35</text>
	
		<text transform="matrix(0.9276 0 0 1 -75.8669 687.4617)" fill="none" stroke="#3E3A39" stroke-width="0.7" stroke-miterlimit="10" font-family="'MicrosoftYaHei'" font-size="21">35</text>
	<text transform="matrix(0.9276 0 0 1 -75.8669 737.8601)" fill="#FFFFFF" font-family="'MicrosoftYaHei'" font-size="21">34</text>
	
		<text transform="matrix(0.9276 0 0 1 -75.8669 737.8601)" fill="none" stroke="#3E3A39" stroke-width="0.7" stroke-miterlimit="10" font-family="'MicrosoftYaHei'" font-size="21">34</text>
	<text transform="matrix(0.9276 0 0 1 -75.8669 788.2566)" fill="#FFFFFF" font-family="'MicrosoftYaHei'" font-size="21">33</text>
	
		<text transform="matrix(0.9276 0 0 1 -75.8669 788.2566)" fill="none" stroke="#3E3A39" stroke-width="0.7" stroke-miterlimit="10" font-family="'MicrosoftYaHei'" font-size="21">33</text>
	<text transform="matrix(0.9276 0 0 1 -75.8669 838.655)" fill="#FFFFFF" font-family="'MicrosoftYaHei'" font-size="21">32</text>
	
		<text transform="matrix(0.9276 0 0 1 -75.8669 838.655)" fill="none" stroke="#3E3A39" stroke-width="0.7" stroke-miterlimit="10" font-family="'MicrosoftYaHei'" font-size="21">32</text>
	<text transform="matrix(0.9276 0 0 1 -75.8669 889.0515)" fill="#FFFFFF" font-family="'MicrosoftYaHei'" font-size="21">31</text>
	
		<text transform="matrix(0.9276 0 0 1 -75.8669 889.0515)" fill="none" stroke="#3E3A39" stroke-width="0.7" stroke-miterlimit="10" font-family="'MicrosoftYaHei'" font-size="21">31</text>
	<text transform="matrix(0.9276 0 0 1 -75.8669 939.45)" fill="#FFFFFF" font-family="'MicrosoftYaHei'" font-size="21">30</text>
	
		<text transform="matrix(0.9276 0 0 1 -75.8669 939.45)" fill="none" stroke="#3E3A39" stroke-width="0.7" stroke-miterlimit="10" font-family="'MicrosoftYaHei'" font-size="21">30</text>
	<text transform="matrix(0.9276 0 0 1 -75.8669 989.8455)" fill="#FFFFFF" font-family="'MicrosoftYaHei'" font-size="21">29</text>
	
		<text transform="matrix(0.9276 0 0 1 -75.8669 989.8455)" fill="none" stroke="#3E3A39" stroke-width="0.7" stroke-miterlimit="10" font-family="'MicrosoftYaHei'" font-size="21">29</text>
	<text transform="matrix(0.9276 0 0 1 -75.8669 1040.2449)" fill="#FFFFFF" font-family="'MicrosoftYaHei'" font-size="21">28</text>
	
		<text transform="matrix(0.9276 0 0 1 -75.8669 1040.2449)" fill="none" stroke="#3E3A39" stroke-width="0.7" stroke-miterlimit="10" font-family="'MicrosoftYaHei'" font-size="21">28</text>
	<text transform="matrix(0.9276 0 0 1 -75.8669 1090.6414)" fill="#FFFFFF" font-family="'MicrosoftYaHei'" font-size="21">27</text>
	
		<text transform="matrix(0.9276 0 0 1 -75.8669 1090.6414)" fill="none" stroke="#3E3A39" stroke-width="0.7" stroke-miterlimit="10" font-family="'MicrosoftYaHei'" font-size="21">27</text>
	<text transform="matrix(0.9276 0 0 1 -75.8669 1141.0398)" fill="#FFFFFF" font-family="'MicrosoftYaHei'" font-size="21">26</text>
	
		<text transform="matrix(0.9276 0 0 1 -75.8669 1141.0398)" fill="none" stroke="#3E3A39" stroke-width="0.7" stroke-miterlimit="10" font-family="'MicrosoftYaHei'" font-size="21">26</text>
	<text transform="matrix(0.9276 0 0 1 -75.8669 1191.4373)" fill="#FFFFFF" font-family="'MicrosoftYaHei'" font-size="21">25</text>
	
		<text transform="matrix(0.9276 0 0 1 -75.8669 1191.4373)" fill="none" stroke="#3E3A39" stroke-width="0.7" stroke-miterlimit="10" font-family="'MicrosoftYaHei'" font-size="21">25</text>
	<text transform="matrix(0.9276 0 0 1 -75.8669 1241.8347)" fill="#FFFFFF" font-family="'MicrosoftYaHei'" font-size="21">24</text>
	
		<text transform="matrix(0.9276 0 0 1 -75.8669 1241.8347)" fill="none" stroke="#3E3A39" stroke-width="0.7" stroke-miterlimit="10" font-family="'MicrosoftYaHei'" font-size="21">24</text>
	<text transform="matrix(0.9276 0 0 1 -75.8669 1292.2312)" fill="#FFFFFF" font-family="'MicrosoftYaHei'" font-size="21">23</text>
	
		<text transform="matrix(0.9276 0 0 1 -75.8669 1292.2312)" fill="none" stroke="#3E3A39" stroke-width="0.7" stroke-miterlimit="10" font-family="'MicrosoftYaHei'" font-size="21">23</text>
	<text transform="matrix(0.9276 0 0 1 -75.8669 1342.6296)" fill="#FFFFFF" font-family="'MicrosoftYaHei'" font-size="21">22</text>
	
		<text transform="matrix(0.9276 0 0 1 -75.8669 1342.6296)" fill="none" stroke="#3E3A39" stroke-width="0.7" stroke-miterlimit="10" font-family="'MicrosoftYaHei'" font-size="21">22</text>
	<text transform="matrix(0.9276 0 0 1 -75.8669 1393.0261)" fill="#FFFFFF" font-family="'MicrosoftYaHei'" font-size="21">21</text>
	
		<text transform="matrix(0.9276 0 0 1 -75.8669 1393.0261)" fill="none" stroke="#3E3A39" stroke-width="0.7" stroke-miterlimit="10" font-family="'MicrosoftYaHei'" font-size="21">21</text>
	<text transform="matrix(0.9276 0 0 1 -75.8669 1443.4246)" fill="#FFFFFF" font-family="'MicrosoftYaHei'" font-size="21">20</text>
	
		<text transform="matrix(0.9276 0 0 1 -75.8669 1443.4246)" fill="none" stroke="#3E3A39" stroke-width="0.7" stroke-miterlimit="10" font-family="'MicrosoftYaHei'" font-size="21">20</text>
	<text transform="matrix(0.9276 0 0 1 -75.8669 1493.821)" fill="#FFFFFF" font-family="'MicrosoftYaHei'" font-size="21">19</text>
	
		<text transform="matrix(0.9276 0 0 1 -75.8669 1493.821)" fill="none" stroke="#3E3A39" stroke-width="0.7" stroke-miterlimit="10" font-family="'MicrosoftYaHei'" font-size="21">19</text>
	<text transform="matrix(0.9276 0 0 1 -75.8669 1544.2195)" fill="#FFFFFF" font-family="'MicrosoftYaHei'" font-size="21">18</text>
	
		<text transform="matrix(0.9276 0 0 1 -75.8669 1544.2195)" fill="none" stroke="#3E3A39" stroke-width="0.7" stroke-miterlimit="10" font-family="'MicrosoftYaHei'" font-size="21">18</text>
	<text transform="matrix(0.9276 0 0 1 -75.8669 1594.616)" fill="#FFFFFF" font-family="'MicrosoftYaHei'" font-size="21">17</text>
	
		<text transform="matrix(0.9276 0 0 1 -75.8669 1594.616)" fill="none" stroke="#3E3A39" stroke-width="0.7" stroke-miterlimit="10" font-family="'MicrosoftYaHei'" font-size="21">17</text>
	<text transform="matrix(0.9276 0 0 1 -75.8669 1645.0144)" fill="#FFFFFF" font-family="'MicrosoftYaHei'" font-size="21">16</text>
	
		<text transform="matrix(0.9276 0 0 1 -75.8669 1645.0144)" fill="none" stroke="#3E3A39" stroke-width="0.7" stroke-miterlimit="10" font-family="'MicrosoftYaHei'" font-size="21">16</text>
	<text transform="matrix(0.9276 0 0 1 -75.8669 1695.4128)" fill="#FFFFFF" font-family="'MicrosoftYaHei'" font-size="21">15</text>
	
		<text transform="matrix(0.9276 0 0 1 -75.8669 1695.4128)" fill="none" stroke="#3E3A39" stroke-width="0.7" stroke-miterlimit="10" font-family="'MicrosoftYaHei'" font-size="21">15</text>
	<text transform="matrix(0.9276 0 0 1 -75.8669 1745.8093)" fill="#FFFFFF" font-family="'MicrosoftYaHei'" font-size="21">14</text>
	
		<text transform="matrix(0.9276 0 0 1 -75.8669 1745.8093)" fill="none" stroke="#3E3A39" stroke-width="0.7" stroke-miterlimit="10" font-family="'MicrosoftYaHei'" font-size="21">14</text>
	<text transform="matrix(0.9276 0 0 1 -75.8669 1796.2078)" fill="#FFFFFF" font-family="'MicrosoftYaHei'" font-size="21">13</text>
	
		<text transform="matrix(0.9276 0 0 1 -75.8669 1796.2078)" fill="none" stroke="#3E3A39" stroke-width="0.7" stroke-miterlimit="10" font-family="'MicrosoftYaHei'" font-size="21">13</text>
	<text transform="matrix(0.9276 0 0 1 -75.8669 1846.6042)" fill="#FFFFFF" font-family="'MicrosoftYaHei'" font-size="21">12</text>
	
		<text transform="matrix(0.9276 0 0 1 -75.8669 1846.6042)" fill="none" stroke="#3E3A39" stroke-width="0.7" stroke-miterlimit="10" font-family="'MicrosoftYaHei'" font-size="21">12</text>
	<text transform="matrix(0.9276 0 0 1 -75.8669 1897.0027)" fill="#FFFFFF" font-family="'MicrosoftYaHei'" font-size="21">11</text>
	
		<text transform="matrix(0.9276 0 0 1 -75.8669 1897.0027)" fill="none" stroke="#3E3A39" stroke-width="0.7" stroke-miterlimit="10" font-family="'MicrosoftYaHei'" font-size="21">11</text>
	<text transform="matrix(0.9276 0 0 1 -75.8669 1947.3992)" fill="#FFFFFF" font-family="'MicrosoftYaHei'" font-size="21">10</text>
	
		<text transform="matrix(0.9276 0 0 1 -75.8669 1947.3992)" fill="none" stroke="#3E3A39" stroke-width="0.7" stroke-miterlimit="10" font-family="'MicrosoftYaHei'" font-size="21">10</text>
	<text transform="matrix(0.9276 0 0 1 -75.8669 1997.7976)" fill="#FFFFFF" font-family="'MicrosoftYaHei'" font-size="21">9</text>
	
		<text transform="matrix(0.9276 0 0 1 -75.8669 1997.7976)" fill="none" stroke="#3E3A39" stroke-width="0.7" stroke-miterlimit="10" font-family="'MicrosoftYaHei'" font-size="21">9</text>
	<text transform="matrix(0.9276 0 0 1 -75.8669 2048.1941)" fill="#FFFFFF" font-family="'MicrosoftYaHei'" font-size="21">8</text>
	
		<text transform="matrix(0.9276 0 0 1 -75.8669 2048.1941)" fill="none" stroke="#3E3A39" stroke-width="0.7" stroke-miterlimit="10" font-family="'MicrosoftYaHei'" font-size="21">8</text>
	<text transform="matrix(0.9276 0 0 1 -75.8669 2098.5925)" fill="#FFFFFF" font-family="'MicrosoftYaHei'" font-size="21">7</text>
	
		<text transform="matrix(0.9276 0 0 1 -75.8669 2098.5925)" fill="none" stroke="#3E3A39" stroke-width="0.7" stroke-miterlimit="10" font-family="'MicrosoftYaHei'" font-size="21">7</text>
	<text transform="matrix(0.9276 0 0 1 -75.8669 2148.989)" fill="#FFFFFF" font-family="'MicrosoftYaHei'" font-size="21">6</text>
	
		<text transform="matrix(0.9276 0 0 1 -75.8669 2148.989)" fill="none" stroke="#3E3A39" stroke-width="0.7" stroke-miterlimit="10" font-family="'MicrosoftYaHei'" font-size="21">6</text>
	<text transform="matrix(0.9276 0 0 1 -75.8669 2199.3875)" fill="#FFFFFF" font-family="'MicrosoftYaHei'" font-size="21">5</text>
	
		<text transform="matrix(0.9276 0 0 1 -75.8669 2199.3875)" fill="none" stroke="#3E3A39" stroke-width="0.7" stroke-miterlimit="10" font-family="'MicrosoftYaHei'" font-size="21">5</text>
	<text transform="matrix(0.9276 0 0 1 -75.8669 2249.7839)" fill="#FFFFFF" font-family="'MicrosoftYaHei'" font-size="21">4</text>
	
		<text transform="matrix(0.9276 0 0 1 -75.8669 2249.7839)" fill="none" stroke="#3E3A39" stroke-width="0.7" stroke-miterlimit="10" font-family="'MicrosoftYaHei'" font-size="21">4</text>
	<text transform="matrix(0.9276 0 0 1 -75.8669 2300.1824)" fill="#FFFFFF" font-family="'MicrosoftYaHei'" font-size="21">3</text>
	
		<text transform="matrix(0.9276 0 0 1 -75.8669 2300.1824)" fill="none" stroke="#3E3A39" stroke-width="0.7" stroke-miterlimit="10" font-family="'MicrosoftYaHei'" font-size="21">3</text>
	<text transform="matrix(0.9276 0 0 1 -75.8669 2350.5789)" fill="#FFFFFF" font-family="'MicrosoftYaHei'" font-size="21">2</text>
	
		<text transform="matrix(0.9276 0 0 1 -75.8669 2350.5789)" fill="none" stroke="#3E3A39" stroke-width="0.7" stroke-miterlimit="10" font-family="'MicrosoftYaHei'" font-size="21">2</text>
	<text transform="matrix(0.9276 0 0 1 -75.8669 2400.9773)" fill="#FFFFFF" font-family="'MicrosoftYaHei'" font-size="21">1</text>
	
		<text transform="matrix(0.9276 0 0 1 -75.8669 2400.9773)" fill="none" stroke="#3E3A39" stroke-width="0.7" stroke-miterlimit="10" font-family="'MicrosoftYaHei'" font-size="21">1</text>
</g>
<g>
	<polygon fill="#FFFFFF" stroke="#3E3A39" stroke-width="0.7" stroke-miterlimit="10" points="-84.134,326.519 -77.007,332.727 
		-77.007,320.31 	"/>
	<polygon fill="#FFFFFF" stroke="#3E3A39" stroke-width="0.7" stroke-miterlimit="10" points="-84.134,376.916 -77.007,383.125 
		-77.007,370.708 	"/>
	<polygon fill="#FFFFFF" stroke="#3E3A39" stroke-width="0.7" stroke-miterlimit="10" points="-84.134,427.314 -77.007,433.522 
		-77.007,421.105 	"/>
	<polygon fill="#FFFFFF" stroke="#3E3A39" stroke-width="0.7" stroke-miterlimit="10" points="-84.134,477.711 -77.007,483.919 
		-77.007,471.502 	"/>
	<polygon fill="#FFFFFF" stroke="#3E3A39" stroke-width="0.7" stroke-miterlimit="10" points="-84.134,528.109 -77.007,534.317 
		-77.007,521.9 	"/>
	<polygon fill="#FFFFFF" stroke="#3E3A39" stroke-width="0.7" stroke-miterlimit="10" points="-84.134,578.506 -77.007,584.714 
		-77.007,572.297 	"/>
	<polygon fill="#FFFFFF" stroke="#3E3A39" stroke-width="0.7" stroke-miterlimit="10" points="-84.134,628.904 -77.007,635.112 
		-77.007,622.696 	"/>
	<polygon fill="#FFFFFF" stroke="#3E3A39" stroke-width="0.7" stroke-miterlimit="10" points="-84.134,679.301 -77.007,685.509 
		-77.007,673.093 	"/>
	<polygon fill="#FFFFFF" stroke="#3E3A39" stroke-width="0.7" stroke-miterlimit="10" points="-84.134,729.7 -77.007,735.907 
		-77.007,723.491 	"/>
	<polygon fill="#FFFFFF" stroke="#3E3A39" stroke-width="0.7" stroke-miterlimit="10" points="-84.134,780.095 -77.007,786.303 
		-77.007,773.887 	"/>
	<polygon fill="#FFFFFF" stroke="#3E3A39" stroke-width="0.7" stroke-miterlimit="10" points="-84.134,830.494 -77.007,836.702 
		-77.007,824.286 	"/>
	<polygon fill="#FFFFFF" stroke="#3E3A39" stroke-width="0.7" stroke-miterlimit="10" points="-84.134,880.891 -77.007,887.098 
		-77.007,874.682 	"/>
	<polygon fill="#FFFFFF" stroke="#3E3A39" stroke-width="0.7" stroke-miterlimit="10" points="-84.134,931.289 -77.007,937.497 
		-77.007,925.081 	"/>
	<polygon fill="#FFFFFF" stroke="#3E3A39" stroke-width="0.7" stroke-miterlimit="10" points="-84.134,981.685 -77.007,987.893 
		-77.007,975.477 	"/>
	<polygon fill="#FFFFFF" stroke="#3E3A39" stroke-width="0.7" stroke-miterlimit="10" points="-84.134,1032.085 -77.007,1038.292 
		-77.007,1025.876 	"/>
	<polygon fill="#FFFFFF" stroke="#3E3A39" stroke-width="0.7" stroke-miterlimit="10" points="-84.134,1082.481 -77.007,1088.688 
		-77.007,1076.272 	"/>
	<polygon fill="#FFFFFF" stroke="#3E3A39" stroke-width="0.7" stroke-miterlimit="10" points="-84.134,1132.879 -77.007,1139.086 
		-77.007,1126.67 	"/>
	<polygon fill="#FFFFFF" stroke="#3E3A39" stroke-width="0.7" stroke-miterlimit="10" points="-84.134,1183.276 -77.007,1189.485 
		-77.007,1177.069 	"/>
	<polygon fill="#FFFFFF" stroke="#3E3A39" stroke-width="0.7" stroke-miterlimit="10" points="-84.134,1233.674 -77.007,1239.883 
		-77.007,1227.465 	"/>
	<polygon fill="#FFFFFF" stroke="#3E3A39" stroke-width="0.7" stroke-miterlimit="10" points="-84.134,1284.072 -77.007,1290.281 
		-77.007,1277.863 	"/>
	<polygon fill="#FFFFFF" stroke="#3E3A39" stroke-width="0.7" stroke-miterlimit="10" points="-84.134,1334.469 -77.007,1340.677 
		-77.007,1328.26 	"/>
	<polygon fill="#FFFFFF" stroke="#3E3A39" stroke-width="0.7" stroke-miterlimit="10" points="-84.134,1384.868 -77.007,1391.075 
		-77.007,1378.659 	"/>
	<polygon fill="#FFFFFF" stroke="#3E3A39" stroke-width="0.7" stroke-miterlimit="10" points="-84.134,1435.264 -77.007,1441.471 
		-77.007,1429.055 	"/>
	<polygon fill="#FFFFFF" stroke="#3E3A39" stroke-width="0.7" stroke-miterlimit="10" points="-84.134,1485.663 -77.007,1491.87 
		-77.007,1479.454 	"/>
	<polygon fill="#FFFFFF" stroke="#3E3A39" stroke-width="0.7" stroke-miterlimit="10" points="-84.134,1536.057 -77.007,1542.266 
		-77.007,1529.85 	"/>
	<polygon fill="#FFFFFF" stroke="#3E3A39" stroke-width="0.7" stroke-miterlimit="10" points="-84.134,1586.456 -77.007,1592.665 
		-77.007,1580.249 	"/>
	<polygon fill="#FFFFFF" stroke="#3E3A39" stroke-width="0.7" stroke-miterlimit="10" points="-84.134,1636.854 -77.007,1643.061 
		-77.007,1630.645 	"/>
	<polygon fill="#FFFFFF" stroke="#3E3A39" stroke-width="0.7" stroke-miterlimit="10" points="-84.134,1687.251 -77.007,1693.46 
		-77.007,1681.044 	"/>
	<polygon fill="#FFFFFF" stroke="#3E3A39" stroke-width="0.7" stroke-miterlimit="10" points="-84.134,1737.647 -77.007,1743.856 
		-77.007,1731.44 	"/>
	<polygon fill="#FFFFFF" stroke="#3E3A39" stroke-width="0.7" stroke-miterlimit="10" points="-84.134,1788.047 -77.007,1794.254 
		-77.007,1781.838 	"/>
	<polygon fill="#FFFFFF" stroke="#3E3A39" stroke-width="0.7" stroke-miterlimit="10" points="-84.134,1838.444 -77.007,1844.652 
		-77.007,1832.236 	"/>
	<polygon fill="#FFFFFF" stroke="#3E3A39" stroke-width="0.7" stroke-miterlimit="10" points="-84.134,1888.841 -77.007,1895.049 
		-77.007,1882.633 	"/>
	<polygon fill="#FFFFFF" stroke="#3E3A39" stroke-width="0.7" stroke-miterlimit="10" points="-84.134,1939.239 -77.007,1945.448 
		-77.007,1933.032 	"/>
	<polygon fill="#FFFFFF" stroke="#3E3A39" stroke-width="0.7" stroke-miterlimit="10" points="-84.134,1989.636 -77.007,1995.845 
		-77.007,1983.427 	"/>
	<polygon fill="#FFFFFF" stroke="#3E3A39" stroke-width="0.7" stroke-miterlimit="10" points="-84.134,2040.034 -77.007,2046.243 
		-77.007,2033.825 	"/>
	<polygon fill="#FFFFFF" stroke="#3E3A39" stroke-width="0.7" stroke-miterlimit="10" points="-84.134,2090.431 -77.007,2096.64 
		-77.007,2084.222 	"/>
	<polygon fill="#FFFFFF" stroke="#3E3A39" stroke-width="0.7" stroke-miterlimit="10" points="-84.134,2140.831 -77.007,2147.038 
		-77.007,2134.622 	"/>
	<polygon fill="#FFFFFF" stroke="#3E3A39" stroke-width="0.7" stroke-miterlimit="10" points="-84.134,2191.227 -77.007,2197.434 
		-77.007,2185.018 	"/>
	<polygon fill="#FFFFFF" stroke="#3E3A39" stroke-width="0.7" stroke-miterlimit="10" points="-84.134,2241.626 -77.007,2247.833 
		-77.007,2235.417 	"/>
	<polygon fill="#FFFFFF" stroke="#3E3A39" stroke-width="0.7" stroke-miterlimit="10" points="-84.134,2292.02 -77.007,2298.229 
		-77.007,2285.813 	"/>
	<polygon fill="#FFFFFF" stroke="#3E3A39" stroke-width="0.7" stroke-miterlimit="10" points="-84.134,2342.419 -77.007,2348.627 
		-77.007,2336.211 	"/>
	<polygon fill="#FFFFFF" stroke="#3E3A39" stroke-width="0.7" stroke-miterlimit="10" points="-84.134,2392.817 -77.007,2399.024 
		-77.007,2386.608 	"/>
</g>
</svg>
