<?xml version="1.0" encoding="utf-8"?>
<!-- Generator: Adobe Illustrator 19.0.0, SVG Export Plug-In . SVG Version: 6.00 Build 0)  -->
<svg version="1.1" id="图层_1" xmlns="http://www.w3.org/2000/svg" xmlns:xlink="http://www.w3.org/1999/xlink" x="0px" y="0px"
	 width="221.1px" height="46.3px" viewBox="0 0 221.1 46.3" enable-background="new 0 0 221.1 46.3" xml:space="preserve">
<g id="XMLID_92_">
	
		<linearGradient id="XMLID_1002_" gradientUnits="userSpaceOnUse" x1="3169.8481" y1="-505.1058" x2="3390.9482" y2="-505.1058" gradientTransform="matrix(-1 0 0 1 3390.9482 528.2058)">
		<stop  offset="0" style="stop-color:#5E605F"/>
		<stop  offset="1" style="stop-color:#474446"/>
	</linearGradient>
	<rect id="XMLID_987_" fill="url(#XMLID_1002_)" width="221.1" height="46.2"/>
	
		<linearGradient id="XMLID_1003_" gradientUnits="userSpaceOnUse" x1="3169.8481" y1="-482.7558" x2="3390.9482" y2="-482.7558" gradientTransform="matrix(-1 0 0 1 3390.9482 528.2058)">
		<stop  offset="0" style="stop-color:#858586"/>
		<stop  offset="0.4843" style="stop-color:#838384"/>
		<stop  offset="0.7355" style="stop-color:#7D7B7E"/>
		<stop  offset="0.9326" style="stop-color:#716E72"/>
		<stop  offset="1" style="stop-color:#6C676D"/>
	</linearGradient>
	<rect id="XMLID_986_" y="44.6" fill="url(#XMLID_1003_)" width="221.1" height="1.7"/>
	
		<linearGradient id="XMLID_1004_" gradientUnits="userSpaceOnUse" x1="3202.8481" y1="-486.1602" x2="3202.8481" y2="-530.8468" gradientTransform="matrix(-1 0 0 1 3390.9482 528.2058)">
		<stop  offset="0" style="stop-color:#106186"/>
		<stop  offset="0.4261" style="stop-color:#40B4D4"/>
		<stop  offset="0.4462" style="stop-color:#42B8D8"/>
		<stop  offset="0.5669" style="stop-color:#40B5D5"/>
		<stop  offset="0.6666" style="stop-color:#3AAACC"/>
		<stop  offset="0.7588" style="stop-color:#3199BC"/>
		<stop  offset="0.8464" style="stop-color:#2381A5"/>
		<stop  offset="0.9301" style="stop-color:#126289"/>
		<stop  offset="1" style="stop-color:#00426B"/>
	</linearGradient>
	<rect id="XMLID_985_" x="181.9" fill="url(#XMLID_1004_)" width="12.4" height="44.6"/>
	<g id="XMLID_815_">
		<g id="XMLID_983_">
			<rect id="XMLID_984_" x="161.8" y="28.2" fill="#444142" width="8.8" height="8.8"/>
		</g>
		<g id="XMLID_981_">
			<rect id="XMLID_982_" x="161.8" y="16.8" fill="#444142" width="8.8" height="8.8"/>
		</g>
		<g id="XMLID_979_">
			<rect id="XMLID_980_" x="161.8" y="5.5" fill="#444142" width="8.8" height="8.8"/>
		</g>
		<g id="XMLID_977_">
			<rect id="XMLID_978_" x="150.5" y="28.2" fill="#444142" width="8.8" height="8.8"/>
		</g>
		<g id="XMLID_975_">
			<rect id="XMLID_976_" x="150.5" y="16.8" fill="#444142" width="8.8" height="8.8"/>
		</g>
		<g id="XMLID_973_">
			<rect id="XMLID_974_" x="150.5" y="5.5" fill="#444142" width="8.8" height="8.8"/>
		</g>
		<g id="XMLID_971_">
			<rect id="XMLID_972_" x="139.2" y="28.2" fill="#444142" width="8.8" height="8.8"/>
		</g>
		<g id="XMLID_969_">
			<rect id="XMLID_970_" x="139.2" y="16.8" fill="#444142" width="8.8" height="8.8"/>
		</g>
		<g id="XMLID_967_">
			<rect id="XMLID_968_" x="139.2" y="5.5" fill="#444142" width="8.8" height="8.8"/>
		</g>
		<g id="XMLID_965_">
			<rect id="XMLID_966_" x="127.8" y="28.2" fill="#444142" width="8.8" height="8.8"/>
		</g>
		<g id="XMLID_963_">
			<rect id="XMLID_964_" x="127.8" y="16.8" fill="#444142" width="8.8" height="8.8"/>
		</g>
		<g id="XMLID_961_">
			<rect id="XMLID_962_" x="127.8" y="5.5" fill="#444142" width="8.8" height="8.8"/>
		</g>
		<g id="XMLID_959_">
			<rect id="XMLID_960_" x="116.5" y="28.2" fill="#444142" width="8.8" height="8.8"/>
		</g>
		<g id="XMLID_957_">
			<rect id="XMLID_958_" x="116.5" y="16.8" fill="#444142" width="8.8" height="8.8"/>
		</g>
		<g id="XMLID_955_">
			<rect id="XMLID_956_" x="116.5" y="5.5" fill="#444142" width="8.8" height="8.8"/>
		</g>
		<g id="XMLID_953_">
			<rect id="XMLID_954_" x="105.1" y="28.2" fill="#444142" width="8.8" height="8.8"/>
		</g>
		<g id="XMLID_951_">
			<rect id="XMLID_952_" x="105.1" y="16.8" fill="#444142" width="8.8" height="8.8"/>
		</g>
		<g id="XMLID_949_">
			<rect id="XMLID_950_" x="105.1" y="5.5" fill="#444142" width="8.8" height="8.8"/>
		</g>
		<g id="XMLID_947_">
			<rect id="XMLID_948_" x="93.8" y="28.2" fill="#444142" width="8.8" height="8.8"/>
		</g>
		<g id="XMLID_945_">
			<rect id="XMLID_946_" x="93.8" y="16.8" fill="#444142" width="8.8" height="8.8"/>
		</g>
		<g id="XMLID_943_">
			<rect id="XMLID_944_" x="93.8" y="5.5" fill="#444142" width="8.8" height="8.8"/>
		</g>
		<g id="XMLID_941_">
			<rect id="XMLID_942_" x="82.5" y="28.2" fill="#444142" width="8.8" height="8.8"/>
		</g>
		<g id="XMLID_939_">
			<rect id="XMLID_940_" x="82.5" y="16.8" fill="#444142" width="8.8" height="8.8"/>
		</g>
		<g id="XMLID_937_">
			<rect id="XMLID_938_" x="82.5" y="5.5" fill="#444142" width="8.8" height="8.8"/>
		</g>
		<g id="XMLID_935_">
			<rect id="XMLID_936_" x="71.1" y="28.2" fill="#444142" width="8.8" height="8.8"/>
		</g>
		<g id="XMLID_933_">
			<rect id="XMLID_934_" x="71.1" y="16.8" fill="#444142" width="8.8" height="8.8"/>
		</g>
		<g id="XMLID_931_">
			<rect id="XMLID_932_" x="71.1" y="5.5" fill="#444142" width="8.8" height="8.8"/>
		</g>
		<g id="XMLID_929_">
			<rect id="XMLID_930_" x="59.8" y="28.2" fill="#444142" width="8.8" height="8.8"/>
		</g>
		<g id="XMLID_927_">
			<rect id="XMLID_928_" x="59.8" y="16.8" fill="#444142" width="8.8" height="8.8"/>
		</g>
		<g id="XMLID_925_">
			<rect id="XMLID_926_" x="59.8" y="5.5" fill="#444142" width="8.8" height="8.8"/>
		</g>
		<g id="XMLID_923_">
			<rect id="XMLID_924_" x="48.5" y="28.2" fill="#444142" width="8.8" height="8.8"/>
		</g>
		<g id="XMLID_921_">
			<rect id="XMLID_922_" x="48.5" y="16.8" fill="#444142" width="8.8" height="8.8"/>
		</g>
		<g id="XMLID_919_">
			<rect id="XMLID_920_" x="48.5" y="5.5" fill="#444142" width="8.8" height="8.8"/>
		</g>
		<g id="XMLID_917_">
			<rect id="XMLID_918_" x="37.1" y="28.2" fill="#444142" width="8.8" height="8.8"/>
		</g>
		<g id="XMLID_915_">
			<rect id="XMLID_916_" x="37.1" y="16.8" fill="#444142" width="8.8" height="8.8"/>
		</g>
		<g id="XMLID_913_">
			<rect id="XMLID_914_" x="37.1" y="5.5" fill="#444142" width="8.8" height="8.8"/>
		</g>
		<g id="XMLID_911_">
			<rect id="XMLID_912_" x="25.8" y="28.2" fill="#444142" width="8.8" height="8.8"/>
		</g>
		<g id="XMLID_909_">
			<rect id="XMLID_910_" x="25.8" y="16.8" fill="#444142" width="8.8" height="8.8"/>
		</g>
		<g id="XMLID_907_">
			<rect id="XMLID_908_" x="25.8" y="5.5" fill="#444142" width="8.8" height="8.8"/>
		</g>
		<g id="XMLID_905_">
			<rect id="XMLID_906_" x="14.4" y="28.2" fill="#444142" width="8.8" height="8.8"/>
		</g>
		<g id="XMLID_903_">
			<rect id="XMLID_904_" x="14.4" y="16.8" fill="#444142" width="8.8" height="8.8"/>
		</g>
		<g id="XMLID_901_">
			<rect id="XMLID_902_" x="14.4" y="5.5" fill="#444142" width="8.8" height="8.8"/>
		</g>
		<g id="XMLID_816_">
			<g id="XMLID_899_">
				<rect id="XMLID_900_" x="160.8" y="27.2" fill="#101112" width="8.8" height="8.8"/>
			</g>
			<g id="XMLID_897_">
				<rect id="XMLID_898_" x="160.8" y="15.8" fill="#101112" width="8.8" height="8.8"/>
			</g>
			<g id="XMLID_895_">
				<rect id="XMLID_896_" x="160.8" y="4.5" fill="#101112" width="8.8" height="8.8"/>
			</g>
			<g id="XMLID_893_">
				<rect id="XMLID_894_" x="149.5" y="27.2" fill="#101112" width="8.8" height="8.8"/>
			</g>
			<g id="XMLID_891_">
				<rect id="XMLID_892_" x="149.5" y="15.8" fill="#101112" width="8.8" height="8.8"/>
			</g>
			<g id="XMLID_889_">
				<rect id="XMLID_890_" x="149.5" y="4.5" fill="#101112" width="8.8" height="8.8"/>
			</g>
			<g id="XMLID_887_">
				<rect id="XMLID_888_" x="138.2" y="27.2" fill="#101112" width="8.8" height="8.8"/>
			</g>
			<g id="XMLID_885_">
				<rect id="XMLID_886_" x="138.2" y="15.8" fill="#101112" width="8.8" height="8.8"/>
			</g>
			<g id="XMLID_883_">
				<rect id="XMLID_884_" x="138.2" y="4.5" fill="#101112" width="8.8" height="8.8"/>
			</g>
			<g id="XMLID_881_">
				<rect id="XMLID_882_" x="126.8" y="27.2" fill="#101112" width="8.8" height="8.8"/>
			</g>
			<g id="XMLID_879_">
				<rect id="XMLID_880_" x="126.8" y="15.8" fill="#101112" width="8.8" height="8.8"/>
			</g>
			<g id="XMLID_877_">
				<rect id="XMLID_878_" x="126.8" y="4.5" fill="#101112" width="8.8" height="8.8"/>
			</g>
			<g id="XMLID_875_">
				<rect id="XMLID_876_" x="115.5" y="27.2" fill="#101112" width="8.8" height="8.8"/>
			</g>
			<g id="XMLID_873_">
				<rect id="XMLID_874_" x="115.5" y="15.8" fill="#101112" width="8.8" height="8.8"/>
			</g>
			<g id="XMLID_871_">
				<rect id="XMLID_872_" x="115.5" y="4.5" fill="#101112" width="8.8" height="8.8"/>
			</g>
			<g id="XMLID_869_">
				<rect id="XMLID_870_" x="104.1" y="27.2" fill="#101112" width="8.8" height="8.8"/>
			</g>
			<g id="XMLID_867_">
				<rect id="XMLID_868_" x="104.1" y="15.8" fill="#101112" width="8.8" height="8.8"/>
			</g>
			<g id="XMLID_865_">
				<rect id="XMLID_866_" x="104.1" y="4.5" fill="#101112" width="8.8" height="8.8"/>
			</g>
			<g id="XMLID_863_">
				<rect id="XMLID_864_" x="92.8" y="27.2" fill="#101112" width="8.8" height="8.8"/>
			</g>
			<g id="XMLID_861_">
				<rect id="XMLID_862_" x="92.8" y="15.8" fill="#101112" width="8.8" height="8.8"/>
			</g>
			<g id="XMLID_859_">
				<rect id="XMLID_860_" x="92.8" y="4.5" fill="#101112" width="8.8" height="8.8"/>
			</g>
			<g id="XMLID_857_">
				<rect id="XMLID_858_" x="81.5" y="27.2" fill="#101112" width="8.8" height="8.8"/>
			</g>
			<g id="XMLID_855_">
				<rect id="XMLID_856_" x="81.5" y="15.8" fill="#101112" width="8.8" height="8.8"/>
			</g>
			<g id="XMLID_853_">
				<rect id="XMLID_854_" x="81.5" y="4.5" fill="#101112" width="8.8" height="8.8"/>
			</g>
			<g id="XMLID_851_">
				<rect id="XMLID_852_" x="70.1" y="27.2" fill="#101112" width="8.8" height="8.8"/>
			</g>
			<g id="XMLID_849_">
				<rect id="XMLID_850_" x="70.1" y="15.8" fill="#101112" width="8.8" height="8.8"/>
			</g>
			<g id="XMLID_847_">
				<rect id="XMLID_848_" x="70.1" y="4.5" fill="#101112" width="8.8" height="8.8"/>
			</g>
			<g id="XMLID_845_">
				<rect id="XMLID_846_" x="58.8" y="27.2" fill="#101112" width="8.8" height="8.8"/>
			</g>
			<g id="XMLID_843_">
				<rect id="XMLID_844_" x="58.8" y="15.8" fill="#101112" width="8.8" height="8.8"/>
			</g>
			<g id="XMLID_841_">
				<rect id="XMLID_842_" x="58.8" y="4.5" fill="#101112" width="8.8" height="8.8"/>
			</g>
			<g id="XMLID_839_">
				<rect id="XMLID_840_" x="47.5" y="27.2" fill="#101112" width="8.8" height="8.8"/>
			</g>
			<g id="XMLID_837_">
				<rect id="XMLID_838_" x="47.5" y="15.8" fill="#101112" width="8.8" height="8.8"/>
			</g>
			<g id="XMLID_835_">
				<rect id="XMLID_836_" x="47.5" y="4.5" fill="#101112" width="8.8" height="8.8"/>
			</g>
			<g id="XMLID_833_">
				<rect id="XMLID_834_" x="36.1" y="27.2" fill="#101112" width="8.8" height="8.8"/>
			</g>
			<g id="XMLID_831_">
				<rect id="XMLID_832_" x="36.1" y="15.8" fill="#101112" width="8.8" height="8.8"/>
			</g>
			<g id="XMLID_829_">
				<rect id="XMLID_830_" x="36.1" y="4.5" fill="#101112" width="8.8" height="8.8"/>
			</g>
			<g id="XMLID_827_">
				<rect id="XMLID_828_" x="24.8" y="27.2" fill="#101112" width="8.8" height="8.8"/>
			</g>
			<g id="XMLID_825_">
				<rect id="XMLID_826_" x="24.8" y="15.8" fill="#101112" width="8.8" height="8.8"/>
			</g>
			<g id="XMLID_823_">
				<rect id="XMLID_824_" x="24.8" y="4.5" fill="#101112" width="8.8" height="8.8"/>
			</g>
			<g id="XMLID_821_">
				<rect id="XMLID_822_" x="13.4" y="27.2" fill="#101112" width="8.8" height="8.8"/>
			</g>
			<g id="XMLID_819_">
				<rect id="XMLID_820_" x="13.4" y="15.8" fill="#101112" width="8.8" height="8.8"/>
			</g>
			<g id="XMLID_817_">
				<rect id="XMLID_818_" x="13.4" y="4.5" fill="#101112" width="8.8" height="8.8"/>
			</g>
		</g>
	</g>
	<g id="XMLID_93_">
		<g id="XMLID_813_">
			<rect id="XMLID_814_" x="160.8" y="27.2" fill="#101112" width="8.8" height="8.8"/>
		</g>
		<g id="XMLID_811_">
			<rect id="XMLID_812_" x="160.8" y="15.8" fill="#101112" width="8.8" height="8.8"/>
		</g>
		<g id="XMLID_809_">
			<rect id="XMLID_810_" x="160.8" y="4.5" fill="#101112" width="8.8" height="8.8"/>
		</g>
		<g id="XMLID_807_">
			<rect id="XMLID_808_" x="149.5" y="27.2" fill="#101112" width="8.8" height="8.8"/>
		</g>
		<g id="XMLID_805_">
			<rect id="XMLID_806_" x="149.5" y="15.8" fill="#101112" width="8.8" height="8.8"/>
		</g>
		<g id="XMLID_803_">
			<rect id="XMLID_804_" x="149.5" y="4.5" fill="#101112" width="8.8" height="8.8"/>
		</g>
		<g id="XMLID_801_">
			<rect id="XMLID_802_" x="138.2" y="27.2" fill="#101112" width="8.8" height="8.8"/>
		</g>
		<g id="XMLID_799_">
			<rect id="XMLID_800_" x="138.2" y="15.8" fill="#101112" width="8.8" height="8.8"/>
		</g>
		<g id="XMLID_797_">
			<rect id="XMLID_798_" x="138.2" y="4.5" fill="#101112" width="8.8" height="8.8"/>
		</g>
		<g id="XMLID_795_">
			<rect id="XMLID_796_" x="126.8" y="27.2" fill="#101112" width="8.8" height="8.8"/>
		</g>
		<g id="XMLID_793_">
			<rect id="XMLID_794_" x="126.8" y="15.8" fill="#101112" width="8.8" height="8.8"/>
		</g>
		<g id="XMLID_791_">
			<rect id="XMLID_792_" x="126.8" y="4.5" fill="#101112" width="8.8" height="8.8"/>
		</g>
		<g id="XMLID_789_">
			<rect id="XMLID_790_" x="115.5" y="27.2" fill="#101112" width="8.8" height="8.8"/>
		</g>
		<g id="XMLID_787_">
			<rect id="XMLID_788_" x="115.5" y="15.8" fill="#101112" width="8.8" height="8.8"/>
		</g>
		<g id="XMLID_785_">
			<rect id="XMLID_786_" x="115.5" y="4.5" fill="#101112" width="8.8" height="8.8"/>
		</g>
		<g id="XMLID_783_">
			<rect id="XMLID_784_" x="104.1" y="27.2" fill="#101112" width="8.8" height="8.8"/>
		</g>
		<g id="XMLID_781_">
			<rect id="XMLID_782_" x="104.1" y="15.8" fill="#101112" width="8.8" height="8.8"/>
		</g>
		<g id="XMLID_779_">
			<rect id="XMLID_780_" x="104.1" y="4.5" fill="#101112" width="8.8" height="8.8"/>
		</g>
		<g id="XMLID_777_">
			<rect id="XMLID_778_" x="92.8" y="27.2" fill="#101112" width="8.8" height="8.8"/>
		</g>
		<g id="XMLID_775_">
			<rect id="XMLID_776_" x="92.8" y="15.8" fill="#101112" width="8.8" height="8.8"/>
		</g>
		<g id="XMLID_773_">
			<rect id="XMLID_774_" x="92.8" y="4.5" fill="#101112" width="8.8" height="8.8"/>
		</g>
		<g id="XMLID_771_">
			<rect id="XMLID_772_" x="81.5" y="27.2" fill="#101112" width="8.8" height="8.8"/>
		</g>
		<g id="XMLID_769_">
			<rect id="XMLID_770_" x="81.5" y="15.8" fill="#101112" width="8.8" height="8.8"/>
		</g>
		<g id="XMLID_767_">
			<rect id="XMLID_768_" x="81.5" y="4.5" fill="#101112" width="8.8" height="8.8"/>
		</g>
		<g id="XMLID_765_">
			<rect id="XMLID_766_" x="70.1" y="27.2" fill="#101112" width="8.8" height="8.8"/>
		</g>
		<g id="XMLID_763_">
			<rect id="XMLID_764_" x="70.1" y="15.8" fill="#101112" width="8.8" height="8.8"/>
		</g>
		<g id="XMLID_761_">
			<rect id="XMLID_762_" x="70.1" y="4.5" fill="#101112" width="8.8" height="8.8"/>
		</g>
		<g id="XMLID_759_">
			<rect id="XMLID_760_" x="58.8" y="27.2" fill="#101112" width="8.8" height="8.8"/>
		</g>
		<g id="XMLID_757_">
			<rect id="XMLID_758_" x="58.8" y="15.8" fill="#101112" width="8.8" height="8.8"/>
		</g>
		<g id="XMLID_755_">
			<rect id="XMLID_756_" x="58.8" y="4.5" fill="#101112" width="8.8" height="8.8"/>
		</g>
		<g id="XMLID_142_">
			<rect id="XMLID_143_" x="47.5" y="27.2" fill="#101112" width="8.8" height="8.8"/>
		</g>
		<g id="XMLID_140_">
			<rect id="XMLID_141_" x="47.5" y="15.8" fill="#101112" width="8.8" height="8.8"/>
		</g>
		<g id="XMLID_138_">
			<rect id="XMLID_139_" x="47.5" y="4.5" fill="#101112" width="8.8" height="8.8"/>
		</g>
		<g id="XMLID_136_">
			<rect id="XMLID_137_" x="36.1" y="27.2" fill="#101112" width="8.8" height="8.8"/>
		</g>
		<g id="XMLID_134_">
			<rect id="XMLID_135_" x="36.1" y="15.8" fill="#101112" width="8.8" height="8.8"/>
		</g>
		<g id="XMLID_132_">
			<rect id="XMLID_133_" x="36.1" y="4.5" fill="#101112" width="8.8" height="8.8"/>
		</g>
		<g id="XMLID_130_">
			<rect id="XMLID_131_" x="24.8" y="27.2" fill="#101112" width="8.8" height="8.8"/>
		</g>
		<g id="XMLID_128_">
			<rect id="XMLID_129_" x="24.8" y="15.8" fill="#101112" width="8.8" height="8.8"/>
		</g>
		<g id="XMLID_126_">
			<rect id="XMLID_127_" x="24.8" y="4.5" fill="#101112" width="8.8" height="8.8"/>
		</g>
		<g id="XMLID_124_">
			<rect id="XMLID_125_" x="13.4" y="27.2" fill="#101112" width="8.8" height="8.8"/>
		</g>
		<g id="XMLID_122_">
			<rect id="XMLID_123_" x="13.4" y="15.8" fill="#101112" width="8.8" height="8.8"/>
		</g>
		<g id="XMLID_94_">
			<rect id="XMLID_121_" x="13.4" y="4.5" fill="#101112" width="8.8" height="8.8"/>
		</g>
	</g>
</g>
</svg>
