<?xml version="1.0" encoding="utf-8"?>
<!-- Generator: Adobe Illustrator 19.0.0, SVG Export Plug-In . SVG Version: 6.00 Build 0)  -->
<svg version="1.1" id="图层_1" xmlns="http://www.w3.org/2000/svg" xmlns:xlink="http://www.w3.org/1999/xlink" x="0px" y="0px"
	 width="89.7px" height="89.799px" viewBox="0 0 89.7 89.799" enable-background="new 0 0 89.7 89.799" xml:space="preserve">
<g id="XMLID_92_">
	<g id="XMLID_93_">
		<g id="XMLID_94_">
			<path id="XMLID_834_" fill="#4B4949" d="M18,12.4c-0.1-0.3-0.2-0.5-0.2-0.8V9.1c-0.3,0.3-0.7,0.5-1,0.8v0.7
				C16.8,11.4,17.3,12.1,18,12.4z"/>
			<path id="XMLID_835_" fill="#4B4949" d="M38.2,12.4c-0.1-0.3-0.2-0.5-0.2-0.8V0.9c0-0.1,0-0.3,0-0.4c-0.3,0.1-0.7,0.1-1,0.2v9.9
				C37,11.4,37.5,12.1,38.2,12.4z"/>
			<path id="XMLID_836_" fill="#4B4949" d="M58.4,12.4c-0.1-0.3-0.2-0.5-0.2-0.8V2.1c-0.3-0.1-0.7-0.2-1-0.3v8.8
				C57.2,11.4,57.7,12.1,58.4,12.4z"/>
			<path id="XMLID_837_" fill="#4B4949" d="M10.3,18.6c0.3,0,0.6,0.1,0.8,0.2c-0.3-0.7-1-1.2-1.8-1.2H9.2c-0.3,0.3-0.5,0.7-0.7,1
				H10.3z"/>
			<path id="XMLID_838_" fill="#4B4949" d="M17.8,20.6c0-1.1,0.9-2,2-2h10.7c0.3,0,0.6,0.1,0.8,0.2c-0.3-0.7-1-1.2-1.8-1.2H18.8
				c-1.1,0-2,0.9-2,2v10.7c0,0.8,0.5,1.5,1.2,1.8c-0.1-0.3-0.2-0.5-0.2-0.8V20.6z"/>
			<path id="XMLID_839_" fill="#4B4949" d="M38,20.6c0-1.1,0.9-2,2-2h10.7c0.3,0,0.6,0.1,0.8,0.2c-0.3-0.7-1-1.2-1.8-1.2H39
				c-1.1,0-2,0.9-2,2v10.7c0,0.8,0.5,1.5,1.2,1.8c-0.1-0.3-0.2-0.5-0.2-0.8V20.6z"/>
			<path id="XMLID_840_" fill="#4B4949" d="M58.2,20.6c0-1.1,0.9-2,2-2h10.7c0.3,0,0.6,0.1,0.8,0.2c-0.3-0.7-1-1.2-1.8-1.2H59.2
				c-1.1,0-2,0.9-2,2v10.7c0,0.8,0.5,1.5,1.2,1.8c-0.1-0.3-0.2-0.5-0.2-0.8V20.6z"/>
			<path id="XMLID_841_" fill="#4B4949" d="M77.4,19.6v10.7c0,0.8,0.5,1.5,1.2,1.8c-0.1-0.3-0.2-0.5-0.2-0.8V20.6c0-1.1,0.9-2,2-2
				h0.8c-0.2-0.3-0.5-0.7-0.7-1h-1.1C78.3,17.6,77.4,18.5,77.4,19.6z"/>
			<path id="XMLID_842_" fill="#4B4949" d="M10.3,38.1c0.3,0,0.6,0.1,0.8,0.2c-0.3-0.7-1-1.2-1.8-1.2H0.6c-0.1,0.3-0.1,0.7-0.2,1
				H10.3z"/>
			<path id="XMLID_843_" fill="#4B4949" d="M17.8,40.1c0-1.1,0.9-2,2-2h10.7c0.3,0,0.6,0.1,0.8,0.2c-0.3-0.7-1-1.2-1.8-1.2H18.8
				c-1.1,0-2,0.9-2,2v10.7c0,0.8,0.5,1.5,1.2,1.8c-0.1-0.3-0.2-0.5-0.2-0.8V40.1z"/>
			<path id="XMLID_844_" fill="#4B4949" d="M38,40.1c0-1.1,0.9-2,2-2h10.7c0.3,0,0.6,0.1,0.8,0.2c-0.3-0.7-1-1.2-1.8-1.2H39
				c-1.1,0-2,0.9-2,2v10.7c0,0.8,0.5,1.5,1.2,1.8c-0.1-0.3-0.2-0.5-0.2-0.8V40.1z"/>
			<path id="XMLID_845_" fill="#4B4949" d="M58.2,40.1c0-1.1,0.9-2,2-2h10.7c0.3,0,0.6,0.1,0.8,0.2c-0.3-0.7-1-1.2-1.8-1.2H59.2
				c-1.1,0-2,0.9-2,2v10.7c0,0.8,0.5,1.5,1.2,1.8c-0.1-0.3-0.2-0.5-0.2-0.8V40.1z"/>
			<path id="XMLID_846_" fill="#4B4949" d="M77.4,39.1v10.7c0,0.8,0.5,1.5,1.2,1.8c-0.1-0.3-0.2-0.5-0.2-0.8V40.1c0-1.1,0.9-2,2-2
				h8.8c-0.1-0.3-0.1-0.7-0.2-1h-9.6C78.3,37.1,77.4,38,77.4,39.1z"/>
			<path id="XMLID_847_" fill="#4B4949" d="M10.3,57.7c0.3,0,0.6,0.1,0.8,0.2c-0.3-0.7-1-1.2-1.8-1.2H1.5c0.1,0.3,0.2,0.7,0.3,1
				H10.3z"/>
			<path id="XMLID_848_" fill="#4B4949" d="M17.8,59.7c0-1.1,0.9-2,2-2h10.7c0.3,0,0.6,0.1,0.8,0.2c-0.3-0.7-1-1.2-1.8-1.2H18.8
				c-1.1,0-2,0.9-2,2v10.7c0,0.8,0.5,1.5,1.2,1.8c-0.1-0.3-0.2-0.5-0.2-0.8V59.7z"/>
			<path id="XMLID_849_" fill="#4B4949" d="M38,59.7c0-1.1,0.9-2,2-2h10.7c0.3,0,0.6,0.1,0.8,0.2c-0.3-0.7-1-1.2-1.8-1.2H39
				c-1.1,0-2,0.9-2,2v10.7c0,0.8,0.5,1.5,1.2,1.8c-0.1-0.3-0.2-0.5-0.2-0.8V59.7z"/>
			<path id="XMLID_850_" fill="#4B4949" d="M58.2,59.7c0-1.1,0.9-2,2-2h10.7c0.3,0,0.6,0.1,0.8,0.2c-0.3-0.7-1-1.2-1.8-1.2H59.2
				c-1.1,0-2,0.9-2,2v10.7c0,0.8,0.5,1.5,1.2,1.8c-0.1-0.3-0.2-0.5-0.2-0.8V59.7z"/>
			<path id="XMLID_851_" fill="#4B4949" d="M77.4,58.7v10.7c0,0.8,0.5,1.5,1.2,1.8c-0.1-0.3-0.2-0.5-0.2-0.8V59.7c0-1.1,0.9-2,2-2
				h7.5c0.1-0.3,0.2-0.7,0.3-1h-8.8C78.3,56.7,77.4,57.6,77.4,58.7z"/>
			<path id="XMLID_852_" fill="#4B4949" d="M17.8,79.2c0-1.1,0.9-2,2-2h10.7c0.3,0,0.6,0.1,0.8,0.2c-0.3-0.7-1-1.2-1.8-1.2H18.8
				c-1.1,0-2,0.9-2,2v1.7c0.3,0.3,0.7,0.5,1,0.8V79.2z"/>
			<path id="XMLID_853_" fill="#4B4949" d="M38,79.2c0-1.1,0.9-2,2-2h10.7c0.3,0,0.6,0.1,0.8,0.2c-0.3-0.7-1-1.2-1.8-1.2H39
				c-1.1,0-2,0.9-2,2v10.7c0,0.1,0,0.1,0,0.2c0.3,0.1,0.7,0.1,1,0.2V79.2z"/>
			<path id="XMLID_854_" fill="#4B4949" d="M58.2,79.2c0-1.1,0.9-2,2-2h10.7c0.3,0,0.6,0.1,0.8,0.2c-0.3-0.7-1-1.2-1.8-1.2H59.2
				c-1.1,0-2,0.9-2,2V88c0.3-0.1,0.7-0.2,1-0.3V79.2z"/>
			<path id="XMLID_855_" fill="#101112" d="M31.5,10.6c0,1.1-0.9,2-2,2H18.8c-0.3,0-0.6-0.1-0.8-0.2c0.3,0.7,1,1.2,1.8,1.2h10.7
				c1.1,0,2-0.9,2-2V1.7c-0.3,0.1-0.7,0.2-1,0.3V10.6z"/>
			<path id="XMLID_856_" fill="#101112" d="M29.5,12.6c1.1,0,2-0.9,2-2V2.1c-5,1.6-9.6,4-13.7,7v2.5c0,0.3,0.1,0.6,0.2,0.8
				c0.3,0.1,0.5,0.2,0.8,0.2H29.5z"/>
			<path id="XMLID_857_" fill="#101112" d="M51.7,10.6c0,1.1-0.9,2-2,2H39c-0.3,0-0.6-0.1-0.8-0.2c0.3,0.7,1,1.2,1.8,1.2h10.7
				c1.1,0,2-0.9,2-2V0.9c0-0.1,0-0.1,0-0.2c-0.3-0.1-0.7-0.1-1-0.2V10.6z"/>
			<path id="XMLID_858_" fill="#101112" d="M49.7,12.6c1.1,0,2-0.9,2-2V0.5C49.5,0.2,47.2,0,44.9,0s-4.6,0.2-6.8,0.5
				c0,0.1,0,0.2,0,0.4v10.7c0,0.3,0.1,0.6,0.2,0.8c0.3,0.1,0.5,0.2,0.8,0.2H49.7z"/>
			<path id="XMLID_859_" fill="#101112" d="M71.9,10.6c0,1.1-0.9,2-2,2H59.2c-0.3,0-0.6-0.1-0.8-0.2c0.3,0.7,1,1.2,1.8,1.2h10.7
				c1.1,0,2-0.9,2-2V9.9c-0.3-0.3-0.7-0.5-1-0.8L71.9,10.6z"/>
			<path id="XMLID_860_" fill="#101112" d="M69.9,12.6c1.1,0,2-0.9,2-2V9.1c-4.1-3.1-8.7-5.5-13.7-7v9.5c0,0.3,0.1,0.6,0.2,0.8
				c0.3,0.1,0.5,0.2,0.8,0.2H69.9z"/>
			<path id="XMLID_861_" fill="#101112" d="M12.3,31.3V20.6c0-0.8-0.5-1.5-1.2-1.8c0.1,0.3,0.2,0.5,0.2,0.8v10.7c0,1.1-0.9,2-2,2
				H1.8c-0.1,0.3-0.2,0.7-0.3,1h8.8C11.4,33.3,12.3,32.4,12.3,31.3z"/>
			<path id="XMLID_862_" fill="#101112" d="M8.5,18.6c-3,4.1-5.3,8.7-6.7,13.7h7.5c1.1,0,2-0.9,2-2V19.6c0-0.3-0.1-0.6-0.2-0.8
				c-0.3-0.1-0.5-0.2-0.8-0.2H8.5z"/>
			<path id="XMLID_863_" fill="#101112" d="M31.3,18.8c0.1,0.3,0.2,0.5,0.2,0.8v10.7c0,1.1-0.9,2-2,2H18.8c-0.3,0-0.6-0.1-0.8-0.2
				c0.3,0.7,1,1.2,1.8,1.2h10.7c1.1,0,2-0.9,2-2V20.6C32.5,19.8,32,19.1,31.3,18.8z"/>
			<path id="XMLID_864_" fill="#101112" d="M29.5,32.3c1.1,0,2-0.9,2-2V19.6c0-0.3-0.1-0.6-0.2-0.8c-0.3-0.1-0.5-0.2-0.8-0.2H19.8
				c-1.1,0-2,0.9-2,2v10.7c0,0.3,0.1,0.6,0.2,0.8c0.3,0.1,0.5,0.2,0.8,0.2H29.5z"/>
			<path id="XMLID_865_" fill="#101112" d="M51.5,18.8c0.1,0.3,0.2,0.5,0.2,0.8v10.7c0,1.1-0.9,2-2,2H39c-0.3,0-0.6-0.1-0.8-0.2
				c0.3,0.7,1,1.2,1.8,1.2h10.7c1.1,0,2-0.9,2-2V20.6C52.7,19.8,52.2,19.1,51.5,18.8z"/>
			<path id="XMLID_866_" fill="#101112" d="M49.7,32.3c1.1,0,2-0.9,2-2V19.6c0-0.3-0.1-0.6-0.2-0.8c-0.3-0.1-0.5-0.2-0.8-0.2H40
				c-1.1,0-2,0.9-2,2v10.7c0,0.3,0.1,0.6,0.2,0.8c0.3,0.1,0.5,0.2,0.8,0.2H49.7z"/>
			<path id="XMLID_867_" fill="#101112" d="M71.7,18.8c0.1,0.3,0.2,0.5,0.2,0.8v10.7c0,1.1-0.9,2-2,2H59.2c-0.3,0-0.6-0.1-0.8-0.2
				c0.3,0.7,1,1.2,1.8,1.2h10.7c1.1,0,2-0.9,2-2V20.6C72.9,19.8,72.4,19.1,71.7,18.8z"/>
			<path id="XMLID_868_" fill="#101112" d="M69.9,32.3c1.1,0,2-0.9,2-2V19.6c0-0.3-0.1-0.6-0.2-0.8c-0.3-0.1-0.5-0.2-0.8-0.2H60.2
				c-1.1,0-2,0.9-2,2v10.7c0,0.3,0.1,0.6,0.2,0.8c0.3,0.1,0.5,0.2,0.8,0.2H69.9z"/>
			<path id="XMLID_869_" fill="#101112" d="M79.4,32.3c-0.3,0-0.6-0.1-0.8-0.2c0.3,0.7,1,1.2,1.8,1.2h7.8c-0.1-0.3-0.2-0.7-0.3-1
				H79.4z"/>
			<path id="XMLID_870_" fill="#101112" d="M87.9,32.3c-1.5-5-3.7-9.6-6.7-13.7h-0.8c-1.1,0-2,0.9-2,2v10.7c0,0.3,0.1,0.6,0.2,0.8
				c0.3,0.1,0.5,0.2,0.8,0.2H87.9z"/>
			<path id="XMLID_871_" fill="#101112" d="M12.3,50.8V40.1c0-0.8-0.5-1.5-1.2-1.8c0.1,0.3,0.2,0.5,0.2,0.8v10.7c0,1.1-0.9,2-2,2
				H0.5c0.1,0.3,0.1,0.7,0.2,1h9.6C11.4,52.8,12.3,51.9,12.3,50.8z"/>
			<path id="XMLID_872_" fill="#101112" d="M0.5,38.1C0.2,40.3,0,42.6,0,44.9c0,2.4,0.2,4.7,0.5,6.9h8.8c1.1,0,2-0.9,2-2V39.1
				c0-0.3-0.1-0.6-0.2-0.8c-0.3-0.1-0.5-0.2-0.8-0.2H0.5z"/>
			<path id="XMLID_873_" fill="#101112" d="M31.3,38.3c0.1,0.3,0.2,0.5,0.2,0.8v10.7c0,1.1-0.9,2-2,2H18.8c-0.3,0-0.6-0.1-0.8-0.2
				c0.3,0.7,1,1.2,1.8,1.2h10.7c1.1,0,2-0.9,2-2V40.1C32.5,39.3,32,38.6,31.3,38.3z"/>
			<path id="XMLID_874_" fill="#101112" d="M29.5,51.8c1.1,0,2-0.9,2-2V39.1c0-0.3-0.1-0.6-0.2-0.8c-0.3-0.1-0.5-0.2-0.8-0.2H19.8
				c-1.1,0-2,0.9-2,2v10.7c0,0.3,0.1,0.6,0.2,0.8c0.3,0.1,0.5,0.2,0.8,0.2L29.5,51.8z"/>
			<path id="XMLID_875_" fill="#101112" d="M51.5,38.3c0.1,0.3,0.2,0.5,0.2,0.8v10.7c0,1.1-0.9,2-2,2H39c-0.3,0-0.6-0.1-0.8-0.2
				c0.3,0.7,1,1.2,1.8,1.2h10.7c1.1,0,2-0.9,2-2V40.1C52.7,39.3,52.2,38.6,51.5,38.3z"/>
			<path id="XMLID_876_" fill="#101112" d="M49.7,51.8c1.1,0,2-0.9,2-2V39.1c0-0.3-0.1-0.6-0.2-0.8c-0.3-0.1-0.5-0.2-0.8-0.2H40
				c-1.1,0-2,0.9-2,2v10.7c0,0.3,0.1,0.6,0.2,0.8c0.3,0.1,0.5,0.2,0.8,0.2L49.7,51.8z"/>
			<path id="XMLID_877_" fill="#101112" d="M71.7,38.3c0.1,0.3,0.2,0.5,0.2,0.8v10.7c0,1.1-0.9,2-2,2H59.2c-0.3,0-0.6-0.1-0.8-0.2
				c0.3,0.7,1,1.2,1.8,1.2h10.7c1.1,0,2-0.9,2-2V40.1C72.9,39.3,72.4,38.6,71.7,38.3z"/>
			<path id="XMLID_878_" fill="#101112" d="M69.9,51.8c1.1,0,2-0.9,2-2V39.1c0-0.3-0.1-0.6-0.2-0.8c-0.3-0.1-0.5-0.2-0.8-0.2H60.2
				c-1.1,0-2,0.9-2,2v10.7c0,0.3,0.1,0.6,0.2,0.8c0.3,0.1,0.5,0.2,0.8,0.2L69.9,51.8z"/>
			<path id="XMLID_879_" fill="#101112" d="M79.4,51.8c-0.3,0-0.6-0.1-0.8-0.2c0.3,0.7,1,1.2,1.8,1.2H89c0.1-0.3,0.1-0.7,0.2-1H79.4
				z"/>
			<path id="XMLID_880_" fill="#101112" d="M89.2,51.8c0.3-2.3,0.5-4.6,0.5-6.9c0-2.3-0.2-4.6-0.5-6.8h-8.8c-1.1,0-2,0.9-2,2v10.7
				c0,0.3,0.1,0.6,0.2,0.8c0.3,0.1,0.5,0.2,0.8,0.2H89.2z"/>
			<path id="XMLID_881_" fill="#101112" d="M12.3,70.4V59.7c0-0.8-0.5-1.5-1.2-1.8c0.1,0.3,0.2,0.5,0.2,0.8v10.7c0,1.1-0.9,2-2,2
				H8.6c0.2,0.3,0.5,0.7,0.8,1h0.9C11.4,72.4,12.3,71.5,12.3,70.4z"/>
			<path id="XMLID_882_" fill="#101112" d="M1.8,57.7c1.5,5,3.8,9.6,6.8,13.7h0.7c1.1,0,2-0.9,2-2V58.7c0-0.3-0.1-0.6-0.2-0.8
				c-0.2-0.2-0.5-0.2-0.8-0.2H1.8z"/>
			<path id="XMLID_883_" fill="#101112" d="M31.3,57.9c0.1,0.3,0.2,0.5,0.2,0.8v10.7c0,1.1-0.9,2-2,2H18.8c-0.3,0-0.6-0.1-0.8-0.2
				c0.3,0.7,1,1.2,1.8,1.2h10.7c1.1,0,2-0.9,2-2V59.7C32.5,58.9,32,58.2,31.3,57.9z"/>
			<path id="XMLID_884_" fill="#101112" d="M29.5,71.4c1.1,0,2-0.9,2-2V58.7c0-0.3-0.1-0.6-0.2-0.8c-0.2-0.2-0.5-0.2-0.8-0.2H19.8
				c-1.1,0-2,0.9-2,2v10.7c0,0.3,0.1,0.6,0.2,0.8c0.3,0.1,0.5,0.2,0.8,0.2H29.5z"/>
			<path id="XMLID_885_" fill="#101112" d="M51.5,57.9c0.1,0.3,0.2,0.5,0.2,0.8v10.7c0,1.1-0.9,2-2,2H39c-0.3,0-0.6-0.1-0.8-0.2
				c0.3,0.7,1,1.2,1.8,1.2h10.7c1.1,0,2-0.9,2-2V59.7C52.7,58.9,52.2,58.2,51.5,57.9z"/>
			<path id="XMLID_886_" fill="#101112" d="M49.7,71.4c1.1,0,2-0.9,2-2V58.7c0-0.3-0.1-0.6-0.2-0.8c-0.2-0.2-0.5-0.2-0.8-0.2H40
				c-1.1,0-2,0.9-2,2v10.7c0,0.3,0.1,0.6,0.2,0.8c0.3,0.1,0.5,0.2,0.8,0.2H49.7z"/>
			<path id="XMLID_887_" fill="#101112" d="M71.7,57.9c0.1,0.3,0.2,0.5,0.2,0.8v10.7c0,1.1-0.9,2-2,2H59.2c-0.3,0-0.6-0.1-0.8-0.2
				c0.3,0.7,1,1.2,1.8,1.2h10.7c1.1,0,2-0.9,2-2V59.7C72.9,58.9,72.4,58.2,71.7,57.9z"/>
			<path id="XMLID_888_" fill="#101112" d="M69.9,71.4c1.1,0,2-0.9,2-2V58.7c0-0.3-0.1-0.6-0.2-0.8c-0.3-0.1-0.5-0.2-0.8-0.2H60.2
				c-1.1,0-2,0.9-2,2v10.7c0,0.3,0.1,0.6,0.2,0.8c0.3,0.1,0.5,0.2,0.8,0.2H69.9z"/>
			<path id="XMLID_889_" fill="#101112" d="M79.4,71.4c-0.3,0-0.6-0.1-0.8-0.2c0.3,0.7,1,1.2,1.8,1.2c0.3-0.3,0.5-0.7,0.8-1H79.4z"
				/>
			<path id="XMLID_890_" fill="#101112" d="M81.1,71.4c3-4.1,5.3-8.7,6.8-13.7h-7.5c-1.1,0-2,0.9-2,2v10.7c0,0.3,0.1,0.6,0.2,0.8
				c0.3,0.1,0.5,0.2,0.8,0.2H81.1z"/>
			<path id="XMLID_891_" fill="#101112" d="M31.3,77.4c0.1,0.3,0.2,0.5,0.2,0.8v9.5c0.3,0.1,0.7,0.2,1,0.3v-8.8
				C32.5,78.4,32,77.7,31.3,77.4z"/>
			<path id="XMLID_892_" fill="#101112" d="M19.8,77.2c-1.1,0-2,0.9-2,2v1.5c4.1,3.1,8.7,5.5,13.7,7v-9.5c0-0.3-0.1-0.6-0.2-0.8
				c-0.3-0.1-0.5-0.2-0.8-0.2H19.8z"/>
			<path id="XMLID_893_" fill="#101112" d="M51.5,77.4c0.1,0.3,0.2,0.5,0.2,0.8v10.7c0,0.1,0,0.3,0,0.4c0.3-0.1,0.7-0.1,1-0.2v-9.9
				C52.7,78.4,52.2,77.7,51.5,77.4z"/>
			<path id="XMLID_894_" fill="#101112" d="M40,77.2c-1.1,0-2,0.9-2,2v10.1c2.2,0.3,4.5,0.5,6.8,0.5s4.6-0.2,6.8-0.5
				c0-0.1,0-0.2,0-0.4V78.2c0-0.3-0.1-0.6-0.2-0.8c-0.3-0.1-0.5-0.2-0.8-0.2H40z"/>
			<path id="XMLID_895_" fill="#101112" d="M71.7,77.4c0.1,0.3,0.2,0.5,0.2,0.8v2.5c0.3-0.3,0.7-0.5,1-0.8v-0.7
				C72.9,78.4,72.4,77.7,71.7,77.4z"/>
			<path id="XMLID_896_" fill="#101112" d="M60.2,77.2c-1.1,0-2,0.9-2,2v8.5c5-1.6,9.6-4,13.7-7v-2.5c0-0.3-0.1-0.6-0.2-0.8
				c-0.3-0.1-0.5-0.2-0.8-0.2H60.2z"/>
		</g>
	</g>
</g>
</svg>
