<?xml version="1.0" encoding="utf-8"?>
<!-- Generator: Adobe Illustrator 19.0.0, SVG Export Plug-In . SVG Version: 6.00 Build 0)  -->
<svg version="1.1" id="图层_1" xmlns="http://www.w3.org/2000/svg" xmlns:xlink="http://www.w3.org/1999/xlink" x="0px" y="0px"
	 width="26.235px" height="30.889px" viewBox="0 0 26.235 30.889" enable-background="new 0 0 26.235 30.889" xml:space="preserve">
<g id="XMLID_644_">
	<polygon id="XMLID_727_" fill="#231815" points="23.263,6.334 23.263,3.231 18.738,3.231 18.738,0 7.497,0 7.497,3.231 
		2.973,3.231 2.973,6.334 0,6.334 0,30.889 26.235,30.889 26.235,6.334 	"/>
	<g id="XMLID_645_">
		<rect id="XMLID_726_" x="1.559" y="22.979" fill="#3F3F41" width="23.118" height="6.133"/>
		<g id="XMLID_717_">
			<g id="XMLID_724_">
				<rect id="XMLID_725_" x="4.701" y="18.352" fill="#9E9E9E" width="1.172" height="9.258"/>
			</g>
			<g id="XMLID_722_">
				<rect id="XMLID_723_" x="4.701" y="18.35" fill="#DEDEDD" width="1.172" height="4.629"/>
			</g>
			<g id="XMLID_720_">
				<rect id="XMLID_721_" x="4.701" y="18.35" fill="#7F8080" width="1.172" height="1.602"/>
			</g>
			<g id="XMLID_718_">
				<rect id="XMLID_719_" x="4.701" y="26.104" fill="#080304" width="1.172" height="1.504"/>
			</g>
		</g>
		<g id="XMLID_708_">
			<g id="XMLID_715_">
				<rect id="XMLID_716_" x="7.807" y="18.352" fill="#9E9E9E" width="1.173" height="9.258"/>
			</g>
			<g id="XMLID_713_">
				<rect id="XMLID_714_" x="7.807" y="18.35" fill="#DEDEDD" width="1.173" height="4.629"/>
			</g>
			<g id="XMLID_711_">
				<rect id="XMLID_712_" x="7.807" y="18.35" fill="#7F8080" width="1.173" height="1.602"/>
			</g>
			<g id="XMLID_709_">
				<rect id="XMLID_710_" x="7.807" y="26.104" fill="#080304" width="1.173" height="1.504"/>
			</g>
		</g>
		<g id="XMLID_699_">
			<g id="XMLID_706_">
				<rect id="XMLID_707_" x="10.913" y="18.352" fill="#9E9E9E" width="1.173" height="9.258"/>
			</g>
			<g id="XMLID_704_">
				<rect id="XMLID_705_" x="10.913" y="18.35" fill="#DEDEDD" width="1.173" height="4.629"/>
			</g>
			<g id="XMLID_702_">
				<rect id="XMLID_703_" x="10.913" y="18.35" fill="#7F8080" width="1.173" height="1.602"/>
			</g>
			<g id="XMLID_700_">
				<rect id="XMLID_701_" x="10.913" y="26.104" fill="#080304" width="1.173" height="1.504"/>
			</g>
		</g>
		<g id="XMLID_690_">
			<g id="XMLID_697_">
				<rect id="XMLID_698_" x="14.021" y="18.352" fill="#9E9E9E" width="1.171" height="9.258"/>
			</g>
			<g id="XMLID_695_">
				<rect id="XMLID_696_" x="14.021" y="18.35" fill="#DEDEDD" width="1.171" height="4.629"/>
			</g>
			<g id="XMLID_693_">
				<rect id="XMLID_694_" x="14.021" y="18.35" fill="#7F8080" width="1.171" height="1.602"/>
			</g>
			<g id="XMLID_691_">
				<rect id="XMLID_692_" x="14.021" y="26.104" fill="#080304" width="1.171" height="1.504"/>
			</g>
		</g>
		<g id="XMLID_681_">
			<g id="XMLID_688_">
				<rect id="XMLID_689_" x="17.126" y="18.352" fill="#9E9E9E" width="1.172" height="9.258"/>
			</g>
			<g id="XMLID_686_">
				<rect id="XMLID_687_" x="17.126" y="18.35" fill="#DEDEDD" width="1.172" height="4.629"/>
			</g>
			<g id="XMLID_684_">
				<rect id="XMLID_685_" x="17.126" y="18.35" fill="#7F8080" width="1.172" height="1.602"/>
			</g>
			<g id="XMLID_682_">
				<rect id="XMLID_683_" x="17.126" y="26.104" fill="#080304" width="1.172" height="1.504"/>
			</g>
		</g>
		<g id="XMLID_647_">
			<g id="XMLID_679_">
				<rect id="XMLID_680_" x="20.232" y="18.352" fill="#9E9E9E" width="1.172" height="9.258"/>
			</g>
			<g id="XMLID_653_">
				<rect id="XMLID_654_" x="20.232" y="18.35" fill="#DEDEDD" width="1.172" height="4.629"/>
			</g>
			<g id="XMLID_650_">
				<rect id="XMLID_652_" x="20.232" y="18.35" fill="#7F8080" width="1.172" height="1.602"/>
			</g>
			<g id="XMLID_648_">
				<rect id="XMLID_649_" x="20.232" y="26.104" fill="#080304" width="1.172" height="1.504"/>
			</g>
		</g>
	</g>
</g>
</svg>
