<?xml version="1.0" encoding="utf-8"?>
<!-- Generator: Adobe Illustrator 19.0.0, SVG Export Plug-In . SVG Version: 6.00 Build 0)  -->
<svg version="1.1" id="图层_1" xmlns="http://www.w3.org/2000/svg" xmlns:xlink="http://www.w3.org/1999/xlink" x="0px" y="0px"
	 width="39.047px" height="27.057px" viewBox="0 0 39.047 27.057" enable-background="new 0 0 39.047 27.057" xml:space="preserve">
<g id="XMLID_272_">
	<g id="XMLID_278_">
		<path id="XMLID_346_" fill="#231815" d="M36.913,14.292h0.317h0.317c0.247,0,0.448-0.198,0.448-0.446v-0.448
			c0-0.245-0.201-0.446-0.448-0.446H37.23V7.8c0-0.246-0.2-0.448-0.448-0.448h-6.552V2.813c0-0.118-0.122-0.216-0.271-0.216h-3.517
			V0.139c0-0.081-0.08-0.141-0.178-0.141h-13.57c-0.097,0-0.173,0.06-0.173,0.141v2.458h-3.52c-0.149,0-0.271,0.098-0.271,0.216
			v4.538h-6.55c-0.248,0-0.45,0.203-0.45,0.448v5.152H1.416c-0.248,0-0.448,0.201-0.448,0.446v0.448c0,0.248,0.2,0.446,0.448,0.446
			h0.316h0.319h0.261v5.529H2.052H1.733H1.416c-0.248,0-0.448,0.198-0.448,0.446v0.448c0,0.249,0.2,0.448,0.448,0.448h0.316v5.449
			c0,0.248,0.201,0.446,0.45,0.446h34.6c0.248,0,0.448-0.198,0.448-0.446v-5.449h0.317c0.247,0,0.448-0.199,0.448-0.448v-0.448
			c0-0.248-0.201-0.446-0.448-0.446h-0.317h-0.317h-0.262v-5.529L36.913,14.292z"/>
		<g id="XMLID_280_">
			<g id="XMLID_338_">
				<rect id="XMLID_344_" x="8.195" y="15.079" fill="#9F9E9F" width="1.354" height="9.706"/>
				<rect id="XMLID_342_" x="8.195" y="20.427" fill="#7F8081" width="1.354" height="4.358"/>
				<rect id="XMLID_340_" x="8.195" y="21.948" fill="#5E5E60" width="1.354" height="2.836"/>
			</g>
			<g id="XMLID_330_">
				<rect id="XMLID_336_" x="11.225" y="15.079" fill="#9F9E9F" width="1.356" height="9.706"/>
				<rect id="XMLID_334_" x="11.225" y="20.427" fill="#7F8081" width="1.356" height="4.358"/>
				<rect id="XMLID_332_" x="11.225" y="21.948" fill="#5E5E60" width="1.356" height="2.836"/>
			</g>
			<g id="XMLID_322_">
				<rect id="XMLID_328_" x="14.258" y="15.079" fill="#9F9E9F" width="1.353" height="9.706"/>
				<rect id="XMLID_326_" x="14.258" y="20.427" fill="#7F8081" width="1.353" height="4.358"/>
				<rect id="XMLID_324_" x="14.258" y="21.948" fill="#5E5E60" width="1.353" height="2.836"/>
			</g>
			<g id="XMLID_314_">
				<rect id="XMLID_320_" x="17.287" y="15.079" fill="#9F9E9F" width="1.353" height="9.706"/>
				<rect id="XMLID_318_" x="17.287" y="20.427" fill="#7F8081" width="1.353" height="4.358"/>
				<rect id="XMLID_316_" x="17.287" y="21.948" fill="#5E5E60" width="1.353" height="2.836"/>
			</g>
			<g id="XMLID_306_">
				<rect id="XMLID_312_" x="20.321" y="15.079" fill="#9F9E9F" width="1.354" height="9.706"/>
				<rect id="XMLID_310_" x="20.321" y="20.427" fill="#7F8081" width="1.354" height="4.358"/>
				<rect id="XMLID_308_" x="20.321" y="21.948" fill="#5E5E60" width="1.354" height="2.836"/>
			</g>
			<g id="XMLID_298_">
				<rect id="XMLID_304_" x="23.35" y="15.079" fill="#9F9E9F" width="1.356" height="9.706"/>
				<rect id="XMLID_302_" x="23.35" y="20.427" fill="#7F8081" width="1.356" height="4.358"/>
				<rect id="XMLID_300_" x="23.35" y="21.948" fill="#5E5E60" width="1.356" height="2.836"/>
			</g>
			<g id="XMLID_290_">
				<rect id="XMLID_296_" x="26.384" y="15.079" fill="#9F9E9F" width="1.354" height="9.706"/>
				<rect id="XMLID_294_" x="26.384" y="20.427" fill="#7F8081" width="1.354" height="4.358"/>
				<rect id="XMLID_292_" x="26.384" y="21.948" fill="#5E5E60" width="1.354" height="2.836"/>
			</g>
			<g id="XMLID_282_">
				<rect id="XMLID_288_" x="29.413" y="15.079" fill="#9F9E9F" width="1.356" height="9.706"/>
				<rect id="XMLID_286_" x="29.413" y="20.427" fill="#7F8081" width="1.356" height="4.358"/>
				<rect id="XMLID_284_" x="29.413" y="21.948" fill="#5E5E60" width="1.356" height="2.836"/>
			</g>
		</g>
	</g>
	
		<linearGradient id="XMLID_184_" gradientUnits="userSpaceOnUse" x1="10.5462" y1="591.4814" x2="-0.0492" y2="591.4814" gradientTransform="matrix(1 0 0 -1 0 596.72)">
		<stop  offset="0" style="stop-color:#F6EA5A"/>
		<stop  offset="1" style="stop-color:#9F8826"/>
	</linearGradient>
	
		<rect id="XMLID_276_" x="0.226" y="3.125" fill="url(#XMLID_184_)" stroke="#231815" stroke-width="0.4513" stroke-miterlimit="10" width="8.507" height="4.226"/>
	
		<linearGradient id="XMLID_185_" gradientUnits="userSpaceOnUse" x1="40.4098" y1="591.4814" x2="29.816" y2="591.4814" gradientTransform="matrix(1 0 0 -1 0 596.72)">
		<stop  offset="0" style="stop-color:#298540"/>
		<stop  offset="1" style="stop-color:#0B4626"/>
	</linearGradient>
	
		<rect id="XMLID_274_" x="30.091" y="3.125" fill="url(#XMLID_185_)" stroke="#231815" stroke-width="0.9025" stroke-miterlimit="10" width="8.506" height="4.226"/>
</g>
</svg>
