<?xml version="1.0" encoding="utf-8"?>
<!-- Generator: Adobe Illustrator 19.0.0, SVG Export Plug-In . SVG Version: 6.00 Build 0)  -->
<svg version="1.1" id="图层_1" xmlns="http://www.w3.org/2000/svg" xmlns:xlink="http://www.w3.org/1999/xlink" x="0px" y="0px"
	 width="39.042px" height="27.057px" viewBox="0 0 39.042 27.057" enable-background="new 0 0 39.042 27.057" xml:space="preserve">
<g id="XMLID_370_">
	<g id="XMLID_1286_">
		<path id="XMLID_1442_" fill="#231815" d="M36.907,14.293h0.316h0.318c0.247,0,0.447-0.199,0.447-0.447v-0.447
			c0-0.246-0.2-0.448-0.447-0.448h-0.318V7.8c0-0.246-0.199-0.448-0.447-0.448h-6.55V2.815c0-0.119-0.122-0.217-0.272-0.217h-3.517
			V0.14c0-0.079-0.079-0.14-0.177-0.14H12.693c-0.098,0-0.175,0.061-0.175,0.14v2.458H9.001c-0.15,0-0.271,0.098-0.271,0.217v4.537
			H2.181c-0.248,0-0.448,0.202-0.448,0.448v5.15H1.415c-0.247,0-0.447,0.202-0.447,0.448v0.447c0,0.248,0.2,0.447,0.447,0.447h0.317
			H2.05h0.262v5.525H2.05H1.732H1.415c-0.247,0-0.447,0.199-0.447,0.447v0.447c0,0.25,0.2,0.449,0.447,0.449h0.317v5.447
			c0,0.248,0.2,0.447,0.448,0.447h34.596c0.248,0,0.447-0.199,0.447-0.447v-5.447h0.318c0.247,0,0.447-0.199,0.447-0.449v-0.447
			c0-0.248-0.2-0.447-0.447-0.447h-0.318h-0.316h-0.262v-5.525H36.907z"/>
		<g id="XMLID_1287_">
			<g id="XMLID_1438_">
				<rect id="XMLID_1441_" x="8.192" y="15.078" fill="#9E9E9E" width="1.354" height="9.705"/>
				<rect id="XMLID_1440_" x="8.192" y="20.424" fill="#7F8080" width="1.354" height="4.359"/>
				<rect id="XMLID_1439_" x="8.192" y="21.947" fill="#5E5E60" width="1.354" height="2.836"/>
			</g>
			<g id="XMLID_1434_">
				<rect id="XMLID_1437_" x="11.223" y="15.078" fill="#9E9E9E" width="1.354" height="9.705"/>
				<rect id="XMLID_1436_" x="11.223" y="20.424" fill="#7F8080" width="1.354" height="4.359"/>
				<rect id="XMLID_1435_" x="11.223" y="21.947" fill="#5E5E60" width="1.354" height="2.836"/>
			</g>
			<g id="XMLID_1430_">
				<rect id="XMLID_1433_" x="14.255" y="15.078" fill="#9E9E9E" width="1.354" height="9.705"/>
				<rect id="XMLID_1432_" x="14.255" y="20.424" fill="#7F8080" width="1.354" height="4.359"/>
				<rect id="XMLID_1431_" x="14.255" y="21.947" fill="#5E5E60" width="1.354" height="2.836"/>
			</g>
			<g id="XMLID_1426_">
				<rect id="XMLID_1429_" x="17.285" y="15.078" fill="#9E9E9E" width="1.354" height="9.705"/>
				<rect id="XMLID_1428_" x="17.285" y="20.424" fill="#7F8080" width="1.354" height="4.359"/>
				<rect id="XMLID_1427_" x="17.285" y="21.947" fill="#5E5E60" width="1.354" height="2.836"/>
			</g>
			<g id="XMLID_1422_">
				<rect id="XMLID_1425_" x="20.317" y="15.078" fill="#9E9E9E" width="1.354" height="9.705"/>
				<rect id="XMLID_1424_" x="20.317" y="20.424" fill="#7F8080" width="1.354" height="4.359"/>
				<rect id="XMLID_1423_" x="20.317" y="21.947" fill="#5E5E60" width="1.354" height="2.836"/>
			</g>
			<g id="XMLID_1296_">
				<rect id="XMLID_1414_" x="23.348" y="15.078" fill="#9E9E9E" width="1.354" height="9.705"/>
				<rect id="XMLID_1298_" x="23.348" y="20.424" fill="#7F8080" width="1.354" height="4.359"/>
				<rect id="XMLID_1297_" x="23.348" y="21.947" fill="#5E5E60" width="1.354" height="2.836"/>
			</g>
			<g id="XMLID_1292_">
				<rect id="XMLID_1295_" x="26.38" y="15.078" fill="#9E9E9E" width="1.354" height="9.705"/>
				<rect id="XMLID_1294_" x="26.38" y="20.424" fill="#7F8080" width="1.354" height="4.359"/>
				<rect id="XMLID_1293_" x="26.38" y="21.947" fill="#5E5E60" width="1.354" height="2.836"/>
			</g>
			<g id="XMLID_1288_">
				<rect id="XMLID_1291_" x="29.41" y="15.078" fill="#9E9E9E" width="1.355" height="9.705"/>
				<rect id="XMLID_1290_" x="29.41" y="20.424" fill="#7F8080" width="1.355" height="4.359"/>
				<rect id="XMLID_1289_" x="29.41" y="21.947" fill="#5E5E60" width="1.355" height="2.836"/>
			</g>
		</g>
	</g>
	<linearGradient id="XMLID_158_" gradientUnits="userSpaceOnUse" x1="10.5427" y1="5.2383" x2="-0.0495" y2="5.2383">
		<stop  offset="0" style="stop-color:#F0F0F0"/>
		<stop  offset="1" style="stop-color:#A3A3A3"/>
	</linearGradient>
	
		<rect id="XMLID_1285_" x="0.226" y="3.125" fill="url(#XMLID_158_)" stroke="#231815" stroke-width="0.4513" stroke-miterlimit="10" width="8.504" height="4.227"/>
	<linearGradient id="XMLID_159_" gradientUnits="userSpaceOnUse" x1="40.6296" y1="5.2383" x2="30.0374" y2="5.2383">
		<stop  offset="0" style="stop-color:#F0F0F0"/>
		<stop  offset="1" style="stop-color:#A3A3A3"/>
	</linearGradient>
	
		<rect id="XMLID_372_" x="30.313" y="3.125" fill="url(#XMLID_159_)" stroke="#231815" stroke-width="0.4513" stroke-miterlimit="10" width="8.504" height="4.227"/>
</g>
</svg>
