<?xml version="1.0" encoding="utf-8"?>
<!-- Generator: Adobe Illustrator 19.0.0, SVG Export Plug-In . SVG Version: 6.00 Build 0)  -->
<svg version="1.1" id="图层_1" xmlns="http://www.w3.org/2000/svg" xmlns:xlink="http://www.w3.org/1999/xlink" x="0px" y="0px"
	 width="37.02px" height="27.057px" viewBox="0 0 37.02 27.057" enable-background="new 0 0 37.02 27.057" xml:space="preserve">
<g id="XMLID_1443_">
	<path id="XMLID_1477_" fill="#231815" d="M35.939,14.293h0.316h0.318c0.247,0,0.447-0.199,0.447-0.447v-0.447
		c0-0.246-0.2-0.447-0.447-0.447h-0.318v-5.15c0-0.246-0.199-0.449-0.447-0.449h-6.55V2.814c0-0.119-0.122-0.217-0.271-0.217h-3.518
		V0.141c0-0.08-0.08-0.141-0.176-0.141H11.727c-0.098,0-0.177,0.06-0.177,0.141v2.457H8.033c-0.15,0-0.272,0.098-0.272,0.217v4.537
		H1.213c-0.248,0-0.448,0.203-0.448,0.449v5.15H0.447C0.2,12.951,0,13.152,0,13.398v0.447c0,0.248,0.2,0.447,0.447,0.447h0.317
		h0.317h0.262v5.525H1.082H0.765H0.447C0.2,19.818,0,20.017,0,20.266v0.447c0,0.25,0.2,0.449,0.447,0.449h0.317v5.447
		c0,0.248,0.2,0.447,0.448,0.447h34.596c0.248,0,0.447-0.199,0.447-0.447v-5.447h0.318c0.247,0,0.447-0.199,0.447-0.449v-0.447
		c0-0.248-0.2-0.447-0.447-0.447h-0.318h-0.316h-0.262v-5.525H35.939z"/>
	<g id="XMLID_1444_">
		<g id="XMLID_1473_">
			<rect id="XMLID_1476_" x="7.225" y="15.078" fill="#9E9E9E" width="1.354" height="9.705"/>
			<rect id="XMLID_1475_" x="7.225" y="20.424" fill="#7F8080" width="1.354" height="4.359"/>
			<rect id="XMLID_1474_" x="7.225" y="21.947" fill="#5E5E60" width="1.354" height="2.836"/>
		</g>
		<g id="XMLID_1469_">
			<rect id="XMLID_1472_" x="10.254" y="15.078" fill="#9E9E9E" width="1.355" height="9.705"/>
			<rect id="XMLID_1471_" x="10.254" y="20.424" fill="#7F8080" width="1.355" height="4.359"/>
			<rect id="XMLID_1470_" x="10.254" y="21.947" fill="#5E5E60" width="1.355" height="2.836"/>
		</g>
		<g id="XMLID_1465_">
			<rect id="XMLID_1468_" x="13.287" y="15.078" fill="#9E9E9E" width="1.354" height="9.705"/>
			<rect id="XMLID_1467_" x="13.287" y="20.424" fill="#7F8080" width="1.354" height="4.359"/>
			<rect id="XMLID_1466_" x="13.287" y="21.947" fill="#5E5E60" width="1.354" height="2.836"/>
		</g>
		<g id="XMLID_1461_">
			<rect id="XMLID_1464_" x="16.318" y="15.078" fill="#9E9E9E" width="1.354" height="9.705"/>
			<rect id="XMLID_1463_" x="16.318" y="20.424" fill="#7F8080" width="1.354" height="4.359"/>
			<rect id="XMLID_1462_" x="16.318" y="21.947" fill="#5E5E60" width="1.354" height="2.836"/>
		</g>
		<g id="XMLID_1457_">
			<rect id="XMLID_1460_" x="19.35" y="15.078" fill="#9E9E9E" width="1.354" height="9.705"/>
			<rect id="XMLID_1459_" x="19.35" y="20.424" fill="#7F8080" width="1.354" height="4.359"/>
			<rect id="XMLID_1458_" x="19.35" y="21.947" fill="#5E5E60" width="1.354" height="2.836"/>
		</g>
		<g id="XMLID_1453_">
			<rect id="XMLID_1456_" x="22.381" y="15.078" fill="#9E9E9E" width="1.354" height="9.705"/>
			<rect id="XMLID_1455_" x="22.381" y="20.424" fill="#7F8080" width="1.354" height="4.359"/>
			<rect id="XMLID_1454_" x="22.381" y="21.947" fill="#5E5E60" width="1.354" height="2.836"/>
		</g>
		<g id="XMLID_1449_">
			<rect id="XMLID_1452_" x="25.412" y="15.078" fill="#9E9E9E" width="1.354" height="9.705"/>
			<rect id="XMLID_1451_" x="25.412" y="20.424" fill="#7F8080" width="1.354" height="4.359"/>
			<rect id="XMLID_1450_" x="25.412" y="21.947" fill="#5E5E60" width="1.354" height="2.836"/>
		</g>
		<g id="XMLID_1445_">
			<rect id="XMLID_1448_" x="28.443" y="15.078" fill="#9E9E9E" width="1.354" height="9.705"/>
			<rect id="XMLID_1447_" x="28.443" y="20.424" fill="#7F8080" width="1.354" height="4.359"/>
			<rect id="XMLID_1446_" x="28.443" y="21.947" fill="#5E5E60" width="1.354" height="2.836"/>
		</g>
	</g>
</g>
</svg>
