<?xml version="1.0" encoding="utf-8"?>
<!-- Generator: Adobe Illustrator 19.0.0, SVG Export Plug-In . SVG Version: 6.00 Build 0)  -->
<svg version="1.1" id="图层_1" xmlns="http://www.w3.org/2000/svg" xmlns:xlink="http://www.w3.org/1999/xlink" x="0px" y="0px"
	 width="51.024px" height="35.725px" viewBox="0 0 51.024 35.725" enable-background="new 0 0 51.024 35.725" xml:space="preserve">
<g id="XMLID_270_">
	<g id="XMLID_366_">
		<rect id="XMLID_368_" x="0" y="0" fill="#151209" width="51.024" height="35.724"/>
	</g>
	<g id="XMLID_362_">
		<rect id="XMLID_364_" x="3.068" y="2.149" fill="#34322C" width="44.889" height="31.428"/>
	</g>
	<rect id="XMLID_360_" x="17.287" y="29.749" fill="#898989" width="16.451" height="3.827"/>
	<path id="XMLID_354_" fill="#898989" d="M51.024,14.673V9.375h-1.952V1.033h-5.855V0h-5.716v1.033H28.37V0h-5.716v1.033h-9.131V0
		H7.807v1.033H1.952v8.342H0v5.298h1.952v7.013H0v5.298h1.952v7.709h47.12v-7.709h1.952v-5.298h-1.952v-7.013H51.024z M46.841,32.46
		H4.183V3.264h42.659L46.841,32.46L46.841,32.46z"/>
	<path id="XMLID_348_" fill="#151209" d="M34.919,34.759H16.104v-6.192h18.815V34.759z M18.469,32.393h14.085v-1.46H18.469V32.393z"
		/>
	<g id="XMLID_272_">
		<g id="XMLID_278_">
			<path id="XMLID_346_" fill="#231815" d="M43.014,18.625h0.317h0.317c0.247,0,0.448-0.198,0.448-0.446v-0.448
				c0-0.245-0.201-0.446-0.448-0.446h-0.317v-5.152c0-0.246-0.2-0.448-0.448-0.448h-6.552V7.146c0-0.118-0.122-0.216-0.271-0.216
				h-3.517V4.472c0-0.081-0.08-0.141-0.178-0.141h-13.57c-0.097,0-0.173,0.06-0.173,0.141V6.93h-3.52
				c-0.149,0-0.271,0.098-0.271,0.216v4.538h-6.55c-0.248,0-0.45,0.203-0.45,0.448v5.152H7.517c-0.248,0-0.448,0.201-0.448,0.446
				v0.448c0,0.248,0.2,0.446,0.448,0.446h0.316h0.319h0.261v5.529H8.153H7.834H7.517c-0.248,0-0.448,0.198-0.448,0.446v0.448
				c0,0.249,0.2,0.448,0.448,0.448h0.316v5.449c0,0.248,0.201,0.446,0.45,0.446h34.6c0.248,0,0.448-0.198,0.448-0.446v-5.449h0.317
				c0.247,0,0.448-0.199,0.448-0.448V24.6c0-0.248-0.201-0.446-0.448-0.446h-0.317h-0.317h-0.262v-5.529L43.014,18.625z"/>
			<g id="XMLID_280_">
				<g id="XMLID_338_">
					<rect id="XMLID_344_" x="14.296" y="19.412" fill="#9F9E9F" width="1.354" height="9.706"/>
					<rect id="XMLID_342_" x="14.296" y="24.76" fill="#7F8081" width="1.354" height="4.358"/>
					<rect id="XMLID_340_" x="14.296" y="26.281" fill="#5E5E60" width="1.354" height="2.836"/>
				</g>
				<g id="XMLID_330_">
					<rect id="XMLID_336_" x="17.326" y="19.412" fill="#9F9E9F" width="1.356" height="9.706"/>
					<rect id="XMLID_334_" x="17.326" y="24.76" fill="#7F8081" width="1.356" height="4.358"/>
					<rect id="XMLID_332_" x="17.326" y="26.281" fill="#5E5E60" width="1.356" height="2.836"/>
				</g>
				<g id="XMLID_322_">
					<rect id="XMLID_328_" x="20.359" y="19.412" fill="#9F9E9F" width="1.353" height="9.706"/>
					<rect id="XMLID_326_" x="20.359" y="24.76" fill="#7F8081" width="1.353" height="4.358"/>
					<rect id="XMLID_324_" x="20.359" y="26.281" fill="#5E5E60" width="1.353" height="2.836"/>
				</g>
				<g id="XMLID_314_">
					<rect id="XMLID_320_" x="23.388" y="19.412" fill="#9F9E9F" width="1.353" height="9.706"/>
					<rect id="XMLID_318_" x="23.388" y="24.76" fill="#7F8081" width="1.353" height="4.358"/>
					<rect id="XMLID_316_" x="23.388" y="26.281" fill="#5E5E60" width="1.353" height="2.836"/>
				</g>
				<g id="XMLID_306_">
					<rect id="XMLID_312_" x="26.422" y="19.412" fill="#9F9E9F" width="1.354" height="9.706"/>
					<rect id="XMLID_310_" x="26.422" y="24.76" fill="#7F8081" width="1.354" height="4.358"/>
					<rect id="XMLID_308_" x="26.422" y="26.281" fill="#5E5E60" width="1.354" height="2.836"/>
				</g>
				<g id="XMLID_298_">
					<rect id="XMLID_304_" x="29.451" y="19.412" fill="#9F9E9F" width="1.356" height="9.706"/>
					<rect id="XMLID_302_" x="29.451" y="24.76" fill="#7F8081" width="1.356" height="4.358"/>
					<rect id="XMLID_300_" x="29.451" y="26.281" fill="#5E5E60" width="1.356" height="2.836"/>
				</g>
				<g id="XMLID_290_">
					<rect id="XMLID_296_" x="32.485" y="19.412" fill="#9F9E9F" width="1.354" height="9.706"/>
					<rect id="XMLID_294_" x="32.485" y="24.76" fill="#7F8081" width="1.354" height="4.358"/>
					<rect id="XMLID_292_" x="32.485" y="26.281" fill="#5E5E60" width="1.354" height="2.836"/>
				</g>
				<g id="XMLID_282_">
					<rect id="XMLID_288_" x="35.514" y="19.412" fill="#9F9E9F" width="1.356" height="9.706"/>
					<rect id="XMLID_286_" x="35.514" y="24.76" fill="#7F8081" width="1.356" height="4.358"/>
					<rect id="XMLID_284_" x="35.514" y="26.281" fill="#5E5E60" width="1.356" height="2.836"/>
				</g>
			</g>
		</g>
		
			<linearGradient id="XMLID_210_" gradientUnits="userSpaceOnUse" x1="16.6471" y1="587.1481" x2="6.0517" y2="587.1481" gradientTransform="matrix(1 0 0 -1 0 596.72)">
			<stop  offset="0" style="stop-color:#F6EA5A"/>
			<stop  offset="1" style="stop-color:#9F8826"/>
		</linearGradient>
		
			<rect id="XMLID_276_" x="6.327" y="7.459" fill="url(#XMLID_210_)" stroke="#231815" stroke-width="0.4513" stroke-miterlimit="10" width="8.507" height="4.226"/>
		
			<linearGradient id="XMLID_211_" gradientUnits="userSpaceOnUse" x1="46.5108" y1="587.1481" x2="35.9169" y2="587.1481" gradientTransform="matrix(1 0 0 -1 0 596.72)">
			<stop  offset="0" style="stop-color:#298540"/>
			<stop  offset="1" style="stop-color:#0B4626"/>
		</linearGradient>
		
			<rect id="XMLID_274_" x="36.192" y="7.459" fill="url(#XMLID_211_)" stroke="#231815" stroke-width="0.9025" stroke-miterlimit="10" width="8.506" height="4.226"/>
	</g>
</g>
</svg>
