<?xml version="1.0" encoding="utf-8"?>
<!-- Generator: Adobe Illustrator 19.0.0, SVG Export Plug-In . SVG Version: 6.00 Build 0)  -->
<svg version="1.1" id="图层_1" xmlns="http://www.w3.org/2000/svg" xmlns:xlink="http://www.w3.org/1999/xlink" x="0px" y="0px"
	 width="67.215px" height="23.771px" viewBox="0 0 67.215 23.771" enable-background="new 0 0 67.215 23.771" xml:space="preserve">
<g id="XMLID_638_">
	<path id="XMLID_728_" fill="#525355" stroke="#000000" stroke-width="0.75" stroke-miterlimit="10" d="M62.314,23.396H7.886
		c-2.15,0-4.001-1.451-4.42-3.465L0.462,5.493c-0.551-2.649,1.571-5.118,4.4-5.118h57.452c2.499,0,4.526,1.935,4.526,4.322v14.377
		C66.84,21.461,64.813,23.396,62.314,23.396z"/>
	<g id="XMLID_729_">
		<path id="XMLID_660_" fill="#4A4B4D" d="M7.886,20.935c-0.929,0-1.734-0.593-1.946-1.421l-0.144-4.851
			c-0.083-2.807-0.765-5.511-2.028-8.037L2.899,4.888C2.833,4.409,2.977,3.924,3.301,3.54c0.378-0.447,0.947-0.704,1.562-0.704
			h57.452c1.113,0,2.018,0.835,2.018,1.861v14.376c0,1.026-0.905,1.861-2.018,1.861H7.886z"/>
		<g id="XMLID_656_">
			<path id="XMLID_657_" d="M62.314,3.836c0.552,0,1.018,0.394,1.018,0.861v14.377c0,0.467-0.466,0.861-1.018,0.861H7.886
				c-0.431,0-0.818-0.245-0.95-0.586l-0.14-4.716C6.708,11.68,5.991,8.836,4.663,6.179L3.885,4.622
				c0.008-0.155,0.07-0.305,0.18-0.436c0.188-0.222,0.478-0.35,0.797-0.35H62.314 M62.314,1.836H4.862
				c-0.909,0-1.757,0.386-2.325,1.059C1.987,3.545,1.77,4.387,1.94,5.205l0.934,1.868c1.189,2.38,1.845,4.976,1.923,7.619
				l0.147,4.95c0.276,1.329,1.514,2.293,2.942,2.293h54.428c1.664,0,3.018-1.284,3.018-2.861V4.697
				C65.332,3.119,63.978,1.836,62.314,1.836L62.314,1.836z"/>
		</g>
	</g>
	<g id="XMLID_730_">
		<g id="XMLID_731_">
			<rect id="XMLID_732_" x="7.667" y="5.319" width="2.281" height="5.429"/>
			<rect id="XMLID_733_" x="7.293" y="6.643" width="3.029" height="2.781"/>
		</g>
		<g id="XMLID_734_">
			<rect id="XMLID_735_" x="13.105" y="5.319" width="2.281" height="5.429"/>
			<rect id="XMLID_736_" x="12.731" y="6.643" width="3.029" height="2.781"/>
		</g>
		<g id="XMLID_737_">
			<rect id="XMLID_739_" x="18.542" y="5.319" width="2.281" height="5.429"/>
			<rect id="XMLID_740_" x="18.168" y="6.643" width="3.029" height="2.781"/>
		</g>
		<g id="XMLID_742_">
			<rect id="XMLID_743_" x="23.98" y="5.319" width="2.281" height="5.429"/>
			<rect id="XMLID_1283_" x="23.605" y="6.643" width="3.029" height="2.781"/>
		</g>
		<g id="XMLID_1284_">
			<rect id="XMLID_1478_" x="29.417" y="5.319" width="2.281" height="5.429"/>
			<rect id="XMLID_1479_" x="29.043" y="6.643" width="3.029" height="2.781"/>
		</g>
		<g id="XMLID_1488_">
			<rect id="XMLID_1489_" x="34.854" y="5.319" width="2.281" height="5.429"/>
			<rect id="XMLID_1490_" x="34.48" y="6.643" width="3.029" height="2.781"/>
		</g>
		<g id="XMLID_1491_">
			<rect id="XMLID_1492_" x="40.292" y="5.319" width="2.281" height="5.429"/>
			<rect id="XMLID_1496_" x="39.917" y="6.643" width="3.029" height="2.781"/>
		</g>
		<g id="XMLID_1497_">
			<rect id="XMLID_1498_" x="45.729" y="5.319" width="2.281" height="5.429"/>
			<rect id="XMLID_1499_" x="45.355" y="6.643" width="3.029" height="2.781"/>
		</g>
		<g id="XMLID_1500_">
			<rect id="XMLID_1501_" x="51.166" y="5.319" width="2.281" height="5.429"/>
			<rect id="XMLID_1502_" x="50.792" y="6.643" width="3.029" height="2.781"/>
		</g>
		<g id="XMLID_1503_">
			<rect id="XMLID_1504_" x="56.604" y="5.319" width="2.281" height="5.429"/>
			<rect id="XMLID_1505_" x="56.23" y="6.643" width="3.029" height="2.781"/>
		</g>
		<g id="XMLID_1532_">
			<rect id="XMLID_1534_" x="10.386" y="12.468" width="2.281" height="5.429"/>
			<rect id="XMLID_1533_" x="10.012" y="13.792" width="3.029" height="2.781"/>
		</g>
		<g id="XMLID_1529_">
			<rect id="XMLID_1531_" x="15.823" y="12.468" width="2.281" height="5.429"/>
			<rect id="XMLID_1530_" x="15.449" y="13.792" width="3.029" height="2.781"/>
		</g>
		<g id="XMLID_1526_">
			<rect id="XMLID_1528_" x="21.261" y="12.468" width="2.281" height="5.429"/>
			<rect id="XMLID_1527_" x="20.887" y="13.792" width="3.029" height="2.781"/>
		</g>
		<g id="XMLID_1523_">
			<rect id="XMLID_1525_" x="26.698" y="12.468" width="2.281" height="5.429"/>
			<rect id="XMLID_1524_" x="26.324" y="13.792" width="3.029" height="2.781"/>
		</g>
		<g id="XMLID_1520_">
			<rect id="XMLID_1522_" x="32.136" y="12.468" width="2.281" height="5.429"/>
			<rect id="XMLID_1521_" x="31.761" y="13.792" width="3.029" height="2.781"/>
		</g>
		<g id="XMLID_1517_">
			<rect id="XMLID_1519_" x="37.573" y="12.468" width="2.281" height="5.429"/>
			<rect id="XMLID_1518_" x="37.199" y="13.792" width="3.029" height="2.781"/>
		</g>
		<g id="XMLID_1514_">
			<rect id="XMLID_1516_" x="43.01" y="12.468" width="2.281" height="5.429"/>
			<rect id="XMLID_1515_" x="42.636" y="13.792" width="3.029" height="2.781"/>
		</g>
		<g id="XMLID_1511_">
			<rect id="XMLID_1513_" x="48.448" y="12.468" width="2.281" height="5.429"/>
			<rect id="XMLID_1512_" x="48.073" y="13.792" width="3.029" height="2.781"/>
		</g>
		<g id="XMLID_1508_">
			<rect id="XMLID_1510_" x="53.885" y="12.468" width="2.281" height="5.429"/>
			<rect id="XMLID_1509_" x="53.511" y="13.792" width="3.029" height="2.781"/>
		</g>
		<g id="XMLID_1506_">
			<rect id="XMLID_1507_" x="59.322" y="12.468" width="2.281" height="5.429"/>
			<rect id="XMLID_1535_" x="58.948" y="13.792" width="3.029" height="2.781"/>
		</g>
	</g>
</g>
</svg>
