<?xml version="1.0" encoding="utf-8"?>
<!-- Generator: Adobe Illustrator 19.0.0, SVG Export Plug-In . SVG Version: 6.00 Build 0)  -->
<svg version="1.1" id="图层_1" xmlns="http://www.w3.org/2000/svg" xmlns:xlink="http://www.w3.org/1999/xlink" x="0px" y="0px"
	 width="34.016px" height="34.016px" viewBox="0 0 34.016 34.016" enable-background="new 0 0 34.016 34.016" xml:space="preserve">
<g id="XMLID_1736_">
	<circle id="XMLID_1760_" fill="#AFAFAF" stroke="#939393" stroke-miterlimit="10" cx="17.008" cy="17.009" r="16.508"/>
	<circle id="XMLID_1551_" fill="#AFAFAF" stroke="#939393" stroke-miterlimit="10" cx="17.008" cy="17.009" r="12.128"/>
	<g id="XMLID_1800_">
		<circle id="XMLID_158_" fill="#BEBFBF" cx="17.008" cy="17.009" r="11.431"/>
		<circle id="XMLID_166_" fill="#C0C1C1" cx="17.008" cy="17.009" r="11.162"/>
		<circle id="XMLID_165_" fill="#C3C4C4" cx="17.008" cy="17.009" r="10.894"/>
		<circle id="XMLID_164_" fill="#C5C6C6" cx="17.008" cy="17.009" r="10.625"/>
		<circle id="XMLID_163_" fill="#C7C9C9" cx="17.008" cy="17.009" r="10.356"/>
		<circle id="XMLID_162_" fill="#CACBCB" cx="17.008" cy="17.009" r="10.087"/>
		<circle id="XMLID_161_" fill="#CCCECE" cx="17.008" cy="17.009" r="9.818"/>
		<circle id="XMLID_160_" fill="#CED0D0" cx="17.008" cy="17.009" r="9.549"/>
		<circle id="XMLID_159_" fill="#D1D3D3" cx="17.008" cy="17.009" r="9.28"/>
		<circle id="XMLID_157_" fill="#D3D5D5" cx="17.008" cy="17.009" r="9.012"/>
	</g>
	<g id="XMLID_609_">
		<polygon id="XMLID_186_" fill="#605F5E" points="15.515,23.881 15.515,18.501 10.134,18.501 10.134,15.514 15.515,15.514 
			15.515,10.134 18.501,10.134 18.501,15.514 23.881,15.514 23.881,18.501 18.501,18.501 18.501,23.881 		"/>
		<path id="XMLID_183_" fill="#231815" d="M18.243,10.392v4.863v0.516h0.516h4.864v2.471h-4.864h-0.516v0.516v4.864h-2.47v-4.864
			v-0.516h-0.516h-4.864v-2.471h4.864h0.516v-0.516v-4.863H18.243 M18.759,9.876h-3.503v5.38h-5.38v3.504h5.38v5.38h3.503v-5.38
			h5.38v-3.504h-5.38V9.876L18.759,9.876z"/>
	</g>
</g>
</svg>
