<?xml version="1.0" encoding="utf-8"?>
<!-- Generator: Adobe Illustrator 19.0.0, SVG Export Plug-In . SVG Version: 6.00 Build 0)  -->
<svg version="1.1" id="图层_1" xmlns="http://www.w3.org/2000/svg" xmlns:xlink="http://www.w3.org/1999/xlink" x="0px" y="0px"
	 width="25.512px" height="25.512px" viewBox="0 0 25.512 25.512" enable-background="new 0 0 25.512 25.512" xml:space="preserve">
<g id="XMLID_1754_">
	
		<circle id="XMLID_1874_" fill="#262626" stroke="#131313" stroke-width="0.75" stroke-miterlimit="10" cx="12.756" cy="12.754" r="12.381"/>
	<g id="XMLID_1764_">
		<polygon id="XMLID_180_" points="11.227,19.773 11.227,14.282 5.734,14.282 5.734,11.223 11.227,11.223 11.227,5.733 
			14.286,5.733 14.286,11.223 19.778,11.223 19.778,14.282 14.286,14.282 14.286,19.773 		"/>
		<path id="XMLID_177_" fill="#231815" d="M14.027,5.991v4.973v0.516h0.516h4.976v2.543h-4.976h-0.516v0.516v4.974h-2.543V14.54
			v-0.516h-0.516H5.992v-2.543h4.976h0.516v-0.516V5.991H14.027 M14.544,5.475h-3.576v5.49H5.476v3.576h5.492v5.491h3.576V14.54
			h5.492v-3.576h-5.492V5.475L14.544,5.475z"/>
	</g>
</g>
</svg>
