<?xml version="1.0" encoding="utf-8"?>
<!-- Generator: Adobe Illustrator 16.0.0, SVG Export Plug-In . SVG Version: 6.00 Build 0)  -->
<!DOCTYPE svg PUBLIC "-//W3C//DTD SVG 1.1//EN" "http://www.w3.org/Graphics/SVG/1.1/DTD/svg11.dtd">
<svg version="1.1" id="图层_1" xmlns="http://www.w3.org/2000/svg" xmlns:xlink="http://www.w3.org/1999/xlink" x="0px" y="0px"
	 width="49.5px" height="24.75px" viewBox="0 0 49.5 24.75" enable-background="new 0 0 49.5 24.75" xml:space="preserve">
<g>
	<rect fill="#D1D1D1" width="49.5" height="24.75"/>
	<circle fill="#080304" cx="3.321" cy="12.375" r="2.665"/>
	<circle fill="#080304" cx="45.988" cy="12.375" r="2.666"/>
	<path fill="#080304" d="M40.047,20.678c-0.238,1.576-1.609,2.816-3.066,2.816h-24.46c-1.462,0-2.833-1.24-3.069-2.816L6.658,5.462
		c0-1.839,1.438-3.331,3.217-3.331h29.748c1.774,0,3.216,1.492,3.216,3.331L40.047,20.678z"/>
	<path fill="#B2B2B2" d="M39.018,20.012c-0.22,1.42-1.5,2.537-2.86,2.537H13.342c-1.363,0-2.643-1.117-2.863-2.537L7.874,6.299
		c0-1.656,1.343-3,3-3h27.751c1.654,0,3,1.344,3,3L39.018,20.012z"/>
	<path fill="#565958" d="M13.342,21.049c-0.632,0-1.275-0.592-1.381-1.268l-2.583-13.6c0.062-0.771,0.706-1.383,1.496-1.383h27.751
		c0.787,0,1.435,0.611,1.494,1.383l-2.573,13.551c-0.112,0.725-0.759,1.316-1.389,1.316H13.342z"/>
	<path fill="#565958" d="M13.342,20.049c-0.107,0-0.357-0.197-0.394-0.42L10.395,6.162c0.057-0.209,0.253-0.363,0.479-0.363h27.751
		c0.228,0,0.42,0.154,0.48,0.363l-2.543,13.385c-0.046,0.303-0.307,0.502-0.405,0.502H13.342z"/>
	<g>
		<rect x="13.3" y="9.131" fill="#080304" width="2.188" height="2.188"/>
		<rect x="14.395" y="10.225" fill="#9E9E9E" width="1.094" height="1.094"/>
	</g>
	<g>
		<rect x="18.477" y="9.131" fill="#080304" width="2.189" height="2.188"/>
		<rect x="19.572" y="10.225" fill="#9E9E9E" width="1.094" height="1.094"/>
	</g>
	<g>
		<rect x="23.654" y="9.131" fill="#080304" width="2.189" height="2.188"/>
		<rect x="24.75" y="10.225" fill="#9E9E9E" width="1.094" height="1.094"/>
	</g>
	<g>
		<rect x="28.832" y="9.131" fill="#080304" width="2.188" height="2.188"/>
		<rect x="29.927" y="10.225" fill="#9E9E9E" width="1.094" height="1.094"/>
	</g>
	<g>
		<rect x="34.01" y="9.131" fill="#080304" width="2.188" height="2.188"/>
		<rect x="35.104" y="10.225" fill="#9E9E9E" width="1.094" height="1.094"/>
	</g>
	<g>
		<rect x="15.888" y="14.531" fill="#080304" width="2.188" height="2.188"/>
		<rect x="16.982" y="15.625" fill="#9E9E9E" width="1.094" height="1.094"/>
	</g>
	<g>
		<rect x="21.065" y="14.531" fill="#080304" width="2.188" height="2.188"/>
		<rect x="22.16" y="15.625" fill="#9E9E9E" width="1.094" height="1.094"/>
	</g>
	<g>
		<rect x="26.242" y="14.531" fill="#080304" width="2.189" height="2.188"/>
		<rect x="27.336" y="15.625" fill="#9E9E9E" width="1.096" height="1.094"/>
	</g>
	<g>
		<rect x="31.42" y="14.531" fill="#080304" width="2.188" height="2.188"/>
		<rect x="32.516" y="15.625" fill="#9E9E9E" width="1.093" height="1.094"/>
	</g>
</g>
</svg>
