<?xml version="1.0" encoding="utf-8"?>
<!-- Generator: Adobe Illustrator 19.0.0, SVG Export Plug-In . SVG Version: 6.00 Build 0)  -->
<svg version="1.1" id="图层_1" xmlns="http://www.w3.org/2000/svg" xmlns:xlink="http://www.w3.org/1999/xlink" x="0px" y="0px"
	 width="23.017px" height="28.488px" viewBox="0 0 23.017 28.488" enable-background="new 0 0 23.017 28.488" xml:space="preserve">
<g id="XMLID_1222_">
	<path id="XMLID_1209_" fill="#1043A2" stroke="#B9B9B9" stroke-miterlimit="10" d="M20.071,9.679V1.397
		c0-0.496-0.397-0.897-0.888-0.897H3.834c-0.49,0-0.888,0.402-0.888,0.897v8.282c0,0.62-0.233,1.217-0.653,1.67l-1.306,1.409
		C0.674,13.097,0.5,13.543,0.5,14.006v14.364c0,0.493,0.396,0.893,0.883,0.893h20.25c0.488,0,0.883-0.4,0.883-0.893V14.006
		c0-0.463-0.174-0.91-0.488-1.248l-1.306-1.409C20.304,10.897,20.071,10.299,20.071,9.679z"/>
	<polygon id="XMLID_1228_" fill="#1F272E" points="20.141,14.882 18.118,14.882 18.118,14.216 16.801,14.216 16.801,14.882 
		14.355,14.882 14.355,14.216 13.038,14.216 13.038,14.882 10.591,14.882 10.591,14.216 9.274,14.216 9.274,14.882 6.828,14.882 
		6.828,14.216 5.51,14.216 5.51,14.882 3.487,14.882 3.487,24.033 5.51,24.033 5.51,24.698 6.828,24.698 6.828,24.033 9.274,24.033 
		9.274,24.698 10.591,24.698 10.591,24.033 13.038,24.033 13.038,24.698 14.355,24.698 14.355,24.033 16.801,24.033 16.801,24.698 
		18.118,24.698 18.118,24.033 20.141,24.033 	"/>
	<rect id="XMLID_1185_" x="6.773" y="26.798" fill="#1F272E" width="9.785" height="2.466"/>
	<rect id="XMLID_1218_" x="7.916" y="26.798" fill="#706D46" width="7.498" height="1.233"/>
	<rect id="XMLID_1186_" x="3.487" y="0.939" fill="#1F272E" width="16.339" height="5.022"/>
	<g id="XMLID_1208_">
		<polygon id="XMLID_1219_" fill="#1F272E" points="6.361,8.91 6.361,11.167 4.828,11.167 4.828,12.334 6.361,12.334 8.592,12.334 
			8.592,11.167 8.592,8.91 		"/>
		<polygon id="XMLID_1210_" fill="#1F272E" points="16.656,8.91 16.656,11.167 18.189,11.167 18.189,12.334 16.656,12.334 
			14.425,12.334 14.425,11.167 14.425,8.91 		"/>
	</g>
	<path id="XMLID_1220_" fill="none" stroke="#B9B9B9" stroke-miterlimit="10" d="M20.071,9.679V1.397
		c0-0.496-0.397-0.897-0.888-0.897H3.834c-0.49,0-0.888,0.402-0.888,0.897v8.282c0,0.62-0.233,1.217-0.653,1.67l-1.306,1.409
		C0.674,13.097,0.5,13.543,0.5,14.006v14.364c0,0.493,0.396,0.893,0.883,0.893h20.25c0.488,0,0.883-0.4,0.883-0.893V14.006
		c0-0.463-0.174-0.91-0.488-1.248l-1.306-1.409C20.304,10.897,20.071,10.299,20.071,9.679z"/>
</g>
</svg>
