<?xml version="1.0" encoding="utf-8"?>
<!-- Generator: Adobe Illustrator 19.0.0, SVG Export Plug-In . SVG Version: 6.00 Build 0)  -->
<svg version="1.1" id="图层_1" xmlns="http://www.w3.org/2000/svg" xmlns:xlink="http://www.w3.org/1999/xlink" x="0px" y="0px"
	 width="34.016px" height="13.039px" viewBox="0 0 34.016 13.039" enable-background="new 0 0 34.016 13.039" xml:space="preserve">
<g id="XMLID_782_">
	<path id="XMLID_1030_" fill="#000200" stroke="#B9B9B9" stroke-miterlimit="10" d="M32.146,12.539H1.869
		c-0.756,0-1.369-0.613-1.369-1.369v-9.3C0.5,1.113,1.113,0.5,1.869,0.5h30.277c0.756,0,1.369,0.613,1.369,1.369v9.3
		C33.516,11.926,32.903,12.539,32.146,12.539z"/>
	<path id="XMLID_1031_" fill="#E7E7E7" d="M31.692,6.52H2.386c-0.233,0-0.422-0.189-0.422-0.422V1.923
		c0-0.233,0.189-0.422,0.422-0.422h29.306c0.233,0,0.422,0.189,0.422,0.422v4.175C32.114,6.331,31.925,6.52,31.692,6.52z"/>
	<path id="XMLID_1032_" fill="none" stroke="#B9B9B9" stroke-miterlimit="10" d="M32.362,12.539H1.654
		c-0.637,0-1.154-0.517-1.154-1.154V1.654C0.5,1.017,1.017,0.5,1.654,0.5h30.708c0.637,0,1.154,0.517,1.154,1.154v9.731
		C33.516,12.023,32.999,12.539,32.362,12.539z"/>
</g>
</svg>
