<?xml version="1.0" encoding="utf-8"?>
<!-- Generator: Adobe Illustrator 19.0.0, SVG Export Plug-In . SVG Version: 6.00 Build 0)  -->
<svg version="1.1" id="图层_1" xmlns="http://www.w3.org/2000/svg" xmlns:xlink="http://www.w3.org/1999/xlink" x="0px" y="0px"
	 width="69.792px" height="22.5px" viewBox="0 0 69.792 22.5" enable-background="new 0 0 69.792 22.5" xml:space="preserve">
<g id="XMLID_1359_">
	<g id="XMLID_1364_">
		<path id="XMLID_1280_" fill="#414244" stroke="#B9B9B9" stroke-miterlimit="10" d="M48.37,21.894H21.415
			c-3.737,0-6.952-2.641-7.678-6.307l-1.806-9.119C11.38,3.345,13.913,0.5,17.244,0.5h35.297c3.331,0,5.864,2.845,5.313,5.967
			l-1.806,9.119C55.322,19.252,52.107,21.894,48.37,21.894z"/>
		<g id="XMLID_1357_">
			<g id="XMLID_1301_">
				<ellipse id="XMLID_1300_" cx="20.13" cy="5.352" rx="2.199" ry="2.206"/>
				<ellipse id="XMLID_1302_" cx="26.79" cy="5.352" rx="2.199" ry="2.206"/>
				<ellipse id="XMLID_1303_" cx="33.451" cy="5.352" rx="2.199" ry="2.206"/>
				<ellipse id="XMLID_1304_" cx="40.112" cy="5.352" rx="2.199" ry="2.206"/>
				<ellipse id="XMLID_1305_" cx="46.772" cy="5.352" rx="2.199" ry="2.206"/>
			</g>
			<g id="XMLID_1307_">
				<ellipse id="XMLID_1312_" cx="23.692" cy="11.197" rx="2.199" ry="2.206"/>
				<ellipse id="XMLID_1311_" cx="30.353" cy="11.197" rx="2.199" ry="2.206"/>
				<ellipse id="XMLID_1310_" cx="37.013" cy="11.197" rx="2.199" ry="2.206"/>
				<ellipse id="XMLID_1309_" cx="43.674" cy="11.197" rx="2.199" ry="2.206"/>
				<ellipse id="XMLID_1308_" cx="50.334" cy="11.197" rx="2.199" ry="2.206"/>
			</g>
			<g id="XMLID_1313_">
				<ellipse id="XMLID_1355_" cx="19.45" cy="17.041" rx="2.199" ry="2.206"/>
				<ellipse id="XMLID_1354_" cx="26.111" cy="17.041" rx="2.199" ry="2.206"/>
				<ellipse id="XMLID_1353_" cx="32.772" cy="17.041" rx="2.199" ry="2.206"/>
				<ellipse id="XMLID_1315_" cx="39.432" cy="17.041" rx="2.199" ry="2.206"/>
				<ellipse id="XMLID_1314_" cx="46.093" cy="17.041" rx="2.199" ry="2.206"/>
			</g>
		</g>
	</g>
	<g id="XMLID_1363_">
		<g id="XMLID_1306_">
			<path id="XMLID_515_" fill="#BDBDBD" d="M3.5,15.316c-0.473,0-0.914-0.254-1.15-0.664L0.552,11.54
				c-0.236-0.41-0.236-0.919,0-1.329l1.797-3.112c0.237-0.41,0.677-0.664,1.15-0.664h3.593c0.473,0,0.914,0.254,1.151,0.664
				l1.796,3.112c0.236,0.41,0.236,0.919,0,1.329l-1.796,3.112c-0.237,0.41-0.678,0.664-1.151,0.664H3.5z"/>
			<path id="XMLID_512_" fill="#8F8F8F" d="M7.093,6.81c0.341,0,0.656,0.182,0.826,0.477l1.797,3.112c0.17,0.295,0.17,0.659,0,0.954
				l-1.797,3.112c-0.17,0.295-0.485,0.477-0.826,0.477H3.5c-0.341,0-0.656-0.182-0.826-0.477l-1.797-3.112
				c-0.17-0.295-0.17-0.659,0-0.954l1.797-3.112C2.844,6.992,3.159,6.81,3.5,6.81H7.093 M7.093,6.06H3.5
				c-0.607,0-1.172,0.326-1.475,0.852l-1.797,3.112c-0.303,0.525-0.303,1.178,0,1.704l1.797,3.112
				c0.303,0.525,0.869,0.852,1.475,0.852h3.593c0.607,0,1.172-0.326,1.475-0.852l1.797-3.112c0.303-0.525,0.303-1.178,0-1.704
				L8.568,6.912C8.265,6.386,7.7,6.06,7.093,6.06L7.093,6.06z"/>
		</g>
		
			<ellipse id="XMLID_1356_" fill="#CECECE" stroke="#8F8F8F" stroke-width="0.25" stroke-miterlimit="10" cx="5.296" cy="10.904" rx="3.609" ry="3.62"/>
		
			<ellipse id="XMLID_1358_" fill="#414244" stroke="#000000" stroke-width="0.25" stroke-miterlimit="10" cx="5.296" cy="10.904" rx="2.23" ry="2.236"/>
		<circle id="XMLID_1365_" fill="#8F8F8F" cx="5.296" cy="10.904" r="0.693"/>
	</g>
	<g id="XMLID_1368_">
		<g id="XMLID_1372_">
			<path id="XMLID_511_" fill="#BDBDBD" d="M62.692,15.316c-0.473,0-0.914-0.254-1.15-0.664l-1.797-3.112
				c-0.236-0.41-0.236-0.919,0-1.329l1.797-3.112c0.237-0.41,0.677-0.664,1.15-0.664h3.593c0.473,0,0.914,0.254,1.151,0.664
				l1.796,3.112c0.236,0.41,0.236,0.919,0,1.329l-1.796,3.112c-0.237,0.41-0.678,0.664-1.151,0.664H62.692z"/>
			<path id="XMLID_508_" fill="#8F8F8F" d="M66.285,6.81c0.341,0,0.656,0.182,0.826,0.477l1.797,3.112
				c0.17,0.295,0.17,0.659,0,0.954l-1.797,3.112c-0.17,0.295-0.485,0.477-0.826,0.477h-3.593c-0.341,0-0.656-0.182-0.826-0.477
				l-1.797-3.112c-0.17-0.295-0.17-0.659,0-0.954l1.797-3.112c0.17-0.295,0.485-0.477,0.826-0.477H66.285 M66.285,6.06h-3.593
				c-0.607,0-1.172,0.326-1.475,0.852l-1.797,3.112c-0.303,0.525-0.303,1.178,0,1.704l1.797,3.112
				c0.303,0.525,0.869,0.852,1.475,0.852h3.593c0.607,0,1.172-0.326,1.475-0.852l1.797-3.112c0.303-0.525,0.303-1.178,0-1.704
				l-1.797-3.112C67.457,6.386,66.892,6.06,66.285,6.06L66.285,6.06z"/>
		</g>
		
			<ellipse id="XMLID_1371_" fill="#CECECE" stroke="#8F8F8F" stroke-width="0.25" stroke-miterlimit="10" cx="64.489" cy="10.904" rx="3.609" ry="3.62"/>
		
			<ellipse id="XMLID_1370_" fill="#414244" stroke="#000000" stroke-width="0.25" stroke-miterlimit="10" cx="64.489" cy="10.904" rx="2.23" ry="2.236"/>
		<circle id="XMLID_1369_" fill="#8F8F8F" cx="64.489" cy="10.904" r="0.693"/>
	</g>
</g>
</svg>
