<?xml version="1.0" encoding="utf-8"?>
<!-- Generator: Adobe Illustrator 16.0.0, SVG Export Plug-In . SVG Version: 6.00 Build 0)  -->
<!DOCTYPE svg PUBLIC "-//W3C//DTD SVG 1.1//EN" "http://www.w3.org/Graphics/SVG/1.1/DTD/svg11.dtd">
<svg version="1.1" id="图层_1" xmlns="http://www.w3.org/2000/svg" xmlns:xlink="http://www.w3.org/1999/xlink" x="0px" y="0px"
	 width="32.955px" height="68.828px" viewBox="0 0 32.955 68.828" enable-background="new 0 0 32.955 68.828" xml:space="preserve">
<g>
	<linearGradient id="SVGID_1_" gradientUnits="userSpaceOnUse" x1="0.0381" y1="33.6689" x2="32.9551" y2="33.6689">
		<stop  offset="0" style="stop-color:#FFFFFF"/>
		<stop  offset="1" style="stop-color:#9E9E9E"/>
	</linearGradient>
	<path fill="url(#SVGID_1_)" d="M32.955,66.336c0,0.553-0.447,1-1,1H2.288c-0.552,0-1-0.447-1-1c0,0-1.25-3.708-1.25-32.667
		s1.25-32.667,1.25-32.667c0-0.553,0.448-1,1-1h29.667c0.553,0,1,0.447,1,1V66.336z"/>
	<g>
		<g>
			<defs>
				<line id="SVGID_7_" x1="31.729" y1="0.002" x2="31.729" y2="67.336"/>
			</defs>
			<clipPath id="SVGID_2_">
				<use xlink:href="#SVGID_7_"  overflow="visible"/>
			</clipPath>
			<path clip-path="url(#SVGID_2_)" fill="#FFFFFF" d="M31.729,0v67.336V0z"/>
			<path clip-path="url(#SVGID_2_)" fill="#FFFFFF" d="M31.729,0v67.336V0z"/>
			<path clip-path="url(#SVGID_2_)" fill="#FEFEFE" d="M31.729,0v67.336V0z"/>
			<path clip-path="url(#SVGID_2_)" fill="#FDFDFD" d="M31.729,0v67.336V0z"/>
			<path clip-path="url(#SVGID_2_)" fill="#FCFCFC" d="M31.729,0v67.336V0z"/>
			<path clip-path="url(#SVGID_2_)" fill="#FBFBFB" d="M31.729,0v67.336V0z"/>
			<path clip-path="url(#SVGID_2_)" fill="#FAFAFA" d="M31.729,0v67.336V0z"/>
			<path clip-path="url(#SVGID_2_)" fill="#F9F9F9" d="M31.729,0v67.336V0z"/>
			<path clip-path="url(#SVGID_2_)" fill="#F8F8F8" d="M31.729,0v67.336V0z"/>
			<path clip-path="url(#SVGID_2_)" fill="#F7F7F7" d="M31.729,0v67.336V0z"/>
			<path clip-path="url(#SVGID_2_)" fill="#F6F6F6" d="M31.729,0v67.336V0z"/>
			<path clip-path="url(#SVGID_2_)" fill="#F5F5F5" d="M31.729,0v67.336V0z"/>
			<path clip-path="url(#SVGID_2_)" fill="#F4F4F4" d="M31.729,0v67.336V0z"/>
			<path clip-path="url(#SVGID_2_)" fill="#F3F3F3" d="M31.729,0v67.336V0z"/>
			<path clip-path="url(#SVGID_2_)" fill="#F2F2F2" d="M31.729,0v67.336V0z"/>
			<path clip-path="url(#SVGID_2_)" fill="#F1F1F1" d="M31.729,0v67.336V0z"/>
			<path clip-path="url(#SVGID_2_)" fill="#F0F0F0" d="M31.729,0v67.336V0z"/>
			<path clip-path="url(#SVGID_2_)" fill="#EFEFEF" d="M31.729,0v67.336V0z"/>
			<path clip-path="url(#SVGID_2_)" fill="#EEEEEE" d="M31.729,0v67.336V0z"/>
			<path clip-path="url(#SVGID_2_)" fill="#EDEDED" d="M31.729,0v67.336V0z"/>
			<path clip-path="url(#SVGID_2_)" fill="#ECECEC" d="M31.729,0v67.336V0z"/>
			<path clip-path="url(#SVGID_2_)" fill="#EBEBEB" d="M31.729,0v67.336V0z"/>
			<path clip-path="url(#SVGID_2_)" fill="#EAEAEA" d="M31.729,0v67.336V0z"/>
			<path clip-path="url(#SVGID_2_)" fill="#E9E9E9" d="M31.729,0v67.336V0z"/>
			<path clip-path="url(#SVGID_2_)" fill="#E8E8E8" d="M31.729,0v67.336V0z"/>
			<path clip-path="url(#SVGID_2_)" fill="#E7E7E7" d="M31.729,0v67.336V0z"/>
			<path clip-path="url(#SVGID_2_)" fill="#E6E6E6" d="M31.729,0v67.336V0z"/>
			<path clip-path="url(#SVGID_2_)" fill="#E5E5E5" d="M31.729,0v67.336V0z"/>
			<path clip-path="url(#SVGID_2_)" fill="#E4E4E4" d="M31.729,0v67.336V0z"/>
			<path clip-path="url(#SVGID_2_)" fill="#E3E3E3" d="M31.729,0v67.336V0z"/>
			<path clip-path="url(#SVGID_2_)" fill="#E2E2E2" d="M31.729,0v67.336V0z"/>
			<path clip-path="url(#SVGID_2_)" fill="#E1E1E1" d="M31.729,0v67.336V0z"/>
			<path clip-path="url(#SVGID_2_)" fill="#E0E0E0" d="M31.729,0v67.336V0z"/>
			<path clip-path="url(#SVGID_2_)" fill="#DFDFDF" d="M31.729,0v67.336V0z"/>
			<path clip-path="url(#SVGID_2_)" fill="#DEDEDE" d="M31.729,0v67.336V0z"/>
			<path clip-path="url(#SVGID_2_)" fill="#DDDDDD" d="M31.729,0v67.336V0z"/>
			<path clip-path="url(#SVGID_2_)" fill="#DBDCDC" d="M31.729,0v67.336V0z"/>
			<path clip-path="url(#SVGID_2_)" fill="#DADBDB" d="M31.729,0v67.336V0z"/>
			<path clip-path="url(#SVGID_2_)" fill="#D9DADA" d="M31.729,0v67.336V0z"/>
			<path clip-path="url(#SVGID_2_)" fill="#D8D9D9" d="M31.729,0v67.336V0z"/>
			<path clip-path="url(#SVGID_2_)" fill="#D7D8D8" d="M31.729,0v67.336V0z"/>
			<path clip-path="url(#SVGID_2_)" fill="#D6D7D7" d="M31.729,0v67.336V0z"/>
			<path clip-path="url(#SVGID_2_)" fill="#D5D6D6" d="M31.729,0v67.336V0z"/>
			<path clip-path="url(#SVGID_2_)" fill="#D4D5D5" d="M31.729,0v67.336V0z"/>
			<path clip-path="url(#SVGID_2_)" fill="#D3D4D4" d="M31.729,0v67.336V0z"/>
			<path clip-path="url(#SVGID_2_)" fill="#D2D3D3" d="M31.729,0v67.336V0z"/>
			<path clip-path="url(#SVGID_2_)" fill="#D1D2D2" d="M31.729,0v67.336V0z"/>
			<path clip-path="url(#SVGID_2_)" fill="#D0D1D1" d="M31.729,0v67.336V0z"/>
			<path clip-path="url(#SVGID_2_)" fill="#CFD0D0" d="M31.729,0v67.336V0z"/>
			<path clip-path="url(#SVGID_2_)" fill="#CECFCF" d="M31.729,0v67.336V0z"/>
			<path clip-path="url(#SVGID_2_)" fill="#CDCECE" d="M31.729,0v67.336V0z"/>
			<path clip-path="url(#SVGID_2_)" fill="#CCCDCD" d="M31.729,0v67.336V0z"/>
			<path clip-path="url(#SVGID_2_)" fill="#CBCCCC" d="M31.729,0v67.336V0z"/>
			<path clip-path="url(#SVGID_2_)" fill="#CACBCB" d="M31.729,0v67.336V0z"/>
			<path clip-path="url(#SVGID_2_)" fill="#C9CACA" d="M31.729,0v67.336V0z"/>
			<path clip-path="url(#SVGID_2_)" fill="#C8C9C9" d="M31.729,0v67.336V0z"/>
			<path clip-path="url(#SVGID_2_)" fill="#C7C8C8" d="M31.729,0v67.336V0z"/>
			<path clip-path="url(#SVGID_2_)" fill="#C6C7C7" d="M31.729,0v67.336V0z"/>
			<path clip-path="url(#SVGID_2_)" fill="#C5C6C6" d="M31.729,0v67.336V0z"/>
			<path clip-path="url(#SVGID_2_)" fill="#C4C5C5" d="M31.729,0v67.336V0z"/>
			<path clip-path="url(#SVGID_2_)" fill="#C3C4C4" d="M31.729,0v67.336V0z"/>
			<path clip-path="url(#SVGID_2_)" fill="#C2C3C3" d="M31.729,0v67.336V0z"/>
			<path clip-path="url(#SVGID_2_)" fill="#C1C2C2" d="M31.729,0v67.336V0z"/>
			<path clip-path="url(#SVGID_2_)" fill="#C0C1C1" d="M31.729,0v67.336V0z"/>
			<path clip-path="url(#SVGID_2_)" fill="#BFC0C0" d="M31.729,0v67.336V0z"/>
			<path clip-path="url(#SVGID_2_)" fill="#BEBFBF" d="M31.729,0v67.336V0z"/>
			<path clip-path="url(#SVGID_2_)" fill="#BDBEBE" d="M31.729,0v67.336V0z"/>
			<path clip-path="url(#SVGID_2_)" fill="#BCBDBD" d="M31.729,0v67.336V0z"/>
			<path clip-path="url(#SVGID_2_)" fill="#BBBCBC" d="M31.729,0v67.336V0z"/>
			<path clip-path="url(#SVGID_2_)" fill="#BABBBB" d="M31.729,0v67.336V0z"/>
			<path clip-path="url(#SVGID_2_)" fill="#B9BABA" d="M31.729,0v67.336V0z"/>
			<path clip-path="url(#SVGID_2_)" fill="#B9BABA" d="M31.729,0v67.336V0z"/>
		</g>
		<rect x="31.587" y="0.002" fill="#6D6D6D" width="0.283" height="67.334"/>
	</g>
	<g>
		<g>
			<defs>
				<path id="SVGID_9_" d="M0.329,29.578c0,0-0.237,13.758,0.359,26.504"/>
			</defs>
			<clipPath id="SVGID_3_">
				<use xlink:href="#SVGID_9_"  overflow="visible"/>
			</clipPath>
			<rect x="0.093" y="29.578" clip-path="url(#SVGID_3_)" fill="#FFFFFF" width="0.191" height="39.25"/>
			<rect x="0.284" y="29.578" clip-path="url(#SVGID_3_)" fill="#FFFFFF" width="0.004" height="39.25"/>
			<rect x="0.288" y="29.578" clip-path="url(#SVGID_3_)" fill="#FEFEFE" width="0.004" height="39.25"/>
			<rect x="0.292" y="29.578" clip-path="url(#SVGID_3_)" fill="#FDFDFD" width="0.008" height="39.25"/>
			<rect x="0.3" y="29.578" clip-path="url(#SVGID_3_)" fill="#FCFCFC" width="0.004" height="39.25"/>
			<rect x="0.304" y="29.578" clip-path="url(#SVGID_3_)" fill="#FBFBFB" width="0.008" height="39.25"/>
			<rect x="0.312" y="29.578" clip-path="url(#SVGID_3_)" fill="#FAFAFA" width="0.004" height="39.25"/>
			<rect x="0.315" y="29.578" clip-path="url(#SVGID_3_)" fill="#F9F9F9" width="0.008" height="39.25"/>
			<rect x="0.323" y="29.578" clip-path="url(#SVGID_3_)" fill="#F8F8F8" width="0.004" height="39.25"/>
			<rect x="0.327" y="29.578" clip-path="url(#SVGID_3_)" fill="#F7F7F7" width="0.008" height="39.25"/>
			<rect x="0.335" y="29.578" clip-path="url(#SVGID_3_)" fill="#F6F6F6" width="0.004" height="39.25"/>
			<rect x="0.339" y="29.578" clip-path="url(#SVGID_3_)" fill="#F5F5F5" width="0.008" height="39.25"/>
			<rect x="0.347" y="29.578" clip-path="url(#SVGID_3_)" fill="#F4F4F4" width="0.004" height="39.25"/>
			<rect x="0.351" y="29.578" clip-path="url(#SVGID_3_)" fill="#F3F3F3" width="0.008" height="39.25"/>
			<rect x="0.358" y="29.578" clip-path="url(#SVGID_3_)" fill="#F2F2F2" width="0.004" height="39.25"/>
			<rect x="0.362" y="29.578" clip-path="url(#SVGID_3_)" fill="#F1F1F1" width="0.008" height="39.25"/>
			<rect x="0.37" y="29.578" clip-path="url(#SVGID_3_)" fill="#F0F0F0" width="0.004" height="39.25"/>
			<rect x="0.374" y="29.578" clip-path="url(#SVGID_3_)" fill="#EFEFEF" width="0.008" height="39.25"/>
			<rect x="0.382" y="29.578" clip-path="url(#SVGID_3_)" fill="#EEEEEE" width="0.004" height="39.25"/>
			<rect x="0.386" y="29.578" clip-path="url(#SVGID_3_)" fill="#EDEDED" width="0.008" height="39.25"/>
			<rect x="0.394" y="29.578" clip-path="url(#SVGID_3_)" fill="#ECECEC" width="0.004" height="39.25"/>
			<rect x="0.397" y="29.578" clip-path="url(#SVGID_3_)" fill="#EBEBEB" width="0.008" height="39.25"/>
			<rect x="0.405" y="29.578" clip-path="url(#SVGID_3_)" fill="#EAEAEA" width="0.004" height="39.25"/>
			<rect x="0.409" y="29.578" clip-path="url(#SVGID_3_)" fill="#E9E9E9" width="0.008" height="39.25"/>
			<rect x="0.417" y="29.578" clip-path="url(#SVGID_3_)" fill="#E8E8E8" width="0.004" height="39.25"/>
			<rect x="0.421" y="29.578" clip-path="url(#SVGID_3_)" fill="#E7E7E7" width="0.008" height="39.25"/>
			<rect x="0.429" y="29.578" clip-path="url(#SVGID_3_)" fill="#E6E6E6" width="0.004" height="39.25"/>
			<rect x="0.433" y="29.578" clip-path="url(#SVGID_3_)" fill="#E5E5E5" width="0.008" height="39.25"/>
			<rect x="0.44" y="29.578" clip-path="url(#SVGID_3_)" fill="#E4E4E4" width="0.004" height="39.25"/>
			<rect x="0.444" y="29.578" clip-path="url(#SVGID_3_)" fill="#E3E3E3" width="0.004" height="39.25"/>
			<rect x="0.448" y="29.578" clip-path="url(#SVGID_3_)" fill="#E2E2E2" width="0.008" height="39.25"/>
			<rect x="0.456" y="29.578" clip-path="url(#SVGID_3_)" fill="#E1E1E1" width="0.008" height="39.25"/>
			<rect x="0.464" y="29.578" clip-path="url(#SVGID_3_)" fill="#E0E0E0" width="0.004" height="39.25"/>
			<rect x="0.468" y="29.578" clip-path="url(#SVGID_3_)" fill="#DFDFDF" width="0.004" height="39.25"/>
			<rect x="0.472" y="29.578" clip-path="url(#SVGID_3_)" fill="#DEDEDE" width="0.008" height="39.25"/>
			<rect x="0.479" y="29.578" clip-path="url(#SVGID_3_)" fill="#DDDDDD" width="0.008" height="39.25"/>
			<rect x="0.487" y="29.578" clip-path="url(#SVGID_3_)" fill="#DBDCDC" width="0.004" height="39.25"/>
			<rect x="0.491" y="29.578" clip-path="url(#SVGID_3_)" fill="#DADBDB" width="0.004" height="39.25"/>
			<rect x="0.495" y="29.578" clip-path="url(#SVGID_3_)" fill="#D9DADA" width="0.008" height="39.25"/>
			<rect x="0.503" y="29.578" clip-path="url(#SVGID_3_)" fill="#D8D9D9" width="0.004" height="39.25"/>
			<rect x="0.507" y="29.578" clip-path="url(#SVGID_3_)" fill="#D7D8D8" width="0.008" height="39.25"/>
			<rect x="0.515" y="29.578" clip-path="url(#SVGID_3_)" fill="#D6D7D7" width="0.004" height="39.25"/>
			<rect x="0.519" y="29.578" clip-path="url(#SVGID_3_)" fill="#D5D6D6" width="0.008" height="39.25"/>
			<rect x="0.526" y="29.578" clip-path="url(#SVGID_3_)" fill="#D4D5D5" width="0.004" height="39.25"/>
			<rect x="0.53" y="29.578" clip-path="url(#SVGID_3_)" fill="#D3D4D4" width="0.008" height="39.25"/>
			<rect x="0.538" y="29.578" clip-path="url(#SVGID_3_)" fill="#D2D3D3" width="0.004" height="39.25"/>
			<rect x="0.542" y="29.578" clip-path="url(#SVGID_3_)" fill="#D1D2D2" width="0.008" height="39.25"/>
			<rect x="0.55" y="29.578" clip-path="url(#SVGID_3_)" fill="#D0D1D1" width="0.004" height="39.25"/>
			<rect x="0.554" y="29.578" clip-path="url(#SVGID_3_)" fill="#CFD0D0" width="0.008" height="39.25"/>
			<rect x="0.562" y="29.578" clip-path="url(#SVGID_3_)" fill="#CECFCF" width="0.004" height="39.25"/>
			<rect x="0.565" y="29.578" clip-path="url(#SVGID_3_)" fill="#CDCECE" width="0.008" height="39.25"/>
			<rect x="0.573" y="29.578" clip-path="url(#SVGID_3_)" fill="#CCCDCD" width="0.004" height="39.25"/>
			<rect x="0.577" y="29.578" clip-path="url(#SVGID_3_)" fill="#CBCCCC" width="0.008" height="39.25"/>
			<rect x="0.585" y="29.578" clip-path="url(#SVGID_3_)" fill="#CACBCB" width="0.004" height="39.25"/>
			<rect x="0.589" y="29.578" clip-path="url(#SVGID_3_)" fill="#C9CACA" width="0.008" height="39.25"/>
			<rect x="0.597" y="29.578" clip-path="url(#SVGID_3_)" fill="#C8C9C9" width="0.004" height="39.25"/>
			<rect x="0.601" y="29.578" clip-path="url(#SVGID_3_)" fill="#C7C8C8" width="0.008" height="39.25"/>
			<rect x="0.608" y="29.578" clip-path="url(#SVGID_3_)" fill="#C6C7C7" width="0.004" height="39.25"/>
			<rect x="0.612" y="29.578" clip-path="url(#SVGID_3_)" fill="#C5C6C6" width="0.008" height="39.25"/>
			<rect x="0.62" y="29.578" clip-path="url(#SVGID_3_)" fill="#C4C5C5" width="0.004" height="39.25"/>
			<rect x="0.624" y="29.578" clip-path="url(#SVGID_3_)" fill="#C3C4C4" width="0.004" height="39.25"/>
			<rect x="0.628" y="29.578" clip-path="url(#SVGID_3_)" fill="#C2C3C3" width="0.008" height="39.25"/>
			<rect x="0.636" y="29.578" clip-path="url(#SVGID_3_)" fill="#C1C2C2" width="0.008" height="39.25"/>
			<rect x="0.644" y="29.578" clip-path="url(#SVGID_3_)" fill="#C0C1C1" width="0.004" height="39.25"/>
			<rect x="0.647" y="29.578" clip-path="url(#SVGID_3_)" fill="#BFC0C0" width="0.004" height="39.25"/>
			<rect x="0.651" y="29.578" clip-path="url(#SVGID_3_)" fill="#BEBFBF" width="0.008" height="39.25"/>
			<rect x="0.659" y="29.578" clip-path="url(#SVGID_3_)" fill="#BDBEBE" width="0.008" height="39.25"/>
			<rect x="0.667" y="29.578" clip-path="url(#SVGID_3_)" fill="#BCBDBD" width="0.004" height="39.25"/>
			<rect x="0.671" y="29.578" clip-path="url(#SVGID_3_)" fill="#BBBCBC" width="0.004" height="39.25"/>
			<rect x="0.675" y="29.578" clip-path="url(#SVGID_3_)" fill="#BABBBB" width="0.008" height="39.25"/>
			<rect x="0.683" y="29.578" clip-path="url(#SVGID_3_)" fill="#B9BABA" width="0.004" height="39.25"/>
			<rect x="0.687" y="29.578" clip-path="url(#SVGID_3_)" fill="#B9BABA" width="0.598" height="39.25"/>
		</g>
		<path fill="#13300E" d="M0.405,56.095c-0.59-12.609-0.361-26.385-0.359-26.522l0.566,0.01C0.61,29.72,0.382,43.478,0.971,56.069
			L0.405,56.095z"/>
	</g>
</g>
</svg>
